<svg xmlns="http://www.w3.org/2000/svg" width="1088" height="289" fill="none" viewBox="0 0 1088 289">
    <title>Maëva Pasteur</title>
    <path fill="#000" d="M137.216 111.867v-6.471c.043-1.64.345-8.262.906-19.867h-.518l-22.002 66.653H99.101L78.587 85.4h-.517c.733 14.02 1.1 23.08 1.1 27.179v39.603H63.056v-85.16h24.526l20.19 65.1h.324l21.355-65.1h24.59v85.16h-16.825v-40.315Zm109.912 40.315h-19.479l-6.147-20.255H190.44l-6.148 20.255h-19.478l30.027-85.484h22.066l30.221 85.484Zm-52.158-35.397h22.196l-9.642-31.126c-.69-2.33-1.208-4.25-1.553-5.76-1.165 4.66-4.832 16.955-11.001 36.886Zm111.948 20.514v14.883h-48.987v-85.16h48.987V81.84h-30.932v18.701h28.797v14.755h-28.797v22.002h30.932Zm50.184-19.608 16.113-50.67h18.249l-28.926 85.161h-19.737l-28.862-85.16h18.249l15.984 50.669c.776 2.631 1.661 6.018 2.653 10.16 1.035 4.141 1.661 7.01 1.877 8.606.474-3.882 1.941-10.138 4.4-18.766Zm111.901 34.491h-19.479l-6.147-20.255h-31.062l-6.148 20.255h-19.478l30.027-85.484h22.066l30.221 85.484Zm-52.158-35.397h22.196l-9.642-31.126c-.69-2.33-1.208-4.25-1.553-5.76-1.165 4.66-4.832 16.955-11.001 36.886ZM532.236 81.84v25.238h5.889c11.087 0 16.631-4.271 16.631-12.813 0-4.27-1.165-7.398-3.495-9.383-2.286-2.028-5.91-3.041-10.871-3.041h-8.154Zm9.124-14.819c10.354 0 18.206 2.244 23.555 6.73 5.393 4.444 8.089 11.153 8.089 20.126s-2.868 15.897-8.606 20.772c-5.695 4.832-13.849 7.248-24.461 7.248h-7.701v30.285h-18.055v-85.16h27.179Zm113.268 85.161h-19.479l-6.147-20.255H597.94l-6.148 20.255h-19.478l30.027-85.484h22.066l30.221 85.484Zm-52.158-35.397h22.196l-9.642-31.126c-.69-2.33-1.208-4.25-1.553-5.76-1.165 4.66-4.832 16.955-11.001 36.886Zm113.178 11.777c0 7.636-2.761 13.676-8.283 18.12-5.522 4.443-13.029 6.665-22.52 6.665s-17.71-1.704-24.655-5.112v-16.76c5.738 2.502 10.591 4.292 14.56 5.371 3.969 1.078 7.787 1.617 11.454 1.617 3.667 0 6.536-.755 8.607-2.265 2.113-1.553 3.17-3.818 3.17-6.794 0-1.726-.474-3.214-1.423-4.465-.949-1.295-2.265-2.503-3.948-3.624-1.639-1.165-5.241-3.042-10.807-5.63-5.522-2.632-9.555-5.069-12.101-7.313-5.694-4.918-8.542-11.087-8.542-18.507 0-7.42 2.546-13.288 7.636-17.602 5.091-4.314 12.145-6.471 21.161-6.471 7.636 0 16.07 2.006 25.303 6.018l-5.825 14.043c-4.529-1.855-8.304-3.15-11.324-3.883a38.801 38.801 0 0 0-9.189-1.1c-3.063 0-5.522.776-7.377 2.33-1.812 1.553-2.718 3.645-2.718 6.276 0 3.02 1.531 5.566 4.594 7.636 1.51 1.036 5.328 2.999 11.454 5.889 7.895 3.797 13.331 7.615 16.308 11.454 2.976 3.84 4.465 8.542 4.465 14.107Zm48.217-46.527v70.147h-18.054V82.035h-23.102V67.022h64.258v15.013h-23.102Zm85.178 55.264v14.883h-48.987v-85.16h48.987V81.84h-30.932v18.701h28.797v14.755h-28.797v22.002h30.932Zm69.015-70.277h18.055v55.134c.086 9.448-3.085 17.041-9.513 22.779-6.428 5.737-15.035 8.542-25.82 8.412-11.001 0-19.521-2.804-25.561-8.412-5.997-5.652-8.995-13.331-8.995-23.038V67.021h17.99v52.158c0 6.644 1.316 11.476 3.947 14.496 2.675 3.02 6.989 4.53 12.943 4.53 5.996 0 10.31-1.532 12.942-4.595 2.675-3.063 4.012-7.916 4.012-14.56V67.022Zm56.928 52.481v32.679h-18.055v-85.16h24.785c11.519 0 20.064 2.113 25.624 6.341 5.61 4.185 8.41 10.57 8.41 19.155 0 5.004-1.38 9.469-4.14 13.395-2.71 3.883-6.62 6.946-11.71 9.189 12.81 19.112 21.16 31.472 25.04 37.08h-20.06l-20.317-32.679h-9.577Zm0-37.662v22.972h5.824c5.695 0 9.901-.949 12.619-2.847 2.718-1.898 4.077-4.853 4.077-8.866 0-4.012-1.381-6.88-4.142-8.606-2.718-1.77-7.032-2.653-12.942-2.653h-5.436Z"/>
    <path fill="#7F7F7F" d="M270.5 212.271v2H169.455v-2H270.5Z"/>
    <path fill="#343434" d="M298.605 209.133v13.638h-3.713v-31.935h17.788v3.3h-14.075v11.697h13.226v3.3h-13.226Zm23.063-15.045v12.206h5.096c2.604 0 4.521-.51 5.751-1.529 1.23-1.035 1.844-2.605 1.844-4.708s-.623-3.624-1.868-4.562c-1.246-.938-3.244-1.407-5.994-1.407h-4.829Zm0 15.409v13.274h-3.713v-31.935h8.76c3.899 0 6.787.752 8.663 2.257 1.877 1.488 2.815 3.745 2.815 6.77 0 4.239-2.135 7.094-6.406 8.566l8.663 14.342h-4.392l-7.741-13.274h-6.649Zm26.103 9.416c-2.556-2.896-3.834-6.949-3.834-12.158 0-5.225 1.278-9.262 3.834-12.109 2.572-2.864 6.18-4.295 10.823-4.295 4.659 0 8.275 1.456 10.847 4.368 2.589 2.895 3.883 6.908 3.883 12.036 0 5.112-1.294 9.132-3.883 12.061-2.588 2.928-6.212 4.392-10.871 4.392-4.643 0-8.243-1.432-10.799-4.295Zm18.928-21.938c-1.796-2.216-4.465-3.324-8.008-3.324-3.527 0-6.212 1.116-8.057 3.349-1.844 2.232-2.766 5.5-2.766 9.804 0 4.287.922 7.555 2.766 9.803 1.845 2.233 4.53 3.349 8.057 3.349s6.188-1.108 7.984-3.324c1.812-2.233 2.718-5.509 2.718-9.828 0-4.336-.898-7.612-2.694-9.829Zm35.216-6.139h3.471v31.935h-4.247l-17.448-26.79h-.17c.227 3.251.34 6.131.34 8.639v18.151h-3.422v-31.935h4.198l17.4 26.694h.17c-.243-4.191-.34-6.981-.292-8.373v-18.321Zm22.102 3.3v28.635h-3.713v-28.635h-10.119v-3.3h23.952v3.3h-10.12Zm45.6 25.311v3.324H451.83v-31.935h17.787v3.3h-14.074v10.289h13.225v3.276h-13.225v11.746h14.074Zm28.58-28.611h3.47v31.935h-4.247l-17.448-26.79h-.17c.227 3.251.34 6.131.34 8.639v18.151h-3.422v-31.935h4.199l17.399 26.694h.17c-.243-4.191-.34-6.981-.291-8.373v-18.321Zm33.628 4.125c2.751 2.751 4.126 6.682 4.126 11.794s-1.432 9.06-4.296 11.842c-2.847 2.783-6.964 4.174-12.351 4.174h-8.834v-31.935h9.78c4.967 0 8.825 1.375 11.575 4.125Zm-13.128 24.607c4.417 0 7.741-1.084 9.974-3.252 2.232-2.184 3.348-5.379 3.348-9.585 0-4.223-1.043-7.385-3.13-9.489-2.087-2.119-5.193-3.179-9.318-3.179h-5.388v25.505h4.514Zm58.644-24.607c2.75 2.751 4.125 6.682 4.125 11.794s-1.431 9.06-4.295 11.842c-2.847 2.783-6.964 4.174-12.352 4.174h-8.833v-31.935h9.78c4.966 0 8.825 1.375 11.575 4.125Zm-13.128 24.607c4.416 0 7.741-1.084 9.973-3.252 2.233-2.184 3.349-5.379 3.349-9.585 0-4.223-1.043-7.385-3.13-9.489-2.087-2.119-5.193-3.179-9.319-3.179h-5.387v25.505h4.514Zm42.186-.121v3.324h-17.788v-31.935h17.788v3.3h-14.075v10.289h13.225v3.276h-13.225v11.746h14.075Zm18.047-8.081 7.28-20.53h4.004l-11.502 31.935h-3.665l-11.454-31.935h3.932l7.328 20.675c.874 2.411 1.545 4.716 2.014 6.916a61.065 61.065 0 0 1 2.063-7.061Zm33.468 8.081v3.324h-17.787v-31.935h17.787v3.3H643.84v10.289h13.225v3.276H643.84v11.746h14.074Zm24.891 3.324h-17.788v-31.935h3.713v28.562h14.075v3.373Zm6.685-3.858c-2.557-2.896-3.835-6.949-3.835-12.158 0-5.225 1.278-9.262 3.835-12.109 2.572-2.864 6.18-4.295 10.823-4.295 4.659 0 8.275 1.456 10.847 4.368 2.588 2.895 3.883 6.908 3.883 12.036 0 5.112-1.295 9.132-3.883 12.061-2.588 2.928-6.212 4.392-10.872 4.392-4.643 0-8.242-1.432-10.798-4.295Zm18.928-21.938c-1.796-2.216-4.465-3.324-8.008-3.324-3.527 0-6.213 1.116-8.057 3.349-1.844 2.232-2.766 5.5-2.766 9.804 0 4.287.922 7.555 2.766 9.803 1.844 2.233 4.53 3.349 8.057 3.349 3.526 0 6.188-1.108 7.983-3.324 1.812-2.233 2.718-5.509 2.718-9.828 0-4.336-.897-7.612-2.693-9.829Zm22.015-6.139c7.976 0 11.964 3.106 11.964 9.318 0 3.22-1.109 5.703-3.325 7.45-2.2 1.748-5.347 2.621-9.44 2.621h-3.761v12.546h-3.713v-31.935h8.275Zm-4.562 3.227v12.959h3.349c3.268 0 5.646-.526 7.134-1.577 1.472-1.068 2.208-2.718 2.208-4.951 0-2.249-.695-3.883-2.087-4.902-1.391-1.019-3.543-1.529-6.455-1.529h-4.149Zm41.028 25.384v3.324h-17.788v-31.935h17.788v3.3h-14.075v10.289h13.225v3.276h-13.225v11.746h14.075Zm10.816-25.359v12.206h5.096c2.604 0 4.521-.51 5.751-1.529 1.229-1.035 1.844-2.605 1.844-4.708s-.623-3.624-1.868-4.562c-1.246-.938-3.244-1.407-5.994-1.407h-4.829Zm0 15.409v13.274h-3.713v-31.935h8.76c3.899 0 6.787.752 8.663 2.257 1.877 1.488 2.815 3.745 2.815 6.77 0 4.239-2.135 7.094-6.406 8.566l8.663 14.342h-4.392l-7.741-13.274h-6.649Z"/>
    <path fill="#7F7F7F" d="M918.545 212.271v2H817.5v-2h101.045Z"/>
</svg>
