<svg xmlns="http://www.w3.org/2000/svg" width="399" height="74" fill="none"><path fill="#00205B" d="M120.15 1.511v70.861h17.258V16.825h19.521c7.227 0 9.815 4.101 9.815 8.846 0 4.854-2.697 8.844-9.924 8.844h-16.717l23.729 37.857h19.631s-16.179-25.453-16.07-25.453c10.032-2.372 16.502-9.384 16.502-21.68 0-13.482-8.845-23.73-27.072-23.73l-36.673.002Zm-28.906 0h17.258v70.864H91.244V1.51ZM47.13 45.625H32.607l10.747-21.787h.217l24.16 48.536h19.846L51.444 1.51H36.13L-.004 72.374H19.41l5.853-11.864h29.093L47.13 45.625ZM192.09 1.512v70.86h41.961c14.668 0 24.268-7.873 24.268-19.845-.001-8.304-4.638-14.56-11.434-16.932 5.502-3.021 8.414-7.876 8.414-14.994 0-11.433-8.522-19.09-22.867-19.09H192.09Zm17.26 14.992h23.082c3.452 0 6.148 2.695 6.148 6.255s-2.696 6.256-6.257 6.256H209.35V16.504Zm0 26.639h23.514c4.207 0 7.443 3.02 7.443 7.119.001 4.206-3.236 7.334-7.443 7.334H209.35V43.143Zm103.44-2.048c0 10.756-4.962 16.718-14.776 16.718-9.707 0-14.669-5.962-14.669-16.718V1.511h-17.688v38.29c0 21.896 11.541 34.084 32.357 34.084s32.465-12.188 32.465-34.084V1.511H312.79v39.584ZM367.799 0c-18.229 0-28.477 9.061-28.477 21.248 0 13.114 7.653 18.442 25.238 22.219 13.69 3.018 16.609 4.901 16.609 8.736 0 4.166-3.775 6.041-11.217 6.041-10.786 0-20.546-2.619-28.365-6.902l-5.285 15.1c8.521 4.53 21.247 7.443 34.082 7.443 17.905 0 28.582-8.306 28.582-22.22.002-11.164-7.221-18.335-22.434-22.003-16.383-3.989-19.951-4.37-19.951-9.06 0-3.63 4.097-5.395 11-5.395 9.168 0 18.931 2.302 24.484 5.72l5.5-14.454C390.447 2.698 379.985 0 367.797 0h.002Z"/></svg>