<svg xmlns="http://www.w3.org/2000/svg" width="339" height="248" fill="none"><path fill="#000" d="M304.75 1.692c-8.423 4.676-8.344 17.115.239 21.35 9.059 4.587 18.038-.618 18.038-10.499 0-9.792-9.774-15.614-18.277-10.85ZM26.78 48.625C12.317 52.859 3.258 62.564 3.258 73.944c0 5.822 1.987 9.086 6.596 10.763 4.37 1.5 8.185.705 11.602-2.735 3.258-3.176 3.496-5.646 1.112-11.645-1.59-4.058-1.59-4.235-.159-7.41 2.066-4.676 7.39-7.41 15.178-7.94 5.563-.353 6.516-.088 10.49 2.205 3.655 2.117 4.768 3.353 6.754 7.763 2.225 4.853 2.384 5.823 2.623 17.203l.318 11.998-11.84 1.059c-19.55 1.676-30.992 5.999-38.621 14.468-5.006 5.469-6.914 10.762-6.914 18.79 0 14.556 6.596 23.555 19.072 26.025 5.404 1.147 14.304.617 20.661-1.059 4.212-1.147 12.079-5.293 15.734-8.381l2.702-2.205 2.463 2.558c5.245 5.47 8.106 6.528 20.264 7.94 12 1.323 13.668.97 13.668-2.382 0-2.205-1.35-3.176-6.357-4.411-5.086-1.235-7.47-2.735-8.9-5.469-.795-1.5-1.113-10.675-1.51-35.994-.397-30.876-.556-34.317-1.987-38.287C73.03 57.8 65.162 50.83 55.15 48.184c-7.231-1.853-21.058-1.676-28.37.441Zm30.832 83.632-2.701 2.646c-4.37 4.235-10.967 6.617-18.516 6.705-7.629.088-9.933-1.235-12.714-7.411-3.338-7.145-1.669-16.497 3.893-21.613 5.563-5.205 18.198-9.881 27.098-10.057l2.94-.088v29.818ZM155.991 47.831c-5.642 1.5-12.794 6.264-17.959 11.91-2.782 3.087-5.245 5.646-5.483 5.646-.239 0-.159-2.735.158-6.087.954-10.234-1.192-12.351-10.092-10.146-3.178.706-10.251 2.294-15.734 3.353l-9.933 1.94v2.559c0 2.47.238 2.558 5.006 3.529 6.278 1.323 8.583 3.528 9.695 9.704.556 3 .795 15.967.636 36.699-.318 38.993.477 36.346-10.966 39.522-4.927 1.323-5.166 1.5-5.166 4.058v2.647h26.462c23.602 0 26.462-.177 26.78-1.412.795-2.558-.477-4.234-3.417-4.764-5.96-1.058-10.012-3.44-11.522-6.616-1.272-2.823-1.351-5.646-1.192-29.995.238-25.76.318-27.083 2.066-31.935 3.655-9.969 12.396-17.026 22.648-18.085 9.774-.97 16.528 3.617 19.866 13.498 2.225 6.793 3.099 19.76 2.781 43.403-.238 20.82-.318 22.232-1.907 24.614-1.748 2.558-4.927 4.146-10.013 5.116-1.827.353-3.099 1.059-3.417 2.117-1.112 4.059-1.112 4.059 25.032 4.059 21.932 0 24.714-.177 25.032-1.412.874-2.911-.477-4.234-5.166-5.293-6.516-1.412-7.867-3.264-8.9-12.263-.397-3.969-.636-16.408-.477-27.612.239-20.114.239-20.555 2.384-25.584 2.861-6.704 9.218-14.115 15.099-17.29 9.456-5.294 18.039-4.5 23.601 2.117 5.563 6.704 5.96 9.174 6.278 42.257.238 29.818.079 32.288-2.94 35.287-.716.706-3.815 2.029-6.834 2.911-5.325 1.588-5.563 1.765-5.563 4.235v2.647h50.54l-.238-2.559c-.239-2.382-.715-2.823-4.848-4.146-9.138-3-9.297-3.794-9.297-39.346-.08-30.259-.795-37.846-4.45-45.344-5.086-10.322-13.907-14.91-28.528-14.91-6.358 0-9.059.442-13.351 2.206-7.867 3-13.588 7.146-18.753 13.41l-4.609 5.469-1.272-3.088c-1.907-4.322-8.264-11.645-12.079-13.762-1.748-1.059-4.926-2.382-7.152-3-4.37-1.323-18.197-1.499-22.806-.264ZM311.187 49.595c-3.655.794-10.728 1.941-15.734 2.382-6.357.53-9.377 1.147-9.854 2.03-1.828 3.264-.318 5.028 5.563 6.175 3.099.617 5.801 1.764 7.231 3.087 3.894 3.706 4.371 7.94 4.371 42.698 0 28.319-.159 31.583-1.431 34.141-1.668 3.529-4.291 5.117-10.489 6.352-5.404 1.147-7.152 2.999-5.324 5.911.397.617 9.218.882 27.018.882l26.462-.088-.238-2.647c-.239-2.382-.636-2.735-5.325-4.058-5.88-1.764-8.661-4.323-9.615-9.263-.397-1.853-.795-22.32-.795-45.433 0-31.406-.238-42.169-.953-42.963-1.192-1.323-2.543-1.235-10.887.794ZM24.157 168.868c-8.9 2.734-15.098 12.086-16.37 24.877-.556 4.941-1.112 5.735-4.767 5.735-2.384 0-2.623.264-2.623 2.646 0 2.117.318 2.647 1.828 2.647.954 0 2.543.264 3.576.529l1.748.529-.159 17.203-.238 17.203-3.576 1.499c-2.305.971-3.576 2.029-3.576 3 0 1.323 1.35 1.5 14.145 1.764l14.065.265v-2.029c0-1.676-.556-2.117-3.258-2.558-5.483-.971-5.483-1.059-5.483-20.291v-17.114h4.291c3.497 0 4.45-.265 4.848-1.676.953-3.353-.318-4.5-4.848-4.5h-4.29v-9.351c0-8.822.635-12.262 2.7-13.762 1.987-1.5 3.815-.441 6.517 3.705 2.384 3.705 3.258 4.411 5.404 4.411 3.02 0 6.04-3.088 6.04-6.087 0-7.058-7.63-11.204-15.974-8.645ZM105.292 193.922c-.636.353-2.94 2.293-5.006 4.322-2.146 2.118-5.245 4.323-6.993 4.853-1.67.617-3.1 1.411-3.1 1.764 0 .441 1.43 1.764 3.179 2.999l3.179 2.206v30.083l-3.576 1.676c-1.987.97-3.576 2.293-3.576 3.087 0 1.147 1.986 1.324 14.701 1.324 11.522 0 14.701-.265 14.701-1.147 0-1.941-1.748-3.264-4.371-3.264-5.085 0-5.403-.971-5.801-15.615-.317-11.027-.159-13.674.954-15.968 1.51-3.352 2.066-3.44 6.516-1.058 3.894 2.117 6.675 1.323 8.185-2.382 1.51-3.617 1.033-6.176-1.589-8.558-3.735-3.528-6.675-3.087-10.728 1.677l-3.417 3.881-.238-4.94c-.239-4.94-.795-5.822-3.02-4.94ZM318.657 194.186c-.874.441-2.781 2.118-4.212 3.882-1.51 1.676-4.291 3.793-6.198 4.587-4.053 1.677-4.53 3.617-1.113 5.029 1.272.529 2.543 1.588 2.861 2.382.715 2.029 1.43 25.054.795 27.701-.398 1.764-1.51 2.823-4.053 4.058-2.066.97-3.576 2.293-3.576 3.087 0 1.147 1.987 1.324 14.701 1.324 13.907 0 14.701-.089 14.701-1.677 0-1.852-1.51-2.734-4.688-2.734-3.973 0-4.609-1.853-5.086-15.88-.318-9.792-.159-13.497.636-15.703 1.271-3.352 1.986-3.44 6.436-1.058 5.086 2.734 9.06.264 9.06-5.646 0-3.353-.795-4.852-3.338-6.352-3.496-2.029-7.152-.971-10.092 2.823-1.351 1.676-2.543 3.529-2.623 4.146-.079.618-.317-1.5-.556-4.587-.477-5.911-1.033-6.617-3.655-5.382ZM51.653 197.098c-4.848 1.764-7.709 3.705-10.49 6.969-7.867 9.086-8.264 25.319-.874 34.67 6.357 8.028 16.926 11.116 27.495 7.94 4.45-1.324 5.96-2.382 9.377-6.087 4.768-5.294 6.675-10.675 6.675-18.615 0-10.762-4.847-19.496-12.873-23.378-5.165-2.47-14.622-3.176-19.31-1.499Zm14.7 6.351c3.338 3.529 4.292 7.587 4.292 17.644 0 11.204-1.272 16.409-4.847 19.849-3.02 3-6.517 3.441-11.046 1.324-4.61-2.117-6.199-7.322-6.199-20.732 0-12.703 1.034-16.497 5.245-19.408 3.735-2.646 9.377-2.029 12.556 1.323ZM170.454 197.451c-5.245 2.117-12.079 10.056-13.51 15.702C152.097 231.856 162.03 248 178.4 248c6.119 0 11.284-1.941 16.529-6.264 4.45-3.705 4.927-4.852 2.781-6.528-1.112-.882-1.986-.706-4.768.971-11.681 6.881-22.806.264-24.555-14.556l-.556-4.588 31.628.353-.239-2.999c-.477-4.764-2.145-8.293-5.721-12.175-5.484-5.91-15.019-7.851-23.045-4.763Zm11.84 4.234c2.384 1.323 4.847 5.999 4.847 9.175 0 1.764-.397 1.852-9.138 1.852-8.662 0-9.139-.088-9.139-1.764 0-2.647 2.066-6.616 4.45-8.734 2.464-2.205 5.881-2.382 8.98-.529ZM270.66 197.009c-3.735 1.147-8.9 5.205-11.523 8.999-3.02 4.499-4.45 9.616-4.45 16.32 0 8.205 1.907 13.674 6.357 18.703 4.848 5.381 10.013 7.322 17.801 6.793 6.675-.53 11.681-2.735 16.369-7.411l3.338-3.352-1.669-1.5c-1.589-1.5-1.827-1.411-5.324.706-2.861 1.764-4.927 2.294-8.662 2.382-4.37.088-5.483-.265-8.423-2.559-3.973-3.087-6.675-8.645-7.39-14.82l-.477-4.235 31.389.353-.159-3.176c-.715-12.439-14.542-21.261-27.177-17.203Zm10.886 4.764c2.225 1.676 4.133 5.734 4.133 8.734v2.205h-9.139c-10.092 0-10.171 0-8.026-5.646 2.225-5.999 8.741-8.645 13.032-5.293ZM202.24 200.097c0 1.412.715 2.382 2.622 3.264 2.384 1.059 3.179 2.647 9.615 18.703 10.41 25.848 10.41 25.936 13.112 25.936 2.146 0 2.543-.618 5.483-8.204 5.96-14.998 11.205-29.289 11.761-31.759.557-2.823 2.861-4.764 6.596-5.558 1.987-.441 2.463-.97 2.304-2.47-.238-1.765-.635-1.853-10.171-1.853h-9.933v2.206c0 1.941.397 2.205 3.417 2.47 2.463.176 3.337.617 3.337 1.676 0 1.853-6.119 21.878-7.787 25.407l-1.192 2.647-1.033-2.647c-.557-1.5-3.02-7.587-5.484-13.586-2.463-5.999-4.291-11.468-4.052-12.174.238-.617 1.271-1.147 2.225-1.147 2.702 0 4.053-1.323 3.496-3.176-.397-1.499-1.43-1.676-12.396-1.676-11.841 0-11.92 0-11.92 1.941Z"/></svg>