<svg xmlns="http://www.w3.org/2000/svg" width="780" height="298" fill="none"><path fill="#000" d="m187.807 11.67 1.451 1.035c8.771 6.947 12.954 17.958 14.382 28.74 1.133 11.992-.904 23.678-4.26 35.158l-.443 1.52c-4.395 14.589-11.655 28.926-20.132 41.555l-.939 1.404a170.761 170.761 0 0 1-13.849 17.883l-1.638 1.853c-2.183 2.447-4.386 4.844-6.721 7.148 2.143.631 4.286 1.26 6.43 1.888l2.061.607a561.688 561.688 0 0 0 12.14 3.411c9.324 2.515 18.318 5.094 26.949 9.523l2.519 1.239c8.969 4.501 16.71 10.376 23.843 17.406l1.562 1.537c9.282 9.698 14.3 21.882 14.022 35.327-.765 11.746-5.434 21.718-13.013 30.641l-1.622 1.916c-23.914 27.456-65.854 43.625-101.52 46.208-17.839 1.001-37.631.406-52.014-11.599-3.746-3.526-6.982-8.135-7.514-13.381 1.804-8.754 8.425-15.151 15.539-20.045 10.847-6.918 22.985-11.805 34.821-16.731a467.141 467.141 0 0 0 8.403-3.596c30.593-13.426 62.398-24.233 94.263-34.205-8.786-7.214-19.908-10.341-30.903-12.335l-1.64-.302c-13.203-2.215-26.76-2.538-40.106-3.228-23.069-1.203-23.069-1.203-27.654-5.351.249 4.868 1.087 9.084 2.733 13.662l.609 1.764a846.983 846.983 0 0 0 1.802 5.147c6.524 18.745 6.524 18.745 3.576 25.154-1.004 1.205-1.004 1.205-1.647 1.848-4.299-.089-6.924-1.962-10.288-4.5l-1.12-.796c-21.002-16.227-27.078-49.224-30.385-73.781-1.624-12.883-2.693-25.704-2.691-38.688a756.887 756.887 0 0 0-.026-4.929c-.059-17.107 1.129-37.81 13.848-50.649 2.237-1.73 4.04-2.003 6.832-1.82 11.647 1.737 22.246 5.083 29.973 14.462 3.104 4.211 2.916 7.285 2.215 12.19-.42 2.403-.938 4.776-1.487 7.153l-.484 2.11c-1.94 8.128-4.407 16.103-6.884 24.081-1.852 5.992-3.478 11.918-4.647 18.089 8.6-3.699 16.116-7.937 23.147-14.144l1.572-1.359c7.552-6.64 14.332-13.682 20.289-21.786l1.522-2.064c9.742-13.65 19.67-31.242 16.827-48.607-1.548-5.82-4.942-10.925-9.991-14.262-16.42-9.25-40.658-7.426-58.258-2.57-6.326 1.836-12.331 4.203-18.255 7.07l-1.18.556C73.199 42.89 56.736 66.184 44.234 91.88c-8.646 17.707-8.646 17.707-14.597 23.298-2.869-.902-4.521-2.18-6.43-4.501-2.648-5.777-1.04-12.763 1.06-18.503 6.974-16.609 17.609-31.777 29.772-44.996a157.488 157.488 0 0 0 3.567-4.046c4.08-4.66 8.469-8.794 13.306-12.66 1.175-.94 2.338-1.896 3.486-2.867C91.132 13.479 111.93 3.35 133.797.74l1.972-.239c17.651-1.688 37.348.6 52.038 11.168Zm37.734 192.544-1.806.641-1.989.711-2.067.737a4905.654 4905.654 0 0 0-9.089 3.253c-49.005 17.388-49.005 17.388-96.082 39.346l-1.427.755c-11.193 5.719-11.193 5.719-20.434 14.031v2.572c18.369 9.183 61.148-5.916 78.276-11.504 21.204-7.163 46.085-18.498 56.708-39.486 2.273-4.625 2.98-7.053 1.326-12.014-1.19 0-2.307.563-3.416.958ZM303.179 124.62l2.425.01c12.182.154 23.869 2.118 33.3 10.478 1.501 1.61 2.714 3.264 3.858 5.143l.733 1.15c3.248 5.694 3.936 12.417 4.049 18.86l.043 1.408c-.009 2.24-.149 3.431-1.547 5.217-2.246 1.681-3.681 1.94-6.493 1.653-2.503-2.246-2.321-5.138-2.532-8.278-.639-7.382-1.558-15.072-7.027-20.575-3.354-1.763-8.021-.542-11.526.409-10.504 3.876-17.37 13.378-22.005 23.164-9.206 20.735-15.899 53.461-8.28 75.482 1.169 2.654 1.924 4.043 4.474 5.5 2.057.175 2.846.143 4.46-1.125.435-.855.863-1.712 1.286-2.572.568-.809 1.145-1.612 1.728-2.411 9.067-13.653 11.505-31.111 12.726-47.128l.153-1.938c.091-1.221.172-2.443.24-3.665.252-3.523.808-5.711 3.156-8.506 4.908-3.863 11.106-3.548 17.079-2.852 5.722 1.027 11.024 3.133 14.427 7.996 1.367 2.209 1.433 3.919 1.401 6.497l-.019 2.408-.019 1.283c-.02 1.337-.031 2.674-.039 4.01-.025 3.801-.067 7.602-.113 11.402-.028 2.329-.046 4.658-.058 6.987a423.27 423.27 0 0 1-.053 3.903c-.037 7.072.683 14.232 4.043 20.567l.965 1.879c.927 1.657.927 1.657 2.893 2.782 4.175-4.731 7.283-9.788 10.199-15.345.938-1.756 1.936-3.475 2.945-5.19 2.173-4.354 3.247-7.653 2.74-12.524-.389-4.991-.499-9.929-.448-14.935l.016-2.112c.023-2.881.051-5.761.09-8.642.027-2.134.042-4.269.055-6.403l.036-1.975.007-1.83.019-1.601c-.281-1.785-1.046-2.623-2.156-4.019-.121-1.768-.121-1.768 0-3.215 1.003-.419 2.008-.833 3.013-1.246l1.696-.7c7.098-2.58 14.835-1.695 21.652 1.303 3.103 1.83 6.377 4.219 7.992 7.533 1.788 7.158.129 15.952-.458 23.229-.811 10.127-1.406 20.15-1.104 30.314l.586-1.778c14.111-42.773 14.111-42.773 21.275-58.012l.798-1.711c4.658-9.9 10.113-18.863 17.205-27.22l1.258-1.519c3.116-3.656 6.61-7.236 10.958-9.41 9.362-.563 15.813 1.111 23.67 6.349 2.677 2.6 3.887 4.692 4.171 8.365-.091 4.143-1.172 8.053-2.202 12.047l-.329 1.298c-2.542 10.038-5.549 19.945-8.584 29.843-1.841 6.03-3.582 12.06-5.047 18.194l-.39 1.633c-4.689 20.22.118 40.483 5.748 60.08l.66 2.341.601 2.073c.347 1.781.404 2.701-.295 4.359-2.901 2.267-5.442 2.296-9.006 2.187-3.005-.404-4.795-1.525-7.068-3.473l-1.351-1.095c-11.675-10.477-20.357-31.201-21.77-46.699-.06-3.993.498-7.959.979-11.915l.174-1.479c1.967-16.589 4.936-32.975 8.816-49.222.356-1.523.356-1.523.293-3.384l-4.662 13.662-.705 2.068a2789.86 2789.86 0 0 0-8.625 25.666c-6.364 19.253-13.18 38.514-25.229 55.04-7.061-.05-13.397-2.979-18.566-7.755-4.553-4.951-7.481-11.306-10.368-17.318l-.876 1.793c-5.186 10.317-12.066 20.215-22.846 25.201-4.924 1.604-9.152.448-13.731-1.68-11.84-6.514-16.957-19.062-21.7-31.101l-.508.999c-12.046 23.55-12.046 23.55-21.9 26.907-8.868 1.673-17.752.918-25.541-3.844-1.484-1.081-2.803-2.222-4.131-3.489l-1.314-1.213c-8.177-8.303-11.578-20.268-11.699-31.65l-.019-1.493c-.116-11.499.223-22.516 2.744-33.791l.355-1.656c2.896-13.243 8.239-25.878 17.005-36.276l1.219-1.612c7.725-9.143 18.48-12.143 29.925-12.09Zm141.815 30.418.643 1.928-.643-1.928ZM696.359 38.406c4.842 2.07 8.375 6.192 10.644 10.874 3.827 11.567-1.33 22.38-5.465 33.11l-.988 2.58c-5.373 13.998-5.373 13.998-6.728 16.707l1.168-.01c14.444-.099 28.877.206 43.317.524 3.408.075 6.816.146 10.224.216 2.66.055 5.32.112 7.98.17 1.257.027 2.514.054 3.771.079 18.486.38 18.486.38 19.698 1.592a65.018 65.018 0 0 1 0 3.215c-4.981 2.859-9.919 4.267-15.512 5.464l-1.306.286c-25.569 5.577-51.664 7.553-77.698 9.679-11.066 26.001-21.741 52.104-30.22 79.078l-.675 2.09c-2.805 8.751-3.822 17.126-4.324 26.281a696.8 696.8 0 0 1-.912 13.152c-.113 1.498-.214 2.998-.315 4.497-.368 5.06-1.005 9.97-2.087 14.93l-.314 1.453c-.823 3.539-2.004 6.112-4.232 8.959-4.618-.56-7.9-3.071-10.931-6.429l-1.326-1.447c-6.454-9.16-6.12-21.233-6.389-31.984l-.832 1.253c-5.701 8.24-13.163 16.698-22.958 19.963-5.725.63-10.072-.797-14.627-4.259-6.202-5.742-7.51-15.359-7.877-23.386l-.08-1.66c-.459-20.051 4.882-40.087 9.885-59.336l.511-1.973c.484-1.86.974-3.718 1.469-5.576l.438-1.677c1.987-7.357 1.988-7.357 4.449-9.081 4.852-1.52 9.152-.017 13.548 2.154 3.768 2.102 6.379 4.923 8.64 8.559 1.245 5.952-1.319 12.426-2.895 18.128-5.668 20.586-10.429 41.295-7.031 62.677 4.511-3.67 8.451-7.799 12.216-12.215l1.018-1.149c5.32-6.115 7.46-11.586 8.725-19.55.948-5.955 2.329-11.689 4.001-17.473l.406-1.408c5.468-18.776 12.058-37.233 19.146-55.453l.554-1.434c.341-.878.684-1.756 1.03-2.632.695-1.795 1.126-3.105 1.126-5.052l-1.294-.244c-14.144-2.704-23.67-6.028-34.149-16.27l-1.295-1.25c-2.951-2.966-2.951-2.966-3.776-5.254.007-1.412.007-1.412.851-2.979 2.81-1.633 5.136-.502 8.158.281l1.84.51c6.97 1.743 13.725 1.617 20.865 1.5 1.806-.023 3.612-.043 5.418-.06 1.114-.01 2.228-.025 3.341-.044 3.499-.043 6.857.22 10.329.666l.658-2.471c1.464-4.876 3.514-9.518 5.483-14.205 3.362-8.02 6.656-16.046 9.491-24.269l.666-1.924c1.265-3.762 2.287-7.54 3.177-11.408.819-2.969 2.103-4.763 4.515-6.719 2.616-1.095 4.748-1.169 7.48-.346Z"/><path fill="#000" d="M589.621 53.567c6.695 3.185 12.717 7.24 16.115 14.036.479 4.359-.477 8.06-1.866 12.157l-.602 1.84a958.737 958.737 0 0 1-1.993 5.973l-1.397 4.22c-3.431 10.323-7.046 20.578-10.706 30.821-6.619 18.53-12.906 37.119-17.673 56.22a252.59 252.59 0 0 1-1.297 4.923c-4.175 15.679-4.116 32.35-4.652 48.469-.386 11.54-.8 23.07-1.748 34.58-.08.966-.156 1.932-.23 2.899a332.077 332.077 0 0 1-.339 3.992l-.195 2.287c-.402 1.949-.712 2.633-2.31 3.777-3.742.753-7.663-.02-10.93-1.929-12.218-9.214-13.213-28.449-15.432-42.431l-.498.968c-13.221 25.606-13.221 25.606-23.292 30.534-5.21 1.607-10.645.202-15.471-2.009-10.514-5.652-16.598-17.05-20.133-28.087-4.097-13.88-2.692-27.457.884-41.266l.438-1.711c2.245-8.559 5.46-16.64 9.207-24.648l.637-1.364c6.788-14.215 17.284-26.882 32.222-32.71 9.407-3.25 23.064-3.415 32.362.643 1.493.772 2.813 1.634 4.219 2.571l.206-1.14c.826-4.37 1.969-8.593 3.235-12.853l.646-2.197c.698-2.373 1.4-4.744 2.102-7.115l1.462-4.961c1.137-3.859 2.278-7.717 3.419-11.575.881-2.976 1.759-5.952 2.637-8.928 1.404-4.76 2.81-9.517 4.216-14.276l.662-2.243c.621-2.1 1.242-4.199 1.865-6.298l.546-1.852c3.053-10.28 3.053-10.28 4.482-12.148 3.214-1.184 6.094-.405 9.202.83Zm-60.22 96.985a84.298 84.298 0 0 0-4.679 4.486l-1.339 1.298c-15.344 15.827-19.081 42.198-21.808 62.992l-.198 1.446c-1.513 11.361-.246 23.691 6.628 33.271 1.169 1.525 1.169 1.525 2.571 2.572 1.33.205 1.33.205 2.572-.643a37.082 37.082 0 0 0 2.894-3.938l.835-1.287c14.814-23.37 23.302-50.067 28.42-77.067l-5.787-1.286c.242-3.93.865-7.455 1.929-11.251 1.841-6.531 1.841-6.531 1.527-13.219-.788-1.371-.788-1.371-2.318-1.721-4.08-.385-8.059 1.978-11.247 4.347ZM681.995 217.889l1.615-.019c12.435-.116 24.349.214 36.574 2.744l1.813.354c8.683 1.732 18.609 4.181 23.906 11.861 2.29 7.696-4.217 17.764-7.716 24.43-3.516 6.151-3.516 6.151-6.43 7.715-3.253.015-5.003-.733-7.313-3.018l-.965-1c-3.222-3.152-6.572-5.998-10.167-8.719l-1.317-1.002a354.135 354.135 0 0 0-4.027-2.976l-1.509-1.125c-3.872-2.816-7.831-4.957-12.195-6.912l-2.015-.914c-6.926-3.076-14.039-5.387-21.267-7.624l-1.575-.502-1.414-.445c-1.175-.48-1.175-.48-2.461-1.765.172-3.051.634-5.325 2.572-7.715 4.236-3.185 8.766-3.318 13.891-3.368ZM763.142 161.587c1.758 1.457 2.215 2.135 2.693 4.38.449 8.458-3.963 19.078-9.002 25.716-1.734 1.72-2.686 2.496-5.118 2.846-2.843-.399-4.895-1.699-7.364-3.099-8.385-3.754-16.763-3.129-25.774-2.961-2.793.051-5.586.089-8.379.12l-1.932.049-1.797.019-1.573.031c-1.806-.277-2.682-.903-4.001-2.148-.297-1.614-.297-1.614 0-3.215 3.948-4.493 11.828-6.604 17.24-8.839l1.629-.68c7.074-2.949 14.182-5.775 21.397-8.361l2.117-.759c14.897-5.196 14.897-5.196 19.864-3.099ZM69.5 204.541c-3.638 7.744-10.474 10.851-17.722 14.611a182.314 182.314 0 0 0-14.948 8.775c-6.91 4.481-13.812 8.843-21.419 12.054l-1.337.576c-2.836 1.14-5.184 1.635-8.227 1.273-1.542-.939-1.542-.939-2.813-2.17l-1.301-1.221c-2.332-2.513-1.674-5.13-1.564-8.387l.092-2.366.07-2.366.083-2.255.074-2.077c.215-1.66.215-1.66 1.501-2.946a49.276 49.276 0 0 1 3.335-.482c3.158-.477 5.793-1.304 8.72-2.571 16.177-6.859 37.876-10.692 55.457-10.448ZM65 176.896c-.517 3.451-3.127 5.083-5.787 7.072-1.607.724-1.607.724-3.215 1.286-1.153.74-2.306 1.48-3.458 2.223-2.165 1.274-4.409 2.348-6.668 3.443-4.612 2.253-8.822 4.875-13.02 7.835-4.174 2.939-7.792 5.132-12.86 6.188-3.1-.646-5.086-2.489-7.073-4.902-.623-2.103-.654-3.764-.62-5.934l.018-1.5.022-1.484c-.086-1.874-.735-3.462-1.348-5.226-.223-3.115.152-5.452 1.286-8.358l1.004.282c3.695.852 6.782 1.031 10.529.427 7.055-1.016 14.143-1.005 21.258-1.11l4.096-.076c5.28-.095 10.556-.18 15.836-.166ZM611.121 111.159l1.471-.04c3.603-.025 5.659.647 8.379 3.122 2.975 3.422 4.731 6.754 4.938 11.344-.326 3.315-1.546 5.467-4.099 7.594-4.177 1.392-7.559.817-11.423-1.075-4.712-2.8-8.933-6.783-10.438-12.145 0-3.048.971-4.91 2.893-7.232 2.404-1.903 5.372-1.548 8.279-1.568Z"/></svg>