<svg width="780" height="298" viewBox="0 0 780 298" fill="none" xmlns="http://www.w3.org/2000/svg">
<path d="M187.807 11.6701C188.286 12.0115 188.765 12.353 189.258 12.7047C198.029 19.6518 202.212 30.6627 203.64 41.4446C204.773 53.4373 202.736 65.123 199.38 76.6034C199.234 77.1049 199.088 77.6064 198.937 78.1231C194.542 92.7119 187.282 107.049 178.805 119.678C178.495 120.141 178.186 120.605 177.866 121.082C173.621 127.378 169.051 133.283 164.017 138.965C163.476 139.577 162.936 140.188 162.379 140.818C160.196 143.265 157.993 145.662 155.658 147.966C157.801 148.597 159.944 149.226 162.088 149.854C162.768 150.054 163.448 150.255 164.149 150.461C168.185 151.642 172.228 152.782 176.289 153.872C185.613 156.387 194.607 158.966 203.238 163.395C204.078 163.808 204.917 164.221 205.757 164.634C214.726 169.135 222.467 175.01 229.6 182.04C230.115 182.547 230.631 183.054 231.162 183.577C240.444 193.275 245.462 205.459 245.184 218.904C244.419 230.65 239.75 240.622 232.171 249.545C231.636 250.177 231.101 250.809 230.549 251.461C206.635 278.917 164.695 295.086 129.029 297.669C111.19 298.67 91.3976 298.075 77.0153 286.07C73.2687 282.544 70.0334 277.935 69.5006 272.689C71.3047 263.935 77.9259 257.538 85.0399 252.644C95.8866 245.726 108.025 240.839 119.861 235.913C122.674 234.741 125.474 233.544 128.264 232.317C158.857 218.891 190.662 208.084 222.527 198.112C213.741 190.898 202.619 187.771 191.624 185.777C191.083 185.677 190.542 185.577 189.984 185.475C176.781 183.26 163.224 182.937 149.878 182.247C126.809 181.044 126.809 181.044 122.224 176.896C122.473 181.764 123.311 185.98 124.957 190.558C125.158 191.14 125.359 191.722 125.566 192.322C126.16 194.04 126.763 195.755 127.368 197.469C133.892 216.214 133.892 216.214 130.944 222.623C129.94 223.828 129.94 223.828 129.297 224.471C124.998 224.382 122.373 222.509 119.009 219.971C118.455 219.577 118.455 219.577 117.889 219.175C96.8871 202.948 90.8113 169.951 87.5037 145.394C85.8798 132.511 84.8115 119.69 84.8127 106.706C84.8113 105.063 84.7996 103.42 84.7875 101.777C84.7284 84.6701 85.9158 63.9661 98.6351 51.1283C100.872 49.3977 102.675 49.1246 105.467 49.3076C117.114 51.0455 127.713 54.3912 135.44 63.7704C138.544 67.9811 138.356 71.0552 137.655 75.9605C137.235 78.3634 136.717 80.7361 136.168 83.1128C136.009 83.8091 135.849 84.5055 135.684 85.2229C133.744 93.3506 131.277 101.326 128.8 109.304C126.948 115.296 125.322 121.222 124.153 127.393C132.753 123.694 140.269 119.456 147.3 113.249C148.078 112.576 148.078 112.576 148.872 111.89C156.424 105.25 163.204 98.2079 169.161 90.1044C169.663 89.4231 170.165 88.7419 170.683 88.04C180.425 74.3892 190.353 56.7983 187.51 39.433C185.962 33.6137 182.568 28.5075 177.519 25.1711C161.099 15.9206 136.861 17.7448 119.261 22.6001C112.935 24.4367 106.93 26.8036 101.006 29.6714C100.422 29.9466 100.422 29.9466 99.8256 30.2273C73.1988 42.8895 56.7363 66.1837 44.234 91.8799C35.5879 109.587 35.5879 109.587 29.6366 115.178C26.7681 114.276 25.1157 112.998 23.207 110.677C20.5586 104.9 22.1668 97.9143 24.2669 92.1737C31.2415 75.5652 41.876 60.3967 54.0393 47.178C55.2568 45.8514 56.4344 44.4995 57.6057 43.1322C61.6855 38.4727 66.0747 34.338 70.9122 30.4725C72.0867 29.532 73.2496 28.5765 74.3982 27.6046C91.1325 13.4787 111.929 3.35022 133.797 0.740704C134.448 0.661973 135.099 0.583243 135.769 0.502126C153.42 -1.18572 173.117 1.10134 187.807 11.6701ZM225.541 204.214C224.945 204.425 224.349 204.637 223.735 204.855C223.078 205.09 222.422 205.324 221.746 205.566C220.723 205.931 220.723 205.931 219.679 206.303C217.426 207.107 215.174 207.913 212.923 208.72C212.153 208.996 211.383 209.272 210.59 209.556C161.585 226.944 161.585 226.944 114.508 248.902C113.802 249.275 113.802 249.275 113.081 249.657C101.888 255.376 101.888 255.376 92.6475 263.688C92.6475 264.537 92.6475 265.386 92.6475 266.26C111.016 275.443 153.795 260.344 170.923 254.756C192.127 247.593 217.008 236.258 227.631 215.27C229.904 210.645 230.611 208.217 228.957 203.256C227.767 203.256 226.65 203.819 225.541 204.214Z" fill="black"/>
<path d="M303.179 124.62C303.98 124.623 304.78 124.627 305.604 124.63C317.786 124.784 329.473 126.748 338.904 135.108C340.405 136.718 341.618 138.372 342.762 140.251C343.125 140.82 343.125 140.82 343.495 141.401C346.743 147.095 347.431 153.818 347.544 160.261C347.558 160.726 347.573 161.19 347.587 161.669C347.578 163.909 347.438 165.1 346.04 166.886C343.794 168.567 342.359 168.826 339.547 168.539C337.044 166.293 337.226 163.401 337.015 160.261C336.376 152.879 335.457 145.189 329.988 139.686C326.634 137.923 321.967 139.144 318.462 140.095C307.958 143.971 301.092 153.473 296.457 163.259C287.251 183.994 280.558 216.72 288.177 238.741C289.346 241.395 290.101 242.784 292.651 244.241C294.708 244.416 295.497 244.384 297.111 243.116C297.546 242.261 297.974 241.404 298.397 240.544C298.965 239.735 299.542 238.932 300.125 238.133C309.192 224.48 311.63 207.022 312.851 191.005C312.927 190.046 312.927 190.046 313.004 189.067C313.095 187.846 313.176 186.624 313.244 185.402C313.496 181.879 314.052 179.691 316.4 176.896C321.308 173.033 327.506 173.348 333.479 174.044C339.201 175.071 344.503 177.177 347.906 182.04C349.273 184.249 349.339 185.959 349.307 188.537C349.298 189.729 349.297 189.729 349.288 190.945C349.278 191.58 349.278 191.58 349.269 192.228C349.249 193.565 349.238 194.902 349.23 196.238C349.205 200.039 349.163 203.84 349.117 207.64C349.089 209.969 349.071 212.298 349.059 214.627C349.049 215.928 349.028 217.229 349.006 218.53C348.969 225.602 349.689 232.762 353.049 239.097C353.368 239.717 353.686 240.337 354.014 240.976C354.941 242.633 354.941 242.633 356.907 243.758C361.082 239.027 364.19 233.97 367.106 228.413C368.044 226.657 369.042 224.938 370.051 223.223C372.224 218.869 373.298 215.57 372.791 210.699C372.402 205.708 372.292 200.77 372.343 195.764C372.349 195.067 372.354 194.37 372.359 193.652C372.382 190.771 372.41 187.891 372.449 185.01C372.476 182.876 372.491 180.741 372.504 178.607C372.516 177.955 372.528 177.304 372.54 176.632C372.543 176.028 372.545 175.424 372.547 174.802C372.553 174.274 372.56 173.745 372.566 173.201C372.285 171.416 371.52 170.578 370.41 169.182C370.289 167.414 370.289 167.414 370.41 165.967C371.413 165.548 372.418 165.134 373.423 164.721C374.263 164.375 374.263 164.375 375.119 164.021C382.217 161.441 389.954 162.326 396.771 165.324C399.874 167.154 403.148 169.543 404.763 172.857C406.551 180.015 404.892 188.809 404.305 196.086C403.494 206.213 402.899 216.236 403.201 226.4C403.394 225.813 403.588 225.227 403.787 224.622C417.898 181.849 417.898 181.849 425.062 166.61C425.325 166.045 425.589 165.481 425.86 164.899C430.518 154.999 435.973 146.036 443.065 137.679C443.48 137.178 443.895 136.676 444.323 136.16C447.439 132.504 450.933 128.924 455.281 126.75C464.643 126.187 471.094 127.861 478.951 133.099C481.628 135.699 482.838 137.791 483.122 141.464C483.031 145.607 481.95 149.517 480.92 153.511C480.811 153.939 480.703 154.368 480.591 154.809C478.049 164.847 475.042 174.754 472.007 184.652C470.166 190.682 468.425 196.712 466.96 202.846C466.831 203.385 466.703 203.924 466.57 204.479C461.881 224.699 466.688 244.962 472.318 264.559C472.536 265.331 472.753 266.104 472.978 266.9C473.176 267.585 473.375 268.269 473.579 268.973C473.926 270.754 473.983 271.674 473.284 273.332C470.383 275.599 467.842 275.628 464.278 275.519C461.273 275.115 459.483 273.994 457.21 272.046C456.764 271.685 456.318 271.324 455.859 270.951C444.184 260.474 435.502 239.75 434.089 224.252C434.029 220.259 434.587 216.293 435.068 212.337C435.126 211.849 435.183 211.361 435.242 210.858C437.209 194.269 440.178 177.883 444.058 161.636C444.414 160.113 444.414 160.113 444.351 158.252C442.796 162.806 441.242 167.36 439.689 171.914C439.456 172.597 439.224 173.279 438.984 173.982C436.071 182.525 433.189 191.077 430.359 199.648C423.995 218.901 417.179 238.162 405.13 254.688C398.069 254.638 391.733 251.709 386.564 246.933C382.011 241.982 379.083 235.627 376.196 229.615C375.907 230.206 375.618 230.798 375.32 231.408C370.134 241.725 363.254 251.623 352.474 256.609C347.55 258.213 343.322 257.057 338.743 254.929C326.903 248.415 321.786 235.867 317.043 223.828C316.791 224.323 316.791 224.323 316.535 224.827C304.489 248.377 304.489 248.377 294.635 251.734C285.767 253.407 276.883 252.652 269.094 247.89C267.61 246.809 266.291 245.668 264.963 244.401C264.529 244.001 264.096 243.601 263.649 243.188C255.472 234.885 252.071 222.92 251.95 211.538C251.944 211.045 251.938 210.553 251.931 210.045C251.815 198.546 252.154 187.529 254.675 176.254C254.792 175.707 254.909 175.161 255.03 174.598C257.926 161.355 263.269 148.72 272.035 138.322C272.437 137.79 272.839 137.258 273.254 136.71C280.979 127.567 291.734 124.567 303.179 124.62ZM444.994 155.038C445.637 156.966 445.637 156.966 445.637 156.966L444.994 155.038Z" fill="black"/>
<path d="M696.359 38.4058C701.201 40.4752 704.734 44.5977 707.003 49.28C710.83 60.8472 705.673 71.6595 701.538 82.3895C701.208 83.2498 700.879 84.1102 700.55 84.9706C695.177 98.9684 695.177 98.9684 693.822 101.677C694.208 101.673 694.593 101.67 694.99 101.667C709.434 101.568 723.867 101.873 738.307 102.191C741.715 102.266 745.123 102.337 748.531 102.407C751.191 102.462 753.851 102.519 756.511 102.577C757.768 102.604 759.025 102.631 760.282 102.656C778.768 103.036 778.768 103.036 779.98 104.248C780.006 105.319 780.007 106.392 779.98 107.463C774.999 110.322 770.061 111.73 764.468 112.927C764.037 113.022 763.606 113.116 763.162 113.213C737.593 118.79 711.498 120.766 685.464 122.892C674.398 148.893 663.723 174.996 655.244 201.97C655.021 202.66 654.799 203.35 654.569 204.06C651.764 212.811 650.747 221.186 650.245 230.341C649.991 234.728 649.67 239.111 649.333 243.493C649.22 244.991 649.119 246.491 649.018 247.99C648.65 253.05 648.013 257.96 646.931 262.92C646.827 263.4 646.724 263.879 646.617 264.373C645.794 267.912 644.613 270.485 642.385 273.332C637.767 272.772 634.485 270.261 631.454 266.903C631.017 266.426 630.579 265.948 630.128 265.456C623.674 256.296 624.008 244.223 623.739 233.472C623.327 234.092 623.327 234.092 622.907 234.725C617.206 242.965 609.744 251.423 599.949 254.688C594.224 255.318 589.877 253.891 585.322 250.429C579.12 244.687 577.812 235.07 577.445 227.043C577.419 226.495 577.392 225.947 577.365 225.383C576.906 205.332 582.247 185.296 587.25 166.047C587.419 165.396 587.587 164.745 587.761 164.074C588.245 162.214 588.735 160.356 589.23 158.498C589.374 157.945 589.519 157.391 589.668 156.821C591.655 149.464 591.656 149.464 594.117 147.74C598.969 146.22 603.269 147.723 607.665 149.894C611.433 151.996 614.044 154.817 616.305 158.453C617.55 164.405 614.986 170.879 613.41 176.581C607.742 197.167 602.981 217.876 606.379 239.258C610.89 235.588 614.83 231.459 618.595 227.043C618.931 226.664 619.267 226.285 619.613 225.894C624.933 219.779 627.073 214.308 628.338 206.344C629.286 200.389 630.667 194.655 632.339 188.871C632.473 188.406 632.607 187.942 632.745 187.463C638.213 168.687 644.803 150.23 651.891 132.01C652.074 131.537 652.257 131.064 652.445 130.576C652.786 129.698 653.129 128.82 653.475 127.944C654.17 126.149 654.601 124.839 654.601 122.892C653.961 122.772 653.961 122.772 653.307 122.648C639.163 119.944 629.637 116.62 619.158 106.378C618.731 105.965 618.303 105.553 617.863 105.128C614.912 102.162 614.912 102.162 614.087 99.8735C614.094 98.4621 614.094 98.4621 614.938 96.895C617.748 95.2618 620.074 96.393 623.096 97.1763C623.703 97.3444 624.311 97.5125 624.936 97.6856C631.906 99.429 638.661 99.3034 645.801 99.1854C647.607 99.1627 649.413 99.1429 651.219 99.1267C652.333 99.116 653.447 99.1012 654.56 99.0817C658.059 99.0387 661.417 99.3027 664.889 99.7479C665.106 98.9324 665.323 98.117 665.547 97.2768C667.011 92.4012 669.061 87.7591 671.03 83.0716C674.392 75.052 677.686 67.0263 680.521 58.803C680.85 57.8508 680.85 57.8508 681.187 56.8793C682.452 53.117 683.474 49.3392 684.364 45.4709C685.183 42.5021 686.467 40.7084 688.879 38.7524C691.495 37.6574 693.627 37.583 696.359 38.4058Z" fill="black"/>
<path d="M589.621 53.5668C596.316 56.7516 602.338 60.8073 605.736 67.6027C606.215 71.9616 605.259 75.6635 603.87 79.7601C603.671 80.3671 603.472 80.974 603.268 81.5993C602.612 83.5936 601.944 85.5832 601.275 87.5729C600.809 88.9795 600.343 90.3862 599.878 91.7931C596.447 102.116 592.832 112.371 589.172 122.614C582.553 141.144 576.266 159.733 571.499 178.834C571.084 180.481 570.65 182.119 570.202 183.757C566.027 199.436 566.086 216.107 565.55 232.226C565.164 243.766 564.75 255.296 563.802 266.806C563.722 267.772 563.646 268.738 563.572 269.705C563.468 271.037 563.353 272.367 563.233 273.697C563.169 274.452 563.104 275.206 563.038 275.984C562.636 277.933 562.326 278.617 560.728 279.761C556.986 280.514 553.065 279.741 549.798 277.832C537.58 268.618 536.585 249.383 534.366 235.401C534.202 235.72 534.037 236.04 533.868 236.369C520.647 261.975 520.647 261.975 510.576 266.903C505.366 268.51 499.931 267.105 495.105 264.894C484.591 259.242 478.507 247.844 474.972 236.807C470.875 222.927 472.28 209.35 475.856 195.541C476.001 194.976 476.145 194.412 476.294 193.83C478.539 185.271 481.754 177.19 485.501 169.182C485.711 168.732 485.922 168.282 486.138 167.818C492.926 153.603 503.422 140.936 518.36 135.108C527.767 131.858 541.424 131.693 550.722 135.751C552.215 136.523 553.535 137.385 554.941 138.322C555.009 137.946 555.077 137.569 555.147 137.182C555.973 132.812 557.116 128.589 558.382 124.329C558.595 123.604 558.808 122.879 559.028 122.132C559.726 119.759 560.428 117.388 561.13 115.017C561.617 113.363 562.105 111.71 562.592 110.056C563.729 106.197 564.87 102.339 566.011 98.4806C566.892 95.5051 567.77 92.5291 568.648 89.5528C570.052 84.7938 571.458 80.0355 572.864 75.2774C573.083 74.5373 573.301 73.7971 573.526 73.0345C574.147 70.9348 574.768 68.8355 575.391 66.7363C575.571 66.1251 575.751 65.5139 575.937 64.8842C578.99 54.6038 578.99 54.6038 580.419 52.7356C583.633 51.5515 586.513 52.331 589.621 53.5668ZM529.401 150.552C527.77 151.989 526.238 153.481 524.722 155.038C524.28 155.466 523.838 155.895 523.383 156.336C508.039 172.163 504.302 198.534 501.575 219.328C501.51 219.805 501.444 220.282 501.377 220.774C499.864 232.135 501.131 244.465 508.005 254.045C509.174 255.57 509.174 255.57 510.576 256.617C511.906 256.822 511.906 256.822 513.148 255.974C514.236 254.677 515.134 253.451 516.042 252.036C516.317 251.611 516.593 251.187 516.877 250.749C531.691 227.379 540.179 200.682 545.297 173.682C543.387 173.258 541.478 172.833 539.51 172.396C539.752 168.466 540.375 164.941 541.439 161.145C543.28 154.614 543.28 154.614 542.966 147.926C542.178 146.555 542.178 146.555 540.648 146.205C536.568 145.82 532.589 148.183 529.401 150.552Z" fill="black"/>
<path d="M681.995 217.889C682.794 217.88 682.794 217.88 683.61 217.87C696.045 217.754 707.959 218.084 720.184 220.614C721.081 220.789 721.081 220.789 721.997 220.968C730.68 222.7 740.606 225.149 745.903 232.829C748.193 240.525 741.686 250.593 738.187 257.259C734.671 263.41 734.671 263.41 731.757 264.974C728.504 264.989 726.754 264.241 724.444 261.956C724.126 261.626 723.807 261.296 723.479 260.956C720.257 257.804 716.907 254.958 713.312 252.237C712.878 251.906 712.443 251.576 711.995 251.235C710.661 250.231 709.316 249.244 707.968 248.259C707.47 247.888 706.972 247.516 706.459 247.134C702.587 244.318 698.628 242.177 694.264 240.222C693.599 239.921 692.934 239.619 692.249 239.308C685.323 236.232 678.21 233.921 670.982 231.684C670.462 231.518 669.942 231.352 669.407 231.182C668.94 231.035 668.474 230.888 667.993 230.737C666.818 230.257 666.818 230.257 665.532 228.972C665.704 225.921 666.166 223.647 668.104 221.257C672.34 218.072 676.87 217.939 681.995 217.889Z" fill="black"/>
<path d="M763.142 161.587C764.9 163.044 765.357 163.722 765.835 165.967C766.284 174.425 761.872 185.045 756.833 191.683C755.099 193.403 754.147 194.179 751.715 194.529C748.872 194.13 746.82 192.83 744.351 191.43C735.966 187.676 727.588 188.301 718.577 188.469C715.784 188.52 712.991 188.558 710.198 188.589C709.56 188.605 708.923 188.621 708.266 188.638C707.673 188.644 707.08 188.65 706.469 188.657C705.95 188.667 705.431 188.677 704.896 188.688C703.09 188.411 702.214 187.785 700.895 186.54C700.598 184.926 700.598 184.926 700.895 183.325C704.843 178.832 712.723 176.721 718.135 174.486C718.672 174.261 719.21 174.037 719.764 173.806C726.838 170.857 733.946 168.031 741.161 165.445C741.859 165.194 742.558 164.944 743.278 164.686C758.175 159.49 758.175 159.49 763.142 161.587Z" fill="black"/>
<path d="M69.5006 204.541C65.8625 212.285 59.0255 215.392 51.7776 219.152C46.6509 221.833 41.6784 224.772 36.8299 227.927C29.9201 232.408 23.0184 236.77 15.411 239.981C14.7492 240.266 14.7492 240.266 14.074 240.557C11.2384 241.697 8.89022 242.192 5.84684 241.83C4.30473 240.891 4.30473 240.891 3.03386 239.66C2.60453 239.257 2.1752 238.854 1.73286 238.439C-0.599297 235.926 0.0587349 233.309 0.16939 230.052C0.199642 229.271 0.229894 228.49 0.261063 227.686C0.283856 226.905 0.306648 226.125 0.330132 225.32C0.357897 224.576 0.385663 223.832 0.41427 223.065C0.438565 222.38 0.46286 221.694 0.487891 220.988C0.703103 219.328 0.703103 219.328 1.98904 218.042C3.09385 217.839 4.20822 217.687 5.32443 217.56C8.48199 217.083 11.1166 216.256 14.0447 214.989C30.2205 208.13 51.9203 204.297 69.5006 204.541Z" fill="black"/>
<path d="M64.9999 176.896C64.483 180.347 61.8729 181.979 59.2132 183.968C57.6057 184.692 57.6057 184.692 55.9983 185.254C54.8449 185.994 53.6917 186.734 52.5399 187.477C50.3747 188.751 48.1314 189.825 45.8716 190.92C41.2598 193.173 37.0498 195.795 32.8515 198.755C28.6777 201.694 25.0599 203.887 19.9921 204.943C16.8925 204.297 14.9057 202.454 12.9195 200.041C12.2965 197.938 12.2649 196.277 12.2991 194.107C12.3049 193.612 12.3107 193.117 12.3167 192.607C12.3242 192.118 12.3316 191.628 12.3393 191.123C12.2533 189.249 11.6042 187.661 10.9906 185.897C10.7681 182.782 11.1426 180.445 12.2765 177.539C12.6081 177.632 12.9396 177.725 13.2812 177.821C16.9757 178.673 20.063 178.852 23.8098 178.248C30.8646 177.232 37.9531 177.243 45.0679 177.138C46.4334 177.113 47.7988 177.088 49.1643 177.062C54.4432 176.967 59.72 176.882 64.9999 176.896Z" fill="black"/>
<path d="M611.121 111.159C611.606 111.146 612.092 111.133 612.592 111.119C616.195 111.094 618.251 111.766 620.971 114.241C623.946 117.663 625.702 120.995 625.909 125.585C625.583 128.9 624.363 131.052 621.81 133.179C617.633 134.571 614.251 133.996 610.387 132.104C605.675 129.304 601.454 125.321 599.949 119.959C599.949 116.911 600.92 115.049 602.842 112.727C605.246 110.824 608.214 111.179 611.121 111.159Z" fill="black"/>
</svg>
