<svg xmlns="http://www.w3.org/2000/svg" width="631" height="239" fill="none"><path fill="#000" d="M399.634 129.828h22.509c0 13.365 16.807 20.657 29.608 20.657 14.362 0 29.749-6.806 29.749-18.226 0-15.554-20.644-15.318-36.281-18.858-18.711-4.234-40.108-13.837-40.108-34.121 0-21.038 21.789-33.832 45.514-33.832 17.695 0 34.056 8.167 41.864 17.887l-16.262 13.726c-4.599-4.85-14.676-10.385-24.665-10.385-18.781 0-23.588 8.571-23.588 14.646 0 11.908 23.327 12.176 41.262 16.682 16.757 4.21 36.554 13.356 36.554 33.524 0 23.574-22.168 39.858-53.076 39.858-32.161 0-53.08-17.987-53.08-41.558Zm-58.759 5.83-26.846-32.708-.426.296c-7.935 5.497-22.186 14.322-22.186 25.475 0 5.583 2.284 10.784 6.784 15.468 14.745 14.21 30.592 3.426 42.674-8.531Zm-117.862-26.589c0-24.344-15.728-41.14-36.309-41.14-21.739 0-34.016 16.796-34.016 41.14 0 24.343 12.277 41.139 34.016 41.139 20.581 0 36.309-16.796 36.309-41.139Zm-92.448 0c0-36.514 21.798-62.319 55.282-62.319 17.798 0 30.909 9.251 36.298 17.042V51.66l22.607-.21v118.475h-22.607v-15.579c-5.389 7.789-18.5 17.04-36.298 17.04-33.484 0-55.282-25.803-55.282-62.317Zm-37.601 0c0-23.613-13.958-41.14-35.576-41.14-20.942 0-35.577 17.527-35.577 41.14 0 23.611 14.635 41.139 35.577 41.139 21.618 0 35.576-17.528 35.576-41.139ZM22.12 154.346v15.579H0V0h22.121v63.792C29.007 55.03 41.629 46.75 58.843 46.75c33.28 0 56 24.833 56 62.319 0 37.488-22.72 62.317-56 62.317-17.674 0-29.606-8.763-36.722-17.04Zm285.936-97.257c0 7.368 5.872 12.785 10.179 18.133l.959-.709c5.775-4.26 13.549-9.13 13.549-17.157 0-7.346-5.518-11.171-12.432-11.171-6.312 0-12.255 4.176-12.255 10.904Zm63.097 46.157 14.695 15.09-18.173 17.797 27.672 33.749h-27.452l-14.288-17.57c-12.618 12.759-25.932 19.227-39.593 19.227-24.369 0-44.905-16.944-44.905-42.212 0-23.853 15.073-30.047 30.431-42.368-8.794-9.659-13.251-19.338-13.251-28.785 0-20.209 14.629-32.757 34.288-32.757 18.354 0 34.026 11.936 34.026 31.225 0 15.634-12.494 26.026-23.831 34.851l23.558 28.515 16.823-16.762ZM521.911 0h22.122v65.784c8.164-10.224 17.496-17.983 35.459-17.983C611.875 47.8 631 66.545 631 97.217v74.458h-22.12v-70.322c0-20.447-11.386-32.617-33.457-32.617-20.656 0-31.39 13.602-31.39 33.316v69.623h-22.122V0ZM134.136 211.502c-1.396-2.424-3.025-3.915-5.585-3.915-2.607 0-4.887 1.864-4.887 4.568 0 3.028 4.934 4.66 7.12 5.639 4.561 2.004 8.471 4.334 8.471 10.113 0 6.293-4.98 11.093-11.263 11.093-5.772 0-10.1-3.915-11.311-9.928l5.027-1.351c.512 3.542 2.933 6.431 6.191 6.431s6.237-2.469 6.237-5.872c0-3.401-2.932-4.8-5.771-6.105-4.748-2.05-9.821-4.009-9.821-10.161 0-5.685 4.794-9.275 10.1-9.275 4.049 0 7.54 2.238 9.727 6.199l-4.235 2.564ZM148.708 203.298h18.85v4.848h-13.73v8.669h13.311v4.893h-13.311v11.885h13.73v4.847h-18.85v-35.142ZM207.216 232.847c-3.491 3.916-8.471 6.152-13.265 6.152-9.867 0-18.013-8.155-18.013-18.036 0-10.068 8.146-18.224 18.245-18.224 5.121 0 9.635 2.051 13.405 5.827l-3.629 3.589c-2.7-2.844-6.005-4.568-9.821-4.568-7.261 0-13.125 6.198-13.125 13.422 0 6.758 6.003 13.143 12.845 13.143 3.538 0 7.354-1.864 9.867-5.033l3.491 3.728ZM220.626 220.87c0 7.224 5.399 13.282 11.962 13.282 6.516 0 11.868-6.058 11.868-13.282 0-7.271-5.259-13.283-11.868-13.283-6.61 0-11.962 6.012-11.962 13.283Zm28.996.047c0 10.113-7.725 18.083-17.081 18.083-9.401 0-17.081-7.97-17.081-18.083 0-10.068 7.68-18.178 17.081-18.178 9.356 0 17.081 8.11 17.081 18.178ZM259.682 202.599h1.675l24.622 25.773v-25.074h5.12v35.142h-2.467l-23.831-24.934v24.934h-5.119v-35.841ZM309.303 233.593c3.91 0 7.307-.7 10.192-3.309a13.087 13.087 0 0 0 4.003-9.415c0-3.682-1.397-7.177-4.189-9.554-2.885-2.611-6.143-3.17-10.006-3.17h-2.048v25.448h2.048Zm-7.168-30.295h7.028c5.166 0 9.495.84 13.59 4.241 3.956 3.449 5.818 8.203 5.818 13.377 0 5.08-1.908 9.647-5.724 13.096-4.097 3.589-8.378 4.428-13.777 4.428h-6.935v-35.142ZM337.746 203.298h18.849v4.848h-13.73v8.669h13.312v4.893h-13.312v11.885h13.73v4.847h-18.849v-35.142ZM384.76 203.298h4.98l11.823 25.96 11.868-25.96h4.933v35.142h-5.166v-21.859l-10.285 21.859h-2.7l-10.24-21.672v21.672h-5.213v-35.142ZM442.201 212.947l-4.7 11.045h9.309l-4.609-11.045Zm-6.841 15.893-4.05 9.6h-5.677l15.451-35.094h2.374l15.08 35.094h-5.724l-3.956-9.6H435.36ZM466.171 203.298h5.12v35.142h-5.12v-35.142ZM482.376 202.599h1.675l24.621 25.773v-25.074h5.121v35.142h-2.467l-23.831-24.934v24.934h-5.119v-35.841Z"/></svg>