<svg xmlns="http://www.w3.org/2000/svg" width="641" height="136" fill="none"><path fill="#000" d="m177.859 104.339-23.634-5.125c-2.21 4.922-5.943 10.56-15.332 10.56-8.672 0-14.788-5.427-17.065-15.023h56.031v9.588Zm-27.465-32.736H122.77c2.451-7.433 7.014-11.202 13.567-11.202 7.941 0 12.33 5.42 14.057 11.202ZM67.471 84.997c0 14.171-7.119 23.692-17.707 23.692-10.693 0-17.872-9.52-17.872-23.692v-1.032c.347-13.644 7.36-22.463 17.872-22.463 10.588-.008 17.707 9.437 17.707 23.495Zm110.388 48.657h31.891V.159h-31.899v59.813a46.123 46.123 0 0 0-8.348-11.955c-8.582-8.82-20.361-13.681-33.166-13.681-12.865 0-24.607 5.11-33.061 14.397a47.91 47.91 0 0 0-8.22 12.663C88.21 44.904 74.055 34.336 56.5 34.336c-10.045 0-18.574 3.542-24.607 10.085V.167H0V133.66h31.9v-7.839c5.964 6.513 14.493 10.025 24.599 10.025 17.548 0 31.703-10.59 38.557-27.136 7.549 16.689 23.356 27.136 43.46 27.136 17.224 0 30.406-6.09 39.343-18.113v15.92ZM578.25 71.603c2.451-7.433 7.006-11.202 13.559-11.202 7.941 0 12.33 5.42 14.057 11.202H578.25Zm-28.973-7.139a57.51 57.51 0 0 0-3.484 16.81c-7.979-6.34-19.396-8.76-29.004-10.026l-5.656-.723c-11.04-1.327-11.04-4.9-11.04-6.43 0-4.643 5.053-5.33 8.069-5.33 7.021 0 12.179 3.755 14.148 10.297l26.967-4.598Zm-72.84 21.483c8.046 7.191 20.421 9.822 30.722 11.156l5.618.724c9.819 1.371 11.086 4.643 11.086 7.341 0 5.428-6.425 6.234-10.241 6.234-9.178 0-15.301-4.048-18.189-12.045l-22.036 3.874c1.886-5.329 2.934-11.14 3.04-17.284Zm-32.05-.95c0 14.171-7.119 23.692-17.707 23.692-10.694 0-17.88-9.52-17.88-23.692 0-14.058 7.186-23.503 17.88-23.503 10.754 0 17.699 9.227 17.699 23.503h.008ZM327.8 94.76v9.686l-24.117-5.224c-2.202 4.922-5.935 10.561-15.339 10.561-8.672 0-14.78-5.428-17.058-15.023H327.8Zm-27.94-23.156h-27.616c2.451-7.433 7.006-11.202 13.559-11.202 7.933 0 12.33 5.42 14.057 11.202ZM577.3 94.759h61.377V84.093c0-14.171-4.864-26.986-13.702-36.069-8.589-8.819-20.369-13.68-33.174-13.68-12.857 0-24.591 5.11-33.053 14.396a47.335 47.335 0 0 0-7.216 10.56c-6.033-15.67-22.021-24.957-43.377-24.957-20.324 0-34.991 9.143-39.026 23.465-8.597-14.306-24.056-23.465-42.449-23.465-15.761 0-29.373 6.731-38.362 17.669V36.333h-60.526V60.99a46.425 46.425 0 0 0-8.823-12.965c-8.589-8.834-20.369-13.688-33.173-13.688-12.858 0-24.607 5.11-33.053 14.397a47.348 47.348 0 0 0-7.3 10.726V.16h-31.899v133.495h31.899v-23.021c7.865 15.558 23.219 25.207 42.532 25.207 17.541 0 30.881-6.309 39.817-18.769v16.598h31.711V65.934h20.806a53.91 53.91 0 0 0-3.401 19.07c0 28.976 21.394 50.836 49.772 50.836 17.97 0 33.136-8.774 41.846-22.561 8.182 14.428 24.215 22.561 45.089 22.561 20.248 0 34.817-8.073 40.028-21.332 8.348 13.266 22.699 21.332 40.345 21.332 21.357 0 36.507-9.347 45.036-27.769l1.056-2.269-30.391-6.588c-2.202 4.922-5.935 10.56-15.331 10.56-8.672 0-14.781-5.427-17.058-15.015Z"/></svg>