<svg xmlns="http://www.w3.org/2000/svg" width="327" height="168" fill="none"><path fill="#000" d="M91.6 166.8h-2.06l-9.51-19.96h2.65l7.94 16.59 7.88-16.59h2.65L91.6 166.8ZM108.99 166.8v-19.99h2.35v19.99h-2.35ZM137.9 166.8l-13.01-16.24v16.24h-2.35v-19.96h2.35l13.01 16.46v-16.46h2.38v19.96h-2.38ZM158.78 149.2v17.61h-2.35V149.2h-7.29v-2.35h16.97v2.35h-7.33ZM190.02 166.8l-3.26-6.87h-9.62l-3.15 6.87h-2.62l9.51-19.96h2.4l9.35 19.96h-2.61Zm-7.97-17.09-3.74 7.91h7.4l-3.66-7.91ZM213.66 166.8c-1.2.35-2.43.51-3.69.51-6.12 0-11.06-4.14-11.06-10.45 0-6.25 5.02-10.42 11.06-10.42 3.55 0 6.01 1.26 8.5 3.71l-1.6 1.68c-2.11-1.95-3.98-3.05-6.95-3.05-4.7 0-8.68 3.23-8.68 8.1 0 4.94 4.01 8.07 8.74 8.07.8 0 1.63-.08 2.43-.24 1.74-.37 4.11-1.47 4.11-3.58v-2.81h-6.89v-2.35h9.24v5.32c0 2.92-2.7 4.77-5.21 5.51ZM227.81 166.8v-19.96h16.46v2.35h-14.08v6.09h7.4v2.35h-7.4v6.81h14.67v2.35h-17.05v.01ZM302.02 65.04c.96-.45 1.72-1 3.01-1.6 10.28-4.8 22.63 7.6 1.52 16.1-106.19 42.71-202.92 14.82-222.65 6.58-20.48-8.56-19.71-7.99-27.18-9.84-7.04-1.73-16.38-1.02-22.65.74-42.9 11.99-30.61 43.91 2.57 50.98 31.81 6.15 71.33-8.36 86.12-19.93l-.49-.58c-14.13 10.67-55.02 25.92-84.94 19.88-34.27-7.25-44.93-40.14.75-50.05 13.33-2.89 30.12 3.59 43.67 10.49 22.91 11.67 116.54 41.71 226.01-7.08 23.07-10.29 7.6-24.78-4.52-17.42l-1.74 1M74.01 44.18c0-6.61-2.97-11.41-8.15-11.41-3.84 0-4.32 1.54-6.71 1.54-.96 0-1.63-.58-1.63-1.63 0-1.05.86-1.82 2.11-1.82.87 0 1.63.39 2.87.39 9.78 0 14.58-8.25 14.58-17.06 0-4.7-1.34-7.86-4.51-9.4-10.93 7.58-16.39 21.67-23.01 33.17-9.11 15.82-23.2 29.53-37.48 29.53C4.69 67.49 0 64.52 0 60.1c0-2.59 1.15-4.69 3.93-4.69 2.11 0 3.35 1.34 3.35 3.16 0 1.73-1.34 3.16-1.34 4.13 0 2.2 2.68 3.64 6.42 3.64 14.19 0 21.96-12.56 31.16-29.53 6.71-12.37 15.82-24.93 27.71-32.7-5.85-2.59-11.51-2.97-16.97-2.97-25.69 0-47.45 17.26-47.45 32.89 0 4.51 2.97 7.77 8.43 7.77 5.18 0 16.4-5.85 24.06-17.93 6.71-10.54 6.81-16.39 7.48-16.39.39 0 .67.1.67.48 0 7.86-9.68 35.37-32.02 35.37-5.75 0-9.78-3.74-9.78-9.01C5.65 18.02 27.99 0 54.64 0c6.14 0 13.33.86 18.02 3.26C75.63 1.53 78.7 0 79.56 0c.19 0 .38.29.38.77 0 .58-5.08 2.11-5.85 2.97 4.89 2.68 8.73 7.19 8.73 13.04 0 6.9-7.19 13.23-15.34 15.15v.19c6.9 1.54 12.27 6.33 12.27 14.09 0 12.46-12.18 21.28-23.3 21.28-6.9 0-10.84-3.65-10.84-9.3 0-8.82 9.01-14.48 10.16-14.48.29 0 .48.19.48.48 0 .77-1.82.58-4.89 3.74-3.35 3.54-4.6 6.23-4.6 10.26 0 5.37 3.35 8.15 9.78 8.15 9.6-.02 17.47-12.77 17.47-22.16Z"/><path fill="#000" d="M105.54 41.4c-6.71 0-15.63 12.75-15.63 20.8 0 2.69 1.15 3.55 2.49 3.55 7.58 0 16.49-11.32 16.49-20.04.01-2.3-.95-4.31-3.35-4.31Zm-.19 17.44c.19.1.48.2 1.06.2 3.26 0 6.52-1.92 8.92-4.7 1.25-1.44 1.34-1.63 1.63-1.63.39 0 .48.19.48.48 0 .2-.19.58-2.4 2.88-2.4 2.49-5.75 4.12-9.49 4.12-.67 0-.96 0-1.24-.1-2.97 3.35-6.9 6.81-12.27 6.81-3.84 0-5.94-3.36-5.94-8.54 0-3.45.48-4.41.48-4.98 0-.39-.1-.58-.29-.58-.77 0-16.31 10.57-16.6 10.57-.29 0 .12-1.42 0-1.16-.39.9 17.28-11.88 19.86-14.4 4.93-4.81 11.41-7.57 15.72-7.57 3.65 0 5.75 2.78 5.75 6.61-.01 3.94-2.79 9.12-5.67 11.99Z"/><path fill="#000" d="M117.7 66.9c1.82-3.55 15.34-21.09 15.34-24.06 0-.96-.67-1.44-1.44-1.44-2.68 0-5.27 2.01-10.16 7.38-4.51 4.89-4.41 5.27-4.8 5.27-.29 0-.48-.19-.48-.58 0-.29 2.39-2.97 3.64-4.41 4.6-5.37 8.44-8.82 12.18-8.82 2.49 0 3.54 1.82 3.54 4.7 0 3.84-3.93 9.3-6.04 12.08l.19.19c3.74-3.55 14.77-16.97 19.66-16.97 2.39 0 3.45 2.49 3.45 4.51 0 3.26-1.92 6.04-3.55 8.25-4.31 5.84-6.42 9.3-6.42 10.83 0 .96.58 1.92 1.54 1.92 2.2 0 6.23-3.45 10.16-7.67 4.89-5.18 4.51-5.46 5.08-5.46.29 0 .39.29.39.48 0 .48-4.79 5.75-6.04 6.99-4.22 4.22-7.57 6.81-9.77 6.81-2.88 0-4.22-2.68-4.22-6.14 0-7.67 10.35-15.63 10.35-18.22 0-.67-.48-1.15-1.34-1.15-4.6 0-21.96 20.42-24.83 24.92l-6.43.59Z"/><path fill="#000" d="m181.3 30.8-15.68 27.18.19.2c3.54-4.22 14.48-17.93 20.61-17.93 2.49 0 3.54 2.3 3.54 4.99 0 6.04-10.25 14.19-10.25 19.17 0 .87.58 1.34 1.53 1.34 2.01 0 5.18-1.53 11.12-8.25 3.84-4.31 4.03-4.89 4.41-4.89.29 0 .48.29.48.48 0 .48-.19.38-2.97 3.65-6.52 7.76-10.55 10.16-13.32 10.16-2.97 0-4.13-2.49-4.13-6.13 0-7.58 10.26-14.19 10.26-18.12 0-.67-.58-1.25-1.25-1.25-3.65 0-17.73 11.7-31.73 36.24l-7.96 13.99-6.42.39 32.88-53.4-.19-.19c-4.99 5.84-12.84 15.72-13.23 15.72-.38 0-.57-.2-.57-.48 0-.48.56-.17 5.65-6.9 8.91-11.77 4.04-4.67 10.9-15.16l6.13-.81Z"/><path fill="#000" d="M217.29 41.4c-6.71 0-15.63 12.75-15.63 20.8 0 2.69 1.15 3.55 2.49 3.55 7.58 0 16.49-11.32 16.49-20.04.01-2.3-.95-4.31-3.35-4.31Zm-.19 17.44c.19.1.48.2 1.05.2 3.26 0 6.52-1.92 8.92-4.7 1.25-1.44 1.34-1.63 1.63-1.63.38 0 .48.19.48.48 0 .2-.18.58-2.4 2.88-2.39 2.49-5.75 4.12-9.49 4.12-.67 0-.96 0-1.25-.1-2.97 3.35-6.9 6.81-12.27 6.81-3.84 0-5.94-3.36-5.94-8.54 0-3.45.48-4.41.48-4.98 0-.39-.09-.58-.29-.58-.77 0-1.44 1.53-1.72 1.53-.29 0-.58-.19-.58-.48 0-.48 3.26-3.84 5.56-6.04 5.56-5.27 11.41-7.57 15.73-7.57 3.64 0 5.75 2.78 5.75 6.61 0 3.94-2.78 9.12-5.66 11.99Z"/><path fill="#000" d="M246.44 29.72c1.34 0 2.2 1.06 2.2 2.49 0 1.63-1.25 3.65-3.36 3.65-1.34 0-2.2-1.06-2.2-2.5.01-1.63 1.25-3.64 3.36-3.64Zm-1.27 10.53c-11.51 18.98-13.32 21.47-13.32 23.49 0 1.63.96 2.01 1.82 2.01 3.07 0 7.48-3.84 10.65-7.09 2.49-2.49 5.66-6.32 5.84-6.32.29 0 .58.09.58.48 0 .29-1.82 2.49-5.85 6.71-4.7 4.89-8.63 7.38-11.32 7.38-2.97 0-4.6-2.11-4.6-4.99 0-6.42 5.85-12.94 9.11-17.83l-.19-.2c-1.15 1.16-3.55 3.65-8.15 8.82-.96 1.15-1.05 1.25-1.34 1.25-.29 0-.38-.29-.38-.58 0-.19.38-.58 2.87-3.45 2.49-2.88 6.8-7.28 8.25-9.3l6.03-.38Z"/><path fill="#000" d="M250.72 66.9c1.82-3.55 15.35-21.09 15.35-24.06 0-.96-.68-1.44-1.44-1.44-2.68 0-5.27 2.01-10.16 7.38-4.51 4.89-4.41 5.27-4.8 5.27-.29 0-.48-.19-.48-.58 0-.29 2.4-2.97 3.65-4.41 4.6-5.37 8.44-8.82 12.17-8.82 2.49 0 3.55 1.82 3.55 4.7 0 3.84-3.93 9.3-6.04 12.08l.19.19c3.74-3.55 14.77-16.97 19.65-16.97 2.4 0 3.46 2.49 3.46 4.51 0 3.26-1.92 6.04-3.55 8.25-4.31 5.84-6.42 9.3-6.42 10.83 0 .96.58 1.92 1.54 1.92 2.2 0 6.23-3.45 10.16-7.67 4.89-5.18 4.51-5.46 5.08-5.46.3 0 .39.29.39.48 0 .48-4.79 5.75-6.04 6.99-4.22 4.22-7.57 6.81-9.78 6.81-2.87 0-4.22-2.68-4.22-6.14 0-7.67 10.35-15.63 10.35-18.22 0-.67-.48-1.15-1.34-1.15-4.6 0-21.96 20.42-24.83 24.92l-6.44.59Z"/><path fill="#000" d="M302.19 64.98c-2.23 1.34-3.67 1.92-5.08 1.92-3.26-.1-4.51-2.49-4.51-4.7 0-5.46 3.26-10.16 8.92-18.22l-.2-.19c-1.82 2.2-3.25 3.74-5.85 6.71-.86.96-3.45 4.13-3.73 4.13-.28 0-.48-.1-.48-.39 0-.39.39-.77 4.12-4.99 2.88-3.16 8.73-10.06 13.14-16.49h-3.46c-.38 0-.48-.29-.48-.58s.29-.58.39-.58H309l5.65-9.2 5.94-.39-6.23 9.59h11.22c.2 0 .48.19.48.58 0 .29-.1.58-.48.58h-11.87c-2.97 5.27-18.22 27.13-18.22 31.54 0 .96.58 1.44 1.82 1.44 1.29 0 2.67-.5 4.19-1.44"/></svg>