<svg xmlns="http://www.w3.org/2000/svg" width="716" height="314" fill="none"><path fill="#C9E1F4" d="M74.099 37.618c4.93 3.906 9.54 7.734 13.184 12.887v2h2l.714 2.52c1.389 3.738 2.707 6.419 5.286 9.48 4.853 1.728 9.615 2.149 14.714 2.684 14.268 1.972 26.845 8.955 38.286 17.316 1.353.938 2.708 1.875 4.062 2.812 2.938 2.188 2.938 2.188 3.938 4.188l2.563.06c3.198.079 6.397.166 9.595.257 1.373.038 2.746.073 4.119.105 11.674.273 22.894.54 33.41 6.015l1.834.908c4.343 2.247 4.343 2.247 5.479 5.655l3 1c4.825 6.756 5.34 13.346 5.312 21.375l.049 2.75c.005 7.511-1.143 14.072-6.424 19.812l-1.535 1.715c-1.402 1.348-1.402 1.348-3.402 2.348l1.39 1.031c5.694 4.498 8.338 9.154 10.61 15.969 1.14 12.287 1.478 25.129-6.727 35.097-12.129 11.755-28.749 11.983-44.609 12.562l-2.489.095-2.221.072c-2.169.117-2.169.117-4.954 1.174v2a113.37 113.37 0 0 1-5 3l-2.125 1.687c-1.875 1.313-1.875 1.313-4.875 1.313v2c-9.433 5.38-18.79 10.323-29.188 13.562l-2.316.723c-8.462 2.492-16.665 2.896-25.434 2.902l-2.842.037c-13.712.029-25.05-3.825-35.095-13.474-12.082-12.896-17.684-28.357-19.125-45.75l-.333-3.41c-1.19-13.324-1.587-27.467 1.333-40.59l-1.942.105c-7.24.227-11.46-.824-17.62-4.73C3.072 125.583.431 104.537.051 86.384c-.138-17.23 1.406-34.456 13.23-47.88l2-3a87.925 87.925 0 0 1 5-3l2.313-1.562c15.822-8.463 37.797-3.609 51.504 6.676Zm97.184 74.887.769 2.492c.718 2.327 1.432 4.655 2.145 6.984a459.531 459.531 0 0 0 1.984 6.297c1.734 5.441 2.642 10.53 3.102 16.227 8.05-1.136 8.05-1.136 15-5 3.572-5.051 3.66-10.04 3-16-.651-3.468-.651-3.468-3-6-6.014-3.247-12.459-5.179-19.313-5.063l-3.687.063Zm10 51-.26 2.491a9554.59 9554.59 0 0 1-.967 9.197c-.208 1.973-.414 3.946-.619 5.919l-.401 3.779-.365 3.476a90.66 90.66 0 0 1-1.388 8.138c7.115-.161 12.558-1.185 18-6 3.4-4.676 3.851-9.399 3-15-1.325-4.103-2.972-7.115-6.25-9.938-2.467-.953-4.328-1.335-6.922-1.629l-3.828-.433Z"/><path fill="#D10202" d="m171.345 92.317 3.854-.037c10.903-.017 20.983.566 30.771 5.662l1.834.908c4.343 2.247 4.343 2.247 5.479 5.655l3 1c4.825 6.756 5.34 13.346 5.312 21.375l.049 2.75c.005 7.511-1.143 14.072-6.424 19.812l-1.535 1.715c-1.402 1.348-1.402 1.348-3.402 2.348l1.39 1.031c5.694 4.498 8.338 9.154 10.61 15.969 1.14 12.287 1.478 25.129-6.727 35.097-11.97 11.601-28.297 12.217-44.005 12.14-6.609-.111-13.183-.485-19.768-1.05l-2.661-.212c-4.627-.454-8.086-.995-11.839-3.975-2.111-3.166-2.253-3.93-2.268-7.548l-.026-2.825.003-3.094-.02-3.262a2247.33 2247.33 0 0 1-.025-10.705l-.021-7.424c-.012-5.191-.015-10.382-.014-15.573 0-6.66-.027-13.319-.062-19.978a3408.61 3408.61 0 0 1-.025-15.336c-.002-2.456-.011-4.912-.026-7.367-.02-3.431-.014-6.861-.002-10.292l-.034-3.088c.061-6.881.061-6.881 2.432-10.126 8.741-5.788 24.125-3.565 34.15-3.57Zm-.062 20.188.769 2.492c.718 2.327 1.432 4.655 2.145 6.984a459.531 459.531 0 0 0 1.984 6.297c1.734 5.441 2.642 10.53 3.102 16.227 8.05-1.136 8.05-1.136 15-5 3.572-5.051 3.66-10.04 3-16-.651-3.468-.651-3.468-3-6-6.014-3.247-12.459-5.179-19.313-5.063l-3.687.063Zm10 51-.26 2.491a9554.59 9554.59 0 0 1-.967 9.197c-.208 1.973-.414 3.946-.619 5.919l-.401 3.779-.365 3.476a90.66 90.66 0 0 1-1.388 8.138c7.115-.161 12.558-1.185 18-6 3.4-4.676 3.851-9.399 3-15-1.325-4.103-2.972-7.115-6.25-9.938-2.467-.953-4.328-1.335-6.922-1.629l-3.828-.433Z"/><path fill="#0177BE" d="M74.099 37.618c4.93 3.906 9.54 7.734 13.184 12.887v2h2c6.972 12.747 9.279 26.111 6.062 40.5-3.784 11.794-11.319 23.774-20.062 32.5h-2l-1 3a87.38 87.38 0 0 1-6.375 4.375l-1.902 1.203c-9.46 5.87-17.84 9.594-29.036 9.672l-2.224.062c-7.334.052-13.113-2.099-18.463-7.312C-.427 119.787-.712 93.405.39 72.445c.865-12.626 4.46-24.37 12.892-33.94l2-3a87.925 87.925 0 0 1 5-3l2.312-1.563c15.822-8.463 37.797-3.609 51.504 6.676Z"/><path fill="#D10000" d="m515.408 122.067 3.312.038c11.551.249 21.936 1.751 32.563 6.4.092 12.639.163 25.278.207 37.918.021 5.87.049 11.739.094 17.608.044 5.667.068 11.334.078 17.001.007 2.159.022 4.318.044 6.478.029 3.03.033 6.06.031 9.09l.043 2.69c-.053 8.169-2.983 14.199-8.497 20.215-8.64 7.753-18.547 7.195-29.563 7.187l-3.507-.002c-20.48-.147-20.48-.147-28.93-4.185-1.425-2.849-1.17-5.328-1.188-8.5l-.043-3.532c.231-2.968.231-2.968 2.231-4.968 4.964-.573 10.048-.028 15 .5 5.131.514 10.222.612 15.375.625l2.343.013 2.243-.005 1.993-.004c2.559-.116 2.559-.116 7.046-1.129l2-10-3 1c-11.026.893-23.111 1.547-33-4l-1.993-1.063c-7.749-4.789-11.477-12.999-14.176-21.385-1.415-6.046-1.462-12.041-1.408-18.215.014-2.204-.02-4.403-.058-6.607-.065-11.998 2.08-23.686 10.049-33.191 2.571-2.495 5.349-4.106 8.586-5.539l2.127-1.031c6.774-3.032 12.632-3.563 19.998-3.407Zm-11.125 22.438v2h-2c-2.708 4.632-3.468 8.465-3.469 13.742l-.023 2.204a439.498 439.498 0 0 0-.009 4.593c.001 2.323-.041 4.642-.085 6.965-.129 10.16-.129 10.16 4.216 19.152 2.072 2.033 3.719 3.279 6.638 3.571l2.618-.032 2.842-.019 2.959-.051 2.994-.028a992.26 992.26 0 0 0 7.319-.097c.025-7.53.042-15.06.055-22.589.005-2.564.011-5.128.02-7.692.012-3.676.018-7.352.022-11.028l.016-3.497v-3.216l.007-2.846c.118-2.116.118-2.116-1.12-3.132-8.335-1.563-15.326-1.919-23 2ZM452.283 127.505c6.776 5.791 10.543 12.221 12 21 .108 2.068.168 4.14.192 6.211l.049 3.731c.012 1.334.022 2.669.032 4.003l.016 2.048c.027 3.569.046 7.139.061 10.708.013 2.953.041 5.905.082 8.858.049 3.572.074 7.143.081 10.716.007 1.359.022 2.719.046 4.078.031 1.898.028 3.796.024 5.694l.025 3.272c-.608 2.681-.608 2.681-2.985 4.494-9.059 4.097-18.339 4.671-28.169 4.578-2.019-.016-4.035 0-6.054.019-10.549-.031-20.65-1.11-29.4-7.41-5.865-6.675-6.281-12.482-6.438-21.125l-.139-3.055c-.111-7.511 1.571-12.183 6.577-17.82 10.663-9.786 28.53-8.421 42-8a278.556 278.556 0 0 0-.688-6.313l-.387-3.551c-.647-3.233-.647-3.233-3.07-4.992-6.692-2.682-12.824-2.049-19.793-1.207-1.717.201-3.434.397-5.152.59l-2.277.273c-3.535.268-7.088.2-10.633.2v-18c16.457-4.702 38.669-9.042 54 1Zm-35 51c-2.523 3.838-2.577 8.522-2 13 .603 2.691.603 2.691 2 5 7.127 3.142 15.518 1.88 23 1v-22l-7.563-.188-2.338-.083c-5.097-.06-8.583.874-13.099 3.271ZM598.033 122.13l2.901-.042c9.188.059 17.797 2.043 25.349 7.417 8.737 9.06 8.284 19.344 8.195 31.218l-.009 4.405c-.007 3.841-.027 7.681-.049 11.521-.021 3.929-.03 7.857-.04 11.785-.021 7.691-.055 15.381-.097 23.071-9.877 4.334-18.572 5.35-29.375 5.315-2.056-.003-4.11.021-6.166.046-10.631.051-21.131-1.106-29.459-8.361-7.029-9.092-6.833-17.857-6-29 1.075-5.732 3.106-9.65 7.562-13.438 9.293-6.137 21.064-6.738 31.875-6.625l2.506.014c2.019.012 4.038.03 6.057.049-.097-7.46-.097-7.46-3.063-14.125-6.259-3.995-13.401-2.847-20.437-1.938-5.868.73-11.582 1.384-17.5 1.063-2.86-2.86-2.334-4.956-2.375-8.938l-.086-3.777c.461-3.285.461-3.285 2.121-5.121 8.689-4.323 18.581-4.464 28.09-4.539Zm-10.391 57.644c-2.397 3.052-1.888 6.325-1.75 10.059.257 2.87.257 2.87 2.141 5.797 7.247 4.181 15.233 2.877 23.25 1.875v-22c-12.565-.775-12.565-.775-23.641 4.269ZM240.939 123.372l2.847-.004 2.997.012 2.996-.012 2.847.004 2.631.003c2.026.13 2.026.13 3.026 1.13.112 1.762.156 3.529.173 5.295l.041 3.43.032 3.743.099 7.797c.049 4.11.092 8.22.131 12.33.039 3.958.092 7.916.145 11.873l.025 3.695c.095 6.562.45 12.533 2.354 18.837 5.143 4.686 10.154 4.391 16.914 4.238 2.781-.215 5.361-.665 8.086-1.238l.031-2.606c.098-8.094.2-16.187.308-24.28.055-4.161.109-8.322.158-12.483.048-4.014.1-8.027.156-12.041.02-1.533.039-3.067.056-4.6.024-2.143.054-4.286.085-6.429l.047-3.701c.159-2.86.159-2.86 1.159-4.86 3.458-.087 6.916-.141 10.375-.188l2.984-.076 2.851-.029 2.635-.048 2.155.341c2.479 3.719 2.302 6.605 2.306 10.912l.025 2.44c.024 2.664.033 5.327.04 7.991l.027 5.549c.017 3.877.024 7.754.027 11.631.005 4.974.043 9.947.089 14.92.03 3.819.037 7.638.038 11.458.004 1.834.017 3.668.037 5.502.027 2.562.022 5.122.01 7.685l.045 2.305c-.03 2.115-.03 2.115-.644 5.607-9.526 7.701-26.609 7.38-38.188 7.437l-3.145.03c-11.134-.125-20.382-3.302-28.417-11.155-6.635-8.889-6.811-18.471-6.676-29.129.005-1.508.008-3.015.01-4.523.007-3.138.028-6.275.059-9.412.04-4.029.058-8.057.067-12.086.01-3.847.03-7.694.051-11.541l.011-2.228c.011-2.065.03-4.131.051-6.196l.029-3.563c.247-4.405 1.835-3.762 5.804-3.767ZM656.97 123.246l3.61-.019 3.917.012a1960.007 1960.007 0 0 1 12.406.005c3.59.011 7.179.005 10.768-.007 2.758-.007 5.516-.005 8.274 0 1.967.002 3.934-.004 5.901-.01l3.62.019 3.191.005c2.626.254 2.626.254 5.626 2.254 1.152 3.457 1.168 6.232 1.187 9.875l.043 3.679c-.392 5.857-2.625 9.246-6.168 13.821l-2.422 3.164-1.295 1.688c-2.386 3.143-4.707 6.335-7.033 9.523-2.803 3.837-5.613 7.663-8.5 11.437-2.466 3.262-4.727 6.644-6.988 10.051l-2.173 3.271-1.651 2.491 3.197-.016c3.9-.018 7.801-.03 11.701-.039 1.691-.005 3.382-.012 5.072-.021 2.426-.012 4.851-.018 7.276-.022l2.304-.016c1.817 0 3.634.052 5.45.114 1.939 1.939 1.132 4.812 1.136 7.388l-.011 2.549.011 2.537-.004 2.428-.003 2.234c-.129 1.864-.129 1.864-1.129 3.864-8.015.092-16.03.163-24.045.207-3.721.021-7.443.049-11.164.094-3.593.044-7.184.068-10.777.078-1.37.008-2.74.022-4.109.044-1.92.029-3.84.03-5.76.031l-3.311.027c-3.525-.598-4.683-1.676-6.834-4.481-1.367-6.165-1.019-11.886 1.726-17.586 1.952-2.988 3.868-5.777 6.274-8.414h2l.773-2.18c1.31-3.012 2.884-5.319 4.852-7.945a2469.2 2469.2 0 0 1 2.168-2.922l2.207-2.953c1.316-1.789 2.628-3.581 3.937-5.375l1.973-2.7a303.11 303.11 0 0 0 4.523-6.507l1.233-1.817a435.362 435.362 0 0 0 2.365-3.538c.939-1.39 1.948-2.732 2.969-4.063h2v-2l-3.381-.076c-4.124-.094-8.249-.194-12.373-.297a3173.7 3173.7 0 0 0-5.363-.125 2467.45 2467.45 0 0 1-7.692-.186l-2.437-.051c-5.641-.151-5.641-.151-6.754-1.265a168.196 168.196 0 0 1-.188-7.938l-.037-2.248c-.005-1.939.103-3.879.225-5.814 2.669-2.67 3.958-2.253 7.687-2.259ZM357.283 104.505v18l4.96-.035 6.415-.028 3.273-.025 3.125-.01 2.888-.016c2.339.114 2.339.114 4.339 1.114.026 2.979.046 5.958.062 8.937l.025 2.576.01 2.452.016 2.269c-.113 1.766-.113 1.766-1.113 2.766h-24l1 54 23 1c1 1 1 1 1.097 4.597a603.756 603.756 0 0 1-.035 4.465l-.014 2.299c-.011 1.88-.029 3.759-.048 5.639-5.884 2.711-11.503 2.33-17.875 2.312l-3.512.049c-8.132.005-14.066-.688-20.363-6.236l-1.672-1.43c-3.752-4.031-4.954-7.289-4.919-12.771l.001-3.639.047-3.899.012-4.014c.012-3.51.041-7.019.075-10.529.03-3.587.044-7.173.059-10.759.032-7.028.083-14.056.147-21.084l-2.336.07-3.039.055-3.024.07c-2.601-.195-2.601-.195-4.601-2.195a93.773 93.773 0 0 1-.25-8l-.024-2.235c.02-5.512.02-5.512 2.274-7.765 2.601-.196 2.601-.196 5.625-.125l3.039.054 2.336.071-.071-3.211-.054-4.164-.051-2.117c-.018-1.837.073-3.674.176-5.508 2.657-2.657 4.557-2.594 8.25-3.125l3.39-.508c8.283-.905 8.283-.905 11.36.633Z"/><path fill="#01539A" d="M92.283 64.505h2c4.088 12.575 3.037 26.069-2.887 37.843-4.407 8.355-9.388 16.446-16.113 23.157h-2l-1 3a86.936 86.936 0 0 1-6.375 4.375l-1.916 1.201c-8.801 5.425-16.11 9.458-26.71 8.424.555-11.682 2.279-22.634 6.919-33.426a100.59 100.59 0 0 0 2.132-5.555C51.18 89.851 58.158 75.558 71.47 68.63c5.051-2.403 8.899-3.245 14.5-3.125 1.77.037 3.542.047 5.313 0l1-1Z"/><path fill="#C7E0F4" d="m144.283 4.505 2.687 1.25c5.334 4.036 8.588 9.332 10.313 15.75.96 10.17-.414 17.162-6.567 25.304-5.764 6.817-12.575 10.896-21.496 12.114-5.41.25-10.316.195-14.535-3.508-6.825-9.297-6.732-22.928-5.105-33.92 1.498-8.01 3.911-14.23 10.703-18.99 7.671-4.77 16.68-1.951 24 2Z"/><path fill="#0079C1" d="M315.22 271.88c2.063 1.625 2.063 1.625 3.063 3.625.508 5.17.508 5.17 0 8-2.5 3-2.5 3-5 5 1.167 3.814 1.167 3.814 4.125 6.312l1.875.688 1.375-1.5c1.625-1.5 1.625-1.5 3.625-1.5 1.625 1.5 1.625 1.5 3 3l-.938 2.312a110.56 110.56 0 0 0-2.062 5.688c1.641 2.02 3.309 4.02 5 6v3c-7.508.369-7.508.369-10-1.5l-1-1.5-1.75.875-2.25 1.125-1.872 1.043c-3.666 1.648-7.199 1.624-11.128.957-3.33-1.662-6.295-3.588-8-7-1.034-9.037-1.034-9.037 1.046-12.989 1.329-1.574 1.329-1.574 3.954-4.011l2-2-1-1.5c-1.412-3.529-1.509-6.746-1-10.5 3.421-6.354 10.943-6.431 16.937-3.625Zm-8.937 4.625c-1.003 3.583-1.003 3.583 0 7l4-1 1-5-5-1Zm-4.188 19.562c-2.205 2.426-2.205 2.426-1.625 6.125.467 3.14.467 3.14 1.813 4.313 4.795.506 4.795.506 8.937-1.5l1.063-1.5c-1.307-3.919-2.832-6.327-6-9-2.177-.194-2.177-.194-4.188 1.562ZM170.283 273.505c2.5 2.187 2.5 2.187 4 4-1.441 4.683-1.441 4.683-3.875 6.062-3.133-.092-4.024-1.834-6.125-4.062-4.237-2.405-7.322-2.149-12-1-3.309 1.748-5.416 3.043-7.375 6.25-1.221 5.371-1.516 10.888 1.375 15.75 3.377 3.706 5.503 5.326 10.562 5.562 4.241-.25 6.513-1.372 9.438-4.562l2-4h-9v-7h17c0 11.214 0 11.214-3 16-5.861 5.629-11.02 7.429-19.079 7.343-6.122-.72-10.908-3.882-14.921-8.468-3.129-4.498-3.241-8.382-3.313-13.688l-.088-2.119c-.079-6.51 2.57-9.892 6.713-14.818 7.512-6.289 19.339-5.847 27.688-1.25Z"/><path fill="#E1E4EF" d="M158.283 161.505h23c.52 24.96.52 24.96-5 36h-18v-36Z"/><path fill="#0079C1" d="M537.283 271.505c17.757 0 17.757 0 22.312 4.062 2.283 3.974 2.379 7.444 1.688 11.938-1.024 2.277-1.024 2.277-2 4h-2l-1 3h-3l1.009 1.437c1.502 2.142 2.996 4.29 4.491 6.438l1.589 2.261 1.504 2.168 1.397 2c1.01 1.696 1.01 1.696 1.01 3.696-3.05.287-5.958.414-9 0-1.688-1.938-1.688-1.938-3-5a214.215 214.215 0 0 0-3.188-4.813l-2.812-4.187-1 14h-8v-41Zm8 6v12c5.015-.33 5.015-.33 9-3 .583-2.958.583-2.958 0-6-3.245-2.704-4.709-3-9-3ZM202.283 269.505c3 1 3 1 4.179 2.958l1.125 2.565 1.27 2.848 1.301 3.004 1.277 2.886c.854 1.932 1.705 3.864 2.553 5.798 3.871 8.807 3.871 8.807 8.107 17.441 1.188 2.5 1.188 2.5 1.188 5.5-3.25.375-3.25.375-7 0-3.164-3.569-4-5.19-4-10l-17 1-1.938 3.937c-1.937 3.938-1.937 3.938-3.062 5.063-2.333.041-4.667.042-7 0 .647-4.751 2.55-8.615 4.625-12.875l2.175-4.543 1.112-2.31a929.498 929.498 0 0 0 4.9-10.46 428.631 428.631 0 0 1 6.188-12.812Zm0 16-4 10h10l-4-10h-2ZM232.283 271.505h28c-2.384 4.767-4.67 9.271-7.375 13.812-4.095 6.948-8.018 13.973-11.625 21.188h19v6h-31c1.001-4.006 2.582-7.182 4.562-10.75l.998-1.824c.809-1.478 1.624-2.952 2.44-4.426h2l.687-2.438c1.651-4.48 3.942-8.432 6.313-12.562l1-2-15-1v-6ZM626.283 272.505v8l-1.942-.692c-6.567-2.182-11.279-3.026-17.808-.058-3.676 2.858-4.932 5.624-6.188 10.062-.1 5.934 2.29 9.749 6.063 14.188 4.166 2.174 8.264 2.332 12.875 1.5a124.02 124.02 0 0 0 4-3h3v8c-5.484 3.556-10.669 3.932-17 3-6.296-2.27-11.206-5.01-14.688-10.813-2.5-6.283-2.723-14.408-.363-20.73 2.909-4.892 6.517-8.251 11.676-10.707 6.872-1.528 13.837-1.577 20.375 1.25ZM493.283 272.505v8l-1.942-.692c-5.385-1.79-9.435-2.93-15.058-1.308-3.309 1.748-5.416 3.043-7.375 6.25-1.161 5.108-1.218 9.128.562 14 2.103 3.19 3.448 4.888 6.813 6.75 4.754.697 8.671.664 13-1.5l2-1.5h2v8c-5.691 2.968-10.596 4.018-17 3-5.799-2.022-10.819-4.565-14-10-2.874-6.035-3.051-13.125-1.313-19.535 2.531-6.318 5.836-9.767 12-12.778 6.874-1.427 13.788-1.509 20.313 1.313ZM362.283 271.505h23v6h-16v9h15v6h-15v14h16v6h-23v-41ZM691.283 271.505h23v6h-17v9h17v6h-17v14h17v6h-23v-41Z"/><path fill="#EEF5FB" d="M159.283 112.505h12c2.282 5.461 4.397 10.939 6.25 16.562l1.015 3.067c.735 3.371.735 3.371.735 12.371h-20v-32Z"/><path fill="#0079C1" d="M427.283 271.505h22v6h-16v9h16v6h-16v14h16v6h-22v-41ZM654.283 271.505h26v6h-9v35h-7v-35h-10v-6ZM502.283 271.505h25v6h-10v35h-6v-35h-9v-6ZM398.283 271.505h7v35h12v6h-19v-41ZM637.283 271.505h7v41h-7v-41ZM574.283 271.505h7v41h-7v-41ZM706.345 258.755c1.938.75 1.938.75 3.938 1.75-1.434 5.018-3.79 7.137-8 10-2.313 0-2.313 0-4-1l-1-3h2l.812-2.313c2.598-5.88 2.598-5.88 6.25-5.437ZM375.283 258.505l6 2c0 3 0 3-1.61 4.859l-2.14 1.891-2.11 1.922c-2.14 1.328-2.14 1.328-4.406 1.031l-1.734-.703c.444-5.04 2.713-7.377 6-11Z"/><path fill="#1F95CD" d="m23.283 30.505 1 2h-2l-.75 1.734c-1.444 2.616-3.133 4.414-5.25 6.516l-2.125 2.14c-1.875 1.61-1.875 1.61-3.875 1.61l-2 5-1-2c1.543-3.627 3.097-6.35 6-9l2-3a99.217 99.217 0 0 1 5-3l3-2Z"/><path fill="#319FD2" d="M8.283 123.505c2.906 3.529 5.682 7.052 8 11l-1 3a458.285 458.285 0 0 1-3.5-4.75l-1.97-2.672c-1.53-2.578-1.53-2.578-1.53-6.578Z"/><path fill="#2B9DD1" d="M53.283 29.505c1.438.087 2.875.195 4.312.312l2.426.176c2.624.594 3.57 1.47 5.262 3.512-4.195-.6-8.01-1.575-12-3v-1Z"/></svg>