<svg width="716" height="314" viewBox="0 0 716 314" fill="none" xmlns="http://www.w3.org/2000/svg">
<path d="M74.099 37.618C79.0288 41.5238 83.6381 45.3523 87.2826 50.5047C87.2826 51.1647 87.2826 51.8247 87.2826 52.5047C87.9426 52.5047 88.6026 52.5047 89.2826 52.5047C89.5185 53.3362 89.7544 54.1676 89.9974 55.0243C91.3856 58.763 92.7038 61.4438 95.2826 64.5047C100.136 66.2325 104.898 66.6536 109.997 67.1888C124.265 69.161 136.842 76.1444 148.283 84.5047C149.636 85.4426 150.991 86.3802 152.345 87.3172C155.283 89.5047 155.283 89.5047 156.283 91.5047C157.128 91.5245 157.974 91.5444 158.846 91.5648C162.044 91.6438 165.243 91.7305 168.441 91.8221C169.814 91.8599 171.187 91.8948 172.56 91.9266C184.234 92.1997 195.454 92.4665 205.97 97.9422C206.575 98.2419 207.18 98.5416 207.804 98.8504C212.147 101.097 212.147 101.097 213.283 104.505C214.273 104.835 215.263 105.165 216.283 105.505C221.108 112.261 221.623 118.851 221.595 126.88C221.611 127.787 221.627 128.695 221.644 129.63C221.649 137.141 220.501 143.702 215.22 149.442C214.713 150.008 214.207 150.574 213.685 151.157C212.283 152.505 212.283 152.505 210.283 153.505C210.741 153.845 211.2 154.185 211.673 154.536C217.367 159.034 220.011 163.69 222.283 170.505C223.423 182.792 223.761 195.634 215.556 205.602C203.427 217.357 186.807 217.585 170.947 218.164C170.126 218.195 169.304 218.226 168.458 218.259C167.725 218.283 166.992 218.306 166.237 218.331C164.068 218.448 164.068 218.448 161.283 219.505C161.283 220.165 161.283 220.825 161.283 221.505C159.645 222.551 157.972 223.545 156.283 224.505C155.231 225.34 155.231 225.34 154.158 226.192C152.283 227.505 152.283 227.505 149.283 227.505C149.283 228.165 149.283 228.825 149.283 229.505C139.85 234.885 130.493 239.828 120.095 243.067C119.331 243.306 118.567 243.545 117.779 243.79C109.317 246.282 101.114 246.686 92.3451 246.692C91.4073 246.704 90.4695 246.717 89.5033 246.729C75.7907 246.758 64.453 242.904 54.4076 233.255C42.3264 220.359 36.7242 204.898 35.2826 187.505C35.173 186.379 35.0634 185.254 34.9505 184.095C33.7595 170.771 33.3634 156.628 36.2826 143.505C35.6419 143.54 35.0012 143.574 34.3411 143.61C27.1007 143.837 22.8801 142.786 16.7201 138.88C3.07305 125.583 0.432202 104.537 0.052082 86.3844C-0.0857129 69.1548 1.45824 51.9285 13.2826 38.5047C13.9426 37.5147 14.6026 36.5247 15.2826 35.5047C16.9132 34.447 18.5854 33.452 20.2826 32.5047C21.0457 31.9891 21.8088 31.4735 22.5951 30.9422C38.4171 22.4793 60.3924 27.3333 74.099 37.618ZM171.283 112.505C171.536 113.327 171.79 114.15 172.052 114.997C172.77 117.324 173.484 119.652 174.197 121.981C174.845 124.084 175.503 126.185 176.181 128.278C177.915 133.719 178.823 138.808 179.283 144.505C187.333 143.369 187.333 143.369 194.283 139.505C197.855 134.454 197.943 129.465 197.283 123.505C196.632 120.037 196.632 120.037 194.283 117.505C188.269 114.258 181.824 112.326 174.97 112.442C173.753 112.463 172.536 112.483 171.283 112.505ZM181.283 163.505C181.197 164.327 181.111 165.149 181.023 165.996C180.702 169.062 180.38 172.127 180.056 175.193C179.848 177.166 179.642 179.139 179.437 181.112C179.305 182.359 179.173 183.606 179.036 184.891C178.856 186.612 178.856 186.612 178.671 188.367C178.33 191.121 177.871 193.794 177.283 196.505C184.398 196.344 189.841 195.32 195.283 190.505C198.683 185.829 199.134 181.106 198.283 175.505C196.958 171.402 195.311 168.39 192.033 165.567C189.566 164.614 187.705 164.232 185.111 163.938C183.847 163.795 182.584 163.652 181.283 163.505Z" fill="#C9E1F4"/>
<path d="M171.345 92.3172C172.617 92.305 173.888 92.2927 175.199 92.2801C186.102 92.2633 196.182 92.8456 205.97 97.9422C206.575 98.2419 207.18 98.5416 207.804 98.8504C212.147 101.097 212.147 101.097 213.283 104.505C214.273 104.835 215.263 105.165 216.283 105.505C221.108 112.261 221.623 118.851 221.595 126.88C221.611 127.787 221.627 128.695 221.644 129.63C221.649 137.141 220.501 143.702 215.22 149.442C214.713 150.008 214.207 150.574 213.685 151.157C212.283 152.505 212.283 152.505 210.283 153.505C210.741 153.845 211.2 154.185 211.673 154.536C217.367 159.034 220.011 163.69 222.283 170.505C223.423 182.792 223.761 195.634 215.556 205.602C203.586 217.203 187.259 217.819 171.551 217.742C164.942 217.631 158.368 217.257 151.783 216.692C150.905 216.622 150.027 216.552 149.122 216.48C144.495 216.026 141.036 215.485 137.283 212.505C135.172 209.339 135.03 208.575 135.015 204.957C135.007 204.025 134.998 203.092 134.989 202.132C134.99 201.111 134.991 200.09 134.992 199.038C134.985 197.962 134.979 196.885 134.972 195.776C134.953 192.207 134.949 188.639 134.947 185.071C134.94 182.596 134.933 180.122 134.926 177.647C134.914 172.456 134.911 167.265 134.912 162.074C134.912 155.414 134.885 148.755 134.85 142.096C134.828 136.984 134.824 131.872 134.825 126.76C134.823 124.304 134.814 121.848 134.799 119.393C134.779 115.962 134.785 112.532 134.797 109.101C134.785 108.082 134.774 107.063 134.763 106.013C134.824 99.1318 134.824 99.1318 137.195 95.8872C145.936 90.0987 161.32 92.3223 171.345 92.3172ZM171.283 112.505C171.536 113.327 171.79 114.15 172.052 114.997C172.77 117.324 173.484 119.652 174.197 121.981C174.845 124.084 175.503 126.185 176.181 128.278C177.915 133.719 178.823 138.808 179.283 144.505C187.333 143.369 187.333 143.369 194.283 139.505C197.855 134.454 197.943 129.465 197.283 123.505C196.632 120.037 196.632 120.037 194.283 117.505C188.269 114.258 181.824 112.326 174.97 112.442C173.753 112.463 172.536 112.483 171.283 112.505ZM181.283 163.505C181.197 164.327 181.111 165.149 181.023 165.996C180.702 169.062 180.38 172.127 180.056 175.193C179.848 177.166 179.642 179.139 179.437 181.112C179.305 182.359 179.173 183.606 179.036 184.891C178.856 186.612 178.856 186.612 178.671 188.367C178.33 191.121 177.871 193.794 177.283 196.505C184.398 196.344 189.841 195.32 195.283 190.505C198.683 185.829 199.134 181.106 198.283 175.505C196.958 171.402 195.311 168.39 192.033 165.567C189.566 164.614 187.705 164.232 185.111 163.938C183.847 163.795 182.584 163.652 181.283 163.505Z" fill="#D10202"/>
<path d="M74.099 37.618C79.0288 41.5238 83.6381 45.3523 87.2826 50.5047C87.2826 51.1647 87.2826 51.8247 87.2826 52.5047C87.9426 52.5047 88.6026 52.5047 89.2826 52.5047C96.255 65.252 98.5618 78.6163 95.3451 93.0047C91.5615 104.799 84.0263 116.779 75.2826 125.505C74.6226 125.505 73.9626 125.505 73.2826 125.505C72.7876 126.99 72.7876 126.99 72.2826 128.505C70.1837 130.083 68.1285 131.495 65.9076 132.88C64.9661 133.475 64.9661 133.475 64.0057 134.083C54.5464 139.953 46.1651 143.677 34.9701 143.755C34.2359 143.775 33.5018 143.796 32.7455 143.817C25.4118 143.869 19.6329 141.718 14.2826 136.505C-0.4261 119.787 -0.711982 93.4056 0.390963 72.4447C1.2565 59.8185 4.85183 48.0758 13.2826 38.5047C13.9426 37.5147 14.6026 36.5247 15.2826 35.5047C16.9132 34.447 18.5854 33.452 20.2826 32.5047C21.0457 31.9891 21.8088 31.4735 22.5951 30.9422C38.4171 22.4793 60.3924 27.3333 74.099 37.618Z" fill="#0177BE"/>
<path d="M515.408 122.067C517.047 122.086 517.047 122.086 518.72 122.105C530.271 122.354 540.656 123.856 551.283 128.505C551.375 141.144 551.446 153.783 551.49 166.423C551.511 172.293 551.539 178.162 551.584 184.031C551.628 189.698 551.652 195.365 551.662 201.032C551.669 203.191 551.684 205.35 551.706 207.51C551.735 210.54 551.739 213.57 551.737 216.6C551.751 217.488 551.765 218.376 551.78 219.29C551.727 227.459 548.797 233.489 543.283 239.505C534.643 247.258 524.736 246.7 513.72 246.692C512.563 246.691 511.406 246.691 510.213 246.69C489.733 246.543 489.733 246.543 481.283 242.505C479.858 239.656 480.113 237.177 480.095 234.005C480.081 232.839 480.067 231.674 480.052 230.473C480.283 227.505 480.283 227.505 482.283 225.505C487.247 224.932 492.331 225.477 497.283 226.005C502.414 226.519 507.505 226.617 512.658 226.63C513.431 226.634 514.204 226.639 515.001 226.643C516.111 226.641 516.111 226.641 517.244 226.638C518.23 226.636 518.23 226.636 519.237 226.634C521.796 226.518 521.796 226.518 526.283 225.505C526.943 222.205 527.603 218.905 528.283 215.505C527.293 215.835 526.303 216.165 525.283 216.505C514.257 217.398 502.172 218.052 492.283 212.505C491.625 212.154 490.968 211.803 490.29 211.442C482.541 206.653 478.813 198.443 476.114 190.057C474.699 184.011 474.652 178.016 474.706 171.842C474.72 169.638 474.686 167.439 474.648 165.235C474.583 153.237 476.728 141.549 484.697 132.044C487.268 129.549 490.046 127.938 493.283 126.505C493.985 126.165 494.687 125.825 495.41 125.474C502.184 122.442 508.042 121.911 515.408 122.067ZM504.283 144.505C504.283 145.165 504.283 145.825 504.283 146.505C503.623 146.505 502.963 146.505 502.283 146.505C499.575 151.137 498.815 154.97 498.814 160.247C498.806 160.974 498.799 161.701 498.791 162.451C498.78 163.982 498.777 165.513 498.782 167.044C498.783 169.367 498.741 171.686 498.697 174.009C498.568 184.169 498.568 184.169 502.913 193.161C504.985 195.194 506.632 196.44 509.551 196.732C510.415 196.721 511.279 196.711 512.169 196.7C513.107 196.694 514.045 196.687 515.011 196.681C515.988 196.664 516.964 196.647 517.97 196.63C519.452 196.616 519.452 196.616 520.964 196.602C523.404 196.579 525.843 196.546 528.283 196.505C528.308 188.975 528.325 181.445 528.338 173.916C528.343 171.352 528.349 168.788 528.358 166.224C528.37 162.548 528.376 158.872 528.38 155.196C528.385 154.042 528.391 152.888 528.396 151.699C528.396 150.638 528.396 149.577 528.396 148.483C528.398 147.544 528.401 146.605 528.403 145.637C528.521 143.521 528.521 143.521 527.283 142.505C518.948 140.942 511.957 140.586 504.283 144.505Z" fill="#D10000"/>
<path d="M452.283 127.505C459.059 133.296 462.826 139.726 464.283 148.505C464.391 150.573 464.451 152.645 464.475 154.716C464.491 155.947 464.508 157.179 464.524 158.447C464.536 159.781 464.546 161.116 464.556 162.45C464.561 163.126 464.567 163.801 464.572 164.498C464.599 168.067 464.618 171.637 464.633 175.206C464.646 178.159 464.674 181.111 464.715 184.064C464.764 187.636 464.789 191.207 464.796 194.78C464.803 196.139 464.818 197.499 464.842 198.858C464.873 200.756 464.87 202.654 464.866 204.552C464.874 205.632 464.882 206.711 464.891 207.824C464.283 210.505 464.283 210.505 461.906 212.318C452.847 216.415 443.567 216.989 433.737 216.896C431.718 216.88 429.702 216.896 427.683 216.915C417.134 216.884 407.033 215.805 398.283 209.505C392.418 202.83 392.002 197.023 391.845 188.38C391.776 186.868 391.776 186.868 391.706 185.325C391.595 177.814 393.277 173.142 398.283 167.505C408.946 157.719 426.813 159.084 440.283 159.505C440.081 157.398 439.845 155.294 439.595 153.192C439.467 152.02 439.34 150.849 439.208 149.641C438.561 146.408 438.561 146.408 436.138 144.649C429.446 141.967 423.314 142.6 416.345 143.442C414.628 143.643 412.911 143.839 411.193 144.032C410.441 144.122 409.69 144.212 408.916 144.305C405.381 144.573 401.828 144.505 398.283 144.505C398.283 138.565 398.283 132.625 398.283 126.505C414.74 121.803 436.952 117.463 452.283 127.505ZM417.283 178.505C414.76 182.343 414.706 187.027 415.283 191.505C415.886 194.196 415.886 194.196 417.283 196.505C424.41 199.647 432.801 198.385 440.283 197.505C440.283 190.245 440.283 182.985 440.283 175.505C437.787 175.443 435.291 175.381 432.72 175.317C431.948 175.29 431.177 175.263 430.382 175.234C425.285 175.174 421.799 176.108 417.283 178.505Z" fill="#D10000"/>
<path d="M598.033 122.13C598.99 122.116 599.948 122.102 600.934 122.088C610.122 122.147 618.731 124.131 626.283 129.505C635.02 138.565 634.567 148.849 634.478 160.723C634.474 162.192 634.471 163.66 634.469 165.128C634.462 168.969 634.442 172.809 634.42 176.649C634.399 180.578 634.39 184.506 634.38 188.434C634.359 196.125 634.325 203.815 634.283 211.505C624.406 215.839 615.711 216.855 604.908 216.82C602.852 216.817 600.798 216.841 598.742 216.866C588.111 216.917 577.611 215.76 569.283 208.505C562.254 199.413 562.45 190.648 563.283 179.505C564.358 173.773 566.389 169.855 570.845 166.067C580.138 159.93 591.909 159.329 602.72 159.442C603.547 159.447 604.374 159.451 605.226 159.456C607.245 159.468 609.264 159.486 611.283 159.505C611.186 152.045 611.186 152.045 608.22 145.38C601.961 141.385 594.819 142.533 587.783 143.442C581.915 144.172 576.201 144.826 570.283 144.505C567.423 141.645 567.949 139.549 567.908 135.567C567.879 134.321 567.851 133.074 567.822 131.79C568.283 128.505 568.283 128.505 569.943 126.669C578.632 122.346 588.524 122.205 598.033 122.13ZM587.642 179.774C585.245 182.826 585.754 186.099 585.892 189.833C586.149 192.703 586.149 192.703 588.033 195.63C595.28 199.811 603.266 198.507 611.283 197.505C611.283 190.245 611.283 182.985 611.283 175.505C598.718 174.73 598.718 174.73 587.642 179.774Z" fill="#D10000"/>
<path d="M240.939 123.372C242.348 123.37 242.348 123.37 243.786 123.368C244.775 123.372 245.764 123.376 246.783 123.38C248.266 123.374 248.266 123.374 249.779 123.368C250.718 123.369 251.658 123.371 252.626 123.372C253.495 123.373 254.363 123.374 255.257 123.375C257.283 123.505 257.283 123.505 258.283 124.505C258.395 126.267 258.439 128.034 258.456 129.8C258.47 130.932 258.483 132.064 258.497 133.23C258.507 134.465 258.518 135.701 258.529 136.973C258.562 139.572 258.595 142.171 258.628 144.77C258.677 148.88 258.72 152.99 258.759 157.1C258.798 161.058 258.851 165.016 258.904 168.973C258.912 170.193 258.92 171.412 258.929 172.668C259.024 179.23 259.379 185.201 261.283 191.505C266.426 196.191 271.437 195.896 278.197 195.743C280.978 195.528 283.558 195.078 286.283 194.505C286.293 193.645 286.303 192.785 286.314 191.899C286.412 183.805 286.514 175.712 286.622 167.619C286.677 163.458 286.731 159.297 286.78 155.136C286.828 151.122 286.88 147.109 286.936 143.095C286.956 141.562 286.975 140.028 286.992 138.495C287.016 136.352 287.046 134.209 287.077 132.066C287.093 130.844 287.108 129.623 287.124 128.365C287.283 125.505 287.283 125.505 288.283 123.505C291.741 123.418 295.199 123.364 298.658 123.317C299.642 123.292 300.627 123.267 301.642 123.241C303.053 123.227 303.053 123.227 304.493 123.212C305.797 123.188 305.797 123.188 307.128 123.164C307.839 123.277 308.55 123.389 309.283 123.505C311.762 127.224 311.585 130.11 311.589 134.417C311.597 135.222 311.606 136.027 311.614 136.857C311.638 139.521 311.647 142.184 311.654 144.848C311.663 146.698 311.672 148.547 311.681 150.397C311.698 154.274 311.705 158.151 311.708 162.028C311.713 167.002 311.751 171.975 311.797 176.948C311.827 180.767 311.834 184.586 311.835 188.406C311.839 190.24 311.852 192.074 311.872 193.908C311.899 196.47 311.894 199.03 311.882 201.593C311.897 202.353 311.912 203.114 311.927 203.898C311.897 206.013 311.897 206.013 311.283 209.505C301.757 217.206 284.674 216.885 273.095 216.942C272.057 216.952 271.019 216.962 269.95 216.972C258.816 216.847 249.568 213.67 241.533 205.817C234.898 196.928 234.722 187.346 234.857 176.688C234.862 175.18 234.865 173.673 234.867 172.165C234.874 169.027 234.895 165.89 234.926 162.753C234.966 158.724 234.984 154.696 234.993 150.667C235.003 146.82 235.023 142.973 235.044 139.126C235.049 138.023 235.049 138.023 235.055 136.898C235.066 134.833 235.085 132.767 235.106 130.702C235.12 128.938 235.12 128.938 235.135 127.139C235.382 122.734 236.97 123.377 240.939 123.372Z" fill="#D10000"/>
<path d="M656.97 123.246C658.161 123.24 659.353 123.233 660.58 123.227C662.519 123.233 662.519 123.233 664.497 123.239C665.833 123.238 667.168 123.236 668.503 123.233C671.303 123.23 674.103 123.235 676.903 123.244C680.493 123.255 684.082 123.249 687.671 123.237C690.429 123.23 693.187 123.232 695.945 123.237C697.912 123.239 699.879 123.233 701.846 123.227C703.041 123.233 704.235 123.239 705.466 123.246C707.046 123.248 707.046 123.248 708.657 123.251C711.283 123.505 711.283 123.505 714.283 125.505C715.435 128.962 715.451 131.737 715.47 135.38C715.484 136.594 715.498 137.808 715.513 139.059C715.121 144.916 712.888 148.305 709.345 152.88C708.146 154.446 708.146 154.446 706.923 156.044C706.282 156.88 706.282 156.88 705.628 157.732C703.242 160.875 700.921 164.067 698.595 167.255C695.792 171.092 692.982 174.918 690.095 178.692C687.629 181.954 685.368 185.336 683.107 188.743C682.39 189.822 681.673 190.902 680.934 192.014C680.389 192.836 679.844 193.658 679.283 194.505C680.338 194.499 681.393 194.494 682.48 194.489C686.38 194.471 690.281 194.459 694.181 194.45C695.872 194.445 697.563 194.438 699.253 194.429C701.679 194.417 704.104 194.411 706.529 194.407C707.669 194.399 707.669 194.399 708.833 194.391C710.65 194.391 712.467 194.443 714.283 194.505C716.222 196.444 715.415 199.317 715.419 201.893C715.415 202.735 715.412 203.576 715.408 204.442C715.411 205.279 715.415 206.117 715.419 206.979C715.418 207.78 715.417 208.582 715.415 209.407C715.414 210.144 715.413 210.882 715.412 211.641C715.283 213.505 715.283 213.505 714.283 215.505C706.268 215.597 698.253 215.668 690.238 215.712C686.517 215.733 682.795 215.761 679.074 215.806C675.481 215.85 671.89 215.874 668.297 215.884C666.927 215.892 665.557 215.906 664.188 215.928C662.268 215.957 660.348 215.958 658.428 215.959C657.335 215.968 656.243 215.977 655.117 215.986C651.592 215.388 650.434 214.31 648.283 211.505C646.916 205.34 647.264 199.619 650.009 193.919C651.961 190.931 653.877 188.142 656.283 185.505C656.943 185.505 657.603 185.505 658.283 185.505C658.538 184.785 658.793 184.066 659.056 183.325C660.366 180.313 661.94 178.006 663.908 175.38C664.623 174.415 665.338 173.451 666.076 172.458C667.168 170.996 667.168 170.996 668.283 169.505C669.599 167.716 670.911 165.924 672.22 164.13C672.871 163.239 673.522 162.348 674.193 161.43C675.731 159.277 677.235 157.115 678.716 154.923C679.123 154.323 679.53 153.724 679.949 153.106C680.743 151.93 681.532 150.751 682.314 149.568C683.253 148.178 684.262 146.836 685.283 145.505C685.943 145.505 686.603 145.505 687.283 145.505C687.283 144.845 687.283 144.185 687.283 143.505C686.167 143.48 685.051 143.455 683.902 143.429C679.778 143.335 675.653 143.235 671.529 143.132C669.742 143.089 667.954 143.047 666.166 143.007C663.602 142.95 661.038 142.886 658.474 142.821C657.67 142.804 656.866 142.788 656.037 142.77C650.396 142.619 650.396 142.619 649.283 141.505C649.156 138.846 649.097 136.226 649.095 133.567C649.077 132.454 649.077 132.454 649.058 131.319C649.053 129.38 649.161 127.44 649.283 125.505C651.952 122.835 653.241 123.252 656.97 123.246Z" fill="#D10000"/>
<path d="M357.283 104.505C357.283 110.445 357.283 116.385 357.283 122.505C358.92 122.493 360.557 122.482 362.243 122.47C364.382 122.46 366.52 122.451 368.658 122.442C369.738 122.434 370.818 122.425 371.931 122.417C373.478 122.412 373.478 122.412 375.056 122.407C376.009 122.402 376.962 122.397 377.944 122.391C380.283 122.505 380.283 122.505 382.283 123.505C382.309 126.484 382.329 129.463 382.345 132.442C382.353 133.292 382.362 134.143 382.37 135.018C382.374 135.827 382.377 136.636 382.38 137.47C382.385 138.218 382.391 138.967 382.396 139.739C382.283 141.505 382.283 141.505 381.283 142.505C373.363 142.505 365.443 142.505 357.283 142.505C357.613 160.325 357.943 178.145 358.283 196.505C365.873 196.835 373.463 197.165 381.283 197.505C382.283 198.505 382.283 198.505 382.38 202.102C382.374 203.591 382.362 205.079 382.345 206.567C382.341 207.326 382.336 208.084 382.331 208.866C382.32 210.746 382.302 212.625 382.283 214.505C376.399 217.216 370.78 216.835 364.408 216.817C362.669 216.841 362.669 216.841 360.896 216.866C352.764 216.871 346.83 216.178 340.533 210.63C339.981 210.158 339.429 209.686 338.861 209.2C335.109 205.169 333.907 201.911 333.942 196.429C333.942 195.228 333.942 194.028 333.943 192.79C333.958 191.504 333.974 190.217 333.99 188.891C333.995 187.553 333.999 186.215 334.002 184.877C334.014 181.367 334.043 177.858 334.077 174.348C334.107 170.761 334.121 167.175 334.136 163.589C334.168 156.561 334.219 149.533 334.283 142.505C333.126 142.54 333.126 142.54 331.947 142.575C330.944 142.593 329.941 142.611 328.908 142.63C327.91 142.653 326.912 142.676 325.884 142.7C323.283 142.505 323.283 142.505 321.283 140.505C321.084 137.796 321.004 135.212 321.033 132.505C321.025 131.767 321.017 131.03 321.009 130.27C321.029 124.758 321.029 124.758 323.283 122.505C325.884 122.309 325.884 122.309 328.908 122.38C330.412 122.407 330.412 122.407 331.947 122.434C332.717 122.458 333.488 122.481 334.283 122.505C334.259 121.445 334.236 120.386 334.212 119.294C334.193 117.906 334.175 116.518 334.158 115.13C334.141 114.431 334.124 113.732 334.107 113.013C334.089 111.176 334.18 109.339 334.283 107.505C336.94 104.848 338.84 104.911 342.533 104.38C343.651 104.212 344.77 104.045 345.923 103.872C354.206 102.967 354.206 102.967 357.283 104.505Z" fill="#D10000"/>
<path d="M92.2826 64.5047C92.9426 64.5047 93.6026 64.5047 94.2826 64.5047C98.3711 77.0799 97.3205 90.5739 91.3958 102.348C86.9893 110.703 82.008 118.794 75.2826 125.505C74.6226 125.505 73.9626 125.505 73.2826 125.505C72.9526 126.495 72.6226 127.485 72.2826 128.505C70.1836 130.083 68.1292 131.496 65.9076 132.88C65.2756 133.276 64.6436 133.672 63.9925 134.081C55.1907 139.506 47.8819 143.539 37.2826 142.505C37.837 130.823 39.5606 119.871 44.2005 109.079C44.9691 107.251 45.6739 105.395 46.3333 103.524C51.1799 89.8506 58.1583 75.5581 71.4701 68.6297C76.5214 66.2274 80.3689 65.3851 85.9701 65.5047C87.7405 65.5422 89.5123 65.5515 91.2826 65.5047C91.6126 65.1747 91.9426 64.8447 92.2826 64.5047Z" fill="#01539A"/>
<path d="M144.283 4.50472C145.169 4.91722 146.056 5.32972 146.97 5.75472C152.304 9.79146 155.558 15.087 157.283 21.5047C158.243 31.6758 156.869 38.6667 150.716 46.8094C144.952 53.6264 138.141 57.7052 129.22 58.9227C123.81 59.1729 118.904 59.1185 114.685 55.4149C107.86 46.118 107.953 32.4872 109.58 21.4954C111.078 13.4853 113.491 7.26482 120.283 2.50472C127.954 -2.26417 136.963 0.553586 144.283 4.50472Z" fill="#C7E0F4"/>
<path d="M315.22 271.88C317.283 273.505 317.283 273.505 318.283 275.505C318.791 280.675 318.791 280.675 318.283 283.505C315.783 286.505 315.783 286.505 313.283 288.505C314.45 292.319 314.45 292.319 317.408 294.817C318.026 295.044 318.645 295.271 319.283 295.505C319.736 295.01 320.19 294.515 320.658 294.005C322.283 292.505 322.283 292.505 324.283 292.505C325.908 294.005 325.908 294.005 327.283 295.505C326.973 296.268 326.664 297.031 326.345 297.817C325.604 299.693 324.92 301.592 324.283 303.505C325.924 305.525 327.592 307.525 329.283 309.505C329.283 310.495 329.283 311.485 329.283 312.505C321.775 312.874 321.775 312.874 319.283 311.005C318.953 310.51 318.623 310.015 318.283 309.505C317.705 309.793 317.128 310.082 316.533 310.38C315.79 310.751 315.048 311.122 314.283 311.505C313.665 311.849 313.048 312.193 312.411 312.548C308.745 314.196 305.212 314.172 301.283 313.505C297.953 311.843 294.988 309.917 293.283 306.505C292.249 297.468 292.249 297.468 294.329 293.516C295.658 291.942 295.658 291.942 298.283 289.505C298.943 288.845 299.603 288.185 300.283 287.505C299.953 287.01 299.623 286.515 299.283 286.005C297.871 282.476 297.774 279.259 298.283 275.505C301.704 269.151 309.226 269.074 315.22 271.88ZM306.283 276.505C305.28 280.088 305.28 280.088 306.283 283.505C307.603 283.175 308.923 282.845 310.283 282.505C310.613 280.855 310.943 279.205 311.283 277.505C309.633 277.175 307.983 276.845 306.283 276.505ZM302.095 296.067C299.89 298.493 299.89 298.493 300.47 302.192C300.937 305.332 300.937 305.332 302.283 306.505C307.078 307.011 307.078 307.011 311.22 305.005C311.571 304.51 311.921 304.015 312.283 303.505C310.976 299.586 309.451 297.178 306.283 294.505C304.106 294.311 304.106 294.311 302.095 296.067Z" fill="#0079C1"/>
<path d="M170.283 273.505C172.783 275.692 172.783 275.692 174.283 277.505C172.842 282.188 172.842 282.188 170.408 283.567C167.275 283.475 166.384 281.733 164.283 279.505C160.046 277.1 156.961 277.356 152.283 278.505C148.974 280.253 146.867 281.548 144.908 284.755C143.687 290.126 143.392 295.643 146.283 300.505C149.66 304.211 151.786 305.831 156.845 306.067C161.086 305.817 163.358 304.695 166.283 301.505C166.943 300.185 167.603 298.865 168.283 297.505C165.313 297.505 162.343 297.505 159.283 297.505C159.283 295.195 159.283 292.885 159.283 290.505C164.893 290.505 170.503 290.505 176.283 290.505C176.283 301.719 176.283 301.719 173.283 306.505C167.422 312.134 162.263 313.934 154.204 313.848C148.082 313.128 143.296 309.966 139.283 305.38C136.154 300.882 136.042 296.998 135.97 291.692C135.927 290.643 135.927 290.643 135.882 289.573C135.803 283.063 138.452 279.681 142.595 274.755C150.107 268.466 161.934 268.908 170.283 273.505Z" fill="#0079C1"/>
<path d="M158.283 161.505C165.873 161.505 173.463 161.505 181.283 161.505C181.803 186.465 181.803 186.465 176.283 197.505C170.343 197.505 164.403 197.505 158.283 197.505C158.283 185.625 158.283 173.745 158.283 161.505Z" fill="#E1E4EF"/>
<path d="M537.283 271.505C555.04 271.505 555.04 271.505 559.595 275.567C561.878 279.541 561.974 283.011 561.283 287.505C560.259 289.782 560.259 289.782 559.283 291.505C558.623 291.505 557.963 291.505 557.283 291.505C556.953 292.495 556.623 293.485 556.283 294.505C555.293 294.505 554.303 294.505 553.283 294.505C553.616 294.979 553.949 295.453 554.292 295.942C555.794 298.084 557.288 300.232 558.783 302.38C559.307 303.126 559.832 303.872 560.372 304.641C560.869 305.357 561.365 306.072 561.876 306.809C562.337 307.469 562.798 308.129 563.273 308.809C564.283 310.505 564.283 310.505 564.283 312.505C561.233 312.792 558.325 312.919 555.283 312.505C553.595 310.567 553.595 310.567 552.283 307.505C551.243 305.886 550.178 304.282 549.095 302.692C547.703 300.619 547.703 300.619 546.283 298.505C545.953 303.125 545.623 307.745 545.283 312.505C542.643 312.505 540.003 312.505 537.283 312.505C537.283 298.975 537.283 285.445 537.283 271.505ZM545.283 277.505C545.283 281.465 545.283 285.425 545.283 289.505C550.298 289.175 550.298 289.175 554.283 286.505C554.866 283.547 554.866 283.547 554.283 280.505C551.038 277.801 549.574 277.505 545.283 277.505Z" fill="#0079C1"/>
<path d="M202.283 269.505C205.283 270.505 205.283 270.505 206.462 272.463C206.833 273.31 207.205 274.156 207.587 275.028C208.006 275.968 208.425 276.908 208.857 277.876C209.286 278.867 209.715 279.858 210.158 280.88C210.79 282.309 210.79 282.309 211.435 283.766C212.289 285.698 213.14 287.63 213.988 289.564C217.859 298.371 217.859 298.371 222.095 307.005C223.283 309.505 223.283 309.505 223.283 312.505C220.033 312.88 220.033 312.88 216.283 312.505C213.119 308.936 212.283 307.315 212.283 302.505C203.868 303 203.868 303 195.283 303.505C194.643 304.804 194.004 306.103 193.345 307.442C191.408 311.38 191.408 311.38 190.283 312.505C187.95 312.546 185.616 312.547 183.283 312.505C183.93 307.754 185.833 303.89 187.908 299.63C188.633 298.116 189.358 296.601 190.083 295.087C190.45 294.324 190.817 293.562 191.195 292.777C192.857 289.304 194.476 285.811 196.095 282.317C198.094 278.012 200.142 273.742 202.283 269.505ZM202.283 285.505C200.963 288.805 199.643 292.105 198.283 295.505C201.583 295.505 204.883 295.505 208.283 295.505C206.963 292.205 205.643 288.905 204.283 285.505C203.623 285.505 202.963 285.505 202.283 285.505Z" fill="#0079C1"/>
<path d="M232.283 271.505C241.523 271.505 250.763 271.505 260.283 271.505C257.899 276.272 255.613 280.776 252.908 285.317C248.813 292.265 244.89 299.29 241.283 306.505C247.553 306.505 253.823 306.505 260.283 306.505C260.283 308.485 260.283 310.465 260.283 312.505C250.053 312.505 239.823 312.505 229.283 312.505C230.284 308.499 231.865 305.323 233.845 301.755C234.174 301.153 234.504 300.551 234.843 299.931C235.652 298.453 236.467 296.979 237.283 295.505C237.943 295.505 238.603 295.505 239.283 295.505C239.509 294.7 239.736 293.896 239.97 293.067C241.621 288.587 243.912 284.635 246.283 280.505C246.613 279.845 246.943 279.185 247.283 278.505C242.333 278.175 237.383 277.845 232.283 277.505C232.283 275.525 232.283 273.545 232.283 271.505Z" fill="#0079C1"/>
<path d="M626.283 272.505C626.283 275.145 626.283 277.785 626.283 280.505C625.642 280.277 625.001 280.048 624.341 279.813C617.774 277.631 613.062 276.787 606.533 279.755C602.857 282.613 601.601 285.379 600.345 289.817C600.245 295.751 602.635 299.566 606.408 304.005C610.574 306.179 614.672 306.337 619.283 305.505C620.635 304.531 621.971 303.533 623.283 302.505C624.273 302.505 625.263 302.505 626.283 302.505C626.283 305.145 626.283 307.785 626.283 310.505C620.799 314.061 615.614 314.437 609.283 313.505C602.987 311.235 598.077 308.495 594.595 302.692C592.095 296.409 591.872 288.284 594.232 281.962C597.141 277.07 600.749 273.711 605.908 271.255C612.78 269.727 619.745 269.678 626.283 272.505Z" fill="#0079C1"/>
<path d="M493.283 272.505C493.283 275.145 493.283 277.785 493.283 280.505C492.642 280.277 492.001 280.048 491.341 279.813C485.956 278.023 481.906 276.883 476.283 278.505C472.974 280.253 470.867 281.548 468.908 284.755C467.747 289.863 467.69 293.883 469.47 298.755C471.573 301.945 472.918 303.643 476.283 305.505C481.037 306.202 484.954 306.169 489.283 304.005C489.943 303.51 490.603 303.015 491.283 302.505C491.943 302.505 492.603 302.505 493.283 302.505C493.283 305.145 493.283 307.785 493.283 310.505C487.592 313.473 482.687 314.523 476.283 313.505C470.484 311.483 465.464 308.94 462.283 303.505C459.409 297.47 459.232 290.38 460.97 283.97C463.501 277.652 466.806 274.203 472.97 271.192C479.844 269.765 486.758 269.683 493.283 272.505Z" fill="#0079C1"/>
<path d="M362.283 271.505C369.873 271.505 377.463 271.505 385.283 271.505C385.283 273.485 385.283 275.465 385.283 277.505C380.003 277.505 374.723 277.505 369.283 277.505C369.283 280.475 369.283 283.445 369.283 286.505C374.233 286.505 379.183 286.505 384.283 286.505C384.283 288.485 384.283 290.465 384.283 292.505C379.333 292.505 374.383 292.505 369.283 292.505C369.283 297.125 369.283 301.745 369.283 306.505C374.563 306.505 379.843 306.505 385.283 306.505C385.283 308.485 385.283 310.465 385.283 312.505C377.693 312.505 370.103 312.505 362.283 312.505C362.283 298.975 362.283 285.445 362.283 271.505Z" fill="#0079C1"/>
<path d="M691.283 271.505C698.873 271.505 706.463 271.505 714.283 271.505C714.283 273.485 714.283 275.465 714.283 277.505C708.673 277.505 703.063 277.505 697.283 277.505C697.283 280.475 697.283 283.445 697.283 286.505C702.893 286.505 708.503 286.505 714.283 286.505C714.283 288.485 714.283 290.465 714.283 292.505C708.673 292.505 703.063 292.505 697.283 292.505C697.283 297.125 697.283 301.745 697.283 306.505C702.893 306.505 708.503 306.505 714.283 306.505C714.283 308.485 714.283 310.465 714.283 312.505C706.693 312.505 699.103 312.505 691.283 312.505C691.283 298.975 691.283 285.445 691.283 271.505Z" fill="#0079C1"/>
<path d="M159.283 112.505C163.243 112.505 167.203 112.505 171.283 112.505C173.565 117.966 175.68 123.444 177.533 129.067C177.868 130.079 178.203 131.091 178.548 132.134C179.283 135.505 179.283 135.505 179.283 144.505C172.683 144.505 166.083 144.505 159.283 144.505C159.283 133.945 159.283 123.385 159.283 112.505Z" fill="#EEF5FB"/>
<path d="M427.283 271.505C434.543 271.505 441.803 271.505 449.283 271.505C449.283 273.485 449.283 275.465 449.283 277.505C444.003 277.505 438.723 277.505 433.283 277.505C433.283 280.475 433.283 283.445 433.283 286.505C438.563 286.505 443.843 286.505 449.283 286.505C449.283 288.485 449.283 290.465 449.283 292.505C444.003 292.505 438.723 292.505 433.283 292.505C433.283 297.125 433.283 301.745 433.283 306.505C438.563 306.505 443.843 306.505 449.283 306.505C449.283 308.485 449.283 310.465 449.283 312.505C442.023 312.505 434.763 312.505 427.283 312.505C427.283 298.975 427.283 285.445 427.283 271.505Z" fill="#0079C1"/>
<path d="M654.283 271.505C662.863 271.505 671.443 271.505 680.283 271.505C680.283 273.485 680.283 275.465 680.283 277.505C677.313 277.505 674.343 277.505 671.283 277.505C671.283 289.055 671.283 300.605 671.283 312.505C668.973 312.505 666.663 312.505 664.283 312.505C664.283 300.955 664.283 289.405 664.283 277.505C660.983 277.505 657.683 277.505 654.283 277.505C654.283 275.525 654.283 273.545 654.283 271.505Z" fill="#0079C1"/>
<path d="M502.283 271.505C510.533 271.505 518.783 271.505 527.283 271.505C527.283 273.485 527.283 275.465 527.283 277.505C523.983 277.505 520.683 277.505 517.283 277.505C517.283 289.055 517.283 300.605 517.283 312.505C515.303 312.505 513.323 312.505 511.283 312.505C511.283 300.955 511.283 289.405 511.283 277.505C508.313 277.505 505.343 277.505 502.283 277.505C502.283 275.525 502.283 273.545 502.283 271.505Z" fill="#0079C1"/>
<path d="M398.283 271.505C400.593 271.505 402.903 271.505 405.283 271.505C405.283 283.055 405.283 294.605 405.283 306.505C409.243 306.505 413.203 306.505 417.283 306.505C417.283 308.485 417.283 310.465 417.283 312.505C411.013 312.505 404.743 312.505 398.283 312.505C398.283 298.975 398.283 285.445 398.283 271.505Z" fill="#0079C1"/>
<path d="M637.283 271.505C639.593 271.505 641.903 271.505 644.283 271.505C644.283 285.035 644.283 298.565 644.283 312.505C641.973 312.505 639.663 312.505 637.283 312.505C637.283 298.975 637.283 285.445 637.283 271.505Z" fill="#0079C1"/>
<path d="M574.283 271.505C576.593 271.505 578.903 271.505 581.283 271.505C581.283 285.035 581.283 298.565 581.283 312.505C578.973 312.505 576.663 312.505 574.283 312.505C574.283 298.975 574.283 285.445 574.283 271.505Z" fill="#0079C1"/>
<path d="M706.345 258.755C708.283 259.505 708.283 259.505 710.283 260.505C708.849 265.523 706.493 267.642 702.283 270.505C699.97 270.505 699.97 270.505 698.283 269.505C697.953 268.515 697.623 267.525 697.283 266.505C697.943 266.505 698.603 266.505 699.283 266.505C699.551 265.742 699.819 264.978 700.095 264.192C702.693 258.312 702.693 258.312 706.345 258.755Z" fill="#0079C1"/>
<path d="M375.283 258.505C377.263 259.165 379.243 259.825 381.283 260.505C381.283 263.505 381.283 263.505 379.673 265.364C378.967 265.988 378.26 266.612 377.533 267.255C376.836 267.889 376.14 268.523 375.423 269.177C373.283 270.505 373.283 270.505 371.017 270.208C370.158 269.86 370.158 269.86 369.283 269.505C369.727 264.465 371.996 262.128 375.283 258.505Z" fill="#0079C1"/>
<path d="M23.2826 30.5047C23.6126 31.1647 23.9426 31.8247 24.2826 32.5047C23.6226 32.5047 22.9626 32.5047 22.2826 32.5047C22.0351 33.0771 21.7876 33.6494 21.5326 34.2391C20.0894 36.8548 18.4004 38.6525 16.2826 40.7547C15.5813 41.4611 14.8801 42.1675 14.1576 42.8953C12.2826 44.5047 12.2826 44.5047 10.2826 44.5047C9.62256 46.1547 8.96256 47.8047 8.28256 49.5047C7.95256 48.8447 7.62256 48.1847 7.28256 47.5047C8.82568 43.8784 10.3797 41.1552 13.2826 38.5047C13.9426 37.5147 14.6026 36.5247 15.2826 35.5047C16.9189 34.4558 18.5874 33.4557 20.2826 32.5047C21.2726 31.8447 22.2626 31.1847 23.2826 30.5047Z" fill="#1F95CD"/>
<path d="M8.28256 123.505C11.189 127.034 13.9654 130.557 16.2826 134.505C15.9526 135.495 15.6226 136.485 15.2826 137.505C14.1044 135.93 12.9404 134.345 11.7826 132.755C11.1329 131.873 10.4832 130.991 9.81381 130.083C8.28256 127.505 8.28256 127.505 8.28256 123.505Z" fill="#319FD2"/>
<path d="M53.2826 29.5047C54.7212 29.5922 56.1585 29.7004 57.5951 29.8172C58.3956 29.8752 59.1961 29.9332 60.0208 29.993C62.6453 30.5868 63.5908 31.4625 65.2826 33.5047C61.0879 32.9055 57.2726 31.9297 53.2826 30.5047C53.2826 30.1747 53.2826 29.8447 53.2826 29.5047Z" fill="#2B9DD1"/>
</svg>
