<svg width="567" height="567" viewBox="0 0 567 567" fill="none" xmlns="http://www.w3.org/2000/svg">
<path d="M283.46 530.87C420.128 530.87 530.92 420.078 530.92 283.41C530.92 146.742 420.128 35.95 283.46 35.95C146.792 35.95 36 146.742 36 283.41C36 420.078 146.792 530.87 283.46 530.87Z" fill="white"/>
<path d="M283.46 0C126.91 0 0 126.89 0 283.41C0 439.93 126.91 566.82 283.46 566.82C440.01 566.82 566.92 439.93 566.92 283.41C566.92 126.89 440.02 0 283.46 0ZM283.46 527.11C149.05 527.11 39.71 417.78 39.71 283.4C39.71 149.02 149.06 39.7 283.46 39.7C417.86 39.7 527.21 149.03 527.21 283.4C527.21 417.77 417.86 527.11 283.46 527.11Z" fill="#0000C8"/>
<path d="M437.28 341.65H431.28L423.74 352.66L421.28 367.05H447.14L444.75 352.66L437.28 341.65Z" fill="#0000C8"/>
<path d="M202.08 341.65H196.08L188.54 352.66L186.08 367.05H211.94L209.55 352.66L202.08 341.65Z" fill="#0000C8"/>
<path d="M341.94 341.65H335.93L328.39 352.66L325.93 367.05H351.79L349.4 352.66L341.94 341.65Z" fill="#0000C8"/>
<path d="M253.87 365.9V380.91H281.66L285.04 375.98L279.96 365.9H253.87Z" fill="#0000C8"/>
<path d="M281.58 346.66L278.11 341.65H253.87V355.51H277.12L281.58 346.66Z" fill="#0000C8"/>
<path d="M283.46 53.94C156.9 53.94 53.95 156.88 53.95 283.41C53.95 409.94 156.91 512.88 283.46 512.88C410.01 512.88 512.98 409.94 512.98 283.41C512.98 156.88 410.02 53.94 283.46 53.94ZM150.48 392.12H117.48L102.75 374.23V348.32L117.48 330.44H149.71L160.04 348.32L149.71 354.26L142.31 341.61H123.8L114.7 352.56V369.91L123.8 380.94H143.16L150.48 368.3L160.81 374.24L150.48 392.13V392.12ZM216.16 392.12L213.85 378.24H184.16L181.77 392.12H169.67L177.07 348.17L189.1 330.44H208.92L220.95 348.17L228.35 392.12H216.16ZM288.83 392.12H242.33V330.44H285.43L295.84 345.71L289.75 357.81L299.31 376.93L288.83 392.12ZM356.01 392.12L353.7 378.24H324.01L321.62 392.12H309.52L316.92 348.17L328.95 330.44H348.77L360.8 348.17L368.2 392.12H356.01ZM355.8 220.46L329.27 203.97L341.06 275.49L340.52 275.99C336.12 280.1 332.62 282.98 325.75 287.37L324.01 288.48L306.65 189.3L283.58 167.46L260.51 189.3L243.15 288.48L241.41 287.37C234.54 282.99 231.05 280.1 226.64 275.99L226.1 275.49L237.89 203.97L211.35 220.46L202.68 209.55L268.62 155.41L256.49 140.02L266.94 129.72L283.59 142.76L300.23 129.72L310.68 140.02L298.54 155.41L364.48 209.55L355.81 220.46H355.8ZM392.83 392.12H380.88V330.44H392.83V392.12ZM451.53 392.12L449.22 378.24H419.53L417.14 392.12H405.04L412.44 348.17L424.47 330.44H444.29L456.32 348.17L463.72 392.12H451.53Z" fill="#0000C8"/>
</svg>
