<svg xmlns="http://www.w3.org/2000/svg" width="567" height="567" fill="none"><path fill="#fff" d="M283.46 530.87c136.668 0 247.46-110.792 247.46-247.46S420.128 35.95 283.46 35.95 36 146.742 36 283.41s110.792 247.46 247.46 247.46Z"/><path fill="#0000C8" d="M283.46 0C126.91 0 0 126.89 0 283.41c0 156.52 126.91 283.41 283.46 283.41 156.55 0 283.46-126.89 283.46-283.41C566.92 126.89 440.02 0 283.46 0Zm0 527.11c-134.41 0-243.75-109.33-243.75-243.71S149.06 39.7 283.46 39.7s243.75 109.33 243.75 243.7-109.35 243.71-243.75 243.71Z"/><path fill="#0000C8" d="M437.28 341.65h-6l-7.54 11.01-2.46 14.39h25.86l-2.39-14.39-7.47-11.01ZM202.08 341.65h-6l-7.54 11.01-2.46 14.39h25.86l-2.39-14.39-7.47-11.01ZM341.94 341.65h-6.01l-7.54 11.01-2.46 14.39h25.86l-2.39-14.39-7.46-11.01ZM253.87 365.9v15.01h27.79l3.38-4.93-5.08-10.08h-26.09ZM281.58 346.66l-3.47-5.01h-24.24v13.86h23.25l4.46-8.85Z"/><path fill="#0000C8" d="M283.46 53.94c-126.56 0-229.51 102.94-229.51 229.47s102.96 229.47 229.51 229.47 229.52-102.94 229.52-229.47S410.02 53.94 283.46 53.94ZM150.48 392.12h-33l-14.73-17.89v-25.91l14.73-17.88h32.23l10.33 17.88-10.33 5.94-7.4-12.65H123.8l-9.1 10.95v17.35l9.1 11.03h19.36l7.32-12.64 10.33 5.94-10.33 17.89v-.01Zm65.68 0-2.31-13.88h-29.69l-2.39 13.88h-12.1l7.4-43.95 12.03-17.73h19.82l12.03 17.73 7.4 43.95h-12.19Zm72.67 0h-46.5v-61.68h43.1l10.41 15.27-6.09 12.1 9.56 19.12-10.48 15.19Zm67.18 0-2.31-13.88h-29.69l-2.39 13.88h-12.1l7.4-43.95 12.03-17.73h19.82l12.03 17.73 7.4 43.95h-12.19Zm-.21-171.66-26.53-16.49 11.79 71.52-.54.5c-4.4 4.11-7.9 6.99-14.77 11.38l-1.74 1.11-17.36-99.18-23.07-21.84-23.07 21.84-17.36 99.18-1.74-1.11c-6.87-4.38-10.36-7.27-14.77-11.38l-.54-.5 11.79-71.52-26.54 16.49-8.67-10.91 65.94-54.14-12.13-15.39 10.45-10.3 16.65 13.04 16.64-13.04 10.45 10.3-12.14 15.39 65.94 54.14-8.67 10.91h-.01Zm37.03 171.66h-11.95v-61.68h11.95v61.68Zm58.7 0-2.31-13.88h-29.69l-2.39 13.88h-12.1l7.4-43.95 12.03-17.73h19.82l12.03 17.73 7.4 43.95h-12.19Z"/></svg>