<svg xmlns="http://www.w3.org/2000/svg" width="581" height="147" fill="none"><path fill="#000" d="M232.142 113.686c6.364-5.035 14.882-6.317 22.374-2.824 3.688 2.156 6.489 5.008 8.032 9.063v2.112c-2.295.264-2.295.264-4.942 0-2.825-3.321-2.825-3.321-2.825-5.632l-1.677-.659c-1.853-.748-1.853-.748-3.266-1.452-4.134-.347-7.901-.604-11.694 1.188-3.399 3.214-5.044 5.393-5.42 10.041-.108 4.79-.125 8.845 2.992 12.704 3.833 3.041 7.147 3.994 12.004 3.519 3.088-.707 5.141-1.593 7.37-3.871 1.191-1.746 1.191-1.747 1.809-3.872h5.649c-.819 3.714-1.858 6.712-4.942 9.151-5.388 3.097-10.759 4.545-16.947 3.519-5.852-1.87-9.342-5.206-12.448-10.352-1.148-2.75-1.347-5.191-1.321-8.125l.014-1.6c.171-5.199 1.395-9.226 5.238-12.91Zm198.442-.088c4.018-4.952 8.867-4.825 14.844-4.232 3.475 1.58 5.278 3.689 7.062 7.039.176 2.024.176 2.024 0 3.52h-4.943l-.971-2.42c-.844-2.54-.845-2.541-2.56-3.211-1.65-.193-1.65-.193-3.486-.22l-1.873-.08c-1.797.149-1.798.149-2.99 1.587-1.014 1.555-1.014 1.555-.742 3.684.672 2.249.914 2.781 2.736 4.18 1.835.694 3.655 1.326 5.517 1.935 7.17 2.541 7.171 2.541 9.463 5.862 1.438 3.51.962 6.593-.328 10.064-1.961 2.932-4.199 4.412-7.591 5.367-4.8.554-8.765.109-12.709-2.815-2.817-3.168-3.249-5.775-3.531-9.855h4.943l.364 1.158c.757 2.227 1.414 4.072 2.946 5.881 2.959 1.276 5.989 1.166 9.002.088 1.216-.743 1.216-.743 1.81-2.2.354-3.163.354-3.163-.748-6.013-2.355-1.762-5.175-2.57-7.928-3.542-3.574-1.333-7.191-3.074-8.977-6.634-.352-3.071-.707-6.308.69-9.143Zm-245.707-3.528c16.24 0 16.24 0 21.889 3.52 2.754 3.431 3.352 6.326 3.194 10.707-.854 4.539-3.708 7.829-7.43 10.41l1.39 2.106 1.787 2.733.919 1.389c2.258 3.467 2.259 3.467 2.259 5.035-3.641.452-3.641.452-5.649 0-1.471-1.518-2.22-3.329-3.09-5.236-1.867-3.832-1.867-3.832-5.237-6.181-2.154-.227-2.154-.227-5.089.154v11.263h-4.943v-35.9Zm183.586 0c1.648-.029 3.296-.03 4.943 0-1.696 6.786-3.935 13.391-6.161 20.018-.641 1.91-1.278 3.823-1.915 5.735l-1.219 3.641-.577 1.735c-1.344 3.985-1.344 3.986-2.132 4.771-1.647.028-3.295.029-4.942 0l-.673-2.346c-1.473-5.089-2.977-10.125-4.849-15.084-1.219-3.336-2.35-6.701-3.481-10.067l-.681-2.009-.632-1.887-.573-1.705c-.409-1.394-.409-1.394-.409-2.802h4.943c2.205 5.109 3.9 10.319 5.527 15.629a196.833 196.833 0 0 0 2.108 6.412c.838 2.596.838 2.596.838 4.708h1.412l.486-2.552c.841-3.8 2.189-7.368 3.536-11.015 1.227-3.493 2.212-7.027 3.183-10.6.562-1.878.562-1.878 1.268-2.582Zm-213.242 0a119.84 119.84 0 0 1 5.108 12.885l.605 1.805c.417 1.245.832 2.49 1.246 3.736.635 1.911 1.277 3.819 1.919 5.727l1.217 3.646.581 1.727c.726 2.198 1.327 4.043 1.328 6.374h-4.943l-1.412-5.632-14.829.704-2.118 4.928h-4.943c1.836-7.612 4.577-14.936 7.194-22.306l1.4-3.963a6894.08 6894.08 0 0 1 3.41-9.631h4.237Zm129.216 15.486h16.241V110.07h4.942v35.9h-4.942v-15.486h-16.241v15.486h-4.236c-.706-.704-.706-.704-.791-2.125l.005-1.89v-2.135l.011-2.322.002-2.364c.004-2.503.014-5.007.023-7.51l.009-5.077c.008-4.159.02-8.318.035-12.477h4.942v15.486Zm43.073 19.71h-4.943V110.07h4.943v35.196Zm84.026-30.972h-15.535v11.262h15.535v4.224h-15.535v11.262h14.829v4.224h-19.771V110.07h20.477v4.224Zm-258.434 2.815c-.796.795-.797.795-2.239 5.564l-.585 1.959-.585 1.918-.562 1.874c-.782 2.601-1.221 4.964-1.677 7.691h12.003c-.587-2.927-1.316-5.643-2.205-8.48l-.575-1.815-.567-1.831-.555-1.76c-.646-2.053-1.226-3.285-2.453-5.12Zm49.428-1.407c-2.37-1.599-2.37-1.599-12.71-1.408v16.19c3.376.03 8.147.866 11.297-.704 1.96-1.861 3.315-3.109 3.834-5.788.099-3.287-.22-5.703-2.421-8.29ZM64.03.112c8.247-.035 16.438.015 24.655.78l1.808.167c7.214.76 13.303 2.922 18.566 8.045 5.831 7.693 4.725 16.482 4.502 25.648H87.435l-1.412-7.039c-1.848-2.994-4.65-3.541-7.882-4.477-3.328-.748-6.59-.752-9.989-.73l-2.24-.007c-1.555-.001-3.109.003-4.663.012-2.358.011-4.716 0-7.074-.014-1.52.002-3.038.004-4.558.008l-2.105-.013c-5.575.056-10.872.916-15.859 3.505-4.168 5.065-3.865 11.988-3.807 18.223.011 1.441 0 2.88-.013 4.322-.01 6.169.143 12.141 4.04 17.182 3.246 2.408 6.384 2.992 10.373 3.01l2.485.02 2.655-.003 2.753.01c1.918.005 3.836.005 5.755.002 2.45-.005 4.9.007 7.35.023 2.349.013 4.697.01 7.046.01l2.655.02c4.819-.026 8.497-.108 12.195-3.532 1.32-2.321 1.32-2.322 2.295-8.007h26.126c.425 19.776.425 19.777-4.943 26.045-10.018 9.755-26.362 8.547-39.39 8.59l-1.456.006c-2.543.01-5.087.017-7.63.02-2.067.003-4.134.013-6.2.029-34.337.26-34.337.26-44.84-8.205-11.8-14.97-8.8-37.23-8.663-55.256.022-3.196.032-6.392.042-9.588C.504 12.7.54 6.48.585.261 10.732.228 20.879.203 31.026.188 35.74.18 40.452.17 45.166.155c4.56-.016 9.12-.024 13.68-.028C60.574.125 62.302.12 64.03.112ZM209.59 15.747c2.608 4.938 2.608 4.938 5.226 9.87 2.086 3.954 4.078 7.951 6.071 11.95 2.531 5.078 5.097 10.13 7.767 15.135 3.047 5.71 5.952 11.486 8.836 17.28a520.858 520.858 0 0 0 8.149 15.655c2.08 3.872 2.08 3.872 2.08 5.428h-28.244l-3.884-7.303-1.228-2.3-.956-1.808-.986-1.854c-.713-1.517-.713-1.517-.713-2.925l-55.076.704c-4.316 7.559-4.316 7.559-7.767 15.486H119.21c.849-2.116 1.64-4.06 2.669-6.064l.731-1.43.787-1.522.826-1.609c.886-1.724 1.776-3.447 2.665-5.17l.924-1.79c3.73-7.234 7.515-14.428 11.47-21.543 3.348-6.06 6.508-12.216 9.672-18.373l.837-1.627 3.236-6.3c2.063-4.012 4.146-8.013 6.254-12.002l.764-1.448c2.119-3.997 4.301-7.956 6.473-11.926h35.305l7.768 15.486ZM324.296.038c25.967-.157 25.967-.157 34.048 6.88 5.321 5.383 6.223 12.838 6.2 20.072l-.052 2.659-.003 2.692c-.066 6.905-.561 14.33-5.5 19.687-2.072 1.81-4.153 2.999-6.766 3.841 2.046 1.445 2.046 1.445 4.193 2.332 3.563 1.958 5.282 4.643 6.669 8.426 1.002 4.396.645 9.05.568 13.527l-.132 10.91h-26.832c-.177-8.974-.177-8.974-.21-11.792l-.066-2.23-.045-2.28c-.489-2.536-1.122-3.3-3.21-4.814-3.288-1.105-6.191-1.591-9.652-1.632l-2.74-.043-2.918-.025a2143.117 2143.117 0 0 0-10.92-.131c-3.168-.033-6.336-.077-9.504-.118-4.799-.062-9.599-.111-14.399-.163v23.229h-25.419V.26l40.998-.132L311.493.07c5.241-.01 5.241-.01 7.703-.012 1.7-.003 3.4-.01 5.1-.021Zm152.201 20.636h-68.492v16.19h64.961v17.598h-64.255v15.486h69.198v21.117h-95.324V.26h93.912v20.413Zm45.897 47.866H581v22.525h-84.026V.26h25.42V68.54ZM183.465 20.674c-.706.704-.706.704-1.658 2.51l-1.211 2.412-1.354 2.697c-.702 1.404-1.404 2.808-2.109 4.21-3.893 7.736-7.603 15.541-11.321 23.366h36.011c0-1.407 0-1.407-.57-2.733l-.811-1.632-.915-1.851-1.002-2.005-2.086-4.182a1613.68 1613.68 0 0 1-3.3-6.608c-.712-1.437-1.426-2.872-2.144-4.306l-1.032-2.062c-1.801-3.647-3.283-7.178-6.498-9.816Zm144.61 1.712c-1.55-.001-3.099.002-4.649.028-1.104.019-2.208.032-3.313.038-2.898.01-5.795.03-8.693.068-3.594.048-7.187.073-10.781.094-5.272.03-5.272.03-17.614.172v23.229c5.126.012 10.252.026 15.379.033 3.378.004 6.757.007 10.135.015a4655.475 4655.475 0 0 0 11.653.02c1.54.006 3.079.012 4.619.012h1.421c3.905.007 7.031.116 10.308-2.14 1.914-2.653 1.948-4.216 1.906-7.409l-.08-1.926c-.044-2.81.309-5.764-.971-8.315-2.296-2.268-3.441-3.379-6.649-3.942l-2.671.023ZM.585 35.456h.706c.258-8.368 1.024-17.915 6.079-24.942 6.134-6.888 15.31-8.57 24.073-9.365l2.328-.184V.26H.585v35.195Z"/></svg>