<svg width="600" height="83" viewBox="0 0 600 83" fill="none" xmlns="http://www.w3.org/2000/svg">
<path d="M30.9 82.4C12 82.4 0 69.8 0 41.2C0 13.7 12 0 30.9 0C45.8 0 57 10.5 59.1 26.3H45.9C44.2 17.4 39.5 12 30.9 12C20 12 13.2 19.4 13.2 41.2C13.2 63 20.1 70.4 30.9 70.4C39.5 70.4 44.4 65 46.1 56.1H59.3C57.3 70.7 45.8 82.4 30.9 82.4ZM88.8 81.3H75.6V1.20001H88.8V81.3ZM136.7 81.3H123.5V13.2H104V1.20001H156.1V13.2H136.6V81.3H136.7ZM226.2 81.3H212.5L207.6 62.4H181.5L176.6 81.3H163.3L186.2 1.20001H203.4L226.2 81.3ZM184.6 50.4H204.5L194.5 11.6L184.6 50.4ZM241.3 81.3V1.20001H268.8C287.1 1.20001 300.3 11.5 300.3 41.3C300.3 69.9 287.1 81.4 268.8 81.4H241.3V81.3ZM268.8 13.2H254.5V69.2H268.8C279.1 69.2 287.1 62.9 287.1 41.2C287.1 19.5 279.1 13.2 268.8 13.2ZM332.2 81.3H319V1.20001H332.2V81.3ZM380.7 82.4C365.8 82.4 353.2 76.1 353.2 54.9V1.10001H366.4V54.3C366.4 65.2 370.9 70.3 380.7 70.3C390.5 70.3 395 65.1 395 54.3V1.10001H408.2V54.9C408.2 75 395.6 82.4 380.7 82.4ZM499.1 81.3H486.5V20.5L471 81.3H457.3L441.8 20.5V81.3H429.2V1.20001H448.7L464.2 66.2L479.7 1.20001H499.2V81.3H499.1ZM558.8 82.4C536.1 82.4 517.6 65 517.6 41.2C517.6 17.4 536.1 0 558.8 0C581.5 0 600 17.4 600 41.2C600 65 581.5 82.4 558.8 82.4ZM558.8 75.8C577.8 75.8 592.9 61.4 592.9 41.2C592.9 21 577.8 6.60001 558.8 6.60001C539.8 6.60001 524.8 21 524.8 41.2C524.8 61.4 539.8 75.8 558.8 75.8ZM559.3 62.8C546.9 62.8 540 55 540 41.2C540 27.7 547 19.5 559.3 19.5C569.8 19.5 576 25.3 577.7 35.2H566.7C565.3 30 562.4 28.6 559.3 28.6C554.8 28.6 550.9 32.1 550.9 41.3C550.9 50.5 554.8 53.9 559.3 53.9C563.1 53.9 565.7 52.2 567 47.5H578C575.9 57.1 569.6 62.8 559.3 62.8Z" fill="black"/>
</svg>
