<svg xmlns="http://www.w3.org/2000/svg" width="600" height="83" fill="none"><path fill="#000" d="M30.9 82.4C12 82.4 0 69.8 0 41.2 0 13.7 12 0 30.9 0 45.8 0 57 10.5 59.1 26.3H45.9c-1.7-8.9-6.4-14.3-15-14.3-10.9 0-17.7 7.4-17.7 29.2 0 21.8 6.9 29.2 17.7 29.2 8.6 0 13.5-5.4 15.2-14.3h13.2c-2 14.6-13.5 26.3-28.4 26.3Zm57.9-1.1H75.6V1.2h13.2v80.1Zm47.9 0h-13.2V13.2H104v-12h52.1v12h-19.5v68.1h.1Zm89.5 0h-13.7l-4.9-18.9h-26.1l-4.9 18.9h-13.3l22.9-80.1h17.2l22.8 80.1Zm-41.6-30.9h19.9l-10-38.8-9.9 38.8Zm56.7 30.9V1.2h27.5c18.3 0 31.5 10.3 31.5 40.1 0 28.6-13.2 40.1-31.5 40.1h-27.5v-.1Zm27.5-68.1h-14.3v56h14.3c10.3 0 18.3-6.3 18.3-28s-8-28-18.3-28Zm63.4 68.1H319V1.2h13.2v80.1Zm48.5 1.1c-14.9 0-27.5-6.3-27.5-27.5V1.1h13.2v53.2c0 10.9 4.5 16 14.3 16s14.3-5.2 14.3-16V1.1h13.2v53.8c0 20.1-12.6 27.5-27.5 27.5Zm118.4-1.1h-12.6V20.5L471 81.3h-13.7l-15.5-60.8v60.8h-12.6V1.2h19.5l15.5 65 15.5-65h19.5v80.1h-.1Zm59.7 1.1c-22.7 0-41.2-17.4-41.2-41.2 0-23.8 18.5-41.2 41.2-41.2C581.5 0 600 17.4 600 41.2c0 23.8-18.5 41.2-41.2 41.2Zm0-6.6c19 0 34.1-14.4 34.1-34.6 0-20.2-15.1-34.6-34.1-34.6s-34 14.4-34 34.6c0 20.2 15 34.6 34 34.6Zm.5-13c-12.4 0-19.3-7.8-19.3-21.6 0-13.5 7-21.7 19.3-21.7 10.5 0 16.7 5.8 18.4 15.7h-11c-1.4-5.2-4.3-6.6-7.4-6.6-4.5 0-8.4 3.5-8.4 12.7s3.9 12.6 8.4 12.6c3.8 0 6.4-1.7 7.7-6.4h11c-2.1 9.6-8.4 15.3-18.7 15.3Z"/></svg>