<svg xmlns="http://www.w3.org/2000/svg" width="506" height="145" fill="none"><path fill="#010202" d="M66.28 42.29C65.27 52.44 56.74 59 44.56 59c-13.42 0-22.79-9.17-22.79-22.3 0-13.3 9.37-22.59 22.79-22.59 12.28 0 20.69 6.62 21.43 16.87l.07.89 20.43-.63-.03-.94C85.78 12.52 68.58.1 44.66.1 18.8.1.74 15.15.74 36.7s18.02 36.6 43.83 36.6c24.27 0 41.19-12.25 42.09-30.48l.05-.96-20.33-.42-.1.85Zm50.57-40.26H96.48v69.34h48.37V56.78l-28.09.1.09-54.85Zm64.48 0-30.31 69.34h21.32l6.94-16.77h29.99l6.94 16.77h21.51L207.41 2.03h-26.08Zm22.45 39.42h-19l9.5-22.78 9.5 22.78Zm89.51-2.77c0 12.46-6.04 19.32-17 19.32-11.09 0-17.19-7.03-17.19-19.8V2.38h-20.18v37.08c0 21.6 13.59 34 37.28 34s37.27-12.57 37.27-34.48V2.38h-20.18v36.3Zm67.13-36.66h-33.51v69.34h33.42c27.33 0 44.98-13.61 44.98-34.67 0-21.06-17.62-34.67-44.89-34.67Zm-12.94 13.24h12.08c15.36 0 24.9 8.21 24.9 21.43 0 13.16-9.54 21.34-24.9 21.34h-12.08V15.26ZM434.3 2.03h-20.18v69.34h20.18V2.03Zm33.36 40.61 32.58.1V29.99h-32.58V15.64l37.11.1V2.03h-57.48v69.33h58.25v-14.1h-37.88V42.64ZM101.54 144.96c-2.82 0-5.16-.6-7.04-1.81-1.87-1.21-3.29-2.88-4.26-5.01-.97-2.13-1.53-4.61-1.69-7.43l6.04-1.63c.12 1.73.39 3.4.82 5.01.42 1.61 1.12 2.93 2.08 3.96.97 1.03 2.31 1.54 4.05 1.54 1.77 0 3.11-.49 4.02-1.48.91-.99 1.36-2.41 1.36-4.26 0-2.21-.5-4-1.51-5.34-1.01-1.35-2.28-2.71-3.81-4.08l-8.21-7.25c-1.61-1.41-2.8-2.95-3.56-4.62-.77-1.67-1.15-3.73-1.15-6.19 0-3.58 1.03-6.36 3.08-8.34 2.05-1.97 4.85-2.96 8.4-2.96 1.93 0 3.63.25 5.1.75 1.47.5 2.7 1.28 3.68 2.32.99 1.05 1.77 2.37 2.36 3.96.58 1.59.98 3.45 1.18 5.59l-5.8 1.57c-.12-1.61-.36-3.09-.72-4.44-.36-1.35-1-2.44-1.9-3.26-.91-.82-2.2-1.24-3.9-1.24-1.69 0-3.01.45-3.96 1.36-.95.91-1.42 2.25-1.42 4.02 0 1.49.25 2.72.76 3.68.5.97 1.32 1.95 2.45 2.96l8.27 7.25c1.85 1.61 3.48 3.53 4.89 5.77 1.41 2.23 2.11 4.88 2.11 7.94 0 2.42-.5 4.5-1.51 6.25s-2.39 3.09-4.14 4.02c-1.76.93-3.78 1.39-6.07 1.39Zm17.03-.54V95.5h18.97v5.07H125.4v16.19h9.84v4.83h-9.84v17.94h12.26v4.89h-19.09Zm36.84.54c-3.46 0-6.15-.72-8.06-2.17-1.91-1.45-3.24-3.4-3.99-5.86-.75-2.45-1.12-5.19-1.12-8.21v-17.27c0-3.3.37-6.18 1.12-8.64.74-2.46 2.07-4.36 3.99-5.71 1.91-1.35 4.6-2.02 8.06-2.02 3.06 0 5.49.56 7.28 1.69s3.08 2.74 3.87 4.83 1.18 4.61 1.18 7.55v3.87h-6.46v-3.44c0-1.81-.09-3.41-.27-4.8-.18-1.39-.67-2.47-1.48-3.23-.81-.76-2.15-1.15-4.05-1.15-1.93 0-3.34.41-4.23 1.24-.89.83-1.46 1.99-1.72 3.5s-.39 3.27-.39 5.28v19.39c0 2.46.2 4.4.6 5.83.4 1.43 1.07 2.45 1.99 3.05.93.6 2.17.91 3.74.91 1.85 0 3.18-.41 3.99-1.24.81-.82 1.31-1.96 1.51-3.41.2-1.45.3-3.14.3-5.07v-3.62h6.46v3.62c0 2.98-.36 5.61-1.09 7.88-.73 2.27-1.97 4.05-3.74 5.32-1.77 1.25-4.27 1.88-7.49 1.88Zm31.35 0c-3.3 0-5.94-.64-7.91-1.93-1.97-1.29-3.38-3.13-4.23-5.53-.85-2.39-1.27-5.2-1.27-8.43v-18.54c0-3.22.43-5.99 1.3-8.3.87-2.32 2.27-4.09 4.23-5.32 1.95-1.23 4.58-1.84 7.88-1.84s5.92.62 7.85 1.87c1.93 1.25 3.33 3.02 4.2 5.32.87 2.3 1.3 5.05 1.3 8.27v18.6c0 3.18-.43 5.96-1.3 8.33-.87 2.38-2.26 4.22-4.2 5.53-1.93 1.32-4.55 1.97-7.85 1.97Zm0-5.37c1.81 0 3.18-.37 4.11-1.12.93-.74 1.55-1.79 1.87-3.14.32-1.35.48-2.93.48-4.74v-21.44c0-1.81-.16-3.37-.48-4.68-.32-1.31-.95-2.31-1.87-3.02-.93-.7-2.29-1.06-4.11-1.06-1.81 0-3.19.35-4.14 1.06-.95.71-1.58 1.71-1.9 3.02-.32 1.31-.48 2.87-.48 4.68v21.44c0 1.81.16 3.39.48 4.74.32 1.35.96 2.4 1.9 3.14.95.75 2.33 1.12 4.14 1.12Zm20.05 4.83V95.5h4.65l13.89 32.49V95.5h5.68v48.92h-4.35l-14.07-33.4v33.4h-5.8Zm31.89 0V95.5h10.63c3.62 0 6.49.55 8.61 1.66 2.11 1.11 3.62 2.77 4.53 4.98.91 2.21 1.36 4.97 1.36 8.27v18c0 3.46-.45 6.38-1.36 8.76-.91 2.38-2.38 4.18-4.41 5.41-2.03 1.23-4.76 1.84-8.18 1.84H238.7Zm6.83-4.89h3.87c2.5 0 4.27-.48 5.32-1.45 1.05-.97 1.68-2.38 1.9-4.23.22-1.85.33-4.09.33-6.7v-15.89c0-2.54-.16-4.59-.48-6.16-.32-1.57-1.03-2.72-2.11-3.44-1.09-.72-2.8-1.09-5.13-1.09h-3.68v38.96h-.02Zm25 4.89V95.5h18.97v5.07h-12.14v16.19h9.84v4.83h-9.84v17.94h12.26v4.89h-19.09Zm38.29 0 .91-48.92h6.7l8.64 39.68 8.7-39.68h6.64l.91 48.92h-5.5l-.54-35.51-8.28 35.51h-3.87l-8.21-35.51-.54 35.51h-5.56Zm37.33 0 10.39-48.92h6.58l10.45 48.92h-6.46l-2.23-12.32h-9.97l-2.36 12.32h-6.4Zm9.66-17.21h8.15l-4.11-22.05-4.04 22.05Zm23.07 17.21V95.5h6.7v48.92h-6.7Zm14.62 0V95.5h4.65l13.89 32.49V95.5h5.68v48.92h-4.35l-14.07-33.4v33.4h-5.8Z"/></svg>