<svg xmlns="http://www.w3.org/2000/svg" width="1022" height="159" fill="none"><path fill="#000" d="M23.066 3.241C-6.771 16.968-7.913 59.946 21.108 74.49c13.859 6.863 32.772 5.066 43.859-4.249l5.38-4.412-4.728-5.066c-5.38-5.72-7.826-6.21-10.761-2.615-3.424 4.086-13.859 6.047-21.196 4.086-12.717-3.432-19.89-20.59-13.858-33.337C26 15.66 37.25 12.23 51.109 19.092l8.967 4.413 4.402-5.557c2.283-2.941 4.24-6.21 4.24-7.026 0-.981-3.913-3.759-8.805-6.21-10.76-5.72-26.413-6.21-36.847-1.47Zm107.608.817c-8.967 4.085-15.978 11.276-19.565 20.1-3.098 7.19-3.098 23.368-.326 30.395 13.369 31.866 62.282 31.866 75.652 0 3.26-8.17 2.771-24.348-1.305-32.682-9.293-19.284-34.076-27.454-54.456-17.813Zm23.478 12.42c17.283 4.902 23.152 27.29 10.272 39.71-6.522 6.21-13.37 8.334-21.033 6.21-21.358-5.884-23.315-36.115-2.935-45.267 6.033-2.614 6.848-2.614 13.696-.653Zm90.163-13.564c-6.848 3.269-11.413 9.152-12.717 16.178-2.609 13.727 3.424 20.427 23.804 27.29 14.022 4.74 15.489 5.557 15.978 9.642.978 8.988-15.326 10.295-27.391 2.288l-6.033-3.922-4.239 5.392c-2.445 3.105-4.402 6.21-4.402 7.027 0 .817 3.75 3.432 8.479 6.047 11.576 6.373 27.554 7.517 37.499 2.614 8.968-4.249 12.718-10.622 12.718-21.08 0-12.91-4.728-16.995-28.533-24.349-9.13-2.778-9.782-3.268-9.782-7.844 0-7.026 6.521-9.151 16.793-5.23 4.239 1.635 8.804 3.27 10.109 3.76 1.467.49 3.913-1.471 6.195-5.23 3.587-5.556 3.75-5.883.815-8.17-9.13-6.864-29.51-9.315-39.293-4.413Zm235.924-.653c-24.131 8.987-33.262 38.075-18.914 59.482 12.88 19.12 41.902 22.715 59.837 7.354 9.784-8.17 13.695-16.995 13.695-29.741 0-15.525-7.664-28.598-20.87-35.461C507.141.3 487.738-.518 480.239 2.26Zm24.62 16.178c21.846 11.275 14.509 44.448-9.946 44.448-4.566 0-9.295-1.144-11.904-2.941-16.467-10.786-13.368-37.912 4.894-43.468 7.334-2.125 9.292-1.96 16.956 1.96Zm195.65-15.034C698.554 7 669.532 75.47 669.532 76.287c0 .327 3.911.654 8.64.654h8.643l5.869-16.341h32.445l6.849 16.341h8.639c7.502 0 8.478-.327 7.664-2.778-.653-1.47-7.825-18.63-15.977-37.912l-15-35.298-7.502-.49c-6.193-.49-7.825.164-9.293 2.942Zm16.956 38.729c1.141 3.595.818 3.758-8.639 3.758-11.087 0-10.925 1.307-3.426-15.524l3.752-8.17 3.585 8.17c1.958 4.412 4.079 9.805 4.728 11.766ZM978.499 2.26c-8.642 4.085-12.718 9.968-13.533 19.936-.653 8.498-.491 9.151 4.891 14.544 4.075 4.085 8.966 6.7 17.77 9.315 17.283 5.066 21.853 9.968 14.183 15.197-5.378 3.759-12.551 3.268-22.334-1.797l-8.805-4.249-4.564 5.556c-2.446 2.941-4.075 6.046-3.587 6.863.326.654 4.564 3.105 9.131 5.557 11.251 5.719 28.699 7.026 37.009 2.614 7.5-3.922 13.04-12.42 13.04-20.263 0-13.074-5.54-18.303-25.43-24.186-12.719-3.758-16.141-6.373-14.512-11.438 1.958-6.21 14.024-6.374 24.132-.49 4.56 2.777 4.73 2.613 8.64-2.125 2.12-2.778 3.91-5.883 3.91-6.864 0-6.863-29.672-12.91-39.941-8.17ZM333.663 76.94h16.303V28.734l9.784 14.707c5.379 8.008 10.434 14.707 11.413 14.707.976 0 6.031-6.7 11.413-14.707l9.781-14.708v48.208h17.935V1.771h-19.403l-19.564 31.375-4.403-7.19c-2.443-3.759-6.845-10.95-9.78-15.688l-5.543-8.498h-17.936v75.171Zm246.195 0h17.936V54.063h11.086c20.379 0 31.304-9.478 31.304-27.127 0-10.131-4.729-18.139-13.045-22.224-4.564-2.288-9.946-2.942-26.41-2.942h-20.871v75.171Zm39.944-56.378c2.285 2.125 4.079 5.393 4.079 7.354 0 1.797-1.794 5.23-4.079 7.353-3.258 3.432-5.543 4.086-13.042 4.086h-8.966V16.478h8.966c7.499 0 9.784.653 13.042 4.085Zm172.013 56.378h16.303V54.063h7.011c6.684 0 7.011.327 14.186 11.439l7.337 11.44h20.544l-8.805-12.747-8.969-12.583 7.011-6.537c10.436-9.641 11.904-23.858 3.749-34.317-5.867-7.517-12.063-8.988-36.356-8.988h-22.011v75.171Zm42.064-57.849c2.447 1.634 3.587 4.086 3.587 8.008 0 8.007-4.566 10.622-18.261 10.622h-11.087V16.478h11.087c7.337 0 12.227.817 14.674 2.614Zm67.174 57.85h16.303V1.77h-16.303v75.171ZM534.204 130.05v28.597h16.306c15.162 0 16.303-.163 16.303-3.268 0-2.941-1.141-3.268-13.042-3.268h-13.044v-25.33c0-24.185-.162-25.329-3.262-25.329-3.096 0-3.261 1.144-3.261 28.598Zm42.555-24.349c-4.402 3.595-5.052 5.229-5.052 12.093 0 5.392 1.141 9.151 3.584 12.419 5.544 7.681 26.414 28.434 28.208 28.434 3.261 0 17.609-15.851 15.488-17.158-1.141-.654-4.728 1.47-8.804 5.556l-7.011 6.863-13.206-13.89c-14.836-15.851-17.283-21.571-12.228-28.598 5.217-6.863 12.066-6.536 19.565.981l6.196 6.21 6.196-6.21c7.498-7.517 14.021-8.171 19.076-1.634 2.608 3.268 3.261 5.883 2.608 9.478-1.305 5.719-4.24 9.478-4.24 5.066 0-6.047-4.076-1.144-4.564 5.392l-.488 7.027 7.01-1.144c7.99-1.307 8.478-1.634 7.173-3.922-.65-.98-2.282-1.144-3.75-.653-2.12.817-2.12.327.327-3.432 1.629-2.451 2.935-7.354 2.935-11.112 0-5.556-.98-7.681-5.217-11.439-6.523-5.883-12.554-5.883-20.709 0l-6.357 4.739-6.358-4.739c-7.825-5.72-13.86-5.883-20.382-.327Zm73.209-2.288c0 1.144 4.725 13.89 10.271 28.271 8.314 21.407 10.76 26.309 13.531 26.636 2.12.327 3.914-.653 4.728-2.451 4.894-12.256 20.382-53.109 20.382-53.763 0-.49-1.632-.654-3.587-.327-2.774.327-4.891 4.412-11.74 22.878-4.728 12.256-8.804 22.715-9.292 23.205-.491.49-4.729-9.805-9.458-22.715-7.01-19.119-9.292-23.695-11.739-23.695-1.629 0-3.096.981-3.096 1.961Zm58.205-.817c-.653.49-1.141 13.4-1.141 28.598v27.453h17.118c15.979 0 17.12-.163 17.12-3.268 0-2.941-1.141-3.268-13.042-3.268h-13.045v-19.61h11.413c10.272 0 11.413-.327 11.413-3.268 0-2.942-1.141-3.269-11.413-3.269h-11.413V107.99h13.045c11.901 0 13.042-.327 13.042-3.269 0-3.104-1.141-3.268-15.976-3.268-8.805 0-16.633.491-17.121 1.144Zm92.282 4.902c-5.379 13.237-18.424 47.881-18.424 49.515 0 .817 1.306 1.634 3.097 1.634 2.12 0 3.914-2.451 6.034-8.661l3.097-8.497 10.436-.491c11.74-.49 12.881.164 16.63 9.969 1.794 4.575 3.749 7.026 6.196 7.353 1.794.327 3.423.164 3.423-.163 0-.49-2.447-7.354-5.543-15.198-3.097-8.007-7.825-20.59-10.76-28.107-6.035-15.688-9.784-17.649-14.186-7.354Zm10.598 15.688c1.956 5.393 3.588 10.295 3.588 11.112 0 .817-4.076 1.471-9.131 1.471-5.055 0-8.805-.654-8.478-1.307.326-.654 2.282-6.21 4.402-12.256 2.282-6.046 4.564-10.459 5.055-9.805.65.817 2.609 5.556 4.564 10.785Zm36.685-17.649c-7.99 4.903-13.533 15.035-13.533 24.676 0 7.844 5.705 19.773 11.575 24.022 9.131 6.537 24.458 6.373 31.795-.654l3.914-3.595v4.249c0 3.268.814 4.412 3.258 4.412 3.1 0 3.261-1.144 3.261-14.707v-14.707H877.41c-9.454 0-10.595.326-10.595 3.268 0 2.778 1.141 3.268 7.337 3.268 6.846 0 7.337.327 7.337 4.086 0 9.477-13.698 16.014-25.111 12.256-21.032-6.864-19.238-39.383 2.447-44.612 6.031-1.471 15.815 1.797 18.75 6.209 1.629 2.452 4.237 4.086 6.684 4.086 3.914 0 3.914 0 1.141-4.74-6.846-11.438-24.946-15.197-37.662-7.517Zm67.175-2.124c-.327 1.144-5.22 13.727-10.599 27.944-5.381 14.217-9.783 26.31-9.783 26.636 0 .491 1.632.654 3.423.327 2.611-.327 4.402-2.941 6.849-9.151l3.261-8.661 22.826.981 3.261 8.497c2.282 6.21 4.076 8.661 6.196 8.661 1.794 0 3.096-.98 2.935-2.124 0-.981-4.567-13.727-10.111-28.108-8.639-22.061-10.76-26.146-13.856-26.636-1.959-.327-3.914.49-4.402 1.634Zm13.856 31.866c0 .327-4.076.49-8.966.49s-8.969-.654-8.969-1.471c0-1.47 2.935-10.131 6.522-18.956l1.959-4.902 4.726 12.256c2.608 6.7 4.728 12.419 4.728 12.583Zm24.458-5.229c0 27.453.162 28.597 3.261 28.597 3.097 0 3.262-1.144 3.262-28.597 0-27.454-.165-28.598-3.262-28.598-3.099 0-3.261 1.144-3.261 28.598Zm21.194-.164c0 27.454.164 28.761 3.261 28.761 2.935 0 3.261-1.307 3.588-22.388l.488-22.551 14.024 22.061c9.948 16.015 14.838 22.224 17.448 22.551 3.58.491 3.58.491 3.58-28.107 0-27.453-.16-28.761-3.26-28.761-2.93 0-3.26 1.308-3.59 22.388l-.48 22.551-14.025-22.061c-9.945-16.014-14.838-22.224-17.447-22.551-3.587-.49-3.587-.49-3.587 28.107Z"/></svg>