<svg xmlns="http://www.w3.org/2000/svg" width="820" height="263" fill="none"><path fill="#000" d="M209.29 239.459c-.87-1.44-1.289-3.719-1.289-6.868v-68.944c-4.799.96-10.736 1.44-17.844 1.44-2.129 0-4.228-.09-6.357-.3v2.159c2.129 0 3.598.72 4.468 2.159.87 1.44 1.29 3.719 1.29 6.868v15.804c-2.729-1.71-6.298-2.579-10.676-2.579-7.048 0-12.596 2.339-16.674 7.017-4.078 4.678-6.118 11.576-6.118 20.662 0 9.567 1.92 16.704 5.758 21.382 3.839 4.678 8.907 7.017 15.174 7.017 2.999 0 5.488-.599 7.437-1.859 1.95-1.229 3.629-3.179 5.069-5.848v7.288c4.798-.96 10.735-1.44 17.843-1.44 2.129 0 4.228.09 6.357.3v-2.159c-2.129 0-3.598-.72-4.468-2.159l.03.06Zm-19.762-6.868c0 2.129-.75 3.899-2.22 5.278-1.469 1.41-3.208 2.099-5.188 2.099-2.129 0-3.808-1.679-5.038-5.068-1.229-3.388-1.859-9.296-1.859-17.693 0-8.397.78-14.454 2.309-18.533 1.53-4.078 3.929-6.118 7.137-6.118 1.71 0 3.329.45 4.829 1.32v38.685l.03.03Zm76.86 7.527c-.539.3-1.049.45-1.529.45-.63 0-1.05-.3-1.29-.929-.239-.63-.359-1.77-.359-3.479v-27.5c0-3.838-.21-6.807-.66-8.966-.45-2.159-1.35-3.959-2.729-5.398-1.919-1.979-4.228-3.329-6.987-4.049-2.729-.719-5.998-1.079-9.747-1.079-7.107 0-12.595 1.109-16.403 3.268-2.19 1.23-3.809 2.609-4.829 4.109-1.019 1.499-1.529 3.269-1.529 5.338 0 2.609.78 4.738 2.309 6.417 1.529 1.68 3.629 2.519 6.298 2.519s4.948-.809 6.837-2.399c1.889-1.619 2.819-3.748 2.819-6.417 0-1.979-.57-3.779-1.679-5.398-1.14-1.62-2.849-2.819-5.188-3.629 1.709-1.169 3.628-1.739 5.757-1.739 2.669 0 4.559.87 5.638 2.579 1.08 1.709 1.65 3.659 1.65 5.848v9.116c0 1.86-.87 3.269-2.579 4.319-1.71 1.019-4.409 2.159-8.097 3.388-3.479 1.17-6.328 2.279-8.517 3.389-2.189 1.11-4.079 2.639-5.698 4.678-1.619 2.009-2.399 4.559-2.399 7.647 0 3.569 1.11 6.508 3.329 8.877 2.219 2.369 5.518 3.539 9.896 3.539 6.358 0 11.156-2.609 14.365-7.797.149 2.399 1.019 4.288 2.668 5.697 1.65 1.41 4.529 2.1 8.607 2.1 5.458 0 9.687-1.26 12.625-3.809l-1.019-1.739c-.48.42-.99.779-1.53 1.079l-.03-.03Zm-21.651-5.488c-1.11 1.17-2.369 1.74-3.809 1.74-3.479 0-5.218-2.459-5.218-7.377 0-2.879.48-5.158 1.44-6.838.959-1.679 2.369-3.389 4.198-5.188 1.649-1.649 2.759-2.969 3.389-3.988v21.651Zm81.119 4.829c-.87-1.44-1.29-3.719-1.29-6.868v-68.944c-4.798.96-10.735 1.44-17.843 1.44-2.129 0-4.228-.09-6.357-.3v2.159c2.129 0 3.598.72 4.468 2.159.87 1.44 1.289 3.719 1.289 6.868v15.804c-2.728-1.71-6.297-2.579-10.675-2.579-7.048 0-12.596 2.339-16.674 7.017-4.079 4.678-6.118 11.576-6.118 20.662 0 9.567 1.919 16.704 5.758 21.382 3.839 4.678 8.907 7.017 15.174 7.017 2.999 0 5.488-.599 7.437-1.859 1.95-1.229 3.629-3.179 5.068-5.848v7.288c4.799-.96 10.736-1.44 17.844-1.44 2.129 0 4.228.09 6.357.3v-2.159c-2.129 0-3.598-.72-4.468-2.159l.03.06Zm-19.763-6.868c0 2.129-.749 3.899-2.219 5.278-1.469 1.41-3.208 2.099-5.188 2.099-2.129 0-3.808-1.679-5.038-5.068-1.229-3.388-1.859-9.296-1.859-17.693 0-8.397.78-14.454 2.309-18.533 1.529-4.078 3.929-6.118 7.137-6.118 1.71 0 3.329.45 4.829 1.32v38.685l.029.03Zm76.861 7.527c-.539.3-1.049.45-1.529.45-.63 0-1.05-.3-1.29-.929-.24-.63-.359-1.77-.359-3.479v-27.5c0-3.838-.21-6.807-.66-8.966-.45-2.159-1.35-3.959-2.729-5.398-1.919-1.979-4.229-3.329-6.988-4.049-2.758-.719-5.997-1.079-9.746-1.079-7.107 0-12.595 1.109-16.404 3.268-2.189 1.23-3.808 2.609-4.828 4.109-1.019 1.499-1.529 3.269-1.529 5.338 0 2.609.78 4.738 2.309 6.417 1.529 1.68 3.629 2.519 6.298 2.519s4.948-.809 6.837-2.399c1.889-1.619 2.819-3.748 2.819-6.417 0-1.979-.57-3.779-1.679-5.398-1.14-1.62-2.849-2.819-5.188-3.629 1.709-1.169 3.628-1.739 5.757-1.739 2.669 0 4.559.87 5.638 2.579 1.08 1.709 1.65 3.659 1.65 5.848v9.116c0 1.86-.87 3.269-2.579 4.319-1.71 1.019-4.409 2.159-8.097 3.388-3.479 1.17-6.328 2.279-8.517 3.389-2.189 1.11-4.079 2.639-5.698 4.678-1.619 2.009-2.399 4.559-2.399 7.647 0 3.569 1.109 6.508 3.329 8.877 2.219 2.369 5.518 3.539 9.896 3.539 6.357 0 11.156-2.609 14.364-7.797.15 2.399 1.02 4.288 2.669 5.697 1.65 1.41 4.529 2.1 8.607 2.1 5.458 0 9.686-1.26 12.625-3.809l-1.019-1.739c-.48.42-.99.779-1.53 1.079l-.03-.03Zm-21.651-5.488c-1.11 1.17-2.37 1.74-3.809 1.74-3.479 0-5.218-2.459-5.218-7.377 0-2.879.48-5.158 1.439-6.838.96-1.679 2.37-3.389 4.199-5.188 1.649-1.649 2.759-2.969 3.389-3.988v21.651Zm81.658-22.461a233.286 233.286 0 0 0-2.969-2.369c-3.208-2.519-5.577-4.678-7.077-6.418-1.499-1.739-2.249-3.748-2.249-5.997 0-1.77.57-3.179 1.739-4.199 1.17-1.019 2.609-1.529 4.319-1.529 3.838 0 6.747 1.559 8.786 4.678 2.01 3.119 3.299 6.927 3.839 11.426h2.039c0-8.757.15-14.905.42-18.473h-2.039c-.27 2.189-1.14 3.268-2.579 3.268-.48 0-1.11-.21-1.86-.629-1.229-.69-3.028-1.32-5.398-1.89a32.008 32.008 0 0 0-7.527-.869c-3.418 0-6.597.599-9.536 1.799-2.939 1.2-5.308 2.939-7.077 5.188-1.77 2.249-2.669 4.858-2.669 7.797 0 2.519.539 4.828 1.589 6.927 1.05 2.1 2.339 3.929 3.839 5.488 1.499 1.56 3.688 3.689 6.567 6.358 2.519 2.249 4.348 3.988 5.488 5.188a17.71 17.71 0 0 1 2.879 4.048c.78 1.5 1.17 3.209 1.17 5.128 0 1.92-.57 3.239-1.68 4.199-1.139.96-2.549 1.439-4.258 1.439-3.629 0-6.628-1.709-9.027-5.128-2.399-3.418-3.898-7.947-4.528-13.555h-2.039c0 9.777-.15 16.614-.42 20.513h2.039c.63-2.399 1.559-3.599 2.879-3.599.75 0 1.499.15 2.249.42s1.709.72 2.879 1.319c2.729 1.71 6.268 2.579 10.556 2.579 3.749 0 7.227-.659 10.406-2.009 3.179-1.349 5.698-3.209 7.527-5.638 1.86-2.429 2.759-5.158 2.759-8.157 0-3.568-.9-6.537-2.669-8.966-1.769-2.429-4.588-5.218-8.427-8.367l.06.03Zm55.629-22.971c-7.257 0-12.445 2.579-15.594 7.707v-7.287c-4.798.959-10.736 1.439-17.843 1.439-2.129 0-4.228-.09-6.358-.3v2.159c2.13 0 3.599.72 4.469 2.159.839 1.44 1.289 3.719 1.289 6.868v50.98c0 2.789-.42 4.739-1.289 5.788-.87 1.05-2.339 1.59-4.469 1.59v2.159c7.378-.27 12.116-.42 14.155-.42 2.399 0 7.707.09 15.894.3l2.969.09v-2.159c-2.939 0-5.158-.63-6.628-1.86-1.469-1.229-2.219-3.418-2.219-6.567v-8.517c2.399 1.29 5.578 1.949 9.537 1.949 7.197 0 12.955-2.339 17.333-7.017 4.378-4.678 6.567-12.475 6.567-23.331 0-8.427-1.649-14.814-4.918-19.193-3.268-4.378-7.587-6.567-12.925-6.567l.03.03Zm-3.838 46.932c-1.68 4.078-4.409 6.118-8.157 6.118-1.5 0-2.699-.27-3.599-.81v-39.495c0-2.129.72-3.869 2.219-5.278 1.47-1.41 3.209-2.099 5.188-2.099 2.13 0 3.809 1.679 5.038 5.068 1.23 3.388 1.86 9.296 1.86 17.693 0 8.397-.84 14.754-2.519 18.833l-.03-.03Zm54.309-46.932c-8.427 0-14.904 2.219-19.493 6.627-4.588 4.409-6.867 11.576-6.867 21.502 0 9.926 2.279 17.064 6.867 21.442 4.589 4.378 11.096 6.567 19.493 6.567 8.397 0 14.904-2.189 19.493-6.567 4.588-4.378 6.867-11.516 6.867-21.442s-2.279-17.093-6.867-21.502c-4.589-4.408-11.066-6.627-19.493-6.627Zm5.218 47.652c-1.289 4.288-3.029 6.417-5.218 6.417s-3.928-2.129-5.248-6.417c-1.289-4.259-1.949-10.796-1.949-19.553 0-8.757.66-15.294 1.949-19.582 1.29-4.319 3.059-6.478 5.248-6.478s3.929 2.159 5.218 6.478c1.29 4.318 1.949 10.855 1.949 19.582s-.659 15.264-1.949 19.553Zm63.726-47.652c-6.238 0-10.646 2.579-13.225 7.707v-7.377c-4.798.959-10.736 1.439-17.843 1.439-2.04 0-4.169-.09-6.358-.3v2.159c2.129 0 3.599.72 4.468 2.16.84 1.439 1.29 3.718 1.29 6.867v32.538c0 2.818-.42 4.738-1.29 5.787-.869 1.05-2.339 1.59-4.468 1.59v2.159c.9 0 1.619-.03 2.159-.09 7.377-.21 12.146-.3 14.275-.3 2.399 0 7.167.09 14.364.3.63.06 1.38.09 2.25.09v-2.159c-3.209 0-5.488-.6-6.808-1.8-1.319-1.199-2.009-3.388-2.009-6.627v-30.768c0-1.98.57-3.809 1.739-5.488 1.17-1.68 2.609-2.879 4.319-3.629.959-.48 2.039-.72 3.268-.72-3.478 2.339-5.248 5.518-5.248 9.537 0 2.249.78 4.048 2.369 5.398 1.56 1.349 3.839 2.009 6.778 2.009 2.939 0 5.068-.9 6.837-2.729 1.74-1.799 2.609-4.258 2.609-7.347 0-2.819-.749-5.218-2.219-7.287-1.469-2.04-3.898-3.089-7.227-3.089l-.03-.03Zm41.234 49.031c-1.019.48-1.949.72-2.759.72-1.109 0-1.889-.27-2.369-.81-.48-.54-.719-1.499-.719-2.879v-42.584h10.046v-2.039h-10.046v-16.613c-2.669 1.559-5.488 2.729-8.457 3.448-2.969.72-6.298 1.08-10.016 1.08v12.115h-7.797v2.039h7.797v34.877c0 3.839.21 6.808.659 8.937.45 2.129 1.38 3.898 2.819 5.338 2.339 2.339 5.848 3.478 10.556 3.478 6.568 0 11.426-2.699 14.575-8.096l-1.53-1.23c-.809 1.02-1.739 1.769-2.759 2.249v-.03ZM15.714 67.714h25.04c7.407 0 13.525-1.02 18.323-3.029 4.798-2.01 8.577-4.588 11.366-7.707a26.226 26.226 0 0 0 5.818-10.466c1.08-3.869 1.65-7.617 1.65-11.216 0-3.598-.54-7.347-1.65-11.215-1.08-3.87-3.03-7.378-5.818-10.467-2.789-3.118-6.568-5.667-11.366-7.707-4.798-2.009-10.916-3.028-18.323-3.028H0v115.815h15.714v-51.04.06Zm0-51.04h20.602c3.059 0 6.088.24 9.086.749 3 .48 5.668 1.38 8.007 2.699 2.34 1.32 4.229 3.209 5.638 5.638 1.44 2.459 2.13 5.638 2.13 9.566 0 3.929-.72 7.138-2.13 9.567-1.41 2.459-3.298 4.348-5.638 5.637-2.339 1.32-5.008 2.22-8.007 2.7-2.998.48-6.027.72-9.086.72H15.714V16.642v.032Zm163.618 102.081-32.898-52.84c4.378-.45 8.307-1.62 11.876-3.51 3.538-1.888 6.537-4.257 8.996-7.046a29.417 29.417 0 0 0 5.638-9.327c1.32-3.449 1.949-7.017 1.949-10.706 0-3.688-.54-7.347-1.649-11.215-1.08-3.869-3.029-7.378-5.818-10.466-2.789-3.12-6.567-5.668-11.366-7.708-4.798-2.009-10.915-3.028-18.323-3.028H96.983v115.815h15.714v-51.04h17.513l29.449 51.041h19.613l.06.03Zm-45.973-64.776h-20.602V16.674h20.602c3.059 0 6.088.24 9.087.75 2.998.48 5.667 1.38 8.007 2.699 2.339 1.32 4.228 3.209 5.637 5.638 1.44 2.459 2.13 5.638 2.13 9.566 0 3.929-.72 7.138-2.13 9.567-1.409 2.459-3.298 4.348-5.637 5.637-2.34 1.32-5.009 2.22-8.007 2.7-3.005.48-6.044.721-9.087.72v.03-.002Zm141.336 50.051h-61.986V66.904h54.969V52.18h-54.969V17.663h59.047V2.938h-74.761v115.816h77.7V104.03Zm91.136 0h-53.17V2.938h-15.714v115.816h68.884V104.03Zm93.564 13.015c7.407-3.089 13.765-7.377 19.043-12.835 5.308-5.458 9.446-11.876 12.445-19.313 2.999-7.407 4.499-15.444 4.499-24.05 0-8.607-1.5-16.644-4.499-24.051-2.999-7.407-7.137-13.855-12.445-19.313-5.278-5.458-11.636-9.746-19.043-12.835C451.988 1.559 443.831 0 435.014 0c-8.816 0-16.973 1.559-24.38 4.648-7.408 3.119-13.765 7.377-19.073 12.835-5.278 5.458-9.416 11.875-12.445 19.313-2.999 7.407-4.499 15.444-4.499 24.05 0 8.607 1.5 16.644 4.499 24.051 2.999 7.438 7.137 13.855 12.445 19.313 5.308 5.458 11.636 9.746 19.073 12.835 7.407 3.089 15.534 4.648 24.38 4.648 8.847 0 16.974-1.559 24.381-4.648Zm-56.109-23.63c-3.808-4.14-6.777-9.027-8.846-14.635-2.069-5.608-3.089-11.606-3.089-17.934 0-6.327 1.05-12.295 3.089-17.903 2.069-5.608 5.008-10.496 8.846-14.634 3.809-4.139 8.397-7.437 13.735-9.896 5.338-2.46 11.336-3.689 17.993-3.689 6.658 0 12.656 1.23 17.994 3.689 5.338 2.459 9.926 5.757 13.764 9.896 3.809 4.138 6.778 9.026 8.817 14.634 2.069 5.608 3.119 11.576 3.119 17.903 0 6.328-1.05 12.296-3.119 17.934-2.069 5.608-5.008 10.496-8.817 14.634-3.808 4.168-8.396 7.437-13.764 9.896-5.338 2.459-11.336 3.689-17.994 3.689-6.657 0-12.655-1.23-17.993-3.689-5.338-2.459-9.926-5.757-13.735-9.895Zm158.19 25.339L607.119 2.938h-17.154l-35.356 94.226h-.33L520.242 2.938h-18.143l44.653 115.816h14.724Zm75.272-51.85h54.969V52.18h-54.969V17.663h59.047V2.938h-74.761v115.816h77.7V104.03h-61.986V66.904Zm146.824 46.932c7.917-3.268 14.544-7.617 19.882-13.015 5.338-5.398 9.387-11.545 12.116-18.473a58.146 58.146 0 0 0 4.078-21.502c0-3.598-.39-7.527-1.139-11.785a61.7 61.7 0 0 0-3.779-12.745c-1.739-4.259-4.108-8.397-7.107-12.445-2.999-4.049-6.778-7.618-11.276-10.706-4.528-3.09-9.866-5.578-16.044-7.438-6.177-1.859-13.345-2.789-21.502-2.789h-40.394v115.816h37.785c10.346 0 19.493-1.649 27.41-4.918h-.03Zm-49.481-9.806V17.663h23.571c9.386 0 17.003 1.56 22.911 4.648 5.878 3.119 10.496 6.897 13.825 11.366 3.329 4.468 5.578 9.176 6.777 14.154 1.2 4.978 1.8 9.297 1.8 13.015 0 7.198-1.32 13.495-3.929 18.893-2.609 5.398-6.178 9.897-10.646 13.495-4.468 3.599-9.686 6.298-15.624 8.097-5.938 1.799-12.235 2.699-18.893 2.699h-19.792ZM97.043 214.658H2.159v8.667h94.884v-8.667Zm719.397 0h-94.884v8.667h94.884v-8.667Z"/></svg>