<svg width="820" height="263" viewBox="0 0 820 263" fill="none" xmlns="http://www.w3.org/2000/svg">
<path d="M209.29 239.459C208.42 238.019 208.001 235.74 208.001 232.591V163.647C203.202 164.607 197.265 165.087 190.157 165.087C188.028 165.087 185.929 164.997 183.8 164.787V166.946C185.929 166.946 187.398 167.666 188.268 169.105C189.138 170.545 189.558 172.824 189.558 175.973V191.777C186.829 190.067 183.26 189.198 178.882 189.198C171.834 189.198 166.286 191.537 162.208 196.215C158.13 200.893 156.09 207.791 156.09 216.877C156.09 226.444 158.01 233.581 161.848 238.259C165.687 242.937 170.755 245.276 177.022 245.276C180.021 245.276 182.51 244.677 184.459 243.417C186.409 242.188 188.088 240.238 189.528 237.569V244.857C194.326 243.897 200.263 243.417 207.371 243.417C209.5 243.417 211.599 243.507 213.728 243.717V241.558C211.599 241.558 210.13 240.838 209.26 239.399L209.29 239.459ZM189.528 232.591C189.528 234.72 188.778 236.49 187.308 237.869C185.839 239.279 184.1 239.968 182.12 239.968C179.991 239.968 178.312 238.289 177.082 234.9C175.853 231.512 175.223 225.604 175.223 217.207C175.223 208.81 176.003 202.753 177.532 198.674C179.062 194.596 181.461 192.556 184.669 192.556C186.379 192.556 187.998 193.006 189.498 193.876V232.561L189.528 232.591ZM266.388 240.118C265.849 240.418 265.339 240.568 264.859 240.568C264.229 240.568 263.809 240.268 263.569 239.639C263.33 239.009 263.21 237.869 263.21 236.16V208.66C263.21 204.822 263 201.853 262.55 199.694C262.1 197.535 261.2 195.735 259.821 194.296C257.902 192.317 255.593 190.967 252.834 190.247C250.105 189.528 246.836 189.168 243.087 189.168C235.98 189.168 230.492 190.277 226.684 192.436C224.494 193.666 222.875 195.045 221.855 196.545C220.836 198.044 220.326 199.814 220.326 201.883C220.326 204.492 221.106 206.621 222.635 208.3C224.164 209.98 226.264 210.819 228.933 210.819C231.602 210.819 233.881 210.01 235.77 208.42C237.659 206.801 238.589 204.672 238.589 202.003C238.589 200.024 238.019 198.224 236.91 196.605C235.77 194.985 234.061 193.786 231.722 192.976C233.431 191.807 235.35 191.237 237.479 191.237C240.148 191.237 242.038 192.107 243.117 193.816C244.197 195.525 244.767 197.475 244.767 199.664V208.78C244.767 210.64 243.897 212.049 242.188 213.099C240.478 214.118 237.779 215.258 234.091 216.487C230.612 217.657 227.763 218.766 225.574 219.876C223.385 220.986 221.495 222.515 219.876 224.554C218.257 226.563 217.477 229.113 217.477 232.201C217.477 235.77 218.587 238.709 220.806 241.078C223.025 243.447 226.324 244.617 230.702 244.617C237.06 244.617 241.858 242.008 245.067 236.82C245.216 239.219 246.086 241.108 247.735 242.517C249.385 243.927 252.264 244.617 256.342 244.617C261.8 244.617 266.029 243.357 268.967 240.808L267.948 239.069C267.468 239.489 266.958 239.848 266.418 240.148L266.388 240.118ZM244.737 234.63C243.627 235.8 242.368 236.37 240.928 236.37C237.449 236.37 235.71 233.911 235.71 228.993C235.71 226.114 236.19 223.835 237.15 222.155C238.109 220.476 239.519 218.766 241.348 216.967C242.997 215.318 244.107 213.998 244.737 212.979V234.63ZM325.856 239.459C324.986 238.019 324.566 235.74 324.566 232.591V163.647C319.768 164.607 313.831 165.087 306.723 165.087C304.594 165.087 302.495 164.997 300.366 164.787V166.946C302.495 166.946 303.964 167.666 304.834 169.105C305.704 170.545 306.123 172.824 306.123 175.973V191.777C303.395 190.067 299.826 189.198 295.448 189.198C288.4 189.198 282.852 191.537 278.774 196.215C274.695 200.893 272.656 207.791 272.656 216.877C272.656 226.444 274.575 233.581 278.414 238.259C282.253 242.937 287.321 245.276 293.588 245.276C296.587 245.276 299.076 244.677 301.025 243.417C302.975 242.188 304.654 240.238 306.093 237.569V244.857C310.892 243.897 316.829 243.417 323.937 243.417C326.066 243.417 328.165 243.507 330.294 243.717V241.558C328.165 241.558 326.696 240.838 325.826 239.399L325.856 239.459ZM306.093 232.591C306.093 234.72 305.344 236.49 303.874 237.869C302.405 239.279 300.666 239.968 298.686 239.968C296.557 239.968 294.878 238.289 293.648 234.9C292.419 231.512 291.789 225.604 291.789 217.207C291.789 208.81 292.569 202.753 294.098 198.674C295.627 194.596 298.027 192.556 301.235 192.556C302.945 192.556 304.564 193.006 306.064 193.876V232.561L306.093 232.591ZM382.954 240.118C382.415 240.418 381.905 240.568 381.425 240.568C380.795 240.568 380.375 240.268 380.135 239.639C379.895 239.009 379.776 237.869 379.776 236.16V208.66C379.776 204.822 379.566 201.853 379.116 199.694C378.666 197.535 377.766 195.735 376.387 194.296C374.468 192.317 372.158 190.967 369.399 190.247C366.641 189.528 363.402 189.168 359.653 189.168C352.546 189.168 347.058 190.277 343.249 192.436C341.06 193.666 339.441 195.045 338.421 196.545C337.402 198.044 336.892 199.814 336.892 201.883C336.892 204.492 337.672 206.621 339.201 208.3C340.73 209.98 342.83 210.819 345.499 210.819C348.168 210.819 350.447 210.01 352.336 208.42C354.225 206.801 355.155 204.672 355.155 202.003C355.155 200.024 354.585 198.224 353.476 196.605C352.336 194.985 350.627 193.786 348.288 192.976C349.997 191.807 351.916 191.237 354.045 191.237C356.714 191.237 358.604 192.107 359.683 193.816C360.763 195.525 361.333 197.475 361.333 199.664V208.78C361.333 210.64 360.463 212.049 358.754 213.099C357.044 214.118 354.345 215.258 350.657 216.487C347.178 217.657 344.329 218.766 342.14 219.876C339.951 220.986 338.061 222.515 336.442 224.554C334.823 226.563 334.043 229.113 334.043 232.201C334.043 235.77 335.152 238.709 337.372 241.078C339.591 243.447 342.89 244.617 347.268 244.617C353.625 244.617 358.424 242.008 361.632 236.82C361.782 239.219 362.652 241.108 364.301 242.517C365.951 243.927 368.83 244.617 372.908 244.617C378.366 244.617 382.594 243.357 385.533 240.808L384.514 239.069C384.034 239.489 383.524 239.848 382.984 240.148L382.954 240.118ZM361.303 234.63C360.193 235.8 358.933 236.37 357.494 236.37C354.015 236.37 352.276 233.911 352.276 228.993C352.276 226.114 352.756 223.835 353.715 222.155C354.675 220.476 356.085 218.766 357.914 216.967C359.563 215.318 360.673 213.998 361.303 212.979V234.63ZM442.961 212.169C441.978 211.371 440.988 210.582 439.992 209.8C436.784 207.281 434.415 205.122 432.915 203.382C431.416 201.643 430.666 199.634 430.666 197.385C430.666 195.615 431.236 194.206 432.405 193.186C433.575 192.167 435.014 191.657 436.724 191.657C440.562 191.657 443.471 193.216 445.51 196.335C447.52 199.454 448.809 203.262 449.349 207.761H451.388C451.388 199.004 451.538 192.856 451.808 189.288H449.769C449.499 191.477 448.629 192.556 447.19 192.556C446.71 192.556 446.08 192.346 445.33 191.927C444.101 191.237 442.302 190.607 439.932 190.037C437.466 189.45 434.94 189.159 432.405 189.168C428.987 189.168 425.808 189.767 422.869 190.967C419.93 192.167 417.561 193.906 415.792 196.155C414.022 198.404 413.123 201.013 413.123 203.952C413.123 206.471 413.662 208.78 414.712 210.879C415.762 212.979 417.051 214.808 418.551 216.367C420.05 217.927 422.239 220.056 425.118 222.725C427.637 224.974 429.466 226.713 430.606 227.913C431.751 229.12 432.72 230.483 433.485 231.961C434.265 233.461 434.655 235.17 434.655 237.089C434.655 239.009 434.085 240.328 432.975 241.288C431.836 242.248 430.426 242.727 428.717 242.727C425.088 242.727 422.089 241.018 419.69 237.599C417.291 234.181 415.792 229.652 415.162 224.044H413.123C413.123 233.821 412.973 240.658 412.703 244.557H414.742C415.372 242.158 416.301 240.958 417.621 240.958C418.371 240.958 419.12 241.108 419.87 241.378C420.62 241.648 421.579 242.098 422.749 242.697C425.478 244.407 429.017 245.276 433.305 245.276C437.054 245.276 440.532 244.617 443.711 243.267C446.89 241.918 449.409 240.058 451.238 237.629C453.098 235.2 453.997 232.471 453.997 229.472C453.997 225.904 453.097 222.935 451.328 220.506C449.559 218.077 446.74 215.288 442.901 212.139L442.961 212.169ZM498.59 189.198C491.333 189.198 486.145 191.777 482.996 196.905V189.618C478.198 190.577 472.26 191.057 465.153 191.057C463.024 191.057 460.925 190.967 458.795 190.757V192.916C460.925 192.916 462.394 193.636 463.264 195.075C464.103 196.515 464.553 198.794 464.553 201.943V252.923C464.553 255.712 464.133 257.662 463.264 258.711C462.394 259.761 460.925 260.301 458.795 260.301V262.46C466.173 262.19 470.911 262.04 472.95 262.04C475.349 262.04 480.657 262.13 488.844 262.34L491.813 262.43V260.271C488.874 260.271 486.655 259.641 485.185 258.411C483.716 257.182 482.966 254.993 482.966 251.844V243.327C485.365 244.617 488.544 245.276 492.503 245.276C499.7 245.276 505.458 242.937 509.836 238.259C514.214 233.581 516.403 225.784 516.403 214.928C516.403 206.501 514.754 200.114 511.485 195.735C508.217 191.357 503.898 189.168 498.56 189.168L498.59 189.198ZM494.752 236.13C493.072 240.208 490.343 242.248 486.595 242.248C485.095 242.248 483.896 241.978 482.996 241.438V201.943C482.996 199.814 483.716 198.074 485.215 196.665C486.685 195.255 488.424 194.566 490.403 194.566C492.533 194.566 494.212 196.245 495.441 199.634C496.671 203.022 497.301 208.93 497.301 217.327C497.301 225.724 496.461 232.081 494.782 236.16L494.752 236.13ZM549.061 189.198C540.634 189.198 534.157 191.417 529.568 195.825C524.98 200.234 522.701 207.401 522.701 217.327C522.701 227.253 524.98 234.391 529.568 238.769C534.157 243.147 540.664 245.336 549.061 245.336C557.458 245.336 563.965 243.147 568.554 238.769C573.142 234.391 575.421 227.253 575.421 217.327C575.421 207.401 573.142 200.234 568.554 195.825C563.965 191.417 557.488 189.198 549.061 189.198ZM554.279 236.85C552.99 241.138 551.25 243.267 549.061 243.267C546.872 243.267 545.133 241.138 543.813 236.85C542.524 232.591 541.864 226.054 541.864 217.297C541.864 208.54 542.524 202.003 543.813 197.715C545.103 193.396 546.872 191.237 549.061 191.237C551.25 191.237 552.99 193.396 554.279 197.715C555.569 202.033 556.228 208.57 556.228 217.297C556.228 226.024 555.569 232.561 554.279 236.85ZM618.005 189.198C611.767 189.198 607.359 191.777 604.78 196.905V189.528C599.982 190.487 594.044 190.967 586.937 190.967C584.897 190.967 582.768 190.877 580.579 190.667V192.826C582.708 192.826 584.178 193.546 585.047 194.986C585.887 196.425 586.337 198.704 586.337 201.853V234.391C586.337 237.209 585.917 239.129 585.047 240.178C584.178 241.228 582.708 241.768 580.579 241.768V243.927C581.479 243.927 582.198 243.897 582.738 243.837C590.115 243.627 594.884 243.537 597.013 243.537C599.412 243.537 604.18 243.627 611.377 243.837C612.007 243.897 612.757 243.927 613.627 243.927V241.768C610.418 241.768 608.139 241.168 606.819 239.968C605.5 238.769 604.81 236.58 604.81 233.341V202.573C604.81 200.593 605.38 198.764 606.549 197.085C607.719 195.405 609.158 194.206 610.868 193.456C611.827 192.976 612.907 192.736 614.136 192.736C610.658 195.075 608.888 198.254 608.888 202.273C608.888 204.522 609.668 206.321 611.257 207.671C612.817 209.02 615.096 209.68 618.035 209.68C620.974 209.68 623.103 208.78 624.872 206.951C626.612 205.152 627.481 202.693 627.481 199.604C627.481 196.785 626.732 194.386 625.262 192.317C623.793 190.277 621.364 189.228 618.035 189.228L618.005 189.198ZM659.239 238.229C658.22 238.709 657.29 238.949 656.48 238.949C655.371 238.949 654.591 238.679 654.111 238.139C653.631 237.599 653.392 236.64 653.392 235.26V192.676H663.438V190.637H653.392V174.024C650.723 175.583 647.904 176.753 644.935 177.472C641.966 178.192 638.637 178.552 634.919 178.552V190.667H627.122V192.706H634.919V227.583C634.919 231.422 635.129 234.391 635.578 236.52C636.028 238.649 636.958 240.418 638.397 241.858C640.736 244.197 644.245 245.336 648.953 245.336C655.521 245.336 660.379 242.637 663.528 237.24L661.998 236.01C661.189 237.03 660.259 237.779 659.239 238.259V238.229ZM15.714 67.714H40.754C48.161 67.714 54.279 66.694 59.077 64.685C63.875 62.675 67.654 60.097 70.443 56.978C73.1635 53.9847 75.1547 50.4026 76.261 46.512C77.341 42.643 77.911 38.895 77.911 35.296C77.911 31.698 77.371 27.949 76.261 24.081C75.181 20.211 73.231 16.703 70.443 13.614C67.654 10.496 63.875 7.947 59.077 5.907C54.279 3.898 48.161 2.879 40.754 2.879H0V118.694H15.714V67.654V67.714ZM15.714 16.674H36.316C39.375 16.674 42.404 16.914 45.402 17.423C48.402 17.903 51.07 18.803 53.409 20.122C55.749 21.442 57.638 23.331 59.047 25.76C60.487 28.219 61.177 31.398 61.177 35.326C61.177 39.255 60.457 42.464 59.047 44.893C57.637 47.352 55.749 49.241 53.409 50.53C51.07 51.85 48.401 52.75 45.402 53.23C42.404 53.71 39.375 53.95 36.316 53.95H15.714V16.642V16.674ZM179.332 118.755L146.434 65.915C150.812 65.465 154.741 64.295 158.31 62.405C161.848 60.517 164.847 58.148 167.306 55.359C169.75 52.6282 171.662 49.465 172.944 46.032C174.264 42.583 174.893 39.015 174.893 35.326C174.893 31.638 174.353 27.979 173.244 24.111C172.164 20.242 170.215 16.733 167.426 13.645C164.637 10.525 160.859 7.977 156.06 5.937C151.262 3.928 145.145 2.909 137.737 2.909H96.983V118.724H112.697V67.684H130.21L159.659 118.725H179.272L179.332 118.755ZM133.359 53.979H112.757V16.674H133.359C136.418 16.674 139.447 16.914 142.446 17.424C145.444 17.904 148.113 18.804 150.453 20.123C152.792 21.443 154.681 23.332 156.09 25.761C157.53 28.22 158.22 31.399 158.22 35.327C158.22 39.256 157.5 42.465 156.09 44.894C154.681 47.353 152.792 49.242 150.453 50.531C148.113 51.851 145.444 52.751 142.446 53.231C139.441 53.7114 136.402 53.9521 133.359 53.951V53.981V53.979ZM274.695 104.03H212.709V66.904H267.678V52.18H212.709V17.663H271.756V2.938H196.995V118.754H274.695V104.03ZM365.831 104.03H312.661V2.938H296.947V118.754H365.831V104.03ZM459.395 117.045C466.802 113.956 473.16 109.668 478.438 104.21C483.746 98.752 487.884 92.334 490.883 84.897C493.882 77.49 495.382 69.453 495.382 60.847C495.382 52.24 493.882 44.203 490.883 36.796C487.884 29.389 483.746 22.941 478.438 17.483C473.16 12.025 466.802 7.737 459.395 4.648C451.988 1.559 443.831 0 435.014 0C426.198 0 418.041 1.559 410.634 4.648C403.226 7.767 396.869 12.025 391.561 17.483C386.283 22.941 382.145 29.358 379.116 36.796C376.117 44.203 374.617 52.24 374.617 60.846C374.617 69.453 376.117 77.49 379.116 84.897C382.115 92.335 386.253 98.752 391.561 104.21C396.869 109.668 403.197 113.956 410.634 117.045C418.041 120.134 426.168 121.693 435.014 121.693C443.861 121.693 451.988 120.134 459.395 117.045ZM403.286 93.415C399.478 89.275 396.509 84.388 394.44 78.78C392.371 73.172 391.351 67.174 391.351 60.846C391.351 54.519 392.401 48.551 394.44 42.943C396.509 37.335 399.448 32.447 403.286 28.309C407.095 24.17 411.683 20.872 417.021 18.413C422.359 15.953 428.357 14.724 435.014 14.724C441.672 14.724 447.67 15.954 453.008 18.413C458.346 20.872 462.934 24.17 466.772 28.309C470.581 32.447 473.55 37.335 475.589 42.943C477.658 48.551 478.708 54.519 478.708 60.846C478.708 67.174 477.658 73.142 475.589 78.78C473.52 84.388 470.581 89.276 466.772 93.414C462.964 97.582 458.376 100.851 453.008 103.31C447.67 105.769 441.672 106.999 435.014 106.999C428.357 106.999 422.359 105.769 417.021 103.31C411.683 100.851 407.095 97.553 403.286 93.415ZM561.476 118.754L607.119 2.938H589.965L554.609 97.164H554.279L520.242 2.938H502.099L546.752 118.754H561.476ZM636.748 66.904H691.717V52.18H636.748V17.663H695.795V2.938H621.034V118.754H698.734V104.03H636.748V66.904ZM783.572 113.836C791.489 110.568 798.116 106.219 803.454 100.821C808.792 95.423 812.841 89.276 815.57 82.348C818.278 75.5034 819.662 68.2069 819.648 60.846C819.648 57.248 819.258 53.319 818.509 49.061C817.712 44.689 816.445 40.4159 814.73 36.316C812.991 32.057 810.622 27.919 807.623 23.871C804.624 19.822 800.845 16.253 796.347 13.165C791.819 10.075 786.481 7.587 780.303 5.727C774.126 3.868 766.958 2.938 758.801 2.938H718.407V118.754H756.192C766.538 118.754 775.685 117.105 783.602 113.836H783.572ZM734.091 104.03V17.663H757.662C767.048 17.663 774.665 19.223 780.573 22.311C786.451 25.43 791.069 29.208 794.398 33.677C797.727 38.145 799.976 42.853 801.175 47.831C802.375 52.809 802.975 57.128 802.975 60.846C802.975 68.044 801.655 74.341 799.046 79.739C796.437 85.137 792.868 89.636 788.4 93.234C783.932 96.833 778.714 99.532 772.776 101.331C766.838 103.13 760.541 104.03 753.883 104.03H734.091ZM97.043 214.658H2.159V223.325H97.043V214.658ZM816.44 214.658H721.556V223.325H816.44V214.658Z" fill="black"/>
</svg>
