<svg xmlns="http://www.w3.org/2000/svg" width="810" height="268" fill="none"><path stroke="#1A2341" stroke-miterlimit="10" stroke-width="1.105" d="M317.639 264.059H1m354.687 2.311v-40.418h8.359v33.036h22.08v7.382h-30.439Zm37.569 0 16.597-40.448h9.677l16.388 40.448h-9.048l-4.104-10.622h-16.658l-4.164 10.622h-8.688Zm15.429-17.313h11.534l-5.722-14.913-5.812 14.913Zm34.962-23.105h18.965c4.044 0 7.31 1.02 9.856 3.091 2.547 2.07 3.805 4.741 3.805 8.011a9.387 9.387 0 0 1-1.318 4.861c-.869 1.471-2.097 2.671-3.625 3.631 1.917.93 3.475 2.19 4.613 3.781 1.169 1.59 1.738 3.39 1.738 5.341 0 3.51-1.288 6.331-3.895 8.491-2.606 2.161-6.021 3.241-10.246 3.241h-19.893v-40.448Zm18.455 6.932h-10.096v9.601h10.096c1.768 0 3.206-.42 4.254-1.29 1.079-.87 1.618-2.04 1.618-3.481 0-1.44-.539-2.64-1.618-3.48-1.048-.93-2.486-1.35-4.254-1.35Zm.809 26.555c1.918 0 3.475-.481 4.614-1.411 1.138-.93 1.738-2.22 1.738-3.84 0-1.531-.57-2.791-1.738-3.751-1.169-.96-2.696-1.44-4.614-1.44h-10.905v10.442h10.905Zm65.521-13.263c0 2.881-.569 5.611-1.678 8.162a20.98 20.98 0 0 1-4.524 6.631c-1.917 1.86-4.164 3.33-6.77 4.411-2.607 1.08-5.423 1.62-8.419 1.62-2.966 0-5.752-.54-8.359-1.62-2.606-1.081-4.883-2.551-6.77-4.411-1.918-1.86-3.416-4.081-4.524-6.631-1.109-2.551-1.678-5.281-1.678-8.162 0-2.88.569-5.611 1.678-8.161a20.984 20.984 0 0 1 4.524-6.632c1.917-1.86 4.164-3.33 6.77-4.411 2.607-1.08 5.393-1.62 8.359-1.62 2.996 0 5.812.54 8.419 1.62 2.606 1.081 4.883 2.551 6.77 4.411 1.918 1.861 3.416 4.081 4.524 6.632 1.109 2.55 1.678 5.251 1.678 8.161Zm-8.598 0c0-1.89-.33-3.631-.989-5.221a13.516 13.516 0 0 0-2.696-4.171 12.103 12.103 0 0 0-4.075-2.76 13.042 13.042 0 0 0-5.063-1.02c-1.797 0-3.475.33-5.063 1.02a12.266 12.266 0 0 0-4.044 2.76c-1.139 1.171-2.038 2.551-2.697 4.171-.659 1.59-.988 3.331-.988 5.221 0 1.86.329 3.571.988 5.191a13.285 13.285 0 0 0 2.697 4.201 12.266 12.266 0 0 0 4.044 2.76c1.558.69 3.236 1.021 5.063 1.021 1.798 0 3.505-.331 5.063-1.021a12.103 12.103 0 0 0 4.075-2.76c1.138-1.17 2.037-2.581 2.696-4.201.659-1.62.989-3.361.989-5.191Zm18.634 20.194v-40.418h19.713c2.038 0 3.925.3 5.633.93 1.707.631 3.175 1.471 4.404 2.581a11.813 11.813 0 0 1 2.876 3.961c.689 1.53 1.048 3.24 1.048 5.071 0 2.55-.719 4.801-2.157 6.811-1.438 2.01-3.355 3.481-5.722 4.441l8.928 16.623h-9.347l-7.909-15.483h-9.108v15.483h-8.359Zm18.964-33.216h-10.605v10.862h10.605c1.888 0 3.386-.51 4.524-1.501 1.139-.99 1.708-2.31 1.708-3.93 0-1.621-.569-2.941-1.708-3.931-1.108-.99-2.636-1.5-4.524-1.5Zm21.242 33.216 16.597-40.448h9.677l16.387 40.448h-9.047l-4.105-10.622h-16.657l-4.164 10.622h-8.688Zm15.459-17.313h11.534l-5.722-14.913-5.812 14.913Zm24.446-15.723v-7.382h35.532v7.382h-13.542v33.036h-8.358v-33.036h-13.632Zm83.227 12.842c0 2.881-.569 5.611-1.678 8.162a20.98 20.98 0 0 1-4.524 6.631c-1.917 1.86-4.164 3.33-6.77 4.411-2.607 1.08-5.423 1.62-8.419 1.62-2.966 0-5.752-.54-8.359-1.62-2.606-1.081-4.883-2.551-6.77-4.411-1.918-1.86-3.416-4.081-4.524-6.631-1.109-2.551-1.678-5.281-1.678-8.162 0-2.88.569-5.611 1.678-8.161a20.984 20.984 0 0 1 4.524-6.632c1.917-1.86 4.164-3.33 6.77-4.411 2.607-1.08 5.393-1.62 8.359-1.62 2.996 0 5.812.54 8.419 1.62 2.606 1.081 4.883 2.551 6.77 4.411 1.918 1.861 3.416 4.081 4.524 6.632 1.109 2.55 1.678 5.251 1.678 8.161Zm-8.598 0c0-1.89-.33-3.631-.989-5.221a13.516 13.516 0 0 0-2.696-4.171 12.103 12.103 0 0 0-4.075-2.76 13.042 13.042 0 0 0-5.063-1.02c-1.797 0-3.475.33-5.063 1.02a12.28 12.28 0 0 0-4.045 2.76c-1.138 1.171-2.037 2.551-2.696 4.171-.659 1.59-.988 3.331-.988 5.221 0 1.86.329 3.571.988 5.191a13.3 13.3 0 0 0 2.696 4.201 12.28 12.28 0 0 0 4.045 2.76c1.558.69 3.236 1.021 5.063 1.021 1.798 0 3.505-.331 5.063-1.021a12.103 12.103 0 0 0 4.075-2.76c1.138-1.17 2.037-2.581 2.696-4.201.659-1.62.989-3.361.989-5.191Zm18.634-20.224h8.359V266.4h-8.359v-40.448Zm20.013 40.418v-40.418h19.713c2.037 0 3.925.3 5.632.93 1.708.631 3.176 1.471 4.404 2.581a11.802 11.802 0 0 1 2.877 3.961c.689 1.53 1.048 3.24 1.048 5.071 0 2.55-.719 4.801-2.157 6.811-1.438 2.01-3.355 3.481-5.722 4.441l8.928 16.623h-9.348l-7.909-15.483h-9.107v15.483h-8.359Zm18.964-33.216h-10.605v10.862h10.605c1.888 0 3.386-.51 4.524-1.501 1.138-.99 1.708-2.31 1.708-3.93 0-1.621-.57-2.941-1.708-3.931-1.138-.99-2.636-1.5-4.524-1.5Zm24.507-7.202h31.038v7.292h-22.68v9.241h14.95v7.052h-14.95v9.602h22.889v7.291h-31.247v-40.478ZM186.597 49.669c-21.72 0-33.764 11.432-39.576 19.594V52.49h-14.26V220.7h14.26v-63.702c5.932 8.222 17.856 19.684 38.198 19.684 31.847 0 54.077-26.105 54.077-63.522-.03-38.557-20.702-63.492-52.699-63.492Zm-1.408 115.732c-24.027 0-39.846-24.125-39.846-52 0-38.857 21.961-53.47 41.015-53.47 22.11 0 38.168 22.384 38.168 53.23 0 30.276-16.538 52.24-39.337 52.24Zm282.006-18.604c-.12.18-13.002 19.474-37.119 19.474-26.334 0-47.755-23.704-47.755-52.87 0-30.066 20.971-53.59 47.755-53.59 20.941 0 33.794 17.733 33.914 17.913l1.767 2.46 8.988-11.791-1.168-1.38c-.6-.72-15.01-17.404-43.501-17.404-35.622 0-62.495 27.395-62.495 63.762 0 36.667 26.274 63.282 62.495 63.282 29.659 0 45.208-18.273 45.867-19.054l1.049-1.26-7.849-12.512-1.948 2.97Zm118.849-35.016c0 26.375-16.987 54.82-44.4 54.82-19.174 0-27.742-12.722-27.742-41.258V52.46h-14.261v76.394c0 33.096 12.583 47.859 40.775 47.859 23.548 0 38.317-14.193 45.657-25.265v22.475h14.261V52.46h-14.261v59.321h-.029Zm99.284-60.252c-14.14 0-26.723 8.582-34.662 23.045V52.46h-14.261v121.432h14.261v-52.749c0-8.702 1.078-25.055 3.415-32.496 4.644-15.634 14.71-22.595 32.655-22.595 2.337 0 4.974.42 5.004.45l2.606.42V52.67l-1.768-.39c-.149-.03-3.565-.75-7.25-.75Zm73.85-1.86c-15.819 0-30.439 5.881-41.164 16.593-11.654 11.642-17.826 27.966-17.826 47.169 0 36.667 26.274 63.282 62.495 63.282 25.825 0 42.452-16.083 43.141-16.773l1.289-1.29-8.209-12.513-1.888 2.731c-.119.18-12.373 17.673-34.363 17.673-26.574 0-46.766-22.534-47.725-52.78h93.353l.24-1.95c.03-.15.479-3.901.479-6.601.03-27.636-15.399-55.54-49.822-55.54Zm35.232 53.89h-78.853c4.644-25.504 22.53-43.718 43.291-43.718 19.384-.03 33.794 17.853 35.562 43.718ZM59.99 49.669c-15.819 0-30.439 5.881-41.164 16.593C7.172 77.904 1 94.228 1 113.431c0 36.667 24.567 63.282 60.757 63.282 25.825 0 44.16-16.083 44.849-16.773l1.288-1.29-8.208-12.513-1.888 2.731c-.12.18-14.08 17.673-36.07 17.673-26.575 0-45.06-22.534-45.988-52.78h93.353l.24-1.95c.029-.15.479-3.901.479-6.601.06-27.636-15.37-55.54-49.822-55.54Zm-43.8 53.8C17.267 80.365 38 58.851 58.73 58.851c19.384 0 37.24 19.594 36.52 44.678l-79.062-.06Zm408.463-89.927c9.647 0 22.08 3.301 30.948 7.112l4.494-11.733S445.325 1 428.907 1c-34.992 0-64.322 16.653-80.051 53.68-13.541 31.896-43.171 102.199-43.171 102.199l-42.692-104.39h-15.129l50.002 122.814-20.852 45.308 14.051-.06 17.376-43.748s37.12-90.107 49.014-116.902c13.811-31.206 38.557-46.359 67.198-46.359Z"/></svg>