<svg xmlns="http://www.w3.org/2000/svg" width="1033" height="120" fill="none"><path fill="#000" d="M621.726 2.299h28.893c4.03 7.295 4.03 7.295 5.664 10.491a332.966 332.966 0 0 0 4.28 8.07c1.827 3.346 3.578 6.73 5.319 10.123 1.3 2.532 2.633 5.046 3.998 7.543 1.816 3.315 3.553 6.669 5.276 10.033 1.3 2.532 2.633 5.046 3.999 7.543 1.812 3.31 3.545 6.66 5.268 10.02a346.496 346.496 0 0 0 4.723 8.872c1.123 2.051 2.161 4.116 3.206 6.216.179-39.061.179-39.061.357-78.911h22.829v115.497h-28.179l-6.421-12.196c-1.605-2.968-1.605-2.968-3.217-5.932-1.245-2.29-2.469-4.59-3.696-6.89-.453-.857-.909-1.714-1.366-2.57-.11-.212-.225-.425-.342-.643-1.17-2.205-2.351-4.406-3.528-6.607-.207-.382-.41-.763-.621-1.157l-1.237-2.307-3.114-5.817c-.418-.777-.832-1.554-1.249-2.331-7.491-13.989-7.491-13.989-8.115-15.157l-1.241-2.314c-.97-1.812-1.941-3.623-2.907-5.436-.343-.641-.685-1.283-1.031-1.925-.428-.805-.86-1.61-1.288-2.415a305 305 0 0 1-.592-1.105l-.513-.964c-.643-1.177-1.306-2.34-1.969-3.504l-.357 79.27h-22.829V2.299ZM0 2.299c69.248 0 69.248 0 80.146 10.133 6.518 6.969 8.238 15.136 8.059 24.44-.087 2.587-.345 4.925-1.17 7.393l-.22.664c-1.047 3.07-2.375 5.767-4.418 8.303l-.642.823c-2.575 3.115-6.01 5.77-9.702 7.427h-.713v.717l.929.111c4.277.876 8.045 3.974 10.418 7.556 3.28 5.526 3.605 11.177 3.8 17.477l.084 2.463c.043 1.27.084 2.538.125 3.808.245 9.46.245 9.46 1.765 18.779l.179.804c.291 1.268.653 2.371 1.248 3.523v1.076H65.633c-1.042-4.538-1.479-8.384-1.593-12.973l-.041-1.47c-.059-2.063-.115-4.126-.168-6.19-.032-1.269-.068-2.537-.105-3.806-.02-.706-.036-1.412-.053-2.118-.16-5.416-.42-11.354-4.461-15.41-4.285-3.287-8.72-3.393-13.88-3.411A833.56 833.56 0 0 1 43.6 72.4c-2.123-.021-4.247-.033-6.37-.046l-14.401-.111v45.553H0V2.299Zm22.829 19.727v30.847l12.886.068 4.038.03 2.431.005c.534.002 1.067.005 1.6.011 6.455.064 13.045-.811 17.925-5.494 3.028-3.269 4.036-7.064 3.924-11.478-.495-4.479-2.043-7.944-5.51-10.849-3.37-2.326-7.381-3.261-11.418-3.221h-.87c-.916 0-1.831.006-2.748.011l-1.71.003c-2.101.003-4.202.013-6.302.023l-14.246.044ZM497.595 5.168l.667.312c7.876 3.732 13.415 9.99 16.701 18.104 1.537 4.306 2.072 8.573 2.607 13.149h-23.899l-1.07-5.74c-1.901-4.592-3.988-7.394-8.6-9.316-3.028-1.083-6.032-1.65-9.235-1.803l-.838-.045c-5.261-.14-11.907.583-16.055 4.136-2.847 2.783-3.917 5.176-4.148 9.197-.011 3.35 1.194 5.814 3.517 8.201 3.078 2.657 7.073 3.813 10.932 4.828l.878.232c4.12 1.063 8.3 1.867 12.474 2.702 10.269 2.062 21.173 4.495 29.267 11.64l.81.71c4.804 4.511 7.487 10.866 7.793 17.435.339 10.067-1.344 19.644-8.247 27.408-.26.294-.517.589-.784.892-3.863 4.136-8.6 6.815-13.84 8.792l-.674.256c-7.266 2.681-15.114 3.414-22.801 3.421l-.784.001c-12.745-.02-25.633-2.965-34.953-12.286-6.585-7.028-9.631-16.63-9.631-26.184h23.899l.713 5.38c1.309 4.42 3.399 7.95 7.459 10.28 4.43 2.203 8.935 2.83 13.854 2.79l1.412-.007c3.649-.06 6.97-.483 10.448-1.585.353-.108.703-.216 1.067-.326 3.435-1.211 6.563-3.729 8.296-6.964 1.317-3.083 1.588-6.687.678-9.927-1.637-3.664-4.676-5.472-8.275-6.912-5.971-2.255-12.428-3.106-18.673-4.224-4.659-.838-9.267-1.723-13.819-3.05l-1.013-.296c-8.607-2.626-15.78-7.226-20.414-15.14-1.052-2.018-1.79-4.063-2.422-6.247l-.346-1.185c-2.122-8.712-1.034-18.356 3.557-26.075 4.59-7.052 11.41-11.637 19.261-14.347.378-.135.76-.27 1.149-.41 13.23-4.418 30.441-3.825 43.082 2.203Zm-87.391 5.022c.26.212.524.424.795.643 6.467 5.419 9.553 13.474 10.883 21.629.125 1.418.093 2.846.093 4.27h-23.542l-1.427-6.456c-1.805-4.346-4.152-6.796-8.472-8.677-7.144-2.645-15.887-2.43-22.918.427-3.178 1.637-5.621 4.113-6.777 7.532-.945 3.204-.407 6.389 1.07 9.327 4.099 6.332 13.191 7.512 19.975 8.967 1.72.357 3.439.7 5.158 1.046 12.595 2.532 26.2 5.37 34.479 16.221 5.186 7.921 5.521 17.641 3.716 26.708-1.965 8.727-7.037 15.591-14.399 20.55-13.359 8.244-32.328 9.216-47.292 5.699-5.875-1.497-11.579-3.877-16.262-7.813l-.902-.733c-7.561-6.441-10.905-15.413-11.939-25.092V81.21h23.899l.714 5.739c1.205 4.267 3.538 7.7 7.433 9.897 4.409 2.192 8.846 2.848 13.747 2.791l1.366-.01c6.375-.103 12.817-1.197 17.671-5.727 2.747-2.984 3.435-6.392 3.4-10.342-.139-1.763-.596-3.016-1.527-4.5-.182-.324-.182-.324-.371-.653-1.106-1.601-2.664-2.455-4.355-3.338a93.695 93.695 0 0 1-.635-.34c-5.393-2.64-11.668-3.419-17.51-4.435-4.523-.786-9.011-1.617-13.462-2.73l-1.035-.256c-9.461-2.434-17.899-6.644-23.271-15.15-4.084-7.424-5.516-17.575-3.321-25.87.254-.829.528-1.652.824-2.466l.404-1.159c3.261-8.565 10.052-14.225 18.169-17.908 16.43-7.208 41.488-6.843 55.621 5.437ZM100.232 2.299h79.544v20.803h-56.358v26.185h52.435V70.09h-52.435v27.26h57.785v20.446h-80.971V2.299Zm427.682 0h79.544v20.803h-56.715v26.185h52.791V70.09h-52.791v27.26h58.142v20.446h-80.971V2.299Zm332.444 0h79.187v20.803h-56.359v26.185h52.435V70.09h-52.435v27.26h58.142v20.446h-80.97V2.299Zm-136.259 0h90.245v20.803h-33.887v94.694h-22.829V23.102h-33.529V2.3Zm229.714 0h22.828V97.35H1033v20.445h-79.187V2.299Zm-130.909 0h22.829v115.497h-22.829V2.299ZM193.331 58.97h131.978v19.37H193.331V58.97Z"/></svg>