<svg xmlns="http://www.w3.org/2000/svg" width="1008" height="253" fill="none"><path fill="#044C8F" d="m3.396.003 1.209.004L5.883.004c1.433-.002 2.865 0 4.297.002l3.09-.003c2.843-.002 5.687 0 8.531.001 3.062.001 6.124 0 9.185-.002 6.004-.003 12.007-.002 18.01 0h20.95C82.778 0 95.61.001 108.442.003c11.724.003 23.448.003 35.172 0a109991.095 109991.095 0 0 1 45.775-.001c4.874 0 9.748 0 14.622-.002 5.935-.002 11.871-.001 17.806.002 3.031.001 6.063.002 9.094 0 2.771-.002 5.541 0 8.311.002h3.021c1.359-.003 2.719 0 4.078.002l1.209-.004c2.693.01 2.693.01 3.318.635.649 5.831.642 11.71.633 17.57l.002 2.678c.003 2.43.001 4.86 0 7.29-.002 2.63 0 5.261.002 7.892.002 5.148.002 10.297 0 15.445l-.001 12.585.001 1.816v3.653c.002 11.41 0 22.821-.003 34.232-.003 9.742-.002 19.484 0 29.226.004 11.35.005 22.7.003 34.049l-.001 3.653v1.814c0 4.171 0 8.343.002 12.514.001 5.112.001 10.223-.002 15.335-.001 2.596-.002 5.193 0 7.789.007 10.809-.078 21.611-.325 32.417l-.033 1.545c-.031 1.428-.066 2.856-.103 4.284l-.027 1.298c-.083 2.929-.083 2.929-.709 3.554a84.103 84.103 0 0 1-3.922.067l-1.258.002c-1.402.001-2.803-.002-4.205-.005a5569.226 5569.226 0 0 1-11.176-.007c-2.844-.004-5.689-.004-8.533-.005-5.391-.002-10.781-.006-16.171-.012-6.135-.006-12.27-.009-18.406-.012-12.623-.006-25.247-.016-37.871-.028l-1.064-2.899-.598-1.631c-3.64-10.236-5.669-20.887-7.661-31.535l-.213-1.142c-.72-3.91-1.193-7.608-1.123-11.575 1.938-1.182 3.104-1.687 5.399-1.647 2.124.589 2.733 1.119 4.138 2.768.638 1.321.638 1.321 1.146 2.788l.589 1.653.614 1.762c6.951 19.848 6.951 19.848 20.155 35.478 1.308.461 2.014.272 3.302-.188a58.909 58.909 0 0 0-4.768-7.324c-6.372-8.712-10.868-18.587-14.867-28.562l-.829-2.008c-1.045-2.654-1.6-4.14-.854-6.963 2.685-1.005 4.897-1.751 7.784-1.472 2.226 1.157 2.861 2.711 3.997 4.836 6.076 10.634 13.35 20.31 21.634 29.333l.83.905c1.391 1.489 2.785 2.809 4.464 3.966l2.244-1.122c-2.379-2.93-4.763-5.846-7.24-8.695-5.718-6.616-10.675-13.753-15.305-21.163l-.94-1.497c-1.469-2.391-2.713-4.596-3.443-7.334 1.956-2.233 4.383-2.685 7.153-3.504l1.499-.478c2.892-.869 5.22-1.475 8.178-.504 1.425 1.074 2.59 2.327 3.787 3.645.69.723 1.381 1.445 2.075 2.164l1.025 1.066c2.202 2.22 4.669 4.111 7.138 6.022l1.648 1.316c3.538 2.789 7.177 5.405 10.905 7.936l1.273.877c2.465 1.648 4.593 2.686 7.493 3.328-.434-2.481-.803-3.915-2.88-5.421a100.21 100.21 0 0 0-2.239-1.413 641.478 641.478 0 0 1-2.448-1.599l-1.27-.824c-5.889-3.905-11.262-8.345-16.409-13.172a402.48 402.48 0 0 0-3.558-3.099l-.93-.826-.964-.843c-.719-.839-.719-.839-.719-2.521l.854-.426c8.663-4.352 16.237-9.099 23.27-15.835l1.538-1.41c7.629-7.224 12.197-15.602 13.162-26.194.154-6.424-1.821-12.528-6.222-17.272-8.349-7.722-19.749-7.039-30.428-7.34a5565.81 5565.81 0 0 1-4.083-.133 3211.06 3211.06 0 0 0-9.823-.306c-3.145-.094-6.29-.194-9.436-.3a845.33 845.33 0 0 0-3.908-.121l-1.67-.053-1.401-.041c-1.025-.097-1.025-.097-1.586-.658.448-14.102 8.137-31 17.391-41.493 1.254-.727 1.254-.727 2.244-1.121.952.92 1.882 1.854 2.805 2.803l.929.955c5.404 5.813 9.97 12.554 14.122 19.303.582 1.016.582 1.016 1.218 1.61.981.069 1.965.1 2.948.115l1.906.034 2.074.029 2.11.035c1.855.03 3.71.059 5.564.086 1.892.028 3.783.059 5.675.09 3.713.06 7.427.117 11.14.172-3.819-16.365-12.78-28.349-26.928-37.568-2.091-1.253-4.222-2.42-6.378-3.557-1.477-.929-1.477-.929-2.038-2.61 5.837-5.9 12.052-11.284 18.59-16.393l1.226-.97c.797-.63 1.598-1.255 2.404-1.875 2.249-1.785 3.624-3.255 4.709-5.995-3.762.684-6.031 1.992-8.976 4.38l-1.239.977a506.337 506.337 0 0 0-3.81 3.054l-2.418 1.925c-3.76 3.01-7.446 6.072-10.983 9.344-4.098 3.687-4.098 3.687-7.144 3.53-3.998-.662-7.898-2.183-11.433-4.146.246-2.926 1.112-4.31 3.051-6.483.515-.59 1.029-1.183 1.542-1.776l.798-.917c1.238-1.455 2.395-2.97 3.55-4.491a452.938 452.938 0 0 1 5.089-6.566 601.497 601.497 0 0 0 7.674-9.905l.901-1.176c1.54-1.806 1.54-1.806 2.079-4.01-1.876-.23-2.599-.157-4.128 1.01-2.811 2.95-5.485 5.958-8.027 9.144a145.954 145.954 0 0 1-3.489 4.137c-3.449 3.98-6.53 8.184-9.577 12.476l-.855 1.191c-.586.825-1.162 1.658-1.728 2.497l-.866 1.242-.763 1.125c-.861.82-.861.82-2.135 1.012-1.498-.104-2.874-.409-4.336-.752l-2.089-.37c-4.047-.754-4.047-.754-5.765-1.313-.833-2.496.121-4.205.982-6.623l.53-1.495c3.77-10.248 8.992-19.93 15.949-28.363 1.304-1.61 1.596-2.07 1.859-4.205l-.246-1.367c-11.602 6.157-19.181 25.142-23.304 36.684l-.506 1.416-.433 1.25c-.441 1.021-.441 1.021-1.563 2.143-1.381.188-1.381.188-3.016.21l-1.626.048c-1.987-.336-2.562-.907-3.773-2.501-.036-1.63-.036-1.63.311-3.522l.374-2.12c.144-.736.29-1.473.437-2.208l.397-2.103c.429-2.201.886-4.395 1.356-6.588l.251-1.186c1.823-8.568 4.052-17.014 6.411-25.448h-3.366a122.36 122.36 0 0 0-4.138 11.495l-.507 1.668c-2.978 10.032-5.037 20.327-7.137 30.573-4.013 1.235-7.436 1.758-11.5.525-2.901-2.247-2.797-6.683-3.25-10.112-1.587-12.005-4.357-24.409-9.934-35.27l-1.683.56c-.88 1.94-.36 3.395.248 5.364l.567 1.89.623 2.033c1.644 5.55 3.135 11.096 4.383 16.751l.404 1.816c.898 4.15 1.598 8.314 2.19 12.517l.188 1.246c.093 1.032.093 1.032-.188 2.68-1.428 1.427-2.465 2.158-4.51 2.35-1.99-.123-2.947-.295-4.44-1.7-1.684-2.598-2.655-5.401-3.743-8.29-3.832-9.839-8.567-18.607-14.796-27.125l-1.184-1.658c-1.596-2.373-1.596-2.373-3.938-3.828l-1.05-.12c-.682.574-.682.574-.764 1.765.287 2.25 1.525 3.597 2.903 5.313 6.432 8.411 18.282 24.9 16.936 36.096-2.335 1.556-4.509 1.6-7.258 1.892l-1.542.204c-3.712.399-3.712.399-5.387-.681l-.96-1.415-.677-.935a168.246 168.246 0 0 1-2.374-3.41c-3.177-4.575-6.598-8.893-10.16-13.172-.725-.878-1.434-1.77-2.14-2.662-2.351-2.968-4.844-5.767-7.475-8.487l-.91-.968c-1.904-1.923-3.18-2.744-5.998-2.887.754 2.21 1.695 3.6 3.296 5.291 8.596 9.317 16.453 19.205 23.072 30.034-1.62 2.427-3.602 2.67-6.312 3.504l-1.44.478c-2.64.829-4.67 1.385-7.396.503-1.014-.657-1.014-.657-1.928-1.542l-1.148-1.066-1.412-1.317c-4.766-4.252-9.615-8.355-14.741-12.169a221.678 221.678 0 0 1-3.193-2.464l-2.262-1.733-1.06-.84c-2.036-1.544-2.036-1.544-4.515-1.746l-1.157.449c.315 1.845.76 2.62 2.24 3.756.346.27.692.54 1.048.82l1.13.856 2.323 1.809 1.158.894c4.397 3.414 8.64 7.03 12.876 10.64.985.834 1.976 1.66 2.98 2.47 2.465 2 2.465 2 3.13 3.376.043 1.172.043 1.172-.763 2.286-1.854 1.455-3.819 2.436-5.926 3.477-4.304 2.197-8.022 4.69-11.78 7.744l-1.022.782c-8.505 6.653-15.189 18.003-16.633 28.627-.656 6.891.374 12.049 4.26 17.761 5.94 6.622 16.034 7.926 24.414 8.43 6.412.324 12.83.452 19.249.56 1.803.03 3.607.062 5.411.094 2.402.043 4.803.078 7.206.109l3.347.057 1.57.014 1.448.028 1.264.018c1.098.152 1.098.152 2.78 1.274 2.552 11.425-5.157 27.647-10.81 37.074-1.999 3.118-4.253 6.025-6.58 8.904-1.977-.316-2.747-.914-3.998-2.453a118.325 118.325 0 0 0-4.838-5.432c-4.99-5.486-9.137-11.549-12.947-17.899-1.118-2.017-1.118-2.017-2.902-3.373a49.517 49.517 0 0 0-2.778-.081l-1.753-.011-1.9-.002-1.946-.006c-1.36-.002-2.72-.004-4.079-.004-2.084-.001-4.169-.011-6.253-.022l-3.957-.003-1.896-.012-1.759.005-1.549-.002c-1.456.053-1.456.053-2.985 1.26 3.542 15.34 14.752 28.513 27.728 36.825 3.882 2.406 7.984 4.387 12.103 6.35.213 1.206.213 1.206 0 2.803a30.577 30.577 0 0 1-3.4 3.119l-1.074.882c-.748.611-1.498 1.219-2.252 1.823-1.07.859-2.13 1.728-3.188 2.602-4.46 3.656-9.087 7.024-13.828 10.305-3.39 2.135-3.39 2.135-5.43 5.38.569.674.569.674 1.71.777 2.525-.33 4.222-1.691 6.284-3.125l1.342-.916a219.383 219.383 0 0 0 19.753-15.378l.87-.753a96.238 96.238 0 0 0 1.905-1.729l1.025-.932.92-.858c1.608-1.051 3.01-.812 4.844-.5 10.648 2.6 10.648 2.6 12.399 4.35-.152 2.568-1.45 4.556-2.77 6.693l-.677 1.11c-5.375 8.688-11.76 16.542-18.733 23.995l-1.383 1.494-1.262 1.345c-.96 1.22-1.321 1.975-1.543 3.491 1.19.625 1.19.625 2.805.561 1.553-1.063 2.785-2.417 4.068-3.785l1.132-1.173a120.693 120.693 0 0 0 8.265-9.621l1.314-1.625c3.18-3.992 5.955-8.155 8.623-12.505 4.605-7.479 4.605-7.479 7.068-9.209 2.789-.389 5.518.19 7.835 1.798l.966.795c-3.67 13.987-11.072 28.459-20.711 39.289-.758 1.102-.758 1.102-.425 2.62l.379 1.266c3.382-.526 5.073-3.589 7.018-6.171 6.943-9.706 12.055-20.082 16.086-31.283 1.778-4.798 1.778-4.798 2.702-5.721a42.356 42.356 0 0 1 2.98-.14l1.642-.044c1.824.216 2.482.599 3.793 1.866.833 4.124-.304 8.731-1.122 12.791l-.37 1.878c-5.826 28.531-5.826 28.531-9.728 32.431a46.425 46.425 0 0 1-4.05.139l-1.28.004c-1.42.003-2.843-.002-4.264-.007l-3.049.003c-2.766.003-5.531-.001-8.297-.007-2.888-.005-5.776-.004-8.665-.004-4.85 0-9.7-.005-14.552-.013-5.616-.009-11.232-.011-16.849-.011-5.392 0-10.785-.003-16.178-.007l-6.9-.004c-2.705 0-5.41-.004-8.115-.009-.996-.002-1.992-.003-2.988-.002-1.353 0-2.706-.003-4.06-.007l-1.21.002c-2.705-.013-2.705-.013-3.33-.638a87.315 87.315 0 0 1-.07-3.973l-.003-1.281c-.002-1.434 0-2.869.002-4.303a5957.709 5957.709 0 0 1-.002-11.642c.001-3.067 0-6.134-.002-9.201-.003-6.014-.002-12.027 0-18.041V181.289c-.002-12.854 0-25.707.002-38.561.003-11.745.003-23.489 0-35.234a110304.567 110304.567 0 0 1-.002-43.76v-2.093c.001-4.883 0-9.765-.001-14.647C-.001 41.048 0 35.103.003 29.157c.001-3.037.002-6.073 0-9.11-.002-2.775 0-5.55.002-8.325V8.696c-.003-1.362 0-2.723.002-4.085l-.004-1.21C.015.19.185.014 3.396.002Z"/><path fill="#060606" d="M787.138 37.014c2.075 2.137 3.401 4.414 3.401 7.43-.991 2.847-2.681 5.34-5.049 7.219-3.19.998-5.043.041-7.854-1.402l-1.264-.619a309.585 309.585 0 0 1-5.937-3.019c-7.8-4.018-15.62-6.194-24.321-3.686-7.676 2.975-13.261 8.23-16.865 15.595-3.694 8.547-5.02 17.267-5.233 26.517a456.477 456.477 0 0 1-.093 3.309c-.209 7.77-.144 15.521-.144 23.301l33.099.561c1.104 2.207 1.257 2.611.947 4.871l-.169 1.338c-.217 1.08-.217 1.08-.778 1.641-.978.066-1.958.094-2.938.106l-1.901.029-2.068.023-2.107.031c-2.611.039-5.222.072-7.833.106-2.554.033-5.108.07-7.662.108l-2.068.023-1.9.028-1.683.022c-1.24-.055-1.24-.055-1.817.645-.057.974-.074 1.95-.075 2.925l-.007 1.922v2.128l-.005 2.227c-.005 2.023-.007 4.046-.007 6.069l-.005 5.07c-.004 3.991-.006 7.983-.005 11.974 0 4.11-.006 8.219-.015 12.329-.007 3.531-.01 7.062-.01 10.593.001 2.107-.001 4.215-.007 6.322-.005 1.987-.005 3.974-.001 5.961.001 1.069-.004 2.138-.009 3.207.007 7.787.007 7.787 3.512 14.502 4.303 4.117 10.123 4.085 15.778 4.275l1.626.066c1.305.052 2.609.1 3.914.145 1.14 2.093 1.14 2.093.982 3.434-.421 1.051-.421 1.051-1.543 2.173-1.401.075-1.401.075-3.25-.013l-2.209-.088-1.224-.054c-8.092-.352-16.179-.431-24.277-.408l-1.355.003c-4.571.012-9.142.03-13.713.061-1.742.011-3.484.017-5.226.022-.824.004-1.648.01-2.472.017-1.136.011-2.272.014-3.408.017l-1.947.013c-1.508-.131-1.508-.131-2.63-1.252-.07-1.753-.07-1.753 0-3.365 1.267-.633 2.12-.685 3.528-.782l1.462-.117c1.008-.077 2.016-.149 3.024-.215 4.075-.341 7.618-1.297 10.429-4.423 1.893-2.781 2.455-5.229 2.449-8.565l.005-2.058-.012-2.236v-2.371c.001-2.14-.006-4.279-.014-6.419-.007-2.238-.007-4.476-.009-6.714a5979.07 5979.07 0 0 0-.024-12.707c-.012-4.824-.018-9.647-.024-14.47-.012-9.92-.031-19.839-.056-29.758l-1.92.006-2.553.005-1.258.004c-8.911.012-8.911.012-12.222-.576-1.122-1.682-1.122-1.682-1.087-3.084.732-1.951 1.451-2.149 3.331-3.084 2.603-.897 5.25-1.651 7.895-2.415l1.627-.491 1.477-.431c2.286-1.001 3.374-2.286 4.276-4.585.521-2.608.597-5.091.644-7.743.659-19.667 6.3-40.72 20.547-54.985l1.164-1.183c15.547-14.82 39.475-16.328 57.146-5.055Z"/><path fill="#070707" d="m706.388 35.963 1.027.72c2.035 1.54 3.215 3.03 4.022 5.448.062 3.873-1.294 6.172-3.927 8.971-1.756.877-3.101.718-5.05.56-2.143-.764-4.048-1.968-5.973-3.166-9.332-5.726-18.776-7.618-29.53-5.261-6.494 1.801-11.592 5.134-15.095 10.953-7.337 13.124-6.802 29.023-6.695 43.594l.016 4.06c.012 3.273.031 6.545.055 9.817l1.778-.009c21.478-.098 21.478-.098 30.76.57.686 1.37.694 2.361.736 3.89l.064 1.487c-.239 1.352-.239 1.352-1.186 2.265-1.574.933-2.511.972-4.333.96l-1.837-.001-1.973-.026-2.028-.007c-2.138-.01-4.276-.031-6.413-.052-1.45-.009-2.899-.016-4.348-.023-3.553-.019-7.106-.047-10.659-.082-.137 33.661-.137 33.661.21 67.32l.026 1.604c-.2 9.59-.2 9.59 3.691 17.986 2.713 1.966 5.09 2.297 8.38 2.464l1.941.117c1.347.079 2.694.15 4.041.215l1.942.124 1.773.096c1.899.425 2.624 1.065 3.802 2.591-.14 1.262-.14 1.262-.561 2.243-3.097 1.071-5.541 1.185-8.785.915-5.764-.389-11.498-.426-17.273-.409l-3.162.003c-2.735.002-5.469.007-8.203.013-2.807.006-5.613.009-8.419.012-5.476.006-10.953.015-16.43.027l-1.122-3.364c.559-.826.559-.826 1.683-1.682a48.95 48.95 0 0 1 4.523-.246c4.238-.152 8.118-.504 11.525-3.296 4.891-5.262 4.234-13.021 4.223-19.665l.002-2.418c.002-2.165-.001-4.331-.005-6.497-.002-1.347-.002-2.694-.003-4.042-.01-17.854-.259-35.701-.63-53.551l-1.164-.042c-1.763-.066-3.525-.134-5.287-.203l-1.832-.067c-6.925-.274-6.925-.274-9.669-.809-1.122-1.682-1.122-1.682-1.052-3.399.491-1.647.491-1.647 1.414-2.267 1.649-.626 3.265-.9 5.003-1.203 4.158-.859 8.707-2.104 11.318-5.681 1.26-2.611 1.337-5.086 1.432-7.935.681-20.255 6.069-41.647 20.695-56.449 13.964-12.988 40.117-19.226 56.562-7.173Z"/><path fill="#080808" d="M450.616 120.221a109.978 109.978 0 0 1 4.44 3.774l1.056.915c8.117 7.51 12.958 18.147 15.213 28.803l.326 1.52c1.84 14.467-1.099 29.194-9.909 40.973a183.821 183.821 0 0 1-3.32 4.046l-1.085 1.413c-8.742 10.487-22.925 15.974-36.18 17.218-10.397.68-20.267-1.558-29.495-6.295l-1.815-.909c-4.518-2.439-8.005-5.632-11.65-9.184l-1.098-.973c-8.744-7.941-13.979-21.252-14.69-32.855-.607-16.07 3.883-30.293 14.666-42.429 19.229-20.566 51.218-22.425 73.541-6.017Zm-60.637 8.82c-9.067 11.845-11.195 27.036-9.316 41.521 2.222 12.996 8.475 26.021 19.26 34.015 8.102 5.703 16.166 7.714 25.96 6.329 8.851-1.811 15.599-7.832 20.735-14.991 7.676-12.127 9.39-28.257 6.481-42.101-2.507-10.29-6.984-18.774-14.313-26.455l-.918-1.064c-5.009-5.574-13.206-9.286-20.602-9.8-11.428-.463-19.821 3.966-27.287 12.546ZM908.806 118.92a69.426 69.426 0 0 1 4.033 3.393l1.203 1.064c7.397 6.927 11.519 16.668 11.86 26.693.023 1.331.04 2.662.05 3.993l.024 1.977-.011 1.865-.005 1.683c-.218 1.414-.218 1.414-.898 2.414-1.965 1.337-4.301 1.314-6.616 1.332l-1.671.016-1.813.01-1.925.017c-2.098.018-4.195.031-6.293.045l-4.365.036c-3.437.027-6.874.053-10.311.077-3.914.028-7.829.059-11.743.09-8.049.063-16.099.123-24.148.181.068 1.583.142 3.167.219 4.75l.056 1.339c.53 10.527 4.791 20.899 11.962 28.69 8.271 7.455 18.382 10.114 29.344 9.646 7.77-.622 15.531-2.662 22.874-5.221 1.648-.487 2.847-.717 4.549-.515 1.122 1.121 1.122 1.121 1.473 2.698-.351 1.788-.351 1.788-1.196 2.506a47.017 47.017 0 0 1-8.517 4.048l-1.382.5c-17.004 5.965-35.915 8.287-52.65.341-10.241-5.361-18.071-13.669-21.879-24.672-5.306-17.914-4.783-36.06 4.203-52.707 1.84-3.28 3.906-6.198 6.456-8.971l1.251-1.406c14.413-15.369 38.515-17.931 55.866-5.912Zm-43.408 8.159c-6.842 7.975-10.481 17.771-9.782 28.316.862.862 1.653.636 2.854.642l1.489.011 1.635.002 1.696.007c1.837.005 3.673.005 5.51.004l1.882-.001c7.891-.009 15.765-.102 23.643-.56l2.221-.119c6.603-.363 6.603-.363 12.085-3.631 2.312-3.851 1.51-7.517.491-11.67-1.872-6.801-5.211-12.97-11.404-16.755-11.419-6.345-22.898-6.065-32.32 3.754Z"/><path fill="#070707" d="M487.594 112.22c4.652-.039 9.305-.069 13.957-.087 2.16-.009 4.32-.021 6.481-.04 2.084-.018 4.168-.028 6.252-.033.796-.003 1.592-.009 2.387-.018 1.114-.012 2.227-.013 3.341-.013l1.921-.011c1.566.202 1.566.202 2.627.982.622.902.622.902.593 2.074-.532 1.071-.532 1.071-1.573 1.599l-1.309.348c-3.964 1.089-3.964 1.089-6.981 3.718-.909 1.864-1.006 3.175-1.051 5.244l-.059 2.235-.037 2.427-.055 2.548a859 859 0 0 0-.126 8.184l-.017 1.363c-.066 5.951-.088 11.9-.087 17.851 0 2.358-.008 4.716-.018 7.075-.006 1.859-.007 3.717-.007 5.576 0 .87-.003 1.74-.007 2.61-.046 9.85.389 19.581 7.58 27.057 6.209 5.14 14.159 7.212 22.114 6.757 8.379-.91 15.172-3.909 20.597-10.43 5.15-7.048 5.957-15.631 6.252-24.085l.071-1.99c.255-7.839.308-15.679.318-23.522.003-2.113.017-4.225.033-6.338.01-1.665.013-3.331.014-4.997.002-.778.006-1.557.013-2.336.112-8.91.112-8.91-2.664-17.242-.903-1.088-.903-1.088-2.72-1.142a2951.21 2951.21 0 0 0-4.208 0c-1.823-.318-1.823-.318-2.945-1.599-.561-1.522-.561-1.522 0-3.765h32.539l1.122 2.804c-.596 1.261-.596 1.261-1.683 2.242-1.43.414-2.802.561-4.278.736-1.72.498-2.063 1.139-3.015 2.629-1.491 4.294-1.26 8.934-1.212 13.413l.009 2.269c.007 1.988.021 3.976.036 5.965.027 3.516.047 7.033.06 10.55l.005 1.165c.138 42.192.138 42.192-11.089 53.991-9.139 8.897-21.376 11.507-33.748 11.507-10.451-.144-20.736-3.171-28.676-10.268l-1.038-.922c-6.039-5.688-8.808-13.689-9.145-21.898-.009-.751-.016-1.503-.021-2.254l-.014-1.257c-.01-.898-.018-1.796-.026-2.694-.012-1.445-.027-2.89-.043-4.336-.028-2.575-.053-5.151-.077-7.726a4975.25 4975.25 0 0 0-.315-27.179c-.039-3.01-.086-6.02-.146-9.03-.018-.932-.032-1.864-.044-2.796a379.913 379.913 0 0 0-.074-3.851l-.039-2.196c-.253-2.018-.676-3.101-1.921-4.696-1.586-.637-1.586-.637-3.366-.911-3.075-.58-3.075-.58-4.453-1.485-.85-1.382-.397-2.244-.035-3.772Z"/><path fill="#080808" d="m331.318 110.678 1.224.186c1.628.302 2.94.748 4.362 1.599 1.46 2.333 1.432 4.8 1.602 7.502l.131 1.652c.117 1.54.209 3.079.29 4.621l.084 1.227c.047 1.057.047 1.057-.084 2.698-1.683 1.121-1.683 1.121-3.612 1.18-1.998-.619-1.998-.619-2.673-1.457-.592-1.137-1.088-2.285-1.569-3.473-2.178-4.784-4.071-7.228-8.977-9.357-5.57-1.83-12.028-1.665-17.391.771-4.515 2.325-6.848 5.121-8.59 9.848-.895 4.473-.199 7.981 1.858 12.02 4.045 5.763 9.979 8.805 15.895 12.355 25.889 15.552 25.889 15.552 29.312 28.091l.235 1.047.385 1.612c.786 7.847-.567 15.327-5.419 21.712-7.278 8.506-18.38 13.381-29.472 14.369-9.379.56-19.324-.803-27.766-5.172-1.394-2.09-1.275-3.703-1.252-6.12l.001-1.308a498.7 498.7 0 0 1 .013-2.735c.011-1.4.012-2.8.012-4.201.002-.885.006-1.77.01-2.654l.001-1.277c.028-2.947.028-2.947.654-3.573a109.38 109.38 0 0 1 3.927 0 78.9 78.9 0 0 1 2.7 6.939c1.93 5.307 4.827 9.565 10.052 12.021 2.851 1.186 5.389 1.513 8.461 1.471l1.339-.014c5.996-.173 10.74-2.164 15.035-6.399 3.296-3.878 5.466-8.735 5.205-13.913-.744-5.862-2.438-10.788-7.095-14.67-3.737-2.705-7.581-4.985-11.644-7.162-11.196-6.148-22.214-12.621-26.788-25.197-1.857-6.95-.947-14.907 2.244-21.308 4.466-7.31 11.136-10.446 19.175-12.396 9.015-2.061 19.005-1.994 28.125-.535Z"/><path fill="#050505" d="M782.897 77.953h1.111c1.214 0 2.428.004 3.643.009l2.523.002c2.215.002 4.431.008 6.646.014 2.26.006 4.52.008 6.78.011 4.435.006 8.871.016 13.306.027.631 1.297.631 1.297 1.122 2.804-1.348 2.02-1.78 1.972-4.067 2.453-2.934.738-4.532 1.498-6.592 3.715-1.852 3.35-1.766 7.372-1.762 11.115l-.005 1.286c-.005 1.413-.005 2.827-.006 4.24l-.009 3.051c-.007 2.758-.011 5.515-.013 8.273l-.007 5.175c-.007 5.403-.013 10.807-.015 16.211-.002 6.226-.012 12.451-.029 18.677-.012 4.82-.017 9.641-.018 14.461-.001 2.876-.004 5.751-.014 8.626-.009 2.707-.01 5.413-.006 8.12a419.2 419.2 0 0 1-.007 2.967c-.211 10.119-.211 10.119 4.135 18.912 2.255 1.14 4.342 1.342 6.844 1.52l2.335.188c1.219.094 2.437.185 3.657.269 1.182.084 2.364.18 3.545.279l2.136.156c1.68.392 1.68.392 2.488 1.473.374 1.384.283 2.079-.247 3.404-1.123 1.122-1.123 1.122-2.989 1.197a187.34 187.34 0 0 1-2.484-.089l-2.876-.087-1.568-.054c-12.087-.412-24.169-.46-36.262-.441l-2.507.003c-4.716.007-9.432.017-14.147.032l-1.122-2.243c2.866-3.104 4.411-3.368 8.52-3.539 4.192-.306 7.147-1.318 10.484-3.855 2.942-3.893 3.132-8.285 3.158-13.012l.03-1.887c.03-2.065.048-4.13.066-6.196l.056-4.418c.058-4.731.094-9.462.126-14.193l.008-1.189c.075-11.114.097-22.227.096-33.342 0-3.286.006-6.573.014-9.86.008-3.236.011-6.472.01-9.709 0-1.904.002-3.808.008-5.711.005-2.093.004-4.186 0-6.279l.01-1.847c.057-7.078.057-7.078-3.041-13.189-2.328-1.665-5.089-2.578-7.764-3.541v-3.365c1.59-.794 2.922-.627 4.7-.624Z"/><path fill="#070707" d="M969.501 90.352c.925.925.687 2.03.738 3.303l.071 1.735.067 1.83.074 1.753c.166 4.23.199 8.453.172 12.686l1.924-.009c23.23-.098 23.23-.098 32.863.57.69 1.389.65 2.375.66 3.925l.03 1.507c-.13 1.297-.13 1.297-1.26 2.418-1.4.152-1.4.152-3.2.17l-2.041.028-2.208.014-2.255.029c-1.98.026-3.96.045-5.94.063-3.171.029-6.343.066-9.514.106a741.13 741.13 0 0 1-3.331.03l-2.031.023-1.799.017c-1.311-.069-1.311-.069-1.898.641a37.92 37.92 0 0 0-.075 2.5l-.008 1.638.001 1.813-.006 1.898c-.005 2.089-.006 4.177-.007 6.266l-.005 4.363c-.004 3.062-.005 6.124-.004 9.186 0 3.51-.006 7.02-.015 10.53-.008 3.397-.01 6.793-.01 10.19 0 1.433-.003 2.866-.007 4.299-.019 6.693.006 13.358.6 20.029l.117 1.392c.432 4.198 1.297 8.692 4.468 11.686 4.812 2.735 9.533 1.747 14.656.455l1.547-.376c3.862-.963 7.595-2.157 11.325-3.545 1.63-.456 2.35-.544 3.89.101.56.561.56.561.91 2.348-.35 2.138-.35 2.138-1.16 3.007-9.972 7.029-23.576 10.758-35.656 9.784-5.249-1.131-9.54-3.665-12.518-8.165-3.717-6.713-3.805-14.818-3.929-22.31l-.035-1.871c-.038-2.044-.071-4.088-.103-6.132l-.037-2.135c-.156-9.241-.229-18.481-.224-27.723l.001-1.404c.003-4.588.011-9.177.03-13.765.007-1.709.011-3.418.015-5.127.004-1.186.012-2.372.019-3.558l.005-2.129.009-1.867c.093-1.347.093-1.347-.625-1.938-.845.004-1.69.047-2.533.107l-1.567.097c-1.091.074-2.183.15-3.274.228-4.966.301-4.966.301-7.212-.993l-.561-.561c.337-3.7.337-3.7 1.683-5.046a59.34 59.34 0 0 1 3.121-.701c3.461-.828 5.915-2.107 8.66-4.346l1.026-.834c4.769-4.327 7.588-10.22 9.465-16.276.73-1.393.73-1.393 2.099-1.87 1.612-.094 3.188-.157 4.802-.084Z"/><path fill="#064D90" d="M188.986 133.266c2.796 2.915 3.51 5.917 3.693 9.863-.33 10.686-5.109 18.535-12.518 25.723l-1.582 1.557c-3.919 3.701-3.919 3.701-6.833 4.05-8.447-12.507-16.812-28.679-15.147-44.296 5.004-5.002 27.604-1.138 32.387 3.103Z"/><path fill="#064E90" d="M77.478 77.031c2.014.75 2.948 2.722 4.086 4.455l.822 1.234c.812 1.23 1.61 2.466 2.404 3.707l.65 1.003c5.911 9.23 10.918 21.525 10.57 32.64-3.352 1.603-6.835 1.309-10.464 1.298-1.224-.001-2.447.012-3.67.026-6.561.031-13.532-.064-18.966-4.128-3.486-3.7-3.695-10.16-3.56-14.992 1.065-9.992 7.234-17.653 14.745-23.872 1.934-1.55 1.934-1.55 3.383-1.37Z"/><path fill="#074E90" d="M132.475 203.056c1.314 3.495 1.745 7.268 2.385 10.933 1.785 9.88 4.211 19.459 7.561 28.927.916 2.618 1.55 5.039 1.836 7.8-7.751 2.582-26.294 3.481-33.769-.014l-1.014-.547.41-1.303c4.145-13.264 7.62-26.51 9.475-40.314l.237-1.663.194-1.461c.397-1.43.879-1.998 2.026-2.919 3.207-1.306 7.599-.846 10.659.561Z"/><path fill="#141414" d="M340.049 35.402c18.047-.32 18.047-.32 22.896 4.31 1.409 2.133 2.101 3.81 1.788 6.344-.91 2.456-2.048 4.74-3.778 6.72-.837 1.101-.837 1.101-.675 2.503 1.811 4.925 7.678 9.443 11.893 12.419l.975.786v1.122c-4.747.404-8.544-1.602-12.25-4.457-1.886-1.787-3.485-3.83-5.025-5.92-2.213-2.832-2.903-2.655-6.848-3.641v10.654l2.805 1.12 1.122 1.683c-.561.56-.561.56-1.758.624l-1.558-.008-1.682-.006-1.769-.014-1.776-.008c-1.454-.007-2.907-.016-4.36-.027l-.561-1.122 1.367-.946c1.559-1.572 1.667-2.872 1.793-5.044l.114-1.97c.145-3.378.28-6.751.319-10.133.012-.794.032-1.587.058-2.38.32-5.393.32-5.393-1.984-10.072l-1.667-1.415.561-1.122Zm9.146 3.486c-.95 1.299-.941 2.081-.935 3.68l.001 1.571.028 1.636-.006 1.637c-.047 3.15-.047 3.15 1.303 5.933 3.426-.342 5.869-1.128 8.59-3.26 1.246-1.613 1.469-2.547 1.508-4.59-.652-2.769-1.64-4.942-3.927-6.728-2.161-.72-4.597-1.288-6.562.121Z"/><path fill="#161616" d="M425.462 38.556c3.474 2.79 5.746 6.849 6.487 11.232.46 5.753-1.1 10.354-4.558 14.947-3.775 3.773-7.845 5.43-13.184 5.642-4.819-.09-9.509-1.87-13.008-5.257-4.227-5.269-5.047-10.137-4.488-16.821 1.134-4.686 4.45-8.518 8.415-11.145 6.897-3.914 13.931-2.874 20.336 1.402Zm-19.646 2.447c-3.222 4.537-3.828 8.381-3.267 13.884.919 5.03 3.482 8.45 7.626 11.355 2.256 1.265 4.164 1.382 6.732 1.12 3.477-1.002 5.346-2.907 7.188-5.963 2.42-4.814 2.267-9.6.613-14.603-1.54-3.941-4.411-6.783-8.082-8.8-4.207-1.052-7.9-.262-10.81 3.007ZM525.217 35.297l1.397-.02c5.522-.014 10.522.952 14.837 4.611 1.786 2.429 2.688 4.73 3.085 7.71-.729 4.742-3.852 7.492-7.573 10.233-1.617.538-2.636.62-4.313.595l-1.374-.015-1.045-.02-.561-1.12 1.148-.496c3.194-1.467 5.119-2.5 6.706-5.673.943-2.827.941-5.538-.14-8.305-.989-1.8-1.511-2.431-3.226-3.47-1.447-.32-1.447-.32-2.946-.385l-1.516-.112-1.148-.063c-.065 4.703-.115 9.406-.146 14.11a795.088 795.088 0 0 1-.066 6.553 580 580 0 0 0-.054 6.326c-.006.803-.016 1.607-.031 2.41-.02 1.128-.021 2.255-.022 3.383l-.019 1.943c.438 2.234 1.522 2.986 3.143 4.524v2.243c-1.753.017-3.507.027-5.26.035l-1.512.015-1.446.005-1.336.009c-1.105-.064-1.105-.064-2.227-.624.598-1.243 1.211-2.374 1.992-3.515.947-1.784 1.023-2.893 1.021-4.903l.011-2.018-.016-2.165.001-2.235c0-1.558-.006-3.115-.016-4.673a701.73 701.73 0 0 1-.009-5.982c.002-1.906-.004-3.813-.011-5.719l.002-2.168-.016-2.013-.008-1.77c-.149-1.558-.427-2.464-1.268-3.771-.743-.568-1.49-1.13-2.244-1.683v-1.121c1.926-.963 4.083-.664 6.206-.666Z"/><path fill="#191919" d="M592.222 36.804c2.916 1.763 4.683 4.505 6.101 7.535.458 2.244.661 4.484.351 6.763-2.829 2.828-9.924 1.71-13.741 1.72-2.713-.004-5.426-.016-8.138-.038a373.1 373.1 0 0 0 .736 3.47l.414 1.951c.516 1.812 1.214 3.094 2.216 4.672V64c5.26 2.83 9.549 2.613 15.147 1.121 1.683-.07 1.683-.07 2.805 0v1.682c-.875.46-1.752.915-2.63 1.367l-1.479.769c-4.193 1.866-8.771 1.756-13.072.317-4.63-1.882-7.745-4.096-9.798-8.756-1.907-5.777-1.288-12.2 1.356-17.665 4.065-6.51 12.532-9.17 19.732-6.03Zm-12.495 3.993c-1.443 1.635-2.637 3.242-3.494 5.259.043 1.473.043 1.473.562 2.803 3.3 2.2 6.865 1.855 10.666 1.145 3.032-.374 3.032-.374 5.603-1.705.199-2.988.265-4.872-1.683-7.29-3.584-3.484-7.942-3.604-11.654-.212Z"/><path fill="#161616" d="M310.876 37.084c1.24 1.858 1.248 2.436 1.192 4.591l-.03 1.531-.04 1.168h-1.683c-.679-.8-.679-.8-1.332-1.858-1.448-2.151-2.877-3.236-5.33-4.135-4.126-.606-8.134.026-11.776 2.105-2.69 2.026-3.643 4.595-4.388 7.778-.579 5.674.2 10.203 3.87 14.73 2.941 2.945 6.292 4.195 10.41 4.406 1.632-.048 2.701-.226 4.058-1.159 1.168-2.227 1.184-3.87.912-6.343l-.189-1.815-.162-1.374-3.927-1.121v-1.682h8.976c1.8 3.598 1.71 8.077.816 11.998-.93 2.008-2.408 3.007-4.322 3.947-5.392 1.839-11.803 1.61-17.027-.624-4.588-2.532-7.465-6.192-9.375-11.01-1.054-5.65-.549-10.83 2.723-15.69 3.65-4.448 8.304-7.023 14.054-7.63 4.366-.178 8.73-.03 12.57 2.187Z"/><path fill="#184D86" d="M148.745 60.634c3.203.279 7.74 1.008 10.098 3.365-.196 3.753-1.704 6.913-3.156 10.338-5.44 13.237-8.956 27.154-10.876 41.332-.286 2.022-.524 3.234-1.676 4.962h-1.122c-.828-1.654-.648-3.325-.638-5.137l.005-1.215c.04-4.151.347-8.265.738-12.397l.109-1.181c3.11-33.254 3.11-33.254 6.518-40.067Z"/><path fill="#121212" d="M458.422 35.963h11.22v2.243l-1.683 1.121c-.325 1.054-.325 1.054-.379 2.272l-.109 1.37c-.961 11.22-.961 11.22 2.151 21.496 1.714 1.825 2.771 1.73 5.209 1.917 3.231-.216 5.668-.876 7.959-3.224 1.572-2.514 1.52-4.755 1.513-7.625l.001-1.342c.001-.936-.001-1.871-.003-2.807-.003-1.435 0-2.87.004-4.304l-.002-2.726.003-1.304c.036-2.214.036-2.214-.639-4.283a63.498 63.498 0 0 0-2.805-1.683l.561-1.121h10.098v2.243l-2.805.56.027 1.765c.031 2.184.05 4.368.066 6.552.008.94.019 1.881.034 2.822.185 12.18.185 12.18-3.353 16.862-3.015 3.094-5.635 3.51-9.852 3.645-4.187-.104-7.922-.488-10.993-3.557-2.674-3.379-2.931-6.073-2.936-10.319l-.033-2.776a395.919 395.919 0 0 1-.029-4.36 296.657 296.657 0 0 0-.043-4.218l.012-1.31c-.053-2.312-.249-3.266-1.815-5.016l-1.379-1.21v-1.683Z"/><path fill="#174C86" d="M104.986 61.756c4.698 16.42 6.422 33.847 7.188 50.849l.09 1.868.061 1.714.057 1.499c-.103 1.263-.103 1.263-1.225 2.945h-1.683c-.7-1.399-.794-2.598-.988-4.153-2.153-16.566-5.529-33.346-13.137-48.375-.529-1.49-.536-2.106.1-3.544 3.337-2.593 5.411-2.822 9.537-2.803Z"/><path fill="#174D86" d="m127.812 56.57 1.97.026c1.571.113 1.571.113 2.132.674.235 3.662-.087 7.333-.431 10.978l-.281 3.158-.151 1.67c-1.4 15.645-2.273 31.309-3.064 46.994-1.087.315-1.087.315-2.244.561-.996-.996-.7-2.46-.752-3.811l-.086-2.125-.042-1.149c-.045-1.2-.093-2.4-.142-3.6-.069-1.715-.138-3.43-.205-5.145-.174-4.435-.353-8.87-.541-13.305l-.057-1.329c-.236-5.48-.535-10.946-.982-16.413l-.134-1.655c-.204-2.451-.426-4.9-.67-7.347l-.226-2.527-.217-2.146c.127-1.688.127-1.688 1.132-2.757 1.714-.847 3.089-.795 4.991-.753Z"/><path fill="#1C4B7E" d="M125.743 129.041c1.157.246 1.157.246 2.244.561.545 4.347.665 8.681.747 13.056.182 9.189.653 18.353 1.217 27.526l.112 1.823c.107 1.745.217 3.489.326 5.234l.103 1.654a276.7 276.7 0 0 0 .517 7.046l.187 2.137.174 1.787c-.017 1.416-.017 1.416-1.139 3.098-1.115.326-1.115.326-2.419.455l-1.291.151c-1.581-.054-2.696-.555-4.144-1.167-.121-5.492.224-10.883.656-16.353.949-12.141 1.421-24.283 1.786-36.454l.063-2.004c.039-1.251.075-2.502.109-3.754l.051-1.671.042-1.467c.098-1.097.098-1.097.659-1.658Z"/><path fill="#194E86" d="m103.303 129.041 1.122.561c.509 17.668-2.82 34.473-8.976 51.025l-.431 1.178c-.422 1.078-.422 1.078-1.252 2.747-1.683.561-1.683.561-2.996.081-4.841-2.481-4.841-2.481-6.541-4.567.808-2.228 1.88-4.102 3.155-6.097 8.197-13.137 12.884-27.034 15.034-42.356.324-2.011.324-2.011.885-2.572Z"/><path fill="#184D86" d="M90.4 68.484c2.306 2.834 3.444 6.134 4.698 9.532l.667 1.8c4.224 11.63 8.263 24.937 8.134 37.415l-.015 1.943-.02 1.457-1.683-.561c-.478-1.362-.478-1.362-.912-3.294-3.477-14.15-8.726-26.983-16.9-39.038-1.022-1.53-1.79-3.016-2.384-4.768 2.222-3.044 4.425-5.25 8.415-4.486Z"/><path fill="#1A497D" d="M165.119 68.45c2.733.76 4.516 2.127 6.066 4.52.329 1.85.149 2.577-.887 4.155l-1.252 1.487c-8.515 10.708-13.379 23.965-16.099 37.246l-.282 1.371-.242 1.243c-.312 1.037-.312 1.037-1.434 2.159h-1.683c-.395-15.421 5.123-31.227 10.659-45.418l.593-1.555.592-1.529.534-1.384c.88-1.909 1.297-2.254 3.435-2.296Z"/><path fill="#1C4B7E" d="M149.306 129.041h1.683l.161 1.17c2.24 15.969 5.877 30.872 15.113 44.395.995 1.535.995 1.535 1.065 2.972-.897 1.944-2.145 3.156-3.997 4.17-1.534.378-2.898.479-4.488.561-7.395-16.385-10.884-34.756-10.098-52.707l.561-.561Z"/><path fill="#1E4C7F" d="M116.767 58.952c.639 1.277.706 2.172.822 3.593l.131 1.557.134 1.697.145 1.763c.101 1.24.201 2.479.299 3.719.149 1.857.301 3.714.455 5.57.913 11.2 1.472 22.31 1.415 33.547l-.007 3.007c-.006 2.409-.016 4.817-.028 7.226h-2.244c-1.024-2.209-1.297-4.05-1.398-6.475l-.107-2.213-.052-1.176c-.659-14.337-2.473-28.433-5.214-42.517l-.217-1.131c-.195-1.006-.393-2.01-.593-3.016-.267-1.748-.323-3.385-.273-5.15 2.66-1.14 4.09-1.23 6.732 0Z"/><path fill="#204D7F" d="m143.135 58.392.561.56c-.052 4.546-1.05 9.039-1.914 13.482-2.639 13.682-4.264 27.419-5.046 41.327l-.112 1.994-.09 1.752c-.131 1.442-.131 1.442-.692 3.124l-1.684.56c-1.555-1.554-.698-5.823-.701-7.99l-.003-1.191c-.001-8.378.435-16.73.915-25.092l.107-1.888c.382-6.628.822-13.252 1.352-19.87l.123-1.652.129-1.52.107-1.33c.216-1.145.216-1.145 1.338-2.827 2.218-.74 3.429-.166 5.61.56Z"/><path fill="#1E4C7F" d="M118.45 128.481h1.122c.169 14.69.282 29.354-.771 44.016l-.108 1.524c-.986 13.67-.986 13.67-1.926 17.26-1.946 1.297-2.763 1.311-5.049 1.121l-1.683-1.121c.339-4.293 1.055-8.46 1.858-12.687 2.416-13.222 3.931-26.405 4.491-39.827l.055-1.213c.049-1.083.091-2.166.133-3.25.452-4.397.452-4.397 1.878-5.823Z"/><path fill="#204E80" d="M134.158 129.041c1.158.246 1.158.246 2.245.561.408 3.114.634 6.211.762 9.348.635 15.169 1.904 30.406 5.363 45.229.497 2.178.695 3.821.046 5.98-3.542 1.225-3.542 1.225-5.142.795-1.029-.795-1.029-.795-1.455-2.173l-.206-1.881-.121-1.082c-.708-6.756-1.077-13.551-1.492-20.33l-.103-1.565c-.508-7.755-.515-15.513-.528-23.282l-.004-1.638c-.003-1.543-.003-3.085 0-4.628l-.003-1.434c.013-3.274.013-3.274.638-3.9Z"/><path fill="#224F81" d="m110.596 129.041 1.683.561c.085 5.994-.115 11.898-.666 17.873l-.109 1.218c-1.056 11.636-2.727 23.223-4.905 34.703l-.249 1.356c-.328 1.622-.639 2.934-1.605 4.294-.881.552-.881.552-2.564.447-1.683-.455-1.683-.455-3.366-1.577.349-3.613 1.469-6.841 2.63-10.268 4.713-14.365 7.144-28.795 8.228-43.84l.121-1.641.101-1.462c.14-1.103.14-1.103.701-1.664Z"/><path fill="#235081" d="M142.013 128.481h1.683l.11 1.724c1.117 17.15 3.019 33.947 9.251 50.126.736 1.977 1.028 3.26.737 5.342-.596 1.017-.596 1.017-1.683 1.683-2.069.385-2.069.385-3.927.56-1.594-4.279-2.382-8.532-3.086-13.036l-.181-1.139c-1.288-8.139-2.193-16.304-2.904-24.514l-.123-1.394c-.386-4.568-.488-9.128-.509-13.71l-.008-1.503c.01-3.51.01-3.51.64-4.139Z"/><path fill="#3E3E3E" d="m653.653 39.888 1.122.56-8.415 8.411-1.122-.56c.874-.984 1.75-1.965 2.629-2.944l1.48-1.656a35.145 35.145 0 0 1 4.306-3.811Z"/><path fill="#7A7A7A" d="M342.293 65.68v1.683l-1.122 1.121 11.22.561v.56h-12.342l-.561-1.12 2.805-2.804Z"/><path fill="#424242" d="m577.356 37.645 1.122.56-5.05 5.047c0-1.682 0-1.682 1.333-3.119l1.472-1.367 1.123-1.12Z"/></svg>