<svg width="1008" height="253" viewBox="0 0 1008 253" fill="none" xmlns="http://www.w3.org/2000/svg">
<path d="M3.39594 0.00278086C3.79483 0.00409359 4.19372 0.00540631 4.60469 0.00675881C5.02667 0.00594384 5.44865 0.00512888 5.88342 0.00428922C7.31552 0.00222215 8.74759 0.00419872 10.1797 0.00611819C11.2095 0.00547294 12.2394 0.00458296 13.2692 0.00346757C16.1133 0.00111295 18.9573 0.00229011 21.8013 0.00402055C24.863 0.00528297 27.9247 0.00333411 30.9864 0.00178895C36.9898 -0.00071152 42.9932 -0.000162581 48.9966 0.00145961C53.8733 0.0027231 58.75 0.00289889 63.6267 0.00228733C64.3194 0.00220141 65.012 0.00211549 65.7256 0.00202697C67.1324 0.0018477 68.5392 0.00166592 69.9461 0.00148162C82.7779 -7.36916e-05 95.6097 0.00154247 108.442 0.00447729C120.166 0.00713839 131.89 0.0069003 143.614 0.0042188C156.774 0.00121907 169.934 3.46439e-05 183.094 0.00175854C184.495 0.00193717 185.897 0.00211344 187.299 0.00228733C187.989 0.00237383 188.679 0.00246034 189.389 0.00254947C194.263 0.00303472 199.137 0.00221402 204.011 0.00089701C209.946 -0.000671434 215.882 -0.000258817 221.817 0.00273657C224.848 0.00421576 227.88 0.00477776 230.911 0.0029333C233.682 0.00127311 236.452 0.00216303 239.222 0.00516356C240.229 0.00579442 241.236 0.00546129 242.243 0.00411178C243.602 0.00242835 244.962 0.0041335 246.321 0.00675881C246.919 0.00478972 246.919 0.00478972 247.53 0.00278086C250.223 0.013314 250.223 0.013314 250.848 0.638033C251.497 6.46936 251.49 12.3477 251.481 18.2073C251.481 19.1002 251.482 19.9931 251.483 20.886C251.486 23.3159 251.484 25.7457 251.483 28.1756C251.481 30.8064 251.483 33.4371 251.485 36.0678C251.487 41.2163 251.487 46.3647 251.485 51.5131C251.484 55.7081 251.484 59.9032 251.484 64.0983C251.485 64.6974 251.485 65.2965 251.485 65.9138C251.485 67.1315 251.485 68.3491 251.485 69.5668C251.487 80.9775 251.485 92.3882 251.482 103.799C251.479 113.541 251.48 123.283 251.482 133.025C251.486 144.375 251.487 155.725 251.485 167.074C251.485 168.292 251.485 169.509 251.484 170.727C251.484 171.325 251.484 171.924 251.484 172.541C251.484 176.712 251.484 180.884 251.486 185.055C251.487 190.167 251.487 195.278 251.484 200.39C251.483 202.986 251.482 205.583 251.484 208.179C251.491 218.988 251.406 229.79 251.159 240.596C251.143 241.361 251.143 241.361 251.126 242.141C251.095 243.569 251.06 244.997 251.023 246.425C251.01 247.068 251.01 247.068 250.996 247.723C250.913 250.652 250.913 250.652 250.287 251.277C248.974 251.332 247.678 251.35 246.365 251.344C245.95 251.345 245.535 251.345 245.107 251.346C243.705 251.347 242.304 251.344 240.902 251.341C239.902 251.34 238.901 251.34 237.901 251.341C235.176 251.341 232.451 251.338 229.726 251.334C226.882 251.33 224.037 251.33 221.193 251.329C215.802 251.327 210.412 251.323 205.022 251.317C198.887 251.311 192.752 251.308 186.616 251.305C173.993 251.299 161.369 251.289 148.745 251.277C148.39 250.311 148.035 249.344 147.681 248.378C147.484 247.84 147.287 247.302 147.083 246.747C143.443 236.511 141.414 225.86 139.422 215.212C139.317 214.646 139.317 214.646 139.209 214.07C138.489 210.16 138.016 206.462 138.086 202.495C140.024 201.313 141.19 200.808 143.485 200.848C145.609 201.437 146.218 201.967 147.623 203.616C148.261 204.937 148.261 204.937 148.769 206.404C148.963 206.95 149.158 207.495 149.358 208.057C149.561 208.638 149.763 209.22 149.972 209.819C156.923 229.667 156.923 229.667 170.127 245.297C171.435 245.758 172.141 245.569 173.429 245.109C171.994 242.505 170.462 240.158 168.661 237.785C162.289 229.073 157.793 219.198 153.794 209.223C153.52 208.561 153.247 207.898 152.965 207.215C151.92 204.561 151.365 203.075 152.111 200.252C154.796 199.247 157.008 198.501 159.895 198.78C162.121 199.937 162.756 201.491 163.892 203.616C169.968 214.25 177.242 223.926 185.526 232.949C185.8 233.247 186.074 233.546 186.356 233.854C187.747 235.343 189.141 236.663 190.82 237.82C191.561 237.45 192.301 237.08 193.064 236.698C190.685 233.768 188.301 230.852 185.824 228.003C180.106 221.387 175.149 214.25 170.519 206.84C170.209 206.346 169.899 205.852 169.579 205.343C168.11 202.952 166.866 200.747 166.136 198.009C168.092 195.776 170.519 195.324 173.289 194.505C173.784 194.347 174.278 194.19 174.788 194.027C177.68 193.158 180.008 192.552 182.966 193.523C184.391 194.597 185.556 195.85 186.753 197.168C187.443 197.891 188.134 198.613 188.828 199.332C189.166 199.684 189.504 200.035 189.853 200.398C192.055 202.618 194.522 204.509 196.991 206.42C197.535 206.854 198.079 207.289 198.639 207.736C202.177 210.525 205.816 213.141 209.544 215.672C210.174 216.106 210.174 216.106 210.817 216.549C213.282 218.197 215.41 219.235 218.31 219.877C217.876 217.396 217.507 215.962 215.43 214.456C214.69 213.975 213.943 213.504 213.191 213.043C212.374 212.512 211.558 211.979 210.743 211.444C210.324 211.172 209.904 210.9 209.473 210.62C203.584 206.715 198.211 202.275 193.064 197.448C191.885 196.407 190.697 195.376 189.506 194.349C189.046 193.94 189.046 193.94 188.576 193.523C188.099 193.106 188.099 193.106 187.612 192.68C186.893 191.841 186.893 191.841 186.893 190.159C187.175 190.019 187.457 189.878 187.747 189.733C196.41 185.381 203.984 180.634 211.017 173.898C211.524 173.433 212.032 172.967 212.555 172.488C220.184 165.264 224.752 156.886 225.717 146.294C225.871 139.87 223.896 133.766 219.495 129.022C211.146 121.3 199.746 121.983 189.067 121.682C187.706 121.638 186.345 121.594 184.984 121.549C181.71 121.441 178.436 121.341 175.161 121.243C172.016 121.149 168.871 121.049 165.725 120.943C164.423 120.9 163.12 120.859 161.817 120.822C161.266 120.804 160.715 120.787 160.147 120.769C159.684 120.755 159.222 120.742 158.746 120.728C157.721 120.631 157.721 120.631 157.16 120.07C157.608 105.968 165.297 89.0703 174.551 78.5772C175.805 77.85 175.805 77.85 176.795 77.4558C177.747 78.3769 178.677 79.3098 179.6 80.2593C179.907 80.5745 180.213 80.8896 180.529 81.2143C185.933 87.0267 190.499 93.7683 194.651 100.517C195.233 101.533 195.233 101.533 195.869 102.127C196.85 102.196 197.834 102.227 198.817 102.242C199.446 102.253 200.075 102.265 200.723 102.276C201.407 102.286 202.092 102.295 202.797 102.305C203.841 102.322 203.841 102.322 204.907 102.34C206.762 102.37 208.617 102.399 210.471 102.426C212.363 102.454 214.254 102.485 216.146 102.516C219.859 102.576 223.573 102.633 227.286 102.688C223.467 86.323 214.506 74.3393 200.358 65.1201C198.267 63.867 196.136 62.7006 193.98 61.563C192.503 60.6344 192.503 60.6344 191.942 58.9522C197.779 53.0539 203.994 47.6694 210.532 42.5601C210.937 42.2402 211.341 41.9203 211.758 41.5908C212.555 40.9602 213.356 40.3347 214.162 39.7151C216.411 37.9298 217.786 36.46 218.871 33.7201C215.109 34.404 212.84 35.7124 209.895 38.1007C209.282 38.584 209.282 38.584 208.656 39.077C207.38 40.0874 206.112 41.1083 204.846 42.1308C204.04 42.7728 203.234 43.4146 202.428 44.0561C198.668 47.066 194.982 50.1284 191.445 53.3998C187.347 57.0866 187.347 57.0866 184.301 56.9306C180.303 56.2678 176.403 54.7474 172.868 52.7844C173.114 49.8579 173.98 48.4747 175.919 46.3011C176.434 45.7101 176.948 45.1179 177.461 44.5248C177.725 44.2224 177.988 43.92 178.259 43.6084C179.497 42.153 180.654 40.6386 181.809 39.117C183.488 36.9139 185.179 34.7226 186.898 32.5508C189.491 29.2754 192.048 25.9744 194.572 22.646C194.869 22.258 195.166 21.87 195.473 21.4703C197.013 19.6638 197.013 19.6638 197.552 17.4594C195.676 17.23 194.953 17.3029 193.424 18.4692C190.613 21.4203 187.939 24.4278 185.397 27.6136C184.262 29.0196 183.094 30.3883 181.908 31.751C178.459 35.7305 175.378 39.9348 172.331 44.2269C172.049 44.62 171.767 45.013 171.476 45.418C170.89 46.243 170.314 47.0757 169.748 47.9147C169.462 48.3247 169.176 48.7348 168.882 49.1573C168.63 49.5284 168.378 49.8996 168.119 50.282C167.258 51.1022 167.258 51.1022 165.984 51.2937C164.486 51.1903 163.11 50.885 161.648 50.5415C160.959 50.4194 160.27 50.2972 159.559 50.1714C155.512 49.4182 155.512 49.4182 153.794 48.8594C152.961 46.3631 153.915 44.6542 154.776 42.2359C154.951 41.7425 155.126 41.2491 155.306 40.7407C159.076 30.4932 164.298 20.8117 171.255 12.378C172.559 10.7671 172.851 10.3088 173.114 8.17262C173.033 7.72159 172.952 7.27057 172.868 6.80588C161.266 12.9631 153.687 31.9481 149.564 43.4902C149.314 44.191 149.314 44.191 149.058 44.9059C148.915 45.3184 148.772 45.7309 148.625 46.1559C148.184 47.1772 148.184 47.1772 147.062 48.2987C145.681 48.487 145.681 48.487 144.046 48.5089C143.51 48.5248 142.973 48.5407 142.42 48.5571C140.433 48.2213 139.858 47.6499 138.647 46.0558C138.611 44.4251 138.611 44.4251 138.958 42.5338C139.081 41.8342 139.205 41.1345 139.332 40.4136C139.476 39.6775 139.622 38.9415 139.769 38.2058C139.965 37.165 139.965 37.165 140.166 36.1031C140.595 33.902 141.052 31.7077 141.522 29.5148C141.605 29.1234 141.688 28.732 141.773 28.3287C143.596 19.7612 145.825 11.3152 148.184 2.88089C147.073 2.88089 145.962 2.88089 144.818 2.88089C143.245 6.66078 141.87 10.4584 140.68 14.3755C140.513 14.9261 140.346 15.4767 140.173 16.044C137.195 26.0762 135.136 36.3709 133.036 46.6165C129.023 47.8519 125.6 48.3752 121.536 47.1422C118.635 44.8954 118.739 40.4592 118.286 37.0296C116.699 25.0253 113.929 12.6214 108.352 1.75946C107.797 1.94449 107.241 2.12953 106.669 2.32017C105.789 4.25991 106.309 5.71515 106.917 7.68418C107.197 8.61977 107.197 8.61977 107.484 9.57426C107.689 10.2451 107.895 10.9159 108.107 11.607C109.751 17.1562 111.242 22.7032 112.49 28.3583C112.623 28.9575 112.756 29.5568 112.894 30.1742C113.792 34.3235 114.492 38.4881 115.084 42.6915C115.146 43.1024 115.208 43.5133 115.272 43.9367C115.365 44.9694 115.365 44.9694 115.084 46.6165C113.656 48.0437 112.619 48.7748 110.574 48.9667C108.584 48.8438 107.627 48.6724 106.134 47.267C104.45 44.6687 103.479 41.8656 102.391 38.9768C98.5587 29.1381 93.8243 20.3703 87.5947 11.8523C87.2042 11.3051 86.8137 10.758 86.4114 10.1943C84.8146 7.82128 84.8146 7.82128 82.4733 6.36563C81.9537 6.306 81.9537 6.306 81.4236 6.24517C80.7406 6.81955 80.7406 6.81955 80.6588 8.01054C80.9457 10.2615 82.1839 11.6075 83.5625 13.3242C89.9936 21.735 101.844 38.2242 100.498 49.4201C98.163 50.9759 95.9891 51.0208 93.2399 51.3125C92.7311 51.3797 92.2224 51.4469 91.6982 51.5162C87.9855 51.9148 87.9855 51.9148 86.3106 50.835C85.9938 50.3681 85.6771 49.9012 85.3507 49.4201C85.1274 49.1114 84.9041 48.8026 84.674 48.4846C83.864 47.36 83.0821 46.2187 82.3002 45.0746C79.1233 40.4999 75.7019 36.1822 72.1399 31.9035C71.4152 31.0252 70.7062 30.1339 69.9997 29.241C67.6487 26.2727 65.156 23.4739 62.5247 20.7536C62.2245 20.4344 61.9244 20.1151 61.6152 19.7862C59.7113 17.863 58.4342 17.0422 55.6172 16.8987C56.3713 19.1092 57.3124 20.4997 58.9132 22.1904C67.5089 31.5067 75.3658 41.3952 81.9847 52.2237C80.3656 54.651 78.3827 54.8943 75.6733 55.7281C75.1982 55.8857 74.7231 56.0433 74.2335 56.2056C71.5923 57.0349 69.5621 57.5913 66.8374 56.7094C65.8228 56.0523 65.8228 56.0523 64.9089 55.1674C64.53 54.8154 64.1511 54.4634 63.7606 54.1007C63.2949 53.6663 62.8292 53.2319 62.3493 52.7844C57.5831 48.5319 52.7336 44.4286 47.6075 40.6154C46.533 39.8066 45.4742 38.9793 44.4146 38.1511C43.661 37.5732 42.9072 36.9957 42.153 36.4185C41.8034 36.1413 41.4537 35.864 41.0935 35.5783C39.0572 34.0341 39.0572 34.0341 36.578 33.8318C36.1962 33.98 35.8143 34.1282 35.4209 34.2808C35.7364 36.1258 36.1803 36.9018 37.6606 38.0372C38.0067 38.3075 38.3528 38.5779 38.7094 38.8565C39.0822 39.139 39.4549 39.4216 39.8389 39.7127C40.6134 40.3155 41.3877 40.9186 42.1618 41.5219C42.544 41.817 42.9262 42.1121 43.32 42.4161C47.7174 45.8298 51.9596 49.4454 56.1958 53.056C57.1805 53.8899 58.1715 54.7167 59.1761 55.5266C61.6411 57.5258 61.6411 57.5258 62.3055 58.9018C62.3493 60.0736 62.3493 60.0736 61.5429 61.1885C59.6888 62.6433 57.7243 63.6242 55.6172 64.6645C51.3127 66.8623 47.5946 69.3549 43.8361 72.4093C43.4991 72.6674 43.1621 72.9254 42.8148 73.1913C34.3105 79.8443 27.6264 91.1941 26.1818 101.818C25.5259 108.709 26.5558 113.867 30.442 119.579C36.3826 126.201 46.4761 127.505 54.8565 128.009C61.2683 128.333 67.6864 128.461 74.1047 128.569C75.9085 128.599 77.7123 128.631 79.516 128.663C81.9178 128.706 84.3195 128.741 86.7215 128.772C87.8373 128.791 88.9531 128.81 90.0689 128.829C90.5871 128.834 91.1054 128.838 91.6393 128.843C92.1169 128.852 92.5945 128.862 93.0866 128.871C93.5039 128.877 93.9212 128.883 94.3512 128.889C95.4489 129.041 95.4489 129.041 97.1319 130.163C99.6833 141.588 91.9744 157.81 86.321 167.237C84.3222 170.355 82.0679 173.262 79.7406 176.141C77.7641 175.825 76.9939 175.227 75.7434 173.688C74.1858 171.817 72.5747 170.029 70.9047 168.256C65.9148 162.77 61.7683 156.707 57.9577 150.357C56.8398 148.34 56.8398 148.34 55.0562 146.984C54.1313 146.928 53.2042 146.907 52.2776 146.903C51.4098 146.897 51.4098 146.897 50.5245 146.892C49.8974 146.891 49.2704 146.891 48.6243 146.89C47.9824 146.888 47.3405 146.886 46.6791 146.884C45.3195 146.882 43.9598 146.88 42.6002 146.88C40.5157 146.879 38.4313 146.869 36.3468 146.858C35.0279 146.857 33.709 146.856 32.3902 146.855C31.7643 146.851 31.1383 146.847 30.4935 146.843C29.623 146.845 29.623 146.845 28.735 146.848C28.2238 146.847 27.7127 146.846 27.1861 146.846C25.7302 146.899 25.7302 146.899 24.2007 148.106C27.7427 163.446 38.9529 176.619 51.9289 184.931C55.8111 187.337 59.9128 189.318 64.0324 191.281C64.2449 192.487 64.2449 192.487 64.0324 194.084C62.9229 195.261 61.8874 196.207 60.6313 197.203C60.1001 197.639 60.1001 197.639 59.5581 198.085C58.8105 198.696 58.0596 199.304 57.3057 199.908C56.2356 200.767 55.1759 201.636 54.1183 202.51C49.6584 206.166 45.0312 209.534 40.2903 212.815C36.9008 214.95 36.9008 214.95 34.8599 218.195C35.4287 218.869 35.4287 218.869 36.5692 218.972C39.0947 218.642 40.7918 217.281 42.8543 215.847C43.2971 215.545 43.7398 215.243 44.196 214.931C51.0846 210.182 57.6471 205.053 63.9491 199.553C64.2359 199.305 64.5228 199.056 64.8183 198.8C65.4618 198.233 66.0962 197.655 66.7243 197.071C67.2315 196.609 67.2315 196.609 67.7491 196.139C68.2047 195.714 68.2047 195.714 68.6695 195.281C70.2766 194.23 71.6788 194.469 73.5125 194.781C84.1614 197.381 84.1614 197.381 85.9117 199.131C85.7605 201.699 84.4617 203.687 83.1417 205.824C82.9183 206.19 82.6949 206.557 82.4647 206.934C77.0903 215.622 70.7055 223.476 63.7321 230.929C63.0477 231.669 63.0477 231.669 62.3493 232.423C61.9328 232.867 61.5162 233.31 61.0871 233.768C60.1276 234.988 59.7659 235.743 59.5443 237.259C60.7346 237.884 60.7346 237.884 62.3493 237.82C63.9017 236.757 65.134 235.403 66.4167 234.035C66.7903 233.648 67.164 233.261 67.5489 232.862C70.4825 229.792 73.217 226.601 75.8136 223.241C76.2475 222.705 76.6814 222.169 77.1284 221.616C80.3079 217.624 83.0832 213.461 85.7513 209.111C90.3556 201.632 90.3556 201.632 92.8191 199.902C95.6076 199.513 98.3373 200.092 100.654 201.7C100.972 201.962 101.291 202.225 101.62 202.495C97.9492 216.482 90.548 230.954 80.9087 241.784C80.1511 242.886 80.1511 242.886 80.4835 244.404C80.6086 244.822 80.7337 245.239 80.8626 245.67C84.2454 245.144 85.9359 242.081 87.8807 239.499C94.824 229.793 99.9362 219.417 103.967 208.216C105.745 203.418 105.745 203.418 106.669 202.495C107.66 202.41 108.655 202.37 109.649 202.355C110.191 202.34 110.733 202.326 111.291 202.311C113.115 202.527 113.773 202.91 115.084 204.177C115.917 208.301 114.78 212.908 113.962 216.968C113.84 217.588 113.718 218.208 113.592 218.846C107.766 247.377 107.766 247.377 103.864 251.277C102.493 251.386 101.186 251.425 99.814 251.416C99.3919 251.417 98.9698 251.418 98.5349 251.42C97.1132 251.423 95.6915 251.418 94.2697 251.413C93.2535 251.414 92.2372 251.415 91.221 251.416C88.4555 251.419 85.69 251.415 82.9244 251.409C80.0361 251.404 77.1477 251.405 74.2594 251.405C69.4087 251.405 64.5581 251.4 59.7074 251.392C54.0911 251.383 48.4748 251.381 42.8585 251.381C37.4655 251.381 32.0725 251.378 26.6796 251.374C24.3798 251.372 22.0801 251.371 19.7804 251.37C17.0751 251.37 14.3699 251.366 11.6647 251.361C10.6689 251.359 9.67307 251.358 8.67727 251.359C7.32387 251.359 5.97052 251.356 4.61713 251.352C4.21788 251.353 3.81863 251.354 3.40729 251.354C0.702424 251.341 0.702424 251.341 0.0773604 250.716C0.0214535 249.387 0.00239075 248.073 0.00676239 246.743C0.005947 246.32 0.00513151 245.898 0.0042914 245.462C0.00222324 244.028 0.00420095 242.593 0.00612144 241.159C0.00547584 240.127 0.00458533 239.095 0.00346934 238.064C0.00111348 235.215 0.0022912 232.366 0.00402255 229.517C0.00528563 226.45 0.00333589 223.383 0.00178992 220.316C-0.000711874 214.302 -0.000162705 208.289 0.00146034 202.275C0.00272449 197.39 0.00290043 192.505 0.00228856 187.62C0.00220259 186.926 0.00211657 186.232 0.002028 185.517C0.00184865 184.108 0.00166667 182.699 0.00148228 181.289C-7.38573e-05 168.435 0.00154336 155.582 0.00447973 142.728C0.00714223 130.983 0.00690395 119.239 0.00422105 107.494C0.00121973 94.312 3.461e-05 81.1296 0.00175942 67.9472C0.00193814 66.543 0.00211457 65.1388 0.00228856 63.7346C0.00241838 62.6981 0.00241827 62.6981 0.00255071 61.6407C0.00303622 56.7583 0.00221521 51.876 0.000897504 46.9936C-0.000671767 41.0481 -0.000258999 35.1027 0.00273797 29.1572C0.00421794 26.1205 0.00478029 23.0839 0.00293486 20.0472C0.0012738 17.2721 0.00216404 14.497 0.00516616 11.7218C0.00579735 10.7133 0.00546426 9.70467 0.00411404 8.69608C0.00242973 7.33437 0.00413568 5.97272 0.00676239 4.61102C0.00544897 4.21145 0.00413559 3.81187 0.00278238 3.40018C0.0153135 0.191937 0.185285 0.0153362 3.39594 0.00278086Z" fill="#044C8F"/>
<path d="M787.138 37.0143C789.213 39.1515 790.539 41.4285 790.539 44.4438C789.548 47.2914 787.858 49.7836 785.49 51.6629C782.3 52.6611 780.447 51.704 777.636 50.2612C777.219 50.0568 776.802 49.8525 776.372 49.642C774.38 48.6612 772.405 47.6463 770.435 46.6231C762.635 42.605 754.815 40.4292 746.114 42.9368C738.438 45.9116 732.853 51.1662 729.249 58.5317C725.555 67.0786 724.229 75.7992 724.016 85.0488C723.99 86.152 723.957 87.2549 723.923 88.3579C723.714 96.1289 723.779 103.879 723.779 111.659C740.163 111.937 740.163 111.937 756.878 112.22C757.982 114.427 758.135 114.831 757.825 117.091C757.769 117.533 757.714 117.974 757.656 118.429C757.439 119.509 757.439 119.509 756.878 120.07C755.9 120.136 754.92 120.164 753.94 120.176C753.313 120.186 752.685 120.195 752.039 120.205C751.357 120.212 750.674 120.22 749.971 120.228C749.276 120.238 748.581 120.248 747.864 120.259C745.253 120.298 742.642 120.331 740.031 120.365C737.477 120.398 734.923 120.435 732.369 120.473C731.687 120.481 731.004 120.488 730.301 120.496C729.674 120.505 729.047 120.515 728.401 120.524C727.845 120.531 727.29 120.538 726.718 120.546C725.478 120.491 725.478 120.491 724.901 121.191C724.844 122.165 724.827 123.141 724.826 124.116C724.823 124.75 724.821 125.385 724.819 126.038C724.819 126.74 724.819 127.443 724.819 128.166C724.817 128.901 724.816 129.636 724.814 130.393C724.809 132.416 724.807 134.439 724.807 136.462C724.806 138.152 724.804 139.842 724.802 141.532C724.798 145.523 724.796 149.515 724.797 153.506C724.797 157.616 724.791 161.725 724.782 165.835C724.775 169.366 724.772 172.897 724.772 176.428C724.773 178.535 724.771 180.643 724.765 182.75C724.76 184.737 724.76 186.724 724.764 188.711C724.765 189.78 724.76 190.849 724.755 191.918C724.762 199.705 724.762 199.705 728.267 206.42C732.57 210.537 738.39 210.505 744.045 210.695C744.582 210.717 745.118 210.739 745.671 210.761C746.976 210.813 748.28 210.861 749.585 210.906C750.725 212.999 750.725 212.999 750.567 214.34C750.146 215.391 750.146 215.391 749.024 216.513C747.623 216.588 747.623 216.588 745.774 216.5C745.045 216.471 744.316 216.442 743.565 216.412C743.161 216.394 742.757 216.376 742.341 216.358C734.249 216.006 726.162 215.927 718.064 215.95C717.393 215.951 717.393 215.951 716.709 215.953C712.138 215.965 707.567 215.983 702.996 216.014C701.254 216.025 699.512 216.031 697.77 216.036C696.946 216.04 696.122 216.046 695.298 216.053C694.162 216.064 693.026 216.067 691.89 216.07C690.926 216.077 690.926 216.077 689.943 216.083C688.435 215.952 688.435 215.952 687.313 214.831C687.243 213.078 687.243 213.078 687.313 211.466C688.58 210.833 689.433 210.781 690.841 210.684C691.565 210.626 691.565 210.626 692.303 210.567C693.311 210.49 694.319 210.418 695.327 210.352C699.402 210.011 702.945 209.055 705.756 205.929C707.649 203.148 708.211 200.7 708.205 197.364C708.207 196.685 708.209 196.006 708.21 195.306C708.206 194.568 708.202 193.83 708.198 193.07C708.198 192.28 708.198 191.489 708.198 190.699C708.199 188.559 708.192 186.42 708.184 184.28C708.177 182.042 708.177 179.804 708.175 177.566C708.172 173.33 708.163 169.094 708.151 164.859C708.139 160.035 708.133 155.212 708.127 150.389C708.115 140.469 708.096 130.55 708.071 120.631C707.437 120.633 706.803 120.635 706.151 120.637C705.3 120.638 704.449 120.64 703.598 120.642C703.183 120.643 702.767 120.645 702.34 120.646C693.429 120.658 693.429 120.658 690.118 120.07C688.996 118.388 688.996 118.388 689.031 116.986C689.763 115.035 690.482 114.837 692.362 113.902C694.965 113.005 697.612 112.251 700.257 111.487C701.062 111.244 701.062 111.244 701.884 110.996C702.372 110.854 702.859 110.712 703.361 110.565C705.647 109.564 706.735 108.279 707.637 105.98C708.158 103.372 708.234 100.889 708.281 98.2372C708.94 78.5704 714.581 57.5168 728.828 43.2522C729.212 42.8619 729.596 42.4716 729.992 42.0695C745.539 27.2483 769.467 25.7412 787.138 37.0143Z" fill="#060606"/>
<path d="M706.388 35.963C706.727 36.2008 707.066 36.4386 707.415 36.6836C709.45 38.2225 710.63 39.7134 711.437 42.1308C711.499 46.0045 710.143 48.3031 707.51 51.1022C705.754 51.9793 704.409 51.82 702.46 51.6629C700.317 50.898 698.412 49.6937 696.487 48.4958C687.155 42.7698 677.711 40.8777 666.957 43.2347C660.463 45.0364 655.365 48.3688 651.862 54.1883C644.525 67.3125 645.06 83.2108 645.167 97.7816C645.173 99.1352 645.178 100.489 645.183 101.842C645.195 105.115 645.214 108.387 645.238 111.659C645.825 111.656 646.412 111.653 647.016 111.65C668.494 111.552 668.494 111.552 677.776 112.22C678.462 113.59 678.47 114.581 678.512 116.11C678.544 116.846 678.544 116.846 678.576 117.597C678.337 118.949 678.337 118.949 677.39 119.862C675.816 120.795 674.879 120.834 673.057 120.822C672.148 120.821 672.148 120.821 671.22 120.821C670.569 120.813 669.918 120.804 669.247 120.795C668.578 120.793 667.908 120.79 667.219 120.788C665.081 120.778 662.943 120.757 660.806 120.736C659.356 120.727 657.907 120.72 656.458 120.713C652.905 120.694 649.352 120.666 645.799 120.631C645.662 154.292 645.662 154.292 646.009 187.951C646.018 188.481 646.026 189.01 646.035 189.555C645.835 199.145 645.835 199.145 649.726 207.541C652.439 209.507 654.816 209.838 658.106 210.005C658.746 210.044 659.387 210.083 660.047 210.122C661.394 210.201 662.741 210.272 664.088 210.337C664.729 210.378 665.37 210.419 666.03 210.461C666.615 210.493 667.2 210.524 667.803 210.557C669.702 210.982 670.427 211.622 671.605 213.148C671.465 214.41 671.465 214.41 671.044 215.391C667.947 216.462 665.503 216.576 662.259 216.306C656.495 215.917 650.761 215.88 644.986 215.897C643.932 215.898 642.878 215.899 641.824 215.9C639.089 215.902 636.355 215.907 633.621 215.913C630.814 215.919 628.008 215.922 625.202 215.925C619.726 215.931 614.249 215.94 608.772 215.952C608.402 214.842 608.031 213.732 607.65 212.588C608.209 211.762 608.209 211.762 609.333 210.906C610.87 210.75 612.319 210.676 613.856 210.66C618.094 210.508 621.974 210.156 625.381 207.364C630.272 202.102 629.615 194.343 629.604 187.699C629.604 186.893 629.605 186.087 629.606 185.281C629.608 183.116 629.605 180.95 629.601 178.784C629.599 177.437 629.599 176.09 629.598 174.742C629.588 156.888 629.339 139.041 628.968 121.191C628.584 121.177 628.2 121.163 627.804 121.149C626.041 121.083 624.279 121.015 622.517 120.946C621.912 120.924 621.308 120.902 620.685 120.879C613.76 120.605 613.76 120.605 611.016 120.07C609.894 118.388 609.894 118.388 609.964 116.671C610.455 115.024 610.455 115.024 611.378 114.404C613.027 113.778 614.643 113.504 616.381 113.201C620.539 112.342 625.088 111.097 627.699 107.52C628.959 104.909 629.036 102.434 629.131 99.5852C629.812 79.3299 635.2 57.9379 649.826 43.1362C663.79 30.1481 689.943 23.9101 706.388 35.963Z" fill="#070707"/>
<path d="M450.616 120.221C452.134 121.441 453.604 122.696 455.056 123.995C455.404 124.297 455.753 124.599 456.112 124.91C464.229 132.42 469.07 143.057 471.325 153.713C471.486 154.465 471.486 154.465 471.651 155.233C473.491 169.7 470.552 184.427 461.742 196.206C460.656 197.574 459.546 198.916 458.422 200.252C458.064 200.718 457.706 201.184 457.337 201.665C448.595 212.152 434.412 217.639 421.157 218.883C410.76 219.563 400.89 217.325 391.662 212.588C391.063 212.288 390.464 211.988 389.847 211.679C385.329 209.24 381.842 206.047 378.197 202.495C377.835 202.174 377.473 201.853 377.099 201.522C368.355 193.581 363.12 180.27 362.409 168.667C361.802 152.597 366.292 138.374 377.075 126.238C396.304 105.672 428.293 103.813 450.616 120.221ZM389.979 129.041C380.912 140.886 378.784 156.077 380.663 170.562C382.885 183.558 389.138 196.583 399.923 204.577C408.025 210.28 416.089 212.291 425.883 210.906C434.734 209.095 441.482 203.074 446.618 195.915C454.294 183.788 456.008 167.658 453.099 153.814C450.592 143.524 446.115 135.04 438.786 127.359C438.483 127.008 438.18 126.657 437.868 126.295C432.859 120.721 424.662 117.009 417.266 116.495C405.838 116.032 397.445 120.461 389.979 129.041Z" fill="#080808"/>
<path d="M908.806 118.92C910.203 120.003 911.528 121.128 912.839 122.313C913.434 122.84 913.434 122.84 914.042 123.377C921.439 130.304 925.561 140.045 925.902 150.07C925.925 151.401 925.942 152.732 925.952 154.063C925.96 154.716 925.968 155.368 925.976 156.04C925.973 156.655 925.969 157.271 925.965 157.905C925.964 158.461 925.962 159.016 925.96 159.588C925.742 161.002 925.742 161.002 925.062 162.002C923.097 163.339 920.761 163.316 918.446 163.334C917.619 163.342 917.619 163.342 916.775 163.35C916.177 163.353 915.578 163.357 914.962 163.36C914.326 163.366 913.691 163.371 913.037 163.377C910.939 163.395 908.842 163.408 906.744 163.422C905.289 163.434 903.834 163.446 902.379 163.458C898.942 163.485 895.505 163.511 892.068 163.535C888.154 163.563 884.239 163.594 880.325 163.625C872.276 163.688 864.226 163.748 856.177 163.806C856.245 165.389 856.319 166.973 856.396 168.556C856.415 168.998 856.433 169.44 856.452 169.895C856.982 180.422 861.243 190.794 868.414 198.585C876.685 206.04 886.796 208.699 897.758 208.231C905.528 207.609 913.289 205.569 920.632 203.01C922.28 202.523 923.479 202.293 925.181 202.495C926.303 203.616 926.303 203.616 926.654 205.193C926.303 206.981 926.303 206.981 925.458 207.699C922.706 209.356 919.964 210.661 916.941 211.747C916.257 211.995 916.257 211.995 915.559 212.247C898.555 218.212 879.644 220.534 862.909 212.588C852.668 207.227 844.838 198.919 841.03 187.916C835.724 170.002 836.247 151.856 845.233 135.209C847.073 131.929 849.139 129.011 851.689 126.238C852.102 125.774 852.515 125.31 852.94 124.832C867.353 109.463 891.455 106.901 908.806 118.92ZM865.398 127.079C858.556 135.054 854.917 144.85 855.616 155.395C856.478 156.257 857.269 156.031 858.47 156.037C858.961 156.041 859.453 156.044 859.959 156.048C860.498 156.048 861.038 156.049 861.594 156.05C862.154 156.052 862.714 156.054 863.29 156.057C865.127 156.062 866.963 156.062 868.8 156.061C869.421 156.061 870.042 156.06 870.682 156.06C878.573 156.051 886.447 155.958 894.325 155.5C895.058 155.461 895.791 155.422 896.546 155.381C903.149 155.018 903.149 155.018 908.631 151.75C910.943 147.899 910.141 144.233 909.122 140.08C907.25 133.279 903.911 127.11 897.718 123.325C886.299 116.98 874.82 117.26 865.398 127.079Z" fill="#080808"/>
<path d="M487.594 112.22C492.246 112.181 496.899 112.151 501.551 112.133C503.711 112.124 505.871 112.112 508.032 112.093C510.116 112.075 512.2 112.065 514.284 112.06C515.08 112.057 515.876 112.051 516.671 112.042C517.785 112.03 518.898 112.029 520.012 112.029C520.646 112.025 521.28 112.022 521.933 112.018C523.499 112.22 523.499 112.22 524.56 113C525.182 113.902 525.182 113.902 525.153 115.074C524.621 116.145 524.621 116.145 523.58 116.673C523.148 116.788 522.716 116.903 522.271 117.021C518.307 118.11 518.307 118.11 515.29 120.739C514.381 122.603 514.284 123.914 514.239 125.983C514.22 126.721 514.2 127.458 514.18 128.218C514.168 129.027 514.155 129.836 514.143 130.645C514.125 131.494 514.107 132.344 514.088 133.193C514.031 135.921 513.993 138.649 513.962 141.377C513.956 141.827 513.951 142.277 513.945 142.74C513.879 148.691 513.857 154.64 513.858 160.591C513.858 162.949 513.85 165.307 513.84 167.666C513.834 169.525 513.833 171.383 513.833 173.242C513.833 174.112 513.83 174.982 513.826 175.852C513.78 185.702 514.215 195.433 521.406 202.909C527.615 208.049 535.565 210.121 543.52 209.666C551.899 208.756 558.692 205.757 564.117 199.236C569.267 192.188 570.074 183.605 570.369 175.151C570.393 174.495 570.416 173.838 570.44 173.161C570.695 165.322 570.748 157.482 570.758 149.639C570.761 147.526 570.775 145.414 570.791 143.301C570.801 141.636 570.804 139.97 570.805 138.304C570.807 137.526 570.811 136.747 570.818 135.968C570.93 127.058 570.93 127.058 568.154 118.726C567.251 117.638 567.251 117.638 565.434 117.584C564.032 117.583 562.629 117.583 561.226 117.584C559.403 117.266 559.403 117.266 558.281 115.985C557.72 114.463 557.72 114.463 558.281 112.22C569.019 112.22 579.757 112.22 590.82 112.22C591.375 113.608 591.375 113.608 591.942 115.024C591.346 116.285 591.346 116.285 590.259 117.266C588.829 117.68 587.457 117.827 585.981 118.002C584.261 118.5 583.918 119.141 582.966 120.631C581.475 124.925 581.706 129.565 581.754 134.044C581.757 134.8 581.76 135.556 581.763 136.313C581.77 138.301 581.784 140.289 581.799 142.278C581.826 145.794 581.846 149.311 581.859 152.828C581.86 153.212 581.862 153.597 581.864 153.993C582.002 196.185 582.002 196.185 570.775 207.984C561.636 216.881 549.399 219.491 537.027 219.491C526.576 219.347 516.291 216.32 508.351 209.223C507.837 208.767 507.837 208.767 507.313 208.301C501.274 202.613 498.505 194.612 498.168 186.403C498.159 185.652 498.152 184.9 498.147 184.149C498.142 183.734 498.138 183.319 498.133 182.892C498.123 181.994 498.115 181.096 498.107 180.198C498.095 178.753 498.08 177.308 498.064 175.862C498.036 173.287 498.011 170.711 497.987 168.136C497.912 160.093 497.827 152.05 497.713 144.008C497.699 142.991 497.685 141.974 497.672 140.957C497.633 137.947 497.586 134.937 497.526 131.927C497.508 130.995 497.494 130.063 497.482 129.131C497.465 127.847 497.438 126.563 497.408 125.28C497.396 124.555 497.383 123.83 497.369 123.084C497.116 121.066 496.693 119.983 495.448 118.388C493.862 117.751 493.862 117.751 492.082 117.477C489.007 116.897 489.007 116.897 487.629 115.992C486.779 114.61 487.232 113.748 487.594 112.22Z" fill="#070707"/>
<path d="M331.318 110.678C331.722 110.739 332.126 110.801 332.542 110.864C334.17 111.166 335.482 111.612 336.904 112.463C338.364 114.796 338.336 117.263 338.506 119.965C338.571 120.783 338.571 120.783 338.637 121.617C338.754 123.157 338.846 124.696 338.927 126.238C338.955 126.643 338.982 127.048 339.011 127.465C339.058 128.522 339.058 128.522 338.927 130.163C337.244 131.284 337.244 131.284 335.315 131.343C333.317 130.724 333.317 130.724 332.642 129.886C332.05 128.749 331.554 127.601 331.073 126.413C328.895 121.629 327.002 119.185 322.096 117.056C316.526 115.226 310.068 115.391 304.705 117.827C300.19 120.152 297.857 122.948 296.115 127.675C295.22 132.148 295.916 135.656 297.973 139.695C302.018 145.458 307.952 148.5 313.868 152.05C339.757 167.602 339.757 167.602 343.18 180.141C343.258 180.486 343.335 180.832 343.415 181.188C343.542 181.72 343.669 182.252 343.8 182.8C344.586 190.647 343.233 198.127 338.381 204.512C331.103 213.018 320.001 217.893 308.909 218.881C299.53 219.441 289.585 218.078 281.143 213.709C279.749 211.619 279.868 210.006 279.891 207.589C279.892 207.158 279.892 206.726 279.892 206.281C279.894 205.369 279.898 204.458 279.905 203.546C279.916 202.146 279.917 200.746 279.917 199.345C279.919 198.46 279.923 197.575 279.927 196.691C279.927 196.269 279.928 195.848 279.928 195.414C279.956 192.467 279.956 192.467 280.582 191.841C281.891 191.818 283.2 191.817 284.509 191.841C285.526 194.129 286.41 196.406 287.209 198.78C289.139 204.087 292.036 208.345 297.261 210.801C300.112 211.987 302.65 212.314 305.722 212.272C306.164 212.268 306.606 212.263 307.061 212.258C313.057 212.085 317.801 210.094 322.096 205.859C325.392 201.981 327.562 197.124 327.301 191.946C326.557 186.084 324.863 181.158 320.206 177.276C316.469 174.571 312.625 172.291 308.562 170.114C297.366 163.966 286.348 157.493 281.774 144.917C279.917 137.967 280.827 130.01 284.018 123.609C288.484 116.299 295.154 113.163 303.193 111.213C312.208 109.152 322.198 109.219 331.318 110.678Z" fill="#080808"/>
<path d="M782.897 77.9528C783.263 77.9527 783.63 77.9526 784.008 77.9526C785.222 77.953 786.436 77.9573 787.651 77.9617C788.492 77.9628 789.333 77.9636 790.174 77.9641C792.389 77.9663 794.605 77.9718 796.82 77.978C799.08 77.9837 801.34 77.9863 803.6 77.9891C808.035 77.9951 812.471 78.0047 816.906 78.0165C817.537 79.3131 817.537 79.3131 818.028 80.82C816.68 82.8407 816.248 82.7923 813.961 83.2732C811.027 84.0111 809.429 84.7711 807.369 86.9879C805.517 90.3374 805.603 94.3598 805.607 98.1025C805.606 98.527 805.604 98.9515 805.602 99.3888C805.597 100.802 805.597 102.216 805.596 103.629C805.593 104.646 805.59 105.663 805.587 106.68C805.58 109.438 805.576 112.195 805.574 114.953C805.572 116.678 805.57 118.403 805.567 120.128C805.56 125.531 805.554 130.935 805.552 136.339C805.55 142.565 805.54 148.79 805.523 155.016C805.511 159.836 805.506 164.657 805.505 169.477C805.504 172.353 805.501 175.228 805.491 178.103C805.482 180.81 805.481 183.516 805.485 186.223C805.486 187.212 805.484 188.201 805.478 189.19C805.267 199.309 805.267 199.309 809.613 208.102C811.868 209.242 813.955 209.444 816.457 209.622C817.235 209.684 818.014 209.747 818.792 209.81C820.011 209.904 821.229 209.995 822.449 210.079C823.631 210.163 824.813 210.259 825.994 210.358C826.699 210.41 827.404 210.461 828.13 210.514C829.81 210.906 829.81 210.906 830.618 211.987C830.992 213.371 830.901 214.066 830.371 215.391C829.248 216.513 829.248 216.513 827.382 216.588C826.554 216.564 825.726 216.534 824.898 216.499C823.94 216.47 822.981 216.441 822.022 216.412C821.504 216.394 820.987 216.376 820.454 216.358C808.367 215.946 796.285 215.898 784.192 215.917C783.357 215.918 782.521 215.919 781.685 215.92C776.969 215.927 772.253 215.937 767.538 215.952C767.167 215.212 766.797 214.472 766.416 213.709C769.282 210.605 770.827 210.341 774.936 210.17C779.128 209.864 782.083 208.852 785.42 206.315C788.362 202.422 788.552 198.03 788.578 193.303C788.588 192.681 788.598 192.058 788.608 191.416C788.638 189.351 788.656 187.286 788.674 185.22C788.692 183.747 788.711 182.275 788.73 180.802C788.788 176.071 788.824 171.34 788.856 166.609C788.86 166.021 788.86 166.021 788.864 165.42C788.939 154.306 788.961 143.193 788.96 132.078C788.96 128.792 788.966 125.505 788.974 122.218C788.982 118.982 788.985 115.746 788.984 112.509C788.984 110.605 788.986 108.701 788.992 106.798C788.997 104.705 788.996 102.612 788.992 100.519C788.995 99.9099 788.998 99.3004 789.002 98.6725C789.059 91.5942 789.059 91.5942 785.961 85.4832C783.633 83.8184 780.872 82.9053 778.197 81.9415C778.197 80.8312 778.197 79.721 778.197 78.5772C779.787 77.7827 781.119 77.9495 782.897 77.9528Z" fill="#050505"/>
<path d="M969.501 90.3522C970.426 91.2766 970.188 92.3811 970.239 93.6551C970.263 94.2276 970.286 94.8 970.31 95.3898C970.333 95.9941 970.355 96.5983 970.377 97.2209C970.402 97.7991 970.426 98.3774 970.451 98.9731C970.617 103.203 970.65 107.426 970.623 111.659C971.258 111.656 971.893 111.653 972.547 111.65C995.777 111.552 995.777 111.552 1005.41 112.22C1006.1 113.609 1006.06 114.595 1006.07 116.145C1006.08 116.642 1006.09 117.14 1006.1 117.652C1005.97 118.949 1005.97 118.949 1004.84 120.07C1003.44 120.222 1003.44 120.222 1001.64 120.24C1000.63 120.254 1000.63 120.254 999.599 120.268C998.871 120.273 998.142 120.278 997.391 120.282C996.639 120.291 995.888 120.301 995.136 120.311C993.156 120.337 991.176 120.356 989.196 120.374C986.025 120.403 982.853 120.44 979.682 120.48C978.571 120.493 977.461 120.502 976.351 120.51C975.345 120.522 975.345 120.522 974.32 120.533C973.726 120.539 973.133 120.544 972.521 120.55C971.21 120.481 971.21 120.481 970.623 121.191C970.567 122.023 970.549 122.858 970.548 123.691C970.545 124.232 970.543 124.772 970.54 125.329C970.541 125.927 970.541 126.526 970.541 127.142C970.539 127.768 970.537 128.395 970.535 129.04C970.53 131.129 970.529 133.217 970.528 135.306C970.527 136.76 970.525 138.214 970.523 139.669C970.519 142.731 970.518 145.793 970.519 148.855C970.519 152.365 970.513 155.875 970.504 159.385C970.496 162.782 970.494 166.178 970.494 169.575C970.494 171.008 970.491 172.441 970.487 173.874C970.468 180.567 970.493 187.232 971.087 193.903C971.125 194.362 971.164 194.822 971.204 195.295C971.636 199.493 972.501 203.987 975.672 206.981C980.484 209.716 985.205 208.728 990.328 207.436C990.839 207.312 991.349 207.188 991.875 207.06C995.737 206.097 999.47 204.903 1003.2 203.515C1004.83 203.059 1005.55 202.971 1007.09 203.616C1007.65 204.177 1007.65 204.177 1008 205.964C1007.65 208.102 1007.65 208.102 1006.84 208.971C996.868 216 983.264 219.729 971.184 218.755C965.935 217.624 961.644 215.09 958.666 210.59C954.949 203.877 954.861 195.772 954.737 188.28C954.725 187.662 954.714 187.045 954.702 186.409C954.664 184.365 954.631 182.321 954.599 180.277C954.587 179.572 954.575 178.868 954.562 178.142C954.406 168.901 954.333 159.661 954.338 150.419C954.338 149.955 954.339 149.492 954.339 149.015C954.342 144.427 954.35 139.838 954.369 135.25C954.376 133.541 954.38 131.832 954.384 130.123C954.388 128.937 954.396 127.751 954.403 126.565C954.405 125.863 954.406 125.16 954.408 124.436C954.411 123.82 954.414 123.204 954.417 122.569C954.51 121.222 954.51 121.222 953.792 120.631C952.947 120.635 952.102 120.678 951.259 120.738C950.742 120.77 950.225 120.802 949.692 120.835C948.601 120.909 947.509 120.985 946.418 121.063C941.452 121.364 941.452 121.364 939.206 120.07C939.021 119.885 938.836 119.7 938.645 119.509C938.982 115.809 938.982 115.809 940.328 114.463C941.361 114.199 942.403 113.97 943.449 113.762C946.91 112.934 949.364 111.655 952.109 109.416C952.617 109.003 952.617 109.003 953.135 108.582C957.904 104.255 960.723 98.3623 962.6 92.3059C963.33 90.9129 963.33 90.9129 964.699 90.4354C966.311 90.3419 967.887 90.2789 969.501 90.3522Z" fill="#070707"/>
<path d="M188.986 133.266C191.782 136.181 192.496 139.183 192.679 143.129C192.349 153.815 187.57 161.664 180.161 168.852C179.639 169.366 179.117 169.88 178.579 170.409C174.66 174.11 174.66 174.11 171.746 174.459C163.299 161.952 154.934 145.78 156.599 130.163C161.603 125.161 184.203 129.025 188.986 133.266Z" fill="#064D90"/>
<path d="M77.4775 77.0311C79.4924 77.7809 80.426 79.7526 81.5639 81.4859C81.971 82.0966 81.971 82.0966 82.3864 82.7197C83.1977 83.9492 83.9958 85.1863 84.7897 86.4272C85.0044 86.7582 85.2191 87.0892 85.4403 87.4303C91.3511 96.6596 96.3583 108.955 96.0099 120.07C92.6578 121.673 89.1755 121.379 85.5457 121.368C84.3219 121.367 83.0988 121.38 81.8751 121.394C75.3149 121.425 68.3442 121.33 62.9103 117.266C59.4235 113.566 59.2151 107.106 59.3493 102.274C60.4148 92.2823 66.5836 84.6213 74.0955 78.402C76.0289 76.8524 76.0289 76.8524 77.4775 77.0311Z" fill="#064E90"/>
<path d="M132.475 203.056C133.789 206.551 134.22 210.324 134.86 213.989C136.645 223.869 139.071 233.448 142.421 242.916C143.337 245.534 143.971 247.955 144.257 250.716C136.506 253.298 117.963 254.197 110.488 250.702C109.986 250.431 109.986 250.431 109.474 250.155C109.609 249.725 109.745 249.295 109.884 248.852C114.029 235.588 117.504 222.342 119.359 208.538C119.438 207.989 119.516 207.441 119.596 206.875C119.66 206.393 119.724 205.911 119.79 205.414C120.187 203.984 120.669 203.416 121.816 202.495C125.023 201.189 129.415 201.649 132.475 203.056Z" fill="#074E90"/>
<path d="M340.049 35.4023C358.096 35.0814 358.096 35.0814 362.945 39.7127C364.354 41.8455 365.046 43.522 364.733 46.0558C363.823 48.5118 362.685 50.7969 360.955 52.7756C360.118 53.8774 360.118 53.8774 360.28 55.2791C362.091 60.2045 367.958 64.7224 372.173 67.698C372.495 67.9575 372.817 68.217 373.148 68.4843C373.148 68.8544 373.148 69.2245 373.148 69.6058C368.401 70.0096 364.604 68.0041 360.898 65.1485C359.012 63.3623 357.413 61.3194 355.873 59.2294C353.66 56.3969 352.97 56.5738 349.025 55.5879C349.025 59.1036 349.025 62.6193 349.025 66.2415C349.951 66.6116 350.876 66.9816 351.83 67.3629C352.2 67.918 352.57 68.4731 352.952 69.0451C352.391 69.6058 352.391 69.6058 351.194 69.6694C350.423 69.665 350.423 69.665 349.636 69.6605C349.081 69.6587 348.526 69.6569 347.954 69.655C347.37 69.6504 346.786 69.6457 346.185 69.6408C345.599 69.6383 345.012 69.6358 344.409 69.6331C342.955 69.6265 341.502 69.6173 340.049 69.6058C339.864 69.2357 339.678 68.8656 339.488 68.4843C339.939 68.1721 340.39 67.8598 340.855 67.5381C342.414 65.9664 342.522 64.666 342.648 62.4939C342.686 61.8441 342.723 61.1942 342.762 60.5247C342.907 57.1458 343.042 53.773 343.081 50.3912C343.093 49.5975 343.113 48.8038 343.139 48.0104C343.459 42.6178 343.459 42.6178 341.155 37.9386C340.605 37.4717 340.055 37.0048 339.488 36.5237C339.673 36.1536 339.858 35.7835 340.049 35.4023ZM349.195 38.8881C348.245 40.1868 348.254 40.9693 348.26 42.5689C348.26 43.0871 348.261 43.6054 348.261 44.1393C348.27 44.6792 348.279 45.2192 348.289 45.7755C348.287 46.3154 348.285 46.8553 348.283 47.4116C348.236 50.5618 348.236 50.5618 349.586 53.3451C353.012 53.0026 355.455 52.2174 358.176 50.0859C359.422 48.4718 359.645 47.5379 359.684 45.4951C359.032 42.7261 358.044 40.5525 355.757 38.7665C353.596 38.0468 351.16 37.4793 349.195 38.8881Z" fill="#141414"/>
<path d="M425.462 38.5563C428.936 41.3462 431.208 45.4048 431.949 49.7881C432.409 55.541 430.849 60.1418 427.391 64.7346C423.616 68.5079 419.546 70.1655 414.207 70.3767C409.388 70.2864 404.698 68.5064 401.199 65.1201C396.972 59.8515 396.152 54.9833 396.711 48.2987C397.845 43.6134 401.161 39.7809 405.126 37.1545C412.023 33.24 419.057 34.2799 425.462 38.5563ZM405.816 41.0028C402.594 45.54 401.988 49.3843 402.549 54.887C403.468 59.9172 406.031 63.3362 410.175 66.2415C412.431 67.5067 414.339 67.624 416.907 67.3629C420.384 66.3595 422.253 64.4547 424.095 61.3988C426.515 56.5847 426.362 51.7996 424.708 46.7961C423.168 42.8547 420.297 40.0131 416.626 37.9956C412.419 36.9444 408.726 37.7345 405.816 41.0028Z" fill="#161616"/>
<path d="M525.217 35.2971C525.908 35.2868 525.908 35.2868 526.614 35.2763C532.136 35.2633 537.136 36.229 541.451 39.888C543.237 42.317 544.139 44.6181 544.536 47.5978C543.807 52.3398 540.684 55.0904 536.963 57.8308C535.346 58.3695 534.327 58.4508 532.65 58.4265C531.97 58.419 531.97 58.419 531.276 58.4112C530.931 58.4047 530.586 58.3982 530.231 58.3915C530.046 58.0214 529.86 57.6514 529.67 57.2701C530.238 57.025 530.238 57.025 530.818 56.7751C534.012 55.3081 535.937 54.2752 537.524 51.1022C538.467 48.2746 538.465 45.564 537.384 42.7967C536.395 40.9964 535.873 40.3657 534.158 39.3272C532.711 39.0077 532.711 39.0077 531.212 38.9418C530.712 38.9049 530.212 38.868 529.696 38.8301C529.317 38.8091 528.938 38.7881 528.548 38.7665C528.483 43.4701 528.433 48.1734 528.402 52.8773C528.388 55.0617 528.368 57.2457 528.336 59.4298C528.306 61.5385 528.289 63.6469 528.282 65.7558C528.276 66.5595 528.266 67.3632 528.251 68.1668C528.231 69.294 528.23 70.4215 528.229 71.549C528.223 72.1902 528.217 72.8314 528.21 73.4921C528.648 75.7261 529.732 76.4776 531.353 78.0165C531.353 78.7566 531.353 79.4967 531.353 80.2593C529.6 80.2756 527.846 80.2856 526.093 80.2944C525.594 80.2991 525.095 80.3038 524.581 80.3086C523.865 80.3113 523.865 80.3113 523.135 80.3141C522.474 80.3185 522.474 80.3185 521.799 80.323C520.694 80.2593 520.694 80.2593 519.572 79.6986C520.17 78.4558 520.783 77.325 521.564 76.1836C522.511 74.3995 522.587 73.2906 522.585 71.2812C522.591 70.282 522.591 70.282 522.596 69.2627C522.591 68.5483 522.586 67.8339 522.58 67.0979C522.581 66.3604 522.581 65.623 522.581 64.8632C522.581 63.3054 522.575 61.7479 522.565 60.1901C522.552 58.1959 522.552 56.202 522.556 54.2078C522.558 52.3016 522.552 50.3954 522.545 48.4892C522.546 47.7737 522.546 47.0582 522.547 46.321C522.542 45.6566 522.536 44.9923 522.531 44.3078C522.528 43.7236 522.526 43.1394 522.523 42.5374C522.374 40.9799 522.096 40.0739 521.255 38.7665C520.512 38.1989 519.765 37.637 519.011 37.0844C519.011 36.7143 519.011 36.3443 519.011 35.963C520.937 35 523.094 35.2987 525.217 35.2971Z" fill="#161616"/>
<path d="M592.222 36.804C595.138 38.5674 596.905 41.3094 598.323 44.3386C598.781 46.5826 598.984 48.823 598.674 51.1022C595.845 53.9299 588.75 52.8128 584.933 52.8213C582.22 52.8185 579.507 52.8059 576.795 52.7844C577.034 53.9422 577.281 55.0983 577.531 56.2538C577.668 56.8978 577.804 57.5418 577.945 58.2053C578.461 60.0165 579.159 61.2988 580.161 62.8772C580.161 63.2473 580.161 63.6173 580.161 63.9986C585.421 66.8298 589.71 66.6119 595.308 65.1201C596.991 65.05 596.991 65.05 598.113 65.1201C598.113 65.6752 598.113 66.2303 598.113 66.8022C597.238 67.262 596.361 67.7166 595.483 68.1689C594.751 68.5495 594.751 68.5495 594.004 68.9377C589.811 70.8039 585.233 70.6943 580.932 69.2553C576.302 67.3731 573.187 65.159 571.134 60.4986C569.227 54.722 569.846 48.2995 572.49 42.8339C576.555 36.3232 585.022 33.6642 592.222 36.804ZM579.727 40.7969C578.284 42.4323 577.09 44.0388 576.233 46.0558C576.276 47.529 576.276 47.529 576.795 48.8594C580.095 51.0586 583.66 50.7139 587.461 50.0042C590.493 49.63 590.493 49.63 593.064 48.2987C593.263 45.3109 593.329 43.4271 591.381 41.0094C587.797 37.5247 583.439 37.4052 579.727 40.7969Z" fill="#191919"/>
<path d="M310.876 37.0844C312.116 38.9424 312.124 39.5205 312.068 41.6752C312.058 42.1805 312.048 42.6857 312.038 43.2062C312.025 43.5915 312.012 43.9767 311.998 44.3737C311.443 44.3737 310.888 44.3737 310.315 44.3737C309.636 43.5742 309.636 43.5742 308.983 42.5163C307.535 40.3647 306.106 39.2799 303.653 38.381C299.527 37.7745 295.519 38.4069 291.877 40.4859C289.187 42.5117 288.234 45.0813 287.489 48.2636C286.91 53.9382 287.689 58.4666 291.359 62.9933C294.3 65.9387 297.651 67.1892 301.769 67.4001C303.401 67.3517 304.47 67.1739 305.827 66.2415C306.995 64.0137 307.011 62.3712 306.739 59.8984C306.677 59.2992 306.614 58.7 306.55 58.0827C306.497 57.6295 306.443 57.1763 306.388 56.7094C305.092 56.3393 303.796 55.9692 302.461 55.5879C302.461 55.0328 302.461 54.4777 302.461 53.9058C305.423 53.9058 308.385 53.9058 311.437 53.9058C313.237 57.5038 313.147 61.9827 312.253 65.9042C311.323 67.9117 309.845 68.9106 307.931 69.8511C302.539 71.6898 296.128 71.4615 290.904 69.2268C286.316 66.6952 283.439 63.0353 281.529 58.2163C280.475 52.5668 280.98 47.3876 284.252 42.5273C287.902 38.0787 292.556 35.5042 298.306 34.8963C302.672 34.7192 307.036 34.8665 310.876 37.0844Z" fill="#161616"/>
<path d="M148.745 60.6344C151.948 60.9127 156.485 61.6424 158.843 63.9986C158.647 67.7519 157.139 70.9121 155.687 74.3368C150.247 87.5741 146.731 101.491 144.811 115.669C144.525 117.691 144.287 118.903 143.135 120.631C142.764 120.631 142.394 120.631 142.013 120.631C141.185 118.977 141.365 117.306 141.375 115.494C141.376 115.093 141.378 114.692 141.38 114.279C141.42 110.128 141.727 106.014 142.118 101.882C142.154 101.492 142.19 101.102 142.227 100.701C145.337 67.447 145.337 67.447 148.745 60.6344Z" fill="#184D86"/>
<path d="M458.422 35.963C462.124 35.963 465.827 35.963 469.642 35.963C469.642 36.7031 469.642 37.4433 469.642 38.2058C469.086 38.5759 468.531 38.946 467.959 39.3272C467.634 40.3814 467.634 40.3814 467.58 41.5986C467.544 42.0508 467.508 42.503 467.471 42.9689C466.51 54.1889 466.51 54.1889 469.622 64.4652C471.336 66.2897 472.393 66.1942 474.831 66.3817C478.062 66.1664 480.499 65.5065 482.79 63.1576C484.362 60.6442 484.31 58.4029 484.303 55.5332C484.303 55.0902 484.304 54.6472 484.304 54.1907C484.305 53.2552 484.303 52.3196 484.301 51.3841C484.298 49.9493 484.301 48.5146 484.305 47.0798C484.304 46.1712 484.304 45.2626 484.303 44.354C484.304 43.9235 484.305 43.493 484.306 43.0495C484.342 40.8357 484.342 40.8357 483.667 38.7665C482.746 38.1829 481.812 37.6199 480.862 37.0844C481.047 36.7143 481.232 36.3443 481.423 35.963C484.755 35.963 488.088 35.963 491.521 35.963C491.521 36.7031 491.521 37.4433 491.521 38.2058C490.595 38.3909 489.67 38.5759 488.716 38.7665C488.725 39.3487 488.734 39.9308 488.743 40.5305C488.774 42.7146 488.793 44.8986 488.809 47.0828C488.817 48.0235 488.828 48.9643 488.843 49.905C489.028 62.0842 489.028 62.0842 485.49 66.7672C482.475 69.8607 479.855 70.2761 475.638 70.4118C471.451 70.3084 467.716 69.9237 464.645 66.8548C461.971 63.476 461.714 60.7824 461.709 56.5363C461.698 55.6109 461.688 54.6855 461.676 53.7601C461.66 52.3069 461.647 50.8541 461.647 49.4008C461.645 47.994 461.626 46.5884 461.604 45.1819C461.608 44.7496 461.612 44.3173 461.616 43.8719C461.563 41.5605 461.367 40.6059 459.801 38.8562C459.346 38.4565 458.89 38.0569 458.422 37.6451C458.422 37.09 458.422 36.5349 458.422 35.963Z" fill="#121212"/>
<path d="M104.986 61.7558C109.684 78.1759 111.408 95.6028 112.174 112.605C112.219 113.53 112.219 113.53 112.264 114.473C112.284 115.039 112.304 115.604 112.325 116.187C112.344 116.681 112.362 117.176 112.382 117.686C112.279 118.949 112.279 118.949 111.157 120.631C110.602 120.631 110.046 120.631 109.474 120.631C108.774 119.232 108.68 118.033 108.486 116.478C106.333 99.9123 102.957 83.1325 95.3493 68.1031C94.8204 66.6121 94.8133 65.9968 95.4489 64.5593C98.7855 61.9656 100.86 61.7367 104.986 61.7558Z" fill="#174C86"/>
<path d="M127.812 56.5692C128.462 56.5779 129.112 56.5865 129.782 56.5955C131.353 56.7094 131.353 56.7094 131.914 57.2701C132.149 60.9319 131.827 64.6032 131.483 68.2478C131.389 69.3006 131.295 70.3534 131.202 71.4062C131.152 71.9575 131.102 72.5088 131.051 73.0768C129.651 88.7206 128.778 104.385 127.987 120.07C126.9 120.385 126.9 120.385 125.743 120.631C124.747 119.635 125.043 118.171 124.991 116.82C124.963 116.118 124.934 115.417 124.905 114.695C124.884 114.126 124.884 114.126 124.863 113.546C124.818 112.346 124.77 111.146 124.721 109.946C124.652 108.231 124.583 106.516 124.516 104.801C124.342 100.366 124.163 95.9303 123.975 91.4955C123.956 91.0571 123.938 90.6187 123.918 90.1671C123.682 84.6877 123.383 79.2212 122.936 73.7542C122.892 73.208 122.847 72.6618 122.802 72.099C122.598 69.6478 122.376 67.1996 122.132 64.7521C122.057 63.9096 121.981 63.067 121.906 62.2245C121.835 61.5164 121.763 60.8084 121.689 60.0788C121.816 58.3915 121.816 58.3915 122.821 57.3224C124.535 56.4748 125.91 56.5266 127.812 56.5692Z" fill="#174D86"/>
<path d="M125.743 129.041C126.9 129.287 126.9 129.287 127.987 129.602C128.532 133.949 128.652 138.283 128.734 142.658C128.916 151.847 129.387 161.011 129.951 170.184C129.988 170.785 130.025 171.387 130.063 172.007C130.17 173.752 130.28 175.496 130.389 177.241C130.44 178.06 130.44 178.06 130.492 178.895C130.641 181.246 130.8 183.594 131.009 185.941C131.071 186.646 131.132 187.352 131.196 188.078C131.253 188.668 131.311 189.257 131.37 189.865C131.353 191.281 131.353 191.281 130.231 192.963C129.116 193.289 129.116 193.289 127.812 193.418C127.386 193.468 126.96 193.518 126.521 193.569C124.94 193.515 123.825 193.014 122.377 192.402C122.256 186.91 122.601 181.519 123.033 176.049C123.982 163.908 124.454 151.766 124.819 139.595C124.84 138.933 124.861 138.272 124.882 137.591C124.921 136.34 124.957 135.089 124.991 133.837C125.008 133.286 125.025 132.734 125.042 132.166C125.063 131.44 125.063 131.44 125.084 130.699C125.182 129.602 125.182 129.602 125.743 129.041Z" fill="#1C4B7E"/>
<path d="M103.303 129.041C103.673 129.226 104.044 129.411 104.425 129.602C104.934 147.27 101.605 164.075 95.4489 180.627C95.3067 181.016 95.1645 181.404 95.018 181.805C94.5964 182.883 94.5964 182.883 93.7658 184.552C92.0828 185.113 92.0828 185.113 90.7701 184.633C85.9289 182.152 85.9289 182.152 84.2287 180.066C85.0371 177.838 86.1095 175.964 87.3844 173.969C95.5808 160.832 100.268 146.935 102.418 131.613C102.742 129.602 102.742 129.602 103.303 129.041Z" fill="#194E86"/>
<path d="M90.3998 68.4843C92.7063 71.3177 93.8444 74.6182 95.0982 78.0165C95.3182 78.6101 95.5382 79.2037 95.7648 79.8154C99.9889 91.4456 104.028 104.753 103.899 117.231C103.894 117.872 103.889 118.514 103.884 119.174C103.877 119.655 103.871 120.135 103.864 120.631C103.309 120.446 102.753 120.261 102.181 120.07C101.703 118.708 101.703 118.708 101.269 116.776C97.7925 102.626 92.5431 89.7933 84.3689 77.7383C83.3469 76.2081 82.5792 74.7224 81.9847 72.97C84.2069 69.9264 86.4102 67.7208 90.3998 68.4843Z" fill="#184D86"/>
<path d="M165.119 68.4493C167.852 69.2104 169.635 70.5772 171.185 72.97C171.514 74.8199 171.334 75.5469 170.298 77.125C169.885 77.6158 169.472 78.1066 169.046 78.6122C160.531 89.3199 155.667 102.577 152.947 115.858C152.854 116.31 152.761 116.763 152.665 117.229C152.585 117.639 152.505 118.049 152.423 118.472C152.111 119.509 152.111 119.509 150.989 120.631C150.433 120.631 149.878 120.631 149.306 120.631C148.911 105.21 154.429 89.404 159.965 75.2129C160.161 74.6997 160.356 74.1865 160.558 73.6578C160.851 72.901 160.851 72.901 161.15 72.129C161.414 71.4438 161.414 71.4438 161.684 70.7447C162.564 68.836 162.981 68.4912 165.119 68.4493Z" fill="#1A497D"/>
<path d="M149.306 129.041C149.861 129.041 150.417 129.041 150.989 129.041C151.069 129.62 151.069 129.62 151.15 130.211C153.39 146.18 157.027 161.083 166.263 174.606C167.258 176.141 167.258 176.141 167.328 177.578C166.431 179.522 165.183 180.734 163.331 181.748C161.797 182.126 160.433 182.227 158.843 182.309C151.448 165.924 147.959 147.553 148.745 129.602C148.93 129.417 149.115 129.232 149.306 129.041Z" fill="#1C4B7E"/>
<path d="M116.767 58.9522C117.406 60.2293 117.473 61.1239 117.589 62.5451C117.632 63.0589 117.675 63.5727 117.72 64.102C117.764 64.6621 117.808 65.2221 117.854 65.799C117.902 66.3807 117.95 66.9624 117.999 67.5616C118.1 68.8013 118.2 70.041 118.298 71.2808C118.447 73.1379 118.599 74.9946 118.753 76.8512C119.666 88.0502 120.225 99.1613 120.168 110.398C120.165 111.4 120.163 112.403 120.161 113.405C120.155 115.814 120.145 118.222 120.133 120.631C119.393 120.631 118.652 120.631 117.889 120.631C116.865 118.422 116.592 116.581 116.491 114.156C116.456 113.426 116.421 112.695 116.384 111.943C116.367 111.555 116.35 111.167 116.332 110.767C115.673 96.4302 113.859 82.3339 111.118 68.25C111.011 67.6901 111.011 67.6901 110.901 67.119C110.706 66.1132 110.508 65.1082 110.308 64.1034C110.041 62.3549 109.985 60.7178 110.035 58.9522C112.695 57.8129 114.125 57.7237 116.767 58.9522Z" fill="#1E4C7F"/>
<path d="M143.135 58.3915C143.32 58.5765 143.505 58.7616 143.696 58.9522C143.644 63.4978 142.646 67.9909 141.782 72.4343C139.143 86.1158 137.518 99.8526 136.736 113.761C136.699 114.419 136.662 115.077 136.624 115.755C136.594 116.333 136.564 116.911 136.534 117.507C136.403 118.949 136.403 118.949 135.842 120.631C135.008 120.908 135.008 120.908 134.158 121.191C132.603 119.637 133.46 115.368 133.457 113.201C133.456 112.808 133.455 112.415 133.454 112.01C133.453 103.632 133.889 95.28 134.369 86.9178C134.422 85.9833 134.422 85.9833 134.476 85.03C134.858 78.4017 135.298 71.7776 135.828 65.1595C135.869 64.6144 135.909 64.0693 135.951 63.5077C135.994 63.0063 136.036 62.5049 136.08 61.9882C136.115 61.5491 136.15 61.11 136.187 60.6575C136.403 59.5129 136.403 59.5129 137.525 57.8308C139.743 57.0916 140.954 57.6652 143.135 58.3915Z" fill="#204D7F"/>
<path d="M118.45 128.481C118.82 128.481 119.191 128.481 119.572 128.481C119.741 143.171 119.854 157.835 118.801 172.497C118.765 173 118.73 173.502 118.693 174.021C117.707 187.691 117.707 187.691 116.767 191.281C114.821 192.578 114.004 192.592 111.718 192.402C111.163 192.032 110.607 191.662 110.035 191.281C110.374 186.988 111.09 182.821 111.893 178.594C114.309 165.372 115.824 152.189 116.384 138.767C116.411 138.167 116.411 138.167 116.439 137.554C116.488 136.471 116.53 135.388 116.572 134.304C117.024 129.907 117.024 129.907 118.45 128.481Z" fill="#1E4C7F"/>
<path d="M134.158 129.041C135.316 129.287 135.316 129.287 136.403 129.602C136.811 132.716 137.037 135.813 137.165 138.95C137.8 154.119 139.069 169.356 142.528 184.179C143.025 186.357 143.223 188 142.574 190.159C139.032 191.384 139.032 191.384 137.432 190.954C136.403 190.159 136.403 190.159 135.977 188.781C135.909 188.161 135.841 187.54 135.771 186.9C135.711 186.364 135.711 186.364 135.65 185.818C134.942 179.062 134.573 172.267 134.158 165.488C134.124 164.971 134.09 164.455 134.055 163.923C133.547 156.168 133.54 148.41 133.527 140.641C133.526 140.101 133.524 139.56 133.523 139.003C133.52 137.46 133.52 135.918 133.523 134.375C133.522 133.902 133.521 133.429 133.52 132.941C133.533 129.667 133.533 129.667 134.158 129.041Z" fill="#204E80"/>
<path d="M110.596 129.041C111.152 129.226 111.707 129.411 112.279 129.602C112.364 135.596 112.164 141.5 111.613 147.475C111.577 147.877 111.541 148.279 111.504 148.693C110.448 160.329 108.777 171.916 106.599 183.396C106.517 183.843 106.435 184.291 106.35 184.752C106.022 186.374 105.711 187.686 104.745 189.046C103.864 189.598 103.864 189.598 102.181 189.493C100.498 189.038 100.498 189.038 98.8149 187.916C99.1638 184.303 100.284 181.075 101.445 177.648C106.158 163.283 108.589 148.853 109.673 133.808C109.713 133.267 109.753 132.725 109.794 132.167C109.827 131.685 109.861 131.202 109.895 130.705C110.035 129.602 110.035 129.602 110.596 129.041Z" fill="#224F81"/>
<path d="M142.013 128.481C142.568 128.481 143.123 128.481 143.696 128.481C143.732 129.05 143.768 129.619 143.806 130.205C144.923 147.355 146.825 164.152 153.057 180.331C153.793 182.308 154.085 183.591 153.794 185.673C153.198 186.69 153.198 186.69 152.111 187.356C150.042 187.741 150.042 187.741 148.184 187.916C146.59 183.637 145.802 179.384 145.098 174.88C145.038 174.504 144.979 174.128 144.917 173.741C143.629 165.602 142.724 157.437 142.013 149.227C141.972 148.767 141.932 148.307 141.89 147.833C141.504 143.265 141.402 138.705 141.381 134.123C141.379 133.627 141.376 133.131 141.373 132.62C141.383 129.11 141.383 129.11 142.013 128.481Z" fill="#235081"/>
<path d="M653.653 39.888C654.023 40.073 654.393 40.258 654.775 40.4487C651.998 43.2242 649.221 45.9997 646.36 48.8594C645.989 48.6743 645.619 48.4893 645.238 48.2987C646.112 47.3149 646.988 46.3342 647.867 45.3549C648.355 44.8085 648.844 44.2621 649.347 43.6991C650.706 42.2785 652.087 41.0723 653.653 39.888Z" fill="#3E3E3E"/>
<path d="M342.293 65.6808C342.293 66.2359 342.293 66.791 342.293 67.3629C341.922 67.733 341.552 68.1031 341.171 68.4843C344.873 68.6694 348.576 68.8544 352.391 69.0451C352.391 69.2301 352.391 69.4151 352.391 69.6058C348.318 69.6058 344.245 69.6058 340.049 69.6058C339.864 69.2357 339.678 68.8656 339.488 68.4843C340.413 67.5592 341.339 66.634 342.293 65.6808Z" fill="#7A7A7A"/>
<path d="M577.356 37.6451C577.726 37.8301 578.096 38.0152 578.478 38.2058C576.811 39.8711 575.145 41.5365 573.428 43.2522C573.428 41.5701 573.428 41.5701 574.761 40.1333C575.247 39.6823 575.733 39.2312 576.233 38.7665C576.604 38.3965 576.974 38.0264 577.356 37.6451Z" fill="#424242"/>
</svg>
