<svg xmlns="http://www.w3.org/2000/svg" width="906" height="253" fill="none"><path fill="#000" fill-rule="evenodd" d="M0 252.582V194.07h25.16c7.188 0 12.957 2.174 16.634 5.852 2.842 2.842 4.514 6.937 4.514 11.535v.166c0 9.697-6.687 15.381-15.882 17.053l17.971 23.906H40.29L23.32 229.846H6.603v22.736H0Zm6.603-28.67h17.972c8.777 0 15.046-4.514 15.046-12.037v-.168c0-7.188-5.518-11.535-14.962-11.535H6.603v23.74Z" clip-rule="evenodd"/><path fill="#000" d="M127.275 252.582V194.07h42.296v6.02h-35.693v19.976h31.931v6.018h-31.931v20.479h36.111v6.019h-42.714Zm159.228-7.189-39.287-19.475V220.4l39.287-19.476v6.437l-32.266 15.715 32.266 15.797v6.52Zm73.137 0-39.286-19.475V220.4l39.286-19.476v6.437l-32.263 15.715 32.263 15.797v6.52ZM458.776 253l-20.897-58.93h7.187l16.718 48.733 16.05-48.899h5.433l16.048 48.899 16.717-48.733h6.939L502.074 253h-5.601l-16.048-47.479L464.292 253h-5.516Zm143.053-.418V194.07h42.296v6.02h-35.693v19.976h31.931v6.018h-31.931v20.479h36.111v6.019h-42.714Z"/><path fill="#000" fill-rule="evenodd" d="m719.682 252.582 26.665-58.93h6.185l26.664 58.93h-7.103l-6.855-15.465h-31.847l-6.938 15.465h-6.771Zm16.3-21.482h26.664l-13.29-29.758-13.374 29.758Zm121.621 21.482V194.07h25.158c7.189 0 12.956 2.174 16.634 5.852 2.843 2.842 4.515 6.937 4.515 11.535v.166c0 9.697-6.687 15.381-15.881 17.053L906 252.582h-8.109l-16.968-22.736h-16.717v22.736h-6.603Zm6.603-28.67h17.971c8.777 0 15.046-4.514 15.046-12.037v-.168c0-7.188-5.517-11.535-14.963-11.535h-18.054v23.74ZM814.818 40.125a31.517 31.517 0 0 1-4.523 16.328c-2.978 4.96-7.264 9.067-12.425 11.904l17.132 37.174h-27.883L771.92 72.643h-48.834v32.888h-25.542V.005h83.534a34.705 34.705 0 0 1 12.89 2.473 33.767 33.767 0 0 1 10.929 7.048 32.487 32.487 0 0 1 7.302 10.551 31.534 31.534 0 0 1 2.566 12.446l.053 7.602Zm-33.687 7.86a8.402 8.402 0 0 0 3.119-.596 8.231 8.231 0 0 0 2.641-1.704 7.868 7.868 0 0 0 1.763-2.55c.409-.951.62-1.975.62-3.01v-7.549c0-1.032-.21-2.055-.62-3.009a7.85 7.85 0 0 0-1.763-2.55 8.206 8.206 0 0 0-2.641-1.704 8.39 8.39 0 0 0-3.119-.597h-57.992v23.317h57.992v-.047ZM551.676 32.583c0-4.275.87-8.509 2.568-12.457a32.375 32.375 0 0 1 7.316-10.558 33.775 33.775 0 0 1 10.942-7.047A34.74 34.74 0 0 1 585.409.058h58.665a34.71 34.71 0 0 1 12.89 2.473 33.778 33.778 0 0 1 10.929 7.05 32.448 32.448 0 0 1 7.302 10.553 31.449 31.449 0 0 1 2.56 12.448v72.949h-25.542v-32.83h-74.902v32.883h-25.584V32.582h-.051Zm100.51 0c0-1.033-.21-2.055-.619-3.01a7.823 7.823 0 0 0-1.765-2.55 8.167 8.167 0 0 0-2.639-1.704 8.426 8.426 0 0 0-3.119-.597h-58.635a8.426 8.426 0 0 0-3.119.597 8.167 8.167 0 0 0-2.639 1.704 7.823 7.823 0 0 0-1.765 2.55 7.63 7.63 0 0 0-.621 3.01v15.41h74.905l.016-15.41Z" clip-rule="evenodd"/><path fill="#000" d="M543.699.005v24.663h-42.307v80.863h-26.024V24.668h-42.301V.005h110.632ZM329.93 32.582c0 1.034.21 2.058.619 3.009a7.854 7.854 0 0 0 1.765 2.55 8.139 8.139 0 0 0 2.642 1.704 8.376 8.376 0 0 0 3.116.597h53.065a34.741 34.741 0 0 1 13.022 2.355 33.827 33.827 0 0 1 11.075 7.022 32.491 32.491 0 0 1 7.411 10.602 31.519 31.519 0 0 1 2.607 12.542c0 4.306-.885 8.569-2.607 12.541a32.493 32.493 0 0 1-7.411 10.602 33.83 33.83 0 0 1-11.075 7.022 34.728 34.728 0 0 1-13.022 2.356h-82.732V80.821h82.732a8.277 8.277 0 0 0 5.62-2.373 7.719 7.719 0 0 0 2.31-5.485c0-2.05-.828-4.018-2.31-5.485a8.272 8.272 0 0 0-5.62-2.373h-53.065c-8.859-.109-17.316-3.583-23.54-9.67-6.225-6.087-9.715-14.297-9.715-22.85 0-8.555 3.49-16.764 9.715-22.851 6.224-6.087 14.681-9.562 23.54-9.67h79.379v24.663h-79.379a8.352 8.352 0 0 0-5.738 2.317 7.793 7.793 0 0 0-2.404 5.538Zm-89.373 7.855h40.644V65.1h-40.644V40.437ZM124.573 105.53c-4.428 0-8.812-.843-12.902-2.48a33.795 33.795 0 0 1-10.934-7.063 32.473 32.473 0 0 1-7.299-10.567 31.551 31.551 0 0 1-2.55-12.46V32.522a31.54 31.54 0 0 1 2.561-12.447 32.46 32.46 0 0 1 7.302-10.553 33.773 33.773 0 0 1 10.929-7.05A34.722 34.722 0 0 1 124.573 0h90.922v24.663h-90.922a8.39 8.39 0 0 0-3.117.597c-.982.391-1.88.97-2.641 1.704a7.839 7.839 0 0 0-1.765 2.55 7.628 7.628 0 0 0-.618 3.01V72.96c0 1.035.21 2.058.618 3.009a7.854 7.854 0 0 0 1.765 2.55 8.148 8.148 0 0 0 2.641 1.704 8.4 8.4 0 0 0 3.117.597h59.653a8.389 8.389 0 0 0 3.115-.598 8.193 8.193 0 0 0 2.641-1.704 7.874 7.874 0 0 0 1.763-2.55 7.64 7.64 0 0 0 .617-3.008V65.1h-38.659V40.442h64.203V72.96c-.006 8.629-3.555 16.903-9.87 23.008-6.315 6.106-14.878 9.545-23.816 9.563h-59.647Z"/></svg>