<svg xmlns="http://www.w3.org/2000/svg" width="993" height="120" fill="none"><path fill="#000" d="M70.9 2.8v42.5H31.2V2.8H0v113.4h31.2V70.8h39.7v45.4h31.2V2.8H70.9ZM180 119c-25.5-.1-51-17-51-51V2.8h31.2v68c0 14.2 11.4 19.8 19.9 19.8 8.5 0 19.9-5.7 19.9-19.8v-68h31V68c0 34-25.5 51.1-51 51Zm130.4 0c-32.6 0-59.5-25.5-59.5-59.5S277.8 0 310.4 0c22.7 0 36.8 11.3 36.8 11.3l-17.7 22s-6.4-5.7-19.1-5.7c-17 0-29 14.9-29 31.9s12 31.2 29 31.2c14.2 0 21.3-5.7 21.3-5.7V70.8h-24.1V46h51v53.2S343 119 310.4 119Zm126.2-90.7c-17 0-29 14.2-29 31.2s12 31.2 29 31.2 29-14.2 29-31.2-12-31.2-29-31.2Zm0 90.7c-32.6 0-59.5-25.5-59.5-59.5S404 0 436.6 0s59.5 25.5 59.5 59.5-26.9 59.5-59.5 59.5Zm299-90.7c-17 0-29 14.2-29 31.2s12 31.2 29 31.2 29-14.2 29-31.2c.1-17-12-31.2-29-31.2Zm0 90.7c-32.6 0-59.5-25.5-59.5-59.5S703 0 735.6 0s59.5 25.5 59.5 59.5-26.9 59.5-59.5 59.5Zm126.2-35.4c0 4.2-4.2 7.8-11.3 7.8-15.6 0-25.5-10.6-25.5-10.6l-17 22.7s14.2 15.6 42.5 15.6c22.7 0 42.5-14.2 42.5-35.4 0-34-53.9-36.9-53.9-48.2 0-4.2 5.7-7.8 14.2-7.8 11.3 0 17.7 5.7 17.7 5.7l16.3-22S873.1.1 850.5.1c-21.3 0-39.7 15.6-39.7 35.4-.1 33.9 51 35.3 51 48.1ZM644.9 53.8c5-6.4 7.1-12.7 7.1-19.8 0-17.3-14-31.2-31.2-31.2H567v113.4h58.8c19.2 0 34.7-15.6 34.7-34.7 0-11.9-5.7-22-15.6-27.7ZM596 27.6h17.7c5.5 0 9.9 4.4 9.9 9.9s-4.4 9.9-9.9 9.9H596V27.6Zm23.4 63.1H596V69.4h23.4c5.9 0 10.6 4.8 10.6 10.6 0 5.9-4.7 10.7-10.6 10.7ZM961 83.6c0 4.2-4.2 7.8-11.3 7.8-15.6 0-25.5-10.6-25.5-10.6l-17 22.7s14.2 15.6 42.5 15.6c22.7 0 42.5-14.2 42.5-35.4 0-34-53.9-36.9-53.9-48.2 0-4.2 5.7-7.8 14.2-7.8 11.3 0 17.7 5.7 17.7 5.7l16.3-22S972.3.1 949.7.1C928.4.1 910 15.7 910 35.5c-.1 33.9 51 35.3 51 48.1Z"/></svg>