<svg xmlns="http://www.w3.org/2000/svg" width="498" height="36" fill="none"><path fill="#000" d="M3.51 1.02H0v33.93h3.51V1.02Z"/><path fill="#000" d="M3.52 1.01H0v33.93h3.52V1.01ZM63.58 34.95V1.02h18.49c7.35 0 11.03 3.06 11.03 9.17 0 1.89-.55 3.59-1.66 5.08-1.21 1.62-2.87 2.66-4.99 3.14v.09c2.25.35 3.82 1.31 4.71 2.9.76 1.33 1.2 3.5 1.33 6.5.19 4.12.59 6.47 1.19 7.04h-3.8c-.54-.63-.84-2.95-.9-6.94-.03-2.98-.67-5.06-1.92-6.23-1.25-1.18-3.35-1.76-6.3-1.76H67.12v14.92H63.6l-.02.02Zm3.52-30.7V16.8h14.87c4.88 0 7.32-2.21 7.32-6.61 0-3.96-2.33-5.94-6.99-5.94H67.09h.01Z"/><path fill="#000" d="M63.58 34.95V1.02h18.49c7.35 0 11.03 3.06 11.03 9.17 0 1.89-.55 3.59-1.66 5.08-1.21 1.62-2.87 2.66-4.99 3.14v.09c2.25.35 3.82 1.31 4.71 2.9.76 1.33 1.2 3.5 1.33 6.5.19 4.12.59 6.47 1.19 7.04h-3.8c-.54-.63-.84-2.95-.9-6.94-.03-2.98-.67-5.06-1.92-6.23-1.25-1.18-3.35-1.76-6.3-1.76H67.12v14.92H63.6l-.02.02Zm3.52-30.7V16.8h14.87c4.88 0 7.32-2.21 7.32-6.61 0-3.96-2.33-5.94-6.99-5.94H67.09h.01ZM136.53 17.98c0-5.7 1.87-10.16 5.61-13.4 3.39-2.95 7.67-4.42 12.83-4.42s9.44 1.48 12.83 4.42c3.74 3.23 5.61 7.7 5.61 13.4s-1.87 10.17-5.61 13.41c-3.39 2.95-7.67 4.42-12.83 4.42s-9.44-1.47-12.83-4.42c-3.74-3.23-5.61-7.7-5.61-13.41Zm3.8 0c0 4.79 1.5 8.5 4.52 11.12 2.66 2.31 6.03 3.47 10.12 3.47 4.09 0 7.46-1.16 10.12-3.47 3.01-2.63 4.51-6.34 4.51-11.12 0-4.78-1.5-8.48-4.51-11.11-2.66-2.31-6.04-3.47-10.12-3.47-4.08 0-7.46 1.16-10.12 3.47-3.01 2.63-4.52 6.33-4.52 11.11Z"/><path fill="#000" d="M136.53 17.98c0-5.7 1.87-10.16 5.61-13.4 3.39-2.95 7.67-4.42 12.83-4.42s9.44 1.48 12.83 4.42c3.74 3.23 5.61 7.7 5.61 13.4s-1.87 10.17-5.61 13.41c-3.39 2.95-7.67 4.42-12.83 4.42s-9.44-1.47-12.83-4.42c-3.74-3.23-5.61-7.7-5.61-13.41Zm3.8 0c0 4.79 1.5 8.5 4.52 11.12 2.66 2.31 6.03 3.47 10.12 3.47 4.09 0 7.46-1.16 10.12-3.47 3.01-2.63 4.51-6.34 4.51-11.12 0-4.78-1.5-8.48-4.51-11.11-2.66-2.31-6.04-3.47-10.12-3.47-4.08 0-7.46 1.16-10.12 3.47-3.01 2.63-4.52 6.33-4.52 11.11ZM210.23 32.85a2.09 2.09 0 1 1-4.18 0c0-1.15.93-2.09 2.09-2.09 1.16 0 2.09.93 2.09 2.09Z"/><path fill="#1D1D1B" d="M241.99 35.1V1.16h13.88c3.55 0 6.15.71 7.8 2.12 1.65 1.41 2.5 3.6 2.57 6.58.06 2.28-.54 4.18-1.81 5.68-1.27 1.51-3.09 2.53-5.47 3.07v.09c1.43.19 2.58.53 3.47 1.02.89.49 1.57 1.13 2.04 1.93s.79 1.73.95 2.8c.16 1.08.24 2.3.24 3.66a45 45 0 0 0 .05 1.78c.03.71.08 1.42.14 2.12.06.7.14 1.33.24 1.9.1.57.22.97.38 1.19h-1.04c-.16-.35-.29-.82-.38-1.4-.09-.59-.17-1.21-.21-1.88-.05-.67-.08-1.34-.09-2.02-.02-.68-.02-1.29-.02-1.83 0-1.39-.1-2.64-.31-3.73-.21-1.09-.63-2.01-1.26-2.76-.63-.74-1.54-1.31-2.71-1.71-1.17-.4-2.74-.59-4.71-.59h-12.79V35.1h-.96Zm13.64-16.87c1.27 0 2.48-.16 3.64-.48 1.16-.32 2.18-.82 3.07-1.52.89-.7 1.6-1.58 2.14-2.64s.81-2.34.81-3.83c-.03-2.41-.76-4.29-2.19-5.63-1.43-1.35-3.75-2.02-6.99-2.02h-13.17v16.11h12.69v.01ZM320.18 34.15v.95h-22.72V1.16h22.53v.95h-21.58v14.83h20.3v.95h-20.3v16.26h21.77ZM350.84 1.16l23.2 32.75h.1V1.16h.95V35.1h-1.43l-23.2-32.75h-.09V35.1h-.95V1.16h1.43-.01ZM429.37 34.15v.95h-22.72V1.16h22.53v.95H407.6v14.83h20.3v.95h-20.3v16.26h21.77ZM497.87 1.16l-9.84 33.94h-1.28l-9.98-32.75h-.1l-9.79 32.75h-1.28l-9.98-33.94h.95l9.6 32.75h.09l9.79-32.75h1.38l9.93 32.75h.1l9.46-32.75h.95Z"/></svg>