<svg xmlns="http://www.w3.org/2000/svg" width="477" height="165" fill="none"><path fill="#000" fill-rule="evenodd" d="M37 41h21V0H37v41ZM96.718 1.092C85.273 3.787 80.711 9.673 84.456 16.915c2.302 4.452 11.696 7.83 26.764 9.626 6.154.734 9.262 2.857 6.716 4.587-2.213 1.503-15.417.442-18.341-1.474C97.851 28.511 94.896 28 90.035 28c-3.869 0-7.035.269-7.035.599 0 2.657 3.869 7.804 7.11 9.457 5.273 2.69 17.691 4.281 27.944 3.579 17.621-1.206 25.327-7.001 21.497-16.168-1.975-4.727-6.965-6.842-21.299-9.028-11.853-1.808-16.004-3.518-13.252-5.459 2.46-1.736 16.453-.785 18.727 1.273 1.46 1.321 3.68 1.747 9.102 1.747 7.674 0 8.078-.346 5.722-4.901-1.916-3.706-5.271-5.791-12.235-7.605-6.285-1.637-23.369-1.869-29.598-.402Zm77.244 6.158c-1.833 3.987-6.156 13.212-9.606 20.5L158.083 41h6.798c6.281 0 6.885-.19 7.937-2.5 1.091-2.394 1.515-2.5 10.052-2.5 8.673 0 8.93.067 9.541 2.5.621 2.477.729 2.5 11.608 2.5 6.04 0 10.981-.209 10.981-.466 0-.256-4.345-9.481-9.656-20.5L195.687 0h-18.391l-3.334 7.25ZM236 41.131l23.75-.316c20.427-.271 24.202-.562 26.983-2.082 6.8-3.716 8.144-12.944 2.549-17.497-1.796-1.462-2.392-2.524-1.682-3 4.07-2.723 4.376-9.414.603-13.186C284.146.993 277.708 0 255.451 0H236v41.131ZM318 41h51v-9h-30v-8h18.127l-.627-6.5-17.5-.578V10h30V0h-51v41Zm78 0h51v-9h-30V0h-21v41ZM272.866 11.724c.612 1.094.617 2.374.014 3.5-.78 1.458-2.288 1.776-8.415 1.776H257v-7h7.45c6.014 0 7.637.333 8.416 1.724Zm-89.574 17.085c-2.479.17-4.76.056-5.069-.253-.309-.309.505-2.839 1.808-5.623l2.371-5.061L187.8 28.5l-4.508.309Zm91.137-3.238c1.815 1.816 1.89 2.375.593 4.429-.717 1.137-2.955 1.5-9.234 1.5H257.5l-.621-7.5h7.989c5.93 0 8.394.405 9.561 1.571ZM0 103h13.947l.553-29.5 14.397 29.586 15.391-.586L57.5 73.601 58.053 103H79V62H48.482l-8.696 18.5L31.074 62H0v41Zm114.994-29.75a7483.219 7483.219 0 0 0-9.613 20.5l-4.315 9.25h6.806c6.29 0 6.893-.19 7.946-2.5 1.086-2.383 1.54-2.5 9.682-2.5s8.596.117 9.682 2.5c1.114 2.445 1.38 2.5 12.086 2.5 8.359 0 10.827-.295 10.441-1.25-.277-.687-4.674-9.912-9.77-20.5L138.674 62h-18.381l-5.299 11.25ZM179 103h21l.096-16.5 15.468 16.572 21.423-.572-6.993-7.661c-3.847-4.214-6.994-7.927-6.994-8.25 0-.324 1.109-.589 2.465-.589 1.356 0 4.056-1.397 6-3.104 2.939-2.58 3.535-3.777 3.535-7.1 0-3.187-.668-4.664-3.297-7.293-4.951-4.951-8.903-5.723-31.953-6.24L179 61.798V103Zm89.211-30.25a3103.58 3103.58 0 0 0-9.623 20.5l-4.522 9.75h6.806c6.29 0 6.893-.19 7.946-2.5 1.086-2.383 1.54-2.5 9.682-2.5s8.596.117 9.682 2.5c1.114 2.445 1.38 2.5 12.086 2.5 8.359 0 10.827-.295 10.441-1.25-.277-.687-4.674-9.912-9.77-20.5L291.674 62h-18.361l-5.102 10.75ZM332 103h14V73.689L375.884 103H397V62h-21v17.194L357.268 62H332v41Zm88-31h18v31h21V72h18V62h-57v10Zm-204.441 1.441c1.552 1.153 1.72 1.804.836 3.25-.882 1.443-2.652 1.868-8.75 2.101l-7.645.292V72h6.809c4.365 0 7.505.517 8.75 1.441ZM128.397 85.75l2.637 5.25h-11.012l2.683-5.472c1.477-3.01 2.768-5.372 2.869-5.25.102.122 1.372 2.584 2.823 5.472Zm153 0 2.637 5.25h-11.012l2.683-5.472c1.477-3.01 2.768-5.372 2.869-5.25.102.122 1.372 2.584 2.823 5.472Zm21.617 56.22c-8.464 2.122-11.801 11.879-6.205 18.143 3.266 3.654 8.692 4.602 19.638 3.43l6.553-.702V151h-7c-6.8 0-7 .071-7 2.5 0 2 .5 2.5 2.5 2.5 3.305 0 3.299 2.761-.007 3.591-5.557 1.395-10.265-5.331-7.365-10.522 1.551-2.777 6.316-4.025 8.194-2.147 1.208 1.208 10.687 1.499 10.663.328-.028-1.34-1.439-2.926-3.63-4.079-2.989-1.573-12.165-2.248-16.341-1.201ZM121 142.338c0 .545 8.446 19.041 9.32 20.412.46.72 2.867 1.25 5.68 1.25 2.81 0 5.223-.53 5.686-1.25.441-.687 2.686-5.525 4.988-10.75l4.186-9.5-3.535-.317c-5.182-.464-5.787.03-8.312 6.783-1.265 3.381-2.615 5.785-3 5.341-.386-.444-1.724-3.395-2.973-6.557l-2.272-5.75h-4.884c-2.686 0-4.884.152-4.884.338ZM162 164h9v-22h-9v22Zm24 0h6.916l.584-15.5 7.939 15.5H214v-22h-8l-.098 13.5-6.93-13.5H186v22Zm39-19.5c0 2.19.433 2.5 3.5 2.5h3.5v17h9v-17h3.5c3.067 0 3.5-.31 3.5-2.5V142h-23v2.5Zm27.983 19.5h4.441c3.563 0 4.567-.396 5.076-2 .54-1.702 1.513-2 6.532-2 4.874 0 6.083.347 6.968 2 .825 1.542 2.094 2 5.535 2 2.456 0 4.465-.291 4.465-.647 0-.357-2.363-5.304-5.25-10.996l-5.25-10.348-11.483-.009-11.034 22ZM336 164h21v-2.5c0-2.389-.267-2.5-6-2.5-5.333 0-6-.222-6-2 0-1.758.667-2 5.5-2s5.5-.242 5.5-2-.667-2-5.5-2c-5.2 0-5.5-.136-5.5-2.5 0-2.389.267-2.5 6-2.5 5.333 0 6-.222 6-2 0-1.873-.667-2-10.5-2H336v22Zm-65.096-9.179c-4.089.681-4.691-.049-3.141-3.81l1.438-3.49 1.816 3.49c1.771 3.404 1.768 3.497-.113 3.81Z" clip-rule="evenodd"/></svg>