<svg xmlns="http://www.w3.org/2000/svg" width="1321" height="298" fill="none"><path fill="#E40015" d="M0 89.695c25.932.229 52.194 5.385 79.005-6.073v171.871a44.983 44.983 0 0 0 1.099 14.552c1.538 4.126 4.835 9.855 7.911 10.542 4.85.217 9.55-1.794 12.856-5.499a38.725 38.725 0 0 0 6.154-14.324c3.736-14.207 10.439-21.425 21.427-22.915 10.069-.884 19.579 4.947 23.734 14.552 4.361 10.853.941 23.408-8.241 30.249a5.086 5.086 0 0 0-1.098 1.834c24.385 10.981 52.55 7.436 73.73-9.283 17.251-16.269 14.175-41.134-7.802-49.956-13.735-5.729-28.569-8.251-43.074-12.605-8.9-2.749-18.129-5.384-26.811-9.051-21.039-8.644-34.348-30.432-32.964-53.968-1.018-22.693 11.477-43.694 31.426-52.822 28.47-13.518 60.926-14.673 90.214-3.208 11.447 3.11 19.154 14.274 18.349 26.583-.757 11.357-8.425 20.923-19.01 23.718-10.26 2.38-20.85-2.202-26.481-11.458-6.422-10.747-4.161-24.8 5.274-32.77.66-.917 1.319-1.834 2.857-4.355-23.624-3.895-45.381-5.5-64.61 10.656-8.675 5.269-13.232 15.659-11.382 25.948 1.849 10.288 9.707 18.251 19.623 19.885a403.943 403.943 0 0 0 42.635 9.281c5.603 1.146 10.987 2.521 17.031 4.124 21.461 3.861 38.536 20.898 43.184 43.083 6.517 24.985-2.664 51.551-22.966 66.458-31.283 25.247-73.63 29.693-109.112 11.457a28.278 28.278 0 0 1-7.253-4.926 32.256 32.256 0 0 1-4.944-6.417c-15.823 19.823-35.382 20.281-54.941 14.323-15.059-5.158-25.505-19.469-26.262-35.978a171.159 171.159 0 0 1-1.978-23.719V98.861H0v-9.166ZM1153.99 183.81h-118.91c-.88 26.749-3.3 52.469 7.72 76.817 11.02 24.349 31.96 32.465 59.06 27.435 39.92-9.927 68.95-45.649 71.63-88.134v-85.161c0-9.602-1.98-14.518-12.01-12.689a9.579 9.579 0 0 1-4.41 0 63.967 63.967 0 0 1-6.83-3.429c2.2-1.372 4.41-3.658 6.61-3.658h23.03c14-1.143 27.77-3.2 42.21-4.801v45.038l2.64.914c1.55-3.428 2.87-6.858 4.41-10.287 7.12-21.456 24.87-37.242 46.39-41.266 25.24-4.001 44.97 10.516 45.41 33.264.82 13.237-6.45 25.585-18.19 30.864-11.1 5.36-24.23 3.089-33.06-5.715-9.4-9.481-12.51-23.834-7.93-36.58a25.882 25.882 0 0 0 2.87-11.431 188.193 188.193 0 0 0-17.31 15.432c-16.45 21.08-24.95 47.654-23.91 74.759-.66 27.206 0 54.526 0 81.733a187.34 187.34 0 0 0 3.97 23.434h-55.87c1.1-16.118 1.98-32.693 3.3-51.783a370.893 370.893 0 0 1-27.99 34.293c-31.73 29.95-68.54 28.921-106.23 15.431-35.48-12.688-51.237-41.837-55.095-78.76-4.028-27.935.725-56.474 13.555-81.389 22.01-40.641 70.93-56.148 111.08-35.208 26.01 13.375 36.8 37.494 41.1 65.615a248.767 248.767 0 0 1 2.76 25.262Zm-118.91-6.858h62.49c2.31 0 6.5-4.23 6.28-6.287a484.651 484.651 0 0 0-5.62-54.984c-2.01-13.328-12.9-23.274-25.9-23.662-13.56-.997-26.02 7.731-30.19 21.147-7.18 20.384-9.6 42.244-7.06 63.786ZM596.082 261.791c-21.59 27.176-59.42 34.208-89.033 16.549-16.921-9.763-26.585-28.789-24.638-48.505V93.794l-20.719-1.598-.672-3.652a120.988 120.988 0 0 0 32.029-11.413 86.145 86.145 0 0 0 22.959-25.565 209.633 209.633 0 0 0 13.552-32.983l4.031.684v29.674c0 11.413-3.136 28.304 2.911 34.239 6.047 5.934 22.398 2.054 33.598 2.739 4.758.127 9.504.508 14.222 1.141v4.565h-50.059c0 6.734-.672 11.413-.672 15.636v138.324c0 12.669-2.017 26.935 13.551 32.641 15.98 4.62 32.957-2.748 40.764-17.69a51.212 51.212 0 0 0 2.688-4.793c-19.125-22.945-28.474-52.72-25.972-82.718 2.502-29.998 16.649-57.736 39.299-77.063 39.519-30.502 95.13-26.296 129.798 9.815 36.323 41.141 38.447 102.91 5.04 146.542-17.642 20.612-42.623 33.203-69.404 34.981-26.783 1.778-53.155-7.403-73.273-25.509Zm114.903-81.146V129.63c-1.12-31.842-12.879-44.054-43.9-46.793-31.022-2.739-50.509 12.212-52.301 45.652-1.119 18.146-.671 36.293 0 54.439a532.851 532.851 0 0 0 1.792 59.804c3.584 28.19 19.599 38.804 50.956 37.207 28.335-1.371 42.109-14.038 43.453-42.229.897-19.174 0-38.233 0-57.065Z"/><path fill="#E40015" d="M975.234 288.031h-55.318c.894-13.949 2.235-27.674 2.235-41.738V125.728c0-40.15-24.473-41.852-47.494-28.128-24.336 12.533-39.576 37.975-39.338 65.671v99.127a193.019 193.019 0 0 0 3.129 24.612h-56.659a233.528 233.528 0 0 0 2.906-27.447v-158.56h-16.427c-2.012 0-3.8-2.269-5.812-3.403 2.012-1.134 3.8-3.402 5.812-3.63h35.536a288.556 288.556 0 0 0 31.515-5.217v41.739a326.849 326.849 0 0 1 22.352-27.107c27.165-24.395 67.364-26.42 96.778-4.878 11.983 10.482 18.435 26.056 17.433 42.079v113.419a205.357 205.357 0 0 0 3.352 34.026ZM265.973 175.193c.241-37.839 20.964-72.295 53.549-89.03 32.163-18.537 71.881-15.063 100.625 8.8 33.306 25.426 48.173 69.564 37.418 111.089-6.002 38.99-34.217 70.232-71.215 78.857-62.658 16.345-120.158-33.142-120.377-109.716Zm50.368 6.63v57.143c-.558 13.594 5.613 26.536 16.349 34.287 14.389 11 33.431 12.835 49.514 4.77 16.081-8.063 26.58-24.711 27.299-43.285 1.316-35.201 1.097-70.402 0-105.374-1.098-31.658-16.131-45.715-46.417-45.715s-45.978 13.829-47.295 45.715c-.109 16.8.55 34.744.55 52.459ZM79.762 32.856c.37 8.525-2.731 16.826-8.566 22.924-5.835 6.098-13.88 9.448-22.22 9.251-8.31.092-16.305-3.244-22.18-9.256-5.877-6.011-9.138-14.191-9.049-22.692-.27-8.699 2.927-17.136 8.858-23.375C32.536 3.47 40.691-.035 49.198 0c8.342.117 16.286 3.668 22.038 9.85 5.751 6.183 8.825 14.476 8.526 23.006Z"/></svg>