<svg width="1321" height="298" viewBox="0 0 1321 298" fill="none" xmlns="http://www.w3.org/2000/svg">
<path d="M0 89.6949C25.932 89.924 52.1938 95.0802 79.005 83.622V255.493C78.5769 260.375 78.9486 265.295 80.1037 270.045C81.6421 274.171 84.9386 279.9 88.0153 280.587C92.8659 280.804 97.5641 278.793 100.871 275.088C103.858 270.813 105.954 265.934 107.025 260.764C110.761 246.557 117.464 239.339 128.452 237.849C138.521 236.965 148.031 242.796 152.186 252.401C156.547 263.254 153.127 275.809 143.945 282.65C143.457 283.171 143.082 283.796 142.847 284.484C167.232 295.465 195.397 291.92 216.577 275.201C233.828 258.932 230.752 234.067 208.775 225.245C195.04 219.516 180.206 216.994 165.701 212.64C156.801 209.891 147.572 207.256 138.89 203.589C117.851 194.945 104.542 173.157 105.926 149.621C104.908 126.928 117.403 105.927 137.352 96.799C165.822 83.2807 198.278 82.1265 227.566 93.5907C239.013 96.7013 246.72 107.865 245.915 120.174C245.158 131.531 237.49 141.097 226.905 143.892C216.645 146.272 206.055 141.69 200.424 132.434C194.002 121.687 196.263 107.634 205.698 99.6634C206.358 98.7468 207.017 97.8301 208.555 95.3093C184.931 91.4137 163.174 89.8094 143.945 105.965C135.27 111.234 130.713 121.624 132.563 131.913C134.412 142.201 142.27 150.164 152.186 151.798C166.234 155.661 180.465 158.758 194.821 161.079C200.424 162.225 205.808 163.6 211.852 165.203C233.313 169.064 250.388 186.101 255.036 208.286C261.553 233.271 252.372 259.837 232.07 274.744C200.787 299.991 158.44 304.437 122.958 286.201C120.313 284.956 117.867 283.294 115.705 281.275C113.803 279.363 112.141 277.208 110.761 274.858C94.9377 294.681 75.3788 295.139 55.8199 289.181C40.7611 284.023 30.3152 269.712 29.5582 253.203C28.3497 245.357 27.6887 237.43 27.5803 229.484C27.5803 190.412 27.5803 151.454 27.5803 112.267V98.8613H0C0 95.8822 0 92.674 0 89.6949Z" fill="#E40015"/>
<path d="M1153.99 183.81H1035.08C1034.2 210.559 1031.78 236.279 1042.8 260.627C1053.82 284.976 1074.76 293.092 1101.86 288.062C1141.78 278.135 1170.81 242.413 1173.49 199.928C1173.49 171.58 1173.49 142.772 1173.49 114.767C1173.49 105.165 1171.51 100.249 1161.48 102.078C1160.03 102.421 1158.52 102.421 1157.07 102.078C1154.73 101.074 1152.45 99.9286 1150.24 98.649C1152.44 97.2772 1154.65 94.991 1156.85 94.991C1164.57 94.991 1172.17 94.991 1179.88 94.991C1193.88 93.8479 1207.65 91.7903 1222.09 90.1899V135.228L1224.73 136.142C1226.28 132.714 1227.6 129.284 1229.14 125.855C1236.26 104.399 1254.01 88.6126 1275.53 84.5888C1300.77 80.5879 1320.5 95.1053 1320.94 117.853C1321.76 131.09 1314.49 143.438 1302.75 148.717C1291.65 154.077 1278.52 151.806 1269.69 143.002C1260.29 133.521 1257.18 119.168 1261.76 106.422C1263.58 102.903 1264.56 98.9839 1264.63 94.991C1258.56 99.7635 1252.78 104.917 1247.32 110.423C1230.87 131.503 1222.37 158.077 1223.41 185.182C1222.75 212.388 1223.41 239.708 1223.41 266.915C1224.24 274.808 1225.56 282.636 1227.38 290.349H1171.51C1172.61 274.231 1173.49 257.656 1174.81 238.566C1166.15 250.565 1156.81 262.018 1146.82 272.859C1115.09 302.809 1078.28 301.78 1040.59 288.29C1005.11 275.602 989.353 246.453 985.495 209.53C981.467 181.595 986.22 153.056 999.05 128.141C1021.06 87.4998 1069.98 71.9927 1110.13 92.9334C1136.14 106.308 1146.93 130.427 1151.23 158.548C1152.58 166.912 1153.5 175.345 1153.99 183.81ZM1035.08 176.952C1057.12 176.952 1077.18 176.952 1097.57 176.952C1099.88 176.952 1104.07 172.722 1103.85 170.665C1103.02 152.237 1101.15 133.877 1098.23 115.681C1096.22 102.353 1085.33 92.4071 1072.33 92.019C1058.77 91.0216 1046.31 99.7502 1042.14 113.166C1034.96 133.55 1032.54 155.41 1035.08 176.952Z" fill="#E40015"/>
<path d="M596.082 261.791C574.492 288.967 536.662 295.999 507.049 278.34C490.128 268.577 480.464 249.551 482.411 229.835C482.411 188.977 482.411 148.12 482.411 107.375V93.7937L461.692 92.1958L461.02 88.5437C472.164 86.2718 482.944 82.4307 493.049 77.1308C502.312 70.2698 510.121 61.5746 516.008 51.566C521.449 40.9898 525.982 29.9544 529.56 18.5827L533.591 19.2675C533.591 29.1966 533.591 39.0118 533.591 48.941C533.591 60.3539 530.455 77.2449 536.502 83.1796C542.549 89.1144 558.9 85.234 570.1 85.9188C574.858 86.0458 579.604 86.4269 584.322 87.06V91.6252H534.263C534.263 98.3588 533.591 103.038 533.591 107.261C533.591 152.913 533.591 199.591 533.591 245.585C533.591 258.254 531.574 272.52 547.142 278.226C563.122 282.846 580.099 275.478 587.906 260.536C588.886 258.989 589.784 257.389 590.594 255.743C571.469 232.798 562.12 203.023 564.622 173.025C567.124 143.027 581.271 115.289 603.921 95.9621C643.44 65.4605 699.051 69.6656 733.719 105.777C770.042 146.918 772.166 208.687 738.759 252.319C721.117 272.931 696.136 285.522 669.355 287.3C642.572 289.078 616.2 279.897 596.082 261.791ZM710.985 180.645C710.985 163.64 710.985 146.407 710.985 129.63C709.865 97.7882 698.106 85.5764 667.085 82.8373C636.063 80.0982 616.576 95.0491 614.784 128.489C613.665 146.635 614.113 164.782 614.784 182.928C614.261 202.882 614.859 222.849 616.576 242.732C620.16 270.922 636.175 281.536 667.532 279.939C695.867 278.568 709.641 265.901 710.985 237.71C711.882 218.536 710.985 199.477 710.985 180.645Z" fill="#E40015"/>
<path d="M975.234 288.031H919.916C920.81 274.082 922.151 260.357 922.151 246.293C922.151 206.256 922.151 165.879 922.151 125.728C922.151 85.5777 897.678 83.8764 874.657 97.6002C850.321 110.133 835.081 135.575 835.319 163.271C835.319 196.389 835.319 229.28 835.319 262.398C835.833 270.663 836.879 278.884 838.448 287.01H781.789C783.298 277.928 784.268 268.762 784.695 259.563C784.695 211.02 784.695 162.551 784.695 114.159V101.003C778.437 101.003 773.52 101.003 768.268 101.003C766.256 101.003 764.468 98.7344 762.456 97.6002C764.468 96.4659 766.256 94.1976 768.268 93.9708C780.001 93.9708 791.959 93.9708 803.804 93.9708C814.395 92.8152 824.916 91.0736 835.319 88.7534V130.492C842.284 121.055 849.746 112.006 857.671 103.385C884.836 78.9898 925.035 76.9641 954.449 98.5075C966.432 108.989 972.884 124.563 971.882 140.586C971.882 178.468 971.882 216.578 971.882 254.005C972.052 265.423 973.173 276.806 975.234 288.031Z" fill="#E40015"/>
<path d="M265.973 175.193C266.214 137.354 286.937 102.898 319.522 86.163C351.685 67.6265 391.403 71.1 420.147 94.9632C453.453 120.389 468.32 164.527 457.565 206.052C451.563 245.042 423.348 276.284 386.35 284.909C323.692 301.254 266.192 251.767 265.973 175.193ZM316.341 181.823C316.341 200.679 316.341 219.652 316.341 238.966C315.783 252.56 321.954 265.502 332.69 273.253C347.079 284.253 366.121 286.088 382.204 278.023C398.285 269.96 408.784 253.312 409.503 234.738C410.819 199.537 410.6 164.336 409.503 129.364C408.405 97.7061 393.372 83.6487 363.086 83.6487C332.8 83.6487 317.108 97.4776 315.791 129.364C315.682 146.164 316.341 164.108 316.341 181.823Z" fill="#E40015"/>
<path d="M79.7623 32.8558C80.1324 41.3811 77.0306 49.6817 71.1958 55.7799C65.3608 61.8783 57.3154 65.2282 48.9763 65.0314C40.6667 65.1234 32.6711 61.7868 26.7951 55.7752C20.9189 49.7635 17.6576 41.5837 17.7474 33.0825C17.4768 24.3841 20.6741 15.9468 26.6051 9.70813C32.5361 3.46943 40.6912 -0.0346361 49.1978 0.00025814C57.5398 0.116978 65.4841 3.66766 71.2357 9.85036C76.9874 16.033 80.061 24.3261 79.7623 32.8558Z" fill="#E40015"/>
</svg>
