<svg xmlns="http://www.w3.org/2000/svg" width="1348" height="89" fill="none"><path fill="#222" d="M16.435 54.77v1.939c.15 6.504.847 11.087 2.09 13.75 1.28 2.624 3.99 3.936 8.132 3.936 4.104 0 6.815-1.446 8.133-4.336.79-1.712 1.186-4.602 1.186-8.672V2.567h17.395v58.535c0 7.15-1.223 12.818-3.67 17.001-4.142 7.075-11.616 10.611-22.422 10.611-10.806 0-18.054-2.852-21.744-8.557C1.845 74.414 0 66.597 0 56.709v-1.94h16.435ZM132.214 17.458H88.161v17.857H128.6V49.92H88.161v21.622h46.086v15.119H71.162V2.567h61.052v14.89ZM165.197 17.172v22.593h19.711c3.915 0 6.852-.457 8.81-1.37 3.464-1.597 5.196-4.754 5.196-9.47 0-5.097-1.675-8.52-5.027-10.27-1.882-.988-4.706-1.483-8.471-1.483h-20.219Zm23.834-14.605c5.835.114 10.316.837 13.441 2.168 3.163 1.331 5.836 3.29 8.02 5.876a26.085 26.085 0 0 1 4.292 7.075c1.054 2.586 1.581 5.534 1.581 8.843 0 3.993-.997 7.93-2.993 11.81-1.995 3.84-5.29 6.56-9.883 8.158 3.84 1.56 6.551 3.784 8.133 6.675 1.618 2.852 2.428 7.226 2.428 13.121v5.649c0 3.841.15 6.446.452 7.816.451 2.167 1.506 3.765 3.163 4.792v2.11h-19.146c-.528-1.863-.904-3.365-1.13-4.506a41.738 41.738 0 0 1-.734-7.246l-.113-7.816c-.075-5.363-1.055-8.938-2.937-10.725-1.845-1.788-5.328-2.682-10.449-2.682h-17.959v32.976h-17V2.567h40.834ZM268.212 74.11c6.89 0 12.349-2.568 16.379-7.702 4.066-5.135 6.099-12.438 6.099-21.908 0-9.432-2.033-16.716-6.099-21.85-4.03-5.173-9.489-7.76-16.379-7.76-6.89 0-12.388 2.568-16.492 7.702-4.104 5.135-6.156 12.437-6.156 21.908 0 9.47 2.052 16.773 6.156 21.908 4.104 5.134 9.602 7.702 16.492 7.702Zm39.873-29.61c0 15.1-4.198 26.662-12.594 34.687C289.203 85.73 280.11 89 268.212 89s-20.991-3.271-27.279-9.813c-8.434-8.025-12.651-19.587-12.651-34.687 0-15.404 4.217-26.966 12.651-34.687C247.221 3.27 256.314 0 268.212 0s20.991 3.27 27.279 9.813c8.396 7.72 12.594 19.283 12.594 34.687ZM376.593 2.567h25.019v84.094h-16.209V29.78c0-1.636.019-3.918.056-6.846.038-2.967.057-5.25.057-6.846L369.758 86.66h-16.886l-15.645-70.573c0 1.598.019 3.88.057 6.847.037 2.928.057 5.21.057 6.846v56.88h-16.21V2.567h25.303l15.135 66.123 15.024-66.123ZM479.325 17.458h-44.053v17.857h40.439V49.92h-40.439v21.622h46.086v15.119h-63.085V2.567h61.052v14.89ZM543.992 17.172v54.883h16.039c8.208 0 13.931-4.088 17.17-12.265 1.769-4.488 2.654-9.832 2.654-16.032 0-8.557-1.337-15.118-4.01-19.682-2.636-4.602-7.907-6.904-15.814-6.904h-16.039Zm18.976-14.605c5.158.076 9.451.685 12.877 1.826 5.836 1.94 10.561 5.496 14.176 10.668 2.899 4.184 4.876 8.71 5.93 13.579 1.054 4.868 1.581 9.508 1.581 13.92 0 11.182-2.221 20.653-6.664 28.412-6.024 10.46-15.324 15.689-27.9 15.689h-35.863V2.567h35.863ZM628.087 17.172v22.593h19.71c3.916 0 6.853-.457 8.811-1.37 3.463-1.597 5.196-4.754 5.196-9.47 0-5.097-1.676-8.52-5.026-10.27-1.883-.988-4.707-1.483-8.472-1.483h-20.219ZM651.92 2.567c5.836.114 10.317.837 13.442 2.168 3.162 1.331 5.836 3.29 8.02 5.876a26.085 26.085 0 0 1 4.292 7.075c1.055 2.586 1.581 5.534 1.581 8.843 0 3.993-.998 7.93-2.993 11.81-1.995 3.84-5.29 6.56-9.884 8.158 3.841 1.56 6.552 3.784 8.133 6.675 1.619 2.852 2.429 7.226 2.429 13.121v5.649c0 3.841.151 6.446.452 7.816.452 2.167 1.505 3.765 3.162 4.792v2.11h-19.146c-.527-1.863-.903-3.365-1.129-4.506a41.836 41.836 0 0 1-.734-7.246l-.114-7.816c-.075-5.363-1.053-8.938-2.936-10.725-1.845-1.788-5.328-2.682-10.448-2.682h-17.96v32.976h-17V2.567h40.833ZM755.841 17.458h-44.053v17.857h40.434V49.92h-40.434v21.622h46.082v15.119h-63.083V2.567h61.054v14.89ZM818.925 2.567h19.713l-27.845 52.487v31.607h-17.4V55.054L764.59 2.567h20.501l17.286 36.627 16.548-36.627ZM848.572 2.681h59.025v14.777h-41.739v19.34h36.538v14.605h-36.538v35.258h-17.286V2.68ZM919.285 2.567h17.676v51.689c0 5.78.681 10.003 2.037 12.665 2.107 4.716 6.698 7.074 13.78 7.074 7.04 0 11.616-2.358 13.724-7.074 1.355-2.662 2.03-6.884 2.03-12.665V2.567h17.676v51.689c0 8.938-1.37 15.898-4.123 20.88-5.116 9.129-14.888 13.693-29.307 13.693-14.419 0-24.212-4.564-29.37-13.693-2.747-4.982-4.123-11.942-4.123-20.88V2.567ZM1015.46 60.703c.53 3.841 1.57 6.712 3.11 8.614 2.83 3.461 7.67 5.192 14.51 5.192 4.11 0 7.44-.457 10-1.369 4.86-1.75 7.29-5.002 7.29-9.756 0-2.777-1.21-4.925-3.62-6.447-2.4-1.483-6.19-2.795-11.35-3.936l-8.81-1.997c-8.66-1.978-14.64-4.127-17.96-6.447-5.6-3.88-8.41-9.946-8.41-18.2 0-7.53 2.71-13.787 8.13-18.77 5.42-4.982 13.39-7.473 23.89-7.473 8.77 0 16.25 2.358 22.42 7.074 6.21 4.679 9.47 11.487 9.77 20.425h-16.71c-.31-5.059-2.49-8.653-6.55-10.783-2.72-1.407-6.08-2.11-10.12-2.11-4.48 0-8.06.912-10.72 2.738-2.68 1.825-4.01 4.374-4.01 7.645 0 3.004 1.31 5.248 3.95 6.732 1.69.989 5.31 2.148 10.84 3.48l14.34 3.48c6.29 1.521 11.04 3.556 14.24 6.104 4.96 3.956 7.46 9.68 7.46 17.173 0 7.683-2.93 14.073-8.76 19.169-5.8 5.058-14.01 7.588-24.62 7.588-10.85 0-19.38-2.492-25.59-7.474-6.21-5.02-9.32-11.905-9.32-20.653h16.6ZM1092.61 60.703c.53 3.841 1.56 6.712 3.11 8.614 2.83 3.461 7.67 5.192 14.51 5.192 4.11 0 7.44-.457 10-1.369 4.86-1.75 7.29-5.002 7.29-9.756 0-2.777-1.21-4.925-3.62-6.447-2.41-1.483-6.19-2.795-11.35-3.936l-8.81-1.997c-8.66-1.978-14.65-4.127-17.96-6.447-5.61-3.88-8.42-9.946-8.42-18.2 0-7.53 2.71-13.787 8.14-18.77 5.42-4.982 13.39-7.473 23.89-7.473 8.77 0 16.25 2.358 22.42 7.074 6.21 4.679 9.47 11.487 9.77 20.425h-16.71c-.31-5.059-2.49-8.653-6.56-10.783-2.71-1.407-6.08-2.11-10.11-2.11-4.48 0-8.06.912-10.73 2.738-2.67 1.825-4.01 4.374-4.01 7.645 0 3.004 1.32 5.248 3.96 6.732 1.69.989 5.31 2.148 10.84 3.48l14.34 3.48c6.29 1.521 11.04 3.556 14.24 6.104 4.96 3.956 7.45 9.68 7.45 17.173 0 7.683-2.92 14.073-8.75 19.169-5.8 5.058-14.01 7.588-24.63 7.588-10.84 0-19.37-2.492-25.58-7.474-6.21-5.02-9.32-11.905-9.32-20.653h16.6Z"/><path fill="#222" fill-rule="evenodd" d="M1312.63 32.611c-2.9 1.956-6.3 3-9.8 3-4.67 0-9.16-1.876-12.46-5.215a17.838 17.838 0 0 1-5.17-12.587c0-3.522 1.03-6.965 2.97-9.894a17.661 17.661 0 0 1 7.92-6.559c3.22-1.348 6.77-1.7 10.19-1.014 3.42.687 6.57 2.383 9.03 4.873a17.836 17.836 0 0 1 4.83 9.117c.68 3.455.33 7.035-1.01 10.288a17.683 17.683 0 0 1-6.5 7.991Zm-37.31 53.072c3.49 0 6.89-1.044 9.8-3 2.9-1.957 5.15-4.738 6.5-7.992a18.01 18.01 0 0 0 1-10.288 17.849 17.849 0 0 0-4.84-9.117 17.505 17.505 0 0 0-19.22-3.858 17.69 17.69 0 0 0-7.91 6.56 17.911 17.911 0 0 0-2.97 9.893c0 2.338.45 4.653 1.34 6.814.88 2.16 2.18 4.122 3.82 5.775a17.566 17.566 0 0 0 5.73 3.859c2.13.895 4.43 1.354 6.75 1.354Zm55.03 0c3.49.001 6.91-1.043 9.81-3a17.726 17.726 0 0 0 6.49-7.99 17.929 17.929 0 0 0-3.81-19.405 17.63 17.63 0 0 0-9.04-4.873 17.512 17.512 0 0 0-10.2 1.014 17.689 17.689 0 0 0-7.91 6.559 17.994 17.994 0 0 0-2.97 9.893c0 2.338.45 4.653 1.34 6.813.89 2.16 2.19 4.122 3.83 5.775a17.603 17.603 0 0 0 5.71 3.86c2.15.894 4.44 1.354 6.75 1.354Z" clip-rule="evenodd"/></svg>