<svg width="1072" height="70" viewBox="0 0 1072 70" fill="none" xmlns="http://www.w3.org/2000/svg">
<path d="M579.356 69.3811H592.071V41.3081H619.859V29.2627H592.071V12.3713H627.307V0.33576H579.356V69.3811Z" fill="black"/>
<path d="M684.318 0.33576L655.807 69.3811H669.283L675.579 53.8202H706.083L712.288 69.3811H725.957L697.531 0.33576H684.318ZM701.384 42.0529H680.299L686.097 27.4355C687.758 23.3244 689.735 18.4983 690.833 15.8568C691.53 17.5648 692.564 20.1268 693.518 22.4902L701.384 42.0529Z" fill="black"/>
<path d="M782.287 0.33576H769.572V69.3811H782.287V0.33576Z" fill="black"/>
<path d="M882.598 22.8279C882.598 8.95527 872.37 0.33576 855.904 0.33576H832.73V69.3811H845.445V44.5554H851.124C852.207 44.5554 854.275 44.5554 855.663 44.4958L869.964 69.3811H885.165L868.753 42.1026C877.701 39.2128 882.598 32.4205 882.598 22.8279ZM869.599 23.3045C869.599 30.3352 865.399 33.7512 856.756 33.7512H845.445V12.1925H856.37C862.42 12.1826 869.599 14.119 869.599 23.3045Z" fill="black"/>
<path d="M945.022 0.33576H932.296V69.3811H978.543V57.3356H945.022V0.33576Z" fill="black"/>
<path d="M1057.81 0.336194L1043.73 21.6466C1041.74 24.6257 1040.1 27.2175 1039.19 28.6773C1039.07 28.4886 1038.93 28.28 1038.79 28.0517C1037.81 26.5224 1036.33 24.2086 1034.6 21.5672L1020.9 0.246826L1006.04 0.365985L1032.47 40.4546V69.4015H1045.29V40.4546L1071.83 0.346116H1057.81V0.336194Z" fill="black"/>
<path d="M119.626 0.338374H106.913V69.3838H119.626V0.338374Z" fill="black"/>
<path d="M204.711 36.4847L184.488 0.338374H171.557V69.3838H184.27V42.7904C184.27 35.3228 184.2 27.9545 184.141 23.1085C185.482 25.6805 187.498 29.454 190.229 34.2702L200.857 52.8699H208.256L218.894 33.9723C221.526 29.305 223.542 25.5613 224.883 23.0291C224.823 27.885 224.744 35.2831 224.744 42.7904V69.3838H237.457V0.338374H224.913L204.711 36.4847Z" fill="black"/>
<path d="M325.448 36.4847L305.226 0.338374H292.294V69.3838H305.008V42.7904C305.008 35.3228 304.938 27.9545 304.879 23.1085C306.219 25.6805 308.235 29.454 310.967 34.2702L321.595 52.8699H328.994L339.631 33.9723C342.263 29.305 344.28 25.5613 345.621 23.0291C345.561 27.885 345.481 35.2831 345.481 42.7904V69.3838H358.195V0.338374H345.67L325.448 36.4847Z" fill="black"/>
<path d="M440.133 21.6492C438.147 24.6283 436.508 27.2201 435.594 28.6798C435.475 28.4912 435.336 28.2727 435.187 28.0443C434.204 26.5151 432.724 24.2112 430.996 21.5698L417.299 0.24944L402.431 0.368599L428.87 40.4572V69.4041H441.683V40.4572L468.232 0.348735H454.217L440.133 21.6492Z" fill="black"/>
<path d="M45.0135 39.473C45.0135 50.8333 38.8853 57.3575 28.2081 57.3575C21.1661 57.3575 15.3954 53.832 13.1309 48.1422L12.7733 47.2385L0.208984 50.5056L0.646008 51.6575C4.66858 62.3225 15.4848 69.2043 28.218 69.2043C46.7119 69.2043 57.7564 57.9136 57.7564 39.0162V0.228516H45.0234V39.473H45.0135Z" fill="black"/>
</svg>
