<svg xmlns="http://www.w3.org/2000/svg" width="1072" height="70" fill="none"><path fill="#000" d="M579.356 69.381h12.715V41.308h27.788V29.263h-27.788V12.37h35.236V.336h-47.951V69.38ZM684.318.336 655.807 69.38h13.476l6.296-15.56h30.504l6.205 15.56h13.669L697.531.336h-13.213Zm17.066 41.717h-21.085l5.798-14.617a1465.89 1465.89 0 0 1 4.736-11.58c.697 1.709 1.731 4.27 2.685 6.634l7.866 19.563ZM782.287.336h-12.715V69.38h12.715V.336ZM882.598 22.828c0-13.873-10.228-22.492-26.694-22.492H832.73V69.38h12.715V44.555h5.679c1.083 0 3.151 0 4.539-.06l14.301 24.886h15.201l-16.412-27.278c8.948-2.89 13.845-9.683 13.845-19.275Zm-12.999.477c0 7.03-4.2 10.446-12.843 10.446h-11.311V12.193h10.925c6.05-.01 13.229 1.926 13.229 11.112ZM945.022.336h-12.726V69.38h46.247V57.336h-33.521v-57ZM1057.81.336l-14.08 21.31c-1.99 2.98-3.63 5.572-4.54 7.031-.12-.188-.26-.397-.4-.625-.98-1.53-2.46-3.843-4.19-6.485L1020.9.247l-14.86.119 26.43 40.089v28.947h12.82V40.454L1071.83.346h-14.02v-.01ZM119.626.338h-12.713v69.046h12.713V.338ZM204.711 36.485 184.488.338h-12.931v69.046h12.713V42.79c0-7.467-.07-14.835-.129-19.681a360.977 360.977 0 0 0 6.088 11.161l10.628 18.6h7.399l10.638-18.898a471.903 471.903 0 0 0 5.989-10.943c-.06 4.856-.139 12.254-.139 19.761v26.594h12.713V.338h-12.544l-20.202 36.147ZM325.448 36.485 305.226.338h-12.932v69.046h12.714V42.79c0-7.467-.07-14.835-.129-19.681a356.672 356.672 0 0 0 6.088 11.161l10.628 18.6h7.399l10.637-18.898a472.711 472.711 0 0 0 5.99-10.943c-.06 4.856-.14 12.254-.14 19.761v26.594h12.714V.338H345.67l-20.222 36.147ZM440.133 21.65a296.678 296.678 0 0 0-4.539 7.03 49.858 49.858 0 0 0-.407-.636c-.983-1.529-2.463-3.833-4.191-6.474L417.299.25l-14.868.119 26.439 40.088v28.947h12.813V40.457L468.232.35h-14.015l-14.084 21.3ZM45.014 39.473c0 11.36-6.129 17.885-16.806 17.885-7.042 0-12.813-3.526-15.077-9.216l-.358-.904L.21 50.507l.437 1.151c4.023 10.666 14.839 17.547 27.572 17.547 18.494 0 29.538-11.29 29.538-30.188V.23H45.023v39.244h-.01Z"/></svg>