<svg width="614" height="178" viewBox="0 0 614 178" fill="none" xmlns="http://www.w3.org/2000/svg">
<path d="M578.74 3.43018H499.05C495.63 3.43018 492.84 6.23018 492.84 9.65018V31.0702C492.84 34.5102 495.63 37.2702 499.05 37.2702H514.49C517.91 37.2702 520.69 40.0602 520.69 43.5002V110.88C520.69 114.31 523.48 117.11 526.9 117.11H550.57C554.01 117.11 556.8 114.31 556.8 110.88V43.5002C556.8 40.0602 559.55 37.2702 562.99 37.2702H578.74C582.16 37.2702 584.94 34.5202 584.94 31.0702V9.65018C584.94 6.23018 582.16 3.43018 578.74 3.43018Z" fill="#102550"/>
<path d="M373.18 16.6102C361.36 5.97023 346.53 0.740234 328.72 0.740234C311.95 0.740234 296.51 6.29023 284.99 16.0202C273.62 25.6102 266.43 41.4902 266.43 60.0402C266.43 98.5202 295.34 119.79 328.72 119.79C362.1 119.79 391.01 98.5202 391.01 60.0402C391 41.6202 385.01 27.1002 373.18 16.6102ZM345.63 78.4502C340.99 82.8002 335.3 85.0602 328.71 85.0602C322.11 85.0602 316.42 82.8002 311.79 78.4502C307.15 73.9802 304.76 67.8302 304.76 60.0402C304.76 52.2602 306.99 46.2602 311.62 41.9302C316.28 37.5602 321.97 35.4802 328.7 35.4802C335.42 35.4802 340.98 37.5602 345.62 41.9302C350.26 46.2602 352.65 52.2502 352.65 60.0402C352.66 67.8202 350.28 73.9802 345.63 78.4502Z" fill="#102550"/>
<path d="M250.01 3.44043H226.34C222.91 3.44043 220.14 6.22043 220.14 9.66043V70.2404C220.14 80.2704 215.48 85.1904 206.06 85.1904C202.09 85.1904 197.75 84.3704 193.1 82.6804C188.99 81.2304 184.65 84.1104 184.65 88.4604V111.03C184.65 113.89 186.58 116.44 189.37 117.07C197.24 118.84 204.79 119.78 211.92 119.78C224.93 119.78 235.56 115.59 243.65 107.35C251.74 98.9604 255.78 86.5604 255.93 69.9104L256.21 9.68042C256.21 6.23042 253.43 3.44043 250.01 3.44043Z" fill="#102550"/>
<path d="M480.05 3.43018H400.37C396.94 3.43018 394.15 6.23018 394.15 9.65018V31.0702C394.15 34.5102 396.94 37.2702 400.37 37.2702H415.81C419.23 37.2702 422.01 40.0602 422.01 43.5002V110.88C422.01 114.31 424.8 117.11 428.22 117.11H451.89C455.32 117.11 458.11 114.31 458.11 110.88V43.5002C458.11 40.0602 460.87 37.2702 464.3 37.2702H480.05C483.47 37.2702 486.26 34.5202 486.26 31.0702V9.65018C486.25 6.23018 483.47 3.43018 480.05 3.43018Z" fill="#102550"/>
<path d="M66.7008 117.12H85.8908C89.8308 117.12 91.9408 115.38 93.0108 113.93C93.9908 112.6 95.3108 109.76 93.2308 105.59L76.4908 74.3401C80.5608 71.5401 84.0208 67.9601 86.8108 63.6501C90.4408 58.0201 92.2908 51.0502 92.2908 42.9402C92.2908 34.2702 90.2508 26.8802 86.2108 20.9702C82.2308 15.1502 77.0308 10.7101 70.7308 7.76015C64.5708 4.88015 57.9508 3.41016 51.0608 3.41016H7.01078C3.16078 3.41016 0.0507812 6.53015 0.0507812 10.3701V110.16C0.0507812 114.01 3.17078 117.12 7.01078 117.12H30.4208C34.2708 117.12 37.3808 114 37.3808 110.16V81.8301H42.2808L57.3408 111.38C59.2008 115.08 62.5208 117.12 66.7008 117.12ZM58.3008 44.6402C58.3008 49.6502 54.5508 54.8202 48.2808 54.8202H37.3808V35.8502H48.2808C54.3708 35.8502 58.3008 39.3002 58.3008 44.6402Z" fill="#00A75C"/>
<path d="M168.16 37.4001C172.01 37.4001 175.12 34.2802 175.12 30.4402V10.3701C175.12 6.52015 172 3.41016 168.16 3.41016H112.95C109.1 3.41016 105.99 6.53015 105.99 10.3701V110.16C105.99 114.01 109.11 117.12 112.95 117.12H168.16C172.01 117.12 175.12 114 175.12 110.16V90.0901C175.12 86.2401 172 83.1302 168.16 83.1302H140.76V73.6801H166.77C170.61 73.6801 173.73 70.5602 173.73 66.7202V53.8202C173.73 49.9702 170.61 46.8601 166.77 46.8601H140.76V37.4102H168.16V37.4001Z" fill="#00A75C"/>
<path d="M28.499 144.718C28.2494 142.611 27.2373 140.975 25.4627 139.81C23.688 138.645 21.5112 138.063 18.9324 138.063C17.0468 138.063 15.3969 138.368 13.9828 138.978C12.5824 139.588 11.4871 140.427 10.6968 141.495C9.92043 142.562 9.53222 143.775 9.53222 145.134C9.53222 146.271 9.80258 147.248 10.3433 148.066C10.8979 148.871 11.605 149.543 12.4646 150.084C13.3242 150.611 14.2254 151.047 15.1682 151.394C16.111 151.727 16.9775 151.997 17.7678 152.205L22.0936 153.37C23.2027 153.661 24.4367 154.063 25.7954 154.576C27.168 155.089 28.4782 155.789 29.726 156.676C30.9877 157.55 32.0275 158.673 32.8456 160.045C33.6636 161.418 34.0726 163.103 34.0726 165.099C34.0726 167.401 33.4695 169.48 32.2632 171.338C31.0709 173.196 29.3239 174.673 27.0224 175.768C24.7348 176.863 21.9549 177.411 18.6829 177.411C15.6326 177.411 12.9914 176.919 10.7592 175.934C8.5409 174.95 6.79396 173.577 5.51842 171.816C4.25674 170.056 3.54271 168.011 3.37633 165.681H8.70034C8.83899 167.29 9.37971 168.621 10.3225 169.674C11.2792 170.714 12.4854 171.491 13.9412 172.004C15.4108 172.503 16.9914 172.752 18.6829 172.752C20.6516 172.752 22.4194 172.433 23.9861 171.796C25.5528 171.144 26.7937 170.243 27.7087 169.092C28.6238 167.927 29.0813 166.569 29.0813 165.016C29.0813 163.602 28.6862 162.451 27.8959 161.564C27.1056 160.676 26.0658 159.955 24.7764 159.401C23.4869 158.846 22.0936 158.361 20.5962 157.945L15.3554 156.448C12.0278 155.491 9.39357 154.125 7.45253 152.351C5.51148 150.576 4.54096 148.254 4.54096 145.384C4.54096 142.999 5.18566 140.919 6.47507 139.144C7.77835 137.356 9.52529 135.969 11.7159 134.985C13.9204 133.987 16.3813 133.488 19.0988 133.488C21.844 133.488 24.2842 133.98 26.4193 134.964C28.5545 135.935 30.2459 137.266 31.4938 138.957C32.7554 140.649 33.4209 142.569 33.4903 144.718H28.499ZM55.2802 177.328C52.2023 177.328 49.5472 176.648 47.315 175.29C45.0967 173.917 43.3844 172.004 42.1782 169.55C40.9858 167.082 40.3896 164.212 40.3896 160.94C40.3896 157.668 40.9858 154.784 42.1782 152.288C43.3844 149.779 45.062 147.824 47.211 146.423C49.3739 145.009 51.8973 144.302 54.7811 144.302C56.4448 144.302 58.0878 144.579 59.71 145.134C61.3321 145.689 62.8087 146.59 64.1397 147.838C65.4707 149.072 66.5314 150.708 67.3216 152.746C68.1119 154.784 68.5071 157.293 68.5071 160.274V162.354H43.8835V158.111H63.5158C63.5158 156.309 63.1553 154.701 62.4344 153.286C61.7273 151.872 60.7151 150.756 59.398 149.938C58.0947 149.12 56.5558 148.711 54.7811 148.711C52.8262 148.711 51.1347 149.196 49.7066 150.167C48.2925 151.124 47.2041 152.371 46.4415 153.91C45.679 155.449 45.2977 157.099 45.2977 158.86V161.688C45.2977 164.101 45.7136 166.146 46.5455 167.823C47.3913 169.487 48.5628 170.756 50.0602 171.629C51.5576 172.489 53.2976 172.919 55.2802 172.919C56.5696 172.919 57.7343 172.738 58.7741 172.378C59.8278 172.004 60.7359 171.449 61.4985 170.714C62.2611 169.966 62.8503 169.037 63.2662 167.927L68.0079 169.258C67.5088 170.867 66.67 172.281 65.4915 173.501C64.313 174.707 62.8572 175.65 61.1242 176.329C59.3911 176.995 57.4431 177.328 55.2802 177.328ZM75.9732 176.662V144.718H80.7148V149.543H81.0476C81.6299 147.962 82.6836 146.68 84.2087 145.696C85.7338 144.711 87.453 144.219 89.3664 144.219C89.7268 144.219 90.1774 144.226 90.7182 144.24C91.2589 144.254 91.6679 144.274 91.9452 144.302V149.293C91.7788 149.252 91.3975 149.189 90.8013 149.106C90.219 149.009 89.6021 148.961 88.9504 148.961C87.3976 148.961 86.0111 149.286 84.791 149.938C83.5848 150.576 82.6282 151.463 81.9211 152.6C81.2278 153.723 80.8812 155.006 80.8812 156.448V176.662H75.9732ZM124.856 144.718L113.044 176.662H108.052L96.2397 144.718H101.564L110.382 170.173H110.714L119.532 144.718H124.856ZM131.335 176.662V144.718H136.243V176.662H131.335ZM133.83 139.394C132.873 139.394 132.049 139.068 131.355 138.417C130.676 137.765 130.336 136.982 130.336 136.067C130.336 135.151 130.676 134.368 131.355 133.716C132.049 133.065 132.873 132.739 133.83 132.739C134.787 132.739 135.605 133.065 136.284 133.716C136.977 134.368 137.324 135.151 137.324 136.067C137.324 136.982 136.977 137.765 136.284 138.417C135.605 139.068 134.787 139.394 133.83 139.394ZM158.209 177.328C155.215 177.328 152.636 176.621 150.473 175.206C148.31 173.792 146.646 171.844 145.482 169.362C144.317 166.881 143.735 164.045 143.735 160.856C143.735 157.612 144.331 154.749 145.523 152.267C146.729 149.772 148.407 147.824 150.556 146.423C152.719 145.009 155.242 144.302 158.126 144.302C160.372 144.302 162.396 144.718 164.199 145.55C166.001 146.382 167.478 147.546 168.629 149.044C169.779 150.541 170.493 152.288 170.771 154.285H165.863C165.488 152.829 164.656 151.539 163.367 150.416C162.091 149.28 160.372 148.711 158.209 148.711C156.296 148.711 154.618 149.21 153.176 150.208C151.748 151.193 150.632 152.586 149.828 154.389C149.038 156.177 148.643 158.278 148.643 160.69C148.643 163.158 149.031 165.307 149.807 167.137C150.598 168.967 151.707 170.388 153.135 171.4C154.577 172.413 156.268 172.919 158.209 172.919C159.485 172.919 160.643 172.697 161.682 172.253C162.722 171.809 163.603 171.172 164.324 170.34C165.045 169.508 165.558 168.51 165.863 167.345H170.771C170.493 169.231 169.807 170.929 168.712 172.44C167.63 173.938 166.195 175.13 164.407 176.017C162.632 176.891 160.566 177.328 158.209 177.328ZM191.339 177.328C188.261 177.328 185.606 176.648 183.374 175.29C181.155 173.917 179.443 172.004 178.237 169.55C177.044 167.082 176.448 164.212 176.448 160.94C176.448 157.668 177.044 154.784 178.237 152.288C179.443 149.779 181.121 147.824 183.27 146.423C185.432 145.009 187.956 144.302 190.84 144.302C192.503 144.302 194.146 144.579 195.769 145.134C197.391 145.689 198.867 146.59 200.198 147.838C201.529 149.072 202.59 150.708 203.38 152.746C204.17 154.784 204.566 157.293 204.566 160.274V162.354H179.942V158.111H199.574C199.574 156.309 199.214 154.701 198.493 153.286C197.786 151.872 196.774 150.756 195.457 149.938C194.153 149.12 192.614 148.711 190.84 148.711C188.885 148.711 187.193 149.196 185.765 150.167C184.351 151.124 183.263 152.371 182.5 153.91C181.738 155.449 181.356 157.099 181.356 158.86V161.688C181.356 164.101 181.772 166.146 182.604 167.823C183.45 169.487 184.621 170.756 186.119 171.629C187.616 172.489 189.356 172.919 191.339 172.919C192.628 172.919 193.793 172.738 194.833 172.378C195.886 172.004 196.795 171.449 197.557 170.714C198.32 169.966 198.909 169.037 199.325 167.927L204.067 169.258C203.567 170.867 202.729 172.281 201.55 173.501C200.372 174.707 198.916 175.65 197.183 176.329C195.45 176.995 193.502 177.328 191.339 177.328ZM252.461 144.718C252.211 142.611 251.199 140.975 249.425 139.81C247.65 138.645 245.473 138.063 242.894 138.063C241.009 138.063 239.359 138.368 237.945 138.978C236.544 139.588 235.449 140.427 234.659 141.495C233.882 142.562 233.494 143.775 233.494 145.134C233.494 146.271 233.765 147.248 234.305 148.066C234.86 148.871 235.567 149.543 236.427 150.084C237.286 150.611 238.187 151.047 239.13 151.394C240.073 151.727 240.939 151.997 241.73 152.205L246.055 153.37C247.165 153.661 248.399 154.063 249.757 154.576C251.13 155.089 252.44 155.789 253.688 156.676C254.95 157.55 255.989 158.673 256.807 160.045C257.625 161.418 258.035 163.103 258.035 165.099C258.035 167.401 257.431 169.48 256.225 171.338C255.033 173.196 253.286 174.673 250.984 175.768C248.697 176.863 245.917 177.411 242.645 177.411C239.595 177.411 236.953 176.919 234.721 175.934C232.503 174.95 230.756 173.577 229.48 171.816C228.219 170.056 227.505 168.011 227.338 165.681H232.662C232.801 167.29 233.342 168.621 234.284 169.674C235.241 170.714 236.447 171.491 237.903 172.004C239.373 172.503 240.953 172.752 242.645 172.752C244.614 172.752 246.381 172.433 247.948 171.796C249.515 171.144 250.756 170.243 251.671 169.092C252.586 167.927 253.043 166.569 253.043 165.016C253.043 163.602 252.648 162.451 251.858 161.564C251.068 160.676 250.028 159.955 248.738 159.401C247.449 158.846 246.055 158.361 244.558 157.945L239.317 156.448C235.99 155.491 233.356 154.125 231.414 152.351C229.473 150.576 228.503 148.254 228.503 145.384C228.503 142.999 229.148 140.919 230.437 139.144C231.74 137.356 233.487 135.969 235.678 134.985C237.882 133.987 240.343 133.488 243.061 133.488C245.806 133.488 248.246 133.98 250.381 134.964C252.516 135.935 254.208 137.266 255.456 138.957C256.717 140.649 257.383 142.569 257.452 144.718H252.461ZM279.242 177.328C276.164 177.328 273.509 176.648 271.277 175.29C269.059 173.917 267.346 172.004 266.14 169.55C264.948 167.082 264.352 164.212 264.352 160.94C264.352 157.668 264.948 154.784 266.14 152.288C267.346 149.779 269.024 147.824 271.173 146.423C273.336 145.009 275.859 144.302 278.743 144.302C280.407 144.302 282.05 144.579 283.672 145.134C285.294 145.689 286.771 146.59 288.102 147.838C289.433 149.072 290.493 150.708 291.284 152.746C292.074 154.784 292.469 157.293 292.469 160.274V162.354H267.845V158.111H287.478C287.478 156.309 287.117 154.701 286.396 153.286C285.689 151.872 284.677 150.756 283.36 149.938C282.057 149.12 280.518 148.711 278.743 148.711C276.788 148.711 275.097 149.196 273.669 150.167C272.254 151.124 271.166 152.371 270.403 153.91C269.641 155.449 269.26 157.099 269.26 158.86V161.688C269.26 164.101 269.676 166.146 270.507 167.823C271.353 169.487 272.525 170.756 274.022 171.629C275.52 172.489 277.26 172.919 279.242 172.919C280.532 172.919 281.696 172.738 282.736 172.378C283.79 172.004 284.698 171.449 285.46 170.714C286.223 169.966 286.812 169.037 287.228 167.927L291.97 169.258C291.471 170.867 290.632 172.281 289.453 173.501C288.275 174.707 286.819 175.65 285.086 176.329C283.353 176.995 281.405 177.328 279.242 177.328ZM312.912 177.328C309.918 177.328 307.339 176.621 305.176 175.206C303.013 173.792 301.349 171.844 300.185 169.362C299.02 166.881 298.438 164.045 298.438 160.856C298.438 157.612 299.034 154.749 300.226 152.267C301.432 149.772 303.11 147.824 305.259 146.423C307.422 145.009 309.945 144.302 312.829 144.302C315.075 144.302 317.099 144.718 318.902 145.55C320.704 146.382 322.181 147.546 323.332 149.044C324.482 150.541 325.196 152.288 325.474 154.285H320.566C320.191 152.829 319.359 151.539 318.07 150.416C316.794 149.28 315.075 148.711 312.912 148.711C310.999 148.711 309.321 149.21 307.879 150.208C306.451 151.193 305.335 152.586 304.531 154.389C303.741 156.177 303.346 158.278 303.346 160.69C303.346 163.158 303.734 165.307 304.51 167.137C305.301 168.967 306.41 170.388 307.838 171.4C309.28 172.413 310.971 172.919 312.912 172.919C314.188 172.919 315.346 172.697 316.385 172.253C317.425 171.809 318.306 171.172 319.027 170.34C319.748 169.508 320.261 168.51 320.566 167.345H325.474C325.196 169.231 324.51 170.929 323.415 172.44C322.333 173.938 320.898 175.13 319.11 176.017C317.335 176.891 315.269 177.328 312.912 177.328ZM345.626 177.328C342.742 177.328 340.212 176.641 338.035 175.269C335.872 173.896 334.181 171.976 332.961 169.508C331.754 167.04 331.151 164.156 331.151 160.856C331.151 157.529 331.754 154.624 332.961 152.143C334.181 149.661 335.872 147.734 338.035 146.361C340.212 144.988 342.742 144.302 345.626 144.302C348.51 144.302 351.033 144.988 353.196 146.361C355.373 147.734 357.064 149.661 358.27 152.143C359.49 154.624 360.101 157.529 360.101 160.856C360.101 164.156 359.49 167.04 358.27 169.508C357.064 171.976 355.373 173.896 353.196 175.269C351.033 176.641 348.51 177.328 345.626 177.328ZM345.626 172.919C347.816 172.919 349.619 172.357 351.033 171.234C352.447 170.111 353.494 168.635 354.173 166.804C354.853 164.974 355.192 162.992 355.192 160.856C355.192 158.721 354.853 156.732 354.173 154.888C353.494 153.044 352.447 151.553 351.033 150.416C349.619 149.28 347.816 148.711 345.626 148.711C343.435 148.711 341.633 149.28 340.219 150.416C338.804 151.553 337.758 153.044 337.078 154.888C336.399 156.732 336.059 158.721 336.059 160.856C336.059 162.992 336.399 164.974 337.078 166.804C337.758 168.635 338.804 170.111 340.219 171.234C341.633 172.357 343.435 172.919 345.626 172.919ZM372.501 157.446V176.662H367.593V144.718H372.334V149.709H372.75C373.499 148.087 374.636 146.784 376.161 145.799C377.686 144.801 379.655 144.302 382.067 144.302C384.23 144.302 386.123 144.746 387.745 145.633C389.367 146.507 390.629 147.838 391.53 149.626C392.431 151.401 392.882 153.647 392.882 156.364V176.662H387.974V156.697C387.974 154.188 387.322 152.233 386.019 150.832C384.715 149.418 382.927 148.711 380.653 148.711C379.086 148.711 377.686 149.051 376.452 149.73C375.232 150.409 374.268 151.401 373.561 152.704C372.854 154.007 372.501 155.588 372.501 157.446ZM413.913 177.328C411.251 177.328 408.9 176.655 406.862 175.31C404.824 173.952 403.23 172.038 402.079 169.57C400.928 167.089 400.353 164.156 400.353 160.773C400.353 157.418 400.928 154.506 402.079 152.039C403.23 149.571 404.831 147.664 406.883 146.319C408.935 144.975 411.306 144.302 413.996 144.302C416.075 144.302 417.718 144.649 418.925 145.342C420.145 146.021 421.074 146.798 421.711 147.671C422.363 148.531 422.869 149.238 423.23 149.793H423.645V134.07H428.554V176.662H423.812V171.754H423.23C422.869 172.336 422.356 173.071 421.691 173.959C421.025 174.832 420.075 175.615 418.841 176.309C417.607 176.988 415.964 177.328 413.913 177.328ZM414.578 172.919C416.547 172.919 418.211 172.406 419.569 171.38C420.928 170.34 421.961 168.905 422.668 167.075C423.375 165.231 423.729 163.103 423.729 160.69C423.729 158.305 423.382 156.219 422.689 154.43C421.996 152.628 420.97 151.227 419.611 150.229C418.252 149.217 416.575 148.711 414.578 148.711C412.498 148.711 410.765 149.245 409.379 150.312C408.006 151.366 406.973 152.801 406.28 154.617C405.601 156.42 405.261 158.444 405.261 160.69C405.261 162.964 405.608 165.03 406.301 166.888C407.008 168.732 408.048 170.201 409.42 171.297C410.807 172.378 412.526 172.919 414.578 172.919ZM451.617 177.328C448.539 177.328 445.884 176.648 443.652 175.29C441.434 173.917 439.722 172.004 438.515 169.55C437.323 167.082 436.727 164.212 436.727 160.94C436.727 157.668 437.323 154.784 438.515 152.288C439.722 149.779 441.399 147.824 443.548 146.423C445.711 145.009 448.234 144.302 451.118 144.302C452.782 144.302 454.425 144.579 456.047 145.134C457.669 145.689 459.146 146.59 460.477 147.838C461.808 149.072 462.868 150.708 463.659 152.746C464.449 154.784 464.844 157.293 464.844 160.274V162.354H440.221V158.111H459.853C459.853 156.309 459.492 154.701 458.771 153.286C458.064 151.872 457.052 150.756 455.735 149.938C454.432 149.12 452.893 148.711 451.118 148.711C449.163 148.711 447.472 149.196 446.044 150.167C444.63 151.124 443.541 152.371 442.779 153.91C442.016 155.449 441.635 157.099 441.635 158.86V161.688C441.635 164.101 442.051 166.146 442.883 167.823C443.728 169.487 444.9 170.756 446.397 171.629C447.895 172.489 449.635 172.919 451.617 172.919C452.907 172.919 454.071 172.738 455.111 172.378C456.165 172.004 457.073 171.449 457.836 170.714C458.598 169.966 459.187 169.037 459.603 167.927L464.345 169.258C463.846 170.867 463.007 172.281 461.829 173.501C460.65 174.707 459.194 175.65 457.461 176.329C455.728 176.995 453.78 177.328 451.617 177.328ZM489.447 134.07H495.603L510.077 169.425H510.577L525.051 134.07H531.207V176.662H526.382V144.302H525.966L512.656 176.662H507.998L494.688 144.302H494.272V176.662H489.447V134.07ZM550.283 177.411C548.259 177.411 546.422 177.03 544.772 176.267C543.122 175.491 541.812 174.374 540.841 172.919C539.871 171.449 539.386 169.674 539.386 167.595C539.386 165.765 539.746 164.281 540.467 163.144C541.188 161.993 542.151 161.092 543.358 160.441C544.564 159.789 545.895 159.304 547.351 158.985C548.82 158.652 550.297 158.389 551.78 158.194C553.722 157.945 555.295 157.758 556.501 157.633C557.721 157.494 558.609 157.266 559.163 156.947C559.732 156.628 560.016 156.073 560.016 155.283V155.117C560.016 153.065 559.455 151.47 558.331 150.333C557.222 149.196 555.538 148.628 553.278 148.628C550.935 148.628 549.098 149.141 547.767 150.167C546.436 151.193 545.5 152.288 544.959 153.453L540.301 151.789C541.132 149.848 542.242 148.337 543.628 147.255C545.028 146.16 546.554 145.397 548.203 144.968C549.867 144.524 551.503 144.302 553.111 144.302C554.137 144.302 555.316 144.427 556.647 144.676C557.992 144.912 559.288 145.404 560.536 146.153C561.798 146.902 562.844 148.032 563.676 149.543C564.508 151.054 564.924 153.078 564.924 155.616V176.662H560.016V172.336H559.766C559.434 173.03 558.879 173.771 558.103 174.562C557.326 175.352 556.293 176.024 555.004 176.579C553.715 177.134 552.141 177.411 550.283 177.411ZM551.032 173.002C552.973 173.002 554.609 172.621 555.94 171.858C557.285 171.095 558.297 170.111 558.976 168.905C559.669 167.699 560.016 166.43 560.016 165.099V160.607C559.808 160.856 559.351 161.085 558.643 161.293C557.95 161.487 557.146 161.661 556.231 161.813C555.33 161.952 554.449 162.077 553.59 162.187C552.744 162.285 552.058 162.368 551.531 162.437C550.255 162.603 549.063 162.874 547.954 163.248C546.859 163.609 545.971 164.156 545.292 164.891C544.626 165.612 544.294 166.596 544.294 167.844C544.294 169.55 544.924 170.839 546.186 171.712C547.462 172.572 549.077 173.002 551.032 173.002ZM573.882 176.662V144.718H578.79V176.662H573.882ZM576.378 139.394C575.421 139.394 574.596 139.068 573.903 138.417C573.224 137.765 572.884 136.982 572.884 136.067C572.884 135.151 573.224 134.368 573.903 133.716C574.596 133.065 575.421 132.739 576.378 132.739C577.335 132.739 578.153 133.065 578.832 133.716C579.525 134.368 579.872 135.151 579.872 136.067C579.872 136.982 579.525 137.765 578.832 138.417C578.153 139.068 577.335 139.394 576.378 139.394ZM592.688 157.446V176.662H587.78V144.718H592.522V149.709H592.938C593.686 148.087 594.823 146.784 596.348 145.799C597.873 144.801 599.842 144.302 602.255 144.302C604.417 144.302 606.31 144.746 607.932 145.633C609.554 146.507 610.816 147.838 611.717 149.626C612.618 151.401 613.069 153.647 613.069 156.364V176.662H608.161V156.697C608.161 154.188 607.509 152.233 606.206 150.832C604.903 149.418 603.114 148.711 600.84 148.711C599.274 148.711 597.873 149.051 596.639 149.73C595.419 150.409 594.456 151.401 593.749 152.704C593.042 154.007 592.688 155.588 592.688 157.446Z" fill="#102550"/>
</svg>
