<svg xmlns="http://www.w3.org/2000/svg" width="614" height="178" fill="none"><path fill="#102550" d="M578.74 3.43h-79.69c-3.42 0-6.21 2.8-6.21 6.22v21.42c0 3.44 2.79 6.2 6.21 6.2h15.44c3.42 0 6.2 2.79 6.2 6.23v67.38c0 3.43 2.79 6.23 6.21 6.23h23.67c3.44 0 6.23-2.8 6.23-6.23V43.5c0-3.44 2.75-6.23 6.19-6.23h15.75c3.42 0 6.2-2.75 6.2-6.2V9.65c0-3.42-2.78-6.22-6.2-6.22ZM373.18 16.61C361.36 5.97 346.53.74 328.72.74c-16.77 0-32.21 5.55-43.73 15.28-11.37 9.59-18.56 25.47-18.56 44.02 0 38.48 28.91 59.75 62.29 59.75 33.38 0 62.29-21.27 62.29-59.75-.01-18.42-6-32.94-17.83-43.43Zm-27.55 61.84c-4.64 4.35-10.33 6.61-16.92 6.61-6.6 0-12.29-2.26-16.92-6.61-4.64-4.47-7.03-10.62-7.03-18.41 0-7.78 2.23-13.78 6.86-18.11 4.66-4.37 10.35-6.45 17.08-6.45 6.72 0 12.28 2.08 16.92 6.45 4.64 4.33 7.03 10.32 7.03 18.11.01 7.78-2.37 13.94-7.02 18.41ZM250.01 3.44h-23.67c-3.43 0-6.2 2.78-6.2 6.22v60.58c0 10.03-4.66 14.95-14.08 14.95-3.97 0-8.31-.82-12.96-2.51-4.11-1.45-8.45 1.43-8.45 5.78v22.57c0 2.86 1.93 5.41 4.72 6.04 7.87 1.77 15.42 2.71 22.55 2.71 13.01 0 23.64-4.19 31.73-12.43 8.09-8.39 12.13-20.79 12.28-37.44l.28-60.23c0-3.45-2.78-6.24-6.2-6.24ZM480.05 3.43h-79.68c-3.43 0-6.22 2.8-6.22 6.22v21.42c0 3.44 2.79 6.2 6.22 6.2h15.44c3.42 0 6.2 2.79 6.2 6.23v67.38c0 3.43 2.79 6.23 6.21 6.23h23.67c3.43 0 6.22-2.8 6.22-6.23V43.5c0-3.44 2.76-6.23 6.19-6.23h15.75c3.42 0 6.21-2.75 6.21-6.2V9.65c-.01-3.42-2.79-6.22-6.21-6.22Z"/><path fill="#00A75C" d="M66.7 117.12h19.19c3.94 0 6.05-1.74 7.12-3.19.98-1.33 2.3-4.17.22-8.34L76.49 74.34c4.07-2.8 7.53-6.38 10.32-10.69 3.63-5.63 5.48-12.6 5.48-20.71 0-8.67-2.04-16.06-6.08-21.97-3.98-5.82-9.18-10.26-15.48-13.21-6.16-2.88-12.78-4.35-19.67-4.35H7.01C3.16 3.41.05 6.53.05 10.37v99.79c0 3.85 3.12 6.96 6.96 6.96h23.41c3.85 0 6.96-3.12 6.96-6.96V81.83h4.9l15.06 29.55c1.86 3.7 5.18 5.74 9.36 5.74Zm-8.4-72.48c0 5.01-3.75 10.18-10.02 10.18h-10.9V35.85h10.9c6.09 0 10.02 3.45 10.02 8.79ZM168.16 37.4c3.85 0 6.96-3.12 6.96-6.96V10.37c0-3.85-3.12-6.96-6.96-6.96h-55.21c-3.85 0-6.96 3.12-6.96 6.96v99.79c0 3.85 3.12 6.96 6.96 6.96h55.21c3.85 0 6.96-3.12 6.96-6.96V90.09c0-3.85-3.12-6.96-6.96-6.96h-27.4v-9.45h26.01c3.84 0 6.96-3.12 6.96-6.96v-12.9c0-3.85-3.12-6.96-6.96-6.96h-26.01v-9.45h27.4v-.01Z"/><path fill="#102550" d="M28.499 144.718c-.25-2.107-1.262-3.743-3.036-4.908-1.775-1.165-3.952-1.747-6.53-1.747-1.886 0-3.536.305-4.95.915-1.4.61-2.496 1.449-3.286 2.517-.777 1.067-1.165 2.28-1.165 3.639 0 1.137.27 2.114.811 2.932a7.192 7.192 0 0 0 2.122 2.018c.86.527 1.76.963 2.703 1.31.943.333 1.81.603 2.6.811l4.326 1.165c1.109.291 2.343.693 3.701 1.206a17.102 17.102 0 0 1 3.931 2.1 10.71 10.71 0 0 1 3.12 3.369c.818 1.373 1.227 3.058 1.227 5.054 0 2.302-.604 4.381-1.81 6.239-1.192 1.858-2.94 3.335-5.24 4.43-2.288 1.095-5.068 1.643-8.34 1.643-3.05 0-5.692-.492-7.924-1.477-2.218-.984-3.965-2.357-5.24-4.118-1.262-1.76-1.976-3.805-2.143-6.135H8.7c.139 1.609.68 2.94 1.623 3.993.956 1.04 2.162 1.817 3.618 2.33 1.47.499 3.05.748 4.742.748 1.969 0 3.736-.319 5.303-.956 1.567-.652 2.808-1.553 3.723-2.704.915-1.165 1.372-2.523 1.372-4.076 0-1.414-.395-2.565-1.185-3.452-.79-.888-1.83-1.609-3.12-2.163a32.73 32.73 0 0 0-4.18-1.456l-5.24-1.497c-3.328-.957-5.962-2.323-7.903-4.097-1.942-1.775-2.912-4.097-2.912-6.967 0-2.385.645-4.465 1.934-6.24 1.303-1.788 3.05-3.175 5.24-4.159 2.205-.998 4.666-1.497 7.384-1.497 2.745 0 5.185.492 7.32 1.476 2.136.971 3.827 2.302 5.075 3.993 1.261 1.692 1.927 3.612 1.996 5.761H28.5Zm26.781 32.61c-3.078 0-5.733-.68-7.965-2.038-2.218-1.373-3.93-3.286-5.137-5.74-1.192-2.468-1.788-5.338-1.788-8.61 0-3.272.596-6.156 1.788-8.652 1.206-2.509 2.884-4.464 5.033-5.865 2.163-1.414 4.686-2.121 7.57-2.121 1.664 0 3.307.277 4.929.832 1.622.555 3.099 1.456 4.43 2.704 1.33 1.234 2.391 2.87 3.182 4.908.79 2.038 1.185 4.547 1.185 7.528v2.08H43.883v-4.243h19.633c0-1.802-.36-3.41-1.082-4.825a8.15 8.15 0 0 0-3.036-3.348c-1.303-.818-2.842-1.227-4.617-1.227-1.955 0-3.646.485-5.074 1.456a9.578 9.578 0 0 0-3.266 3.743 10.999 10.999 0 0 0-1.143 4.95v2.828c0 2.413.416 4.458 1.247 6.135.846 1.664 2.018 2.933 3.515 3.806 1.498.86 3.238 1.29 5.22 1.29 1.29 0 2.454-.181 3.494-.541a7.473 7.473 0 0 0 2.724-1.664c.763-.748 1.352-1.677 1.768-2.787l4.742 1.331a10.51 10.51 0 0 1-2.516 4.243c-1.179 1.206-2.635 2.149-4.368 2.828-1.733.666-3.68.999-5.844.999Zm20.693-.666v-31.944h4.742v4.825h.333c.582-1.581 1.636-2.863 3.16-3.847 1.526-.985 3.245-1.477 5.158-1.477.36 0 .811.007 1.352.021.54.014.95.034 1.227.062v4.991a14.814 14.814 0 0 0-1.144-.187c-.582-.097-1.199-.145-1.85-.145-1.553 0-2.94.325-4.16.977a7.374 7.374 0 0 0-2.87 2.662c-.693 1.123-1.04 2.406-1.04 3.848v20.214h-4.908Zm48.883-31.944-11.812 31.944h-4.992L96.24 144.718h5.324l8.818 25.455h.332l8.818-25.455h5.324Zm6.479 31.944v-31.944h4.908v31.944h-4.908Zm2.495-37.268a3.493 3.493 0 0 1-2.475-.977c-.679-.652-1.019-1.435-1.019-2.35 0-.916.34-1.699 1.019-2.351a3.493 3.493 0 0 1 2.475-.977c.957 0 1.775.326 2.454.977.693.652 1.04 1.435 1.04 2.351 0 .915-.347 1.698-1.04 2.35-.679.651-1.497.977-2.454.977Zm24.379 37.934c-2.994 0-5.573-.707-7.736-2.122-2.163-1.414-3.827-3.362-4.991-5.844-1.165-2.481-1.747-5.317-1.747-8.506 0-3.244.596-6.107 1.788-8.589 1.206-2.495 2.884-4.443 5.033-5.844 2.163-1.414 4.686-2.121 7.57-2.121 2.246 0 4.27.416 6.073 1.248 1.802.832 3.279 1.996 4.43 3.494 1.15 1.497 1.864 3.244 2.142 5.241h-4.908c-.375-1.456-1.207-2.746-2.496-3.869-1.276-1.136-2.995-1.705-5.158-1.705-1.913 0-3.591.499-5.033 1.497-1.428.985-2.544 2.378-3.348 4.181-.79 1.788-1.185 3.889-1.185 6.301 0 2.468.388 4.617 1.164 6.447.791 1.83 1.9 3.251 3.328 4.263 1.442 1.013 3.133 1.519 5.074 1.519 1.276 0 2.434-.222 3.473-.666a7.168 7.168 0 0 0 2.642-1.913c.721-.832 1.234-1.83 1.539-2.995h4.908a11.378 11.378 0 0 1-2.059 5.095c-1.082 1.498-2.517 2.69-4.305 3.577-1.775.874-3.841 1.311-6.198 1.311Zm33.13 0c-3.078 0-5.733-.68-7.965-2.038-2.219-1.373-3.931-3.286-5.137-5.74-1.193-2.468-1.789-5.338-1.789-8.61 0-3.272.596-6.156 1.789-8.652 1.206-2.509 2.884-4.464 5.033-5.865 2.162-1.414 4.686-2.121 7.57-2.121 1.663 0 3.306.277 4.929.832 1.622.555 3.098 1.456 4.429 2.704 1.331 1.234 2.392 2.87 3.182 4.908.79 2.038 1.186 4.547 1.186 7.528v2.08h-24.624v-4.243h19.632c0-1.802-.36-3.41-1.081-4.825a8.149 8.149 0 0 0-3.036-3.348c-1.304-.818-2.843-1.227-4.617-1.227-1.955 0-3.647.485-5.075 1.456a9.582 9.582 0 0 0-3.265 3.743 11.006 11.006 0 0 0-1.144 4.95v2.828c0 2.413.416 4.458 1.248 6.135.846 1.664 2.017 2.933 3.515 3.806 1.497.86 3.237 1.29 5.22 1.29 1.289 0 2.454-.181 3.494-.541a7.472 7.472 0 0 0 2.724-1.664c.763-.748 1.352-1.677 1.768-2.787l4.742 1.331a10.515 10.515 0 0 1-2.517 4.243c-1.178 1.206-2.634 2.149-4.367 2.828-1.733.666-3.681.999-5.844.999Zm61.122-32.61c-.25-2.107-1.262-3.743-3.036-4.908-1.775-1.165-3.952-1.747-6.531-1.747-1.885 0-3.535.305-4.949.915-1.401.61-2.496 1.449-3.286 2.517-.777 1.067-1.165 2.28-1.165 3.639 0 1.137.271 2.114.811 2.932a7.194 7.194 0 0 0 2.122 2.018c.859.527 1.76.963 2.703 1.31.943.333 1.809.603 2.6.811l4.325 1.165c1.11.291 2.344.693 3.702 1.206a17.1 17.1 0 0 1 3.931 2.1c1.262.874 2.301 1.997 3.119 3.369.818 1.373 1.228 3.058 1.228 5.054 0 2.302-.604 4.381-1.81 6.239-1.192 1.858-2.939 3.335-5.241 4.43-2.287 1.095-5.067 1.643-8.339 1.643-3.05 0-5.692-.492-7.924-1.477-2.218-.984-3.965-2.357-5.241-4.118-1.261-1.76-1.975-3.805-2.142-6.135h5.324c.139 1.609.68 2.94 1.622 3.993.957 1.04 2.163 1.817 3.619 2.33 1.47.499 3.05.748 4.742.748 1.969 0 3.736-.319 5.303-.956 1.567-.652 2.808-1.553 3.723-2.704.915-1.165 1.372-2.523 1.372-4.076 0-1.414-.395-2.565-1.185-3.452-.79-.888-1.83-1.609-3.12-2.163a32.722 32.722 0 0 0-4.18-1.456l-5.241-1.497c-3.327-.957-5.961-2.323-7.903-4.097-1.941-1.775-2.911-4.097-2.911-6.967 0-2.385.645-4.465 1.934-6.24 1.303-1.788 3.05-3.175 5.241-4.159 2.204-.998 4.665-1.497 7.383-1.497 2.745 0 5.185.492 7.32 1.476 2.135.971 3.827 2.302 5.075 3.993 1.261 1.692 1.927 3.612 1.996 5.761h-4.991Zm26.781 32.61c-3.078 0-5.733-.68-7.965-2.038-2.218-1.373-3.931-3.286-5.137-5.74-1.192-2.468-1.788-5.338-1.788-8.61 0-3.272.596-6.156 1.788-8.652 1.206-2.509 2.884-4.464 5.033-5.865 2.163-1.414 4.686-2.121 7.57-2.121 1.664 0 3.307.277 4.929.832 1.622.555 3.099 1.456 4.43 2.704 1.331 1.234 2.391 2.87 3.182 4.908.79 2.038 1.185 4.547 1.185 7.528v2.08h-24.624v-4.243h19.633c0-1.802-.361-3.41-1.082-4.825a8.149 8.149 0 0 0-3.036-3.348c-1.303-.818-2.842-1.227-4.617-1.227-1.955 0-3.646.485-5.074 1.456a9.576 9.576 0 0 0-3.266 3.743 11.005 11.005 0 0 0-1.143 4.95v2.828c0 2.413.416 4.458 1.247 6.135.846 1.664 2.018 2.933 3.515 3.806 1.498.86 3.238 1.29 5.22 1.29 1.29 0 2.454-.181 3.494-.541a7.464 7.464 0 0 0 2.724-1.664c.763-.748 1.352-1.677 1.768-2.787l4.742 1.331a10.504 10.504 0 0 1-2.517 4.243c-1.178 1.206-2.634 2.149-4.367 2.828-1.733.666-3.681.999-5.844.999Zm33.67 0c-2.994 0-5.573-.707-7.736-2.122-2.163-1.414-3.827-3.362-4.991-5.844-1.165-2.481-1.747-5.317-1.747-8.506 0-3.244.596-6.107 1.788-8.589 1.206-2.495 2.884-4.443 5.033-5.844 2.163-1.414 4.686-2.121 7.57-2.121 2.246 0 4.27.416 6.073 1.248 1.802.832 3.279 1.996 4.43 3.494 1.15 1.497 1.864 3.244 2.142 5.241h-4.908c-.375-1.456-1.207-2.746-2.496-3.869-1.276-1.136-2.995-1.705-5.158-1.705-1.913 0-3.591.499-5.033 1.497-1.428.985-2.544 2.378-3.348 4.181-.79 1.788-1.185 3.889-1.185 6.301 0 2.468.388 4.617 1.164 6.447.791 1.83 1.9 3.251 3.328 4.263 1.442 1.013 3.133 1.519 5.074 1.519 1.276 0 2.434-.222 3.473-.666a7.168 7.168 0 0 0 2.642-1.913c.721-.832 1.234-1.83 1.539-2.995h4.908a11.378 11.378 0 0 1-2.059 5.095c-1.082 1.498-2.517 2.69-4.305 3.577-1.775.874-3.841 1.311-6.198 1.311Zm32.714 0c-2.884 0-5.414-.687-7.591-2.059-2.163-1.373-3.854-3.293-5.074-5.761-1.207-2.468-1.81-5.352-1.81-8.652 0-3.327.603-6.232 1.81-8.713 1.22-2.482 2.911-4.409 5.074-5.782 2.177-1.373 4.707-2.059 7.591-2.059 2.884 0 5.407.686 7.57 2.059 2.177 1.373 3.868 3.3 5.074 5.782 1.22 2.481 1.831 5.386 1.831 8.713 0 3.3-.611 6.184-1.831 8.652-1.206 2.468-2.897 4.388-5.074 5.761-2.163 1.372-4.686 2.059-7.57 2.059Zm0-4.409c2.19 0 3.993-.562 5.407-1.685 1.414-1.123 2.461-2.599 3.14-4.43.68-1.83 1.019-3.812 1.019-5.948 0-2.135-.339-4.124-1.019-5.968-.679-1.844-1.726-3.335-3.14-4.472-1.414-1.136-3.217-1.705-5.407-1.705-2.191 0-3.993.569-5.407 1.705-1.415 1.137-2.461 2.628-3.141 4.472-.679 1.844-1.019 3.833-1.019 5.968 0 2.136.34 4.118 1.019 5.948.68 1.831 1.726 3.307 3.141 4.43 1.414 1.123 3.216 1.685 5.407 1.685Zm26.875-15.473v19.216h-4.908v-31.944h4.741v4.991h.416c.749-1.622 1.886-2.925 3.411-3.91 1.525-.998 3.494-1.497 5.906-1.497 2.163 0 4.056.444 5.678 1.331 1.622.874 2.884 2.205 3.785 3.993.901 1.775 1.352 4.021 1.352 6.738v20.298h-4.908v-19.965c0-2.509-.652-4.464-1.955-5.865-1.304-1.414-3.092-2.121-5.366-2.121-1.567 0-2.967.34-4.201 1.019-1.22.679-2.184 1.671-2.891 2.974-.707 1.303-1.06 2.884-1.06 4.742Zm41.412 19.882c-2.662 0-5.013-.673-7.051-2.018-2.038-1.358-3.632-3.272-4.783-5.74-1.151-2.481-1.726-5.414-1.726-8.797 0-3.355.575-6.267 1.726-8.734 1.151-2.468 2.752-4.375 4.804-5.72 2.052-1.344 4.423-2.017 7.113-2.017 2.079 0 3.722.347 4.929 1.04 1.22.679 2.149 1.456 2.786 2.329.652.86 1.158 1.567 1.519 2.122h.415V134.07h4.909v42.592h-4.742v-4.908h-.582c-.361.582-.874 1.317-1.539 2.205-.666.873-1.616 1.656-2.85 2.35-1.234.679-2.877 1.019-4.928 1.019Zm.665-4.409c1.969 0 3.633-.513 4.991-1.539 1.359-1.04 2.392-2.475 3.099-4.305.707-1.844 1.061-3.972 1.061-6.385 0-2.385-.347-4.471-1.04-6.26-.693-1.802-1.719-3.203-3.078-4.201-1.359-1.012-3.036-1.518-5.033-1.518-2.08 0-3.813.534-5.199 1.601-1.373 1.054-2.406 2.489-3.099 4.305-.679 1.803-1.019 3.827-1.019 6.073 0 2.274.347 4.34 1.04 6.198.707 1.844 1.747 3.313 3.119 4.409 1.387 1.081 3.106 1.622 5.158 1.622Zm37.039 4.409c-3.078 0-5.733-.68-7.965-2.038-2.218-1.373-3.93-3.286-5.137-5.74-1.192-2.468-1.788-5.338-1.788-8.61 0-3.272.596-6.156 1.788-8.652 1.207-2.509 2.884-4.464 5.033-5.865 2.163-1.414 4.686-2.121 7.57-2.121 1.664 0 3.307.277 4.929.832 1.622.555 3.099 1.456 4.43 2.704 1.331 1.234 2.391 2.87 3.182 4.908.79 2.038 1.185 4.547 1.185 7.528v2.08h-24.623v-4.243h19.632c0-1.802-.361-3.41-1.082-4.825a8.149 8.149 0 0 0-3.036-3.348c-1.303-.818-2.842-1.227-4.617-1.227-1.955 0-3.646.485-5.074 1.456a9.574 9.574 0 0 0-3.265 3.743 10.993 10.993 0 0 0-1.144 4.95v2.828c0 2.413.416 4.458 1.248 6.135.845 1.664 2.017 2.933 3.514 3.806 1.498.86 3.238 1.29 5.22 1.29 1.29 0 2.454-.181 3.494-.541a7.476 7.476 0 0 0 2.725-1.664c.762-.748 1.351-1.677 1.767-2.787l4.742 1.331a10.513 10.513 0 0 1-2.516 4.243c-1.179 1.206-2.635 2.149-4.368 2.828-1.733.666-3.681.999-5.844.999Zm37.83-43.258h6.156l14.474 35.355h.5l14.474-35.355h6.156v42.592h-4.825v-32.36h-.416l-13.31 32.36h-4.658l-13.31-32.36h-.416v32.36h-4.825V134.07Zm60.836 43.341c-2.024 0-3.861-.381-5.511-1.144-1.65-.776-2.96-1.893-3.931-3.348-.97-1.47-1.455-3.245-1.455-5.324 0-1.83.36-3.314 1.081-4.451a7.62 7.62 0 0 1 2.891-2.703c1.206-.652 2.537-1.137 3.993-1.456a48.809 48.809 0 0 1 4.429-.791c1.942-.249 3.515-.436 4.721-.561 1.22-.139 2.108-.367 2.662-.686.569-.319.853-.874.853-1.664v-.166c0-2.052-.561-3.647-1.685-4.784-1.109-1.137-2.793-1.705-5.053-1.705-2.343 0-4.18.513-5.511 1.539-1.331 1.026-2.267 2.121-2.808 3.286l-4.658-1.664c.831-1.941 1.941-3.452 3.327-4.534 1.4-1.095 2.926-1.858 4.575-2.287 1.664-.444 3.3-.666 4.908-.666 1.026 0 2.205.125 3.536.374 1.345.236 2.641.728 3.889 1.477 1.262.749 2.308 1.879 3.14 3.39.832 1.511 1.248 3.535 1.248 6.073v21.046h-4.908v-4.326h-.25c-.332.694-.887 1.435-1.663 2.226-.777.79-1.81 1.462-3.099 2.017-1.289.555-2.863.832-4.721.832Zm.749-4.409c1.941 0 3.577-.381 4.908-1.144 1.345-.763 2.357-1.747 3.036-2.953.693-1.206 1.04-2.475 1.04-3.806v-4.492c-.208.249-.665.478-1.373.686-.693.194-1.497.368-2.412.52-.901.139-1.782.264-2.641.374-.846.098-1.532.181-2.059.25a18.736 18.736 0 0 0-3.577.811c-1.095.361-1.983.908-2.662 1.643-.666.721-.998 1.705-.998 2.953 0 1.706.63 2.995 1.892 3.868 1.276.86 2.891 1.29 4.846 1.29Zm22.85 3.66v-31.944h4.908v31.944h-4.908Zm2.496-37.268a3.491 3.491 0 0 1-2.475-.977c-.679-.652-1.019-1.435-1.019-2.35 0-.916.34-1.699 1.019-2.351a3.491 3.491 0 0 1 2.475-.977c.957 0 1.775.326 2.454.977.693.652 1.04 1.435 1.04 2.351 0 .915-.347 1.698-1.04 2.35-.679.651-1.497.977-2.454.977Zm16.31 18.052v19.216h-4.908v-31.944h4.742v4.991h.416c.748-1.622 1.885-2.925 3.41-3.91 1.525-.998 3.494-1.497 5.907-1.497 2.162 0 4.055.444 5.677 1.331 1.622.874 2.884 2.205 3.785 3.993.901 1.775 1.352 4.021 1.352 6.738v20.298h-4.908v-19.965c0-2.509-.652-4.464-1.955-5.865-1.303-1.414-3.092-2.121-5.366-2.121-1.566 0-2.967.34-4.201 1.019-1.22.679-2.183 1.671-2.89 2.974-.707 1.303-1.061 2.884-1.061 4.742Z"/></svg>