<svg xmlns="http://www.w3.org/2000/svg" width="870" height="238" fill="none"><path fill="#000" d="M828.757 2.335c-5.088 10.7-3.468 22.827 4.21 31.55.972 1.102.94 1.004-.649-2.563-2.169-4.96-2.721-12.126-1.295-17.704 1.038-4.085 4.277-10.02 6.738-12.289.454-.421.746-.908.649-1.037C838.312.13 836.369 0 834.068 0h-4.179l-1.132 2.335Z"/><path fill="#000" d="M817.223 4.248c-1.329.713-2.916 1.686-3.53 2.14l-1.069.843.226 2.594c.843 9.824 6.348 18.352 14.772 22.892 2.398 1.297 5.151 2.432 5.377 2.205.065-.065-.647-.649-1.587-1.265-5.474-3.631-9.978-10.506-11.436-17.477-.583-2.82-.615-8.528-.032-11.252.292-1.394.292-2.01.066-2.01-.195 0-1.458.616-2.787 1.33Zm28.313.259c-2.819 1.978-6.252 5.642-7.97 8.528-3.498 5.869-4.89 13.23-3.724 19.39l.42 2.108.389-2.984c.94-7.165 3.693-12.548 8.909-17.509 2.819-2.659 6.286-4.831 9.59-5.934 1.264-.454 2.299-.908 2.299-1.037 0-.584-6.089-4.15-7.127-4.15-.291 0-1.554.713-2.786 1.588Z"/><path fill="#000" d="M804.135 16.472c-.778 1.2-1.75 2.886-2.17 3.729l-.746 1.524 1.555 2.27c2.041 2.983 6.317 6.97 9.298 8.657 5.217 2.95 11.694 4.345 17.202 3.664 3.693-.454 4.762-.94 2.041-.973-1.069 0-3.142-.292-4.633-.648-9.393-2.27-17.299-9.533-20.278-18.742-.326-.908-.649-1.686-.714-1.686-.064 0-.778 1.005-1.555 2.205Zm52.125-1.654c-3.338.713-6.837 2.14-9.59 3.956-2.915 1.913-7.223 6.323-8.778 8.982-1.2 2.075-2.981 6.258-2.755 6.485.065.065.551-.487 1.037-1.232 1.361-2.043 4.568-5.318 6.835-6.94 6.577-4.701 15.55-6.42 23.39-4.441l.746.161-.52-1.232c-.258-.713-1.198-2.4-2.007-3.793l-1.523-2.497-2.267.032c-1.264 0-3.304.227-4.568.52Z"/><path fill="#000" d="M848.971 27.885c-4.699 1.005-10.27 3.794-12.634 6.323l-.811.843 2.269-1.005c7.192-3.242 16.164-3.177 23.324.13 2.656 1.232 4.794 2.594 6.964 4.475 1.783 1.588 1.88 1.426 1.912-3.373.031-3.923 0-3.988-2.624-5.22-5.8-2.724-12.343-3.502-18.4-2.173Zm-50.342 5.059c-.26 1.913-.26 4.928 0 6.225.16.844.549 1.168 2.558 2.14 3.499 1.719 6.609 2.497 10.756 2.692 5.766.292 10.594-.778 15.29-3.34 1.847-1.038 6.188-4.183 6.188-4.507 0-.065-1.069.357-2.332.973-4.019 1.913-6.934 2.529-11.922 2.529s-7.646-.584-11.825-2.497c-2.624-1.2-5.929-3.437-7.255-4.864-.455-.454-.909-.843-1.006-.843-.129 0-.323.681-.452 1.492Z"/><path fill="#000" d="M839.253 35.051c-1.329.13-2.787.39-3.241.584-.712.26-.584.324.908.324 5.571.065 12.114 2.789 17.136 7.069 3.208 2.756 6.609 7.944 8.132 12.419l.615 1.75 1.038-1.426c.583-.81 1.586-2.497 2.235-3.794l1.166-2.334-1.523-2.27c-2.01-2.918-6.026-6.712-8.876-8.43-5.216-3.113-11.696-4.54-17.59-3.892ZM.669 36.251c-.583.39-.745 1.265-.356 1.783.259.325 1.62.552 4.438.811 4.34.357 6.835 1.005 8.034 2.108l.713.648v43.385c0 23.865-.098 43.612-.195 43.903-.518 1.298-4.082 2.335-9.427 2.66-3.725.226-4.276.551-3.66 2.172l.324.843h45.385l.26-.746c.161-.389.161-1.005.032-1.362-.194-.551-.616-.681-3.337-.843-4.6-.324-7.45-1.102-8.779-2.399-.454-.486-.518-4.669-.518-44.098v-43.58l.712-.68c1.264-1.168 6.706-2.27 11.274-2.27 1.004 0 1.976-.163 2.203-.39.583-.583.453-1.49-.227-1.88-.745-.39-46.293-.454-46.876-.065Z"/><path fill="#000" d="M59.531 36.575c-.194.325-.259.908-.162 1.265.162.583.519.68 3.142.843 6.22.421 10.27 2.756 10.27 5.966 0 .551-.616 2.205-1.36 3.697-1.297 2.529-2.463 3.793-18.952 21.011L34.879 87.71v4.864l8.973-8.982 6.9 11.965c13.315 22.924 17.493 30.317 17.688 31.063.097.421 0 1.297-.195 1.978-.323.972-.712 1.297-2.105 1.945-.972.454-2.689.876-3.888 1.006-1.814.161-2.203.324-2.494.907-.227.519-.227.941.032 1.427l.389.681 22.742-.065 22.741-.097v-2.529l-3.499-.616c-4.211-.681-6.025-1.427-7.094-2.886-1.102-1.459-37.125-57.814-37.352-58.43-.26-.616 24.718-25.065 27.244-26.686 3.661-2.335 8.683-4.086 13.023-4.54 2.203-.259 2.786-.745 2.3-2.01l-.259-.713H79.94c-19.178 0-20.117.032-20.409.583Zm146.783 3.113c-9.492 2.335-13.509 3.47-13.703 3.826-.551 1.005 0 1.46 2.267 1.849 2.657.486 5.702 1.848 6.901 3.145 1.814 1.945 1.879 2.432 1.879 13.91 0 6.323-.13 10.538-.292 10.538-.194 0-1.523-.292-2.98-.648-1.458-.325-4.536-.876-6.868-1.167-3.564-.455-4.795-.487-8.228-.163-20.863 1.978-33.497 15.727-33.465 36.479 0 9.046 2.754 16.309 8.229 21.789 5.183 5.188 12.083 7.977 19.793 7.944 7.289 0 14.448-3.08 20.344-8.722l2.171-2.108v-4.474l-1.037 1.2c-2.008 2.269-4.632 3.469-8.811 4.02-7.808 1.038-15.259-3.275-19.049-11.024-.842-1.687-1.749-3.956-2.008-5.026-1.231-4.832-1.393-11.544-.486-18.288 1.198-8.722 4.697-14.915 9.848-17.38 1.749-.843 2.332-.973 5.863-1.07 2.884-.097 4.471 0 5.994.39 4.535 1.166 8.001 3.598 9.977 7.068l1.005 1.719v26.815c0 21.271.097 26.848.421 26.848.194 0 6.22-.876 13.346-1.978 8.229-1.265 13.12-2.172 13.445-2.432.874-.843 0-1.556-2.301-1.816-2.721-.324-5.863-1.848-6.932-3.437l-.81-1.199V81.322c0-42.671-.032-45.006-.551-44.974-.324.033-6.608 1.524-13.962 3.34Zm561.668.033-13.444 3.34v.907c0 .876.129.973 1.815 1.297 4.437.876 7.255 2.497 8.358 4.767.647 1.33.681 1.913.681 12.16 0 6.354-.132 10.765-.292 10.765-.163 0-1.523-.292-3.013-.65-7.323-1.718-13.088-1.912-19.957-.583-17.688 3.34-28.572 16.926-28.572 35.635 0 16.31 10.141 28.242 25.365 29.799 8.132.843 17.008-2.627 23.65-9.241 1.521-1.524 1.521-1.556 1.521-3.664v-2.108l-1.132 1.167c-2.172 2.238-5.217 3.502-9.427 3.956-6.286.616-12.96-2.788-16.813-8.592-3.662-5.513-4.957-11.835-4.374-21.239.778-11.932 4.114-19.066 10.302-21.984 1.944-.908 2.558-1.037 5.668-1.135 4.308-.162 6.772.292 9.882 1.751 2.721 1.297 5.345 3.761 6.477 6.031l.715 1.46v26.815c0 25.291.031 26.783.583 26.783 1.423 0 26.206-4.021 26.563-4.313.226-.194.389-.648.323-1.005-.097-.583-.389-.713-2.267-.907-1.263-.13-2.915-.552-3.887-1.038-1.944-.908-2.398-1.265-3.433-2.594l-.715-.94V81.354c0-42.703-.031-45.038-.549-45.006-.325.033-6.642 1.524-14.028 3.373Zm67.383-3.308c0 .065.809.681 1.781 1.33 5.314 3.502 9.59 9.89 11.208 16.634.812 3.307.94 8.884.326 11.867-.229 1.038-.326 1.978-.229 2.076.195.194 3.63-1.492 5.768-2.854 1.521-1.005 1.555-1.037 1.555-2.723 0-2.335-.746-5.967-1.783-8.917-2.493-6.875-7.612-12.549-14.189-15.694-2.947-1.427-4.437-1.978-4.437-1.719Zm-3.078 2.075c-1.684 2.595-5.183 5.902-8.098 7.718-5.088 3.177-10.53 4.571-16.522 4.28-1.943-.13-4.116-.357-4.796-.551-.712-.195-1.326-.325-1.392-.26-.226.26 2.624 5.512 3.596 6.615l.972 1.102 2.947-.324c9.492-1.005 17.85-6.485 22.289-14.624 1.004-1.848 2.59-5.804 2.333-5.804-.066 0-.649.843-1.329 1.848Z"/><path fill="#000" d="M834.716 36.932c0 .195.129.39.292.519.163.097.778 1.362 1.329 2.821 3.887 10.052 1.975 21.076-5.054 29.312l-1.426 1.654 2.333.162c1.295.097 3.304.097 4.439 0l2.041-.162 1.263-2.627c4.631-9.727 3.433-20.946-3.176-29.636-1.781-2.335-2.041-2.594-2.041-2.043Z"/><path fill="#000" d="M833.842 39.947c-.875 7.458-4.633 14.203-10.399 18.807-2.43 1.946-7.483 4.605-9.361 4.994-.584.13-1.07.324-1.07.486 0 .357 2.333 1.946 4.957 3.34 2.201 1.167 2.235 1.167 3.207.616 1.944-1.168 5.311-4.053 6.997-6.031 4.826-5.61 7.127-12.322 6.769-19.65-.257-5.512-.646-6.355-1.1-2.562Zm-708.484-1.329c-3.531.681-6.576 2.983-8.098 6.096-.778 1.589-.908 2.205-.908 4.734 0 2.659.098 3.145 1.069 5.09 1.199 2.433 2.851 4.022 5.443 5.189 2.462 1.135 6.447 1.07 9.038-.162 6.738-3.146 8.488-11.868 3.499-17.412-1.75-1.946-3.758-3.049-6.415-3.535-1.036-.195-1.976-.357-2.073-.324-.097.032-.81.162-1.555.324Zm132.724 30.674c-2.332.26-6.382 1.168-8.586 1.946-6.575 2.334-10.949 6.81-12.309 12.451-2.657 11.284 4.729 20.525 19.598 24.513 8.1 2.173 15.389 6.745 17.073 10.733.323.746.517 2.043.486 3.405-.066 5.09-3.304 8.592-9.104 9.824-8.292 1.751-15.581-1.329-20.7-8.754-1.619-2.335-4.924-8.528-4.924-9.241 0-.779-2.138-1.297-3.369-.811-.453.162-.518 1.297-.518 9.209v9.046l1.879.681c5.411 2.043 13.703 3.243 22.19 3.243 6.025 0 10.044-.616 14.092-2.14 5.248-1.946 9.913-5.837 12.116-10.052 3.79-7.263 3.11-13.878-2.009-19.358-3.822-4.118-8.941-6.971-17.817-9.954-11.954-4.021-15.938-7.393-15.484-13.1.486-6.064 6.317-9.89 13.541-8.917 5.862.81 12.082 6.323 16.327 14.494 1.586 3.08 2.235 3.632 3.724 3.145.681-.194.681-.389.681-10.116 0-8.755-.063-9.858-.486-9.696-3.499 1.33-5.863 1.46-10.042.584-5.411-1.135-12.019-1.589-16.359-1.135Zm-134.441 4.15c-9.103 2.335-13.217 3.535-13.509 3.924-.712.973 0 1.621 2.041 1.848 2.657.26 5.767 1.881 6.868 3.567l.875 1.33.194 45.297-.939.908c-.94.973-2.171 1.33-6.544 1.881-1.847.227-2.106.357-2.203 1.005-.259 1.719-.777 1.686 18.562 1.686 19.438 0 18.952.033 18.498-1.751-.162-.713-.421-.81-2.527-1.005-3.466-.324-5.15-.746-6.479-1.654l-1.231-.778V99.87c0-16.408-.097-29.832-.226-29.8-.162 0-6.155 1.524-13.38 3.373Zm295.444-.194c-7.029 1.751-13.183 3.275-13.669 3.372-.746.195-.909.422-.909 1.168 0 .907.066.972 2.235 1.33 3.985.68 7.518 2.885 8.424 5.284.226.616.357 8.334.357 23.411v22.471l-.843.551c-1.392.908-3.433 1.492-6.025 1.686-2.073.162-2.559.292-2.722.811-.486 1.589-.68 1.556 19.146 1.556 19.891 0 19.826 0 18.983-1.556-.292-.552-.809-.649-4.308-.778-3.985-.195-5.442-.519-6.48-1.46-.549-.486-.583-1.783-.583-18.838V93.903l1.361-2.27c3.078-5.22 5.41-8.203 7.84-9.987 1.781-1.297 2.332-1.2 2.558.39.389 3.015 2.43 5.09 5.897 5.998 2.85.713 5.508.616 7.483-.292 3.079-1.427 4.665-4.312 4.665-8.463 0-6.225-3.012-9.241-9.201-9.241-6.997.032-14.026 5.869-19.048 15.888l-1.555 3.08v-9.5c0-7.36-.097-9.468-.389-9.436-.226 0-6.186 1.46-13.217 3.178Zm75.159-2.724c-14.352 2.367-24.525 12.873-26.727 27.626-1.783 11.738 1.619 22.925 9.199 30.61 5.248 5.253 11.631 8.203 19.794 9.079 5.994.648 13.055-.487 18.4-2.951 11.662-5.415 18.822-18.32 18.111-32.587-.455-8.917-3.436-16.472-8.781-22.146-4.405-4.637-9.102-7.426-15.258-9.014-4.082-1.038-10.56-1.33-14.738-.617Zm9.878 4.216c3.11 1.459 5.866 4.474 7.872 8.592 3.11 6.323 4.116 12.549 3.856 23.346-.194 7.296-.712 10.928-2.169 15.208-1.784 5.317-4.602 8.982-8.553 11.122-1.846 1.005-2.172 1.07-5.053 1.07-2.756 0-3.273-.098-5.022-.941-5.12-2.529-8.747-8.528-10.399-17.282-.809-4.313-.972-16.05-.323-21.044 1.457-11.22 5.636-18.256 12.245-20.623 2.332-.81 5.02-.616 7.546.552Zm136.872-1.492c-7.032 1.751-13.186 3.275-13.672 3.372-.746.195-.906.422-.906 1.168 0 .907.063.972 2.235 1.33 4.017.68 7.515 2.917 8.487 5.414.163.454.292 10.279.292 23.606v22.827l-.972.519c-.875.454-4.179 1.005-7.258 1.199-1.489.098-2.169.876-1.521 1.686.389.454 2.462.519 19.146.519 20.052 0 19.986 0 19.146-1.556-.292-.552-.812-.649-4.311-.778-3.984-.195-5.442-.519-6.477-1.46-.552-.486-.583-2.366-.583-30.803 0-23.995-.097-30.253-.389-30.22-.228 0-6.188 1.459-13.217 3.177Zm-281.515-2.367c-8.813.778-15.227 2.983-18.594 6.388-2.01 2.01-2.982 3.988-3.499 7.036-.812 4.767 1.392 8.139 6.154 9.403 2.947.779 7.483-1.264 8.778-3.988 1.653-3.372.098-8.852-2.784-9.987-.423-.162-.746-.486-.746-.713 0-.551 1.166-1.621 2.461-2.27 3.273-1.654 12.863-2.043 15.55-.648 1.944 1.037 3.596 3.015 4.147 5.025.324 1.168.518 4.28.649 9.533l.226 7.815-2.527.421c-6.251 1.005-14.546 3.437-19.437 5.675-11.273 5.188-16.198 13.91-13.054 23.151 3.076 9.144 11.954 12.095 21.704 7.166 2.752-1.394 6.674-4.474 9.492-7.393 2.007-2.14 2.493-2.853 2.493-3.664 0-1.005-.031-1.005-.712-.486-3.078 2.205-6.932 3.437-10.819 3.437-6.123 0-9.169-2.789-9.461-8.755-.097-2.302 0-3.08.617-4.702 1.327-3.534 5.603-7.101 11.337-9.435 1.978-.811 8.941-2.724 9.881-2.724.389 0 .455 1.978.455 12.127 0 6.647.128 12.808.291 13.684.615 3.242 1.684 5.382 3.562 7.295 1.978 1.978 3.759 2.789 6.837 3.08 4.665.487 10.916-2.756 16.813-8.754l2.396-2.432-.549-.811c-.746-1.167-1.653-1.07-3.565.422-3.078 2.334-5.053 2.886-6.608 1.783-1.524-1.07-1.524-.746-1.684-22.665-.194-20.46-.194-20.784-.909-22.665-1.069-2.886-2.104-4.475-4.113-6.29-2.17-2.011-4.957-3.373-8.618-4.313-2.17-.519-3.919-.681-8.713-.778-3.304-.033-6.642-.033-7.451.032Z"/><path fill="#000" d="M674.36 71.302c-4.633 1.33-7.192 2.595-12.019 5.805-4.923 3.307-6.446 4.734-6.446 6.03 0 .584.065 1.136.163 1.233.097.097 1.326-.324 2.687-.908 3.661-1.589 8.132-2.27 11.533-1.783 4.925.68 9.75 3.793 10.562 6.841.226.779.292 8.528.258 21.92L681 131.159l-1.229.584c-.714.357-2.269.681-3.79.778-2.172.162-2.624.292-2.787.811-.486 1.556-.615 1.556 18.205 1.556 15.55 0 17.625-.065 18.077-.519.389-.356.423-.648.194-1.07-.257-.518-.875-.616-4.276-.745-3.951-.163-6.22-.714-6.803-1.654-.129-.227-.258-11.122-.258-24.254 0-21.368-.065-24.027-.551-25.454-.68-2.075-1.652-3.567-3.37-5.188-2.041-1.945-3.79-2.918-7.192-4.053-3.95-1.33-9.556-1.621-12.86-.648Zm-135.931 1.816c-.452 1.103.097 1.46 2.269 1.46 2.819 0 6.932.583 8.033 1.167l.874.454.195 48.799.777 1.946c1.038 2.594 4.245 5.804 7.16 7.231 4.762 2.335 11.597 3.113 16.199 1.881 4.308-1.168 11.499-5.091 16.359-9.015 1.62-1.297 1.749-1.491 1.78-2.788 0-.746-.063-1.362-.128-1.362-.066 0-.972.357-1.976.843-5.022 2.205-11.404 2.659-15.549 1.103-2.819-1.071-5.314-2.821-6.351-4.508l-.938-1.459V72.632h-14.255c-12.374 0-14.286.065-14.449.486Z"/><path fill="#000" d="M582.163 73.118c-.452 1.135.065 1.362 3.824 1.557 2.201.13 4.436.454 5.474.778l1.749.584.097 30.771c.066 24.351.163 30.707.486 30.577.195-.065 6.512-1.621 13.995-3.47 7.483-1.815 13.703-3.501 13.866-3.696.129-.195.194-.649.16-1.005-.063-.519-.42-.681-1.652-.876-3.95-.551-7.029-2.14-8.552-4.442l-.744-1.102V72.632h-14.254c-12.375 0-14.287.065-14.449.486ZM130.866 197.631c-5.184 1.394-8.391 4.928-8.747 9.663-.357 4.442 1.749 7.976 5.96 9.986 1.134.552 4.342 1.557 7.16 2.27 6.252 1.621 8.617 2.789 9.718 4.864.616 1.167.745 1.751.584 3.178-.227 2.302-1.296 3.858-3.467 5.058-1.49.811-2.203.973-4.697 1.07-4.859.227-8.358-.908-12.213-3.923l-1.911-1.492-1.005 1.2a75.83 75.83 0 0 0-1.425 1.718c-.389.454-.194.714 1.587 2.043 4.6 3.437 9.265 4.896 14.805 4.669 2.106-.097 4.049-.389 5.054-.713 5.41-1.913 8.228-5.966 7.872-11.349-.357-5.48-3.888-8.333-13.056-10.538-5.183-1.265-8.584-2.821-9.556-4.41-1.911-3.08-.713-6.841 2.721-8.69 1.166-.616 1.814-.713 5.054-.713 4.243.032 6.025.551 9.297 2.756l1.847 1.232 1.231-1.654c.68-.907 1.231-1.751 1.231-1.88 0-.357-3.337-2.497-5.086-3.243-3.564-1.556-9.46-2.042-12.958-1.102Zm91.257 0c-12.764 3.113-18.951 17.509-12.893 29.928 1.36 2.789 5.15 6.647 7.936 8.106 5.864 3.081 13.833 3.081 19.567.033 1.069-.584 2.818-1.848 3.887-2.854l1.977-1.815-1.458-1.395-1.425-1.394-2.171 1.654c-2.689 2.01-4.147 2.788-6.576 3.404-6.479 1.686-13.088-.875-16.684-6.452-1.717-2.691-2.559-5.577-2.592-8.95-.032-3.437.486-5.706 1.912-8.495 2.527-4.864 7.678-8.041 13.088-8.041 4.049 0 7.094 1.07 10.593 3.729l2.041 1.556 1.458-1.427c.777-.778 1.425-1.589 1.425-1.783 0-.519-3.564-3.21-5.604-4.248-3.791-1.913-10.205-2.594-14.481-1.556Zm47.136-.162c-13.154 2.659-19.923 17.444-13.703 29.928 2.59 5.123 7.288 8.787 13.054 10.149 3.336.778 8.292.487 11.499-.616 2.95-1.037 6.318-3.307 8.295-5.545 1.716-1.945 3.79-6.031 4.502-8.787.649-2.529.615-7.782-.031-10.343-.94-3.697-2.561-6.55-5.282-9.242-2.819-2.853-5.28-4.28-8.973-5.22-2.592-.681-6.869-.811-9.361-.324Zm7.352 4.247c5.734 1.233 10.496 6.161 11.759 12.192.583 2.789.583 4.54 0 7.393-1.555 7.426-7.58 12.484-14.901 12.484-8.715 0-15.355-6.842-15.452-15.888-.066-5.189 1.62-9.371 4.956-12.452 3.759-3.502 8.553-4.799 13.638-3.729Zm215.849-4.247c-13.152 2.659-19.923 17.444-13.703 29.928 2.592 5.123 7.289 8.787 13.057 10.149 3.336.778 8.292.487 11.499-.616 2.948-1.037 6.317-3.307 8.293-5.545 1.717-1.945 3.79-6.031 4.504-8.787.647-2.529.615-7.782-.034-10.343-.938-3.697-2.558-6.55-5.279-9.242-2.819-2.853-5.28-4.28-8.973-5.22-2.592-.681-6.869-.811-9.364-.324Zm7.355 4.247c5.734 1.233 10.496 6.161 11.759 12.192.583 2.789.583 4.54 0 7.393-1.555 7.426-7.58 12.484-14.901 12.484-8.715 0-15.355-6.842-15.452-15.888-.066-5.189 1.618-9.371 4.956-12.452 3.756-3.502 8.552-4.799 13.638-3.729Zm-334.708 35.635h29.188l-.194-4.053-12.213-.097-12.245-.065v-13.618l10.787-.065 10.755-.098.195-4.052h-21.737v-13.295h24.296v-4.215h-28.832v39.558Zm143.512 0h4.534l.065-16.05.097-16.083 25.269 32.101 1.878.032h1.846v-39.558h-4.533l-.066 15.596-.097 15.597-24.557-31.193h-4.436v39.558Zm50.536.065 9.33-.129c8.616-.13 9.459-.195 11.565-.876 3.499-1.135 5.96-2.594 8.293-4.896 3.758-3.729 5.442-7.523 5.702-12.97.292-5.804-1.263-10.246-4.956-14.235-2.333-2.496-5.12-4.247-8.716-5.447-2.526-.843-2.818-.875-11.888-1.005l-9.33-.13v39.688Zm17.688-35.051c6.478 1.167 11.597 6.485 12.406 12.873.875 6.809-2.073 12.905-7.678 15.888-2.947 1.589-5.474 2.01-12.114 2.01h-5.768v-31.128h5.605c3.079 0 6.48.162 7.549.357Zm54.876 34.986h4.536v-15.239h11.339l11.403 15.239h2.752c2.107 0 2.658-.097 2.496-.388-.129-.228-2.85-3.859-5.994-8.074l-5.734-7.653 1.815-.519c5.928-1.686 9.07-5.998 8.746-11.932-.323-5.383-3.53-8.949-9.492-10.506-1.521-.389-3.951-.486-11.888-.486h-9.979v39.558Zm22.29-34.402c6.445 2.885 5.894 11.673-.875 14.169-1.2.454-3.013.584-9.17.714l-7.709.129v-16.018l8.035.13c7.612.097 8.098.13 9.719.876Zm77.165 7.554c0 9.923.129 13.23.486 14.981 1.684 7.977 7.515 12.516 16.036 12.516 8.486-.032 13.897-4.053 15.872-11.868.584-2.302.649-3.631.649-15.434v-12.905h-4.536v12.646c0 8.106-.129 13.229-.357 14.332-.809 3.728-2.916 6.517-6.089 8.009-1.62.745-2.203.843-5.379.843-3.173 0-3.756-.098-5.345-.843-1.004-.454-2.333-1.33-3.013-1.881-1.521-1.362-3.044-4.475-3.465-7.166-.162-1.167-.325-7.458-.325-14.04v-11.9h-4.534v12.71Zm49.239 26.848h4.536l.066-16.05.097-16.083 25.268 32.101 1.878.032h1.847v-39.558h-4.536l-.063 15.596-.097 15.597-24.557-31.193h-4.439v39.558Zm50.537.065 9.33-.129c8.617-.13 9.461-.195 11.565-.876 3.498-1.135 5.962-2.594 8.294-4.896 3.757-3.729 5.443-7.523 5.7-12.97.292-5.804-1.263-10.246-4.956-14.235-2.333-2.496-5.117-4.247-8.713-5.447-2.527-.843-2.818-.875-11.89-1.005l-9.33-.13v39.688Zm17.688-35.051c6.479 1.167 11.599 6.485 12.408 12.873.874 6.809-2.073 12.905-7.678 15.888-2.947 1.589-5.474 2.01-12.117 2.01h-5.765v-31.128h5.605c3.076 0 6.477.162 7.547.357Z"/></svg>