<svg width="870" height="238" viewBox="0 0 870 238" fill="none" xmlns="http://www.w3.org/2000/svg">
<path d="M828.757 2.33461C823.669 13.0349 825.289 25.1617 832.967 33.8841C833.939 34.9865 833.907 34.8892 832.318 31.3224C830.149 26.3614 829.597 19.1956 831.023 13.6183C832.061 9.53273 835.3 3.59894 837.761 1.32927C838.215 0.907821 838.507 0.421445 838.41 0.291826C838.312 0.129619 836.369 0 834.068 0H829.889L828.757 2.33461Z" fill="black"/>
<path d="M817.223 4.24752C815.894 4.9608 814.307 5.93355 813.693 6.38758L812.624 7.23071L812.85 9.82456C813.693 19.6494 819.198 28.1772 827.622 32.7168C830.02 34.0138 832.773 35.1487 832.999 34.9216C833.064 34.8569 832.352 34.2732 831.412 33.657C825.938 30.0255 821.434 23.1513 819.976 16.18C819.393 13.3591 819.361 7.65216 819.944 4.92845C820.236 3.53425 820.236 2.91802 820.01 2.91802C819.815 2.91802 818.552 3.53425 817.223 4.24752ZM845.536 4.50701C842.717 6.48486 839.284 10.149 837.566 13.0346C834.068 18.9037 832.676 26.2641 833.842 32.425L834.262 34.5325L834.651 31.5495C835.591 24.3835 838.344 19.001 843.56 14.04C846.379 11.381 849.846 9.20856 853.15 8.10619C854.414 7.65216 855.449 7.19813 855.449 7.06851C855.449 6.48486 849.36 2.91826 848.322 2.91826C848.031 2.91826 846.768 3.63153 845.536 4.50701Z" fill="black"/>
<path d="M804.135 16.4719C803.357 17.6715 802.385 19.3575 801.965 20.2007L801.219 21.7247L802.774 23.9944C804.815 26.9776 809.091 30.9659 812.072 32.6519C817.289 35.6025 823.766 36.9969 829.274 36.316C832.967 35.862 834.036 35.3756 831.315 35.3433C830.246 35.3433 828.173 35.0514 826.682 34.6947C817.289 32.425 809.383 25.1617 806.404 15.9529C806.078 15.0451 805.755 14.2669 805.69 14.2669C805.626 14.2669 804.912 15.272 804.135 16.4719ZM856.26 14.8182C852.922 15.5315 849.423 16.9582 846.67 18.7741C843.755 20.687 839.447 25.0968 837.892 27.7558C836.692 29.8309 834.911 34.0138 835.137 34.2407C835.202 34.3056 835.688 33.7543 836.174 33.0087C837.535 30.9659 840.742 27.6909 843.009 26.0695C849.586 21.368 858.559 19.6494 866.399 21.6275L867.145 21.7894L866.625 20.5574C866.367 19.8439 865.427 18.1579 864.618 16.7637L863.095 14.2669L860.828 14.2992C859.564 14.2992 857.524 14.5264 856.26 14.8182Z" fill="black"/>
<path d="M848.971 27.8854C844.272 28.8905 838.701 31.6792 836.337 34.2083L835.526 35.0514L837.795 34.0461C844.987 30.8037 853.959 30.8686 861.119 34.176C863.775 35.4082 865.913 36.7698 868.083 38.6506C869.866 40.2394 869.963 40.0772 869.995 35.2783C870.026 31.355 869.995 31.29 867.371 30.0578C861.571 27.3341 855.028 26.5559 848.971 27.8854ZM798.629 32.9437C798.369 34.8569 798.369 37.8724 798.629 39.1693C798.789 40.0125 799.178 40.3366 801.187 41.3094C804.686 43.028 807.796 43.8062 811.943 44.0008C817.709 44.2926 822.537 43.2226 827.233 40.6608C829.08 39.6234 833.421 36.478 833.421 36.1538C833.421 36.0889 832.352 36.5106 831.089 37.1266C827.07 39.0397 824.155 39.6557 819.167 39.6557C814.179 39.6557 811.521 39.0721 807.342 37.1589C804.718 35.9593 801.413 33.7219 800.087 32.2951C799.632 31.8414 799.178 31.4523 799.081 31.4523C798.952 31.4523 798.758 32.1332 798.629 32.9437Z" fill="black"/>
<path d="M839.253 35.0514C837.924 35.1811 836.466 35.4405 836.012 35.6351C835.3 35.8946 835.428 35.9593 836.92 35.9593C842.491 36.0242 849.034 38.7479 854.056 43.028C857.264 45.7841 860.665 50.9722 862.188 55.4469L862.803 57.1979L863.841 55.7711C864.424 54.9605 865.427 53.2743 866.076 51.9773L867.242 49.6427L865.719 47.3731C863.709 44.4548 859.693 40.6611 856.843 38.9425C851.627 35.8296 845.147 34.4029 839.253 35.0514ZM0.669088 36.2511C0.0859737 36.6402 -0.0760834 37.5157 0.312659 38.0344C0.571902 38.3588 1.9325 38.5857 4.75089 38.8452C9.09193 39.2017 11.5862 39.8503 12.785 40.9526L13.4976 41.6012V84.986C13.4976 108.851 13.4004 128.598 13.3032 128.889C12.785 130.187 9.22143 131.224 3.87621 131.549C0.150845 131.775 -0.399955 132.1 0.215474 133.721L0.539588 134.564H45.9253L46.1843 133.818C46.3464 133.429 46.3464 132.813 46.2169 132.456C46.0225 131.905 45.6012 131.775 42.88 131.613C38.2799 131.289 35.4292 130.511 34.101 129.214C33.6473 128.728 33.5827 124.545 33.5827 85.1156V41.5363L34.2953 40.8554C35.5587 39.6881 41.0011 38.5857 45.5689 38.5857C46.573 38.5857 47.5449 38.4235 47.7718 38.1966C48.3549 37.6129 48.2252 36.7051 47.5449 36.316C46.8 35.9269 1.2522 35.862 0.669088 36.2511Z" fill="black"/>
<path d="M59.5313 36.5753C59.3369 36.8997 59.272 37.4833 59.3692 37.8398C59.5313 38.4235 59.8875 38.5208 62.5115 38.683C68.7314 39.1044 72.7809 41.439 72.7809 44.6491C72.7809 45.2004 72.1654 46.8541 71.4203 48.3456C70.1245 50.8747 68.9583 52.1393 52.469 69.357L34.8784 87.7097V92.5735L43.8518 83.5918L50.752 95.5567C64.0665 118.481 68.2454 125.874 68.4398 126.62C68.537 127.041 68.4398 127.917 68.2454 128.598C67.9216 129.57 67.5328 129.895 66.1399 130.543C65.1681 130.997 63.451 131.419 62.2525 131.549C60.4383 131.71 60.0495 131.873 59.758 132.456C59.5313 132.975 59.5313 133.397 59.7903 133.883L60.179 134.564L82.9205 134.499L105.662 134.402V131.873L102.163 131.257C97.9519 130.576 96.1377 129.83 95.0687 128.371C93.9673 126.912 57.9438 70.5569 57.7171 69.9407C57.4578 69.3247 82.4345 44.8762 84.9614 43.2549C88.6221 40.9203 93.6435 39.1693 97.9843 38.7153C100.187 38.4561 100.77 37.9697 100.284 36.7051L100.025 35.9916H79.9403C60.7621 35.9916 59.8228 36.0242 59.5313 36.5753ZM206.314 39.6881C196.822 42.0227 192.805 43.1576 192.611 43.5144C192.06 44.5195 192.611 44.9735 194.878 45.3626C197.535 45.849 200.58 47.2109 201.779 48.5078C203.593 50.4533 203.658 50.9396 203.658 62.4181C203.658 68.741 203.528 72.9562 203.366 72.9562C203.172 72.9562 201.843 72.6644 200.386 72.3079C198.928 71.9835 195.85 71.4324 193.518 71.1406C189.954 70.6865 188.723 70.6542 185.29 70.9784C164.427 72.9562 151.793 86.7046 151.825 107.457C151.825 116.503 154.579 123.766 160.054 129.246C165.237 134.434 172.137 137.223 179.847 137.19C187.136 137.19 194.295 134.11 200.191 128.468L202.362 126.36V121.886L201.325 123.086C199.317 125.355 196.693 126.555 192.514 127.106C184.706 128.144 177.255 123.831 173.465 116.082C172.623 114.395 171.716 112.126 171.457 111.056C170.226 106.224 170.064 99.5124 170.971 92.768C172.169 84.0456 175.668 77.8526 180.819 75.3881C182.568 74.5452 183.151 74.4153 186.682 74.3181C189.566 74.2208 191.153 74.3181 192.676 74.7072C197.211 75.8745 200.677 78.3063 202.653 81.7759L203.658 83.4945V110.31C203.658 131.581 203.755 137.158 204.079 137.158C204.273 137.158 210.299 136.282 217.425 135.18C225.654 133.915 230.545 133.008 230.87 132.748C231.744 131.905 230.87 131.192 228.569 130.932C225.848 130.608 222.706 129.084 221.637 127.495L220.827 126.296V81.3219C220.827 38.6506 220.795 36.316 220.276 36.3484C219.952 36.3807 213.668 37.8724 206.314 39.6881ZM767.982 39.7207L754.538 43.0604V43.9684C754.538 44.8439 754.667 44.9412 756.353 45.2653C760.79 46.1408 763.608 47.7622 764.711 50.0318C765.358 51.3613 765.392 51.945 765.392 62.1912C765.392 68.5465 765.26 72.9565 765.1 72.9565C764.937 72.9565 763.577 72.6646 762.087 72.3079C754.764 70.5893 748.999 70.3947 742.13 71.7242C724.442 75.0639 713.558 88.6501 713.558 107.359C713.558 123.669 723.699 135.601 738.923 137.158C747.055 138.001 755.931 134.531 762.573 127.917C764.094 126.393 764.094 126.361 764.094 124.253V122.145L762.962 123.312C760.79 125.55 757.745 126.814 753.535 127.268C747.249 127.884 740.575 124.48 736.722 118.676C733.06 113.163 731.765 106.841 732.348 97.4372C733.126 85.505 736.462 78.3713 742.65 75.453C744.594 74.5452 745.208 74.4156 748.318 74.3183C752.626 74.1561 755.09 74.6101 758.2 76.0693C760.921 77.3662 763.545 79.8304 764.677 82.1003L765.392 83.5595V110.375C765.392 135.666 765.423 137.158 765.975 137.158C767.398 137.158 792.181 133.137 792.538 132.845C792.764 132.651 792.927 132.197 792.861 131.84C792.764 131.257 792.472 131.127 790.594 130.933C789.331 130.803 787.679 130.381 786.707 129.895C784.763 128.987 784.309 128.63 783.274 127.301L782.559 126.361V81.3545C782.559 38.6506 782.528 36.316 782.01 36.3484C781.685 36.381 775.368 37.8724 767.982 39.7207ZM835.365 36.4133C835.365 36.4782 836.174 37.0942 837.146 37.7428C842.46 41.2447 846.736 47.6323 848.354 54.3769C849.166 57.6842 849.294 63.2613 848.68 66.2445C848.451 67.2819 848.354 68.2223 848.451 68.3196C848.646 68.5141 852.081 66.8281 854.219 65.4663C855.74 64.4609 855.774 64.4286 855.774 62.7425C855.774 60.4079 855.028 56.7762 853.991 53.8256C851.498 46.9514 846.379 41.2771 839.802 38.1319C836.855 36.7051 835.365 36.1538 835.365 36.4133ZM832.287 38.4884C830.603 41.0825 827.104 44.3899 824.189 46.2055C819.101 49.3832 813.659 50.7774 807.667 50.4856C805.724 50.356 803.551 50.1291 802.871 49.9346C802.159 49.74 801.545 49.6101 801.479 49.6751C801.253 49.9346 804.103 55.1874 805.075 56.2898L806.047 57.3922L808.994 57.068C818.486 56.0629 826.844 50.5829 831.283 42.4444C832.287 40.5961 833.873 36.6402 833.616 36.6402C833.55 36.6402 832.967 37.4833 832.287 38.4884Z" fill="black"/>
<path d="M834.716 36.932C834.716 37.1266 834.845 37.3211 835.008 37.4507C835.171 37.548 835.786 38.8128 836.337 40.272C840.224 50.3237 838.312 61.3481 831.283 69.5842L829.857 71.2378L832.19 71.4C833.485 71.4973 835.494 71.4973 836.629 71.4L838.67 71.2378L839.933 68.6114C844.564 58.8839 843.366 47.6649 836.757 38.9748C834.976 36.6402 834.716 36.3807 834.716 36.932Z" fill="black"/>
<path d="M833.842 39.9475C832.967 47.4054 829.209 54.1497 823.443 58.754C821.013 60.6995 815.96 63.3585 814.082 63.7476C813.498 63.8773 813.012 64.0718 813.012 64.234C813.012 64.5905 815.345 66.1795 817.969 67.5737C820.17 68.741 820.204 68.741 821.176 68.1897C823.12 67.0224 826.487 64.1367 828.173 62.1586C832.999 56.5493 835.3 49.8373 834.942 42.509C834.685 36.9969 834.296 36.1538 833.842 39.9475ZM125.358 38.618C121.827 39.299 118.782 41.6012 117.26 44.714C116.482 46.3028 116.352 46.919 116.352 49.4482C116.352 52.107 116.45 52.5933 117.421 54.5388C118.62 56.9707 120.272 58.5595 122.864 59.7268C125.326 60.8617 129.311 60.7968 131.902 59.5648C138.64 56.4194 140.39 47.6972 135.401 42.1525C133.651 40.207 131.643 39.1044 128.986 38.618C127.95 38.4235 127.01 38.2615 126.913 38.2939C126.816 38.3262 126.103 38.4561 125.358 38.618ZM258.082 69.2923C255.75 69.5516 251.7 70.4596 249.496 71.2378C242.921 73.5724 238.547 78.0471 237.187 83.6891C234.53 94.973 241.916 104.214 256.785 108.202C264.885 110.375 272.174 114.947 273.858 118.935C274.181 119.681 274.375 120.978 274.344 122.34C274.278 127.43 271.04 130.932 265.24 132.164C256.948 133.915 249.659 130.835 244.54 123.41C242.921 121.075 239.616 114.882 239.616 114.169C239.616 113.39 237.478 112.872 236.247 113.358C235.794 113.52 235.729 114.655 235.729 122.567V131.613L237.608 132.294C243.019 134.337 251.311 135.537 259.798 135.537C265.823 135.537 269.842 134.921 273.89 133.397C279.138 131.451 283.803 127.56 286.006 123.345C289.796 116.082 289.116 109.467 283.997 103.987C280.175 99.8691 275.056 97.0158 266.18 94.0326C254.226 90.012 250.242 86.6397 250.696 80.9328C251.182 74.8694 257.013 71.0433 264.237 72.016C270.099 72.8266 276.319 78.3389 280.564 86.5101C282.15 89.5903 282.799 90.1416 284.288 89.6552C284.969 89.4607 284.969 89.2661 284.969 79.5386C284.969 70.7838 284.906 69.6814 284.483 69.8434C280.984 71.1729 278.62 71.3025 274.441 70.4271C269.03 69.2923 262.422 68.8383 258.082 69.2923ZM123.641 73.4426C114.538 75.7772 110.424 76.9771 110.132 77.3662C109.42 78.3389 110.132 78.9873 112.173 79.2144C114.83 79.4736 117.94 81.095 119.041 82.781L119.916 84.1105L120.11 129.408L119.171 130.316C118.231 131.289 117 131.646 112.627 132.197C110.78 132.424 110.521 132.554 110.424 133.202C110.165 134.921 109.647 134.888 128.986 134.888C148.424 134.888 147.938 134.921 147.484 133.137C147.322 132.424 147.063 132.327 144.957 132.132C141.491 131.808 139.807 131.386 138.478 130.478L137.247 129.7V99.8691C137.247 83.4619 137.15 70.0379 137.021 70.0705C136.859 70.0705 130.866 71.5944 123.641 73.4426ZM419.085 73.248C412.056 74.999 405.902 76.523 405.416 76.6203C404.67 76.8149 404.507 77.0418 404.507 77.7876C404.507 78.6954 404.573 78.7604 406.742 79.1171C410.727 79.7981 414.26 82.0028 415.166 84.4023C415.392 85.0183 415.523 92.7357 415.523 107.813V130.284L414.68 130.835C413.288 131.743 411.247 132.327 408.655 132.521C406.582 132.683 406.096 132.813 405.933 133.332C405.447 134.921 405.253 134.888 425.079 134.888C444.97 134.888 444.905 134.888 444.062 133.332C443.77 132.78 443.253 132.683 439.754 132.554C435.769 132.359 434.312 132.035 433.274 131.094C432.725 130.608 432.691 129.311 432.691 112.256V93.903L434.052 91.6331C437.13 86.4128 439.462 83.4296 441.892 81.6463C443.673 80.3494 444.224 80.4464 444.45 82.0354C444.839 85.0509 446.88 87.1261 450.347 88.0339C453.197 88.7474 455.855 88.6501 457.83 87.742C460.909 86.3155 462.495 83.4296 462.495 79.2791C462.495 73.0535 459.483 70.0379 453.294 70.0379C446.297 70.0705 439.268 75.907 434.246 85.9264L432.691 89.0066V79.5062C432.691 72.1457 432.594 70.0379 432.302 70.0705C432.076 70.0705 426.116 71.5297 419.085 73.248ZM494.244 70.5243C479.892 72.8915 469.719 83.3972 467.517 98.1505C465.734 109.888 469.136 121.075 476.716 128.76C481.964 134.013 488.347 136.963 496.51 137.839C502.504 138.487 509.565 137.352 514.91 134.888C526.572 129.473 533.732 116.568 533.021 102.301C532.566 93.384 529.585 85.8291 524.24 80.1546C519.835 75.518 515.138 72.7293 508.982 71.1406C504.9 70.1029 498.422 69.8111 494.244 70.5243ZM504.122 74.7397C507.232 76.1989 509.988 79.2144 511.994 83.3323C515.104 89.6552 516.11 95.8808 515.85 106.678C515.656 113.974 515.138 117.606 513.681 121.886C511.897 127.203 509.079 130.868 505.128 133.008C503.282 134.013 502.956 134.078 500.075 134.078C497.319 134.078 496.802 133.98 495.053 133.137C489.933 130.608 486.306 124.609 484.654 115.855C483.845 111.542 483.682 99.8042 484.331 94.8108C485.788 83.5918 489.967 76.5554 496.576 74.1884C498.908 73.3779 501.596 73.5724 504.122 74.7397ZM640.994 73.248C633.962 74.999 627.808 76.523 627.322 76.6203C626.576 76.8149 626.416 77.0418 626.416 77.7876C626.416 78.6954 626.479 78.7604 628.651 79.1171C632.668 79.7981 636.166 82.0354 637.138 84.5322C637.301 84.986 637.43 94.8108 637.43 108.138V130.965L636.458 131.484C635.583 131.938 632.279 132.489 629.2 132.683C627.711 132.781 627.031 133.559 627.679 134.369C628.068 134.823 630.141 134.888 646.825 134.888C666.877 134.888 666.811 134.888 665.971 133.332C665.679 132.78 665.159 132.683 661.66 132.554C657.676 132.359 656.218 132.035 655.183 131.094C654.631 130.608 654.6 128.728 654.6 100.291C654.6 76.2962 654.503 70.0379 654.211 70.0705C653.983 70.0705 648.023 71.5297 640.994 73.248ZM359.479 70.8811C350.666 71.6593 344.252 73.8643 340.885 77.2689C338.875 79.2791 337.903 81.2572 337.386 84.3051C336.574 89.0716 338.778 92.4438 343.54 93.7084C346.487 94.4866 351.023 92.4438 352.318 89.7201C353.971 86.3478 352.416 80.8681 349.534 79.7331C349.111 79.5709 348.788 79.2468 348.788 79.0199C348.788 78.4686 349.954 77.3985 351.249 76.7499C354.522 75.0963 364.112 74.7072 366.799 76.1016C368.743 77.139 370.395 79.1171 370.946 81.1273C371.27 82.2946 371.464 85.4074 371.595 90.6603L371.821 98.4749L369.294 98.8964C363.043 99.9015 354.748 102.333 349.857 104.571C338.584 109.759 333.659 118.481 336.803 127.722C339.879 136.866 348.757 139.817 358.507 134.888C361.259 133.494 365.181 130.414 367.999 127.495C370.006 125.355 370.492 124.642 370.492 123.831C370.492 122.826 370.461 122.826 369.78 123.345C366.702 125.55 362.848 126.782 358.961 126.782C352.838 126.782 349.792 123.993 349.5 118.027C349.403 115.725 349.5 114.947 350.117 113.325C351.444 109.791 355.72 106.224 361.454 103.89C363.432 103.079 370.395 101.166 371.335 101.166C371.724 101.166 371.79 103.144 371.79 113.293C371.79 119.94 371.918 126.101 372.081 126.977C372.696 130.219 373.765 132.359 375.643 134.272C377.621 136.25 379.402 137.061 382.48 137.352C387.145 137.839 393.396 134.596 399.293 128.598L401.689 126.166L401.14 125.355C400.394 124.188 399.487 124.285 397.575 125.777C394.497 128.111 392.522 128.663 390.967 127.56C389.443 126.49 389.443 126.814 389.283 104.895C389.089 84.4347 389.089 84.1105 388.374 82.2299C387.305 79.344 386.27 77.7553 384.261 75.9394C382.091 73.929 379.304 72.5671 375.643 71.6269C373.473 71.108 371.724 70.946 366.93 70.8487C363.626 70.8161 360.288 70.8161 359.479 70.8811Z" fill="black"/>
<path d="M674.36 71.3025C669.727 72.632 667.168 73.8966 662.341 77.1067C657.418 80.4141 655.895 81.8409 655.895 83.1378C655.895 83.7214 655.96 84.2727 656.058 84.37C656.155 84.4673 657.384 84.0456 658.745 83.4619C662.406 81.8732 666.877 81.1923 670.278 81.6786C675.203 82.3596 680.028 85.4724 680.84 88.5203C681.066 89.2985 681.132 97.0481 681.098 110.44L681 131.159L679.771 131.743C679.057 132.1 677.502 132.424 675.981 132.521C673.809 132.683 673.357 132.813 673.194 133.332C672.708 134.888 672.579 134.888 691.399 134.888C706.949 134.888 709.024 134.823 709.476 134.369C709.865 134.013 709.899 133.721 709.67 133.299C709.413 132.781 708.795 132.683 705.394 132.554C701.443 132.391 699.174 131.84 698.591 130.9C698.462 130.673 698.333 119.778 698.333 106.646C698.333 85.2778 698.268 82.6191 697.782 81.1923C697.102 79.1171 696.13 77.6254 694.412 76.0043C692.371 74.0588 690.622 73.0861 687.22 71.9511C683.27 70.6216 677.664 70.3298 674.36 71.3025ZM538.429 73.1184C537.977 74.2208 538.526 74.5775 540.698 74.5775C543.517 74.5775 547.63 75.1612 548.731 75.7448L549.605 76.1989L549.8 124.998L550.577 126.944C551.615 129.538 554.822 132.748 557.737 134.175C562.499 136.51 569.334 137.288 573.936 136.056C578.244 134.888 585.435 130.965 590.295 127.041C591.915 125.744 592.044 125.55 592.075 124.253C592.075 123.507 592.012 122.891 591.947 122.891C591.881 122.891 590.975 123.248 589.971 123.734C584.949 125.939 578.567 126.393 574.422 124.837C571.603 123.766 569.108 122.016 568.071 120.329L567.133 118.87V72.632H552.878C540.504 72.632 538.592 72.697 538.429 73.1184Z" fill="black"/>
<path d="M582.163 73.1184C581.711 74.2534 582.228 74.4803 585.987 74.6748C588.188 74.8044 590.423 75.1288 591.461 75.453L593.21 76.0367L593.307 106.808C593.373 131.159 593.47 137.515 593.793 137.385C593.988 137.32 600.305 135.764 607.788 133.915C615.271 132.1 621.491 130.414 621.654 130.219C621.783 130.024 621.848 129.57 621.814 129.214C621.751 128.695 621.394 128.533 620.162 128.338C616.212 127.787 613.133 126.198 611.61 123.896L610.866 122.794V72.632H596.612C584.237 72.632 582.325 72.697 582.163 73.1184ZM130.866 197.631C125.682 199.025 122.475 202.559 122.119 207.294C121.762 211.736 123.868 215.27 128.079 217.28C129.213 217.832 132.421 218.837 135.239 219.55C141.491 221.171 143.856 222.339 144.957 224.414C145.573 225.581 145.702 226.165 145.541 227.592C145.314 229.894 144.245 231.45 142.074 232.65C140.584 233.461 139.871 233.623 137.377 233.72C132.518 233.947 129.019 232.812 125.164 229.797L123.253 228.305L122.248 229.505C121.698 230.153 121.05 230.931 120.823 231.223C120.434 231.677 120.629 231.937 122.41 233.266C127.01 236.703 131.675 238.162 137.215 237.935C139.321 237.838 141.264 237.546 142.269 237.222C147.679 235.309 150.497 231.256 150.141 225.873C149.784 220.393 146.253 217.54 137.085 215.335C131.902 214.07 128.501 212.514 127.529 210.925C125.618 207.845 126.816 204.084 130.25 202.235C131.416 201.619 132.064 201.522 135.304 201.522C139.547 201.554 141.329 202.073 144.601 204.278L146.448 205.51L147.679 203.856C148.359 202.949 148.91 202.105 148.91 201.976C148.91 201.619 145.573 199.479 143.824 198.733C140.26 197.177 134.364 196.691 130.866 197.631ZM222.123 197.631C209.359 200.744 203.172 215.14 209.23 227.559C210.59 230.348 214.38 234.206 217.166 235.665C223.03 238.746 230.999 238.746 236.733 235.698C237.802 235.114 239.551 233.85 240.62 232.844L242.597 231.029L241.139 229.634L239.714 228.24L237.543 229.894C234.854 231.904 233.396 232.682 230.967 233.298C224.488 234.984 217.879 232.423 214.283 226.846C212.566 224.155 211.724 221.269 211.691 217.896C211.659 214.459 212.177 212.19 213.603 209.401C216.13 204.537 221.281 201.36 226.691 201.36C230.74 201.36 233.785 202.43 237.284 205.089L239.325 206.645L240.783 205.218C241.56 204.44 242.208 203.629 242.208 203.435C242.208 202.916 238.644 200.225 236.604 199.187C232.813 197.274 226.399 196.593 222.123 197.631ZM269.259 197.469C256.105 200.128 249.336 214.913 255.556 227.397C258.146 232.52 262.844 236.184 268.61 237.546C271.946 238.324 276.902 238.033 280.109 236.93C283.059 235.893 286.427 233.623 288.404 231.385C290.12 229.44 292.194 225.354 292.906 222.598C293.555 220.069 293.521 214.816 292.875 212.255C291.935 208.558 290.314 205.705 287.593 203.013C284.774 200.16 282.313 198.733 278.62 197.793C276.028 197.112 271.751 196.982 269.259 197.469ZM276.611 201.716C282.345 202.949 287.107 207.877 288.37 213.908C288.953 216.697 288.953 218.448 288.37 221.301C286.815 228.727 280.79 233.785 273.469 233.785C264.754 233.785 258.114 226.943 258.017 217.897C257.951 212.708 259.637 208.526 262.973 205.445C266.732 201.943 271.526 200.646 276.611 201.716ZM492.46 197.469C479.308 200.128 472.537 214.913 478.757 227.397C481.349 232.52 486.046 236.184 491.814 237.546C495.15 238.324 500.106 238.033 503.313 236.93C506.261 235.893 509.63 233.623 511.606 231.385C513.323 229.44 515.396 225.354 516.11 222.598C516.757 220.069 516.725 214.816 516.076 212.255C515.138 208.558 513.518 205.705 510.797 203.013C507.978 200.16 505.517 198.733 501.824 197.793C499.232 197.112 494.955 196.982 492.46 197.469ZM499.815 201.716C505.549 202.949 510.311 207.877 511.574 213.908C512.157 216.697 512.157 218.448 511.574 221.301C510.019 228.727 503.994 233.785 496.673 233.785C487.958 233.785 481.318 226.943 481.221 217.897C481.155 212.708 482.839 208.526 486.177 205.445C489.933 201.943 494.729 200.646 499.815 201.716ZM165.107 237.351H194.295L194.101 233.298L181.888 233.201L169.643 233.136V219.518L180.43 219.453L191.185 219.355L191.38 215.303H169.643V202.008H193.939V197.793H165.107V237.351ZM308.619 237.351H313.153L313.218 221.301L313.315 205.218L338.584 237.319L340.462 237.351H342.308V197.793H337.775L337.709 213.389L337.612 228.986L313.055 197.793H308.619V237.351ZM359.155 237.416L368.485 237.287C377.101 237.157 377.944 237.092 380.05 236.411C383.549 235.276 386.01 233.817 388.343 231.515C392.101 227.786 393.785 223.992 394.045 218.545C394.337 212.741 392.782 208.299 389.089 204.31C386.756 201.814 383.969 200.063 380.373 198.863C377.847 198.02 377.555 197.988 368.485 197.858L359.155 197.728V237.416ZM376.843 202.365C383.321 203.532 388.44 208.85 389.249 215.238C390.124 222.047 387.176 228.143 381.571 231.126C378.624 232.715 376.097 233.136 369.457 233.136H363.689V202.008H369.294C372.373 202.008 375.774 202.17 376.843 202.365ZM431.719 237.351H436.255V222.112H447.594L458.997 237.351H461.749C463.856 237.351 464.407 237.254 464.245 236.963C464.116 236.735 461.395 233.104 458.251 228.889L452.517 221.236L454.332 220.717C460.26 219.031 463.402 214.719 463.078 208.785C462.755 203.402 459.548 199.836 453.586 198.279C452.065 197.89 449.635 197.793 441.698 197.793H431.719V237.351ZM454.009 202.949C460.454 205.834 459.903 214.622 453.134 217.118C451.934 217.572 450.121 217.702 443.964 217.832L436.255 217.961V201.943L444.29 202.073C451.902 202.17 452.388 202.203 454.009 202.949ZM531.174 210.503C531.174 220.426 531.303 223.733 531.66 225.484C533.344 233.461 539.175 238 547.696 238C556.182 237.968 561.593 233.947 563.568 226.132C564.152 223.83 564.217 222.501 564.217 210.698V197.793H559.681V210.439C559.681 218.545 559.552 223.668 559.324 224.771C558.515 228.499 556.408 231.288 553.235 232.78C551.615 233.525 551.032 233.623 547.856 233.623C544.683 233.623 544.1 233.525 542.511 232.78C541.507 232.326 540.178 231.45 539.498 230.899C537.977 229.537 536.454 226.424 536.033 223.733C535.871 222.566 535.708 216.275 535.708 209.693V197.793H531.174V210.503ZM580.413 237.351H584.949L585.015 221.301L585.112 205.218L610.38 237.319L612.258 237.351H614.105V197.793H609.569L609.506 213.389L609.409 228.986L584.852 197.793H580.413V237.351ZM630.95 237.416L640.28 237.287C648.897 237.157 649.741 237.092 651.845 236.411C655.343 235.276 657.807 233.817 660.139 231.515C663.896 227.786 665.582 223.992 665.839 218.545C666.131 212.741 664.576 208.299 660.883 204.31C658.55 201.814 655.766 200.063 652.17 198.863C649.643 198.02 649.352 197.988 640.28 197.858L630.95 197.728V237.416ZM648.638 202.365C655.117 203.532 660.237 208.85 661.046 215.238C661.92 222.047 658.973 228.143 653.368 231.126C650.421 232.715 647.894 233.136 641.251 233.136H635.486V202.008H641.091C644.167 202.008 647.568 202.17 648.638 202.365Z" fill="black"/>
</svg>
