<svg width="297" height="143" viewBox="0 0 297 143" fill="none" xmlns="http://www.w3.org/2000/svg">
<path fill-rule="evenodd" clip-rule="evenodd" d="M192.314 52.3045C190.91 50.4331 190.667 47.1242 187.817 46.8302C185.052 46.083 182.299 45.2863 179.508 44.6395C174.042 45.5293 168.576 46.4191 163.11 47.3089C162.469 50.255 161.829 53.2011 161.188 56.1472C170.027 57.3 178.865 58.4528 187.703 59.6056C190.009 61.1427 192.314 62.6798 194.62 64.2169C200.64 64.8573 206.661 65.4978 212.681 66.1382C215.499 65.1135 218.317 64.0888 221.135 63.0641C212.373 60.2365 203.4 57.9834 194.885 54.4622C193.838 53.98 193.111 53.0985 192.314 52.3045Z" fill="#DB0026"/>
<path d="M224.528 62.6816C223.936 61.9098 222.982 61.6009 222.322 61.3048C221.676 60.9998 221.769 60.3701 221.229 60.1875C220.676 60.0098 219.71 61.136 218.959 60.9021C218.209 60.6563 218.264 59.2548 217.637 59.0475C216.996 58.8452 215.88 59.8963 215.297 59.7098C214.71 59.539 214.595 58.0664 214.029 57.8789C213.468 57.7081 212.278 58.7553 211.698 58.5757C211.114 58.3793 211.077 56.9452 210.429 56.732C209.785 56.5346 208.652 57.6065 208.089 57.413C207.508 57.2334 207.451 55.8022 206.834 55.594C206.209 55.3956 205.063 56.4468 204.487 56.2573C203.892 56.0658 203.731 54.5952 203.19 54.4175C202.637 54.2487 201.558 55.1163 200.681 55.0659C194.592 54.4984 192.263 50.6679 191.848 51.801C191.441 52.9113 193.117 55.6127 195.224 56.5247C196.903 57.2551 215.041 62.276 215.516 62.5C215.979 62.729 217.125 63.2393 216.717 63.9006C216.086 64.7464 214.315 63.9094 213.864 63.5363C213.408 63.1573 213.512 63.0192 213.084 62.9047C212.111 62.6737 211.572 64.4454 210.545 64.2085C209.609 63.9983 209.674 62.118 208.724 61.8989C207.676 61.6443 207.201 63.4268 206.203 63.1939C205.375 63.0073 205.261 61.0925 204.373 60.8784C203.353 60.6316 202.89 62.4181 201.827 62.1703C200.913 61.9562 200.964 60.0888 200.008 59.8588C199.052 59.6328 198.386 61.364 197.484 61.1597C196.579 60.9494 196.446 59.0416 195.643 58.8511C194.821 58.6685 194.173 59.6387 193.069 59.7828C193.069 59.7828 189.896 60.6405 184.88 55.4005C179.853 50.1714 177.792 49.1548 174.932 51.2858C170.261 54.7639 167.361 52.4642 166.516 51.4299C165.5 50.2445 166.563 49.1548 166.563 49.1548C166.563 49.1548 168.047 51.4447 169.914 51.4861C172.922 51.5759 175.192 47.47 180.348 47.397C186.88 47.1621 188.582 49.4825 190.368 49.6671C192.022 49.829 192.574 49.5625 193.718 48.8982H193.712C194.637 48.5686 195.443 50.358 196.413 49.9967C197.438 49.6098 196.688 47.8066 197.793 47.3911C198.825 47.0219 199.499 48.8341 200.487 48.4659C201.527 48.0869 200.864 46.2333 201.862 45.8721C202.89 45.501 203.49 47.3318 204.556 46.941C205.627 46.56 204.935 44.7252 205.91 44.3561C206.916 43.9889 207.643 45.7911 208.631 45.4398C209.567 45.1052 209.032 43.1865 210.006 42.8371C211.018 42.4739 211.671 44.282 212.749 43.8862C213.635 43.5773 213.144 41.6566 214.063 41.3082C214.981 40.9657 215.834 42.7463 216.789 42.389C217.686 42.0583 217.162 40.1495 218.115 39.7922C219.125 39.428 219.903 41.2085 220.858 40.8729C221.802 40.5334 221.086 38.9937 222.318 38.3818C222.318 38.3818 224.023 37.8212 223.916 36.5696C223.902 36.3594 223.549 33.6837 220.74 33.1161C218.039 32.5733 196.707 38.4736 196.431 38.133C194.468 34.2542 191.952 35.332 191.569 35.4188C191.178 35.5175 188.796 36.5312 186.159 35.5175C180.978 33.1734 176.843 39.1358 174.005 38.3512C171.393 37.6168 169.395 38.0403 168.299 38.4134C167.297 38.7608 165.671 40.0666 162.224 38.8812C135.589 29.787 114.773 37.7373 114.773 37.7373C103.035 41.6586 101.534 37.7373 101.534 37.7373C101.534 37.7373 97.6709 32.4904 124.868 26.2318C163.959 17.2522 165.137 2.39195 164.674 1.45233C164.033 0.0892851 163.788 1.69513 162.501 3.17266C161.42 4.40048 160.165 3.79348 160.165 3.79348C158.935 3.20326 158.148 4.60775 158.148 4.60775C158.148 4.60775 156.566 7.0634 155.166 5.6668C153.822 4.32251 152.037 7.35654 151.369 7.47695C150.571 7.61809 150.181 7.22823 149.109 6.73572C147.503 6.02607 145.78 8.95152 144.898 9.15879C143.546 9.46772 142.598 7.56677 141.436 8.36919C137.963 10.7676 137.416 11.1012 136.481 10.1675C135.79 9.4618 135.688 8.69589 133.368 10.9176C131.393 12.8117 130.447 13.166 129.654 11.9619C128.838 10.7498 129.048 9.09562 125.655 12.3517C124.036 13.9072 123.206 13.9368 122.279 13.238C121.58 12.713 121.585 10.209 119.151 12.4761C116.945 14.5172 115.343 15.4114 114.718 13.5993C114.028 11.5631 111.429 13.9743 110.828 14.5419C110.204 15.1094 108.867 16.6106 107.931 15.061C106.995 13.5026 104.753 15.8289 103.419 17.3055C102.391 18.4523 101.559 17.567 100.474 16.8396C99.2402 15.9937 95.5479 21.1478 95.2133 21.4568C94.8757 21.7499 94.6181 21.4568 93.7723 20.7392C92.4724 19.6377 88.9656 25.7611 88.3981 26.1608C88.3981 26.1608 88.1582 26.6888 87.2018 25.7759C85.8408 24.4819 78.6189 33.9896 75.8928 44.7469C72.4058 58.5372 77.9616 69.1119 77.9616 69.1119C77.9616 69.1119 79.6306 69.1632 80.3412 68.0351L81.423 65.5972C82.2994 63.565 83.7365 64.2045 83.7365 64.2045L80.3314 74.343C79.7934 75.6784 80.1182 77.5675 81.3085 79.353C82.4297 81.1473 83.2025 82.3603 84.1017 83.1944C86.8663 85.798 86.584 82.7186 86.656 82.3337C86.9798 80.6854 88.8047 81.9517 90.2388 82.7413C92.8396 84.2011 92.5504 80.9776 93.1208 79.9264C93.5166 79.1733 94.7958 79.1398 96.1835 80.3025C97.2642 81.2056 98.3381 78.1459 98.3381 78.1459C99.6863 71.6267 96.5191 70.8727 94.8056 70.7769L91.3373 70.618C91.3373 70.618 91.5653 69.6261 91.9266 68.6973L92.0815 68.039C95.8637 58.6142 89.543 56.7952 87.6519 56.9452C85.5654 57.1317 85.7115 55.8022 85.7115 55.8022C85.7115 55.8022 97.1359 53.5529 95.006 65.6683C95.006 65.6683 94.5855 67.7785 94.3329 68.879L97.4725 69.2451C100.174 69.5827 100.654 72.7786 100.654 72.7786C100.654 72.7786 110.591 75.405 116.226 74.3548C116.226 74.3548 118.745 73.7547 119.445 72.1874C119.445 72.1874 123.095 63.5877 133.751 63.2245C133.751 63.2245 134.126 64.3378 132.423 64.9171C130.382 65.6051 123.581 66.145 122.167 73.958V73.9886C122.013 75.2707 122.357 78.0008 125.138 79.2651C127.507 80.334 128.342 84.6482 128.833 85.8129C130.213 89.1203 132.279 85.9589 132.279 85.9589C132.279 85.9589 133.588 83.2901 134.711 84.7706C136.609 87.2677 137.49 86.0093 137.922 84.4192C138.393 82.7028 139.08 81.9547 141.067 84.0412C141.916 84.9472 143.582 84.2475 143.748 82.6969C144.099 79.2839 146.405 81.9981 146.734 82.1294C147.129 82.2794 149.543 81.7365 148.192 77.8873C148.192 77.8873 146.367 74.2196 138.14 72.6374C136.209 72.2713 136.516 70.8737 136.516 70.8737L138.328 71.1283C138.869 71.2162 143.654 71.7472 144.163 71.8281C164.234 73.809 179.462 67.0007 179.92 66.5151C195.511 69.5027 216.711 68.4842 220.69 67.05C224.69 65.6406 224.988 63.3044 224.528 62.6816ZM192.338 37.8024C192.663 37.2773 192.971 36.9802 193.255 36.8371C194.465 36.1492 195.236 38.3028 195.089 38.3818C195.082 38.3857 195.055 38.3946 195.043 38.3995C195.041 38.4025 195.041 38.4104 195.039 38.4134C194.849 38.5051 192.514 39.1674 192.284 39.0154C191.822 38.6946 192.338 37.8024 192.338 37.8024ZM183.473 38.4834C183.473 38.4834 183.774 38.1034 184.358 37.91C184.933 37.7007 185.803 37.6652 186.955 38.4074C188.279 39.2493 188.246 39.9067 188.246 39.9067C188.202 39.9284 188.143 39.9501 188.077 39.9738C187.116 40.3449 183.177 40.8285 183.177 40.8285C182.411 39.4171 183.473 38.4834 183.473 38.4834ZM109.994 19.4196C110.656 19.9299 110.021 22.8682 109.549 22.4349L106.147 20.6356C106.147 20.6356 109.315 18.9241 109.994 19.4196ZM104.46 21.2959C105.13 21.7943 104.503 24.7395 104.028 24.3013L100.636 22.498C100.636 22.498 103.788 20.7856 104.46 21.2959ZM102.547 27.0412C103.219 27.5436 102.588 30.4937 102.108 30.0673L98.7102 28.2424C98.7102 28.2424 101.871 26.5428 102.547 27.0412ZM99.3083 34.7555L95.9061 32.9484C95.9061 32.9484 99.0705 31.2339 99.7416 31.7383C100.422 32.2407 99.7722 35.1888 99.3083 34.7555ZM98.6678 40.5739L95.2755 38.7667C95.2755 38.7667 98.4329 37.0602 99.106 37.5537C99.7781 38.0511 99.1514 40.9874 98.6678 40.5739ZM98.6056 23.3439C99.2807 23.8453 98.6441 26.7777 98.1693 26.3602L94.7652 24.547C94.7652 24.547 97.9354 22.8356 98.6056 23.3439ZM95.6545 27.8229C96.3207 28.3233 95.69 31.2566 95.2202 30.8391L91.8229 29.032C91.8229 29.032 94.9823 27.3146 95.6545 27.8229ZM89.5904 34.8503C89.5904 34.8503 92.7606 33.13 93.4239 33.6393C94.0999 34.1377 93.4633 37.076 92.9886 36.6506L89.5904 34.8503ZM92.195 42.2103L88.8037 40.3962C88.8037 40.3962 91.967 38.6946 92.6343 39.197C93.3094 39.6964 92.6767 42.6328 92.195 42.2103ZM89.7769 29.863C90.4461 30.3526 89.8134 33.2968 89.3387 32.8714L85.9523 31.0583C85.9523 31.0583 89.0978 29.3567 89.7769 29.863ZM86.7202 35.7889C87.3933 36.2874 86.7626 39.2434 86.277 38.8082L82.8867 37.0039C82.8867 37.0039 86.049 35.3053 86.7202 35.7889ZM82.254 42.8094C82.254 42.8094 85.4154 41.1098 86.0855 41.6102C86.7636 42.1057 86.1181 45.0529 85.6522 44.6255L82.254 42.8094ZM88.3152 49.4499L84.9209 47.6408C84.9209 47.6408 88.0842 45.9274 88.7564 46.4297C89.4285 46.9341 88.7869 49.8704 88.3152 49.4499ZM93.184 53.394L89.7887 51.5927C89.7887 51.5927 92.954 49.8793 93.6252 50.3767C94.2914 50.8702 93.6489 53.8292 93.184 53.394ZM94.706 47.2371L91.3087 45.422C91.3087 45.422 94.473 43.7224 95.1442 44.209C95.8163 44.7124 95.1797 47.6506 94.706 47.2371ZM99.2225 56.051L95.8331 54.2448C95.8331 54.2448 98.9787 52.5353 99.6577 53.0367C100.328 53.541 99.7041 56.4655 99.2225 56.051ZM100.853 50.3797L97.4607 48.5735C97.4607 48.5735 100.618 46.8739 101.287 47.3753C101.958 47.8698 101.334 50.813 100.853 50.3797ZM101.976 45.0193L98.5839 43.2092C98.5839 43.2092 101.741 41.5096 102.419 42.009C103.092 42.5143 102.45 45.4418 101.976 45.0193ZM106.749 55.366L103.356 53.548C103.356 53.548 106.514 51.8513 107.191 52.3438C107.871 52.8442 107.228 55.7953 106.749 55.366ZM108.219 49.7194L104.828 47.9161C104.828 47.9161 107.991 46.1978 108.663 46.7061C109.324 47.1917 108.688 50.1408 108.219 49.7194ZM109.45 43.7372L106.056 41.929C106.056 41.929 109.216 40.2344 109.894 40.7259C110.561 41.2283 109.924 44.1636 109.45 43.7372ZM114.217 54.3069L110.813 52.4998C110.813 52.4998 113.977 50.7883 114.655 51.2867C115.321 51.801 114.679 54.7422 114.217 54.3069ZM115.357 48.2665L111.965 46.4505C111.965 46.4505 115.129 44.7459 115.798 45.2414C116.471 45.7487 115.834 48.6751 115.357 48.2665ZM116.54 42.0652L113.147 40.2551C113.147 40.2551 116.305 38.5525 116.98 39.048C117.651 39.5612 117.017 42.4916 116.54 42.0652ZM121.649 51.9194L118.252 50.128C118.252 50.128 121.415 48.4175 122.078 48.915C122.76 49.4134 122.124 52.3488 121.649 51.9194ZM122.578 45.9698L119.176 44.1715C119.176 44.1715 122.337 42.464 123.004 42.9565C123.694 43.4609 123.048 46.412 122.578 45.9698ZM123.756 40.1386L120.352 38.3413C120.352 38.3413 123.521 36.6229 124.188 37.1184C124.859 37.6257 124.224 40.5739 123.756 40.1386ZM128.956 50.662L125.56 48.8518C125.56 48.8518 128.715 47.1414 129.394 47.6418C130.073 48.1471 129.432 51.0795 128.956 50.662ZM129.883 45.1072L126.484 43.3049C126.484 43.3049 129.652 41.5826 130.318 42.0958C130.989 42.5814 130.354 45.5365 129.883 45.1072ZM131.001 39.1812L127.599 37.377C127.599 37.377 130.763 35.6508 131.441 36.165C132.112 36.6683 131.483 39.6007 131.001 39.1812ZM135.706 50.7666L132.317 48.9594C132.317 48.9594 135.476 47.243 136.147 47.7553C136.82 48.2498 136.182 51.188 135.706 50.7666ZM136.827 44.8022L133.423 42.9989C133.423 42.9989 136.592 41.2786 137.265 41.7889C137.931 42.2932 137.295 45.2266 136.827 44.8022ZM138.098 38.8654L134.7 37.0612C134.7 37.0612 137.864 35.3408 138.537 35.8531C139.216 36.3505 138.573 39.2947 138.098 38.8654ZM142.782 50.7666L139.383 48.9505C139.383 48.9505 142.543 47.244 143.215 47.7563C143.886 48.2498 143.261 51.188 142.782 50.7666ZM143.868 45.1328L140.479 43.3197C140.479 43.3197 143.634 41.627 144.305 42.1097C144.98 42.616 144.346 45.5622 143.868 45.1328ZM145.153 39.3678L141.767 37.5626C141.767 37.5626 144.925 35.858 145.6 36.3505C146.263 36.8509 145.628 39.7932 145.153 39.3678ZM149.433 51.6174L146.036 49.7914C146.036 49.7914 149.2 48.0987 149.871 48.6031C150.55 49.0926 149.916 52.0378 149.433 51.6174ZM150.634 46.1544L147.239 44.3531C147.239 44.3531 150.406 42.6456 151.072 43.145C151.751 43.6543 151.096 46.5877 150.634 46.1544ZM151.931 40.5739L148.527 38.7756C148.527 38.7756 151.693 37.0651 152.369 37.5537C153.038 38.0511 152.393 40.9874 151.931 40.5739ZM157.224 47.3328L153.833 45.5444C153.833 45.5444 156.99 43.83 157.668 44.3215C158.336 44.8269 157.7 47.7651 157.224 47.3328Z" fill="#004526"/>
<path d="M67.99 98.7928C67.2813 96.9106 65.934 96.0993 63.4666 96.0618C63.2415 96.0549 51.8259 96.0727 51.8259 96.0727L34.9295 142.08C34.9295 142.08 43.1483 142.08 43.1542 142.08C43.8628 142.131 44.5222 142.019 45.1143 141.753C46.7153 141.023 47.4999 139.168 47.7279 138.535C47.7279 138.551 50.0266 132.126 50.1846 131.705C51.3611 131.705 66.2785 131.699 67.1836 131.699C67.5389 132.783 70.6371 142.059 70.6371 142.059H81.7684L74.7075 119.669L67.99 98.7928ZM64.5621 122.257C62.8744 122.257 53.7733 122.259 53.108 122.259C54.3437 118.876 57.4192 110.319 58.7329 106.855C59.868 110.349 64.5325 122.143 64.5621 122.257Z" fill="black"/>
<path d="M148.089 95.7045H148.083C134.915 95.7223 125.365 105.606 125.365 119.195C125.365 132.51 135.126 142.554 148.089 142.554C161.044 142.554 171.202 132.3 171.202 119.195C171.202 106.021 161.044 95.7045 148.089 95.7045ZM148.418 132.29C141.707 132.29 136.447 126.486 136.447 119.071C136.447 111.723 141.593 106.188 148.41 106.188C155.178 106.188 160.087 111.602 160.087 119.071C160.086 126.612 155.067 132.29 148.418 132.29Z" fill="black"/>
<path d="M200.99 115.067L200.557 114.941C200.569 114.947 196.276 113.641 196.265 113.629L195.623 113.401C192.117 112.134 189.626 111.072 189.626 109.03C189.626 108.98 189.626 108.927 189.626 108.88C189.975 105.492 196.266 105.455 196.327 105.455C199.795 105.455 202.462 105.986 205.841 107.343L205.913 107.37L206.058 107.412C206.838 107.57 207.521 107.592 208.073 107.47L209.009 107.115C210.351 106.377 211.687 102.465 212.199 100.818L212.365 100.29L211.951 99.9111C211.789 99.7552 210.805 98.9448 207.226 97.6094C203.586 96.2464 198.431 96.0332 198.431 96.0332L195.888 96.0223C182.605 96.0223 177.534 104.219 177.373 109.725C177.263 115.21 180.385 118.032 185.105 120.597C187.079 121.69 190.685 122.696 193.3 123.427C193.286 123.415 196.006 124.221 196.006 124.221C200.954 125.775 202.845 127.502 202.494 130.179C202.336 131.065 200.664 132.529 196.865 132.529C193.974 132.529 191.362 132.085 188.643 131.137C187.338 130.618 185.986 129.947 184.559 129.101L184.491 129.057L184.345 128.994C183.555 128.7 182.848 128.576 182.241 128.628L181.195 128.853C179.671 129.423 177.549 133.295 176.702 134.933L176.368 135.579L176.944 136.036C177.047 136.105 179.407 137.982 181.412 139.155C183.772 140.463 186.423 141.41 189.552 142.043C190.814 142.273 192.817 142.564 195.957 142.564C206.249 142.564 213.727 137.35 214.586 129.586C214.961 122.542 210.638 117.945 200.99 115.067Z" fill="black"/>
<path d="M222.994 96.1289C222.566 96.122 220.321 96.1664 219.03 97.3607C218.436 97.9065 218.125 98.6359 218.125 99.4581L218.118 106.737C218.118 106.737 230.535 106.727 232.162 106.727C232.162 108.439 232.162 142.097 232.162 142.097L243.665 142.087C243.665 142.087 243.665 108.436 243.665 106.727C245.199 106.725 252.704 106.725 252.704 106.725C253.13 106.725 255.37 106.677 256.666 105.489C257.253 104.931 257.573 104.218 257.573 103.384V96.1289H222.994Z" fill="black"/>
<path d="M25.6656 131.685C25.6656 131.685 16.0059 131.685 12.7517 131.685C12.7517 129.989 12.7152 100.326 12.7152 100.326C12.7152 99.0238 12.3263 97.9904 11.5427 97.2679C10.2912 96.0934 8.4287 96.0993 7.73385 96.1141L0.947266 96.0993L0.965032 142.08H29.7537L29.7754 134.773C29.7754 133.837 29.3757 131.685 25.6656 131.685Z" fill="black"/>
<path d="M107.98 105.903C110.77 105.718 113.118 105.903 115.333 106.509C116.523 106.906 117.596 106.985 118.506 106.728C118.509 106.726 119.424 106.321 119.424 106.321C120.712 105.527 121.634 101.485 122.069 99.156L122.169 98.6102L121.7 98.2727C121.583 98.1868 121.217 97.9312 117.048 96.806C113.251 95.7825 109.871 95.6571 108.205 95.669L108.022 95.671C98.4941 95.671 84.1461 101.96 83.7345 119.277V119.376C84.1461 136.698 98.495 142.986 108.028 142.986L108.205 142.992C109.871 142.999 113.245 142.863 117.048 141.842C121.218 140.726 121.583 140.468 121.704 140.38L122.17 140.05L122.07 139.501C121.635 137.159 120.713 133.126 119.425 132.327V132.321L118.51 131.918C117.597 131.67 116.523 131.751 115.316 132.155C113.113 132.747 110.766 132.939 107.947 132.753C100.731 132.048 96.3967 127.136 96.07 119.287C96.3957 111.513 100.731 106.603 107.98 105.903Z" fill="black"/>
<path d="M291.656 142.059C293.433 142.019 296.452 140.972 296.452 137.44L296.417 131.67L276.144 131.679C276.144 131.679 276.179 125.066 276.179 123.97C277.842 123.97 292.913 123.97 292.913 123.97L292.885 113.332C292.885 113.332 277.864 113.35 276.208 113.35C276.204 112.093 276.208 108.003 276.208 106.738C277.865 106.738 291.57 106.719 291.57 106.719C291.992 106.726 294.285 106.728 295.528 105.489C296.396 104.619 296.435 103.036 296.435 102.212V96.1378H264.544L264.55 142.095L291.656 142.059Z" fill="black"/>
</svg>
