<svg xmlns="http://www.w3.org/2000/svg" width="297" height="143" fill="none"><path fill="#DB0026" fill-rule="evenodd" d="M192.314 52.304c-1.404-1.87-1.647-5.18-4.497-5.474-2.765-.747-5.518-1.544-8.309-2.19l-16.398 2.669-1.922 8.838 26.515 3.459 6.917 4.61 18.061 1.922 8.454-3.074c-8.762-2.828-17.735-5.08-26.25-8.602-1.047-.482-1.774-1.364-2.571-2.158Z" clip-rule="evenodd"/><path fill="#004526" d="M224.528 62.682c-.592-.772-1.546-1.081-2.206-1.377-.646-.305-.553-.935-1.093-1.117-.553-.178-1.519.948-2.27.714-.75-.246-.695-1.647-1.322-1.855-.641-.202-1.757.85-2.34.663-.587-.171-.702-1.644-1.268-1.831-.561-.17-1.751.876-2.331.697-.584-.197-.621-1.63-1.269-1.844-.644-.197-1.777.874-2.34.681-.581-.18-.638-1.61-1.255-1.819-.625-.198-1.771.853-2.347.663-.595-.191-.756-1.662-1.297-1.84-.553-.168-1.632.7-2.509.649-6.089-.568-8.418-4.398-8.833-3.265-.407 1.11 1.269 3.812 3.376 4.724 1.679.73 19.817 5.751 20.292 5.975.463.229 1.609.74 1.201 1.4-.631.846-2.402.01-2.853-.364-.456-.379-.352-.517-.78-.631-.973-.231-1.512 1.54-2.539 1.303-.936-.21-.871-2.09-1.821-2.31-1.048-.254-1.523 1.529-2.521 1.296-.828-.187-.942-2.102-1.83-2.316-1.02-.246-1.483 1.54-2.546 1.292-.914-.214-.863-2.081-1.819-2.311-.956-.226-1.622 1.505-2.524 1.3-.905-.21-1.038-2.117-1.841-2.308-.822-.182-1.47.788-2.574.932 0 0-3.173.858-8.189-4.383-5.027-5.229-7.088-6.245-9.948-4.114-4.671 3.478-7.571 1.178-8.416.144-1.016-1.185.047-2.275.047-2.275s1.484 2.29 3.351 2.331c3.008.09 5.278-4.016 10.434-4.089 6.532-.235 8.234 2.086 10.02 2.27 1.654.162 2.206-.105 3.35-.769h-.006c.925-.33 1.731 1.46 2.701 1.099 1.025-.387.275-2.19 1.38-2.606 1.032-.37 1.706 1.443 2.694 1.075 1.04-.38.377-2.233 1.375-2.594 1.028-.371 1.628 1.46 2.694 1.069 1.071-.381.379-2.216 1.354-2.585 1.006-.367 1.733 1.435 2.721 1.084.936-.335.401-2.253 1.375-2.603 1.012-.363 1.665 1.445 2.743 1.05.886-.31.395-2.23 1.314-2.579.918-.342 1.771 1.438 2.726 1.081.897-.33.373-2.24 1.326-2.597 1.01-.364 1.788 1.416 2.743 1.08.944-.339.228-1.878 1.46-2.49 0 0 1.705-.56 1.598-1.812-.014-.21-.367-2.886-3.176-3.454-2.701-.543-24.033 5.358-24.309 5.017-1.963-3.879-4.479-2.801-4.862-2.714-.391.099-2.773 1.112-5.41.099-5.181-2.345-9.316 3.618-12.154 2.833-2.612-.734-4.61-.31-5.706.062-1.002.348-2.628 1.654-6.075.468-26.635-9.094-47.451-1.144-47.451-1.144-11.738 3.922-13.239 0-13.239 0s-3.863-5.247 23.334-11.505c39.091-8.98 40.269-23.84 39.806-24.78-.641-1.363-.886.243-2.173 1.72-1.081 1.228-2.336.621-2.336.621-1.23-.59-2.017.815-2.017.815s-1.582 2.455-2.982 1.059c-1.344-1.344-3.129 1.69-3.797 1.81-.798.141-1.188-.249-2.26-.741-1.606-.71-3.329 2.216-4.211 2.423-1.352.309-2.3-1.592-3.462-.79-3.473 2.399-4.02 2.732-4.955 1.799-.691-.706-.793-1.472-3.113.75-1.975 1.894-2.921 2.248-3.714 1.044-.816-1.212-.606-2.866-3.999.39-1.619 1.555-2.449 1.585-3.376.886-.699-.525-.694-3.029-3.128-.762-2.206 2.041-3.808 2.935-4.433 1.123-.69-2.036-3.289.375-3.89.943-.624.567-1.961 2.069-2.897.519-.936-1.558-3.178.768-4.512 2.244-1.028 1.147-1.86.262-2.945-.465-1.234-.846-4.926 4.308-5.26 4.617-.338.293-.596 0-1.442-.718-1.3-1.101-4.806 5.022-5.374 5.422 0 0-.24.528-1.196-.385-1.361-1.294-8.583 8.214-11.31 18.97-3.486 13.791 2.07 24.366 2.07 24.366s1.669.051 2.38-1.077l1.081-2.438c.876-2.032 2.314-1.392 2.314-1.392L80.33 74.343c-.538 1.335-.213 3.224.977 5.01 1.122 1.794 1.894 3.007 2.794 3.841 2.764 2.604 2.482-.475 2.554-.86.324-1.649 2.149-.382 3.583.407 2.6 1.46 2.311-1.763 2.882-2.815.396-.753 1.675-.786 3.063.376 1.08.904 2.154-2.156 2.154-2.156 1.348-6.52-1.819-7.273-3.532-7.37l-3.469-.158s.228-.992.59-1.92l.154-.659c3.783-9.425-2.538-11.244-4.43-11.094-2.086.187-1.94-1.143-1.94-1.143s11.425-2.25 9.295 9.866c0 0-.42 2.11-.673 3.211l3.14.366c2.701.338 3.181 3.534 3.181 3.534s9.937 2.626 15.572 1.576c0 0 2.519-.6 3.219-2.168 0 0 3.65-8.6 14.306-8.962 0 0 .375 1.113-1.328 1.692-2.041.688-8.842 1.228-10.256 9.041v.03c-.154 1.283.19 4.013 2.971 5.277 2.369 1.069 3.204 5.383 3.695 6.548 1.38 3.307 3.446.146 3.446.146s1.309-2.669 2.432-1.188c1.898 2.497 2.779 1.238 3.211-.352.471-1.716 1.158-2.464 3.145-.378.849.906 2.515.207 2.681-1.344.351-3.413 2.657-.699 2.986-.568.395.15 2.809-.392 1.458-4.242 0 0-1.825-3.667-10.052-5.25-1.931-.366-1.624-1.763-1.624-1.763l1.812.254c.541.088 5.326.62 5.835.7 20.071 1.981 35.299-4.827 35.757-5.313 15.591 2.988 36.791 1.97 40.77.535 4-1.41 4.298-3.746 3.838-4.368Zm-32.19-24.88c.325-.525.633-.822.917-.965 1.21-.688 1.981 1.466 1.834 1.545-.007.004-.034.013-.046.018-.002.003-.002.01-.004.013-.19.092-2.525.754-2.755.602-.462-.32.054-1.213.054-1.213Zm-8.865.681s.301-.38.885-.573c.575-.21 1.445-.245 2.597.497 1.324.842 1.291 1.5 1.291 1.5a1.748 1.748 0 0 1-.169.067c-.961.37-4.9.855-4.9.855-.766-1.412.296-2.346.296-2.346ZM109.994 19.42c.662.51.027 3.448-.445 3.015l-3.402-1.8s3.168-1.71 3.847-1.215Zm-5.534 1.876c.67.498.043 3.444-.432 3.005l-3.392-1.803s3.152-1.712 3.824-1.202Zm-1.913 5.745c.672.503.041 3.453-.439 3.026l-3.398-1.825s3.161-1.7 3.837-1.2Zm-3.239 7.714-3.402-1.807s3.164-1.714 3.836-1.21c.68.503.03 3.45-.434 3.017Zm-.64 5.819-3.393-1.807s3.158-1.707 3.831-1.213c.672.497.045 3.433-.438 3.02Zm-.062-17.23c.675.501.038 3.434-.437 3.016l-3.404-1.813s3.17-1.711 3.84-1.203Zm-2.951 4.479c.666.5.035 3.434-.435 3.016l-3.397-1.807s3.16-1.717 3.832-1.21ZM89.59 34.85s3.17-1.72 3.834-1.21c.676.498.04 3.436-.435 3.01l-3.399-1.8Zm2.605 7.36-3.391-1.814s3.163-1.701 3.83-1.199c.675.5.043 3.436-.439 3.013Zm-2.418-12.347c.67.49.036 3.434-.438 3.008l-3.387-1.813s3.146-1.701 3.825-1.195Zm-3.057 5.926c.673.498.043 3.454-.443 3.02l-3.39-1.805s3.162-1.699 3.833-1.215Zm-4.466 7.02s3.161-1.7 3.831-1.199c.679.496.033 3.443-.433 3.016l-3.398-1.817Zm6.061 6.64-3.394-1.808s3.163-1.714 3.835-1.211c.672.504.03 3.44-.44 3.02Zm4.869 3.945-3.395-1.801s3.165-1.714 3.836-1.216c.666.493.024 3.452-.441 3.017Zm1.522-6.157-3.397-1.815s3.164-1.7 3.835-1.213c.672.503.036 3.442-.438 3.028Zm4.516 8.814-3.389-1.806s3.146-1.71 3.825-1.208c.67.504.046 3.428-.436 3.014Zm1.631-5.671-3.392-1.806s3.157-1.7 3.826-1.199c.671.495.047 3.438-.434 3.005Zm1.123-5.36-3.392-1.81s3.157-1.7 3.835-1.201c.673.505.031 3.433-.443 3.01Zm4.773 10.346-3.393-1.818s3.158-1.697 3.835-1.204c.68.5.037 3.451-.442 3.022Zm1.47-5.647-3.391-1.803s3.163-1.718 3.835-1.21c.661.486.025 3.435-.444 3.013Zm1.231-5.982-3.394-1.808s3.16-1.695 3.838-1.203c.667.502.03 3.438-.444 3.011Zm4.767 10.57-3.404-1.807s3.164-1.712 3.842-1.213c.666.514.024 3.455-.438 3.02Zm1.14-6.04-3.392-1.817s3.164-1.704 3.833-1.209c.673.508.036 3.434-.441 3.026Zm1.183-6.202-3.393-1.81s3.158-1.703 3.833-1.207c.671.513.037 3.444-.44 3.017Zm5.109 9.854-3.397-1.791s3.163-1.71 3.826-1.213c.682.498.046 3.434-.429 3.004Zm.929-5.95-3.402-1.797s3.161-1.708 3.828-1.215c.69.504.044 3.455-.426 3.013Zm1.178-5.83-3.404-1.798s3.169-1.718 3.836-1.223c.671.508.036 3.456-.432 3.02Zm5.2 10.523-3.396-1.81s3.155-1.71 3.834-1.21c.679.505.038 3.438-.438 3.02Zm.927-5.555-3.399-1.802s3.168-1.722 3.834-1.21c.671.486.036 3.441-.435 3.012Zm1.118-5.926-3.402-1.804s3.164-1.726 3.842-1.212c.671.503.042 3.436-.44 3.016Zm4.705 11.586-3.389-1.808s3.159-1.716 3.83-1.204c.673.495.035 3.433-.441 3.012Zm1.121-5.965L133.423 43s3.169-1.72 3.842-1.21c.666.504.03 3.438-.438 3.013Zm1.271-5.937-3.398-1.804s3.164-1.72 3.837-1.208c.679.497.036 3.442-.439 3.012Zm4.684 11.902-3.399-1.817s3.16-1.706 3.832-1.194c.671.494.046 3.432-.433 3.01Zm1.086-5.634-3.389-1.813s3.155-1.693 3.826-1.21c.675.506.041 3.452-.437 3.023Zm1.285-5.765-3.386-1.805s3.158-1.705 3.833-1.213c.663.5.028 3.443-.447 3.018Zm4.28 12.25-3.397-1.827s3.164-1.692 3.835-1.188c.679.49.045 3.435-.438 3.014Zm1.201-5.464-3.395-1.8s3.167-1.708 3.833-1.209c.679.51.024 3.443-.438 3.01Zm1.297-5.58-3.404-1.798s3.166-1.71 3.842-1.222c.669.497.024 3.433-.438 3.02Zm5.293 6.759-3.391-1.789s3.157-1.714 3.835-1.222c.668.505.032 3.443-.444 3.01Z"/><path fill="#000" d="M67.99 98.793c-.709-1.882-2.056-2.694-4.523-2.731-.225-.007-11.641.01-11.641.01L34.929 142.08h8.225a4.027 4.027 0 0 0 1.96-.327c1.601-.73 2.386-2.585 2.614-3.218 0 .016 2.299-6.409 2.457-6.83l16.999-.006a6882.66 6882.66 0 0 0 3.453 10.36h11.131l-7.06-22.39-6.718-20.876Zm-3.428 23.464-11.454.002c1.236-3.383 4.311-11.94 5.625-15.404 1.135 3.494 5.8 15.288 5.83 15.402ZM148.089 95.704h-.006c-13.168.018-22.718 9.902-22.718 23.491 0 13.315 9.761 23.359 22.724 23.359 12.955 0 23.113-10.254 23.113-23.359 0-13.174-10.158-23.49-23.113-23.49Zm.329 36.586c-6.711 0-11.971-5.804-11.971-13.219 0-7.348 5.146-12.883 11.963-12.883 6.768 0 11.677 5.414 11.677 12.883-.001 7.541-5.02 13.219-11.669 13.219ZM200.99 115.067l-.433-.126c.012.006-4.281-1.3-4.292-1.312l-.642-.228c-3.506-1.267-5.997-2.329-5.997-4.371v-.15c.349-3.388 6.64-3.425 6.701-3.425 3.468 0 6.135.531 9.514 1.888l.072.027.145.042c.78.158 1.463.18 2.015.058l.936-.355c1.342-.738 2.678-4.65 3.19-6.297l.166-.528-.414-.379c-.162-.156-1.146-.966-4.725-2.302-3.64-1.363-8.795-1.576-8.795-1.576l-2.543-.01c-13.283 0-18.354 8.196-18.515 13.702-.11 5.485 3.012 8.307 7.732 10.872 1.974 1.093 5.58 2.099 8.195 2.83-.014-.012 2.706.794 2.706.794 4.948 1.554 6.839 3.281 6.488 5.958-.158.886-1.83 2.35-5.629 2.35a24.24 24.24 0 0 1-8.222-1.392c-1.305-.519-2.657-1.19-4.084-2.036l-.068-.044-.146-.063c-.79-.294-1.497-.418-2.104-.366l-1.046.225c-1.524.57-3.646 4.442-4.493 6.08l-.334.646.576.457c.103.069 2.463 1.946 4.468 3.119 2.36 1.308 5.011 2.255 8.14 2.888 1.262.23 3.265.521 6.405.521 10.292 0 17.77-5.214 18.629-12.978.375-7.044-3.948-11.641-13.596-14.519ZM222.994 96.129c-.428-.007-2.673.037-3.964 1.232-.594.545-.905 1.275-.905 2.097l-.007 7.279s12.417-.01 14.044-.01v35.37l11.503-.01v-35.36c1.534-.002 9.039-.002 9.039-.002.426 0 2.666-.048 3.962-1.236a2.823 2.823 0 0 0 .907-2.105v-7.255h-34.579ZM25.666 131.685H12.752c0-1.696-.037-31.359-.037-31.359 0-1.302-.389-2.336-1.172-3.058-1.252-1.175-3.114-1.169-3.81-1.154L.948 96.1l.018 45.981h28.789l.021-7.307c0-.936-.4-3.088-4.11-3.088ZM107.98 105.903c2.79-.185 5.138 0 7.353.606 1.19.397 2.263.476 3.173.219l.918-.407c1.288-.794 2.21-4.836 2.645-7.165l.1-.546-.469-.337c-.117-.086-.483-.342-4.652-1.467a33.987 33.987 0 0 0-8.843-1.137l-.183.002c-9.528 0-23.876 6.289-24.288 23.606v.099c.412 17.322 14.761 23.61 24.294 23.61l.177.006c1.666.007 5.04-.129 8.843-1.15 4.17-1.116 4.535-1.374 4.656-1.462l.466-.33-.1-.549c-.435-2.342-1.357-6.375-2.645-7.174v-.006l-.915-.403c-.913-.248-1.987-.167-3.194.237-2.203.592-4.55.784-7.369.598-7.216-.705-11.55-5.617-11.877-13.466.326-7.774 4.661-12.684 11.91-13.384ZM291.656 142.059c1.777-.04 4.796-1.087 4.796-4.619l-.035-5.77-20.273.009s.035-6.613.035-7.709h16.734l-.028-10.638s-15.021.018-16.677.018c-.004-1.257 0-5.347 0-6.612 1.657 0 15.362-.019 15.362-.019.422.007 2.715.009 3.958-1.23.868-.87.907-2.453.907-3.277v-6.074h-31.891l.006 45.957 27.106-.036Z"/></svg>