<svg xmlns="http://www.w3.org/2000/svg" width="798" height="207" fill="none"><path fill="#000" d="M599.59 206.18v-49.604h7.832l26.041 36.251v-36.251h7.984v49.604h-7.833l-26.044-36.252v36.252h-7.98ZM584.43 206.18v-49.604h7.984v49.604h-7.984ZM534.21 206.18l18.431-49.604h9.924l18.279 49.604h-8.506l-4.402-12.234h-20.817l-4.403 12.234h-8.506Zm15.518-19.469h15.67l-7.833-21.781-7.837 21.781ZM481.173 206.18v-49.604h6.713l18.056 20.587 17.985-20.587h6.713v49.604h-7.984v-36.849l-16.714 19.021-16.785-19.021v36.849h-7.984ZM430.232 206.18v-49.604h28.578v7.235h-20.594v13.426h19.327v6.938h-19.327v14.769h21.339v7.236h-29.323ZM383.449 206.18v-49.604h16.041c15.223 0 25.893 9.771 25.893 24.764 0 15.068-10.67 24.84-25.893 24.84h-16.041Zm7.984-7.236h8.057c10.371 0 17.686-6.937 17.686-17.604 0-10.666-7.315-17.529-17.686-17.529h-8.057v35.133ZM334.407 206.18v-49.604h7.835l26.04 36.251v-36.251h7.984v49.604h-7.834l-26.041-36.252v36.252h-7.984ZM303.695 207c-15.146 0-25.816-10.592-25.816-25.66 0-14.993 10.67-25.585 25.816-25.585 15.147 0 25.892 10.592 25.892 25.585 0 15.068-10.67 25.66-25.892 25.66Zm-17.609-25.66c0 10.667 7.313 17.977 17.609 17.977 10.372 0 17.684-7.31 17.684-17.977 0-10.666-7.312-17.902-17.684-17.902-10.296 0-17.609 7.236-17.609 17.902ZM252.832 207c-15.147 0-25.817-10.592-25.817-25.66 0-14.993 10.67-25.585 25.817-25.585 11.341 0 20.146 5.893 22.981 15.664l-8.207 1.343c-2.09-6.042-7.686-9.324-14.774-9.324-10.297 0-17.609 7.236-17.609 17.902 0 10.667 7.312 17.977 17.609 17.977 6.641 0 11.864-2.909 14.475-8.429l8.133 1.939C271.784 201.704 263.502 207 252.832 207ZM194.276 206.18v-49.604h28.578v7.235H202.26v13.426h19.326v6.938H202.26v14.769h21.34v7.236h-29.324ZM173.439 207c-10.67 0-17.386-6.042-18.057-14.546l7.76-1.044c.671 5.072 4.476 8.429 10.297 8.429 4.551 0 7.759-2.461 7.759-6.191 0-9.548-24.548-8.504-24.548-24.243 0-8.727 6.417-13.65 15.744-13.65 9.177 0 16.042 5.296 16.042 14.844l-7.312.97c-.448-5.893-3.955-8.653-8.73-8.653-4.029 0-7.536 2.163-7.536 6.34 0 9.548 24.548 9.25 24.548 24.019 0 8.28-6.566 13.725-15.967 13.725ZM412.96 119.488c32.878 0 62.034-22.12 62.034-59.744C474.994 22.12 445.838 0 412.96 0c-32.881 0-62.038 22.12-62.038 59.744 0 37.625 29.157 59.744 62.038 59.744Zm-212.374-2.48h23.987L169.36 2.274h-22.953L95.33 117.008h21.299l11.167-25.841h61.003l11.787 25.841ZM709.082 2.274v114.734H798v-18.4h-68.448V68.84h58.316V50.442h-58.316v-29.77h66.795V2.275h-87.265ZM490.711 105.638c4.757 3.721 18.61 13.644 43.22 13.644 24.813 0 44.873-13.438 44.873-34.317 0-43.62-63.28-29.769-63.28-53.543 0-6.615 5.586-12.196 20.06-12.196 17.578 0 28.953 7.855 33.292 11.37l8.482-16.952C572.187 8.683 556.055 0 535.584 0c-30.606 0-43.22 17.158-43.22 34.11 0 39.692 63.281 28.322 63.281 51.889 0 9.922-9.929 14.264-21.3 14.264-17.163 0-30.813-7.65-36.809-11.99l-6.825 17.365ZM290.953 20.466c17.163 0 26.882 9.303 32.259 14.264l14.268-14.057C332.724 15.505 319.076 0 290.539 0c-32.879 0-62.037 22.12-62.037 59.744 0 37.625 28.951 59.744 61.83 59.744 25.436 0 42.599-13.644 48.182-18.605l-11.373-16.125c-9.099 7.65-23.367 14.264-36.395 14.264-22.747 0-39.91-17.158-39.91-39.278-.207-22.12 16.956-39.278 40.117-39.278ZM412.96 99.022c-22.748 0-39.912-17.158-39.912-39.278 0-22.12 17.164-39.278 39.912-39.278 22.746 0 39.91 17.158 39.91 39.278 0 22.12-17.164 39.278-39.91 39.278Zm217.335-78.35v96.336h20.471V20.673h40.116V2.274h-99.671v18.399h39.084ZM20.472 2.275H0v114.734h81.475v-18.4H20.472V2.275ZM157.16 22.326l23.367 51.062h-45.08l21.713-51.062Z"/></svg>