<svg xmlns="http://www.w3.org/2000/svg" width="972" height="274" fill="none"><path fill="#000" d="M15.2 154.401H76v15.2H15.2c-8.4 0-15.2-6.8-15.2-15.2v-60.8h15.2v60.8Zm131.3-56.5c1.6 1.5 2.7 3.5 3.5 5.5l23.8 66.2h-43.3l5.3-15.2h16.3l-16.3-45.6-21.7 60.8H97.8l23.8-66.2c.7-2.1 1.9-4 3.5-5.5 5.9-5.8 15.6-5.8 21.5 0h-.1Zm109.7-4.4h15.2v68.4c0 4.2-3.4 7.6-7.6 7.6-4.2 0-3.8-.8-5.2-2.1l-48-48v50.2h-15.2v-68.4c0-4.2 3.4-7.6 7.6-7.6 2 0 3.8.8 5.2 2.1l48 48v-50.2Zm36.8 60.9v-45.6c0-8.4 6.8-15.2 15.2-15.2H369v15.2h-60.8v45.6H369v15.2h-60.8c-8.4 0-15.2-6.8-15.2-15.2Zm135.7-45.6-21.7 60.8h-16.3l23.8-66.2c.7-2.1 1.9-4 3.5-5.5 5.9-5.8 15.6-5.8 21.5 0 1.6 1.5 2.7 3.5 3.5 5.5l23.8 66.2h-43.3l5.3-15.2h16.3l-16.3-45.6h-.1Zm135.7 53.2c0 4.2-3.4 7.6-7.6 7.6h-68.4v-15.2h50.2l-48-48c-1.4-1.4-2.2-3.2-2.2-5.2 0-4.2 3.4-7.6 7.6-7.6h68.4v15.2h-50.2l48 48c1.4 1.4 2.2 3.2 2.2 5.2Zm21.6-68.5h76v15.2h-30.4v60.8h-15.2v-60.8H586v-15.2Zm112.9 0h60.8v15.2h-60.8v15.2h60.8v15.2h-60.8v15.2h60.8v15.2h-60.8c-8.4 0-15.2-6.8-15.2-15.2v-45.6c0-8.4 6.8-15.2 15.2-15.2Zm143.3 45.7 15.2 30.4h-17.1l-15.2-30.4h-28.5v30.4h-15.2v-45.6h60.8v-15.2h-60.8v-15.2h60.8c8.3 0 15.2 8.5 15.2 15.2v15.2c0 6.6-6.9 15.2-15.2 15.2Zm-705.3 128.1 3.9-6.8c4.1 3.8 9.4 5.5 16.4 5.5 7 0 11-2.4 11-6.4s-2.1-3.5-12.6-4.9c-8.9-1.2-18-2.5-18-12s7.4-14.1 18.4-14.1c11 0 16 4.4 18.5 9.9l-6.6 3.6c-1.4-3.6-5.3-6.1-12.2-6.1-6.9 0-10 2.6-10 6.1 0 3.5 2.4 4 11.5 5.2 9.5 1.2 19.1 2.2 19.1 12s-8.3 14.1-19.3 14.1-14.3-1.8-19.9-6.2l-.2.1Zm88.7-2.1v7.6h-34.7v-43.4h34.2v7.6h-26.2v10.3h16.6v7.6h-16.6v10.4h26.7v-.1Zm10.5-14.2c0-12.5 8.7-22.4 22.4-22.4s16.2 4.6 19.3 11.1l-6.8 3.9c-2-4.5-6.4-7.4-12.4-7.4-9.2 0-14.4 6.6-14.4 14.8 0 8.2 5.5 14.8 14.6 14.8s10.5-2.9 12.5-7.3l6.8 3.9c-3.1 6.4-10.2 11.1-19.5 11.1-13.7 0-22.6-10-22.6-22.4l.1-.1Zm53.4 0c0-12.3 9.2-22.4 23.1-22.4 13.9 0 23.1 10.1 23.1 22.4 0 12.3-9.3 22.4-23.1 22.4s-23.1-10.1-23.1-22.4Zm38 0c0-8.3-5.8-14.8-15-14.8s-14.9 6.5-14.9 14.8 5.8 14.8 14.9 14.8c9.1 0 15-6.4 15-14.8Zm63-21.7v43.4h-7.1l-24.5-30.2v30.2h-8.1v-43.4h7.1l24.5 30.2v-30.2h8.1Zm57.9 21.7c0 12.3-9.7 21.7-22.6 21.7h-17.7v-43.4h17.7c12.9 0 22.6 9.4 22.6 21.7Zm-8.1 0c0-8.3-6-14.1-14.6-14.1h-9.6v28.3h9.6c8.6 0 14.6-5.9 14.6-14.1v-.1Zm58.1 14.2v7.6h-34.7v-43.4h34.2v7.6h-26.2v10.3h16.6v7.6h-16.6v10.4h26.7v-.1Zm84.5-35.9v43.4h-8.1v-29.9l-14.1 18.8h-.8l-14.2-18.9v30h-8.1v-43.4h7l15.6 20.9 15.7-20.9h7Zm59.4 42.9v.6h-8.6l-3.7-8.6h-22.1l-3.7 8.6h-8.6v-.6l19.3-42.8h8l19.2 42.8h.2Zm-15.4-15.3-7.9-18.4-7.9 18.4h15.8Zm36.4-27.6v43.4h-8.1v-43.4h8.1Zm57.2 0v43.4h-7.1l-24.5-30.2v30.2h-8.1v-43.4h7.1l24.5 30.2v-30.2h8.1Z"/><path fill="#BE1622" d="M932.3 88.344c-.7.9-1.3 1.8-1.4 3-.1 1.1.6 2.4 1.7 2.5.9 0 1.6-.6 2.3-1.2 14.3-13.7 26.7-32.6 32.5-51.5 2.3-7.4 3.7-13.2 2.5-20.9-.7-4.4-4-9.5-7.9-11.7-2.9-1.7-7-2.3-10.2-1.2-3.2 1.1-5.8 2.9-8.3 5.1-9.5 8.6-14.7 21.5-20 33.1-1.9-10.1-5.5-19.8-10.5-28.8-3.1-5.6-7.1-11-12.9-13.7-12.5-5.9-22.8 6.2-22.9 18 0 5.3 1.3 12.8 3 17.8 9.8 28.7 26.5 50.6 53.3 69.8.6.4 1.2.8 1.9.6.8-.2 1-1.2.7-2-.3-.8-.9-1.3-1.5-1.8-22.6-19.1-40.5-44.3-48.7-72.8-1.3-4.4-2.3-9-1.4-13.4.9-4.4 4.4-8.7 8.9-9.1 5.4-.5 9.8 4.2 12.8 8.7 6 9.1 10.2 19.3 12.4 30 .4 1.7.7 3.5 1.8 4.9 1.1 1.4 3.1 2.2 4.6 1.3.8-.4 1.2-1.2 1.7-2 7-12 10.1-26.6 20.4-35.9 2.4-2.2 5.7-4.1 8.8-3.3 3.6.9 5.4 4.9 6 8.5.9 5.8-.2 11.7-1.8 17.2-5.4 18-16.6 33.5-27.8 48.6v.2Z"/><path fill="#BE1622" d="M882.993 4.295c4.547-4.12 10.887-5.846 17.747-2.608 6.24 2.907 10.43 8.656 13.57 14.329l.47.858c4.1 7.543 7.23 15.565 9.23 23.898 4.69-10.404 9.86-21.633 18.48-29.44l.02-.014c2.58-2.273 5.35-4.206 8.8-5.392 3.66-1.257 8.2-.57 11.43 1.31 2.2 1.245 4.16 3.26 5.66 5.5 1.4 2.105 2.45 4.5 2.9 6.81l.08.463v.004c1.26 8.048-.23 14.12-2.55 21.576-5.88 19.173-18.43 38.285-32.89 52.139l-.03.028-.03.027c-.6.51-1.73 1.56-3.28 1.56h-.07l-.07-.005c-1.14-.104-1.96-.822-2.43-1.568a4.177 4.177 0 0 1-.62-2.562c.12-1.42.75-2.5 1.39-3.366v-.194l.3-.397c11.21-15.125 22.25-30.426 27.56-48.138 1.58-5.42 2.61-11.065 1.76-16.54-.28-1.661-.83-3.353-1.67-4.697-.83-1.34-1.9-2.247-3.21-2.576l-.01-.003c-1.14-.293-2.39-.114-3.7.45-1.31.565-2.6 1.48-3.72 2.503v.008c-4.92 4.442-8.17 10.192-11.09 16.457-2.87 6.174-5.48 13.008-9.02 19.085l-.03.039c-.2.318-.49.837-.81 1.255-.32.435-.76.898-1.39 1.235-1.2.72-2.54.718-3.67.356-1.13-.358-2.15-1.09-2.88-2.014-1.36-1.728-1.72-3.953-2.08-5.484l-.01-.02v-.02c-2.16-10.514-6.29-20.534-12.18-29.471l-.56-.817c-1.33-1.897-2.89-3.713-4.61-5.056-1.96-1.53-4.04-2.37-6.24-2.165h-.01c-3.62.322-6.743 3.909-7.56 7.907-.77 3.76-.029 7.766 1.131 11.855l.239.819v.01c8.11 28.169 25.81 53.124 48.22 72.063l.48.403c.51.461 1.12 1.104 1.46 2.023.26.669.32 1.457.1 2.182-.22.747-.79 1.516-1.79 1.784v.002l-.02.006-.03.007v-.002c-1.46.39-2.64-.504-3.09-.805l-.04-.029c-27.03-19.366-43.94-41.513-53.85-70.534v-.002c-1.75-5.147-3.08-12.81-3.08-18.283v-.013l.013-.59c.214-6.1 2.942-12.213 7.28-16.146Zm16.467.105c-5.64-2.66-10.7-1.287-14.452 2.117-3.822 3.465-6.261 9.034-6.308 14.54.002 5.125 1.271 12.453 2.919 17.302 9.691 28.373 26.181 50.022 52.741 69.053.09.06.17.109.24.155-.16-.281-.44-.539-.96-.97l-.01-.007c-22.79-19.258-40.87-44.697-49.168-73.52l-.242-.837c-1.196-4.204-2.108-8.8-1.19-13.29.982-4.8 4.85-9.811 10.23-10.293 3.2-.296 6.02.965 8.36 2.785 2.33 1.815 4.29 4.262 5.83 6.577v.006c6.1 9.25 10.37 19.614 12.61 30.483l.31 1.312c.29 1.226.58 2.2 1.21 3.004.37.477.9.843 1.42 1.01.52.163.93.11 1.23-.07l.05-.03.05-.025c.12-.06.25-.167.43-.408.21-.277.36-.553.65-1.02 3.45-5.92 5.89-12.38 8.89-18.825 2.96-6.36 6.42-12.56 11.79-17.418 1.29-1.174 2.85-2.306 4.56-3.04 1.7-.734 3.65-1.105 5.61-.602l.02.002c2.27.574 3.91 2.114 5.02 3.896.97 1.554 1.59 3.358 1.94 5.08l.14.73v.018c.95 6.12-.22 12.272-1.84 17.848v.012c-5.44 18.127-16.65 33.71-27.74 48.664v.22l-.32.405c-.67.867-1.02 1.47-1.09 2.205v.01c-.02.21.05.482.18.689.06.093.11.139.14.162.08-.018.19-.058.34-.147.24-.145.49-.35.84-.653 14.13-13.543 26.36-32.214 32.08-50.826v-.005c2.28-7.343 3.59-12.874 2.45-20.224-.31-1.947-1.22-4.12-2.52-6.074-1.3-1.958-2.94-3.595-4.64-4.55l-.01-.006-.01-.007c-2.57-1.508-6.22-2.015-8.95-1.075-2.95 1.013-5.38 2.68-7.8 4.807-9.2 8.34-14.27 20.87-19.63 32.598l-1.96 4.299-.87-4.646c-1.87-9.933-5.41-19.481-10.34-28.35-3.06-5.525-6.87-10.573-12.22-13.067l-.01-.004Z"/></svg>