<svg width="355" height="271" viewBox="0 0 355 271" fill="none" xmlns="http://www.w3.org/2000/svg">
<path d="M27.2939 196.88C27.2939 187.177 29.2679 178.211 29.2679 173.091C29.2679 164.526 30.3721 158.57 31.5096 155.593C34.0525 148.7 42.2163 147.462 48.5065 143.815C56.9046 138.93 59.4809 129.495 59.4809 116.948C59.4809 102.795 61.4549 99.5499 64.6 95.5014C64.7673 95.2672 64.9011 95.1333 65.1019 95.1333C65.2692 95.1333 65.403 95.3341 65.4364 95.7691C66.6744 106.643 70.2545 117.751 80.2251 129.93C86.4483 137.559 94.8798 143.18 98.0584 144.451C98.3595 144.585 98.4933 144.819 98.1923 145.02C92.0359 149.035 84.8089 149.537 81.5634 150.875C81.7307 150.273 82.0988 148.767 82.0988 146.827C82.0988 141.406 78.0168 137.559 72.3958 137.559C66.206 137.559 58.5441 141.774 56.4696 158.738C56.1685 161.147 55.4659 162.117 53.8934 164.593C52.5216 166.734 48.2723 173.459 47.2017 176.236C46.2314 178.746 45.328 181.757 45.328 184.333C45.328 186.943 47.2686 187.947 49.4768 188.783C51.9528 189.72 55.1648 191.862 56.2689 194.505C56.9046 195.977 58.1426 196.077 59.5144 196.646C60.9196 197.181 61.7226 198.587 61.8564 199.524C60.0831 199.59 58.8452 199.825 57.4065 200.761C57.2392 200.46 56.9381 200.26 56.7373 200.159C56.7373 197.683 54.7967 196.077 53.793 195.642C52.6553 191.862 47.0343 191.493 44.6588 188.884C44.3577 188.884 44.1904 189.185 44.1904 189.319C45.7964 192.765 50.3802 191.761 52.2204 196.713C52.3877 197.114 54.7632 197.817 54.8971 200.059C53.358 200.126 51.8858 201.297 51.1163 202.769C50.0456 202.769 48.8076 203.037 47.8039 204.074C47.1682 203.706 46.3652 202.535 45.5622 201.297C42.484 196.512 35.9931 198.018 33.7848 195.542C31.9112 193.501 32.1119 188.917 32.1119 186.943C32.1119 186.307 32.1788 185.605 32.1788 185.605C31.7104 185.605 31.2754 185.739 31.175 187.01C30.9408 189.887 30.9074 195.877 32.9149 197.784C35.3573 200.126 41.2795 198.888 43.0193 202.97C43.5881 204.241 44.1903 206.617 45.6291 208.122H31.8442C28.2642 206.014 27.2939 200.895 27.2939 196.88ZM118.568 170.515C118.568 169.712 119.84 168.508 120.643 168.508C121.713 168.508 123.654 171.452 123.654 172.456C123.654 173.459 122.249 174.798 121.412 174.798C120.509 174.798 118.568 171.92 118.568 170.515ZM85.0765 131.101C73.5334 118.521 68.18 103.598 68.18 92.1221C69.786 89.9473 70.2545 86.3003 70.2545 84.4267C70.2545 82.988 71.9608 82.118 73.7007 82.118C77.0465 82.118 82.8348 85.0958 83.8051 93.3266C85.9464 111.193 91.0321 119.391 100.467 127.555C105.62 132.038 108.865 134.915 108.865 137.525C108.865 140.101 107.46 142.41 103.88 142.41C96.4858 142.41 88.5896 134.949 85.0765 131.101ZM58.4771 161.448C60.585 147.262 65.5703 140.336 72.0947 140.336C77.7826 140.336 79.0875 144.351 79.0875 147.83C79.0875 155.492 66.9755 162.753 59.9158 162.753C59.0459 162.753 58.4771 162.284 58.4771 161.448ZM63.8639 208.122C64.7338 206.048 65.6037 203.94 65.6037 201.029C65.6037 197.984 63.362 194.505 59.7151 193.501L59.0124 193.2C57.0719 188.716 54.1275 186.575 49.3095 184.902C48.6069 184.668 48.5734 183.999 48.6069 183.497C48.7742 181.322 49.5103 179.014 50.1794 177.441C51.5847 173.961 53.4918 171.084 55.9343 168.106C56.9046 166.902 58.3433 166.801 59.1463 166.667C62.2579 166.199 68.4812 164.693 72.5631 162.217C75.2063 160.645 78.4183 157.533 79.5893 156.161C82.9017 152.213 90.9652 154.455 102.508 146.659C106.758 148.165 112.412 152.782 113.081 158.805C113.55 162.987 113.048 168.876 114.754 173.225C115.49 175.433 118.602 178.98 119.773 180.352C120.91 181.757 131.517 195.709 139.212 206.583C139.413 206.851 139.848 207.52 140.45 208.122H63.8639ZM58.8786 202.033C59.5812 201.33 61.8899 200.326 61.8899 202.434C61.8899 204.275 60.3173 206.382 60.3173 206.382C60.2504 204.375 58.8786 202.033 58.8786 202.033ZM57.5403 203.773C57.5403 203.773 57.8414 204.208 57.9752 204.776C58.2429 205.713 58.1425 206.817 57.4734 207.52H55.3989C56.2354 206.784 57.0719 205.345 57.5403 203.773ZM54.7298 205.847C54.7298 205.847 54.6963 204.91 53.9602 203.94C53.6926 203.605 53.1907 203.304 52.7892 203.104C53.0234 202.468 53.8933 201.564 54.8301 201.564C55.5328 201.564 55.7335 202.1 55.7335 202.903C55.7335 204.007 55.332 204.977 54.7298 205.847ZM49.0753 205.947C49.0753 205.211 49.6441 204.609 50.5475 204.609C51.5847 204.609 52.2204 205.111 52.2204 205.981C52.2204 206.918 51.6851 207.052 50.5475 207.052C49.2426 207.052 49.0753 206.483 49.0753 205.947ZM63.4289 78.973C32.1788 70.3407 3.93994 46.786 3.93994 24.3019C3.93994 11.9558 10.8993 3.32354 22.6432 3.32354C35.8592 3.32354 38.469 11.7216 39.5731 18.1122C40.0081 20.0193 40.6772 21.458 42.6178 23.2313C44.525 25.0046 41.9487 32.2316 40.2088 32.2316C39.2385 32.2316 38.6697 29.7891 37.3983 28.5512C35.5916 26.8113 35.2904 25.0046 35.2904 23.3986C35.2904 21.826 35.7589 20.8557 35.7589 19.6847C35.7589 10.8851 30.4724 6.63592 22.6432 6.63592C14.5462 6.63592 7.9884 11.8554 7.9884 24.3019C7.9884 47.9905 48.0381 69.9392 66.1391 69.9392C77.448 69.9392 84.6416 60.2697 106.657 60.2697C119.137 60.2697 137.539 65.0543 164.473 65.0543C194.653 65.0543 201.211 63.5152 210.545 59.9686C210.479 60.9054 210.244 62.043 209.843 63.214C209.742 63.5152 209.742 63.6825 210.144 63.7159C212.285 63.9167 215.163 63.6156 216.97 62.5783C216.3 63.7494 215.798 64.4855 215.497 65.5227C215.397 65.8238 215.431 65.9576 215.765 65.9576C216.2 65.9576 216.635 65.8907 217.036 65.7903C216.334 67.664 215.999 69.6381 215.999 71.5786V71.6455C215.999 75.6605 217.973 82.3522 223.494 87.8394C225.334 89.6461 227.408 91.2187 229.751 92.557C227.275 93.5608 224.765 94.9995 223.527 96.7059C223.393 96.8731 223.393 96.9735 223.561 97.1073C224.297 97.5758 225.167 98.4791 225.769 99.0479C224.999 99.5164 223.795 100.855 223.126 101.925C220.248 102.661 216.066 104.803 214.828 105.673C213.791 106.442 213.724 107.178 214.159 108.048C211.583 109.186 207.634 110.625 206.731 113.034C205.627 113.736 203.285 114.573 201.913 115.376C199.671 114.071 194.619 113.77 191.775 114.472C189.366 112.063 179.797 108.383 174.946 108.115C171.6 104.937 167.25 104.2 166.581 104.167C165.31 104.067 164.908 104.401 165.544 105.773C163.603 105.238 161.495 105.004 159.622 105.137C159.321 105.137 159.187 105.305 159.321 105.773C159.588 106.944 160.525 108.416 161.06 108.985C160.057 108.985 158.886 109.152 158.283 109.42C157.915 109.621 157.949 109.788 158.217 110.223C159.521 112.331 162.131 114.907 163.904 116.279C163.269 116.446 163.068 116.714 163.202 117.015C164.942 120.227 170.931 123.606 174.277 124.777C175.08 127.421 181.972 131.268 186.823 131.369C188.831 133.343 193.181 134.146 196.761 133.276C201.277 135.384 206.932 134.547 212.118 130.867L212.419 131.034C215.531 132.941 222.055 133.109 223.996 132.406C226.539 133.276 231.089 133.61 234.602 133.042C234.602 133.042 235.104 133.543 236.275 133.744C237.479 133.945 237.848 134.012 239.989 134.112C240.089 134.112 240.056 134.213 240.056 134.313C231.49 134.848 221.654 134.346 219.914 134.447C209.073 135.116 209.776 139.064 184.782 139.064C167.15 139.064 152.261 134.347 148.547 132.339C148.514 132.306 146.941 129.83 146.941 126.685C146.941 122.603 149.049 121.197 151.357 121.197C152.562 121.197 153.432 121.197 153.432 120.595C153.432 120.16 152.93 119.525 150.488 119.525C147.878 119.525 143.595 121.8 143.595 127.32C143.595 132.272 145.87 136.12 146.171 137.559C146.506 138.997 146.606 140.035 146.171 141.206C143.528 137.224 140.015 134.447 135.933 134.447C130.346 134.447 126.632 138.06 126.632 143.313C126.632 148.934 128.974 152.481 132.721 155.526C135.264 157.634 139.212 160.678 139.212 160.678C140.35 161.582 141.153 163.255 141.353 164.392C143.06 174.798 146.004 183.229 153.766 192.096C154.904 190.791 157.012 189.586 159.588 189.586C164.674 189.586 167.15 193.601 167.685 195.91C167.685 195.91 169.793 195.843 170.931 197.583C170.629 198.286 170.228 198.921 169.592 199.457C168.555 198.219 167.618 197.683 166.246 197.248C166.581 195.074 162.499 191.728 161.094 191.728C160.726 191.728 160.19 191.862 159.889 192.23C160.927 192.631 164.507 195.04 164.507 197.081C164.507 199.323 166.882 198.687 167.786 200.661C167.116 201.263 166.113 201.866 165.343 202.267C165.878 203.405 166.481 205.814 166.481 208.055L165.778 208.122H147.543C142.893 205.613 125.561 180.285 122.985 177.207C123.821 176.772 126.03 175.868 126.03 172.723C126.03 170.548 122.951 166.533 120.843 166.533C119.94 166.533 118.936 167.102 118.535 167.571C118.066 165.429 118.434 163.121 118.368 160.879C118.133 152.615 114.286 147.73 108.932 144.016C110.538 142.778 111.91 140.971 111.91 138.395C111.91 133.677 106.256 129.294 101.304 124.844C93.2738 117.651 88.8908 105.94 87.4855 95.401C85.8126 83.1887 80.7269 79.2741 72.7638 79.2741C70.8902 79.2741 67.1428 79.8429 63.4289 78.973ZM212.921 59.0318C215.598 57.7269 218.743 56.0874 220.349 54.9498C219.981 56.9573 218.977 59.199 217.873 59.9017C217.036 60.4035 214.694 61.675 212.486 61.9426C212.754 61.1396 212.921 60.3032 212.921 59.0318ZM223.126 53.8792C224.263 52.8419 225.368 52.5743 227.408 53.0427C227.408 53.0427 225.802 55.1506 225.301 57.1581C224.698 57.4258 224.163 57.7269 223.628 58.028C222.892 58.2622 222.222 58.2957 221.687 58.1618C222.59 57.1581 222.892 55.5521 223.126 53.8792ZM229.817 48.2582C229.784 49.1281 229.516 50.0984 228.847 50.8679L226.672 50.801C227.676 50.1653 229.048 49.195 229.817 48.2582ZM232.293 46.4849C234.033 45.1465 237.011 42.7375 239.019 40.5627C238.048 42.2691 236.978 46.3176 236.81 47.7563C236.007 49.0612 231.992 50.8679 231.256 50.8679C231.892 49.6299 232.26 48.0574 232.293 46.4849ZM242.03 39.7932C243.602 39.4251 246.279 38.8229 248.019 38.1203C248.287 37.953 248.387 38.2541 248.287 38.5552C248.22 38.8229 247.617 40.9642 247.115 42.1687C246.312 44.1762 244.305 45.4142 239.755 46.8529C239.453 46.9867 239.186 46.8194 239.186 46.5518C239.788 44.0759 240.491 41.6334 242.03 39.7932ZM250.026 31.0605L250.16 31.2278C250.06 32.8673 249.959 34.5068 249.09 35.7447C247.149 36.347 244.138 37.3507 242.833 37.4846C244.439 36.347 248.253 32.9008 250.026 31.0605ZM256.417 35.1425C256.116 36.7485 255.514 38.9233 255.246 39.927C254.409 42.8379 254.242 43.3063 250.696 44.8789C247.918 46.0834 247.316 45.3807 247.316 45.3807C248.956 43.8416 250.294 40.1612 250.896 37.9864C253.004 37.0831 254.577 36.5143 256.417 35.1425ZM253.105 28.5512C254.878 26.6775 256.919 24.4358 258.96 22.8632H259.094C257.99 24.5696 256.986 30.9602 256.986 30.9602C256.651 32.4993 255.58 33.7372 251.766 35.5105C252.703 34.0383 252.77 31.3951 253.105 28.5512ZM261.503 23.4655C261.938 22.7294 263.209 22.4617 265.283 22.629C264.681 24.5027 264.246 26.8113 264.079 28.9861C263.176 29.923 260.8 31.4955 259.194 31.7966C259.595 28.6181 260.666 25.1384 261.503 23.4655ZM262.473 20.4542C271.005 13.0265 284.187 5.29759 294.493 5.29759C301.753 5.29759 303.024 6.83668 304.229 8.00772C304.296 10.6844 304.062 13.0599 303.66 15.3016C300.917 16.0712 297.537 17.5768 299.344 20.4877C299.344 20.4877 298.675 20.7888 298.073 21.2572C297.638 21.5584 297.136 22.2944 297.136 22.2944C295.931 22.2275 293.756 22.1272 292.184 20.0193C290.879 18.2125 289.708 17.008 288.37 16.1716C292.017 13.5953 295.463 13.1603 299.511 15.2347C299.812 15.1009 300.114 14.9671 300.549 14.7998C299.98 12.9261 297.002 11.1194 293.957 11.1194C288.972 11.1194 285.559 15.6362 282.448 16.7738C282.314 17.0415 282.314 17.1753 282.314 17.3426C283.184 17.7776 283.451 18.6475 283.92 19.3836C285.358 22.2944 288.102 25.9749 291.749 26.4098C291.314 27.4136 291.046 29.2203 290.979 30.0568C288.437 31.4955 283.752 36.4139 281.544 37.518C282.113 34.5737 282.314 32.1981 282.314 32.1981C282.314 32.1981 278.633 34.8413 277.161 35.4101C276.927 35.5105 276.76 35.3432 276.793 35.0086C276.927 33.8711 277.763 29.0865 277.763 29.0865C277.763 29.0865 274.484 32.0643 272.142 32.9007C271.774 33.0346 271.507 32.7 271.507 32.5327C271.373 30.6925 273.246 24.0343 273.246 24.0343C273.246 24.0343 268.127 27.0121 267.09 27.5474C266.755 27.7147 266.555 27.5474 266.588 27.3132C266.689 25.6068 267.625 20.8557 267.625 20.8557C267.625 20.8557 263.677 20.6884 262.473 20.5881L262.473 20.4542ZM306.504 8.27538C312.46 8.60997 319.954 11.7551 325.442 15.3686C324.806 17.1084 324.605 17.5434 323.635 17.5434C322.598 17.5434 318.081 13.2607 312.527 13.2607C309.013 13.2607 306.471 15.5693 306.471 19.1828C306.471 21.3911 308.043 24.9377 313.196 24.9711C314.333 25.0046 315.504 24.7704 316.508 24.3689C316.341 25.0046 316.609 26.0752 316.977 26.5437C315.872 26.4433 314.099 26.1087 312.995 26.1087C309.214 26.1087 307.307 28.25 307.307 31.3282C306.404 32.4323 305.969 33.5699 305.969 34.9417C305.969 38.5552 309.783 40.73 313.564 40.73C320.055 40.73 326.479 35.3432 330.059 30.7929C332.97 30.2575 336.985 28.7519 338.591 28.7519C339.962 28.7519 341.033 29.4545 343.174 31.2613C342.873 31.3951 342.405 31.6628 342.171 31.8635C340.665 30.7594 338.725 30.1237 337.119 30.1237C335.713 30.1237 334.408 30.6925 333.505 31.529C333.438 31.5959 332.802 31.5959 331.899 32.0308C330.326 32.7669 329.791 33.7372 329.189 34.6741C333.572 34.9417 337.687 38.2876 340.331 41.2988C340.632 41.5999 340.832 42.1353 340.498 42.6706C340.331 42.9048 339.996 42.8379 339.293 42.2691C332.167 35.109 326.847 35.544 325.308 39.9939C330.092 40.7969 333.304 43.2394 336.349 46.7525C336.349 46.8864 336.048 46.9533 335.78 46.9198C332.301 46.4849 329.59 42.1353 325.709 42.1353C323.401 42.1353 321.427 43.2729 320.757 45.3807C320.088 45.18 319.151 44.9458 318.516 44.7785C317.746 44.5443 317.445 44.7116 316.943 45.18C311.155 50.4329 310.452 51.8717 311.456 58.5299C312.594 66.0246 313.564 66.6268 325.508 69.6715C325.609 71.7125 325.04 73.2516 321.393 73.2516C318.549 73.2516 316.107 71.7794 313.831 71.7794C312.092 71.7794 309.984 72.7162 308.846 71.8129C307.374 70.7088 298.474 61.0393 298.474 44.812C298.474 29.9899 306.772 23.1644 306.504 8.27538ZM327.482 15.9708C328.386 15.6697 329.624 16.5731 329.691 18.2795C329.256 18.7144 327.917 17.9784 326.345 17.9114C326.88 17.6438 327.081 16.4393 327.482 15.9708ZM336.215 23.5659C333.17 25.3726 329.423 26.9452 325.575 26.8113C325.776 26.4767 325.91 25.7072 325.843 25.3057C327.817 25.908 329.892 25.5399 329.624 24.1012C326.713 25.0715 325.676 20.7888 321.427 20.7888C316.977 20.7888 313.597 24.3354 310.118 22.1606C309.08 21.4245 308.679 20.2535 308.679 19.0824C308.679 16.7738 310.318 15.1678 312.627 15.1678C316.642 15.1678 319.72 18.9486 323.936 19.2832C325.743 19.417 326.613 19.4839 327.917 19.852C329.256 20.22 329.925 19.9858 330.761 19.6178C332.669 20.4208 334.977 21.9934 336.215 23.5659ZM318.683 24.9042C318.683 22.9636 320.055 22.1606 321.627 22.1606C323.133 22.1606 324.337 23.2313 324.337 25.0715C324.337 26.3764 323.033 27.5474 321.627 27.5474C319.887 27.5474 318.683 26.4098 318.683 24.9042ZM327.549 31.1944C324.438 34.9752 317.78 38.8563 313.698 38.8563C309.415 38.8563 307.006 35.5105 308.144 33.3692C309.315 35.1759 311.523 36.3135 313.698 36.3135C318.516 36.3135 323.468 31.9639 327.549 31.1944ZM338.791 25.0046C340.565 24.2685 345.082 27.5474 346.253 29.6553C345.985 30.1237 344.948 30.4583 344.412 30.6925C342.706 28.8523 340.397 27.2128 338.892 27.3132C336.115 27.447 333.706 28.7185 328.587 29.488C323.133 30.3245 317.746 34.4064 313.798 34.4064C310.753 34.4064 309.281 32.8673 309.281 30.9602C309.281 28.3504 311.222 27.7816 313.631 27.7816C316.374 27.7816 318.75 29.3207 321.393 29.3207C322.598 29.3207 323.702 29.0196 324.438 28.5512C331.999 28.5512 336.483 25.9749 338.791 25.0046ZM350.402 36.1462C350.402 37.3507 348.762 39.3917 348.494 39.3917C348.193 39.3917 347.491 39.1909 347.19 38.9567C347.19 34.1053 343.275 35.9789 343.275 33.8711C343.275 32.8673 345.851 32.9677 347.323 31.8301C348.394 32.332 350.402 34.9417 350.402 36.1462ZM341.903 39.3582C341.903 39.9939 341.167 40.2281 340.766 39.7932C338.591 37.4511 335.379 34.741 332.066 33.8376C334.509 31.4286 341.903 35.8786 341.903 39.3582ZM341.167 35.0421C339.528 33.503 337.185 32.2985 335.145 31.9305C336.851 30.8263 339.561 31.529 341.134 32.7335C340.632 33.4361 340.732 34.4398 341.167 35.0421ZM335.479 43.7078C333.572 41.7003 330.862 39.7263 327.65 38.9902C329.523 36.6816 335.278 39.8266 338.624 43.7413C339.226 44.4439 339.126 45.0127 338.858 45.3138C337.955 46.1837 336.081 44.3101 335.479 43.7078ZM338.29 49.998C337.821 49.998 337.553 49.7638 337.654 49.5296C338.457 47.7228 339.226 47.4886 340.13 46.9198C341.067 46.3845 340.331 44.6446 341.602 44.1762C342.606 43.8082 342.873 42.9383 342.94 42.2691C343.007 41.5999 343.777 40.8638 343.944 40.1278C344.948 40.8973 345.45 42.2022 345.45 42.2022C345.149 42.9717 341.769 49.998 338.29 49.998ZM335.446 49.4961C331.33 48.4924 323.3 46.0834 322.665 45.9161C323.133 44.4774 324.538 43.8751 326.211 43.8751C328.486 43.8751 331.631 47.6559 335.446 48.1578C335.814 48.1913 335.914 48.4254 335.914 48.76C335.914 49.1615 335.68 49.5296 335.446 49.4961ZM329.958 55.5186C329.624 55.5186 329.557 55.2175 329.557 54.7491C329.557 53.7119 330.226 51.4367 330.929 50.2322C331.665 50.4664 333.405 51.0687 334.576 51.4367C333.572 52.842 331.096 55.5186 329.958 55.5186ZM327.951 50.6002C327.148 50.6002 326.613 49.3623 326.044 49.3623C325.542 49.3623 325.609 50.1318 324.404 49.5965C323.836 49.3288 322.865 48.5593 322.832 47.6559C324.17 48.0909 328.252 49.3957 329.423 49.7638C329.122 50.3326 328.654 50.6002 327.951 50.6002ZM315.003 55.8867C315.839 62.5114 316.374 62.8125 323.233 66.9614C323.3 66.9949 323.267 67.0618 323.2 67.0283C314.835 64.4185 314.601 64.0839 313.597 58.2957C312.426 51.5371 313.531 51.3698 317.913 46.5183C318.081 46.351 318.181 46.2841 318.583 46.4179C319.018 46.5183 319.152 46.6187 319.72 46.7525C315.404 51.9051 314.634 52.9089 315.003 55.8867ZM317.077 56.5893C316.542 53.5446 316.609 53.4776 319.252 49.8976C318.884 53.1096 319.051 56.5558 319.386 58.3291C318.516 58.1284 317.311 57.8941 317.077 56.5893ZM324.672 61.1062C325.91 62.478 325.542 64.7866 324.973 65.8907C324.438 65.5227 323.3 64.7197 322.932 64.3851C323.501 63.5821 324.337 62.3107 324.672 61.1062ZM311.623 88.7763C312.058 90.7503 312.393 92.9586 312.594 95.4345C312.159 96.9066 311.188 98.8138 310.921 99.048C310.619 99.3491 310.352 99.0814 310.084 98.7468C309.147 97.3081 307.709 94.4642 307.976 92.9585C309.181 92.4901 311.021 90.3488 311.623 88.7763ZM312.828 100.989C312.828 102.226 312.727 103.464 312.56 104.702C311.958 105.572 311.088 106.409 310.787 106.409C310.352 106.409 309.95 105.84 309.75 105.472C309.013 104.167 308.043 102.026 307.742 101.223C307.876 100.955 308.311 100.018 308.445 99.5833C308.913 100.487 309.683 101.825 310.218 102.394C310.619 102.795 310.753 102.896 311.155 102.427C311.757 101.758 312.527 100.42 312.828 99.5832V100.989ZM309.482 114.74C308.913 114.941 308.177 115.008 307.742 114.539C306.973 113.77 306.471 112.063 306.27 111.528C307.006 110.658 308.311 108.918 308.712 107.847C309.248 108.65 310.017 108.952 310.486 108.952C310.72 108.952 311.289 108.65 311.857 108.249C311.255 110.491 310.452 112.665 309.482 114.74ZM296.232 132.807C301.485 142.912 303.727 151.544 307.608 168.307C310.72 181.757 318.783 190.49 320.858 191.259C322.966 191.995 329.59 188.783 332.635 192.731C337.219 199.323 340.297 197.951 340.297 201.23C339.661 201.832 339.059 203.003 338.992 204.141C340.13 204.709 341.468 206.416 341.468 208.122H337.453C337.553 207.888 338.256 206.315 338.256 204.91C338.256 200.895 333.773 199.289 330.293 193.702C330.059 193.802 329.892 194.036 329.825 194.237C330.694 196.813 333.003 200.193 334.509 202.066C333.605 202.367 332.468 203.672 332.167 204.542C332.535 204.944 333.605 206.884 333.873 208.122H330.059C330.494 207.453 330.996 206.249 330.962 204.843C330.962 204.843 331.832 203.538 331.832 202.501C331.832 197.717 327.449 195.274 322.096 193.467C315.337 191.159 313.363 189.352 309.214 183.865C309.013 183.764 308.779 183.731 308.645 183.731C308.645 187.512 312.158 191.058 314.434 192.932C318.884 196.613 328.988 197.416 328.988 202.468C326.746 201.932 323.969 203.17 323.668 204.944C324.17 205.312 325.876 207.353 326.044 208.122H320.824C319.854 206.048 317.11 204.542 313.43 202.769C313.162 202.769 312.56 203.07 312.861 203.271C314.969 204.776 317.11 206.483 317.11 208.122H310.385C308.645 205.245 303.091 202.267 300.615 198.988C301.117 197.817 301.084 193.969 299.545 192.43C300.013 196.144 298.407 198.252 295.998 198.252C292.82 198.252 292.15 195.174 292.284 192.531C288.202 187.077 292.351 182.527 284.388 170.348C275.689 157.098 266.923 147.395 254.677 137.559C254.677 137.559 257.454 137.927 258.826 137.927C262.807 137.927 267.425 136.053 270.904 134.313C271.139 134.246 271.339 134.146 271.574 134.079C270.938 135.083 270.269 137.592 270.269 139.901C270.269 154.288 289.641 166.701 294.325 182.861L294.66 182.895C296.902 162.351 281.611 148.968 281.611 145.488C281.611 144.719 281.979 144.25 282.581 144.25C286.931 144.25 294.928 175.065 309.85 180.553C310.017 180.486 310.185 180.352 310.251 180.251C299.612 156.931 297.972 141.172 287.7 132.473C292.084 132.071 295.998 130.398 299.11 127.554C302.523 124.476 304.764 120.194 305.735 115.242C305.902 115.643 306.169 116.681 306.705 117.082C307.14 117.417 307.876 117.149 308.344 117.015C305.668 122.134 301.151 128.458 296.232 132.807ZM343.141 201.464C344.881 202.066 345.717 206.316 343.609 207.353C343.476 205.446 342.037 204.208 341.167 203.505C341.368 202.936 342.539 201.598 343.141 201.464ZM335.747 207.888C335.379 206.75 334.843 205.446 333.806 204.308C334.542 203.739 335.68 203.17 336.55 203.706C336.951 204.877 336.784 207.186 335.747 207.888ZM325.877 204.609C325.877 204.609 326.546 204.074 327.315 204.074C328.185 204.074 328.687 204.241 329.055 204.509C329.49 205.546 329.055 206.851 328.486 207.687C327.784 206.048 326.746 205.211 325.877 204.609ZM233.799 199.557C233.531 197.516 232.26 196.044 228.613 195.274C227.509 188.917 222.423 185.872 217.639 186.14C219.178 182.928 247.952 163.422 259.227 147.027C267.826 153.351 279.403 167.571 284.321 177.24C287.132 182.761 285.793 188.783 288.872 193.468C288.872 193.468 289.44 200.561 294.225 201.665C295.764 202.033 297.337 201.431 297.972 201.063C299.478 203.706 302.891 206.55 304.329 208.122H234.669C235.773 205.513 236.275 202.167 233.799 199.557ZM224.13 203.137C224.832 202.903 225.869 203.003 226.605 203.472C227.107 206.583 225.301 207.654 224.297 207.62C225.133 205.278 224.13 203.137 224.13 203.137ZM228.479 207.855C228.145 208.022 227.308 207.989 226.974 207.821C227.442 207.52 228.245 206.684 228.379 206.148C228.479 206.65 228.58 207.42 228.479 207.855ZM229.717 204.007C229.65 203.773 229.818 203.639 230.052 203.472C230.42 203.204 231.223 202.769 232.16 202.535C233.264 205.68 231.089 207.888 230.119 207.788C230.219 206.516 230.018 204.877 229.717 204.007ZM248.822 137.626C249.893 138.696 251.298 140.035 252.67 141.273C243.87 150.909 225.133 165.965 221.353 168.775C220.951 166.6 221.319 163.355 222.323 160.979C224.163 156.63 229.081 145.053 231.725 138.395C237.379 138.495 242.465 138.596 248.822 137.626ZM237.48 131.268C238.216 130.399 240.19 129.161 241.695 128.458C243.134 130.064 244.673 131.503 246.313 132.707C244.472 132.941 239.688 132.172 237.881 131.737C237.446 131.637 237.312 131.436 237.48 131.268ZM233.498 125.413C233.264 125.346 233.264 125.246 233.498 125.012C234.636 123.975 235.974 123.038 237.446 122.502C238.249 123.941 239.186 125.313 240.156 126.618C239.587 126.852 238.416 127.488 238.416 127.488C238.416 127.488 235.706 126.049 233.498 125.413ZM226.238 130.466C226.773 129.796 229.349 127.856 230.754 127.12C232.494 127.421 234.468 128.09 236.509 129.161L234.602 130.9C232.963 131.202 227.71 131.101 226.405 130.767C226.204 130.7 226.171 130.599 226.238 130.466ZM214.594 129.495C216.568 128.358 218.676 127.186 220.048 126.116C222.323 126.952 225.267 127.12 227.375 126.986C227.375 126.986 223.962 129.361 223.159 130.432C220.951 130.934 216.401 130.332 214.627 129.796C214.427 129.729 214.393 129.595 214.594 129.495ZM205.56 126.986C205.192 126.785 205.192 126.517 205.493 126.45C207.4 125.915 210.211 124.443 212.051 123.439C212.051 123.439 215.397 124.309 218.208 124.51C217.17 125.547 212.787 127.555 211.951 128.291C209.809 128.391 207.434 127.789 205.56 126.986ZM198.467 131.436C201.378 129.562 202.884 129.06 203.854 128.692C203.854 128.692 206.865 129.729 209.073 130.03C206.631 132.439 202.148 132.64 198.634 131.904C198.333 131.77 198.333 131.57 198.467 131.436ZM190.604 127.153C190.437 127.053 190.404 126.885 190.571 126.752C191.374 126.149 194.118 124.945 194.987 124.577C197.497 125.647 201.211 126.317 202.516 126.35C202.315 126.651 202.348 126.919 202.348 127.187C201.512 127.32 199.471 128.224 197.865 129.161C195.121 128.926 192.913 128.358 190.604 127.153ZM194.921 121.833C194.653 122 194.385 122.402 194.285 122.636C192.712 122.402 190.571 121.934 189.935 121.365C189.768 121.264 189.801 121.097 189.935 120.93L190.772 120.394C191.508 120.763 193.415 121.465 194.921 121.833ZM209.709 120.963C209.475 121.331 209.776 121.9 210.01 122.168L209.107 122.569C207.334 123.606 205.962 124.075 204.423 124.61C202.281 124.577 199.371 124.075 197.196 123.272C196.928 123.171 196.928 122.904 197.062 122.803C198.3 121.8 201.412 120.227 203.218 119.759C204.791 120.294 207.367 120.829 209.709 120.963ZM215.631 116.078C215.631 116.078 215.464 116.413 215.598 116.814C215.598 116.814 212.553 117.885 210.981 118.956C208.371 118.922 204.523 118.387 203.453 117.55C203.151 117.316 203.151 117.015 203.586 116.781C204.624 116.246 206.832 115.51 207.802 114.773C209.977 115.476 214.226 116.279 215.631 116.078ZM222.691 110.692C222.658 111.026 222.725 111.394 222.992 111.662C220.951 111.93 218.241 113.201 216.635 114.205C213.791 114.372 211.181 113.837 209.341 113.234C209.107 113.134 209.04 113.101 209.274 112.766C210.178 111.528 214.494 110.022 215.765 109.521C217.07 110.089 222.691 110.692 222.691 110.692ZM229.283 106.342L229.316 106.442C227.242 107.011 225.401 107.68 223.795 108.818C221.152 108.751 218.442 108.416 216.568 107.546C216.334 107.413 216.133 107.011 216.736 106.71C218.944 105.405 221.186 104.702 223.661 104C225.201 104.602 226.94 105.338 229.283 106.342ZM233.197 100.42C233.03 101.256 232.929 102.093 232.829 102.929C232.829 103.163 232.796 103.431 232.796 103.665C232.762 103.766 232.762 103.866 232.762 103.966C232.729 104.301 232.729 104.636 232.729 104.97V105.439C230.42 105.204 227.509 103.297 225.97 102.595C225.669 102.461 225.602 102.36 225.836 102.093C227.677 100.052 230.152 99.9179 233.197 100.42ZM234.636 94.8324C234.268 95.903 233.933 97.1075 233.632 98.3789C231.692 97.9105 229.416 97.8436 227.844 98.2451C227.375 97.6428 226.807 97.2079 226.405 96.9067C226.104 96.6726 226.238 96.5722 226.338 96.4718C227.141 95.7692 230.186 94.297 231.993 93.7282C232.863 94.1297 233.733 94.4977 234.636 94.8324ZM240.625 104.903C240.658 102.293 241.561 99.0814 242.264 96.9066C245.275 97.4085 248.454 97.6762 251.8 97.6762C258.625 97.6762 263.811 94.8656 268.362 92.3897C272.812 89.9473 276.659 87.8728 281.912 87.8728C285.593 87.8728 289.641 90.4826 292.987 95.0329C296.266 99.5164 298.307 105.137 298.307 109.755C298.307 114.706 296.667 119.056 293.79 121.666C291.682 123.606 288.972 124.61 285.726 124.61C285.258 124.61 284.79 124.577 284.321 124.543C283.083 124.443 281.879 124.376 280.708 124.376C274.384 124.376 270.202 126.049 266.856 127.387C264.079 128.491 261.871 129.361 258.726 129.361C255.012 129.361 250.495 126.685 246.948 122.402C242.933 117.484 240.625 111.126 240.625 104.903ZM229.483 119.056C229.115 118.889 229.215 118.655 229.449 118.487C230.754 117.45 233.063 116.112 234.435 115.576C234.903 117.049 235.472 118.487 236.108 119.893C234.268 120.026 230.554 119.558 229.483 119.056ZM221.62 123.874C223.193 122.603 225.234 121.632 227.241 120.796C228.981 121.666 232.126 121.9 234.201 122.034C233.464 122.402 231.725 123.774 230.821 124.777C228.345 125.313 223.494 125.38 221.654 124.242C221.52 124.175 221.486 124.008 221.62 123.874ZM225.267 118.956C225.267 119.156 225.301 119.357 225.368 119.491C223.695 120.194 221.286 121.432 219.713 122.569C217.137 122.235 213.925 121.699 212.888 121.331C212.52 121.164 212.386 120.963 212.687 120.662C213.256 120.127 215.932 118.721 217.07 118.153C218.04 118.487 220.483 119.123 225.267 118.956ZM225.769 110.223C227.308 108.985 230.587 107.747 232.829 107.346C232.963 109.219 233.264 111.126 233.732 113C231.758 113.469 226.539 111.126 225.836 110.725C225.702 110.625 225.535 110.39 225.769 110.223ZM231.089 114.74C231.089 114.74 230.052 115.309 229.55 115.576C229.048 115.844 227.208 117.015 227.208 117.015C224.899 117.283 221.118 117.249 218.475 116.279C218.274 116.212 218.241 116.045 218.341 115.911C219.512 114.64 223.226 113.669 223.628 113.502C224.33 113.234 224.498 113 224.732 112.732C226.606 113.636 229.383 114.506 231.089 114.74ZM291.849 171.619H291.816C287.6 164.158 273.18 149.737 273.18 139.466C273.18 135.35 274.886 133.142 277.763 132.506C278.566 132.406 279.403 132.373 280.306 132.339C291.716 133.443 299.679 160.779 305.701 175.367C305.701 175.4 305.634 175.4 305.634 175.4C290.009 158.704 290.444 141.64 281.912 141.64C280.507 141.64 278.935 142.745 278.935 144.819C278.935 150.875 287.667 155.191 291.849 171.619ZM263.343 86.0661C259.596 88.1071 256.149 89.7131 251.8 89.7131C241.896 89.7131 234 87.1033 229.048 82.118C224.966 78.0696 223.896 73.4523 223.896 71.5786C223.929 67.5302 226.673 63.2475 234.402 63.2475C243.669 63.2475 256.216 76.5974 263.343 86.0661ZM251.9 52.2062C251.164 52.9423 248.721 53.9126 247.383 54.1134C246.915 54.2138 246.48 53.9795 246.714 53.1431C247.483 50.2991 248.186 48.4254 248.688 47.6559C250.327 47.1875 252.536 46.5183 253.941 45.4142C252.904 47.6559 251.9 52.2062 251.9 52.2062ZM253.774 62.2772C253.606 62.9464 253.305 63.4817 253.138 63.6825C252.77 63.3813 252.368 63.0802 252 62.8125C252.803 62.7457 253.673 62.411 253.774 62.2772ZM250.997 58.9983L250.796 61.9092C250.026 61.3404 249.257 60.805 248.454 60.2697C248.42 60.2362 248.387 60.1693 248.387 60.1359C248.554 59.8682 250.127 59.0318 250.997 58.9983ZM248.722 57.66C248.922 57.0912 249.023 56.3885 248.855 55.7194C249.993 55.4183 251.599 54.9164 252.235 54.4814C252.235 54.4814 251.566 55.9536 251.499 56.8235C250.495 56.9573 249.525 57.2584 248.722 57.66ZM259.395 63.3813C258.123 63.5821 255.748 64.5858 254.878 65.1546C254.744 65.0543 254.644 64.9539 254.51 64.8201C254.777 64.4186 255.815 62.8126 255.614 61.7084C256.35 61.4408 257.454 60.5374 258.056 59.9351C258.759 60.1693 259.629 60.3032 260.398 60.1359C259.93 61.2065 259.562 62.3107 259.395 63.3813ZM260.298 67.9651C260.398 68.4336 260.398 69.6046 260.265 70.2738C259.83 69.8054 259.361 69.3369 258.893 68.8685L256.685 66.4595C257.287 65.8573 258.625 65.3554 259.294 65.1212C259.16 66.1249 259.729 67.5302 260.298 67.9651ZM254.61 53.9126C256.919 53.0092 260.064 50.5333 260.867 49.5296C260.867 49.5296 260.9 50.8344 261.168 51.3698C259.83 53.1096 258.759 55.4517 258.19 57.4927C256.919 58.5633 255.045 60.437 253.238 60.437C252.937 59.5671 253.707 55.7863 254.61 53.9126ZM262.372 42.5702C262.306 43.4401 261.971 45.18 261.034 46.6521C259.897 48.4924 255.313 51.5705 254.777 51.5705C254.443 51.5705 254.309 51.3698 254.376 51.0687C254.644 49.6969 255.547 46.7191 256.082 45.2469C258.224 45.0461 260.7 43.9755 262.372 42.5702ZM257.253 43.0721C256.986 43.139 256.818 43.0386 256.818 42.771C256.818 42.5033 258.592 37.9195 258.558 34.4733C260.332 33.9714 263.309 32.0308 263.309 32.0308C263.744 31.897 263.878 32.0643 263.912 32.6331C263.978 38.4883 262.306 41.6334 257.253 43.0721ZM275.789 43.4736C275.221 44.8119 275.087 47.0536 275.12 49.3288C274.25 50.8679 271.406 53.8457 270.034 53.8457C269.566 53.8457 269.432 53.3104 269.432 52.6747C269.499 50.7341 270.135 48.1912 270.135 48.1912C270.971 47.4551 271.339 46.6521 271.64 46.1168C273.414 45.548 275.221 44.0424 275.789 43.4736ZM286.964 40.3954L286.998 40.5293C284.756 41.7003 282.046 44.6446 282.046 44.6446C282.046 44.6446 280.741 44.8119 279.403 45.5146C279.035 45.7153 277.964 46.4849 277.295 47.2544C277.395 44.5443 277.462 42.5702 279.035 41.3992C280.641 40.2616 282.347 39.4921 282.347 39.4921C283.652 39.927 285.358 40.2281 286.964 40.3954ZM293.255 35.912C293.255 35.912 293.388 36.1462 293.087 36.2131C291.716 36.5143 289.608 37.7522 288.303 38.8229C288.303 38.8229 285.057 38.2876 284.622 37.8526C285.994 36.6146 287.834 35.0756 288.905 34.0049C290.143 34.2391 292.686 35.1759 293.255 35.912ZM294.794 65.4892C294.024 65.3888 293.857 65.1212 293.857 65.1212C294.928 64.084 296.165 62.1768 296.433 59.3663L297.437 58.8645C298.039 60.9723 298.775 62.846 299.612 64.5858C298.909 65.1881 296.567 65.69 294.794 65.4892ZM300.582 87.5048C300.649 88.0402 301.084 88.5086 301.385 88.8097C301.084 89.8135 300.682 91.018 300.682 92.189C300.649 92.1556 300.616 92.1222 300.582 92.1222C299.846 91.0181 299.076 89.9474 298.273 88.9436C299.009 88.6425 300.114 88.2074 300.582 87.5048ZM297.939 82.9881C297.939 82.9881 298.976 81.8505 300.281 81.1144H300.415C300.682 82.0178 300.816 83.9918 300.415 85.6313C299.746 86.4678 298.173 87.4715 297.136 87.4715L296.935 87.4381C297.838 86.2001 297.905 84.4937 297.939 82.9881ZM297.102 75.1587C298.039 74.7237 299.478 74.3891 300.381 74.3222C300.047 75.6606 299.779 77.367 300.047 78.6718C300.047 78.6718 297.872 80.2109 296.567 81.5492C296.299 81.8504 296.065 81.5158 296.065 81.2147C295.998 79.1068 296.199 76.932 297.102 75.1587ZM295.597 71.1102C294.091 71.7794 291.916 73.3854 291.214 73.3854C290.946 73.3854 290.745 73.2181 290.745 72.7831C291.046 71.0433 291.983 68.8016 292.719 67.1956C294.058 67.5971 295.262 67.5971 297.604 67.3629C296.567 68.8016 295.597 71.1102 295.597 71.1102ZM291.247 82.3522C291.046 82.4526 290.511 82.4191 290.511 81.7834C290.444 79.274 290.812 77.7015 291.314 75.8613C292.385 75.259 293.589 74.3891 294.827 73.6196C294.827 73.9876 294.961 74.3557 295.128 74.4895C294.258 76.5304 294.024 78.3707 293.924 80.7797C292.887 81.1811 291.414 82.2853 291.247 82.3522ZM294.292 82.9544C294.526 83.4898 295.028 84.092 296.032 83.9917C296.065 84.4266 295.898 85.4973 295.73 85.8988C295.329 85.6311 294.894 85.3634 294.493 85.0958C293.957 84.6608 293.422 84.2259 292.887 83.8244C293.221 83.5567 293.857 83.1886 294.292 82.9544ZM285.459 78.1364C285.459 78.839 285.291 79.8094 284.99 80.2778C284.288 80.1439 283.585 80.0436 282.882 80.0101C284.154 79.4413 285.459 78.1364 285.459 78.1364ZM280.808 74.1549C281.477 74.0546 282.749 73.0843 283.15 72.5489C283.15 72.5489 282.615 75.3594 283.351 77.5342C282.213 78.6049 281.109 79.2406 280.641 79.2406C280.139 79.2406 280.105 76.3967 280.808 74.1549ZM280.005 66.861C280.005 66.861 282.046 64.6528 282.448 63.5486C282.448 63.5486 284.054 63.7159 285.024 63.4817C284.622 64.7866 284.488 65.8573 284.488 67.2625C283.317 70.4745 281.21 72.3482 280.206 72.3482C279.67 72.3482 279.102 70.1399 280.005 66.861ZM288.972 49.998C290.143 50.7675 291.548 51.3698 293.054 51.4032C293.054 51.4032 290.578 52.9758 289.507 56.1209C287.701 56.8904 285.894 57.1915 284.02 56.9908C283.686 56.9908 283.251 56.8569 283.418 56.4554C284.02 54.7156 286.63 51.7378 288.972 49.998ZM284.589 48.8604C285.124 48.9273 286.529 49.0277 287.533 48.9273C287.065 49.4292 285.593 50.366 284.154 51.8716C282.715 51.4367 283.819 50.2657 284.589 48.8604ZM292.619 43.3397C291.448 44.4773 290.411 46.4848 288.872 46.9533C287.299 47.4217 284.288 47.0871 283.853 46.9533C283.384 46.8529 283.451 46.3845 283.619 46.1837C285.024 44.1762 287.433 42.3025 288.939 41.6334C289.708 42.0683 291.113 42.9048 292.619 43.3397ZM295.73 42.1353C294.292 41.9345 291.314 40.8639 290.611 40.3285C290.31 40.1278 290.444 39.8936 290.678 39.6594C291.715 38.7894 294.593 37.2838 296.466 37.2169C296.132 38.756 295.864 40.3954 295.73 42.1353ZM295.664 45.2804C295.63 45.8826 295.664 46.4849 295.697 47.0871C295.73 47.9236 295.764 48.7266 295.831 49.5296C294.927 50.1318 291.749 49.7303 290.31 48.392C290.745 48.1912 291.582 47.4886 292.518 46.1837C293.455 44.7785 294.526 43.8082 294.526 43.8082L295.664 43.8751L295.664 45.2804ZM291.08 56.8569C291.08 55.8532 293.857 52.3401 295.329 52.0724C295.797 52.0055 295.931 52.0724 296.065 52.2062C296.266 53.8122 296.534 55.2844 296.868 56.6562C295.296 57.8607 291.08 57.4592 291.08 56.8569ZM285.994 61.4408C285.291 61.7419 284.12 61.8757 283.552 61.7419C283.752 61.0727 284.857 59.3998 285.425 58.9314C286.295 58.8979 287.634 58.7641 288.336 58.5299C287.466 59.266 286.563 60.6043 285.994 61.4408ZM290.779 58.7641C291.916 59.2325 292.953 59.4333 294.292 59.5002C294.292 60.8385 292.719 63.5821 291.682 64.3182C289.407 65.3219 287.031 65.8573 286.697 65.5227C286.362 65.1881 287.5 60.8051 290.779 58.7641ZM276.793 66.1249H276.626L276.994 59.3329C279.537 57.2585 282.113 53.1431 282.113 53.1431C282.113 53.1431 282.414 53.3773 282.983 53.3438C282.247 54.5483 281.377 55.6859 281.377 57.1246C281.377 58.2957 282.213 58.7306 283.485 58.831C282.514 59.8013 281.979 61.1062 281.544 62.1434C280.206 63.9836 277.864 66.058 276.793 66.1249ZM276.258 52.3066C277.128 49.3957 280.172 47.3213 280.808 47.0536C280.942 47.7897 281.912 48.5258 282.715 48.5927C281.845 49.8307 281.377 50.6002 281.042 51.9051C279.804 53.7453 277.83 56.054 276.559 57.1246C276.325 57.3254 276.124 57.1915 276.09 57.0243C275.89 55.8197 275.89 53.578 276.258 52.3066ZM274.25 69.1362C273.414 70.7422 271.206 72.3482 269.901 72.3482C269.7 72.3482 269.499 72.3817 269.499 72.0471C269.499 71.7459 270.771 66.9614 270.938 64.3851C271.808 63.3479 274.083 61.4408 275.087 60.2697C275.187 62.478 275.087 67.5302 274.25 69.1362ZM273.38 78.3707C273.614 78.8391 274.083 79.2406 274.484 79.3075C274.451 79.709 274.484 80.5455 274.551 80.9805C273.113 81.4154 271.774 81.9173 270.536 82.4526C270.168 81.9842 269.767 81.4489 269.332 80.8466C270.536 80.4786 272.51 79.2406 273.38 78.3707ZM268.863 74.4226C270.536 74.2888 272.343 73.5192 273.648 72.5489C273.38 73.4189 273.18 75.0583 273.18 76.2628C271.841 77.735 270.034 79.0399 268.295 79.5083C268.127 79.3075 267.993 79.1068 267.826 78.9061C267.726 77.0658 268.395 75.6271 268.863 74.4226ZM274.384 57.9946C272.979 59.5671 271.64 60.6712 270.436 61.8757C269.968 62.3107 269.432 62.9464 268.796 62.9464C268.295 62.9464 268.228 62.3107 268.228 62.0096C268.228 60.8051 268.696 58.1284 269.164 56.1544C270.837 56.2547 273.179 54.816 274.317 53.4108C273.815 56.3551 274.384 57.9946 274.384 57.9946ZM260.8 57.8942C260.432 57.8942 260.399 57.7269 260.432 57.4927C260.766 55.7528 261.737 53.4777 262.674 51.9051C264.447 51.5705 266.622 50.3995 267.893 49.3957C267.893 49.3957 267.458 50.8679 267.124 53.6115C266.02 55.7194 262.975 57.8942 260.8 57.8942ZM262.807 59.634C264.447 58.9648 265.819 58.0949 267.09 56.9239C267.09 56.9239 266.254 59.8682 265.886 62.8125C264.715 64.1174 262.239 65.7569 261.636 65.7569C261.402 65.7569 261.235 65.5896 261.235 65.3219C261.235 63.7159 262.105 60.7716 262.807 59.634ZM267.492 71.679L267.157 73.7534C266.722 74.6568 266.321 75.7609 266.22 76.8985C265.417 75.9617 264.581 74.9579 263.677 73.9207C264.581 73.5192 266.354 72.6828 267.492 71.679ZM262.506 72.4486C262.44 72.4486 262.406 72.4486 262.339 72.4486C262.172 72.2813 262.005 72.0805 261.837 71.9132C262.005 70.9095 262.239 68.9689 262.138 67.8648C263.109 67.6306 265.484 66.058 266.555 65.3219C267.257 65.6231 267.893 65.6565 268.629 65.3554C268.562 66.1919 268.094 68.1325 267.86 69.1028C266.187 70.5749 264.38 71.5786 262.506 72.4486ZM278.6 76.8986C278.6 77.9023 278.399 79.341 278.232 80.2109C277.563 80.3113 276.893 80.4117 276.258 80.579C276.191 80.2778 276.057 79.7091 276.09 79.1068C276.994 78.8392 278.232 77.6681 278.6 76.8986ZM275.656 76.9654C275.388 76.9654 275.254 76.8315 275.154 76.5639C275.12 76.3966 274.652 73.5527 275.388 71.244C275.856 70.5749 276.392 68.9354 276.525 68.1993C277.094 68.1993 277.763 68.0989 278.198 67.8647C278.198 67.8647 277.73 69.5377 277.73 71.1771C277.73 72.2812 278.098 73.285 278.667 74.0211C278.667 74.0211 277.462 76.9654 275.656 76.9654ZM289.273 71.6455C288.135 73.1846 286.864 74.456 285.425 75.5936C284.99 75.8613 284.857 75.4598 284.857 75.1921C284.723 73.3519 285.024 71.5452 285.459 69.8722L286.764 67.6974C289.106 67.5302 291.08 66.7271 291.08 66.7271L291.214 66.8944C289.842 69.27 289.273 71.6455 289.273 71.6455ZM287.199 76.7981C287.567 76.4636 288.637 75.3594 289.072 74.6234C289.072 74.9914 289.24 75.6271 289.574 75.8948C288.771 78.9395 288.771 81.3485 288.771 81.3485C288.671 81.3485 288.57 81.3485 288.503 81.3485C288.035 81.1477 287.567 80.9804 287.098 80.8132C287.433 79.5083 287.332 77.9023 287.199 76.7981ZM302.322 78.6384C301.853 78.6384 301.753 78.0695 301.753 77.7684C301.753 75.9282 302.489 73.3519 303.125 72.1474C302.054 72.0136 298.708 72.7162 298.106 72.8501C297.638 72.9504 297.37 72.5824 297.47 72.2144C297.604 71.5117 299.277 68.2328 300.214 66.9279L300.716 66.7606C302.422 69.8723 304.329 72.5489 306.103 75.4933C305.4 76.6643 303.125 78.6384 302.322 78.6384ZM305.366 82.0177C305.433 80.8466 305.266 79.8763 305.199 79.3745C305.969 78.7387 306.671 78.0027 307.14 77.2331C307.876 78.538 308.579 79.9432 309.248 81.4154C308.378 81.8504 306.27 82.3188 305.366 82.0177ZM307.541 89.7465C306.939 88.2744 306.604 85.9323 307.006 83.9582C307.909 83.9248 309.214 83.5568 309.95 83.1552C310.218 83.8244 310.452 84.4936 310.686 85.2296C310.285 87.0699 308.612 90.1146 308.043 90.1146C307.909 90.1146 307.675 90.1146 307.541 89.7465ZM306.738 103.063C306.939 104.033 307.742 106.108 307.742 106.108C307.207 107.178 306.571 107.948 306.17 108.349C306.103 107.111 305.935 105.873 305.735 104.635C305.969 104.234 306.437 103.531 306.738 103.063ZM306.337 94.6984H306.471C306.839 96.3044 307.107 97.0405 307.374 97.81C306.805 99.048 305.835 100.888 305.099 102.059C304.831 101.122 304.564 100.219 304.196 99.2822C305.099 97.9104 305.768 96.3044 306.337 94.6984ZM303.091 89.2112C304.062 88.6758 304.965 87.4044 305.367 86.9026C305.132 88.7093 305.935 91.1518 305.935 91.1518C305.233 93.5273 304.463 95.3675 303.56 96.7059C303.393 96.7727 303.259 96.7393 303.091 96.6391C302.79 96.0033 302.456 95.3342 302.121 94.6985C302.155 91.5199 303.091 89.2112 303.091 89.2112ZM302.355 80.7798C302.824 80.713 303.493 80.3448 303.694 80.1441C303.694 81.014 303.66 81.7166 303.593 82.4527C303.527 83.1219 303.694 83.3561 303.995 83.4899C304.229 83.5903 304.664 83.7241 305.065 83.7911C304.898 84.661 303.694 86.3004 302.958 86.635C302.456 86.8692 302.121 86.5346 302.255 85.9658C302.422 85.3636 302.59 82.4861 302.355 80.7798ZM298.574 26.1087C298.14 26.4098 297.638 26.6775 297.002 27.1125C296.768 26.8113 296.366 26.0752 296.299 25.5734C296.634 25.3726 297.002 25.038 297.236 24.7034C297.504 25.1384 298.106 25.6737 298.574 26.1087ZM299.846 27.0455C299.545 27.8151 299.244 28.6181 298.909 29.3876C298.34 29.3876 297.504 29.2203 297.102 29.0865C297.571 28.6181 299.143 27.514 299.846 27.0455ZM300.649 18.8482C300.649 18.0787 302.389 17.3091 303.259 17.2422C303.024 18.246 302.723 19.2497 302.422 20.22C301.887 20.0527 300.649 19.3501 300.649 18.8482ZM301.72 22.2275C301.351 23.3317 300.917 24.3689 300.515 25.4395C299.712 25.0046 298.742 24.0343 298.34 23.4655C299.009 22.3948 299.846 21.8929 300.615 21.4914C300.85 21.5918 301.352 21.9599 301.72 22.2275ZM295.296 30.291C295.296 30.291 296.968 31.0271 298.307 30.9936C297.805 32.3989 297.336 33.8376 296.935 35.3432C296.768 35.3097 292.418 33.1015 291.214 32.7669C290.979 32.7 291.08 32.4658 291.147 32.3989C291.214 32.265 292.519 31.2613 292.519 31.2613C292.519 31.2613 294.526 30.9267 295.296 30.291ZM295.496 28.1831C295.095 28.685 294.091 29.2538 293.221 29.488C293.054 28.685 293.221 27.2128 293.522 26.4767C293.924 26.4432 294.392 26.3429 294.76 26.1756C294.861 26.9117 295.128 27.6478 295.496 28.1831ZM288.269 21.5918C287.6 21.1903 285.291 17.811 285.225 17.6437C285.191 17.5099 285.191 17.2757 285.66 17.2757C287.567 17.2757 290.879 21.6253 290.879 21.6253C289.942 22.0937 288.905 22.0268 288.269 21.5918ZM291.816 22.5621C292.452 23.2312 294.058 23.8335 295.664 23.7331C295.128 24.3354 294.125 24.8038 292.887 24.8038C291.95 24.8038 290.411 24.0008 289.44 23.0305C290.176 23.1978 291.113 22.7628 291.816 22.5621ZM275.555 38.0868C277.596 37.518 280.072 36.0458 280.072 36.0458C280.005 36.715 279.537 38.5217 279.537 38.5217C279.537 38.5217 278.834 38.9901 276.76 40.5627C275.388 41.5664 272.711 43.6409 272.276 43.6409C271.808 43.6409 271.975 42.7709 271.975 42.2022C271.975 41.6334 273.246 35.3097 273.681 34.8748L275.22 33.7372C275.22 33.7372 274.719 36.3469 274.719 37.4845C274.719 38.0868 275.187 38.1871 275.555 38.0868ZM271.272 35.3432C271.272 35.3432 271.507 35.3767 271.607 35.3432C270.57 38.2541 269.8 41.3322 269.633 44.6781C269.332 46.0499 267.525 47.6559 263.744 49.1615C263.41 49.3288 263.309 49.2619 263.209 49.0277C263.075 48.6596 262.941 48.0908 263.008 47.4886C264.28 45.113 264.681 43.0052 264.681 41.098C267.191 39.492 269.399 37.6518 271.272 35.3432ZM266.388 30.5587C267.492 30.1572 269.968 28.5846 269.968 28.5846C269.968 28.5846 268.93 32.5662 269.399 34.4064C268.395 35.7113 266.756 37.2169 265.283 38.2206C266.153 36.2801 266.521 32.0643 266.388 30.5587ZM240.457 53.5446C240.457 52.1059 240.658 50.1318 241.394 48.3585C242.297 47.9905 243.87 47.2879 244.874 46.7191C245.342 47.5221 246.446 47.8232 246.446 47.8232C245.877 48.9273 245.075 50.5668 244.706 51.972C243.402 52.7081 242.264 53.578 241.026 53.9795C240.558 54.1468 240.457 53.8457 240.457 53.5446ZM244.271 54.5149C244.271 54.5149 243.97 56.2547 244.606 56.5224C245.242 56.79 246.814 56.3216 246.814 56.3216C246.948 57.0577 246.58 58.3291 246.312 58.9648C246.279 58.9648 246.279 58.9648 246.279 58.9648C244.272 57.8273 242.231 56.8904 240.156 56.2547C242.364 55.8532 244.271 54.5149 244.271 54.5149ZM238.149 53.7453C238.149 53.7453 236.643 54.1134 235.706 54.3141C235.271 54.4145 235.137 54.2472 235.104 54.1468C234.87 53.3104 234.836 52.4404 234.97 51.7378C236.442 51.3698 238.818 49.2284 238.818 49.2284C238.818 49.2284 237.848 51.2694 238.149 53.7453ZM234.401 57.8942C247.918 57.8942 263.443 77.2331 268.194 83.6237L265.752 84.9285C260.934 78.538 246.346 60.6043 234.401 60.6043C224.732 60.6043 221.319 66.493 221.319 71.5786V71.6455C221.319 76.9989 226.907 92.3563 251.8 92.3563C257.253 92.3563 259.796 91.1852 268.395 86.568C274.551 83.2891 277.061 82.553 281.912 82.553C293.422 82.553 303.627 97.7765 303.66 109.755C303.627 116.279 301.418 121.9 297.37 125.614C293.857 128.859 289.173 130.298 283.853 129.83C276.626 129.194 272.678 130.8 268.83 132.339C265.919 133.477 262.908 134.681 258.725 134.681C253.372 134.681 247.417 131.369 242.833 125.781C238.048 119.926 235.305 112.331 235.305 104.903C235.305 104.702 235.338 104.535 235.338 104.368C235.438 101.357 236.308 98.0777 237.078 95.6352L239.754 96.2709C239.018 98.5795 238.182 101.691 238.048 104.401V104.97C238.048 111.762 240.591 118.755 244.974 124.108C249.022 129.027 254.175 132.005 258.725 132.005C262.372 132.005 264.882 131.001 267.826 129.83C271.774 128.257 276.224 126.484 284.087 127.153C288.604 127.554 292.585 126.35 295.53 123.64C298.942 120.495 300.883 115.443 300.883 109.755C300.883 109.755 300.883 109.721 300.883 109.688C300.883 99.0146 291.682 85.2298 281.912 85.2298C275.99 85.2298 271.674 87.5719 267.123 90.0478C262.64 92.5237 257.956 95.0666 251.799 95.0666C240.792 95.0666 231.323 91.9215 225.334 85.9659C220.349 81.0139 218.575 75.1252 218.575 71.5786C218.609 64.7531 223.494 57.8942 234.401 57.8942ZM233.063 55.3513L232.595 55.3848C231.357 55.4852 230.219 55.6525 229.115 55.8867L228.446 55.987C228.613 55.251 228.914 54.2472 229.516 53.3438C230.386 53.0762 231.725 52.8754 232.896 52.5408C232.762 52.9758 232.561 54.9833 233.063 55.3513ZM201.077 118.32C200.24 118.621 197.463 119.792 196.526 120.428C193.682 119.692 191.608 118.922 189.801 117.919C189.567 117.785 189.567 117.55 189.801 117.383C193.08 115.208 198.333 115.61 200.943 116.781C200.675 117.45 200.608 117.852 201.077 118.32ZM180.968 123.64C180.801 123.473 180.968 123.339 180.968 123.339C180.968 123.339 186.221 122.302 186.957 121.967C187.861 122.536 190.169 123.573 192.043 123.74C189.366 124.711 187.861 126.216 187.861 126.216C184.95 125.413 183.043 124.777 180.968 123.64ZM166.715 117.818C167.752 117.283 171.767 117.785 171.767 117.785C173.373 119.993 175.816 121.499 177.79 122.201C177.02 122.536 177.12 123.172 177.622 123.673C173.474 123.205 168.221 119.859 166.715 118.086C166.615 117.952 166.548 117.919 166.715 117.818ZM180.165 114.405C179.095 113.87 176.652 112.331 175.113 110.491C174.879 110.223 174.946 110.056 175.247 110.056C179.095 110.089 183.344 111.829 186.422 113.368C184.849 113.301 181.872 113.703 180.165 114.405ZM184.548 120.562V120.729C183.377 120.997 181.838 121.264 180.667 121.398C178.492 120.796 175.883 119.023 174.845 117.952C174.712 117.818 174.845 117.684 175.013 117.617C175.347 117.484 177.422 117.049 179.028 117.116C180.634 118.454 182.641 119.558 184.548 120.562ZM186.422 118.086C186.79 118.387 187.76 119.056 188.831 119.458C188.463 119.625 188.095 119.893 187.827 120.093C185.987 119.09 183.243 117.718 181.37 116.446C181.203 116.313 181.169 116.179 181.403 116.112C184.147 115.242 187.392 114.907 189.467 115.443C188.63 115.811 187.125 116.647 186.388 117.35C186.121 117.617 186.221 117.919 186.422 118.086ZM168.02 106.309C169.358 106.61 171.499 107.513 172.637 108.517C172.269 108.718 172.068 109.052 172.068 109.353C171.165 108.885 169.525 108.684 168.923 108.651C168.354 107.881 167.852 107.045 167.685 106.61C167.585 106.242 167.618 106.208 168.02 106.309ZM172.604 111.06C174.042 112.666 175.849 114.138 177.79 115.409C176.719 115.309 174.109 115.744 173.172 116.045C171.6 115.443 167.618 111.963 167.25 110.926C167.183 110.725 167.217 110.658 167.317 110.558C168.12 109.956 171.098 110.457 172.604 111.06ZM161.93 106.844C162.968 106.844 164.841 107.145 165.979 107.446L166.983 108.818C166.313 108.952 165.51 109.152 165.343 109.587C164.607 109.253 163.737 109.018 163.001 108.985C162.633 108.584 162.064 107.747 161.763 107.111C161.663 106.944 161.763 106.844 161.93 106.844ZM165.31 111.494C166.146 112.933 167.853 114.84 169.392 115.677C168.254 115.61 167.05 115.61 165.979 115.811C164.473 114.573 162.031 112.13 161.027 110.993C160.893 110.825 161.06 110.658 161.295 110.658C162.767 110.491 164.339 110.892 165.31 111.494ZM185.887 129.462C183.846 129.294 178.693 127.22 177.087 125.38C177.087 125.38 178.292 125.614 179.362 125.079C180.935 126.082 184.783 127.488 186.79 127.856C185.853 128.391 185.619 128.692 185.887 129.462ZM195.288 131.737C191.374 131.971 189.768 131.503 188.162 129.93C187.76 129.529 187.928 129.161 189.065 128.625C190.303 129.428 193.247 130.332 195.456 130.733C195.188 131.168 195.088 131.536 195.288 131.737ZM195.288 187.044C195.288 186.241 195.924 185.538 196.627 185.538C197.631 185.538 197.965 186.241 197.999 187.01C198.032 188.114 197.062 188.683 196.56 188.683C195.757 188.683 195.288 188.148 195.288 187.044ZM141.688 159.808H141.655C140.383 158.202 137.573 156.529 134.695 154.254C131.416 151.678 128.907 147.897 128.907 143.28C128.907 139.767 131.651 136.789 134.829 136.789C139.346 136.789 141.956 140.001 143.896 143.079C144.499 144.016 144.766 145.154 144.766 146.425C144.766 148.031 143.194 155.927 141.688 159.808ZM176.485 208.089C176.485 206.817 177.924 205.847 177.924 203.237C177.924 198.453 172.637 194.572 169.325 193.166C167.284 187.211 160.927 184.902 154.302 186.542C149.718 181.556 145.636 171.653 144.699 162.485C146.74 157.399 147.945 151.711 148.413 145.722C149.718 143.581 150.722 140.436 150.253 137.559C157.447 140.202 171.566 143.146 188.028 143.146C198.835 143.146 207.902 141.272 214.326 139.064L214.36 139.165C210.244 143.815 205.928 155.693 199.939 163.054C194.184 170.08 189.032 176.303 189.032 183.664C189.032 188.014 191.173 189.687 191.173 191.928C191.173 192.665 190.872 193.401 190.872 195.542C190.872 197.114 191.273 198.386 192.277 200.025C191.742 201.196 191.34 202.669 191.34 204.141C191.34 205.68 191.876 207.386 192.177 208.122H176.518L176.485 208.089ZM168.656 206.014C168.488 204.944 168.187 203.538 167.886 202.769C169.124 201.698 170.128 202.033 170.128 203.104C170.128 204.208 169.693 205.446 168.656 206.014ZM170.864 200.728C170.864 200.728 172.068 199.423 172.336 199.055C173.775 200.226 174.611 201.765 174.611 203.639C174.611 204.208 174.377 204.776 174.109 205.011C173.574 203.739 172.637 202.735 171.633 202.2C171.533 201.364 170.864 200.728 170.864 200.728ZM171.265 205.579C171.868 206.014 172.169 206.583 172.202 207.252C171.834 207.721 170.764 207.788 169.793 207.62C170.329 207.185 171.031 206.349 171.265 205.579ZM214.929 208.122C213.791 206.75 213.189 203.84 214.728 201.431C213.59 200.326 212.821 198.72 212.787 197.081C212.754 196.111 212.988 195.074 213.59 194.17C211.817 194.772 211.081 196.144 211.081 197.951C211.081 199.189 211.616 200.594 212.519 201.431C210.98 203.237 210.746 206.684 211.215 208.122H197.43C196.225 207.018 195.523 205.211 195.523 203.405C195.523 201.498 195.857 200.226 196.359 199.323C194.92 197.114 194.485 194.036 195.656 191.293C196.292 189.854 199.638 190.122 199.638 186.943C199.638 185.337 198.701 183.999 196.593 183.999C195.322 183.999 193.749 185.136 193.749 187.278C193.281 186.575 192.946 185.069 192.946 184.133C192.946 177.14 197.43 173.091 204.824 163.388C210.01 156.563 215.163 143.815 219.914 138.562C221.62 138.428 223.795 138.328 226.405 138.328H228.78C226.07 145.087 221.553 155.76 219.78 159.909C217.806 164.56 218.274 169.612 219.713 173.359C227.275 168.307 245.71 153.05 254.711 143.113C255.246 143.581 255.748 144.016 256.183 144.384C243.937 161.046 219.211 179.181 216.568 181.857C213.925 184.534 211.784 187.077 212.386 190.49C218.375 187.713 224.33 190.791 225.234 195.509C225.401 196.512 225.368 198.018 226.673 198.286C228.379 198.62 229.717 199.055 230.52 200.393C230.052 200.695 228.914 201.464 228.412 202.1C227.542 201.431 226.739 201.13 225.936 201.063C225.368 199.457 223.895 197.984 222.323 197.416C221.955 195.575 220.315 192.999 218.174 192.999C217.17 192.999 216.434 193.468 216.434 193.468C218.576 193.468 219.847 195.743 220.115 198.118C221.118 198.553 223.293 199.959 223.293 201.096C223.293 201.799 222.959 202.167 222.122 202.501C222.356 203.706 222.691 204.843 222.256 206.148C222.122 206.851 221.62 207.687 221.052 208.122L214.929 208.122ZM347.39 208.122C348.896 203.973 346.755 200.059 343.877 198.787C343.275 197.349 340.264 195.442 338.524 194.204C336.081 192.497 335.011 187.11 328.754 187.11C325.743 187.11 325.341 187.545 323.033 187.545C320.122 187.545 313.53 175.735 311.791 167.571C308.913 154.02 304.965 140.704 301.552 133.376C306.805 127.387 317.01 114.037 317.01 100.989C317.01 88.9435 314.166 81.7834 310.72 75.9951C311.155 75.6606 312.46 75.0248 313.597 75.0248C315.471 75.0248 318.382 76.3632 321.56 76.3632C325.308 76.3632 328.352 74.4561 328.352 70.8426C328.352 68.9689 327.817 67.7978 326.813 67.4298C328.252 62.3776 326.01 58.463 323.836 57.66C323.434 60.2697 322.497 62.1768 321.46 63.4148C318.75 61.5411 317.913 60.437 317.679 59.3329C318.65 59.9017 320.322 60.1359 321.293 60.069C320.356 54.9498 320.423 51.6709 320.791 48.6262L321.259 47.9236C321.728 49.998 323.434 51.5371 324.271 51.5371C324.94 51.5371 325.074 51.2359 325.408 51.2359C325.709 51.2359 326.144 52.6412 326.847 52.6412C327.416 52.6412 327.951 52.4739 328.654 52.0055C327.917 53.4777 327.817 55.4517 328.419 57.1246C331.029 57.4258 333.907 55.7528 336.617 52.1059C341.669 53.3104 344.446 48.6597 347.457 43.0386C350.368 41.7003 352.744 39.5924 352.744 36.2131C352.744 32.8004 349.063 30.4583 348.561 29.4545C346.487 25.3057 343.442 23.064 338.925 21.826C336.918 19.5509 334.074 17.7776 332.735 17.1753C331.866 14.8332 329.557 12.625 326.914 12.4911C317.445 6.40171 305.768 5.09684 305.768 5.09684C303.794 2.98896 299.946 1.3495 296.534 1.3495C265.953 1.3495 245.509 35.1425 219.178 51.1021C204.389 60.069 194.452 60.7381 164.473 60.7381C141.487 60.7381 116.762 56.0539 104.917 56.0539C83.2698 56.0539 75.5409 65.8573 64.7338 65.8573C50.7482 65.8573 11.7023 47.4886 11.7023 24.3019C11.7023 17.5099 14.2117 9.91485 22.6432 9.91485C29.4018 9.91485 31.8442 14.1975 31.8442 17.2757C31.8442 20.3204 31.1751 22.0602 31.1751 23.3986C31.1751 26.8448 32.8145 29.053 35.1232 31.3617C36.5619 32.7669 37.8667 37.7857 40.2088 37.7857C43.8223 37.7857 47.4358 28.9861 47.4358 24.7704C47.4358 21.2572 43.3874 18.7479 42.8855 16.7069C41.2795 10.1156 38.1009 0.211914 22.6432 0.211914C11.2004 0.211914 0.292969 7.63968 0.292969 24.3019C0.292969 47.7228 27.5281 71.7459 58.7448 81.4489C60.953 82.185 63.4289 82.8207 65.2692 83.1552C65.8045 83.2556 65.9049 83.3894 65.6707 84.0586C64.7004 86.8691 64.7338 88.5755 64.7338 90.0142C60.2839 92.9251 55.2316 101.49 55.2316 113.636C55.2316 123.004 54.161 132.674 50.0456 136.956C47.2016 139.901 40.7442 141.707 35.1901 145.187C28.2642 149.503 25.4871 154.221 25.4871 164.158C25.4871 183.564 22.6097 186.575 22.6097 196.345C22.6097 201.263 23.1451 203.94 25.3868 207.955C25.4203 208.022 25.4537 208.055 25.4871 208.122H14.4793V214.981H354.584V208.122L347.39 208.122Z" fill="#211E1E"/>
<path d="M36.3946 262.392V227.495H28.7326V269.619H65.8045V262.392H36.3946Z" fill="#211E1E"/>
<path d="M201.344 234.688V227.495H155.774V269.619H201.344V262.392H163.436V251.886H193.984V244.659H163.436V234.688H201.344Z" fill="#211E1E"/>
<path d="M315.404 234.053C305.668 234.053 297.403 239.74 297.403 248.774C297.403 257.808 305.668 263.529 315.404 263.529C325.14 263.529 333.405 257.808 333.405 248.774C333.405 239.74 325.14 234.053 315.404 234.053ZM315.404 270.89C300.816 270.89 288.905 261.856 288.905 248.774C288.905 235.692 300.816 226.658 315.404 226.658C330.025 226.658 341.87 235.692 341.87 248.774C341.87 261.856 330.025 270.89 315.404 270.89Z" fill="#211E1E"/>
</svg>
