<svg xmlns="http://www.w3.org/2000/svg" width="355" height="271" fill="none"><path fill="#211E1E" d="M27.294 196.88c0-9.703 1.974-18.669 1.974-23.789 0-8.565 1.104-14.521 2.242-17.498 2.543-6.893 10.706-8.131 16.997-11.778 8.398-4.885 10.974-14.32 10.974-26.867 0-14.153 1.974-17.398 5.119-21.447.167-.234.301-.368.502-.368.167 0 .301.201.334.636 1.238 10.874 4.818 21.982 14.79 34.161 6.222 7.629 14.654 13.25 17.832 14.521.301.134.435.368.134.569-6.156 4.015-13.383 4.517-16.629 5.855a15.42 15.42 0 0 0 .536-4.048c0-5.421-4.082-9.268-9.703-9.268-6.19 0-13.852 4.215-15.926 21.179-.301 2.409-1.004 3.379-2.577 5.855-1.371 2.141-5.62 8.866-6.691 11.643-.97 2.51-1.874 5.521-1.874 8.097 0 2.61 1.94 3.614 4.149 4.45 2.476.937 5.688 3.079 6.792 5.722.636 1.472 1.874 1.572 3.245 2.141 1.406.535 2.209 1.941 2.342 2.878-1.773.066-3.01.301-4.45 1.237-.167-.301-.468-.501-.669-.602 0-2.476-1.94-4.082-2.944-4.517-1.138-3.78-6.759-4.149-9.134-6.758-.301 0-.469.301-.469.435 1.606 3.446 6.19 2.442 8.03 7.394.168.401 2.543 1.104 2.677 3.346-1.539.067-3.011 1.238-3.78 2.71-1.071 0-2.31.268-3.313 1.305-.636-.368-1.439-1.539-2.242-2.777-3.078-4.785-9.569-3.279-11.777-5.755-1.874-2.041-1.673-6.625-1.673-8.599 0-.636.067-1.338.067-1.338-.469 0-.904.134-1.004 1.405-.234 2.877-.268 8.867 1.74 10.774 2.442 2.342 8.364 1.104 10.104 5.186.57 1.271 1.171 3.647 2.61 5.152H31.844c-3.58-2.108-4.55-7.227-4.55-11.242Zm91.274-26.365c0-.803 1.272-2.007 2.075-2.007 1.07 0 3.011 2.944 3.011 3.948 0 1.003-1.405 2.342-2.242 2.342-.903 0-2.844-2.878-2.844-4.283Zm-33.492-39.414c-11.543-12.58-16.896-27.503-16.896-38.979 1.606-2.175 2.074-5.822 2.074-7.695 0-1.439 1.707-2.309 3.447-2.309 3.346 0 9.134 2.978 10.104 11.209 2.141 17.866 7.227 26.064 16.662 34.228 5.153 4.483 8.398 7.36 8.398 9.97 0 2.576-1.405 4.885-4.985 4.885-7.394 0-15.29-7.461-18.803-11.309Zm-26.599 30.347c2.108-14.186 7.093-21.112 13.618-21.112 5.688 0 6.993 4.015 6.993 7.494 0 7.662-12.112 14.923-19.172 14.923-.87 0-1.439-.469-1.439-1.305Zm5.387 46.674c.87-2.074 1.74-4.182 1.74-7.093 0-3.045-2.242-6.524-5.889-7.528l-.703-.301c-1.94-4.484-4.885-6.625-9.703-8.298-.702-.234-.736-.903-.702-1.405.167-2.175.903-4.483 1.572-6.056 1.406-3.48 3.313-6.357 5.755-9.335.97-1.204 2.41-1.305 3.212-1.439 3.112-.468 9.335-1.974 13.417-4.45 2.643-1.572 5.855-4.684 7.026-6.056 3.313-3.948 11.376-1.706 22.919-9.502 4.25 1.506 9.904 6.123 10.573 12.146.469 4.182-.033 10.071 1.673 14.42.736 2.208 3.848 5.755 5.019 7.127 1.137 1.405 11.744 15.357 19.439 26.231.201.268.636.937 1.238 1.539H63.864Zm-4.985-6.089c.702-.703 3.01-1.707 3.01.401 0 1.841-1.572 3.948-1.572 3.948-.067-2.007-1.438-4.349-1.438-4.349Zm-1.339 1.74s.301.435.435 1.003c.268.937.167 2.041-.502 2.744H55.4c.836-.736 1.673-2.175 2.141-3.747Zm-2.81 2.074s-.034-.937-.77-1.907c-.267-.335-.77-.636-1.17-.836.233-.636 1.103-1.54 2.04-1.54.703 0 .904.536.904 1.339 0 1.104-.402 2.074-1.004 2.944Zm-5.655.1c0-.736.57-1.338 1.472-1.338 1.038 0 1.673.502 1.673 1.372 0 .937-.535 1.071-1.672 1.071-1.305 0-1.473-.569-1.473-1.105ZM63.43 78.973c-31.25-8.632-59.49-32.187-59.49-54.671 0-12.346 6.96-20.978 18.704-20.978 13.216 0 15.826 8.398 16.93 14.788.435 1.907 1.104 3.346 3.045 5.12 1.907 1.773-.67 9-2.41 9-.97 0-1.538-2.443-2.81-3.68-1.806-1.74-2.108-3.547-2.108-5.153 0-1.573.469-2.543.469-3.714 0-8.8-5.287-13.05-13.116-13.05-8.097 0-14.655 5.22-14.655 17.667 0 23.688 40.05 45.637 58.151 45.637 11.309 0 18.503-9.67 40.518-9.67 12.48 0 30.882 4.785 57.816 4.785 30.18 0 36.738-1.539 46.072-5.085-.066.936-.301 2.074-.702 3.245-.101.301-.101.468.301.502 2.141.2 5.019-.1 6.826-1.138-.67 1.171-1.172 1.907-1.473 2.945-.1.3-.066.435.268.435.435 0 .87-.067 1.271-.168a16.532 16.532 0 0 0-1.037 5.789v.067c0 4.014 1.974 10.706 7.495 16.193a30.365 30.365 0 0 0 6.257 4.718c-2.476 1.004-4.986 2.442-6.224 4.149-.134.167-.134.267.034.401.736.469 1.606 1.372 2.208 1.94-.77.47-1.974 1.808-2.643 2.878-2.878.736-7.06 2.878-8.298 3.748-1.037.769-1.104 1.505-.669 2.375-2.576 1.138-6.525 2.577-7.428 4.986-1.104.702-3.446 1.539-4.818 2.342-2.242-1.305-7.294-1.606-10.138-.904-2.409-2.409-11.978-6.089-16.829-6.357-3.346-3.178-7.696-3.915-8.365-3.948-1.271-.1-1.673.234-1.037 1.606-1.941-.535-4.049-.769-5.922-.636-.301 0-.435.168-.301.636.267 1.171 1.204 2.643 1.739 3.212-1.003 0-2.174.167-2.777.435-.368.201-.334.368-.066.803 1.304 2.108 3.914 4.684 5.687 6.056-.635.167-.836.435-.702.736 1.74 3.212 7.729 6.591 11.075 7.762.803 2.644 7.695 6.491 12.546 6.592 2.008 1.974 6.358 2.777 9.938 1.907 4.516 2.108 10.171 1.271 15.357-2.409l.301.167c3.112 1.907 9.636 2.075 11.577 1.372 2.543.87 7.093 1.204 10.606.636 0 0 .502.501 1.673.702 1.204.201 1.573.268 3.714.368.1 0 .067.101.067.201-8.566.535-18.402.033-20.142.134-10.841.669-10.138 4.617-35.132 4.617-17.632 0-32.521-4.717-36.235-6.725-.033-.033-1.606-2.509-1.606-5.654 0-4.082 2.108-5.488 4.416-5.488 1.205 0 2.075 0 2.075-.602 0-.435-.502-1.07-2.944-1.07-2.61 0-6.893 2.275-6.893 7.795 0 4.952 2.275 8.8 2.576 10.239.335 1.438.435 2.476 0 3.647-2.643-3.982-6.156-6.759-10.238-6.759-5.587 0-9.301 3.613-9.301 8.866 0 5.621 2.342 9.168 6.089 12.213 2.543 2.108 6.491 5.152 6.491 5.152 1.138.904 1.941 2.577 2.141 3.714 1.707 10.406 4.651 18.837 12.413 27.704 1.138-1.305 3.246-2.51 5.822-2.51 5.086 0 7.562 4.015 8.097 6.324 0 0 2.108-.067 3.246 1.673-.302.703-.703 1.338-1.339 1.874-1.037-1.238-1.974-1.774-3.346-2.209.335-2.174-3.747-5.52-5.152-5.52-.368 0-.904.134-1.205.502 1.038.401 4.618 2.81 4.618 4.851 0 2.242 2.375 1.606 3.279 3.58-.67.602-1.673 1.205-2.443 1.606.535 1.138 1.138 3.547 1.138 5.788l-.703.067h-18.235c-4.65-2.509-21.982-27.837-24.558-30.915.836-.435 3.045-1.339 3.045-4.484 0-2.175-3.079-6.19-5.187-6.19-.903 0-1.907.569-2.308 1.038-.469-2.142-.101-4.45-.167-6.692-.235-8.264-4.082-13.149-9.436-16.863 1.606-1.238 2.978-3.045 2.978-5.621 0-4.718-5.654-9.101-10.606-13.551-8.03-7.193-12.413-18.904-13.819-29.443-1.672-12.212-6.758-16.127-14.721-16.127-1.874 0-5.621.569-9.335-.301ZM212.92 59.032c2.677-1.305 5.822-2.945 7.428-4.082-.368 2.007-1.372 4.249-2.476 4.952-.837.502-3.179 1.773-5.387 2.04.268-.802.435-1.639.435-2.91Zm10.205-5.153c1.137-1.037 2.242-1.305 4.282-.836 0 0-1.606 2.108-2.107 4.115-.603.268-1.138.569-1.673.87-.736.234-1.406.268-1.941.134.903-1.004 1.205-2.61 1.439-4.283Zm6.691-5.62c-.033.87-.301 1.84-.97 2.609l-2.175-.067c1.004-.636 2.376-1.606 3.145-2.543Zm2.476-1.774c1.74-1.338 4.718-3.748 6.726-5.922-.971 1.706-2.041 5.755-2.209 7.193-.803 1.305-4.818 3.112-5.554 3.112.636-1.238 1.004-2.81 1.037-4.383Zm9.737-6.692c1.572-.368 4.249-.97 5.989-1.673.268-.167.368.134.268.435-.067.268-.67 2.41-1.172 3.614-.803 2.007-2.81 3.245-7.36 4.684-.302.134-.569-.034-.569-.301.602-2.476 1.305-4.919 2.844-6.759Zm7.996-8.732.134.167c-.1 1.64-.201 3.279-1.07 4.517-1.941.602-4.952 1.606-6.257 1.74 1.606-1.138 5.42-4.584 7.193-6.424Zm6.391 4.081c-.301 1.606-.903 3.781-1.171 4.785-.837 2.91-1.004 3.38-4.55 4.952-2.778 1.204-3.38.502-3.38.502 1.64-1.54 2.978-5.22 3.58-7.395 2.108-.903 3.681-1.472 5.521-2.843Zm-3.312-6.59c1.773-1.875 3.814-4.116 5.855-5.689h.134c-1.104 1.707-2.108 8.097-2.108 8.097-.335 1.54-1.406 2.777-5.22 4.55.937-1.472 1.004-4.115 1.339-6.959Zm8.398-5.087c.435-.736 1.706-1.003 3.78-.836-.602 1.874-1.037 4.182-1.204 6.357-.903.937-3.279 2.51-4.885 2.81.401-3.178 1.472-6.658 2.309-8.33Zm.97-3.01c8.532-7.428 21.714-15.157 32.02-15.157 7.26 0 8.531 1.539 9.736 2.71a35.618 35.618 0 0 1-.569 7.294c-2.743.77-6.123 2.275-4.316 5.186 0 0-.669.3-1.271.77-.435.3-.937 1.036-.937 1.036-1.205-.067-3.38-.167-4.952-2.275-1.305-1.806-2.476-3.011-3.814-3.847 3.647-2.577 7.093-3.012 11.141-.937.301-.134.603-.268 1.038-.435-.569-1.874-3.547-3.68-6.592-3.68-4.985 0-8.398 4.516-11.509 5.654-.134.267-.134.401-.134.569.87.435 1.137 1.305 1.606 2.04 1.438 2.911 4.182 6.592 7.829 7.027-.435 1.004-.703 2.81-.77 3.647-2.542 1.439-7.227 6.357-9.435 7.461.569-2.944.77-5.32.77-5.32s-3.681 2.643-5.153 3.212c-.234.1-.401-.067-.368-.401.134-1.138.97-5.922.97-5.922s-3.279 2.977-5.621 3.814c-.368.134-.635-.201-.635-.368-.134-1.84 1.739-8.499 1.739-8.499s-5.119 2.978-6.156 3.513c-.335.168-.535 0-.502-.234.101-1.706 1.037-6.457 1.037-6.457s-3.948-.168-5.152-.268v-.134Zm44.031-12.18c5.956.335 13.45 3.48 18.938 7.094-.636 1.74-.837 2.174-1.807 2.174-1.037 0-5.554-4.282-11.108-4.282-3.514 0-6.056 2.308-6.056 5.922 0 2.208 1.572 5.755 6.725 5.788a8.445 8.445 0 0 0 3.312-.602c-.167.636.101 1.706.469 2.175-1.105-.1-2.878-.435-3.982-.435-3.781 0-5.688 2.141-5.688 5.22-.903 1.103-1.338 2.24-1.338 3.613 0 3.613 3.814 5.788 7.595 5.788 6.491 0 12.915-5.387 16.495-9.937 2.911-.535 6.926-2.041 8.532-2.041 1.371 0 2.442.703 4.583 2.51-.301.133-.769.4-1.003.601-1.506-1.104-3.446-1.74-5.052-1.74a5.386 5.386 0 0 0-3.614 1.406c-.067.067-.703.067-1.606.502-1.573.736-2.108 1.706-2.71 2.643 4.383.268 8.498 3.614 11.142 6.625.301.3.501.836.167 1.372-.167.234-.502.167-1.205-.402-7.126-7.16-12.446-6.725-13.985-2.275 4.784.803 7.996 3.245 11.041 6.758 0 .134-.301.201-.569.168-3.479-.435-6.19-4.785-10.071-4.785-2.308 0-4.282 1.138-4.952 3.246-.669-.201-1.606-.435-2.241-.602-.77-.235-1.071-.067-1.573.401-5.788 5.253-6.491 6.692-5.487 13.35 1.138 7.495 2.108 8.097 14.052 11.141.101 2.041-.468 3.58-4.115 3.58-2.844 0-5.286-1.472-7.562-1.472-1.739 0-3.847.937-4.985.034-1.472-1.104-10.372-10.774-10.372-27.001 0-14.822 8.298-21.648 8.03-36.537Zm20.978 7.696c.904-.301 2.142.602 2.209 2.308-.435.435-1.774-.3-3.346-.368.535-.267.736-1.472 1.137-1.94Zm8.733 7.595c-3.045 1.807-6.792 3.38-10.64 3.245.201-.334.335-1.104.268-1.505 1.974.602 4.049.234 3.781-1.205-2.911.97-3.948-3.312-8.197-3.312-4.45 0-7.83 3.546-11.309 1.372-1.038-.737-1.439-1.908-1.439-3.079 0-2.308 1.639-3.914 3.948-3.914 4.015 0 7.093 3.78 11.309 4.115 1.807.134 2.677.2 3.981.569 1.339.368 2.008.134 2.844-.234 1.908.803 4.216 2.375 5.454 3.948Zm-17.532 1.338c0-1.94 1.372-2.743 2.944-2.743 1.506 0 2.71 1.07 2.71 2.91 0 1.305-1.304 2.476-2.71 2.476-1.74 0-2.944-1.137-2.944-2.643Zm8.866 6.29c-3.111 3.781-9.769 7.662-13.851 7.662-4.283 0-6.692-3.346-5.554-5.487 1.171 1.807 3.379 2.944 5.554 2.944 4.818 0 9.77-4.35 13.851-5.119Zm11.242-6.19c1.774-.736 6.291 2.543 7.462 4.651-.268.469-1.305.803-1.841 1.037-1.706-1.84-4.015-3.48-5.52-3.379-2.777.134-5.186 1.405-10.305 2.175-5.454.837-10.841 4.918-14.789 4.918-3.045 0-4.517-1.539-4.517-3.446 0-2.61 1.941-3.178 4.35-3.178 2.743 0 5.119 1.539 7.762 1.539 1.205 0 2.309-.301 3.045-.77 7.561 0 12.045-2.576 14.353-3.546Zm11.611 11.142c0 1.205-1.64 3.246-1.908 3.246-.301 0-1.003-.201-1.304-.435 0-4.852-3.915-2.978-3.915-5.086 0-1.004 2.576-.903 4.048-2.04 1.071.501 3.079 3.11 3.079 4.315Zm-8.499 3.212c0 .636-.736.87-1.137.435-2.175-2.342-5.387-5.052-8.7-5.955 2.443-2.41 9.837 2.04 9.837 5.52Zm-.736-4.316c-1.639-1.539-3.982-2.744-6.022-3.112 1.706-1.104 4.416-.401 5.989.803-.502.703-.402 1.707.033 2.31Zm-5.688 8.666c-1.907-2.008-4.617-3.982-7.829-4.718 1.873-2.308 7.628.837 10.974 4.751.602.703.502 1.272.234 1.573-.903.87-2.777-1.004-3.379-1.606Zm2.811 6.29c-.469 0-.737-.234-.636-.468.803-1.807 1.572-2.041 2.476-2.61.937-.535.201-2.275 1.472-2.744 1.004-.368 1.271-1.238 1.338-1.907.067-.67.837-1.405 1.004-2.141 1.004.77 1.506 2.074 1.506 2.074-.301.77-3.681 7.796-7.16 7.796Zm-2.844-.502c-4.116-1.004-12.146-3.413-12.781-3.58.468-1.439 1.873-2.04 3.546-2.04 2.275 0 5.42 3.78 9.235 4.282.368.033.468.267.468.602 0 .401-.234.77-.468.736Zm-5.488 6.023c-.334 0-.401-.301-.401-.77 0-1.037.669-3.312 1.372-4.517.736.234 2.476.837 3.647 1.205-1.004 1.405-3.48 4.082-4.618 4.082Zm-2.007-4.919c-.803 0-1.338-1.238-1.907-1.238-.502 0-.435.77-1.64.234-.568-.267-1.539-1.037-1.572-1.94 1.338.435 5.42 1.74 6.591 2.108-.301.569-.769.836-1.472.836Zm-12.948 5.287c.836 6.624 1.371 6.925 8.23 11.074.067.034.034.1-.033.067-8.365-2.61-8.599-2.944-9.603-8.732-1.171-6.759-.066-6.926 4.316-11.778.168-.167.268-.234.67-.1.435.1.569.2 1.137.334-4.316 5.153-5.086 6.157-4.717 9.135Zm2.074.702c-.535-3.044-.468-3.111 2.175-6.691-.368 3.212-.201 6.658.134 8.431-.87-.2-2.075-.435-2.309-1.74Zm7.595 4.517c1.238 1.372.87 3.68.301 4.785-.535-.368-1.673-1.171-2.041-1.506.569-.803 1.405-2.074 1.74-3.279Zm-13.049 27.67c.435 1.974.77 4.183.971 6.659-.435 1.472-1.406 3.379-1.673 3.613-.302.301-.569.033-.837-.301-.937-1.439-2.375-4.283-2.108-5.788 1.205-.469 3.045-2.61 3.647-4.183Zm1.205 12.213c0 1.237-.101 2.475-.268 3.713-.602.87-1.472 1.707-1.773 1.707-.435 0-.837-.569-1.037-.937-.737-1.305-1.707-3.446-2.008-4.249.134-.268.569-1.205.703-1.64.468.904 1.238 2.242 1.773 2.811.401.401.535.502.937.033.602-.669 1.372-2.007 1.673-2.844v1.406Zm-3.346 13.751c-.569.201-1.305.268-1.74-.201-.769-.769-1.271-2.476-1.472-3.011.736-.87 2.041-2.61 2.442-3.681.536.803 1.305 1.105 1.774 1.105.234 0 .803-.302 1.371-.703a39.593 39.593 0 0 1-2.375 6.491Zm-13.25 18.067c5.253 10.105 7.495 18.737 11.376 35.5 3.112 13.45 11.175 22.183 13.25 22.952 2.108.736 8.732-2.476 11.777 1.472 4.584 6.592 7.662 5.22 7.662 8.499-.636.602-1.238 1.773-1.305 2.911 1.138.568 2.476 2.275 2.476 3.981h-4.015c.1-.234.803-1.807.803-3.212 0-4.015-4.483-5.621-7.963-11.208-.234.1-.401.334-.468.535.869 2.576 3.178 5.956 4.684 7.829-.904.301-2.041 1.606-2.342 2.476.368.402 1.438 2.342 1.706 3.58h-3.814c.435-.669.937-1.873.903-3.279 0 0 .87-1.305.87-2.342 0-4.784-4.383-7.227-9.736-9.034-6.759-2.308-8.733-4.115-12.882-9.602a1.371 1.371 0 0 0-.569-.134c0 3.781 3.513 7.327 5.789 9.201 4.45 3.681 14.554 4.484 14.554 9.536-2.242-.536-5.019.702-5.32 2.476.502.368 2.208 2.409 2.376 3.178h-5.22c-.97-2.074-3.714-3.58-7.394-5.353-.268 0-.87.301-.569.502 2.108 1.505 4.249 3.212 4.249 4.851h-6.725c-1.74-2.877-7.294-5.855-9.77-9.134.502-1.171.469-5.019-1.07-6.558.468 3.714-1.138 5.822-3.547 5.822-3.178 0-3.848-3.078-3.714-5.721-4.082-5.454.067-10.004-7.896-22.183-8.699-13.25-17.465-22.953-29.711-32.789 0 0 2.777.368 4.149.368 3.981 0 8.599-1.874 12.078-3.614.235-.067.435-.167.67-.234-.636 1.004-1.305 3.513-1.305 5.822 0 14.387 19.372 26.8 24.056 42.96l.335.034c2.242-20.544-13.049-33.927-13.049-37.407 0-.769.368-1.238.97-1.238 4.35 0 12.347 30.815 27.269 36.303a.964.964 0 0 0 .401-.302c-10.639-23.32-12.279-39.079-22.551-47.778 4.384-.402 8.298-2.075 11.41-4.919 3.413-3.078 5.654-7.36 6.625-12.312.167.401.434 1.439.97 1.84.435.335 1.171.067 1.639-.067-2.676 5.119-7.193 11.443-12.112 15.792Zm46.909 68.657c1.74.602 2.576 4.852.468 5.889-.133-1.907-1.572-3.145-2.442-3.848.201-.569 1.372-1.907 1.974-2.041Zm-7.394 6.424c-.368-1.138-.904-2.442-1.941-3.58.736-.569 1.874-1.138 2.744-.602.401 1.171.234 3.48-.803 4.182Zm-9.87-3.279s.669-.535 1.438-.535c.87 0 1.372.167 1.74.435.435 1.037 0 2.342-.569 3.178-.702-1.639-1.74-2.476-2.609-3.078Zm-92.078-5.052c-.268-2.041-1.539-3.513-5.186-4.283-1.104-6.357-6.19-9.402-10.974-9.134 1.539-3.212 30.313-22.718 41.588-39.113 8.599 6.324 20.176 20.544 25.094 30.213 2.811 5.521 1.472 11.543 4.551 16.228 0 0 .568 7.093 5.353 8.197 1.539.368 3.112-.234 3.747-.602 1.506 2.643 4.919 5.487 6.357 7.059h-69.66c1.104-2.609 1.606-5.955-.87-8.565Zm-9.669 3.58c.702-.234 1.739-.134 2.475.335.502 3.111-1.304 4.182-2.308 4.148.836-2.342-.167-4.483-.167-4.483Zm4.349 4.718c-.334.167-1.171.134-1.505-.034.468-.301 1.271-1.137 1.405-1.673.1.502.201 1.272.1 1.707Zm1.238-3.848c-.067-.234.101-.368.335-.535.368-.268 1.171-.703 2.108-.937 1.104 3.145-1.071 5.353-2.041 5.253.1-1.272-.101-2.911-.402-3.781Zm19.105-66.381a109.84 109.84 0 0 0 3.848 3.647c-8.8 9.636-27.537 24.692-31.317 27.502-.402-2.175-.034-5.42.97-7.796 1.84-4.349 6.758-15.926 9.402-22.584 5.654.1 10.74.201 17.097-.769Zm-11.342-6.358c.736-.869 2.71-2.107 4.215-2.81 1.439 1.606 2.978 3.045 4.618 4.249-1.841.234-6.625-.535-8.432-.97-.435-.1-.569-.301-.401-.469Zm-3.982-5.855c-.234-.067-.234-.167 0-.401 1.138-1.037 2.476-1.974 3.948-2.51.803 1.439 1.74 2.811 2.71 4.116-.569.234-1.74.87-1.74.87s-2.71-1.439-4.918-2.075Zm-7.26 5.053c.535-.67 3.111-2.61 4.516-3.346 1.74.301 3.714.97 5.755 2.041l-1.907 1.739c-1.639.302-6.892.201-8.197-.133-.201-.067-.234-.168-.167-.301Zm-11.644-.971c1.974-1.137 4.082-2.309 5.454-3.379 2.275.836 5.219 1.004 7.327.87 0 0-3.413 2.375-4.216 3.446-2.208.502-6.758-.1-8.532-.636-.2-.067-.234-.201-.033-.301Zm-9.034-2.509c-.368-.201-.368-.469-.067-.536 1.907-.535 4.718-2.007 6.558-3.011 0 0 3.346.87 6.157 1.071-1.038 1.037-5.421 3.045-6.257 3.781-2.142.1-4.517-.502-6.391-1.305Zm-7.093 4.45c2.911-1.874 4.417-2.376 5.387-2.744 0 0 3.011 1.037 5.219 1.338-2.442 2.409-6.925 2.61-10.439 1.874-.301-.134-.301-.334-.167-.468Zm-7.863-4.283c-.167-.1-.2-.268-.033-.401.803-.603 3.547-1.807 4.416-2.175 2.51 1.07 6.224 1.74 7.529 1.773-.201.301-.168.569-.168.837-.836.133-2.877 1.037-4.483 1.974-2.744-.235-4.952-.803-7.261-2.008Zm4.317-5.32c-.268.167-.536.569-.636.803-1.573-.234-3.714-.702-4.35-1.271-.167-.101-.134-.268 0-.435l.837-.536c.736.369 2.643 1.071 4.149 1.439Zm14.788-.87c-.234.368.067.937.301 1.205l-.903.401c-1.773 1.037-3.145 1.506-4.684 2.041-2.142-.033-5.052-.535-7.227-1.338-.268-.101-.268-.368-.134-.469 1.238-1.003 4.35-2.576 6.156-3.044 1.573.535 4.149 1.07 6.491 1.204Zm5.922-4.885s-.167.335-.033.736c0 0-3.045 1.071-4.617 2.142-2.61-.034-6.458-.569-7.528-1.406-.302-.234-.302-.535.133-.769 1.038-.535 3.246-1.271 4.216-2.008 2.175.703 6.424 1.506 7.829 1.305Zm7.06-5.386c-.033.334.034.702.301.97-2.041.268-4.751 1.539-6.357 2.543-2.844.167-5.454-.368-7.294-.971-.234-.1-.301-.133-.067-.468.904-1.238 5.22-2.744 6.491-3.245 1.305.568 6.926 1.171 6.926 1.171Zm6.592-4.35.033.1c-2.074.569-3.915 1.238-5.521 2.376-2.643-.067-5.353-.402-7.227-1.272-.234-.133-.435-.535.168-.836 2.208-1.305 4.45-2.008 6.925-2.71 1.54.602 3.279 1.338 5.622 2.342Zm3.914-5.922c-.167.836-.268 1.673-.368 2.509 0 .234-.033.502-.033.736-.034.101-.034.201-.034.301-.033.335-.033.67-.033 1.004v.469c-2.309-.235-5.22-2.142-6.759-2.844-.301-.134-.368-.235-.134-.502 1.841-2.041 4.316-2.175 7.361-1.673Zm1.439-5.588a37.977 37.977 0 0 0-1.004 3.547c-1.94-.469-4.216-.535-5.788-.134-.469-.602-1.037-1.037-1.439-1.338-.301-.234-.167-.335-.067-.435.803-.703 3.848-2.175 5.655-2.744.87.402 1.74.77 2.643 1.104Zm5.989 10.071c.033-2.61.936-5.822 1.639-7.996 3.011.502 6.19.77 9.536.77 6.825 0 12.011-2.811 16.562-5.287 4.45-2.443 8.297-4.517 13.55-4.517 3.681 0 7.729 2.61 11.075 7.16 3.279 4.483 5.32 10.104 5.32 14.722 0 4.951-1.64 9.301-4.517 11.911-2.108 1.94-4.818 2.944-8.064 2.944-.468 0-.936-.033-1.405-.067a45.055 45.055 0 0 0-3.613-.167c-6.324 0-10.506 1.673-13.852 3.011-2.777 1.104-4.985 1.974-8.13 1.974-3.714 0-8.231-2.676-11.778-6.959-4.015-4.918-6.323-11.276-6.323-17.499Zm-11.142 14.153c-.368-.167-.268-.401-.034-.569 1.305-1.037 3.614-2.375 4.986-2.911a39.54 39.54 0 0 0 1.673 4.317c-1.84.133-5.554-.335-6.625-.837Zm-7.863 4.818c1.573-1.271 3.614-2.242 5.621-3.078 1.74.87 4.885 1.104 6.96 1.238-.737.368-2.476 1.74-3.38 2.743-2.476.536-7.327.603-9.167-.535-.134-.067-.168-.234-.034-.368Zm3.647-4.918c0 .2.034.401.101.535-1.673.703-4.082 1.941-5.655 3.078-2.576-.334-5.788-.87-6.825-1.238-.368-.167-.502-.368-.201-.669.569-.535 3.245-1.941 4.383-2.509.97.334 3.413.97 8.197.803Zm.502-8.733c1.539-1.238 4.818-2.476 7.06-2.877.134 1.873.435 3.78.903 5.654-1.974.469-7.193-1.874-7.896-2.275-.134-.1-.301-.335-.067-.502Zm5.32 4.517s-1.037.569-1.539.836c-.502.268-2.342 1.439-2.342 1.439-2.309.268-6.09.234-8.733-.736-.201-.067-.234-.234-.134-.368 1.171-1.271 4.885-2.242 5.287-2.409.702-.268.87-.502 1.104-.77 1.874.904 4.651 1.774 6.357 2.008Zm60.76 56.879h-.033c-4.216-7.461-18.636-21.882-18.636-32.153 0-4.116 1.706-6.324 4.583-6.96.803-.1 1.64-.133 2.543-.167 11.41 1.104 19.373 28.44 25.395 43.028 0 .033-.067.033-.067.033-15.625-16.696-15.19-33.76-23.722-33.76-1.405 0-2.977 1.105-2.977 3.179 0 6.056 8.732 10.372 12.914 26.8Zm-28.506-85.553c-3.747 2.041-7.194 3.647-11.543 3.647-9.904 0-17.8-2.61-22.752-7.595-4.082-4.048-5.152-8.666-5.152-10.54.033-4.048 2.777-8.33 10.506-8.33 9.267 0 21.814 13.35 28.941 22.818ZM251.9 52.206c-.736.736-3.179 1.707-4.517 1.907-.468.1-.903-.133-.669-.97.769-2.844 1.472-4.718 1.974-5.487 1.639-.468 3.848-1.138 5.253-2.242-1.037 2.242-2.041 6.792-2.041 6.792Zm1.874 10.071c-.168.67-.469 1.205-.636 1.405-.368-.3-.77-.602-1.138-.87.803-.066 1.673-.401 1.774-.535Zm-2.777-3.279-.201 2.911a58.762 58.762 0 0 0-2.342-1.64.25.25 0 0 1-.067-.133c.167-.268 1.74-1.104 2.61-1.138Zm-2.275-1.338c.2-.569.301-1.271.133-1.94 1.138-.302 2.744-.804 3.38-1.239 0 0-.669 1.473-.736 2.343a8.97 8.97 0 0 0-2.777.836Zm10.673 5.721c-1.272.201-3.647 1.205-4.517 1.774-.134-.1-.234-.201-.368-.335.267-.401 1.305-2.007 1.104-3.112.736-.267 1.84-1.17 2.442-1.773.703.234 1.573.368 2.342.2-.468 1.072-.836 2.176-1.003 3.246Zm.903 4.584c.1.469.1 1.64-.033 2.309-.435-.469-.904-.937-1.372-1.406l-2.208-2.408c.602-.603 1.94-1.105 2.609-1.339-.134 1.004.435 2.41 1.004 2.844Zm-5.688-14.052c2.309-.904 5.454-3.38 6.257-4.383 0 0 .033 1.304.301 1.84-1.338 1.74-2.409 4.082-2.978 6.123-1.271 1.07-3.145 2.944-4.952 2.944-.301-.87.469-4.65 1.372-6.524Zm7.762-11.343c-.066.87-.401 2.61-1.338 4.082-1.137 1.84-5.721 4.919-6.257 4.919-.334 0-.468-.201-.401-.502.268-1.372 1.171-4.35 1.706-5.822 2.142-.2 4.618-1.272 6.29-2.677Zm-5.119.502c-.267.067-.435-.033-.435-.301s1.774-4.852 1.74-8.298c1.774-.502 4.751-2.442 4.751-2.442.435-.134.569.033.603.602.066 5.855-1.606 9-6.659 10.44Zm18.536.402c-.568 1.338-.702 3.58-.669 5.855-.87 1.539-3.714 4.517-5.086 4.517-.468 0-.602-.536-.602-1.171.067-1.94.703-4.484.703-4.484.836-.736 1.204-1.539 1.505-2.074 1.774-.569 3.581-2.075 4.149-2.643Zm11.175-3.079.034.134c-2.242 1.171-4.952 4.116-4.952 4.116s-1.305.167-2.643.87c-.368.2-1.439.97-2.108 1.74.1-2.71.167-4.685 1.74-5.856 1.606-1.137 3.312-1.907 3.312-1.907 1.305.435 3.011.736 4.617.903Zm6.291-4.483s.133.234-.168.301c-1.371.301-3.479 1.54-4.784 2.61 0 0-3.246-.535-3.681-.97 1.372-1.238 3.212-2.777 4.283-3.848 1.238.234 3.781 1.17 4.35 1.907Zm1.539 29.577c-.77-.1-.937-.368-.937-.368 1.071-1.037 2.308-2.944 2.576-5.755l1.004-.502a35.666 35.666 0 0 0 2.175 5.722c-.703.602-3.045 1.104-4.818.903Zm5.788 22.016c.067.535.502 1.004.803 1.305-.301 1.004-.703 2.208-.703 3.379-.033-.033-.066-.067-.1-.067a45.487 45.487 0 0 0-2.309-3.178c.736-.302 1.841-.737 2.309-1.44Zm-2.643-4.517s1.037-1.138 2.342-1.874h.134c.267.904.401 2.878 0 4.517-.669.837-2.242 1.84-3.279 1.84l-.201-.033c.903-1.238.97-2.944 1.004-4.45Zm-.837-7.83c.937-.434 2.376-.769 3.279-.836-.334 1.339-.602 3.045-.334 4.35 0 0-2.175 1.539-3.48 2.877-.268.301-.502-.033-.502-.334-.067-2.108.134-4.283 1.037-6.056Zm-1.505-4.048c-1.506.67-3.681 2.275-4.383 2.275-.268 0-.469-.167-.469-.602.301-1.74 1.238-3.981 1.974-5.587 1.339.401 2.543.401 4.885.167-1.037 1.439-2.007 3.747-2.007 3.747Zm-4.35 11.242c-.201.1-.736.067-.736-.569-.067-2.509.301-4.082.803-5.922 1.071-.602 2.275-1.472 3.513-2.241 0 .368.134.736.301.87-.87 2.04-1.104 3.88-1.204 6.29-1.037.401-2.51 1.505-2.677 1.572Zm3.045.602c.234.536.736 1.138 1.74 1.038.033.435-.134 1.505-.302 1.907-.401-.268-.836-.536-1.237-.803-.536-.435-1.071-.87-1.606-1.272.334-.267.97-.635 1.405-.87Zm-8.833-4.818c0 .703-.168 1.673-.469 2.142a15.11 15.11 0 0 0-2.108-.268c1.272-.569 2.577-1.874 2.577-1.874Zm-4.651-3.981c.669-.1 1.941-1.07 2.342-1.606 0 0-.535 2.81.201 4.985-1.138 1.07-2.242 1.707-2.71 1.707-.502 0-.536-2.844.167-5.086Zm-.803-7.294s2.041-2.208 2.443-3.312c0 0 1.606.167 2.576-.067-.402 1.305-.536 2.375-.536 3.78-1.171 3.213-3.278 5.086-4.282 5.086-.536 0-1.104-2.208-.201-5.487Zm8.967-16.863c1.171.77 2.576 1.372 4.082 1.405 0 0-2.476 1.573-3.547 4.718-1.806.77-3.613 1.07-5.487.87-.334 0-.769-.134-.602-.536.602-1.74 3.212-4.717 5.554-6.457Zm-4.383-1.138c.535.067 1.94.168 2.944.067-.468.502-1.94 1.439-3.379 2.945-1.439-.435-.335-1.606.435-3.012Zm8.03-5.52c-1.171 1.137-2.208 3.145-3.747 3.613-1.573.469-4.584.134-5.019 0-.469-.1-.402-.569-.234-.77 1.405-2.007 3.814-3.88 5.32-4.55.769.435 2.174 1.272 3.68 1.707Zm3.111-1.205c-1.438-.2-4.416-1.271-5.119-1.806-.301-.201-.167-.435.067-.67 1.037-.87 3.915-2.375 5.788-2.442a36.255 36.255 0 0 0-.736 4.918Zm-.066 3.145c-.034.603 0 1.205.033 1.807.033.837.067 1.64.134 2.443-.904.602-4.082.2-5.521-1.138.435-.2 1.272-.903 2.208-2.208.937-1.405 2.008-2.376 2.008-2.376l1.138.067v1.405Zm-4.584 11.577c0-1.004 2.777-4.517 4.249-4.785.468-.067.602 0 .736.134.201 1.606.469 3.078.803 4.45-1.572 1.205-5.788.803-5.788.2Zm-5.086 4.584c-.703.3-1.874.435-2.442.3.2-.668 1.305-2.341 1.873-2.81.87-.033 2.209-.167 2.911-.401-.87.736-1.773 2.074-2.342 2.91Zm4.785-2.677c1.137.468 2.174.67 3.513.736 0 1.339-1.573 4.082-2.61 4.818-2.275 1.004-4.651 1.54-4.985 1.205-.335-.335.803-4.718 4.082-6.759Zm-13.986 7.36h-.167l.368-6.791c2.543-2.075 5.119-6.19 5.119-6.19s.301.234.87.2c-.736 1.205-1.606 2.343-1.606 3.782 0 1.17.836 1.606 2.108 1.706-.971.97-1.506 2.275-1.941 3.312-1.338 1.84-3.68 3.915-4.751 3.982Zm-.535-13.817c.87-2.911 3.914-4.986 4.55-5.253.134.736 1.104 1.472 1.907 1.539-.87 1.238-1.338 2.007-1.673 3.312-1.238 1.84-3.212 4.149-4.483 5.22-.234.2-.435.066-.469-.1-.2-1.205-.2-3.447.168-4.718Zm-2.008 16.83c-.836 1.605-3.044 3.211-4.349 3.211-.201 0-.402.034-.402-.3 0-.302 1.272-5.087 1.439-7.663.87-1.037 3.145-2.944 4.149-4.115.1 2.208 0 7.26-.837 8.866Zm-.87 9.234c.234.468.703.87 1.104.937-.033.401 0 1.237.067 1.672a37.375 37.375 0 0 0-4.015 1.473 50.13 50.13 0 0 1-1.204-1.606c1.204-.368 3.178-1.606 4.048-2.476Zm-4.517-3.948c1.673-.134 3.48-.904 4.785-1.874-.268.87-.468 2.51-.468 3.714-1.339 1.472-3.146 2.777-4.885 3.245-.168-.2-.302-.401-.469-.602-.1-1.84.569-3.279 1.037-4.483Zm5.521-16.428c-1.405 1.572-2.744 2.676-3.948 3.88-.468.436-1.004 1.071-1.64 1.071-.501 0-.568-.635-.568-.936 0-1.205.468-3.882.936-5.856 1.673.1 4.015-1.338 5.153-2.743-.502 2.944.067 4.584.067 4.584Zm-13.584-.1c-.368 0-.401-.168-.368-.402.334-1.74 1.305-4.015 2.242-5.588 1.773-.334 3.948-1.505 5.219-2.51 0 0-.435 1.473-.769 4.216-1.104 2.108-4.149 4.283-6.324 4.283Zm2.007 1.739c1.64-.67 3.012-1.54 4.283-2.71 0 0-.836 2.944-1.204 5.889-1.171 1.304-3.647 2.944-4.25 2.944-.234 0-.401-.167-.401-.435 0-1.606.87-4.55 1.572-5.688Zm4.685 12.045-.335 2.074c-.435.904-.836 2.008-.937 3.145-.803-.936-1.639-1.94-2.543-2.977.904-.402 2.677-1.238 3.815-2.242Zm-4.986.77h-.167c-.167-.168-.334-.368-.502-.536.168-1.004.402-2.944.301-4.048.971-.234 3.346-1.807 4.417-2.543.702.301 1.338.334 2.074.033-.067.837-.535 2.777-.769 3.748-1.673 1.472-3.48 2.476-5.354 3.346Zm16.094 4.45c0 1.003-.201 2.442-.368 3.312-.669.1-1.339.2-1.974.368-.067-.301-.201-.87-.168-1.472.904-.268 2.142-1.439 2.51-2.208Zm-2.944.066c-.268 0-.402-.133-.502-.401-.034-.167-.502-3.011.234-5.32.468-.67 1.004-2.309 1.137-3.045.569 0 1.238-.1 1.673-.334 0 0-.468 1.673-.468 3.312 0 1.104.368 2.108.937 2.844 0 0-1.205 2.944-3.011 2.944Zm13.617-5.32a20.526 20.526 0 0 1-3.848 3.949c-.435.267-.568-.134-.568-.402-.134-1.84.167-3.647.602-5.32l1.305-2.175c2.342-.167 4.316-.97 4.316-.97l.134.167c-1.372 2.376-1.941 4.751-1.941 4.751Zm-2.074 5.153c.368-.334 1.438-1.439 1.873-2.175 0 .368.168 1.004.502 1.272-.803 3.044-.803 5.454-.803 5.454h-.268c-.468-.201-.936-.369-1.405-.536.335-1.305.234-2.91.101-4.015Zm15.123 1.84c-.469 0-.569-.569-.569-.87 0-1.84.736-4.416 1.372-5.62-1.071-.134-4.417.568-5.019.702-.468.1-.736-.268-.636-.636.134-.702 1.807-3.981 2.744-5.286l.502-.167c1.706 3.111 3.613 5.788 5.387 8.732-.703 1.171-2.978 3.145-3.781 3.145Zm3.044 3.38c.067-1.171-.1-2.142-.167-2.644.77-.635 1.472-1.371 1.941-2.14a54.115 54.115 0 0 1 2.108 4.181c-.87.435-2.978.904-3.882.603Zm2.175 7.728c-.602-1.472-.937-3.814-.535-5.788.903-.033 2.208-.401 2.944-.803.268.67.502 1.339.736 2.075-.401 1.84-2.074 4.885-2.643 4.885-.134 0-.368 0-.502-.368Zm-.803 13.317c.201.97 1.004 3.045 1.004 3.045-.535 1.07-1.171 1.84-1.572 2.241-.067-1.238-.235-2.476-.435-3.714.234-.401.702-1.104 1.003-1.572Zm-.401-8.365h.134c.368 1.606.636 2.343.903 3.112-.569 1.238-1.539 3.078-2.275 4.249-.268-.937-.535-1.84-.903-2.777.903-1.372 1.572-2.978 2.141-4.584Zm-3.246-5.487c.971-.535 1.874-1.807 2.276-2.308-.235 1.806.568 4.249.568 4.249-.702 2.375-1.472 4.216-2.375 5.554-.167.067-.301.033-.469-.067a51.517 51.517 0 0 0-.97-1.94c.034-3.18.97-5.488.97-5.488Zm-.736-8.431c.469-.067 1.138-.435 1.339-.636 0 .87-.034 1.573-.101 2.309-.066.669.101.903.402 1.037.234.1.669.234 1.07.301-.167.87-1.371 2.51-2.107 2.844-.502.234-.837-.1-.703-.67.167-.601.335-3.479.1-5.185Zm-3.781-54.671c-.434.3-.936.568-1.572 1.003-.234-.3-.636-1.037-.703-1.539.335-.2.703-.535.937-.87.268.435.87.97 1.338 1.406Zm1.272.936c-.301.77-.602 1.573-.937 2.343-.569 0-1.405-.168-1.807-.302.469-.468 2.041-1.572 2.744-2.04Zm.803-8.197c0-.77 1.74-1.539 2.61-1.606-.235 1.004-.536 2.008-.837 2.978-.535-.167-1.773-.87-1.773-1.372Zm1.071 3.38c-.369 1.104-.803 2.14-1.205 3.211-.803-.434-1.773-1.405-2.175-1.974.669-1.07 1.506-1.572 2.275-1.974.235.1.737.469 1.105.736Zm-6.424 8.063s1.672.736 3.011.703a54.833 54.833 0 0 0-1.372 4.35c-.167-.034-4.517-2.242-5.721-2.577-.235-.067-.134-.301-.067-.368.067-.134 1.372-1.138 1.372-1.138s2.007-.334 2.777-.97Zm.2-2.108c-.401.502-1.405 1.07-2.275 1.305-.167-.803 0-2.275.301-3.011.402-.034.87-.134 1.238-.301.101.736.368 1.472.736 2.007Zm-7.227-6.591c-.669-.402-2.978-3.781-3.044-3.948-.034-.134-.034-.368.435-.368 1.907 0 5.219 4.35 5.219 4.35-.937.468-1.974.4-2.61-.034Zm3.547.97c.636.67 2.242 1.271 3.848 1.171-.536.602-1.539 1.07-2.777 1.07-.937 0-2.476-.802-3.447-1.773.736.168 1.673-.267 2.376-.468Zm-16.261 15.525c2.041-.569 4.517-2.041 4.517-2.041-.067.669-.535 2.476-.535 2.476s-.703.468-2.777 2.04c-1.372 1.004-4.049 3.079-4.484 3.079-.468 0-.301-.87-.301-1.439 0-.569 1.271-6.892 1.706-7.327l1.539-1.138s-.501 2.61-.501 3.747c0 .603.468.703.836.603Zm-4.283-2.744s.235.034.335 0c-1.037 2.911-1.807 5.99-1.974 9.335-.301 1.372-2.108 2.978-5.889 4.483-.334.168-.435.1-.535-.133a3.507 3.507 0 0 1-.201-1.54c1.272-2.375 1.673-4.483 1.673-6.39 2.51-1.606 4.718-3.446 6.591-5.755Zm-4.884-4.784c1.104-.402 3.58-1.974 3.58-1.974s-1.038 3.981-.569 5.821c-1.004 1.305-2.643 2.81-4.116 3.815.87-1.94 1.238-6.157 1.105-7.662Zm-25.931 22.986c0-1.44.201-3.413.937-5.187.903-.367 2.476-1.07 3.48-1.639.468.803 1.572 1.104 1.572 1.104-.569 1.104-1.371 2.744-1.74 4.149-1.304.736-2.442 1.606-3.68 2.008-.468.167-.569-.134-.569-.435Zm3.814.97s-.301 1.74.335 2.007c.636.268 2.208-.2 2.208-.2.134.736-.234 2.007-.502 2.643h-.033c-2.007-1.138-4.048-2.075-6.123-2.71 2.208-.402 4.115-1.74 4.115-1.74Zm-6.122-.77s-1.506.368-2.443.57c-.435.1-.569-.068-.602-.168-.234-.837-.268-1.707-.134-2.41 1.472-.367 3.848-2.509 3.848-2.509s-.97 2.041-.669 4.517Zm-3.748 4.15c13.517 0 29.042 19.338 33.793 25.729l-2.442 1.305c-4.818-6.391-19.406-24.325-31.351-24.325-9.669 0-13.082 5.889-13.082 10.975v.067c0 5.353 5.588 20.71 30.481 20.71 5.453 0 7.996-1.17 16.595-5.788 6.156-3.279 8.666-4.015 13.517-4.015 11.51 0 21.715 15.224 21.748 27.202-.033 6.524-2.242 12.145-6.29 15.859-3.513 3.245-8.197 4.684-13.517 4.216-7.227-.636-11.175.97-15.023 2.509-2.911 1.138-5.922 2.342-10.105 2.342-5.353 0-11.308-3.312-15.892-8.9-4.785-5.855-7.528-13.45-7.528-20.878 0-.201.033-.368.033-.535.1-3.011.97-6.29 1.74-8.733l2.676.636c-.736 2.308-1.572 5.42-1.706 8.13v.569c0 6.792 2.543 13.785 6.926 19.138 4.048 4.919 9.201 7.897 13.751 7.897 3.647 0 6.157-1.004 9.101-2.175 3.948-1.573 8.398-3.346 16.261-2.677 4.517.401 8.498-.803 11.443-3.513 3.412-3.145 5.353-8.197 5.353-13.885v-.067c0-10.673-9.201-24.458-18.971-24.458-5.922 0-10.238 2.342-14.789 4.818-4.483 2.476-9.167 5.019-15.324 5.019-11.007 0-20.476-3.145-26.465-9.101-4.985-4.952-6.759-10.84-6.759-14.387.034-6.826 4.919-13.685 15.826-13.685Zm-1.338-2.544-.468.034c-1.238.1-2.376.268-3.48.502l-.669.1c.167-.736.468-1.74 1.07-2.643.87-.268 2.209-.469 3.38-.803-.134.435-.335 2.442.167 2.81Zm-31.986 62.969c-.837.301-3.614 1.472-4.551 2.108-2.844-.736-4.918-1.506-6.725-2.509-.234-.134-.234-.369 0-.536 3.279-2.175 8.532-1.773 11.142-.602-.268.669-.335 1.071.134 1.539Zm-20.109 5.32c-.167-.167 0-.301 0-.301s5.253-1.037 5.989-1.372c.904.569 3.212 1.606 5.086 1.773-2.677.971-4.182 2.476-4.182 2.476-2.911-.803-4.818-1.439-6.893-2.576Zm-14.253-5.822c1.037-.535 5.052-.033 5.052-.033 1.606 2.208 4.049 3.714 6.023 4.416-.77.335-.67.971-.168 1.472-4.148-.468-9.401-3.814-10.907-5.587-.1-.134-.167-.167 0-.268Zm13.45-3.413c-1.07-.535-3.513-2.074-5.052-3.914-.234-.268-.167-.435.134-.435 3.848.033 8.097 1.773 11.175 3.312-1.573-.067-4.55.335-6.257 1.037Zm4.383 6.157v.167c-1.171.268-2.71.535-3.881.669-2.175-.602-4.784-2.375-5.822-3.446-.133-.134 0-.268.168-.335.334-.133 2.409-.568 4.015-.501 1.606 1.338 3.613 2.442 5.52 3.446Zm1.874-2.476c.368.301 1.338.97 2.409 1.372-.368.167-.736.435-1.004.635-1.84-1.003-4.584-2.375-6.457-3.647-.167-.133-.201-.267.033-.334 2.744-.87 5.989-1.205 8.064-.669-.837.368-2.342 1.204-3.079 1.907-.267.267-.167.569.034.736Zm-18.402-11.777c1.338.301 3.479 1.204 4.617 2.208-.368.201-.569.535-.569.836-.903-.468-2.543-.669-3.145-.702-.569-.77-1.071-1.606-1.238-2.041-.1-.368-.067-.402.335-.301Zm4.584 4.751c1.438 1.606 3.245 3.078 5.186 4.349-1.071-.1-3.681.335-4.618.636-1.572-.602-5.554-4.082-5.922-5.119-.067-.201-.033-.268.067-.368.803-.602 3.781-.101 5.287.502Zm-10.674-4.216c1.038 0 2.911.301 4.049.602l1.004 1.372c-.67.134-1.473.334-1.64.769-.736-.334-1.606-.569-2.342-.602-.368-.401-.937-1.238-1.238-1.874-.1-.167 0-.267.167-.267Zm3.38 4.65c.836 1.439 2.543 3.346 4.082 4.183-1.138-.067-2.342-.067-3.413.134-1.506-1.238-3.948-3.681-4.952-4.818-.134-.168.033-.335.268-.335 1.472-.167 3.044.234 4.015.836Zm20.577 17.968c-2.041-.168-7.194-2.242-8.8-4.082 0 0 1.205.234 2.275-.301 1.573 1.003 5.421 2.409 7.428 2.777-.937.535-1.171.836-.903 1.606Zm9.401 2.275c-3.914.234-5.52-.234-7.126-1.807-.402-.401-.234-.769.903-1.305 1.238.803 4.182 1.707 6.391 2.108-.268.435-.368.803-.168 1.004Zm0 55.307c0-.803.636-1.506 1.339-1.506 1.004 0 1.338.703 1.372 1.472.033 1.104-.937 1.673-1.439 1.673-.803 0-1.272-.535-1.272-1.639Zm-53.6-27.236h-.033c-1.272-1.606-4.082-3.279-6.96-5.554-3.279-2.576-5.788-6.357-5.788-10.974 0-3.513 2.744-6.491 5.922-6.491 4.517 0 7.127 3.212 9.067 6.29.603.937.87 2.075.87 3.346 0 1.606-1.572 9.502-3.078 13.383Zm34.797 48.281c0-1.272 1.439-2.242 1.439-4.852 0-4.784-5.287-8.665-8.599-10.071-2.041-5.955-8.398-8.264-15.023-6.624-4.584-4.986-8.666-14.889-9.603-24.057 2.041-5.086 3.246-10.774 3.714-16.763 1.305-2.141 2.309-5.286 1.84-8.163 7.194 2.643 21.313 5.587 37.775 5.587 10.807 0 19.874-1.874 26.298-4.082l.034.101c-4.116 4.65-8.432 16.528-14.421 23.889-5.755 7.026-10.907 13.249-10.907 20.61 0 4.35 2.141 6.023 2.141 8.264 0 .737-.301 1.473-.301 3.614 0 1.572.401 2.844 1.405 4.483-.535 1.171-.937 2.644-.937 4.116 0 1.539.536 3.245.837 3.981h-15.659l-.033-.033Zm-7.829-2.075c-.168-1.07-.469-2.476-.77-3.245 1.238-1.071 2.242-.736 2.242.335 0 1.104-.435 2.342-1.472 2.91Zm2.208-5.286s1.204-1.305 1.472-1.673c1.439 1.171 2.275 2.71 2.275 4.584 0 .569-.234 1.137-.502 1.372-.535-1.272-1.472-2.276-2.476-2.811-.1-.836-.769-1.472-.769-1.472Zm.401 4.851c.603.435.904 1.004.937 1.673-.368.469-1.438.536-2.409.368.536-.435 1.238-1.271 1.472-2.041Zm43.664 2.543c-1.138-1.372-1.74-4.282-.201-6.691-1.138-1.105-1.907-2.711-1.941-4.35-.033-.97.201-2.007.803-2.911-1.773.602-2.509 1.974-2.509 3.781 0 1.238.535 2.643 1.438 3.48-1.539 1.806-1.773 5.253-1.304 6.691H197.43c-1.205-1.104-1.907-2.911-1.907-4.717 0-1.907.334-3.179.836-4.082-1.439-2.209-1.874-5.287-.703-8.03.636-1.439 3.982-1.171 3.982-4.35 0-1.606-.937-2.944-3.045-2.944-1.271 0-2.844 1.137-2.844 3.279-.468-.703-.803-2.209-.803-3.145 0-6.993 4.484-11.042 11.878-20.745 5.186-6.825 10.339-19.573 15.09-24.826a83.592 83.592 0 0 1 6.491-.234h2.375c-2.71 6.759-7.227 17.432-9 21.581-1.974 4.651-1.506 9.703-.067 13.45 7.562-5.052 25.997-20.309 34.998-30.246.535.468 1.037.903 1.472 1.271-12.246 16.662-36.972 34.797-39.615 37.473-2.643 2.677-4.784 5.22-4.182 8.633 5.989-2.777 11.944.301 12.848 5.019.167 1.003.134 2.509 1.439 2.777 1.706.334 3.044.769 3.847 2.107-.468.302-1.606 1.071-2.108 1.707-.87-.669-1.673-.97-2.476-1.037-.568-1.606-2.041-3.079-3.613-3.647-.368-1.841-2.008-4.417-4.149-4.417-1.004 0-1.74.469-1.74.469 2.142 0 3.413 2.275 3.681 4.65 1.003.435 3.178 1.841 3.178 2.978 0 .703-.334 1.071-1.171 1.405.234 1.205.569 2.342.134 3.647-.134.703-.636 1.539-1.204 1.974h-6.123Zm132.461 0c1.506-4.149-.635-8.063-3.513-9.335-.602-1.438-3.613-3.345-5.353-4.583-2.443-1.707-3.513-7.094-9.77-7.094-3.011 0-3.413.435-5.721.435-2.911 0-9.503-11.81-11.242-19.974-2.878-13.551-6.826-26.867-10.239-34.195 5.253-5.989 15.458-19.339 15.458-32.387 0-12.046-2.844-19.206-6.29-24.994.435-.334 1.74-.97 2.877-.97 1.874 0 4.785 1.338 7.963 1.338 3.748 0 6.792-1.907 6.792-5.52 0-1.874-.535-3.045-1.539-3.413 1.439-5.052-.803-8.967-2.977-9.77-.402 2.61-1.339 4.517-2.376 5.755-2.71-1.874-3.547-2.978-3.781-4.082.971.569 2.643.803 3.614.736-.937-5.12-.87-8.398-.502-11.443l.468-.702c.469 2.074 2.175 3.613 3.012 3.613.669 0 .803-.301 1.137-.301.301 0 .736 1.405 1.439 1.405.569 0 1.104-.167 1.807-.636-.737 1.473-.837 3.447-.235 5.12 2.61.3 5.488-1.372 8.198-5.02 5.052 1.205 7.829-3.445 10.84-9.066 2.911-1.339 5.287-3.447 5.287-6.826 0-3.413-3.681-5.755-4.183-6.759-2.074-4.148-5.119-6.39-9.636-7.628-2.007-2.275-4.851-4.048-6.19-4.65-.869-2.343-3.178-4.551-5.821-4.685-9.469-6.09-21.146-7.394-21.146-7.394-1.974-2.108-5.822-3.748-9.234-3.748-30.581 0-51.025 33.794-77.356 49.753-14.789 8.967-24.726 9.636-54.705 9.636-22.986 0-47.711-4.684-59.556-4.684-21.647 0-29.376 9.803-40.183 9.803-13.986 0-53.032-18.368-53.032-41.555 0-6.792 2.51-14.387 10.941-14.387 6.759 0 9.201 4.283 9.201 7.36 0 3.045-.669 4.785-.669 6.124 0 3.446 1.64 5.654 3.948 7.963 1.439 1.405 2.744 6.424 5.086 6.424 3.613 0 7.227-8.8 7.227-13.016 0-3.513-4.049-6.022-4.55-8.063C41.279 10.116 38.1.212 22.643.212 11.2.212.293 7.64.293 24.302c0 23.42 27.235 47.444 58.452 57.147 2.208.736 4.684 1.372 6.524 1.706.535.1.636.234.402.904-.97 2.81-.937 4.517-.937 5.955-4.45 2.911-9.502 11.476-9.502 23.622 0 9.368-1.071 19.038-5.186 23.32-2.844 2.945-9.302 4.751-14.856 8.231-6.926 4.316-9.703 9.034-9.703 18.971 0 19.406-2.877 22.417-2.877 32.187 0 4.918.535 7.595 2.777 11.61.033.067.067.1.1.167H14.48v6.859h340.105v-6.859h-7.194ZM36.395 262.392v-34.897h-7.662v42.124h37.072v-7.227h-29.41ZM201.344 234.688v-7.193h-45.57v42.124h45.57v-7.227h-37.908v-10.506h30.548v-7.227h-30.548v-9.971h37.908ZM315.404 234.053c-9.736 0-18.001 5.687-18.001 14.721 0 9.034 8.265 14.755 18.001 14.755s18.001-5.721 18.001-14.755-8.265-14.721-18.001-14.721Zm0 36.837c-14.588 0-26.499-9.034-26.499-22.116 0-13.082 11.911-22.116 26.499-22.116 14.621 0 26.466 9.034 26.466 22.116 0 13.082-11.845 22.116-26.466 22.116Z"/></svg>