<svg xmlns="http://www.w3.org/2000/svg" width="1711" height="217" fill="none"><path fill="#000" d="M1005.46 59.99c1.03.89 2.06 1.789 3.07 2.697.82.67.82.67 1.65 1.353 16.66 14.109 24.94 35.652 26.92 56.952 1.97 25.06-3.87 50.504-20.33 69.996-12.26 14.047-29.384 23.329-48.012 25.382-3.43.192-6.847.225-10.281.211l-1.397-.005c-21.049-.106-38.924-7.559-54.179-21.944-6.764-7.077-11.812-15.157-15.716-24.097l-.576-1.319c-5.188-12.158-6.997-24.847-7.008-37.987l-.001-1.455c.032-21.585 6.17-43.462 21.068-59.673l.914-1c25.882-28.02 73.396-32.976 103.878-9.11Zm-82.545 24.266c-13.311 14.954-16.962 33.467-16.311 53.022.938 16.023 7.663 31.315 19.008 42.693 11.014 9.735 23.709 13.005 38.06 12.27 13.869-1.105 24.668-8.517 33.569-18.8 11.549-15.195 14.989-35.742 12.489-54.316-1.91-12.351-6.38-23.416-14.68-32.847l-1.328-1.706c-7.172-8.715-19.379-13.799-30.358-15.145-15.032-.879-29.841 3.794-40.449 14.83ZM374.632 63.69c16.363 14.86 25.445 35.713 27.163 57.639 1.099 25.411-3.57 50.956-21.194 70.312-12.861 13.624-29.987 23.827-49.132 24.848-21.93.374-21.93.374-32.145-2.815l-1.408-.427c-19.375-6.06-34.554-20.28-43.951-37.984-11.699-22.884-13.039-51.14-5.445-75.543 6.675-20.25 20.034-36.922 38.996-46.817 5.944-2.942 12.116-4.843 18.549-6.394.736-.178 1.471-.358 2.228-.542 23.238-4.499 48.543 2.21 66.339 17.723ZM290.56 81.56l-1.488 1.256c-10.838 9.981-17 26.365-18.002 40.83a2492.845 2492.845 0 0 1-.142 4.002c-.316 17.842 4.086 35.465 16.261 48.953l1.277 1.443c7.768 8.289 19.159 13.704 30.493 14.276 14.165.427 26.405-3.097 37.21-12.625 12.773-12.343 18.456-29.601 18.897-47.031.151-18.315-4.739-35.412-17.565-48.921-7.119-6.937-15.356-11.623-25.144-13.642l-2.233-.463c-14.969-1.269-28.017 2.13-39.564 11.922ZM1599.76 47.858H1711v23.591h-84.94v37.747h60.67v22.918h-60.67v59.316H1711v22.918h-111.24V47.858ZM1183.81 47.858h110.56v23.591h-84.27v37.747h60.68v22.918h-60.68v59.316h84.95v22.918h-111.24V47.858ZM122.022 47.858h110.561v23.591h-84.944v37.747h60.674v22.918h-60.674v59.316h85.618v22.918H122.022V47.858ZM665.389 47.858h26.966a3088.214 3088.214 0 0 1 19.631 58.959l3.704 11.487 2.156 6.69.431 1.336c4.053 12.571 8.113 25.141 12.207 37.699.505 1.55 1.01 3.1 1.513 4.65.691 2.126 1.385 4.252 2.079 6.377l.619 1.91.565 1.723.489 1.5c.339 1.137.34 1.137 1.1 1.804 6.004-17.94 11.996-35.883 17.834-53.879 2.382-7.342 4.778-14.68 7.186-22.014l.458-1.395 4.183-12.733c4.399-13.383 4.399-13.383 8.75-26.781l.591-1.83c.87-2.698 1.738-5.396 2.602-8.096l.878-2.729.744-2.323c.594-1.681.594-1.681 1.268-2.355a157.82 157.82 0 0 1 5.817-.066l1.766.003c1.868.003 3.737.012 5.605.02l3.791.01c3.104.007 6.209.019 9.313.032-1.495 5.992-3.46 11.794-5.475 17.624-1.054 3.05-2.099 6.1-3.147 9.152l-.684 1.991c-2.573 7.492-5.115 14.993-7.658 22.495l-4.114 12.131-.818 2.412c-3.048 8.985-6.107 17.967-9.167 26.949l-1.317 3.867-.659 1.934c-2.126 6.241-4.248 12.484-6.37 18.727l-5.013 14.74c-1.403 4.124-2.804 8.25-4.203 12.376-.885 2.607-1.771 5.214-2.658 7.82-.415 1.222-.83 2.445-1.243 3.667-.565 1.669-1.133 3.337-1.701 5.005l-.505 1.497c-1.146 3.353-1.146 3.353-1.897 4.104a40.2 40.2 0 0 1-2.799.076h-1.8l-1.955-.01-1.993-.003c-2.108-.004-4.217-.012-6.326-.021l-4.278-.009c-3.504-.008-7.008-.019-10.511-.033a32989.222 32989.222 0 0 1-19.434-57.028l-6.481-19.062-3.58-10.526-1.432-4.212-3.581-10.532-1.435-4.217a42993.23 42993.23 0 0 1-3.556-10.463 7264.16 7264.16 0 0 0-6.747-19.784 14965.6 14965.6 0 0 1-3.206-9.368 3468.99 3468.99 0 0 0-1.536-4.475c-.711-2.065-1.417-4.13-2.123-6.197l-.639-1.846-.584-1.718-.508-1.48c-.521-1.824-.801-3.71-1.113-5.582ZM1452.13 47.858h127.41v23.591h-50.56v142.899h-26.29V71.449h-50.56V47.858ZM1310.55 47.858h127.42v23.591h-50.56v142.899h-26.3V71.449h-50.56V47.858ZM1061.79 47.858h26.29V191.43h75.51v22.918h-101.8V47.858ZM0 47.858h25.618V191.43h75.505v22.918H0V47.858ZM537.819 140.911c8.336 6.966 11.679 15.08 13.638 25.579l.674 13.481h-59.999c2.752 8.256 4.48 12.911 12.097 16.857 6.711 2.798 13.961 2.443 20.736.016 4.242-1.926 7.237-4.649 10.312-8.11 2.746.977 4.97 2.32 7.374 3.96l2.041 1.385 2.046 1.395c1.346.902 2.695 1.8 4.045 2.697-1.941 5.915-7.614 10.312-12.909 13.27-12.62 5.808-28.31 7.45-41.642 3.078-10.04-4.084-18.486-11.012-22.85-21.109a153.296 153.296 0 0 1-1.475-4.002l-.482-1.359c-3.268-10.972-1.645-24.156 3.179-34.366 5.794-9.909 14.312-16.126 25.322-19.126 12.676-3.08 27.243-1.531 37.893 6.354Zm-41.643 15.469c-2.24 3.31-3.37 5.351-3.37 9.436h36.404c-.735-5.143-1.672-7.776-5.267-11.29-8.009-5.652-20.73-5.584-27.767 1.854ZM827.186 47.858h25.617v166.49h-25.617V47.858ZM573.03 113.24h20.899v22.244h22.921v18.199h-22.921c.045 5.035.093 10.069.158 15.104.031 2.345.057 4.689.075 7.034.021 2.692.058 5.384.096 8.076l.013 2.539.04 2.371.023 2.082c.312 2.192 1.004 3.472 2.291 5.26 2.71 1.82 5.609 1.817 8.764 1.348 1.355-.624 1.355-.624 2.57-1.433l2.149-1.264c3.409 1.091 4.788 4.133 6.615 6.994l1.053 1.569.983 1.522.9 1.386c.697 1.658.56 2.386-.113 4.033-8.13 6.841-18.921 6.928-28.988 6.066-5.907-1.139-11.225-4.208-14.705-9.184-3.609-6.619-3.781-13.747-3.695-21.117a1197.322 1197.322 0 0 1 .059-10.161c.021-2.508.03-5.016.04-7.525.022-4.9.057-9.8.099-14.7h-12.135v-18.199h12.809V113.24ZM180.673 0h33.708c-2.561 2.987-5.028 5.787-7.79 8.552l-1.032 1.034c-.714.714-1.429 1.428-2.145 2.14a1246.589 1246.589 0 0 0-3.23 3.235c-2.893 2.893-5.775 5.772-8.896 8.423-1.898 1.616-3.555 3.327-5.203 5.197-7.696 8.627-7.696 8.627-11.774 9.234-2.432.09-4.745-.213-7.121-.742 1.36-4.77 2.957-9.403 4.727-14.034l.676-1.787c.823-2.17 1.65-4.338 2.476-6.507L180.673 0Z"/></svg>