<svg xmlns="http://www.w3.org/2000/svg" width="416" height="135" fill="none"><path fill="#000" d="M30.61 17.06v1.85H23.4v-2.24c0-6.14-2.34-9.75-7.8-9.75s-7.8 3.61-7.8 9.65c0 15.31 22.91 16.77 22.91 35.97 0 10.33-4.97 17.06-15.4 17.06S0 62.88 0 52.55v-3.9h7.12v4.29c0 6.14 2.54 9.75 7.99 9.75s7.99-3.61 7.99-9.75C23.1 37.73.29 36.27.29 17.06.29 6.53 5.17 0 15.4 0s15.21 6.73 15.21 17.06Zm31 13.84v6.82H44.94v24.27h20.47v6.92H37.33V.68h28.08V7.6H44.94v23.3h16.67Zm40.94-13.74v6.14h-7.21v-6.53c0-6.14-2.44-9.85-7.99-9.85-5.55 0-7.99 3.71-7.99 9.85v36.07c0 6.14 2.53 9.85 7.99 9.85 5.46 0 7.99-3.7 7.99-9.85v-8.87h7.21v8.48c0 10.33-4.87 17.16-15.4 17.16-10.53 0-15.31-6.82-15.31-17.16V17.16C71.84 6.83 76.72 0 87.15 0s15.4 6.82 15.4 17.16Zm106.57 51.76h-6.82V.68h9.65l15.79 49.33V.68h6.73v68.24h-7.9l-17.45-55.18v55.18ZM258.26.68c10.63 0 15.5 6.43 15.5 16.96v34.41c0 10.43-4.88 16.87-15.5 16.87h-15.99V.68h15.99Zm-.1 61.32c5.46 0 8.09-3.41 8.09-9.65v-35.1c0-6.24-2.63-9.65-8.19-9.65h-8.19V62h8.29Zm46.99-31.1v6.82h-16.67v24.27h20.47v6.92h-28.08V.68h28.08V7.6h-20.47v23.3h16.67ZM336.83.68l11.11 59.37L358.96.68h7.02l-12.77 68.24H342L329.13.68h7.7Zm42.6 0v68.24h-7.6V.68h7.6ZM411.5 30.9v6.82h-16.67v24.27h20.47v6.92h-28.08V.68h28.08V7.6h-20.47v23.3h16.67ZM195.07 20.79l-9-7.77-8.35 9.66c-.75.86-.65 2.17.21 2.92.39.34.87.5 1.35.5.58 0 1.16-.24 1.57-.72l3.58-4.14c-.02 3.29-.83 6.59-2.4 9.61a40.623 40.623 0 0 1-2.52 4.2 48.904 48.904 0 0 1-5.75 6.92c-.69.69-1.42 1.39-2.2 2.09-2.38 2.13-4.67 4.19-6.98 6.26-3.32 2.98-6.75 6.06-10.44 9.35l-4.61 4.28-4.58-4.25-.03-.03c-3.73-3.32-7.2-6.44-10.55-9.45l-6.86-6.16c-5.57-4.99-8.77-9.93-10.48-13.21-2.37-4.56-3.02-9.73-1.81-14.56.03-.13.07-.26.1-.39 1.35-5 5.13-8.88 10.12-10.39 5.1-1.54 10.53-.35 14.53 3.17 4.84 4.27 7.69 9.84 7.72 9.9l1.84 3.67 1.85-3.67c.03-.06 2.87-5.63 7.72-9.9.12-.1.23-.2.35-.3.02-.01.03-.03.05-.04.1-.08.2-.16.31-.24.02-.02.04-.03.07-.05.11-.08.21-.16.32-.24.01 0 .02-.02.04-.03 3.71-2.7 8.45-3.6 12.93-2.4v-.02c2.77.73 5.35 2.25 7.38 4.54.76.85 2.07.93 2.92.17.86-.76.93-2.07.17-2.92-2.47-2.78-5.78-4.79-9.41-5.77-.66-.18-1.32-.32-1.99-.43-.1-.02-.2-.03-.3-.05-.06 0-.12-.02-.18-.02-.15-.02-.3-.04-.45-.05h-.07l-.61-.06a19.22 19.22 0 0 0-13.31 4.02s-.02.01-.03.02c-.14.11-.28.22-.42.34-.02.01-.04.03-.05.04-.15.13-.3.25-.45.38-3.05 2.69-5.36 5.77-6.83 8.01-1.47-2.24-3.78-5.32-6.83-8.01-5.08-4.47-11.98-5.98-18.46-4.03-6.37 1.92-11.2 6.88-12.92 13.27-.04.15-.08.3-.12.46-1.45 5.82-.69 12.03 2.16 17.48 2.67 5.13 6.61 10.1 11.39 14.38 2.34 2.09 4.6 4.12 6.86 6.15 3.35 3.01 6.82 6.12 10.55 9.44l7.38 6.85 7.38-6.85c3.68-3.28 7.1-6.36 10.42-9.33 2.31-2.07 4.6-4.13 6.99-6.27.63-.56 1.24-1.14 1.84-1.72 2.79-2.73 5.24-5.69 7.26-8.76.84-1.28 1.61-2.58 2.29-3.89 1.98-3.81 2.95-7.98 2.87-12.13l3.8 3.28c.86.75 2.17.65 2.92-.21s.65-2.17-.21-2.92l-.04.02Z"/><path fill="#222221" d="M412.75 102.86c-.84-.95-1.69-1.91-2.24-3-.3-.64-.28-1.06.43-1.51 1.02-.63 2.01-1.34 2.9-2.14 1.57-1.41 1.74-2.32 1.15-3.51-.49-1-1.38-1.78-2.46-1.85-2.33-.15-4.68-.09-7.01-.06-.41 0-.96.21-1.19.52-.32.43-.58 1.04-.55 1.56.03.61.6.78 1.21.75 1.33-.07 2.66-.14 3.99-.14.56 0 1.38-.09 1.69.28.02.1.15.17-.03.4-.45.42-.77.77-1.25 1.15-.56.46-1.11.82-2.02 1.61-.75.68-1.84 1.57-1.32 3.09.33.98.98 1.89 1.63 2.72.7.89 1.6 1.63 2.36 2.47.78.86.76 1.35-.25 1.99-1.2.76-2.49 1.36-3.77 1.99-.64.32-1.2.63-1.07 1.55.19 1.07 6.18-.34 7.86-1.36 1.6-.97 2.49-2.35 1.49-4.29-.41-.8-.95-1.55-1.56-2.25l.01.03Zm-10.59 4.26c-.91-.09-1.82-.08-2.73-.18-2.42-.11-4.42-.2-6.4-.64-.86-.13-1.31-.55-.68-1.66 1.1-1.92 2.39-3.73 3.54-5.62.87-1.42 1.63-2.7 2.16-3.99.39-1.03.55-1.81-.08-2.36-.65-.56-1.36-.36-2.06-.1-2.88 1.06-5.35 2.73-7.49 4.91-.48.49-1.1 1.01-.48 1.65.19.2 1.08-.08 1.51-.36.98-.62 1.86-1.43 2.83-2.07 1.25-.84 1.92-1.37 2.56-1.55.15-.06.28.14.19.35-.31.76-.62 1.29-.91 1.75-.63 1-.84 1.49-1.76 2.74-1.4 2.08-2.57 4.23-3.56 6.49-.58 1.16.11 2.51 1.31 2.91.56.19.7.22 1.32.33l.54.09c.5.04 1.47.17 2.22.21 1.03.04 1.97.1 2.53.11 1.74.02 2.08-.01 3.22-.11.97-.1 1.8-.21 2.49-.44.71-.23 1.11-.61 1.04-1.35-.08-.75-.64-1.06-1.31-1.13v.02Zm-19.85-16.99c-1.67-.25-2.27 1.31-2.15 3.12.15 4.29.11 5.82.28 8.7l.09 2.44c.04 1.02.08 1.79.15 3.12.08 1.47.04 2.73.28 4.01.11.42.23.63.77.67.58 0 .78-.54.81-.93.25-3.02.42-5.09.56-8.11.31-3.78.66-7.21.8-10.83.04-.92-.61-2.04-1.58-2.18l-.01-.01Zm-74.27 1.74c.47-.03 1.51-1.31 1.49-1.84-.03-.7-1.13-1.74-1.8-1.69-.84.06-1.61.97-1.55 1.85.06.95.93 1.73 1.87 1.68h-.01Zm65 16.5c-.41-.29-.9-.35-1.38-.4-.13-.02-.25-.03-.37-.05-.45-.06-.89-.11-1.3-.16-3.23-.38-5.36-.63-8.9-4.48-.78-.79-1.84-1.15-3.05-1.02-.48.05-.97.12-1.45.19-.55.08-1.13.17-1.69.22-1.47.13-2.1.15-2.46-.15-.33-.28-.36-.77-.43-1.66-.01-.17-.03-.36-.04-.56v-.38c-.2-2.04-1.39-3.18-3.19-3.04-2.73.21-5.34.72-7.86 1.21-1.48.29-2.96.77-3.77 2.29-.12.23-.45.41-.97.54-.53.13-1.12.26-1.74.4-1.63.38-3.48.8-4.85 1.2-1.41.49-1.69-.25-2.06-1.19-.18-.45-.38-.97-.74-1.49-.06-.08-.12-.18-.19-.29-.85-1.28-2.61-3.94-5.55-3.62-.6.22-.67.5-.82 1.04-.22.84-.6 2.26-3.57 4.66-1.55 1.28-2.26 1.82-3.67 2.68-.66.4-2.04 1.24-3.07.51-.79-.56-.75-1.49-.71-2.31 0-.16.01-.32.02-.47v-.27c.01-.88.02-1.79-.19-2.61-.13-.5-.72-1.23-1.1-1.24h-.19c-.65-.03-1.21-.05-1.48.68l-.02.04c-.18.49-.3.81-.61 1.43-.75 1.44-1.92 3.25-2.93 4.04-.33.26-.69.51-1.05.44-.23-.05-.44-.22-.62-.54-.09-.16-.19-.33-.29-.49-.34-.58-.7-1.17-.87-1.82-.05-.18-.1-.37-.16-.55-.33-1.09-.68-2.23.33-3.39.34-.41.16-1.4-.36-1.96-.42-.46-1.03-.5-1.44-.53h-.15c-1.21-.13-2.28.25-3.16 1.12-1.38 1.36-2.13 2.2-3.47 4.48-.34.53-.6 1.03-.83 1.47-.63 1.19-1.12 2.12-2.53 2.82-.18.09-.36.16-.55.23-1.62.35-3.01.14-4.16-.61-1.85-1.22-2.54-3.49-2.79-4.73-.24-.98-.42-1.94-.59-2.88-.15-.81-.3-1.65-.49-2.47-.25-1.04-.99-1.93-1.9-2.26-.56-.2-1.43-.29-2.43.45-.7.52-1.33 1.14-1.74 1.71-1.35 1.89-2.68 3.85-3.96 5.74-.47.7-.95 1.4-1.43 2.09l-1.5 2.19-.12-1.14c-.04-.37-.07-.63-.09-.9-.04-.52-.08-1.04-.13-1.56-.11-1.36-.23-2.76-.3-4.14-.08-1.45-.82-2.61-1.97-3.1-1.51-.66-2.79.59-3.27 1.15-.41.48-.8.96-1.2 1.45-.25.31-.51.62-.76.92l-.05.13-.04-.02-.2-.08-.04-.02.05-.13c.09-1.03.16-1.89.25-2.79.22-2.12.35-3.5 0-5.27-.23-1.19-.81-1.91-1.78-2.2-.16-.05-.31-.07-.46-.07-.75-.01-1.34.55-2.01 1.18l-.1.1c-.36.34-1.13 1.23-1.54 1.71l-.19.23c-7.32 8.43-10.56 12.23-17.14 21.56-.65.93-1.01 1.68-1.21 2.52-.13.57 0 1.31.59 1.59.73.35 1 .18 1.23.03l.07-.04c.39-.24.77-.81 1.05-1.23l.06-.09c4.27-6.41 7.45-10.21 11.48-15.02 1.35-1.61 2.74-3.28 4.33-5.22.23-.29.62-.68 1.02-1.11l.66-.69.2-.22.04.3c.13.89.06 1.77-.03 2.52l-.21 1.89c-.34 3.02-.68 6.15-1.22 9.2-.06.32-.14.66-.21.99-.3 1.29-.59 2.51.47 2.98 1.37.45 2.55-.58 3.06-1.73 1.14-2.54 2.37-5.09 3.57-7.55l.39-.81c.16-.32.36-.75.77-1.25.12-.11.22-.1.27-.08.3.1.46.88.7 2.58.04.28.08.54.11.72.14.82.24 1.68.32 2.52.17 1.57.34 3.2.87 4.57.4 1.01.99 1.64 1.62 1.74.57.08 1.17-.25 1.74-.98 1.99-2.52 2.86-4.04 4.05-6.14l.43-.75c.03-.05 2.9-5.04 3.6-5.27.22-.07.42-.05.59.06.54.34.69 1.47.83 2.57.04.29.07.57.12.81.46 2.64.86 4.35 3.07 6.14 1.97 1.6 4.56 2.24 6.93 1.72.16-.04 1.25-.3 1.46-.38l.05-.02c.34-.11.69-.23 1.04-.33l.15-.05.05.27c.01.09.03.19.05.29.21.89.61 1.48 1.17 1.73.51.22 1.14.14 1.81-.24.21-.12.96-.59 1.77-1.7.54-.85.79-1.4 1.21-2.29l.27-.57c.35-.97.73-1.66 1.04-2.21l.2-.35.12.26c.05.1.1.25.18.44.14.38.34.9.6 1.41.68 1.37 1.84 2.72 1.89 2.78l.09.11c.78.87 1.94 1.02 2.87.36.8-.57 1.51-1.29 2.2-1.98.31-.31.62-.62.93-.92l.14-.14.08.18s.03.06.06.11c.08.15.21.41.31.68.45 1.31 1.13 2.18 2.04 2.6.98.45 2.23.39 3.71-.2 1.19-.57 3-1.88 4.96-3.61 1.5-1.15 3.5-3.43 4.46-5.09l.05-.09.1.02c1.01.21 3.17 3 3.08 3.98.06 1.55-1.33 2.08-2 2.34-.59.23-1.13.89-1.19 1.48-.03.25.02.6.4.85.92.7 2.48.11 3.06-.11l.05-.02c.75-.28 1.44-.77 2.08-1.26 2.34-1.79 5.04-2.94 8.02-3.39.51-.08.89-.02 1.17.19.24.18.38.47.43.86.22 1.76.75 4.13 2.01 5.42.48.49.75.65 1.63.76 1.24.15 2.09-.72 2.32-2.41.19-2.73-.56-4.72-2.51-6.63l-.1-.1.1-.1c.06-.06.1-.11.14-.15.08-.09.14-.16.23-.21 2.07-1.22 4.4-1.49 6.41-1.6.71-.04 1.19.34 1.3 1.03.07.43.17.86.27 1.28.13.57.26 1.15.33 1.74.15 1.17.62 2.06 1.37 2.58.7.48 1.6.61 2.6.37.36-.09.74-.14 1.1-.2.47-.07.95-.14 1.4-.28h.04c1.41-.45 3.02-.94 4.21.66.6.63 1.8 1.59 2.55 1.93 2.12.96 4.67 1.65 6.81 1.83 1.2.1 2.19.04 3.1-.2.31-.08 1-.47 1-1.08 0-.6-.09-.88-.39-1.09l.12-.07Zm-44.08 25.14c-.03-.11-.04-.32-.04-.64v-.46c0-.48-.07-.84-.2-1.07-.13-.23-.36-.41-.67-.54.38-.13.65-.35.81-.67.16-.31.25-.63.25-.96 0-.27-.04-.51-.13-.72-.08-.21-.2-.4-.34-.58-.18-.21-.39-.37-.64-.48-.25-.11-.61-.17-1.08-.18h-3.27v6.85h1.4v-2.68h1.4c.4 0 .67.07.82.22.14.15.22.44.23.87v.64c.01.2.03.4.07.59.02.09.05.21.09.37h1.58v-.17a.522.522 0 0 1-.26-.39h-.02Zm-1.69-3.37c-.15.07-.38.11-.69.11h-1.54v-1.84h1.58c.29 0 .51.04.66.12.26.14.39.42.39.84 0 .38-.14.64-.41.77h.01Zm-20.05-2.92h-2.94v6.85h1.42v-2.46h1.43c.74 0 1.32-.17 1.72-.5.4-.33.6-.91.6-1.71 0-.74-.2-1.29-.6-1.64-.4-.35-.94-.53-1.62-.53l-.01-.01Zm.53 2.96c-.18.16-.43.25-.76.25h-1.29v-2.02h1.29c.33 0 .58.08.76.23.18.15.27.41.27.76 0 .35-.09.62-.27.78Zm35.77-.01-1.2-.28c-.46-.11-.77-.2-.91-.28a.586.586 0 0 1-.33-.55c0-.27.11-.47.34-.62.23-.15.53-.22.9-.22.34 0 .62.06.85.17.34.17.53.47.55.88h1.37c-.03-.73-.3-1.28-.81-1.67-.52-.38-1.14-.57-1.87-.57-.87 0-1.54.2-1.99.61-.45.41-.68.92-.68 1.53 0 .67.23 1.17.69 1.48.27.19.77.36 1.5.53l.74.16c.43.09.75.2.95.32.2.12.3.3.3.53 0 .39-.2.65-.61.79-.21.07-.49.11-.84.11-.58 0-.98-.14-1.22-.42-.13-.15-.22-.39-.26-.7h-1.37c0 .71.26 1.27.77 1.68.51.41 1.23.61 2.13.61.9 0 1.57-.21 2.05-.62.48-.41.73-.93.73-1.56s-.2-1.08-.61-1.4c-.26-.21-.66-.37-1.18-.5l.01-.01Zm-28.25-2.95-2.44 6.85h1.5l.46-1.41h2.52l.45 1.41h1.55l-2.42-6.85h-1.62Zm-.09 4.26.89-2.69.86 2.69h-1.75Zm20.03-4.26h-1.42v6.85h1.42v-6.85Z"/><path fill="#000" d="M202.247 112.39v-8.727h3.051c.608 0 1.109.105 1.504.315.395.207.689.487.882.84.193.349.29.737.29 1.163 0 .375-.067.685-.2.929a1.566 1.566 0 0 1-.52.579 2.375 2.375 0 0 1-.695.316v.085c.267.017.536.111.806.281.27.171.495.415.677.733.182.318.273.708.273 1.168 0 .437-.099.831-.298 1.18-.199.35-.513.627-.942.831-.429.205-.987.307-1.675.307h-3.153Zm1.057-.937h2.096c.691 0 1.181-.134 1.47-.401.293-.27.439-.597.439-.98a1.552 1.552 0 0 0-.226-.818 1.628 1.628 0 0 0-.643-.605c-.278-.154-.608-.231-.989-.231h-2.147v3.035Zm0-3.955h1.96c.318 0 .605-.063.861-.188.258-.125.463-.301.613-.528.154-.227.23-.494.23-.801 0-.384-.133-.709-.4-.976-.267-.27-.691-.405-1.27-.405h-1.994v2.898Zm5.997-3.835h1.211l2.42 4.074h.102l2.421-4.074h1.21l-3.153 5.13v3.597h-1.057v-3.597l-3.154-5.13Z"/></svg>