<svg width="416" height="135" viewBox="0 0 416 135" fill="none" xmlns="http://www.w3.org/2000/svg">
<path d="M30.61 17.06V18.91H23.4V16.67C23.4 10.53 21.06 6.92 15.6 6.92C10.14 6.92 7.8 10.53 7.8 16.57C7.8 31.88 30.71 33.34 30.71 52.54C30.71 62.87 25.74 69.6 15.31 69.6C4.88 69.6 0 62.88 0 52.55V48.65H7.12V52.94C7.12 59.08 9.66 62.69 15.11 62.69C20.56 62.69 23.1 59.08 23.1 52.94C23.1 37.73 0.29 36.27 0.29 17.06C0.29 6.53 5.17 0 15.4 0C25.63 0 30.61 6.73 30.61 17.06ZM61.61 30.9V37.72H44.94V61.99H65.41V68.91H37.33V0.68H65.41V7.6H44.94V30.9H61.61ZM102.55 17.16V23.3H95.34V16.77C95.34 10.63 92.9 6.92 87.35 6.92C81.8 6.92 79.36 10.63 79.36 16.77V52.84C79.36 58.98 81.89 62.69 87.35 62.69C92.81 62.69 95.34 58.99 95.34 52.84V43.97H102.55V52.45C102.55 62.78 97.68 69.61 87.15 69.61C76.62 69.61 71.84 62.79 71.84 52.45V17.16C71.84 6.83 76.72 0 87.15 0C97.58 0 102.55 6.82 102.55 17.16ZM209.12 68.92H202.3V0.68H211.95L227.74 50.01V0.68H234.47V68.92H226.57L209.12 13.74V68.92ZM258.26 0.68C268.89 0.68 273.76 7.11 273.76 17.64V52.05C273.76 62.48 268.88 68.92 258.26 68.92H242.27V0.68H258.26ZM258.16 62C263.62 62 266.25 58.59 266.25 52.35V17.25C266.25 11.01 263.62 7.6 258.06 7.6H249.87V62H258.16ZM305.15 30.9V37.72H288.48V61.99H308.95V68.91H280.87V0.68H308.95V7.6H288.48V30.9H305.15ZM336.83 0.68L347.94 60.05L358.96 0.68H365.98L353.21 68.92H342L329.13 0.68H336.83ZM379.43 0.68V68.92H371.83V0.68H379.43ZM411.5 30.9V37.72H394.83V61.99H415.3V68.91H387.22V0.68H415.3V7.6H394.83V30.9H411.5ZM195.07 20.79L186.07 13.02L177.72 22.68C176.97 23.54 177.07 24.85 177.93 25.6C178.32 25.94 178.8 26.1 179.28 26.1C179.86 26.1 180.44 25.86 180.85 25.38L184.43 21.24C184.41 24.53 183.6 27.83 182.03 30.85C181.275 32.2994 180.434 33.7019 179.51 35.05C177.81 37.5286 175.885 39.8451 173.76 41.97C173.07 42.66 172.34 43.36 171.56 44.06C169.18 46.19 166.89 48.25 164.58 50.32C161.26 53.3 157.83 56.38 154.14 59.67L149.53 63.95L144.95 59.7L144.92 59.67C141.19 56.35 137.72 53.23 134.37 50.22L127.51 44.06C121.94 39.07 118.74 34.13 117.03 30.85C114.66 26.29 114.01 21.12 115.22 16.29C115.25 16.16 115.29 16.03 115.32 15.9C116.67 10.9 120.45 7.02 125.44 5.51C130.54 3.97 135.97 5.16 139.97 8.68C144.81 12.95 147.66 18.52 147.69 18.58L149.53 22.25L151.38 18.58C151.41 18.52 154.25 12.95 159.1 8.68C159.22 8.58 159.33 8.48 159.45 8.38C159.47 8.37 159.48 8.35 159.5 8.34C159.6 8.26 159.7 8.18 159.81 8.1C159.83 8.08 159.85 8.07 159.88 8.05C159.99 7.97 160.09 7.89 160.2 7.81C160.21 7.81 160.22 7.79 160.24 7.78C163.95 5.08 168.69 4.18 173.17 5.38V5.36C175.94 6.09 178.52 7.61 180.55 9.9C181.31 10.75 182.62 10.83 183.47 10.07C184.33 9.31 184.4 8 183.64 7.15C181.17 4.37 177.86 2.36 174.23 1.38C173.57 1.2 172.91 1.06 172.24 0.95C172.14 0.93 172.04 0.92 171.94 0.9C171.88 0.9 171.82 0.88 171.76 0.88C171.61 0.86 171.46 0.84 171.31 0.83H171.24L170.63 0.77C165.847 0.402066 161.1 1.83597 157.32 4.79C157.32 4.79 157.3 4.8 157.29 4.81C157.15 4.92 157.01 5.03 156.87 5.15C156.85 5.16 156.83 5.18 156.82 5.19C156.67 5.32 156.52 5.44 156.37 5.57C153.32 8.26 151.01 11.34 149.54 13.58C148.07 11.34 145.76 8.26 142.71 5.57C137.63 1.1 130.73 -0.41 124.25 1.54C117.88 3.46 113.05 8.42 111.33 14.81C111.29 14.96 111.25 15.11 111.21 15.27C109.76 21.09 110.52 27.3 113.37 32.75C116.04 37.88 119.98 42.85 124.76 47.13C127.1 49.22 129.36 51.25 131.62 53.28C134.97 56.29 138.44 59.4 142.17 62.72L149.55 69.57L156.93 62.72C160.61 59.44 164.03 56.36 167.35 53.39C169.66 51.32 171.95 49.26 174.34 47.12C174.97 46.56 175.58 45.98 176.18 45.4C178.97 42.67 181.42 39.71 183.44 36.64C184.28 35.36 185.05 34.06 185.73 32.75C187.71 28.94 188.68 24.77 188.6 20.62L192.4 23.9C193.26 24.65 194.57 24.55 195.32 23.69C196.07 22.83 195.97 21.52 195.11 20.77L195.07 20.79Z" fill="black"/>
<path d="M412.75 102.86C411.91 101.91 411.06 100.95 410.51 99.86C410.21 99.22 410.23 98.8 410.94 98.35C411.96 97.72 412.95 97.01 413.84 96.21C415.41 94.8 415.58 93.89 414.99 92.7C414.5 91.7 413.61 90.92 412.53 90.85C410.2 90.7 407.85 90.76 405.52 90.79C405.11 90.79 404.56 91 404.33 91.31C404.01 91.74 403.75 92.35 403.78 92.87C403.81 93.48 404.38 93.65 404.99 93.62C406.32 93.55 407.65 93.48 408.98 93.48C409.54 93.48 410.36 93.39 410.67 93.76C410.69 93.86 410.82 93.93 410.64 94.16C410.19 94.58 409.87 94.93 409.39 95.31C408.83 95.77 408.28 96.13 407.37 96.92C406.62 97.6 405.53 98.49 406.05 100.01C406.38 100.99 407.03 101.9 407.68 102.73C408.38 103.62 409.28 104.36 410.04 105.2C410.82 106.06 410.8 106.55 409.79 107.19C408.59 107.95 407.3 108.55 406.02 109.18C405.38 109.5 404.82 109.81 404.95 110.73C405.14 111.8 411.13 110.39 412.81 109.37C414.41 108.4 415.3 107.02 414.3 105.08C413.89 104.28 413.35 103.53 412.74 102.83L412.75 102.86ZM402.16 107.12C401.25 107.03 400.34 107.04 399.43 106.94C397.01 106.83 395.01 106.74 393.03 106.3C392.17 106.17 391.72 105.75 392.35 104.64C393.45 102.72 394.74 100.91 395.89 99.02C396.76 97.6 397.52 96.32 398.05 95.03C398.44 94 398.6 93.22 397.97 92.67C397.32 92.11 396.61 92.31 395.91 92.57C393.03 93.63 390.56 95.3 388.42 97.48C387.94 97.97 387.32 98.49 387.94 99.13C388.13 99.33 389.02 99.05 389.45 98.77C390.43 98.15 391.31 97.34 392.28 96.7C393.53 95.86 394.2 95.33 394.84 95.15C394.99 95.09 395.12 95.29 395.03 95.5C394.72 96.26 394.41 96.79 394.12 97.25C393.49 98.25 393.28 98.74 392.36 99.99C390.96 102.07 389.79 104.22 388.8 106.48C388.22 107.64 388.91 108.99 390.11 109.39C390.67 109.58 390.81 109.61 391.43 109.72L391.97 109.81C392.47 109.85 393.44 109.98 394.19 110.02C395.22 110.06 396.16 110.12 396.72 110.13C398.46 110.15 398.8 110.12 399.94 110.02C400.91 109.92 401.74 109.81 402.43 109.58C403.14 109.35 403.54 108.97 403.47 108.23C403.39 107.48 402.83 107.17 402.16 107.1V107.12ZM382.31 90.13C380.64 89.88 380.04 91.44 380.16 93.25C380.31 97.54 380.27 99.07 380.44 101.95L380.53 104.39C380.57 105.41 380.61 106.18 380.68 107.51C380.76 108.98 380.72 110.24 380.96 111.52C381.07 111.94 381.19 112.15 381.73 112.19C382.31 112.19 382.51 111.65 382.54 111.26C382.79 108.24 382.96 106.17 383.1 103.15C383.41 99.37 383.76 95.94 383.9 92.32C383.94 91.4 383.29 90.28 382.32 90.14L382.31 90.13ZM308.04 91.87C308.51 91.84 309.55 90.56 309.53 90.03C309.5 89.33 308.4 88.29 307.73 88.34C306.89 88.4 306.12 89.31 306.18 90.19C306.24 91.14 307.11 91.92 308.05 91.87H308.04ZM373.04 108.37C372.63 108.08 372.14 108.02 371.66 107.97C371.53 107.95 371.41 107.94 371.29 107.92C370.84 107.86 370.4 107.81 369.99 107.76C366.76 107.38 364.63 107.13 361.09 103.28C360.31 102.49 359.25 102.13 358.04 102.26C357.56 102.31 357.07 102.38 356.59 102.45C356.04 102.53 355.46 102.62 354.9 102.67C353.43 102.8 352.8 102.82 352.44 102.52C352.11 102.24 352.08 101.75 352.01 100.86C352 100.69 351.98 100.5 351.97 100.3V99.92C351.77 97.88 350.58 96.74 348.78 96.88C346.05 97.09 343.44 97.6 340.92 98.09C339.44 98.38 337.96 98.86 337.15 100.38C337.03 100.61 336.7 100.79 336.18 100.92C335.65 101.05 335.06 101.18 334.44 101.32C332.81 101.7 330.96 102.12 329.59 102.52C328.18 103.01 327.9 102.27 327.53 101.33C327.35 100.88 327.15 100.36 326.79 99.84C326.73 99.76 326.67 99.66 326.6 99.55C325.75 98.27 323.99 95.61 321.05 95.93C320.45 96.15 320.38 96.43 320.23 96.97C320.01 97.81 319.63 99.23 316.66 101.63C315.11 102.91 314.4 103.45 312.99 104.31C312.33 104.71 310.95 105.55 309.92 104.82C309.13 104.26 309.17 103.33 309.21 102.51C309.21 102.35 309.22 102.19 309.23 102.04V101.77C309.24 100.89 309.25 99.98 309.04 99.16C308.91 98.66 308.32 97.93 307.94 97.92H307.75C307.1 97.89 306.54 97.87 306.27 98.6L306.25 98.64C306.07 99.13 305.95 99.45 305.64 100.07C304.89 101.51 303.72 103.32 302.71 104.11C302.38 104.37 302.02 104.62 301.66 104.55C301.43 104.5 301.22 104.33 301.04 104.01C300.95 103.85 300.85 103.68 300.75 103.52C300.41 102.94 300.05 102.35 299.88 101.7C299.83 101.52 299.78 101.33 299.72 101.15C299.39 100.06 299.04 98.92 300.05 97.76C300.39 97.35 300.21 96.36 299.69 95.8C299.27 95.34 298.66 95.3 298.25 95.27H298.1C296.89 95.14 295.82 95.52 294.94 96.39C293.56 97.75 292.81 98.59 291.47 100.87C291.13 101.4 290.87 101.9 290.64 102.34C290.01 103.53 289.52 104.46 288.11 105.16C287.93 105.25 287.75 105.32 287.56 105.39C285.94 105.74 284.55 105.53 283.4 104.78C281.55 103.56 280.86 101.29 280.61 100.05C280.37 99.07 280.19 98.11 280.02 97.17C279.87 96.36 279.72 95.52 279.53 94.7C279.28 93.66 278.54 92.77 277.63 92.44C277.07 92.24 276.2 92.15 275.2 92.89C274.5 93.41 273.87 94.03 273.46 94.6C272.11 96.49 270.78 98.45 269.5 100.34C269.03 101.04 268.55 101.74 268.07 102.43L266.57 104.62L266.45 103.48C266.41 103.11 266.38 102.85 266.36 102.58C266.32 102.06 266.28 101.54 266.23 101.02C266.12 99.66 266 98.26 265.93 96.88C265.85 95.43 265.11 94.27 263.96 93.78C262.45 93.12 261.17 94.37 260.69 94.93C260.28 95.41 259.89 95.89 259.49 96.38C259.24 96.69 258.98 97 258.73 97.3L258.68 97.43L258.64 97.41L258.44 97.33L258.4 97.31L258.45 97.18C258.54 96.15 258.61 95.29 258.7 94.39C258.92 92.27 259.05 90.89 258.7 89.12C258.47 87.93 257.89 87.21 256.92 86.92C256.76 86.87 256.61 86.85 256.46 86.85C255.71 86.84 255.12 87.4 254.45 88.03L254.35 88.13C253.99 88.47 253.22 89.36 252.81 89.84L252.62 90.07C245.3 98.5 242.06 102.3 235.48 111.63C234.83 112.56 234.47 113.31 234.27 114.15C234.14 114.72 234.27 115.46 234.86 115.74C235.59 116.09 235.86 115.92 236.09 115.77L236.16 115.73C236.55 115.49 236.93 114.92 237.21 114.5L237.27 114.41C241.54 108 244.72 104.2 248.75 99.39C250.1 97.78 251.49 96.11 253.08 94.17C253.31 93.88 253.7 93.49 254.1 93.06L254.76 92.37L254.96 92.15L255 92.45C255.13 93.34 255.06 94.22 254.97 94.97L254.76 96.86C254.42 99.88 254.08 103.01 253.54 106.06C253.48 106.38 253.4 106.72 253.33 107.05C253.03 108.34 252.74 109.56 253.8 110.03C255.17 110.48 256.35 109.45 256.86 108.3C258 105.76 259.23 103.21 260.43 100.75L260.82 99.94C260.98 99.62 261.18 99.19 261.59 98.69C261.71 98.58 261.81 98.59 261.86 98.61C262.16 98.71 262.32 99.49 262.56 101.19C262.6 101.47 262.64 101.73 262.67 101.91C262.81 102.73 262.91 103.59 262.99 104.43C263.16 106 263.33 107.63 263.86 109C264.26 110.01 264.85 110.64 265.48 110.74C266.05 110.82 266.65 110.49 267.22 109.76C269.21 107.24 270.08 105.72 271.27 103.62L271.7 102.87C271.73 102.82 274.6 97.83 275.3 97.6C275.52 97.53 275.72 97.55 275.89 97.66C276.43 98 276.58 99.13 276.72 100.23C276.76 100.52 276.79 100.8 276.84 101.04C277.3 103.68 277.7 105.39 279.91 107.18C281.88 108.78 284.47 109.42 286.84 108.9C287 108.86 288.09 108.6 288.3 108.52L288.35 108.5C288.69 108.39 289.04 108.27 289.39 108.17L289.54 108.12L289.59 108.39C289.6 108.48 289.62 108.58 289.64 108.68C289.85 109.57 290.25 110.16 290.81 110.41C291.32 110.63 291.95 110.55 292.62 110.17C292.83 110.05 293.58 109.58 294.39 108.47C294.93 107.62 295.18 107.07 295.6 106.18L295.87 105.61C296.22 104.64 296.6 103.95 296.91 103.4L297.11 103.05L297.23 103.31C297.28 103.41 297.33 103.56 297.41 103.75C297.55 104.13 297.75 104.65 298.01 105.16C298.69 106.53 299.85 107.88 299.9 107.94L299.99 108.05C300.77 108.92 301.93 109.07 302.86 108.41C303.66 107.84 304.37 107.12 305.06 106.43C305.37 106.12 305.68 105.81 305.99 105.51L306.13 105.37L306.21 105.55C306.21 105.55 306.24 105.61 306.27 105.66C306.35 105.81 306.48 106.07 306.58 106.34C307.03 107.65 307.71 108.52 308.62 108.94C309.6 109.39 310.85 109.33 312.33 108.74C313.52 108.17 315.33 106.86 317.29 105.13C318.79 103.98 320.79 101.7 321.75 100.04L321.8 99.95L321.9 99.97C322.91 100.18 325.07 102.97 324.98 103.95C325.04 105.5 323.65 106.03 322.98 106.29C322.39 106.52 321.85 107.18 321.79 107.77C321.76 108.02 321.81 108.37 322.19 108.62C323.11 109.32 324.67 108.73 325.25 108.51L325.3 108.49C326.05 108.21 326.74 107.72 327.38 107.23C329.72 105.44 332.42 104.29 335.4 103.84C335.91 103.76 336.29 103.82 336.57 104.03C336.81 104.21 336.95 104.5 337 104.89C337.22 106.65 337.75 109.02 339.01 110.31C339.49 110.8 339.76 110.96 340.64 111.07C341.88 111.22 342.73 110.35 342.96 108.66C343.15 105.93 342.4 103.94 340.45 102.03L340.35 101.93L340.45 101.83C340.51 101.77 340.55 101.72 340.59 101.68C340.67 101.59 340.73 101.52 340.82 101.47C342.89 100.25 345.22 99.98 347.23 99.87C347.94 99.83 348.42 100.21 348.53 100.9C348.6 101.33 348.7 101.76 348.8 102.18C348.93 102.75 349.06 103.33 349.13 103.92C349.28 105.09 349.75 105.98 350.5 106.5C351.2 106.98 352.1 107.11 353.1 106.87C353.46 106.78 353.84 106.73 354.2 106.67C354.67 106.6 355.15 106.53 355.6 106.39H355.64C357.05 105.94 358.66 105.45 359.85 107.05C360.45 107.68 361.65 108.64 362.4 108.98C364.52 109.94 367.07 110.63 369.21 110.81C370.41 110.91 371.4 110.85 372.31 110.61C372.62 110.53 373.31 110.14 373.31 109.53C373.31 108.93 373.22 108.65 372.92 108.44L373.04 108.37ZM328.96 133.51C328.93 133.4 328.92 133.19 328.92 132.87V132.41C328.92 131.93 328.85 131.57 328.72 131.34C328.59 131.11 328.36 130.93 328.05 130.8C328.43 130.67 328.7 130.45 328.86 130.13C329.02 129.82 329.11 129.5 329.11 129.17C329.11 128.9 329.07 128.66 328.98 128.45C328.9 128.24 328.78 128.05 328.64 127.87C328.46 127.66 328.25 127.5 328 127.39C327.75 127.28 327.39 127.22 326.92 127.21H323.65V134.06H325.05V131.38H326.45C326.85 131.38 327.12 131.45 327.27 131.6C327.41 131.75 327.49 132.04 327.5 132.47V133.11C327.51 133.31 327.53 133.51 327.57 133.7C327.59 133.79 327.62 133.91 327.66 134.07H329.24V133.9C329.169 133.86 329.109 133.803 329.064 133.736C329.019 133.668 328.99 133.591 328.98 133.51H328.96ZM327.27 130.14C327.12 130.21 326.89 130.25 326.58 130.25H325.04V128.41H326.62C326.91 128.41 327.13 128.45 327.28 128.53C327.54 128.67 327.67 128.95 327.67 129.37C327.67 129.75 327.53 130.01 327.26 130.14H327.27ZM307.22 127.22H304.28V134.07H305.7V131.61H307.13C307.87 131.61 308.45 131.44 308.85 131.11C309.25 130.78 309.45 130.2 309.45 129.4C309.45 128.66 309.25 128.11 308.85 127.76C308.45 127.41 307.91 127.23 307.23 127.23L307.22 127.22ZM307.75 130.18C307.57 130.34 307.32 130.43 306.99 130.43H305.7V128.41H306.99C307.32 128.41 307.57 128.49 307.75 128.64C307.93 128.79 308.02 129.05 308.02 129.4C308.02 129.75 307.93 130.02 307.75 130.18ZM343.52 130.17L342.32 129.89C341.86 129.78 341.55 129.69 341.41 129.61C341.307 129.56 341.222 129.482 341.163 129.384C341.104 129.287 341.075 129.174 341.08 129.06C341.08 128.79 341.19 128.59 341.42 128.44C341.65 128.29 341.95 128.22 342.32 128.22C342.66 128.22 342.94 128.28 343.17 128.39C343.51 128.56 343.7 128.86 343.72 129.27H345.09C345.06 128.54 344.79 127.99 344.28 127.6C343.76 127.22 343.14 127.03 342.41 127.03C341.54 127.03 340.87 127.23 340.42 127.64C339.97 128.05 339.74 128.56 339.74 129.17C339.74 129.84 339.97 130.34 340.43 130.65C340.7 130.84 341.2 131.01 341.93 131.18L342.67 131.34C343.1 131.43 343.42 131.54 343.62 131.66C343.82 131.78 343.92 131.96 343.92 132.19C343.92 132.58 343.72 132.84 343.31 132.98C343.1 133.05 342.82 133.09 342.47 133.09C341.89 133.09 341.49 132.95 341.25 132.67C341.12 132.52 341.03 132.28 340.99 131.97H339.62C339.62 132.68 339.88 133.24 340.39 133.65C340.9 134.06 341.62 134.26 342.52 134.26C343.42 134.26 344.09 134.05 344.57 133.64C345.05 133.23 345.3 132.71 345.3 132.08C345.3 131.45 345.1 131 344.69 130.68C344.43 130.47 344.03 130.31 343.51 130.18L343.52 130.17ZM315.27 127.22L312.83 134.07H314.33L314.79 132.66H317.31L317.76 134.07H319.31L316.89 127.22H315.27ZM315.18 131.48L316.07 128.79L316.93 131.48H315.18ZM335.21 127.22H333.79V134.07H335.21V127.22Z" fill="#222221"/>
<path d="M202.247 112.39V103.663H205.298C205.906 103.663 206.407 103.768 206.802 103.978C207.197 104.185 207.491 104.465 207.684 104.818C207.877 105.167 207.974 105.555 207.974 105.981C207.974 106.356 207.907 106.666 207.774 106.91C207.652 107.144 207.473 107.343 207.254 107.489C207.041 107.631 206.806 107.738 206.559 107.805V107.89C206.826 107.907 207.095 108.001 207.365 108.171C207.635 108.342 207.86 108.586 208.042 108.904C208.224 109.222 208.315 109.612 208.315 110.072C208.315 110.509 208.216 110.903 208.017 111.252C207.818 111.602 207.504 111.879 207.075 112.083C206.646 112.288 206.088 112.39 205.4 112.39H202.247ZM203.304 111.453H205.4C206.091 111.453 206.581 111.319 206.87 111.052C207.163 110.782 207.309 110.455 207.309 110.072C207.311 109.784 207.233 109.5 207.083 109.254C206.929 108.997 206.706 108.788 206.44 108.649C206.162 108.495 205.832 108.418 205.451 108.418H203.304V111.453ZM203.304 107.498H205.264C205.582 107.498 205.869 107.435 206.125 107.31C206.383 107.185 206.588 107.009 206.738 106.782C206.892 106.555 206.968 106.288 206.968 105.981C206.968 105.597 206.835 105.272 206.568 105.005C206.301 104.735 205.877 104.6 205.298 104.6H203.304V107.498ZM209.301 103.663H210.512L212.932 107.737H213.034L215.455 103.663H216.665L213.512 108.793V112.39H212.455V108.793L209.301 103.663Z" fill="black"/>
</svg>
