<svg xmlns="http://www.w3.org/2000/svg" width="1040" height="290" fill="none"><path fill="#000" d="m121.586.001 1.061.002c5.2.012 10.296.138 15.445.898l1.006.141c20.108 2.874 39.101 11.28 54.693 24.304l.832.678c2.074 1.712 4.003 3.555 5.91 5.45l.717.71a55.175 55.175 0 0 1 3.962 4.448c.421.524.848 1.035 1.293 1.539 3.768 4.282 6.78 9.104 9.566 14.065l.396.701c4.758 8.505 7.711 17.702 9.385 27.276l.148.82c1.455 8.49 1.377 18.142-.148 26.613l-.163.935c-1.244 6.932-3.236 13.541-6.086 19.98l-.303.693c-2.505 5.684-5.696 11.215-9.478 16.147l-.664.886c-4.248 5.641-9.069 11.283-14.641 15.651a48.21 48.21 0 0 0-1.913 1.612c-14.319 12.488-33.645 20.191-52.237 23.069l-1.047.163c-5.605.824-11.207 1.095-16.868 1.076l-.932-.002c-4.939-.013-9.779-.199-14.674-.898l-1.015-.141c-6.651-.952-13.078-2.51-19.448-4.629l-.559-.186a104.459 104.459 0 0 1-5.814-2.133l-.573-.229-1.392-.559A28865.19 28865.19 0 0 0 78 211.987v.7c-.004 3.731-.01 7.461-.018 11.192a7347.24 7347.24 0 0 0-.014 11.5c-.001 2.362-.005 4.723-.011 7.085-.004 1.624-.006 3.248-.005 4.871 0 .934 0 1.868-.004 2.803-.02 4.981.072 9.885 1.744 14.638.08.234.16.468.244.708 1.384 3.855 3.347 7.43 5.988 10.564l.655.798c2.66 3.08 5.972 5.488 9.45 7.576l.492.318v.272H4.413c.906-.906 1.699-1.537 2.75-2.241 8.128-5.542 13.298-13.189 15.148-22.901.575-3.259.62-6.531.627-9.829l.006-1.364c.005-1.242.009-2.483.012-3.725l.011-3.2a12927.26 12927.26 0 0 0 .077-34.257l.001-.989c.008-5.295.026-10.589.047-15.884a4931.1 4931.1 0 0 0 .038-16.318c.002-3.053.009-6.105.026-9.158.014-2.598.02-5.196.016-7.794-.003-1.325 0-2.649.012-3.975.011-1.213.011-2.427.002-3.64 0-.439.002-.877.01-1.315.034-2.125-.004-3.743-1.49-5.4-.417-.387-.838-.772-1.263-1.152a48.84 48.84 0 0 1-1.834-2.394l-.487-.666C5.017 120.639-1.618 96.586.337 74.237c1.294-.594 2.638-.841 4.025-1.12l.727-.15 1.77-.36.011.78c.3 18.228 2.264 46.041 16.019 59.791V48.434c.879-.352 1.562-.619 2.456-.811l.636-.14.69-.146.737-.16 2.441-.525 1.74-.376c1.563-.338 3.128-.675 4.692-1.011 2.614-.562 5.227-1.127 7.84-1.692l3.005-.649a3777.897 3777.897 0 0 0 14.721-3.208c2.352-.516 4.704-1.033 7.055-1.551a2500.136 2500.136 0 0 1 4.168-.917c.593-.131 1.187-.261 1.78-.39l1.002-.222c.834-.154.834-.154 1.921-.154l.272 133.636c3.88 2.197 3.88 2.197 7.88 4.108l.783.336c5.452 2.271 11.054 3.615 16.877 4.519l.812.135c7.024 1.145 15.036 1.481 22.011-.135l.541-.119c8.149-1.83 14.431-6.156 20.381-11.832l.538-.494c3.849-3.638 6.913-8.507 9.515-13.087l.295-.515c8.951-15.75 12.28-34.965 12.254-52.891v-.651c-.053-25.958-5.497-55.26-25.591-78.22l-.658-.701c-7.743-8.032-18.59-13.203-29.787-13.505a158.63 158.63 0 0 0-1.973-.003l-1.085.003c-2.738.024-5.459.186-8.187.421l-1.07.09c-6.966.66-13.78 2.259-20.602 3.752-1.414.31-2.829.617-4.243.925-2.473.538-4.945 1.077-7.416 1.617-3.956.863-7.912 1.723-11.868 2.583-5.905 1.284-11.81 2.567-17.714 3.853l-1.942.423-2.705.59-.866.187c-1.558.34-3.115.686-4.67 1.04l-1.014.229c-.644.145-1.287.292-1.93.44l-.878.199-.772.177c-.714.125-.714.125-2.072.125v-5.704c5.552-1.249 11.11-2.464 16.677-3.65l.921-.195 3.792-.808c9.842-2.095 19.681-4.2 29.491-6.443l3.087-.705 1.19-.27.582-.134 1.138-.26c15.257-3.48 15.257-3.48 21.848-4.376l.571-.078c6.442-.86 12.906-1.112 19.4-1.093ZM768.532 78.77l.708.001c20.679.073 41.094 6.99 55.943 21.694 3.711 3.746 6.679 8.051 9.289 12.613l.277.476c5.545 9.537 7.375 20.566 7.368 31.457l.002 1.514c.002 1.379.003 2.759.003 4.138 0 1.491.002 2.981.004 4.472.003 2.581.006 5.162.007 7.744.003 4.082.009 8.165.015 12.248l.006 4.196.001 1.059.016 11.921.001.55c.005 4.233.01 8.466.013 12.699v.551l.004 4.401c.005 6.23.012 12.461.023 18.691.007 3.726.01 7.452.011 11.178.001 2.555.004 5.11.01 7.664.003 1.472.005 2.945.004 4.417-.002 1.35 0 2.701.006 4.052.001.485.001.971-.001 1.456-.022 7.213 1.315 13.752 6.524 19.057.349.358.691.725 1.031 1.092 1.45 1.526 3.017 2.772 4.733 3.98l.504.355.448.31c.554.432 1.044.944 1.541 1.441H776.87a17.014 17.014 0 0 1 2.479-2.088c1.542-1.107 2.935-2.314 4.314-3.616l.688-.625c3.764-3.548 5.766-7.889 6.648-12.956l.143-.792c.211-1.509.166-3.031.163-4.551l.001-1.055v-2.897c-.001-1.046 0-2.092.001-3.138v-12.013l.001-1.486c.001-5.78-.001-11.56-.003-17.341l-.001-5.685-.001-.809v-.809c-.005-37.313-.005-37.313-.108-74.625-.008-1.887-.013-3.775-.018-5.662-.007-2.246-.016-4.492-.028-6.737a727.077 727.077 0 0 1-.014-3.301c-.02-11.03-.58-24.336-8.559-32.934l-.484-.558c-3.775-4.11-9.033-5.823-14.46-6.232-3.733-.15-7.453-.083-11.14.543a715.3 715.3 0 0 1-.605.102c-12.516 2.19-24.12 8.729-33.24 17.453-.351.335-.704.666-1.058.997a51.668 51.668 0 0 0-1.777 1.819l-.697.675c-2.538 2.771-2.4 5.466-2.354 9.081a429.756 429.756 0 0 0 .003 7.103c.01 1.68.004 3.361 0 5.041-.007 3.437-.002 6.873.011 10.31.012 3.405.02 6.809.02 10.214v3.226c0 8.075.015 16.149.037 24.223.02 7.165.03 14.33.032 21.495v2.756l.001 2.746v.684c.002 7.069.011 14.138.022 21.207a5486.537 5486.537 0 0 1 .009 7.665v.636c.003 4.052.009 8.105.023 12.157.006 1.851.01 3.701.01 5.552 0 1.697.005 3.394.014 5.091.002.611.002 1.223.001 1.834-.012 5.484.613 10.429 3.14 15.349l.44.878c1.176 2.175 2.716 3.906 4.45 5.64l.653.653c1.489 1.409 3.109 2.54 4.829 3.643.441.283.876.573 1.311.865v.272h-80.425c.88-.88 1.587-1.449 2.616-2.105 6.052-3.992 9.941-9.687 11.587-16.73a26.46 26.46 0 0 0 .505-5.33l.002-.728.001-2.417.002-1.749.003-4.81c0-1.729.003-3.458.004-5.187a22843106.798 22843106.798 0 0 0 .01-17.838c.003-6.737.006-13.474.007-20.211v-2.54l.001-2.551v-.639c.001-6.832.005-13.663.011-20.495.007-7.227.011-14.455.011-21.682v-2.974c.001-3.141.004-6.282.008-9.422.004-3.16.004-6.319.002-9.479-.001-1.71-.001-3.421.003-5.131.004-1.568.003-3.136 0-4.704 0-.565 0-1.13.003-1.695.033-8.536-2.111-15.1-8.147-21.298-1.845-1.834-3.796-3.372-5.98-4.783l-.649-.473v-.543l17.953-4.16a38355.72 38355.72 0 0 1 27.999-6.482l3.511-.812a7562.938 7562.938 0 0 1 9.495-2.193 2141.64 2141.64 0 0 1 3.729-.86l.763-.175.658-.152c.558-.105.558-.105 1.373-.105l.272 17.655 4.891-4.89a65.194 65.194 0 0 1 2.988-2.444l.785-.633c2.503-1.994 5.17-3.693 7.91-5.342l.604-.366c10.372-6.205 22.245-9.008 34.259-8.954ZM491.58 83.744l.001.686c.029 13.702.058 27.405.089 41.108l.011 5.039.002 1.013c.011 4.626.02 9.252.03 13.879a53049.286 53049.286 0 0 0 .149 58.338c.018 6.75.037 13.499.064 20.248.012 2.824.022 5.648.028 8.472.006 2.357.014 4.715.026 7.072.006 1.189.01 2.378.011 3.566.014 11.746.572 25.616 9.37 34.513 6.15 5.723 13.987 6.252 22.008 5.976 1.931-.125 3.814-.418 5.706-.815l.742-.155c8.453-1.838 15.784-5.593 22.081-11.525l.557-.503c5.133-4.824 8.508-12.113 8.732-19.145.027-1.393.023-2.786.02-4.18l.003-1.618c.003-1.474.003-2.948.001-4.422 0-1.593.002-3.186.004-4.779.004-3.118.004-6.236.004-9.354-.001-2.536-.001-5.072.001-7.608v-1.095l.001-1.65c.002-5.111.003-10.222.002-15.334v-.583l-.001-2.927v-1.762c-.001-6.093.001-12.186.006-18.278.005-6.854.008-13.708.007-20.562v-2.742c-.001-2.711.001-5.423.004-8.135.003-3.087.004-6.174.001-9.262-.002-1.573-.002-3.146.001-4.72a893.16 893.16 0 0 0-.002-4.331c-.001-.519 0-1.038.002-1.557.031-7.917-1.308-14.893-7.04-20.729-.4-.41-.792-.826-1.184-1.244-1.69-1.776-3.482-3.232-5.51-4.609-.771-.532-.771-.532-1.314-1.076 2.212-.797 4.476-1.315 6.765-1.836l1.343-.31 3.709-.85c1.325-.302 2.65-.607 3.975-.911l5.285-1.213c4.719-1.082 9.436-2.17 14.153-3.258l4.546-1.05.649-.15a37892.001 37892.001 0 0 1 9.718-2.242c1.859-.43 3.719-.86 5.579-1.288l2.888-.666c1.053-.244 2.106-.487 3.16-.729l.944-.219.858-.197.744-.171c.621-.12.621-.12 1.436-.12l.001.47a122076.29 122076.29 0 0 0 .043 51.394l.018 16.44.01 8.063v.811c.01 8.666.017 17.332.023 25.998.006 8.907.014 17.814.026 26.721l.005 3.775.001.751c.005 3.984.007 7.969.009 11.953.001 4.008.005 8.015.013 12.022.004 2.38.006 4.76.004 7.14 0 1.591.002 3.183.007 4.774.002.906.003 1.812.001 2.717-.015 8.401 1.663 15.822 7.719 21.991 1.762 1.655 3.741 2.989 5.767 4.296.436.282.867.573 1.297.865v.272c-6.227.008-12.453.014-18.68.017h-.697c-12.046.006-24.09-.005-36.136-.153l-.8-.01c-3.056-.038-6.112-.081-9.168-.126l-.272-14.667-2.445 2.716c-7.72 8.254-18.457 13.941-29.497 16.093l-.629.125c-4.597.838-9.195.995-13.856.979l-.886-.002c-4.657-.013-9.208-.215-13.82-.898l-.957-.132c-15.466-2.168-31.652-7.093-43.603-17.523l-.421-.366c-5.861-5.127-10.151-11.462-12.468-18.936l-.183-.58c-1.194-4.166-1.45-8.483-1.431-12.789l-.004-1.509c-.003-1.365-.001-2.731.001-4.096.002-1.479-.001-2.957-.003-4.436-.004-2.558-.004-5.116-.003-7.673.002-3.704-.001-7.407-.006-11.111-.008-6.018-.013-12.035-.015-18.053v-.544l-.003-8.747-.003-8.197v-.545c-.003-6.178-.008-12.356-.016-18.534-.005-3.692-.007-7.385-.005-11.078.001-2.531 0-5.061-.004-7.592a1275.46 1275.46 0 0 1-.001-4.374 767.25 767.25 0 0 0-.003-4.014c-.001-.48 0-.961.002-1.441.035-8.734-2.266-15.344-8.444-21.631-1.69-1.697-3.388-3.171-5.409-4.457-.653-.415-.653-.415-1.197-.959a45.84 45.84 0 0 1 5.154-1.468l.793-.183 2.612-.6 1.878-.431c1.693-.39 3.386-.779 5.08-1.166l4.773-1.097 7.156-1.644c4.687-1.075 9.372-2.154 14.057-3.236l3.791-.876.532-.122 2.621-.605 5.12-1.182a5541.02 5541.02 0 0 1 6.566-1.516c.799-.185 1.599-.369 2.398-.552l.71-.166c.854-.195 1.633-.366 2.512-.366ZM983.366 83.472l.641.214c8.722 2.949 16.533 7.646 23.273 13.91.35.307.71.612 1.07.917 2.42 2.119 4.54 4.433 6.53 6.96l.72.89c2.94 3.639 5.42 7.531 7.71 11.604.12.229.25.457.39.692 5.31 9.55 8.31 19.96 10.02 30.714.04.27.08.54.13.818.35 2.378.48 4.761.6 7.161-.27.088-.53.176-.8.267-13 4.383-25.88 9.093-38.725 13.933-2.606.982-5.216 1.955-7.829 2.917-6.13 2.26-12.22 4.625-18.314 6.98l-2.662 1.027a1517.59 1517.59 0 0 0-23.708 9.345 1334.691 1334.691 0 0 0-16.445 6.751l-.549.229c-.847.354-1.693.71-2.538 1.069l-.893.378-.776.331c-.609.232-.609.232-1.152.232 3.522 12.316 9.059 23.69 17.117 33.68l.348.434c3.42 4.224 7.296 8.279 11.71 11.469.444.322.881.654 1.318.987 4.214 3.167 8.869 5.625 13.795 7.481l.523.2c2.139.805 4.318 1.372 6.541 1.888l.712.167c3.828.852 7.575 1.117 11.481 1.106l.703-.001c14.721-.056 28.023-6.112 38.333-16.463 1.64-1.682 3.08-3.481 4.47-5.367.13-.172.26-.345.39-.522.64-.849 1.27-1.7 1.89-2.556.18-.235.18-.235.36-.474.37-.529.37-.529.67-1.182.38-.732.69-1.237 1.31-1.785 1.27-.301 2.48-.231 3.77-.152l1.04.033c.84.029 1.68.069 2.53.119a43.54 43.54 0 0 1-1.91 4.941c-.16.349-.16.349-.32.706-3.63 7.905-7.9 15.461-13.26 22.33-.26.336-.26.336-.53.678-.54.685-1.09 1.363-1.65 2.038-.21.261-.42.523-.64.792-3.05 3.683-6.32 7.233-9.95 10.344-.16.137-.32.274-.48.416-10.827 9.224-24.001 14.406-38.104 15.881l-.673.078c-24.642 2.494-49.529-4.782-68.782-20.313a95.538 95.538 0 0 1-3.544-3.094 77.872 77.872 0 0 0-1.703-1.49c-2.16-1.884-4.143-3.959-5.994-6.145l-.656-.747c-4.551-5.216-8.341-11.069-11.571-17.18l-.361-.679c-6.142-11.666-9.847-24.307-11.594-37.347l-.136-.99c-1.396-10.663-1.361-22.041.136-32.69l.08-.577c1.59-11.381 4.502-22.417 9.43-32.832l.383-.81c2.661-5.572 5.726-10.794 9.398-15.759l.354-.48c3.82-5.145 8.153-9.949 12.96-14.187l.418-.373c18.872-16.74 45.521-24.786 82.995-18.912Zm-46.733 18.198-.491.444c-14.371 13.419-18.07 36.876-19.615 55.509l-.079.942c-.258 3.519-.259 7.042-.261 10.568l-.001 1c.001 5.38.203 10.672.884 16.01l.114.896c.225 2.614.225 2.614.973 5.08 2.065-.658 4.064-1.444 6.073-2.256l1.054-.424c.931-.375 1.862-.751 2.792-1.128l1.733-.7c8.421-3.403 16.791-6.874 25.028-10.703l.958-.445c7.102-3.313 14.066-7.023 20.507-11.506l.455-.316c1.938-1.346 3.817-2.737 5.627-4.254.453-.376.912-.746 1.378-1.105 5.307-4.132 9.28-8.887 12.102-14.968l.45-.949c3.655-8.063 3.816-17.001.789-25.298-4.165-10.823-11.755-20.154-22.399-25.1-2.208-.975-4.472-1.64-6.825-2.161l-.9-.202c-11.54-2.148-22.41 2.93-30.346 11.066ZM368.497 79.67l.937.159c15.015 2.646 28.076 9.512 36.985 22.086 6.148 9.014 8.087 20.947 6.104 31.597-.819 3.94-2.083 7.58-4.085 11.074l-.283.498c-3.526 6.092-9.18 10.892-16.019 12.811-2.01.459-3.952.64-6.012.628l-.821-.004c-7.508-.117-14.312-2.949-19.76-8.093-3.965-4.199-5.65-9.322-5.576-15 .146-4.822 2.055-8.57 4.93-12.349 5.56-7.309 8.936-15.264 7.83-24.57-.898-4.158-3.374-7.728-6.775-10.24-6.099-3.835-13.718-4.959-20.734-3.464-6.462 1.553-12.164 4.964-16.933 9.534l-.665.613c-6.369 6.057-10.795 15.02-11.593 23.765l-.069.746c-.233 2.725-.247 5.441-.24 8.174l-.003 1.704c-.002 1.543-.001 3.086.001 4.629.001 1.671-.001 3.342-.002 5.012-.003 3.079-.003 6.157-.001 9.235.001 2.844.002 5.689.001 8.534v.573l-.001 2.306c-.001 7.198 0 14.396.003 21.594.003 6.383.002 12.766 0 19.149-.003 7.186-.004 14.371-.002 21.557v2.874c.001 2.841 0 5.683-.001 8.524-.002 3.234-.001 6.468.001 9.701.002 1.648.002 3.296.001 4.944-.002 1.511-.001 3.023.002 4.535l-.001 1.63c-.022 9.449 1.298 17.566 7.984 24.709 2.113 1.986 4.564 3.571 7.03 5.08v.272h-80.696c.805-.644 1.56-1.242 2.406-1.81 6.042-4.115 10.438-9.64 11.994-16.932.585-3.279.621-6.508.615-9.829l.003-1.728c.003-1.572.002-3.145.001-4.717-.001-1.7.002-3.4.004-5.1.003-3.326.004-6.652.003-9.979l.001-8.114.001-1.168v-1.76c.003-5.452.004-10.904.003-16.355v-.622l-.001-3.121v-1.88c-.002-6.499 0-12.999.005-19.498.006-7.311.009-14.623.008-21.934l-.001-2.342v-.582c0-2.893.002-5.786.005-8.679.003-3.293.003-6.586 0-9.879-.002-1.678-.002-3.357.001-5.035.003-1.54.002-3.079-.001-4.618-.001-.554 0-1.108.002-1.662.033-9.034-2.015-15.925-8.443-22.483a34.094 34.094 0 0 0-5.33-4.378c-.732-.495-.732-.495-1.276-1.038a45.84 45.84 0 0 1 5.154-1.468l.793-.183c.87-.201 1.741-.4 2.612-.6l1.877-.431c1.694-.39 3.387-.779 5.081-1.166l4.772-1.097 7.156-1.644c4.689-1.076 9.378-2.155 14.066-3.236l6.95-1.603 5.126-1.182a9576.821 9576.821 0 0 1 8.975-2.068l.713-.166c1.601-.366 1.601-.366 2.206-.366l.272 17.926 2.717-4.074c1.625-2.186 3.297-4.262 5.162-6.247l.432-.485c2.571-2.766 6.025-4.855 9.35-6.577l.523-.272c10.645-5.456 22.848-6.337 34.526-4.346ZM698.347 3.345c2.108-.02 4.215-.035 6.322-.044.716-.005 1.431-.01 2.147-.017 1.033-.01 2.067-.015 3.1-.018l.958-.013c4.336 0 8.156 1.295 11.314 4.326 3.509 3.756 4.089 7.773 3.921 12.712-.209 3.111-2.049 6.575-4.34 8.68-3.681 2.767-7.396 3.76-11.941 3.735h-.832c-.872-.002-1.744-.006-2.616-.01-.594 0-1.187-.002-1.781-.003-1.45-.003-2.9-.007-4.35-.013l-.004-.99c-.016-3.077-.036-6.154-.06-9.231-.012-1.582-.023-3.164-.03-4.746-.007-1.527-.018-3.054-.031-4.581-.005-.582-.008-1.165-.01-1.747-.002-.816-.01-1.632-.019-2.448l.001-.73c-.02-1.363-.161-2.33-.933-3.504l-.816-.543v-.815Zm7.065 3.531v22.001c7.07.21 7.07.21 12.77-2.987 2.34-2.431 3.1-5.526 3.063-8.815-.26-3.37-1.672-5.808-4.201-7.975-3.466-2.544-7.518-2.224-11.632-2.224ZM513.588 3.345h6.793l.016 1.732c.018 1.895.039 3.79.062 5.685.013 1.148.026 2.296.036 3.444.01 1.11.023 2.22.037 3.329.005.422.009.843.012 1.265 0 4.518 0 4.518 2.01 8.447 1.556 1.495 3.292 1.908 5.4 1.987 2.121-.056 4.047-.555 5.613-2.04 1.544-1.896 1.784-4.15 1.813-6.52l.008-.57c.009-.617.016-1.234.022-1.852l.017-1.29.042-3.383.044-3.458c.029-2.259.056-4.517.083-6.776h4.619c.019 2.565.033 5.129.042 7.693.004 1.191.01 2.383.02 3.573.008 1.152.013 2.304.015 3.456.002.437.005.874.009 1.31.035 3.543-.231 6.754-2.26 9.772l-.335.515c-1.542 2.077-4.236 3.144-6.729 3.56-4.13.35-8.237.274-11.702-2.258-2.52-2.208-3.399-5.11-3.785-8.336-.073-1.276-.082-2.548-.084-3.826l-.015-1.62c-.013-1.314-.019-2.63-.025-3.944-.004-.744-.009-1.488-.017-2.232-.007-.696-.011-1.393-.011-2.09.003-2.231.003-2.231-.935-4.215l-.815-.543v-.815ZM384.256 3.345h19.563v3.531h-12.77v8.964h12.227v3.802h-12.227v9.235h13.042v3.803h-17.933l-.03-5.706-.026-3.58a1793.36 1793.36 0 0 1-.038-5.681 999.156 999.156 0 0 0-.032-4.581c-.004-.582-.007-1.165-.009-1.747-.002-.816-.01-1.632-.019-2.448l.001-.73c-.02-1.363-.161-2.33-.933-3.504l-.816-.543v-.815ZM599.447 3.345h19.563v3.531h-12.499v8.964h11.955v3.802h-11.955v9.235h12.77v3.803H601.62l-.04-5.38-.03-3.384c-.016-1.788-.032-3.576-.044-5.364-.01-1.442-.023-2.885-.037-4.327l-.013-1.648c-.004-.771-.012-1.543-.021-2.314l-.001-.682c-.027-1.859-.066-3.705-1.342-5.132l-.645-.56v-.544ZM743.722 3.345h19.563v3.531h-12.77v8.964h12.226v3.802h-12.226v9.235h13.042v3.803h-17.661l-.05-4.926-.034-3.109c-.018-1.64-.035-3.281-.051-4.922-.013-1.325-.028-2.649-.043-3.973l-.015-1.508c.141-5 .141-5-.894-9.81-.544-.386-.544-.386-1.087-.543v-.544ZM560.321 3.345a1053.9 1053.9 0 0 1 5.887-.044c.667-.005 1.334-.01 2-.017.962-.01 1.924-.015 2.886-.018l.894-.013c3.416 0 5.669.892 8.1 3.267 1.579 2.06 2.026 4.618 1.698 7.147-.54 2.206-1.71 4.07-3.639 5.306-2.544 1.34-4.806 1.562-7.637 1.518l-3.124-.034V32.68h-4.891l-.012-2.334c-.014-2.55-.032-5.098-.052-7.647-.012-1.545-.023-3.09-.03-4.634a953.578 953.578 0 0 0-.032-4.475c-.005-.569-.008-1.137-.009-1.705-.003-.798-.011-1.596-.019-2.393l.001-.708c-.024-1.531-.294-2.683-.934-4.08-.557-.504-.557-.504-1.087-.815v-.544Zm7.065 3.531v10.05l2.445.051.757.023c1.759.017 3.221-.225 4.683-1.289 1.089-1.28 1.591-2.525 1.624-4.217-.25-1.476-.803-2.765-1.902-3.803-1.635-.896-3.035-.914-4.873-.866l-2.734.051ZM654.331 4.432c.04.79.051 1.553.034 2.342l-.007.66c-.007.539-.016 1.077-.027 1.615l-.794-.406-1.04-.527-.522-.268c-2.115-1.069-4.432-1.453-6.762-.767-1.054.493-1.585.86-2.022 1.968-.12 1.084-.083 1.728.391 2.716 1.418 1.66 3.13 2.736 5.026 3.786 2.921 1.622 5.674 3.505 6.776 6.79.585 2.282.45 4.37-.509 6.536-1.232 2.05-2.733 3.277-4.942 4.142-3.994.786-8.156.62-11.632-1.697-.093-.51-.093-.51-.08-1.123l.008-.663.021-.693.011-.699c.009-.57.024-1.14.04-1.711.852.314 1.536.633 2.241 1.205 2.113 1.532 4.431 1.805 6.997 1.51 1.334-.405 2.259-.961 2.988-2.172.149-.698.149-.698.136-1.443l.026-.744c-.309-1.53-1.216-2.56-2.499-3.415a59.659 59.659 0 0 0-1.093-.645l-1.163-.7-.573-.338a83.614 83.614 0 0 1-3.528-2.222l-.487-.322c-1.473-1.09-2.473-2.85-3.045-4.567-.209-2.633-.081-4.86 1.467-7.06 1.524-1.735 4.029-2.833 6.327-2.99 6.344.01 6.344.01 8.236 1.902ZM438.869 4.16v4.89l-1.223-.782c-2.313-1.373-4.853-1.892-7.531-1.246-.98.38-1.622.827-2.114 1.756-.417 1.07-.239 1.928.208 2.979 1.208 1.986 3.749 3.034 5.702 4.166 2.973 1.731 5.373 3.51 6.317 6.979.26 2.723.167 5.195-1.567 7.4-2.023 2.17-4.192 2.97-7.128 3.193-3.226 0-5.63-.578-8.423-2.173v-4.89c.842.421 1.602.86 2.395 1.359 2.226 1.326 4.271 1.612 6.843 1.358 1.253-.343 1.963-.79 2.717-1.85.409-1.304.434-2.283 0-3.582-1.3-1.95-3.24-3.085-5.264-4.177-2.979-1.674-5.492-3.32-6.691-6.688-.543-2.329-.288-4.49.884-6.585 1.589-2.293 3.539-3.111 6.238-3.617 3.084-.359 5.869.127 8.637 1.51ZM348.12 3.345h6.792v25.532h12.227v3.803h-17.117l-.031-5.637-.026-3.54c-.015-1.87-.029-3.743-.038-5.614-.007-1.51-.018-3.019-.031-4.528-.005-.576-.008-1.15-.01-1.726-.002-.807-.01-1.614-.019-2.42l.002-.719c-.023-1.461-.226-2.503-.934-3.793l-.815-.543v-.815ZM486.417 3.345h6.793c.019 3.105.034 6.21.042 9.315.005 1.442.01 2.884.02 4.326.009 1.393.013 2.786.015 4.18l.009 1.59c.053 6.615.053 6.615-1.988 9.109-1.969 1.998-4.014 2.663-6.792 2.716a15.223 15.223 0 0 1-1.902-.271l-.272-3.531.784-.081 1.033-.123 1.022-.115c1.071-.25 1.562-.527 2.323-1.311.589-1.136.623-2.204.618-3.456l.005-.627c.003-.682.003-1.363.002-2.044l.004-1.426c.002-.995.002-1.99 0-2.986-.001-1.273.004-2.547.01-3.82.004-.981.004-1.963.003-2.944 0-.47.002-.939.005-1.408.003-.657.001-1.315-.002-1.972l.006-.584c-.013-1.255-.251-2.117-.922-3.179l-.816-.543v-.815Z"/></svg>