<svg width="1040" height="290" viewBox="0 0 1040 290" fill="none" xmlns="http://www.w3.org/2000/svg">
<path d="M121.586 0.00100595C121.936 0.00150105 122.286 0.00199616 122.647 0.00250627C127.847 0.0148509 132.943 0.140711 138.092 0.900736C138.424 0.947347 138.756 0.993958 139.098 1.04198C159.206 3.91622 178.199 12.3218 193.791 25.3462C194.066 25.57 194.34 25.7937 194.623 26.0242C196.697 27.7357 198.626 29.5794 200.533 31.4746C200.77 31.7087 201.006 31.9429 201.25 32.1841C202.662 33.6017 203.96 35.0717 205.212 36.6322C205.633 37.1562 206.06 37.6674 206.505 38.1706C210.273 42.4531 213.285 47.2751 216.071 52.2363C216.202 52.4675 216.332 52.6988 216.467 52.9371C221.225 61.4421 224.178 70.6388 225.852 80.2128C225.925 80.619 225.925 80.619 226 81.0334C227.455 89.5226 227.377 99.1746 225.852 107.646C225.798 107.955 225.744 108.263 225.689 108.581C224.445 115.513 222.453 122.122 219.603 128.561C219.503 128.789 219.403 129.018 219.3 129.254C216.795 134.938 213.604 140.469 209.822 145.401C209.6 145.696 209.379 145.991 209.158 146.287C204.91 151.928 200.089 157.57 194.517 161.938C193.861 162.457 193.232 162.998 192.604 163.55C178.285 176.038 158.959 183.741 140.367 186.619C139.849 186.7 139.849 186.7 139.32 186.782C133.715 187.606 128.113 187.877 122.452 187.858C122.144 187.857 121.837 187.857 121.52 187.856C116.581 187.843 111.741 187.657 106.846 186.958C106.511 186.911 106.176 186.865 105.831 186.817C99.1798 185.865 92.7528 184.307 86.3828 182.188C86.1985 182.127 86.0142 182.065 85.8243 182.002C83.8619 181.346 81.9302 180.64 80.0098 179.869C79.8207 179.793 79.6316 179.718 79.4367 179.64C78.9727 179.454 78.5088 179.267 78.0448 179.081C78.0262 188.89 78.0118 198.698 78.0032 208.506C78.0022 209.667 78.0012 210.827 78.0001 211.987C77.9999 212.218 77.9996 212.449 77.9994 212.687C77.9959 216.418 77.9895 220.148 77.982 223.879C77.9743 227.712 77.9698 231.546 77.9681 235.379C77.967 237.741 77.9635 240.102 77.9569 242.464C77.9525 244.088 77.9513 245.712 77.9523 247.335C77.9528 248.269 77.9521 249.203 77.9477 250.138C77.9276 255.119 78.0196 260.023 79.6921 264.776C79.7725 265.01 79.8529 265.244 79.9358 265.484C81.3199 269.339 83.2835 272.914 85.9243 276.048C86.2484 276.443 86.2484 276.443 86.5791 276.846C89.2386 279.926 92.5512 282.334 96.0294 284.422C96.1916 284.527 96.3537 284.632 96.5208 284.74C96.5208 284.83 96.5208 284.919 96.5208 285.012C66.1251 285.012 35.7295 285.012 4.41279 285.012C5.31859 284.106 6.11187 283.475 7.1638 282.771C15.2913 277.229 20.4607 269.582 22.3114 259.87C22.8855 256.611 22.9311 253.339 22.9379 250.041C22.9397 249.586 22.9417 249.131 22.9438 248.677C22.9491 247.435 22.9528 246.194 22.9561 244.952C22.9592 243.885 22.9632 242.819 22.9673 241.752C23.0054 231.646 23.0233 221.541 23.0377 211.435C23.0396 210.122 23.0416 208.808 23.0436 207.495C23.044 207.168 23.0445 206.842 23.045 206.506C23.0532 201.211 23.0708 195.917 23.0921 190.622C23.1138 185.183 23.1262 179.743 23.1299 174.304C23.1321 171.251 23.1386 168.199 23.1556 165.146C23.17 162.548 23.1762 159.95 23.1716 157.352C23.1695 156.027 23.1713 154.703 23.1839 153.377C23.1953 152.164 23.1953 150.95 23.1865 149.737C23.1853 149.298 23.1882 148.86 23.1957 148.422C23.2298 146.297 23.1919 144.679 21.7067 143.022C21.2888 142.635 20.8678 142.25 20.4434 141.87C19.8 141.095 19.2037 140.289 18.6094 139.476C18.4485 139.256 18.2876 139.036 18.1218 138.81C5.01701 120.639 -1.61892 96.5857 0.337209 74.2372C1.63093 73.6428 2.97485 73.396 4.36184 73.1168C4.72198 73.0427 4.72198 73.0427 5.08939 72.9672C5.67875 72.8462 6.26832 72.7263 6.85813 72.6075C6.86209 72.865 6.86605 73.1225 6.87014 73.3878C7.17075 91.6146 9.13425 119.428 22.8887 133.178C22.8887 105.212 22.8887 77.2467 22.8887 48.4336C23.7676 48.0822 24.4512 47.8151 25.3449 47.6226C25.5549 47.5768 25.7649 47.5309 25.9813 47.4837C26.3223 47.4112 26.3223 47.4112 26.6702 47.3372C27.0356 47.2579 27.0356 47.2579 27.4083 47.1771C28.2217 47.001 29.0354 46.8266 29.849 46.6522C30.4288 46.527 31.0086 46.4017 31.5883 46.2762C33.1523 45.9382 34.7166 45.6015 36.281 45.265C38.8947 44.7026 41.5078 44.1375 44.121 43.573C45.1226 43.3567 46.1242 43.1406 47.1258 42.9244C51.479 41.9847 55.8303 41.0365 60.1802 40.0814C60.736 39.9595 61.2917 39.8376 61.8474 39.7157C64.1992 39.1997 66.5509 38.6832 68.9021 38.1646C69.8534 37.955 70.805 37.7463 71.7566 37.5378C72.1946 37.4417 72.6326 37.3451 73.0704 37.2481C73.6634 37.1167 74.2567 36.9867 74.8501 36.8571C75.1807 36.7843 75.5114 36.7114 75.852 36.6364C76.6863 36.4825 76.6863 36.4825 77.7731 36.4825C77.9076 102.632 77.9076 102.632 78.0448 170.118C81.9257 172.315 81.9257 172.315 85.9243 174.226C86.1829 174.337 86.4414 174.447 86.7078 174.562C92.1603 176.833 97.762 178.177 103.585 179.081C103.853 179.126 104.121 179.17 104.397 179.216C111.421 180.361 119.433 180.697 126.408 179.081C126.587 179.042 126.765 179.003 126.949 178.962C135.098 177.132 141.38 172.806 147.33 167.13C147.507 166.967 147.685 166.804 147.868 166.636C151.717 162.998 154.781 158.129 157.383 153.549C157.48 153.379 157.578 153.209 157.678 153.034C166.629 137.284 169.958 118.069 169.932 100.143C169.932 99.9277 169.932 99.7129 169.932 99.4915C169.879 73.5341 164.435 44.2311 144.341 21.272C144.015 20.9248 144.015 20.9248 143.683 20.5707C135.94 12.5391 125.093 7.36796 113.896 7.06622C113.238 7.06099 112.581 7.06009 111.923 7.06304C111.386 7.06474 111.386 7.06474 110.838 7.06648C108.1 7.08994 105.379 7.25229 102.651 7.48744C102.122 7.53191 102.122 7.53191 101.581 7.57729C94.6155 8.23628 87.8018 9.83553 80.9795 11.3295C79.5651 11.6388 78.1503 11.9463 76.7355 12.2541C74.2634 12.792 71.7915 13.331 69.3198 13.8707C65.3644 14.7341 61.4083 15.5944 57.4521 16.4543C51.5472 17.7377 45.6423 19.0215 39.7379 20.3074C39.0906 20.4483 38.4433 20.5892 37.796 20.73C36.8942 20.9262 35.9924 21.1227 35.0906 21.3191C34.805 21.3812 34.5193 21.4433 34.225 21.5073C32.6669 21.8468 31.1104 22.1929 29.5554 22.5462C29.0533 22.6597 29.0533 22.6597 28.541 22.7755C27.8972 22.9213 27.2537 23.0683 26.6105 23.2166C26.3209 23.2821 26.0313 23.3475 25.733 23.415C25.4783 23.4733 25.2237 23.5316 24.9613 23.5917C24.2473 23.7165 24.2473 23.7165 22.8887 23.7165C22.8887 21.8342 22.8887 19.9519 22.8887 18.0126C28.4409 16.764 33.9996 15.5489 39.5657 14.3638C39.8698 14.299 40.1738 14.2343 40.4871 14.1675C41.751 13.8983 43.0148 13.6292 44.2786 13.3602C54.1211 11.2647 63.9601 9.15962 73.7702 6.91699C74.7992 6.68179 75.8283 6.44716 76.8574 6.21244C77.2537 6.12204 77.6499 6.03164 78.0462 5.94123C78.2384 5.89737 78.4307 5.85351 78.6288 5.80832C79.0083 5.72174 79.3878 5.63515 79.7673 5.54855C95.0239 2.06731 95.0239 2.06731 101.615 1.17235C101.898 1.1337 101.898 1.1337 102.186 1.09427C108.628 0.233123 115.092 -0.0181794 121.586 0.00100595Z" fill="black"/>
<path d="M768.532 78.7698C768.766 78.7703 768.999 78.7708 769.24 78.7713C789.919 78.8444 810.334 85.7603 825.183 100.465C828.894 104.211 831.862 108.516 834.472 113.078C834.563 113.235 834.655 113.392 834.749 113.554C840.294 123.091 842.124 134.12 842.117 145.011C842.117 145.515 842.118 146.02 842.119 146.525C842.121 147.904 842.122 149.284 842.122 150.663C842.122 152.154 842.124 153.644 842.126 155.135C842.129 157.716 842.132 160.297 842.133 162.879C842.136 166.961 842.142 171.044 842.148 175.127C842.15 176.526 842.152 177.924 842.154 179.323C842.154 179.672 842.155 180.022 842.155 180.382C842.161 184.356 842.166 188.33 842.171 192.303C842.171 192.576 842.171 192.576 842.172 192.853C842.177 197.086 842.182 201.319 842.185 205.552C842.185 205.734 842.185 205.916 842.185 206.103C842.187 207.57 842.188 209.037 842.189 210.504C842.194 216.734 842.201 222.965 842.212 229.195C842.219 232.921 842.222 236.647 842.223 240.373C842.224 242.928 842.227 245.483 842.233 248.037C842.236 249.509 842.238 250.982 842.237 252.454C842.235 253.804 842.237 255.155 842.243 256.506C842.244 256.991 842.244 257.477 842.242 257.962C842.22 265.175 843.557 271.714 848.766 277.019C849.115 277.377 849.457 277.744 849.797 278.111C851.247 279.637 852.814 280.883 854.53 282.091C854.696 282.208 854.863 282.325 855.034 282.446C855.256 282.599 855.256 282.599 855.482 282.756C856.036 283.188 856.526 283.7 857.023 284.197C830.573 284.197 804.122 284.197 776.87 284.197C777.7 283.368 778.403 282.766 779.349 282.109C780.891 281.002 782.284 279.795 783.663 278.493C784.003 278.183 784.003 278.183 784.351 277.868C788.115 274.32 790.117 269.979 790.999 264.912C791.046 264.651 791.094 264.389 791.142 264.12C791.353 262.611 791.308 261.089 791.305 259.569C791.305 259.221 791.306 258.873 791.306 258.514C791.307 257.548 791.307 256.583 791.306 255.617C791.305 254.571 791.306 253.525 791.307 252.479C791.308 250.417 791.308 248.355 791.307 246.293C791.307 244.597 791.307 242.9 791.307 241.203C791.307 240.838 791.307 240.838 791.307 240.466C791.307 239.971 791.307 239.475 791.308 238.98C791.309 233.2 791.307 227.42 791.305 221.639C791.305 219.744 791.304 217.849 791.304 215.954C791.304 215.687 791.304 215.42 791.303 215.145C791.303 214.744 791.303 214.744 791.303 214.336C791.298 177.023 791.298 177.023 791.195 139.711C791.187 137.824 791.182 135.936 791.177 134.049C791.17 131.803 791.161 129.557 791.149 127.312C791.142 126.211 791.137 125.111 791.135 124.011C791.115 112.981 790.555 99.675 782.576 91.0774C782.416 90.8933 782.257 90.7091 782.092 90.5193C778.317 86.4095 773.059 84.6963 767.632 84.287C763.899 84.1371 760.179 84.2041 756.492 84.8302C756.293 84.8638 756.093 84.8974 755.887 84.932C743.371 87.1222 731.767 93.6608 722.647 102.385C722.296 102.72 721.943 103.051 721.589 103.382C720.975 103.971 720.396 104.583 719.812 105.201C719.582 105.424 719.352 105.647 719.115 105.876C716.577 108.647 716.715 111.342 716.761 114.957C716.759 115.59 716.756 116.224 716.752 116.857C716.743 118.591 716.752 120.325 716.764 122.06C716.774 123.74 716.768 125.421 716.764 127.101C716.757 130.538 716.762 133.974 716.775 137.411C716.787 140.816 716.795 144.22 716.795 147.625C716.795 147.837 716.795 148.049 716.795 148.268C716.795 149.129 716.795 149.99 716.795 150.851C716.795 158.926 716.81 167 716.832 175.074C716.852 182.239 716.862 189.404 716.864 196.569C716.864 196.91 716.864 196.91 716.864 197.259C716.864 197.948 716.864 198.637 716.864 199.325C716.865 200.24 716.865 201.156 716.865 202.071C716.865 202.296 716.865 202.522 716.865 202.755C716.867 209.824 716.876 216.893 716.887 223.962C716.891 226.304 716.894 228.647 716.895 230.989C716.896 231.305 716.896 231.305 716.896 231.627C716.896 231.837 716.896 232.047 716.896 232.263C716.899 236.315 716.905 240.368 716.919 244.42C716.925 246.271 716.929 248.121 716.929 249.972C716.929 251.669 716.934 253.366 716.943 255.063C716.945 255.674 716.945 256.286 716.944 256.897C716.932 262.381 717.557 267.326 720.084 272.246C720.229 272.536 720.374 272.825 720.524 273.124C721.7 275.299 723.24 277.03 724.974 278.764C725.19 278.98 725.405 279.195 725.627 279.417C727.116 280.826 728.736 281.957 730.456 283.06C730.897 283.343 731.332 283.633 731.767 283.925C731.767 284.015 731.767 284.104 731.767 284.197C705.227 284.197 678.687 284.197 651.342 284.197C652.222 283.317 652.929 282.748 653.958 282.092C660.01 278.1 663.899 272.405 665.545 265.362C665.902 263.565 666.054 261.857 666.05 260.032C666.051 259.672 666.051 259.672 666.052 259.304C666.053 258.499 666.053 257.693 666.053 256.887C666.053 256.304 666.054 255.721 666.055 255.138C666.057 253.534 666.058 251.931 666.058 250.328C666.058 248.599 666.061 246.87 666.062 245.141C666.066 241.162 666.068 237.183 666.069 233.205C666.07 231.238 666.071 229.271 666.072 227.303C666.075 220.566 666.078 213.829 666.079 207.092C666.079 206.669 666.079 206.246 666.079 205.823C666.079 205.399 666.079 204.976 666.079 204.552C666.08 203.702 666.08 202.851 666.08 202.001C666.08 201.79 666.08 201.579 666.08 201.362C666.081 194.53 666.085 187.699 666.091 180.867C666.098 173.64 666.102 166.412 666.102 159.185C666.102 158.391 666.102 157.597 666.102 156.803C666.102 156.608 666.102 156.412 666.102 156.211C666.103 153.07 666.106 149.929 666.11 146.789C666.114 143.629 666.114 140.47 666.112 137.31C666.111 135.6 666.111 133.889 666.115 132.179C666.119 130.611 666.118 129.043 666.115 127.475C666.115 126.91 666.115 126.345 666.118 125.78C666.151 117.244 664.007 110.68 657.971 104.482C656.126 102.648 654.175 101.11 651.991 99.6991C651.67 99.4649 651.67 99.4649 651.342 99.2259C651.342 99.0467 651.342 98.8674 651.342 98.6827C657.327 97.2962 663.311 95.9098 669.295 94.5237C672.076 93.8797 674.856 93.2355 677.637 92.5912C684.189 91.0731 690.741 89.556 697.294 88.0413C698.464 87.7707 699.635 87.5 700.805 87.2292C703.07 86.7052 705.335 86.1816 707.6 85.6598C708.5 85.4524 709.4 85.2448 710.3 85.0363C711.262 84.8139 712.223 84.5925 713.185 84.3715C713.463 84.3068 713.742 84.242 714.029 84.1754C714.281 84.1177 714.533 84.0601 714.792 84.0007C715.009 83.9507 715.226 83.9006 715.45 83.8491C716.008 83.7438 716.008 83.7438 716.823 83.7438C716.913 89.5699 717.003 95.3961 717.095 101.399C718.709 99.7854 720.323 98.172 721.986 96.5098C722.975 95.6587 723.942 94.853 724.974 94.0652C725.233 93.8562 725.492 93.6471 725.759 93.4318C728.262 91.4381 730.929 89.7387 733.669 88.0896C733.868 87.9691 734.068 87.8486 734.273 87.7244C744.645 81.5194 756.518 78.7163 768.532 78.7698Z" fill="black"/>
<path d="M491.58 83.7438C491.58 83.9702 491.581 84.1966 491.581 84.4298C491.61 98.1325 491.639 111.835 491.67 125.538C491.674 127.218 491.677 128.897 491.681 130.577C491.682 130.911 491.683 131.245 491.683 131.59C491.694 136.216 491.703 140.842 491.713 145.469C491.747 161.757 491.786 178.045 491.835 194.332C491.844 197.491 491.853 200.649 491.862 203.807C491.88 210.557 491.899 217.306 491.926 224.055C491.938 226.879 491.948 229.703 491.954 232.527C491.96 234.884 491.968 237.242 491.98 239.599C491.986 240.788 491.99 241.977 491.991 243.165C492.005 254.911 492.563 268.781 501.361 277.678C507.511 283.401 515.348 283.93 523.369 283.654C525.3 283.529 527.183 283.236 529.075 282.839C529.32 282.788 529.565 282.737 529.817 282.684C538.27 280.846 545.601 277.091 551.898 271.159C552.082 270.993 552.266 270.827 552.455 270.656C557.588 265.832 560.963 258.543 561.187 251.511C561.214 250.118 561.21 248.725 561.207 247.331C561.208 246.792 561.209 246.253 561.21 245.713C561.213 244.239 561.213 242.765 561.211 241.291C561.211 239.698 561.213 238.105 561.215 236.512C561.219 233.394 561.219 230.276 561.219 227.158C561.218 224.622 561.218 222.086 561.22 219.55C561.22 219.185 561.22 218.82 561.22 218.455C561.22 217.905 561.221 217.355 561.221 216.805C561.223 211.694 561.224 206.583 561.223 201.471C561.223 201.279 561.223 201.086 561.223 200.888C561.223 199.912 561.223 198.937 561.222 197.961C561.222 197.767 561.222 197.574 561.222 197.374C561.222 196.982 561.222 196.591 561.222 196.199C561.221 190.106 561.223 184.013 561.228 177.921C561.233 171.067 561.236 164.213 561.235 157.359C561.235 156.627 561.235 155.895 561.235 155.163C561.235 154.893 561.235 154.893 561.235 154.617C561.234 151.906 561.236 149.194 561.239 146.482C561.242 143.395 561.243 140.308 561.24 137.22C561.238 135.647 561.238 134.074 561.241 132.5C561.244 131.056 561.243 129.612 561.239 128.169C561.238 127.65 561.239 127.131 561.241 126.612C561.272 118.695 559.933 111.719 554.201 105.883C553.801 105.473 553.409 105.057 553.017 104.639C551.327 102.863 549.535 101.407 547.507 100.03C546.736 99.4975 546.736 99.4975 546.193 98.9543C548.405 98.1565 550.669 97.6388 552.958 97.1177C553.405 97.0148 553.853 96.9119 554.301 96.8088C555.537 96.5244 556.773 96.2415 558.01 95.9589C559.335 95.6557 560.66 95.3513 561.985 95.047C563.747 94.6425 565.508 94.2381 567.27 93.8343C571.989 92.7524 576.706 91.6648 581.423 90.5755C582.939 90.2256 584.454 89.8759 585.969 89.5263C586.29 89.4522 586.29 89.4522 586.618 89.3766C587.699 89.1272 588.78 88.8778 589.861 88.6285C592.019 88.1306 594.177 87.6324 596.336 87.1336C598.195 86.7038 600.055 86.2747 601.915 85.8464C602.877 85.6246 603.84 85.4026 604.803 85.1798C605.856 84.9359 606.909 84.6935 607.963 84.4511C608.274 84.3788 608.586 84.3065 608.907 84.232C609.19 84.1671 609.473 84.1022 609.765 84.0354C610.01 83.9787 610.256 83.922 610.509 83.8636C611.13 83.7438 611.13 83.7438 611.945 83.7438C611.945 83.8988 611.945 84.0538 611.946 84.2135C611.957 101.09 611.97 117.967 611.988 134.844C611.989 135.096 611.989 135.348 611.989 135.608C611.995 141.088 612.001 146.568 612.007 152.048C612.011 154.736 612.014 157.424 612.017 160.111C612.017 160.379 612.017 160.646 612.017 160.922C612.027 169.588 612.034 178.254 612.04 186.92C612.046 195.827 612.054 204.734 612.066 213.641C612.068 214.899 612.069 216.158 612.071 217.416C612.071 217.664 612.072 217.912 612.072 218.167C612.077 222.151 612.079 226.136 612.081 230.12C612.082 234.128 612.086 238.135 612.094 242.142C612.098 244.522 612.1 246.902 612.098 249.282C612.098 250.873 612.1 252.465 612.105 254.056C612.107 254.962 612.108 255.868 612.106 256.773C612.091 265.174 613.769 272.595 619.825 278.764C621.587 280.419 623.566 281.753 625.592 283.06C626.028 283.342 626.459 283.633 626.889 283.925C626.889 284.015 626.889 284.104 626.889 284.197C620.662 284.205 614.436 284.211 608.209 284.214C607.979 284.214 607.749 284.214 607.512 284.214C595.466 284.22 583.422 284.209 571.376 284.061C571.112 284.058 570.848 284.054 570.576 284.051C567.52 284.013 564.464 283.97 561.408 283.925C561.318 279.085 561.229 274.245 561.136 269.258C560.329 270.154 559.522 271.051 558.691 271.974C550.971 280.228 540.234 285.915 529.194 288.067C528.882 288.129 528.882 288.129 528.565 288.192C523.968 289.03 519.37 289.187 514.709 289.171C514.416 289.17 514.124 289.17 513.823 289.169C509.166 289.156 504.615 288.954 500.003 288.271C499.687 288.227 499.371 288.184 499.046 288.139C483.58 285.971 467.394 281.046 455.443 270.616C455.235 270.435 455.235 270.435 455.022 270.25C449.161 265.123 444.871 258.788 442.554 251.314C442.494 251.123 442.433 250.931 442.371 250.734C441.177 246.568 440.921 242.251 440.94 237.945C440.939 237.442 440.938 236.939 440.936 236.436C440.933 235.071 440.935 233.705 440.937 232.34C440.939 230.861 440.936 229.383 440.934 227.904C440.93 225.346 440.93 222.788 440.931 220.231C440.933 216.527 440.93 212.824 440.925 209.12C440.917 203.102 440.912 197.085 440.91 191.067C440.91 190.888 440.91 190.708 440.91 190.523C440.909 187.607 440.908 184.692 440.907 181.776C440.906 179.043 440.905 176.311 440.904 173.579C440.904 173.399 440.904 173.219 440.904 173.034C440.901 166.856 440.896 160.678 440.888 154.5C440.883 150.808 440.881 147.115 440.883 143.422C440.884 140.891 440.883 138.361 440.879 135.83C440.876 134.372 440.876 132.914 440.878 131.456C440.881 130.118 440.879 128.78 440.875 127.442C440.874 126.962 440.875 126.481 440.877 126.001C440.912 117.267 438.611 110.657 432.433 104.37C430.743 102.673 429.045 101.199 427.024 99.9135C426.371 99.4975 426.371 99.4975 425.827 98.9543C427.526 98.3545 429.225 97.8845 430.981 97.4858C431.374 97.3952 431.374 97.3952 431.774 97.3027C432.645 97.1019 433.515 96.9029 434.386 96.7039C435.012 96.5599 435.638 96.4159 436.264 96.2717C437.957 95.8819 439.65 95.4935 441.344 95.1055C442.935 94.7407 444.526 94.375 446.117 94.0093C448.502 93.4608 450.887 92.9126 453.273 92.3651C457.96 91.2896 462.645 90.2107 467.33 89.1286C468.594 88.8367 469.857 88.545 471.121 88.2535C471.296 88.213 471.472 88.1725 471.653 88.1308C472.526 87.9292 473.4 87.7277 474.274 87.5261C475.981 87.1324 477.687 86.7384 479.394 86.3438C480.995 85.9737 482.596 85.6044 484.197 85.2358C484.785 85.1003 485.373 84.9645 485.96 84.8284C486.759 84.6433 487.559 84.4594 488.358 84.2757C488.593 84.2212 488.827 84.1666 489.068 84.1104C489.922 83.9153 490.701 83.7438 491.58 83.7438Z" fill="black"/>
<path d="M983.366 83.4722C983.578 83.5428 983.789 83.6134 984.007 83.6862C992.729 86.6346 1000.54 91.332 1007.28 97.5962C1007.63 97.9029 1007.99 98.2085 1008.35 98.5129C1010.77 100.632 1012.89 102.946 1014.88 105.473C1015.12 105.77 1015.36 106.067 1015.6 106.363C1018.54 110.002 1021.02 113.894 1023.31 117.967C1023.43 118.196 1023.56 118.424 1023.7 118.659C1029.01 128.209 1032.01 138.619 1033.72 149.373C1033.76 149.643 1033.8 149.913 1033.85 150.191C1034.2 152.569 1034.33 154.952 1034.45 157.352C1034.18 157.44 1033.92 157.528 1033.65 157.619C1020.65 162.002 1007.77 166.712 994.925 171.552C992.319 172.534 989.709 173.507 987.096 174.469C980.966 176.729 974.876 179.094 968.782 181.449C967.895 181.791 967.007 182.133 966.12 182.476C958.84 185.283 951.575 188.126 944.339 191.045C943.697 191.304 943.054 191.563 942.412 191.821C936.915 194.034 931.434 196.286 925.967 198.572C925.786 198.647 925.605 198.723 925.418 198.801C924.571 199.155 923.725 199.511 922.88 199.87C922.438 200.057 922.438 200.057 921.987 200.248C921.603 200.412 921.603 200.412 921.211 200.579C920.602 200.811 920.602 200.811 920.059 200.811C923.581 213.127 929.118 224.501 937.176 234.491C937.291 234.634 937.406 234.777 937.524 234.925C940.944 239.149 944.82 243.204 949.234 246.394C949.678 246.716 950.115 247.048 950.552 247.381C954.766 250.548 959.421 253.006 964.347 254.862C964.519 254.928 964.692 254.994 964.87 255.062C967.009 255.867 969.188 256.434 971.411 256.95C971.646 257.005 971.881 257.06 972.123 257.117C975.951 257.969 979.698 258.234 983.604 258.223C983.836 258.223 984.068 258.223 984.307 258.222C999.028 258.166 1012.33 252.11 1022.64 241.759C1024.28 240.077 1025.72 238.278 1027.11 236.392C1027.24 236.22 1027.37 236.047 1027.5 235.87C1028.14 235.021 1028.77 234.17 1029.39 233.314C1029.57 233.079 1029.57 233.079 1029.75 232.84C1030.12 232.311 1030.12 232.311 1030.42 231.658C1030.8 230.926 1031.11 230.421 1031.73 229.873C1033 229.572 1034.21 229.642 1035.5 229.721C1035.84 229.732 1036.18 229.743 1036.54 229.754C1037.38 229.783 1038.22 229.823 1039.07 229.873C1038.53 231.572 1037.9 233.194 1037.16 234.814C1037 235.163 1037 235.163 1036.84 235.52C1033.21 243.425 1028.94 250.981 1023.58 257.85C1023.32 258.186 1023.32 258.186 1023.05 258.528C1022.51 259.213 1021.96 259.891 1021.4 260.566C1021.19 260.827 1020.98 261.089 1020.76 261.358C1017.71 265.041 1014.44 268.591 1010.81 271.702C1010.65 271.839 1010.49 271.976 1010.33 272.118C999.503 281.342 986.329 286.524 972.226 287.999C971.893 288.038 971.893 288.038 971.553 288.077C946.911 290.571 922.024 283.295 902.771 267.764C901.56 266.764 900.387 265.728 899.227 264.67C898.667 264.163 898.099 263.671 897.524 263.18C895.364 261.296 893.381 259.221 891.53 257.035C891.313 256.789 891.097 256.542 890.874 256.288C886.323 251.072 882.533 245.219 879.303 239.108C879.184 238.884 879.065 238.66 878.942 238.429C872.8 226.763 869.095 214.122 867.348 201.082C867.303 200.755 867.258 200.429 867.212 200.092C865.816 189.429 865.851 178.051 867.348 167.402C867.374 167.212 867.401 167.021 867.428 166.825C869.018 155.444 871.93 144.408 876.858 133.993C876.984 133.726 877.11 133.458 877.241 133.183C879.902 127.611 882.967 122.389 886.639 117.424C886.756 117.266 886.873 117.107 886.993 116.944C890.813 111.799 895.146 106.995 899.953 102.757C900.16 102.572 900.16 102.572 900.371 102.384C919.243 85.6435 945.892 77.5978 983.366 83.4722ZM936.633 101.67C936.471 101.817 936.309 101.963 936.142 102.114C921.771 115.533 918.072 138.99 916.527 157.623C916.501 157.934 916.475 158.245 916.448 158.565C916.19 162.084 916.189 165.607 916.187 169.133C916.187 169.463 916.186 169.793 916.186 170.133C916.187 175.513 916.389 180.805 917.07 186.143C917.108 186.439 917.145 186.735 917.184 187.039C917.409 189.653 917.409 189.653 918.157 192.119C920.222 191.461 922.221 190.675 924.23 189.863C924.581 189.722 924.932 189.58 925.284 189.439C926.215 189.064 927.146 188.688 928.076 188.311C928.654 188.078 929.232 187.844 929.809 187.611C938.23 184.208 946.6 180.737 954.837 176.908C955.153 176.761 955.469 176.615 955.795 176.463C962.897 173.15 969.861 169.44 976.302 164.957C976.527 164.801 976.527 164.801 976.757 164.641C978.695 163.295 980.574 161.904 982.384 160.387C982.837 160.011 983.296 159.641 983.762 159.282C989.069 155.15 993.042 150.395 995.864 144.314C996.013 144.001 996.161 143.688 996.314 143.365C999.969 135.302 1000.13 126.364 997.103 118.067C992.938 107.244 985.348 97.9127 974.704 92.9669C972.496 91.9922 970.232 91.3269 967.879 90.8058C967.582 90.7393 967.285 90.6728 966.979 90.6042C955.439 88.456 944.569 93.5336 936.633 101.67Z" fill="black"/>
<path d="M368.497 79.6695C368.806 79.7221 369.115 79.7746 369.434 79.8287C384.449 82.475 397.51 89.3405 406.419 101.915C412.567 110.929 414.506 122.862 412.523 133.512C411.704 137.452 410.44 141.092 408.438 144.586C408.298 144.833 408.298 144.833 408.155 145.084C404.629 151.176 398.975 155.976 392.136 157.895C390.126 158.354 388.184 158.535 386.124 158.523C385.853 158.522 385.582 158.521 385.303 158.519C377.795 158.402 370.991 155.57 365.543 150.426C361.578 146.227 359.893 141.104 359.967 135.426C360.113 130.604 362.022 126.856 364.897 123.077C370.457 115.768 373.833 107.813 372.727 98.5066C371.829 94.3491 369.353 90.7791 365.952 88.2679C359.853 84.4324 352.234 83.3081 345.218 84.8027C338.756 86.356 333.054 89.7668 328.285 94.3368C327.956 94.6404 327.956 94.6404 327.62 94.9501C321.251 101.007 316.825 109.97 316.027 118.715C316.004 118.961 315.981 119.208 315.958 119.461C315.725 122.186 315.711 124.902 315.718 127.635C315.717 128.203 315.716 128.771 315.715 129.339C315.713 130.882 315.714 132.425 315.716 133.968C315.717 135.639 315.715 137.31 315.714 138.98C315.711 142.059 315.711 145.137 315.713 148.215C315.714 151.059 315.715 153.904 315.714 156.749C315.714 156.938 315.714 157.127 315.714 157.322C315.714 158.091 315.714 158.86 315.713 159.628C315.712 166.826 315.713 174.024 315.716 181.222C315.719 187.605 315.718 193.988 315.716 200.371C315.713 207.557 315.712 214.742 315.714 221.928C315.714 222.695 315.714 223.462 315.714 224.23C315.714 224.513 315.714 224.513 315.714 224.802C315.715 227.643 315.714 230.485 315.713 233.326C315.711 236.56 315.712 239.794 315.714 243.027C315.716 244.675 315.716 246.323 315.715 247.971C315.713 249.482 315.714 250.994 315.717 252.506C315.717 253.05 315.717 253.593 315.716 254.136C315.694 263.585 317.014 271.702 323.7 278.845C325.813 280.831 328.264 282.416 330.73 283.925C330.73 284.015 330.73 284.104 330.73 284.197C304.101 284.197 277.471 284.197 250.034 284.197C250.839 283.553 251.594 282.955 252.44 282.387C258.482 278.272 262.878 272.747 264.434 265.455C265.019 262.176 265.055 258.947 265.049 255.626C265.05 255.05 265.051 254.474 265.052 253.898C265.055 252.326 265.054 250.753 265.053 249.181C265.052 247.481 265.055 245.781 265.057 244.081C265.06 240.755 265.061 237.429 265.06 234.102C265.06 231.398 265.06 228.693 265.061 225.988C265.061 225.599 265.062 225.209 265.062 224.82C265.062 224.233 265.062 223.647 265.062 223.06C265.065 217.608 265.066 212.156 265.065 206.705C265.065 206.499 265.065 206.294 265.065 206.083C265.064 205.042 265.064 204.002 265.064 202.962C265.064 202.652 265.064 202.652 265.064 202.335C265.064 201.918 265.064 201.5 265.064 201.082C265.062 194.583 265.064 188.083 265.069 181.584C265.075 174.273 265.078 166.961 265.077 159.65C265.077 158.869 265.076 158.089 265.076 157.308C265.076 157.116 265.076 156.924 265.076 156.726C265.076 153.833 265.078 150.94 265.081 148.047C265.084 144.754 265.084 141.461 265.081 138.168C265.079 136.49 265.079 134.811 265.082 133.133C265.085 131.593 265.084 130.054 265.081 128.515C265.08 127.961 265.081 127.407 265.083 126.853C265.116 117.819 263.068 110.928 256.64 104.37C254.986 102.709 253.258 101.291 251.31 99.992C250.578 99.4975 250.578 99.4975 250.034 98.9543C251.733 98.3545 253.432 97.8845 255.188 97.4858C255.45 97.4254 255.711 97.3649 255.981 97.3027C256.851 97.1019 257.722 96.9029 258.593 96.7039C259.219 96.5599 259.845 96.4158 260.47 96.2717C262.164 95.8819 263.857 95.4935 265.551 95.1055C267.142 94.7408 268.732 94.375 270.323 94.0093C272.708 93.4608 275.093 92.9126 277.479 92.3651C282.168 91.2889 286.857 90.2101 291.545 89.1286C293.861 88.5941 296.178 88.0601 298.495 87.5261C300.204 87.1322 301.913 86.7382 303.621 86.3438C305.224 85.9739 306.827 85.6046 308.429 85.2358C309.018 85.1002 309.607 84.9644 310.196 84.8284C310.996 84.6436 311.796 84.4595 312.596 84.2757C312.831 84.2211 313.067 84.1666 313.309 84.1104C314.91 83.7438 314.91 83.7438 315.515 83.7438C315.605 89.6596 315.694 95.5754 315.787 101.67C316.683 100.326 317.58 98.9815 318.504 97.5962C320.129 95.4098 321.801 93.3336 323.666 91.349C323.88 91.109 323.88 91.109 324.098 90.8642C326.669 88.0982 330.123 86.0092 333.448 84.287C333.707 84.1522 333.707 84.1522 333.971 84.0146C344.616 78.5595 356.819 77.6784 368.497 79.6695Z" fill="black"/>
<path d="M698.347 3.34528C700.455 3.32449 702.562 3.3103 704.669 3.30052C705.385 3.29645 706.1 3.2909 706.816 3.28381C707.849 3.27384 708.883 3.26929 709.916 3.26571C710.232 3.2615 710.548 3.2573 710.874 3.25296C715.21 3.25209 719.03 4.54815 722.188 7.57868C725.697 11.3353 726.277 15.352 726.109 20.2913C725.9 23.4022 724.06 26.8659 721.769 28.9706C718.088 31.7375 714.373 32.7306 709.828 32.7064C709.553 32.706 709.279 32.7056 708.996 32.7052C708.124 32.7037 707.252 32.7003 706.38 32.6968C705.786 32.6955 705.193 32.6942 704.599 32.6931C703.149 32.6901 701.699 32.6856 700.249 32.6799C700.248 32.3534 700.246 32.027 700.245 31.6906C700.229 28.6133 700.209 25.536 700.185 22.4587C700.173 20.8767 700.162 19.2947 700.155 17.7126C700.148 16.1856 700.137 14.6588 700.124 13.1319C700.119 12.5495 700.116 11.9671 700.114 11.3847C700.112 10.5686 700.104 9.75269 700.095 8.93663C700.096 8.69613 700.096 8.45563 700.096 8.20784C700.076 6.84372 699.935 5.87743 699.163 4.70337C698.894 4.5241 698.625 4.34483 698.347 4.16013C698.347 3.89123 698.347 3.62233 698.347 3.34528ZM705.412 6.8763C705.412 14.1366 705.412 21.3969 705.412 28.8772C712.482 29.0864 712.482 29.0864 718.182 25.8895C720.522 23.459 721.282 20.3642 721.245 17.0747C720.985 13.7053 719.573 11.2667 717.044 9.10016C713.578 6.55594 709.526 6.8763 705.412 6.8763Z" fill="black"/>
<path d="M513.588 3.34528C515.83 3.34528 518.071 3.34528 520.381 3.34528C520.386 3.91668 520.391 4.48807 520.397 5.07677C520.415 6.97184 520.436 8.86687 520.459 10.7619C520.472 11.91 520.485 13.0581 520.495 14.2063C520.505 15.3159 520.518 16.4253 520.532 17.5349C520.537 17.9566 520.541 18.3784 520.544 18.8001C520.544 23.3179 520.544 23.3179 522.554 27.2475C524.11 28.7423 525.846 29.1546 527.954 29.2337C530.075 29.1784 532.001 28.6789 533.567 27.1945C535.111 25.2977 535.351 23.0434 535.38 20.6748C535.383 20.4864 535.386 20.2981 535.388 20.1041C535.397 19.4868 535.404 18.8696 535.41 18.2524C535.416 17.8223 535.422 17.3923 535.427 16.9622C535.442 15.8343 535.456 14.7064 535.469 13.5785C535.483 12.4259 535.498 11.2734 535.513 10.1208C535.542 7.86234 535.569 5.60382 535.596 3.34528C537.12 3.34528 538.645 3.34528 540.215 3.34528C540.234 5.90966 540.248 8.47398 540.257 11.0384C540.261 12.2295 540.267 13.4205 540.277 14.6115C540.285 15.7633 540.29 16.9151 540.292 18.0669C540.294 18.5039 540.297 18.9409 540.301 19.3779C540.336 22.9203 540.07 26.1307 538.041 29.1489C537.931 29.319 537.82 29.4892 537.706 29.6645C536.164 31.7412 533.47 32.8076 530.977 33.2231C526.847 33.5732 522.74 33.498 519.275 30.9664C516.755 28.7584 515.876 25.8563 515.49 22.6301C515.417 21.3543 515.408 20.0817 515.406 18.8041C515.401 18.2644 515.396 17.7246 515.391 17.1849C515.378 15.8699 515.372 14.5548 515.366 13.2398C515.362 12.4959 515.357 11.7522 515.349 11.0083C515.342 10.3119 515.338 9.61534 515.338 8.91884C515.341 6.68667 515.341 6.68667 514.403 4.70337C514.134 4.5241 513.865 4.34483 513.588 4.16013C513.588 3.89123 513.588 3.62233 513.588 3.34528Z" fill="black"/>
<path d="M384.256 3.34528C390.712 3.34528 397.168 3.34528 403.819 3.34528C403.819 4.51052 403.819 5.67575 403.819 6.8763C399.605 6.8763 395.391 6.8763 391.049 6.8763C391.049 9.8342 391.049 12.7921 391.049 15.8396C395.084 15.8396 399.119 15.8396 403.276 15.8396C403.276 17.0945 403.276 18.3494 403.276 19.6423C399.241 19.6423 395.206 19.6423 391.049 19.6423C391.049 22.6898 391.049 25.7374 391.049 28.8772C395.353 28.8772 399.657 28.8772 404.091 28.8772C404.091 30.1321 404.091 31.387 404.091 32.6799C398.173 32.6799 392.255 32.6799 386.158 32.6799C386.148 30.7969 386.138 28.9139 386.128 26.9738C386.119 25.7805 386.111 24.5873 386.102 23.394C386.087 21.5002 386.073 19.6064 386.064 17.7126C386.057 16.1856 386.046 14.6588 386.032 13.1319C386.028 12.5495 386.025 11.9671 386.023 11.3847C386.021 10.5686 386.013 9.75269 386.004 8.93663C386.004 8.69613 386.005 8.45563 386.005 8.20784C385.985 6.84372 385.844 5.87743 385.072 4.70337C384.803 4.5241 384.534 4.34483 384.256 4.16013C384.256 3.89123 384.256 3.62233 384.256 3.34528Z" fill="black"/>
<path d="M599.447 3.34528C605.902 3.34528 612.358 3.34528 619.01 3.34528C619.01 4.51052 619.01 5.67575 619.01 6.8763C614.885 6.8763 610.761 6.8763 606.511 6.8763C606.511 9.8342 606.511 12.7921 606.511 15.8396C610.456 15.8396 614.401 15.8396 618.466 15.8396C618.466 17.0945 618.466 18.3494 618.466 19.6423C614.521 19.6423 610.576 19.6423 606.511 19.6423C606.511 22.6898 606.511 25.7374 606.511 28.8772C610.725 28.8772 614.939 28.8772 619.281 28.8772C619.281 30.1321 619.281 31.387 619.281 32.6799C613.453 32.6799 607.625 32.6799 601.62 32.6799C601.607 30.9044 601.594 29.1288 601.58 27.2995C601.57 26.1719 601.561 25.0442 601.55 23.9165C601.534 22.1283 601.518 20.3401 601.506 18.5519C601.496 17.1095 601.483 15.6671 601.469 14.2248C601.464 13.6757 601.46 13.1265 601.456 12.5774C601.452 11.8058 601.444 11.0342 601.435 10.2626C601.435 10.0377 601.434 9.81281 601.434 9.58112C601.407 7.72248 601.368 5.8762 600.092 4.44873C599.879 4.26386 599.666 4.07899 599.447 3.88852C599.447 3.70925 599.447 3.52998 599.447 3.34528Z" fill="black"/>
<path d="M743.722 3.34528C750.178 3.34528 756.634 3.34528 763.285 3.34528C763.285 4.51052 763.285 5.67575 763.285 6.8763C759.071 6.8763 754.857 6.8763 750.515 6.8763C750.515 9.8342 750.515 12.7921 750.515 15.8396C754.55 15.8396 758.584 15.8396 762.741 15.8396C762.741 17.0945 762.741 18.3494 762.741 19.6423C758.707 19.6423 754.672 19.6423 750.515 19.6423C750.515 22.6898 750.515 25.7374 750.515 28.8772C754.819 28.8772 759.122 28.8772 763.557 28.8772C763.557 30.1321 763.557 31.387 763.557 32.6799C757.729 32.6799 751.9 32.6799 745.896 32.6799C745.879 31.0542 745.863 29.4286 745.846 27.7536C745.835 26.7176 745.824 25.6815 745.812 24.6454C745.794 23.0046 745.777 21.3637 745.761 19.7228C745.748 18.3985 745.733 17.0741 745.718 15.7497C745.713 15.247 745.708 14.7442 745.703 14.2415C745.844 9.24143 745.844 9.24143 744.809 4.43175C744.265 4.04591 744.265 4.04591 743.722 3.88852C743.722 3.70925 743.722 3.52998 743.722 3.34528Z" fill="black"/>
<path d="M560.321 3.34528C562.284 3.32452 564.246 3.31031 566.208 3.30052C566.875 3.29644 567.542 3.29089 568.208 3.28381C569.17 3.27386 570.132 3.26929 571.094 3.26571C571.536 3.2594 571.536 3.2594 571.988 3.25296C575.404 3.25222 577.657 4.14491 580.088 6.5198C581.667 8.58079 582.114 11.1379 581.786 13.6667C581.246 15.8734 580.076 17.7363 578.147 18.9728C575.603 20.3124 573.341 20.5347 570.51 20.4911C569.479 20.4799 568.448 20.4687 567.386 20.4571C567.386 24.4906 567.386 28.5241 567.386 32.6799C565.772 32.6799 564.158 32.6799 562.495 32.6799C562.491 31.9096 562.487 31.1393 562.483 30.3457C562.469 27.7969 562.451 25.2481 562.431 22.6994C562.419 21.1545 562.408 19.6096 562.401 18.0647C562.394 16.573 562.383 15.0813 562.369 13.5897C562.364 13.0214 562.361 12.4531 562.36 11.8848C562.357 11.087 562.349 10.2894 562.341 9.49167C562.341 9.2582 562.341 9.02473 562.342 8.78418C562.318 7.25253 562.048 6.10105 561.408 4.70337C560.851 4.20002 560.851 4.20002 560.321 3.88852C560.321 3.70925 560.321 3.52998 560.321 3.34528ZM567.386 6.8763C567.386 10.1927 567.386 13.5092 567.386 16.9261C568.193 16.9429 569 16.9597 569.831 16.977C570.081 16.9845 570.33 16.9919 570.588 16.9995C572.347 17.0171 573.809 16.775 575.271 15.7113C576.36 14.4312 576.862 13.1859 576.895 11.4938C576.645 10.0181 576.092 8.72868 574.993 7.69115C573.358 6.79471 571.958 6.77676 570.12 6.82537C569.217 6.84218 568.315 6.85898 567.386 6.8763Z" fill="black"/>
<path d="M654.331 4.43175C654.371 5.22198 654.382 5.98538 654.365 6.77444C654.363 6.99222 654.36 7.21001 654.358 7.43439C654.351 7.9727 654.342 8.51098 654.331 9.04923C654.069 8.91513 653.807 8.78103 653.537 8.64287C653.191 8.46704 652.844 8.29127 652.497 8.11555C652.325 8.02714 652.153 7.93873 651.975 7.84765C649.86 6.77948 647.543 6.39474 645.213 7.08107C644.159 7.57398 643.628 7.94147 643.191 9.04923C643.071 10.1332 643.108 10.7774 643.582 11.7654C645 13.4248 646.712 14.501 648.608 15.5511C651.529 17.1734 654.282 19.0563 655.384 22.3415C655.969 24.6226 655.834 26.7115 654.875 28.8772C653.643 30.9266 652.142 32.1535 649.933 33.0194C645.939 33.8048 641.777 33.6389 638.301 31.3218C638.208 30.8113 638.208 30.8113 638.221 30.1992C638.224 29.9804 638.226 29.7616 638.229 29.5361C638.236 29.3075 638.243 29.0789 638.25 28.8433C638.253 28.6126 638.257 28.3818 638.261 28.1441C638.27 27.5735 638.285 27.0031 638.301 26.4327C639.153 26.7473 639.837 27.0664 640.542 27.638C642.655 29.1701 644.973 29.4432 647.539 29.1489C648.873 28.743 649.798 28.1869 650.527 26.9759C650.676 26.2775 650.676 26.2775 650.663 25.533C650.672 25.2875 650.68 25.0421 650.689 24.7892C650.38 23.2584 649.473 22.2283 648.19 21.3738C647.828 21.155 647.464 20.94 647.097 20.7287C646.709 20.4957 646.322 20.2627 645.934 20.0295C645.745 19.9177 645.556 19.8059 645.361 19.6907C644.165 18.981 642.992 18.2376 641.833 17.4693C641.592 17.3097 641.592 17.3097 641.346 17.1468C639.873 16.0569 638.873 14.297 638.301 12.5802C638.092 9.94688 638.22 7.71932 639.768 5.52034C641.292 3.78452 643.797 2.68735 646.095 2.52937C652.439 2.54009 652.439 2.54009 654.331 4.43175Z" fill="black"/>
<path d="M438.869 4.16013C438.869 5.77354 438.869 7.38694 438.869 9.04923C438.264 8.66269 438.264 8.66269 437.646 8.26833C435.333 6.895 432.793 6.37595 430.115 7.02166C429.135 7.40141 428.493 7.84862 428.001 8.77762C427.584 9.84842 427.762 10.7065 428.209 11.7569C429.417 13.7435 431.958 14.7909 433.911 15.9227C436.884 17.6544 439.284 19.4329 440.228 22.9017C440.488 25.6249 440.395 28.0966 438.661 30.3022C436.638 32.4724 434.469 33.2711 431.533 33.4947C428.307 33.4947 425.903 32.917 423.11 31.3218C423.11 29.7084 423.11 28.095 423.11 26.4327C423.952 26.8532 424.712 27.2917 425.505 27.7908C427.731 29.1171 429.776 29.4026 432.348 29.1489C433.601 28.8061 434.311 28.3582 435.065 27.2985C435.474 25.9952 435.499 25.0161 435.065 23.7165C433.765 21.7664 431.825 20.6316 429.801 19.5404C426.822 17.8655 424.309 16.2195 423.11 12.8519C422.567 10.5231 422.822 8.3627 423.994 6.26728C425.583 3.97422 427.533 3.15587 430.232 2.65033C433.316 2.29117 436.101 2.77653 438.869 4.16013Z" fill="black"/>
<path d="M348.12 3.34528C350.361 3.34528 352.603 3.34528 354.912 3.34528C354.912 11.7708 354.912 20.1964 354.912 28.8772C358.947 28.8772 362.982 28.8772 367.139 28.8772C367.139 30.1321 367.139 31.387 367.139 32.6799C361.49 32.6799 355.841 32.6799 350.022 32.6799C350.011 30.8196 350.001 28.9594 349.991 27.0428C349.983 25.8631 349.974 24.6835 349.965 23.5038C349.95 21.6321 349.936 19.7604 349.927 17.8886C349.92 16.3793 349.909 14.8701 349.896 13.3608C349.891 12.7854 349.888 12.2101 349.886 11.6347C349.884 10.8278 349.876 10.021 349.867 9.21415C349.868 8.97716 349.868 8.74018 349.869 8.49601C349.846 7.03457 349.643 5.99256 348.935 4.70337C348.666 4.5241 348.397 4.34483 348.12 4.16013C348.12 3.89123 348.12 3.62233 348.12 3.34528Z" fill="black"/>
<path d="M486.417 3.34528C488.659 3.34528 490.901 3.34528 493.21 3.34528C493.229 6.45025 493.244 9.55519 493.252 12.6602C493.257 14.1022 493.262 15.5441 493.272 16.9861C493.281 18.3791 493.285 19.7721 493.287 21.1652C493.289 21.6952 493.292 22.2251 493.296 22.7551C493.349 29.3712 493.349 29.3712 491.308 31.865C489.339 33.863 487.294 34.5283 484.516 34.5812C483.861 34.5326 483.259 34.4385 482.614 34.3096C482.524 33.1443 482.434 31.9791 482.342 30.7786C482.601 30.7519 482.86 30.7253 483.126 30.6979C483.467 30.6573 483.808 30.6167 484.159 30.5748C484.665 30.5181 484.665 30.5181 485.181 30.4603C486.252 30.2107 486.743 29.9331 487.504 29.1489C488.093 28.0132 488.127 26.9454 488.122 25.6927C488.124 25.4858 488.125 25.279 488.127 25.0658C488.13 24.3844 488.13 23.703 488.129 23.0216C488.13 22.5463 488.132 22.0711 488.133 21.5958C488.135 20.6006 488.135 19.6054 488.133 18.6101C488.132 17.3366 488.137 16.0632 488.143 14.7898C488.147 13.8085 488.147 12.8273 488.146 11.8461C488.146 11.3766 488.148 10.9072 488.151 10.4377C488.154 9.78052 488.152 9.1235 488.149 8.46628C488.151 8.27363 488.153 8.08097 488.155 7.88248C488.142 6.62701 487.904 5.76498 487.233 4.70337C486.964 4.5241 486.695 4.34483 486.417 4.16013C486.417 3.89123 486.417 3.62233 486.417 3.34528Z" fill="black"/>
</svg>
