<svg xmlns="http://www.w3.org/2000/svg" width="1187" height="365" fill="none"><path fill="#020202" d="m411.455 4.086 1.504-.04c4.593-.117 9.186-.187 13.78-.241a532.77 532.77 0 0 0 9.259-.181c2.983-.088 5.964-.135 8.948-.153 1.135-.014 2.271-.042 3.405-.085 8.655-.315 8.655-.315 11.089 1.697 1.665 1.958 2.77 4.12 3.766 6.475.582 1.334 1.331 2.539 2.112 3.764l1.423 2.39c1.984 3.32 3.991 6.627 6.005 9.929 4.17 6.837 8.285 13.705 12.356 20.601 2.018 3.414 4.067 6.797 6.219 10.129 1.018 1.59 1.984 3.21 2.95 4.832 1.211 2.017 2.442 4.022 3.672 6.028a925.865 925.865 0 0 1 5.967 9.866 197.47 197.47 0 0 0 4.625 7.311c.628 1.072.628 1.072.628 2.106h1.035l-.047-1.429c-.511-16.368-.552-32.733-.537-49.108.002-2.896 0-5.792-.002-8.688-.003-3.168-.002-6.335-.001-9.503.001-1.335 0-2.67-.001-4.006-.001-1.841.001-3.683.003-5.525l-.003-1.665.005-1.504V5.774c.065-.981.065-.981.583-1.498 1.619-.052 3.227-.07 4.847-.067l1.542-.003c1.691-.002 3.382 0 5.073.001l3.509-.001c2.454-.001 4.909 0 7.364.002 3.154.003 6.308.002 9.462-.001 2.416-.002 4.832-.002 7.249 0 1.163 0 2.326 0 3.49-.002 1.623-.001 3.245.001 4.868.004l1.473-.003c3.315.01 3.315.01 3.892.587.051.942.065 1.886.065 2.83l.004 1.873-.004 2.085.003 2.194c.002 2.018.001 4.037-.001 6.056-.001 2.174.001 4.347.002 6.52.003 4.263.002 8.525.001 12.786-.001 3.462-.002 6.925-.001 10.387v1.49l.001 2.996c.001 9.378 0 18.755-.003 28.133-.003 8.055-.002 16.11 0 24.166.003 9.343.004 18.685.002 28.028V138.807c-.001 3.46 0 6.92.001 10.38.002 4.214.001 8.427-.001 12.641-.002 2.152-.002 4.304-.001 6.456.002 1.966.001 3.933-.002 5.9l.001 2.144c.002.965 0 1.93-.002 2.895v1.631c-.065 1.2-.065 1.2-.583 1.717-1.598.057-3.184.081-4.783.083l-1.521.008c-1.67.007-3.339.011-5.008.014l-3.467.009c-2.426.005-4.852.008-7.278.01-3.113.003-6.227.015-9.34.03-2.388.009-4.776.012-7.163.013-1.148.001-2.297.006-3.445.012-1.604.009-3.208.008-4.812.005l-1.446.014-1.324-.008-1.149.002c-1.289-.248-1.729-.742-2.55-1.743a48.828 48.828 0 0 1-1.358-2.454 142.56 142.56 0 0 0-4.074-7.106 173.805 173.805 0 0 1-4.606-8.073c-1.19-2.144-2.467-4.234-3.757-6.319a63.892 63.892 0 0 1-2.934-5.364c-1.504-3.05-3.259-5.929-5.032-8.83-2.456-4.052-4.876-8.118-7.21-12.241-4.242-7.483-8.683-14.853-13.225-22.158-1.467-2.364-2.82-4.77-4.13-7.223-1.031-1.876-2.153-3.69-3.286-5.505-.57-1.032-.57-1.032-.57-2.065h-1.035l.243 1.316c2.73 17.73 1.406 36.781 1.405 54.656 0 3.356.007 6.712.016 10.068.006 2.602.007 5.203.006 7.805.001 1.239.003 2.479.007 3.718.005 1.714.004 3.427.001 5.14l.009 1.545-.007 1.404.001 1.221c-.129.982-.129.982-1.164 2.016-.933.128-.933.128-2.085.127l-1.321.007-1.452-.009-1.527.003c-1.671.002-3.343-.003-5.014-.009l-3.472-.001c-2.427-.001-4.854-.005-7.282-.012a2917.52 2917.52 0 0 0-9.356-.01c-2.39 0-4.78-.003-7.17-.007-1.15-.002-2.301-.003-3.451-.003-1.604-.001-3.208-.006-4.813-.011h-1.455c-3.277-.016-3.277-.016-3.853-.592a52.387 52.387 0 0 1-.065-2.831l-.005-1.873.004-2.084-.002-2.194c-.003-2.019-.002-4.038 0-6.057.001-2.173-.001-4.347-.002-6.521-.002-4.261-.002-8.523 0-12.785v-14.873c-.002-9.377 0-18.755.003-28.132.002-8.056.002-16.111-.001-24.167-.003-9.342-.004-18.685-.002-28.028v-2.985l.001-1.485-.002-10.38c-.001-4.213-.001-8.427.002-12.64.001-2.152.002-4.304 0-6.456-.001-1.967-.001-3.934.002-5.9.001-.715 0-1.43-.001-2.145-.001-.965 0-1.93.003-2.895v-1.63c.149-2.76 3.149-1.856 5.308-1.907Z"/><path fill="#010101" d="m619.11 4.207 1.88-.007h2.083c.727 0 1.453-.003 2.18-.005 1.982-.004 3.965-.005 5.947-.006a10898.436 10898.436 0 0 1 16.766-.01c4.029.001 8.057-.004 12.086-.012 3.47-.007 6.941-.01 10.411-.01 2.067 0 4.134 0 6.201-.006 11.087-.028 21.949.358 32.905 2.192l1.629.258c2.735.446 5.353.996 8.006 1.81l3.816.968c2.585.675 5.011 1.458 7.419 2.622 1.433.659 2.899 1.173 4.383 1.706 6.572 2.515 12.087 6.292 17.492 10.724l1.292 1.047c3.08 2.608 5.547 5.597 8.021 8.772l.854 1.028c2.12 2.623 3.564 5.547 5.014 8.571a68.929 68.929 0 0 0 1.552 3.04c4.293 7.849 5.809 16.856 7.065 25.604l.281 1.797c.865 6.033.938 12.012.916 18.1l-.003 1.59c-.028 10.7-.755 20.913-3.78 31.226l-.287 1.016c-2.06 7.275-4.784 14.387-9.026 20.69l-.913 1.358c-6.889 9.834-15.83 17.469-26.506 22.931l-1.425.769c-15.654 8.234-34.331 10.695-51.801 10.668l-2.218.002c-1.982.003-3.965.002-5.947 0-2.082-.001-4.163 0-6.244.001-3.487.001-6.973 0-10.459-.003-4.033-.003-8.066-.002-12.099.001-3.471.002-6.942.003-10.412.001-2.07 0-4.14-.001-6.21.001-1.94.002-3.879.001-5.818-.002h-2.139c-.969.002-1.939 0-2.908-.003h-1.646c-1.215-.065-1.215-.065-1.732-.582a52.387 52.387 0 0 1-.065-2.831l-.004-1.873.003-2.084-.002-2.194c-.003-2.019-.001-4.038 0-6.057.001-2.173-.001-4.347-.002-6.521-.002-4.261-.002-8.523 0-12.785l.001-10.386-.001-1.49v-2.997c-.002-9.377 0-18.755.003-28.132.002-8.056.002-16.111-.001-24.167-.002-9.342-.004-18.685-.002-28.028l.001-2.985v-1.485l-.002-10.38c-.001-4.213-.001-8.427.002-12.64.001-2.152.002-4.304 0-6.456-.001-1.967-.001-3.934.002-5.9.001-.715 0-1.43-.001-2.145-.001-.965.001-1.93.003-2.895v-1.63c.124-2.298 1.434-1.783 3.439-1.786Zm54.051 46.064a74.17 74.17 0 0 0-.066 3.335l-.002 1.068c-.002 1.19-.001 2.38.001 3.57l-.003 2.548c-.002 2.314-.001 4.628 0 6.942.002 2.415.001 4.831 0 7.247-.001 4.058 0 8.116.002 12.174.003 4.698.002 9.397 0 14.095-.003 4.026-.003 8.053-.002 12.079.001 2.408.001 4.816-.001 7.225-.001 2.263 0 4.526.003 6.79.001.833 0 1.666-.001 2.499-.001 1.133.001 2.265.003 3.398l.001 1.925c-.096 1.365-.096 1.365.582 1.927 12.3.741 24.451-1.327 34.145-9.303 4.996-4.457 7.678-10.674 9.312-17.054l.582-1.744c1.24-5.129 1.064-10.549 1.067-15.795l.019-1.985c.018-11.472-2.368-23.26-10.548-31.77-4.62-4.297-9.388-6.488-15.435-8.138l-1.843-.613c-4.262-1.007-8.64-.984-12.998-1.002l-1.259-.007c-1.937-.18-1.937-.18-3.559.589ZM826.809 3.69l1.129.003 1.192-.002c1.328-.002 2.656 0 3.984.001l2.844-.003c2.585-.002 5.17-.001 7.755 0 2.705.002 5.41 0 8.115 0 4.55-.001 9.1 0 13.649.003 5.251.002 10.501.001 15.752-.001 4.509-.003 9.018-.003 13.527-.002h8.077c2.537-.002 5.074 0 7.611.002h2.783c7.767-.01 15.132.532 22.744 2.135.508.105 1.015.21 1.538.32 4.102.977 7.704 2.876 11.396 4.848l1.083.55c10.402 5.488 17.522 15.75 21.583 26.517 3.781 12.974 3.449 28.015-3.029 40.089-5.622 9.751-13.763 15.925-23.776 20.7-.69.342-1.381.686-2.069 1.033l1.158.456c11.221 4.53 18.871 10.452 23.739 21.702 3.524 8.903 4.184 18.778 5.387 28.19.343 2.654.706 5.304 1.08 7.953l.174 1.269c.389 2.747.938 5.431 1.572 8.131l.517 2.267.518 2.222.258 1.128c.499 2.136 1.115 4.187 1.811 6.269.097 1.453.097 1.453 0 2.584-.81.809-1.603.585-2.73.589l-1.446.009-1.599.002-1.675.008c-1.837.007-3.675.011-5.512.014l-3.814.009c-2.67.005-5.339.008-8.009.01-3.427.003-6.853.015-10.28.03-2.627.009-5.255.012-7.882.013-1.264.001-2.527.006-3.791.012-1.765.009-3.53.008-5.295.005l-1.593.014-1.456-.008-1.265.002c-1.347-.24-1.796-.681-2.63-1.743-.342-1.041-.342-1.041-.55-2.196a41.38 41.38 0 0 0-.986-4.159c-.558-2.002-.946-3.999-1.277-6.048l-.196-1.193c-1.056-6.587-1.952-13.216-2.543-19.862-.192-1.609-.554-3.162-.931-4.736-.221-.986-.366-1.987-.501-2.988-.262-1.733-.682-3.171-1.294-4.813l-.418-1.197c-1.735-4.709-3.771-7.877-8.3-10.219-2.439-1.032-4.719-1.055-7.344-1.037l-1.209.002a2234.332 2234.332 0 0 1-6.399.023c-2.112.006-4.224.015-6.336.025l-.006.927c-.054 7.431-.11 14.862-.169 22.293-.029 3.594-.056 7.187-.082 10.781-.024 3.465-.052 6.93-.08 10.394a1756.65 1756.65 0 0 0-.029 3.976c-.013 1.849-.028 3.698-.045 5.547l-.009 1.678-.015 1.517-.01 1.327c-.072.992-.072.992-.589 1.509a32.28 32.28 0 0 1-2.2.065l-1.438.005-1.589-.003-1.665.002c-1.825.003-3.651.001-5.476-.001l-3.787.002c-2.65.001-5.299-.001-7.949-.003-3.404-.003-6.809-.001-10.214.002-2.608.002-5.215.001-7.823 0-1.256-.001-2.512 0-3.768.001-1.751.001-3.503-.001-5.255-.003l-1.59.003-1.437-.005h-1.257c-.943-.065-.943-.065-1.46-.582a52.683 52.683 0 0 1-.065-2.839l-.004-1.878.003-2.091-.002-2.2c-.002-2.025-.001-4.05 0-6.074.001-2.18 0-4.36-.002-6.54-.002-4.274-.002-8.549 0-12.823l.001-10.416-.001-1.495v-3.005c-.002-9.405 0-18.81.003-28.215.002-8.079.002-16.158-.001-24.237-.002-9.37-.003-18.74-.002-28.11l.001-2.994V47.65c0-3.47 0-6.94-.002-10.41-.001-4.226-.001-8.452.002-12.678.001-2.158.002-4.317 0-6.475-.001-1.973-.001-3.945.002-5.917.001-.717.001-1.434-.001-2.15-.001-.969.001-1.937.003-2.905V5.48c.119-2.215 1.214-1.781 3.166-1.79Zm54.324 45.547a61.597 61.597 0 0 0-.067 3.04l-.005 1.97.003 2.145-.001 2.183c-.001 1.528 0 3.055.003 4.583.003 1.962.001 3.924-.002 5.886-.002 1.504-.002 3.008 0 4.512 0 .723 0 1.447-.002 2.17-.001 1.01.002 2.02.004 3.03l.001 1.745c-.081 1.263-.081 1.263.583 1.811 1.376.072 2.738.11 4.115.123l1.272.013a773.5 773.5 0 0 0 2.682.017c1.346.008 2.691.031 4.036.054 7.363.07 14.191-.778 19.74-6.154 3.475-3.923 4.153-8.128 3.852-13.174-.432-4.567-2.118-7.227-5.27-10.466-4.835-3.004-10.684-4.179-16.313-4.124h-1.229a438.9 438.9 0 0 0-2.54.013c-1.302.01-2.604.01-3.906.01l-2.478.01-1.182.001c-1.799-.145-1.799-.145-3.296.602Z"/><path fill="#020202" d="M1097.63.007c1.53.005 3.05 0 4.58-.007 8.41-.007 16.07.698 24.14 3.242l1.66.466c12.76 3.653 23.4 10.662 33.01 19.69.3.276.61.553.92.839 7.29 6.887 12.72 15.872 16.67 25l1.35 2.843c1.41 3.099 2.37 6.292 3.3 9.56.21.693.21.693.42 1.4 2.79 9.633 3.3 19.122 3.3 29.09 0 1.602.01 3.204.02 4.806.02 8.599-.53 16.808-2.64 25.169-.13.531-.25 1.062-.38 1.609-.83 3.392-1.95 6.545-3.31 9.761-.4 1.098-.79 2.196-1.19 3.295-1.12 2.92-2.52 5.53-4.14 8.196a67.21 67.21 0 0 0-2.1 3.754c-3.07 5.532-7.37 10.178-11.71 14.729-.36.398-.73.796-1.1 1.205-4.96 5.232-11.04 9.613-17.52 12.749-.72.369-1.45.738-2.17 1.108-12.78 6.407-25.97 8.808-40.19 8.807-1.25.001-2.51.01-3.76.02-4.91.018-9.57-.288-14.41-1.15l-1.15-.188c-7.78-1.316-15.18-3.507-22.21-7.082-.96-.482-1.91-.948-2.87-1.414-8.95-4.45-17.1-10.993-23.44-18.706-.46-.534-.46-.534-.94-1.078-15.03-17.776-20.52-41.157-20.43-63.91v-1.442c.03-7.067.24-13.971 1.72-20.909.09-.464.19-.93.29-1.408 1.13-5.308 2.43-10.565 4.36-15.646.19-.494.37-.987.56-1.496 1.42-3.617 3.21-6.927 5.19-10.265.77-1.33 1.5-2.665 2.21-4.034 2.89-5.223 7.1-9.866 11.18-14.18.41-.43.81-.86 1.23-1.303 6.77-7.017 15.15-12.496 24.12-16.267.6-.26 1.19-.52 1.8-.788a84.193 84.193 0 0 1 10.88-3.734c.37-.103.75-.206 1.13-.311 7.16-1.837 14.28-2.052 21.62-2.02Zm-20.03 56.38c-10.46 12.882-12.01 31.052-10.48 46.995 1.36 12.047 5.01 22.632 14.14 30.961 5.28 4.152 11.41 4.91 17.87 4.914l1.74.019c3.02.005 5.57-.124 8.41-1.15l1.94-.614c7.19-2.798 12.24-8.156 15.41-15.067 3.13-7.264 4.46-14.749 4.47-22.632v-1.319c0-.915.01-1.83.01-2.745 0-1.377.01-2.753.02-4.13.04-12.759-2.13-25.547-10.47-35.664-6.34-6.168-13.95-8.446-22.65-8.347-7.96.376-14.84 2.92-20.41 8.78Z"/><path fill="#030303" d="m67.742.055 1.724-.006c1.198-.002 2.397-.003 3.596-.003 1.806-.002 3.612-.01 5.418-.02C87.864 0 96.578.678 105.635 3.241l1.032.28c14.189 3.879 26.777 12.43 34.588 25.04a98.827 98.827 0 0 1 2.146 4.138l.687 1.263c1.821 3.407 2.955 6.904 3.969 10.623l.455 1.613c1.183 4.574 1.593 9.176 1.615 13.89-.518.518-.518.518-1.438.581l-1.224-.001-1.4.002-1.548-.006h-1.622c-1.777 0-3.555-.004-5.332-.008a8515.568 8515.568 0 0 1-13.41-.015c-3.305-.005-6.609-.008-9.914-.01-6.489-.006-12.979-.014-19.468-.025-.25-.744-.498-1.487-.746-2.23l-.42-1.254c-.297-.898-.583-1.8-.863-2.702-1.489-4.545-3.856-8.475-8.13-10.87-6.282-2.646-12.43-2.727-18.812-.516-2.298 1.124-4.169 2.7-5.35 5.02-.948 3.283-1.059 7.022.514 10.079 4.138 4.903 12.357 6.429 18.287 8.157l2.2.659c3.07.915 6.147 1.802 9.232 2.666 15.391 4.322 15.391 4.322 21.073 7.023 1.384.623 2.799 1.12 4.226 1.636 12.274 4.683 25.131 12.924 31.558 24.709.951 2.21 1.776 4.454 2.587 6.718l.537 1.284c4.398 11.501 3.216 26.967-1.249 38.284a93.027 93.027 0 0 1-1.358 2.81l-.673 1.382c-7.244 14.087-19.704 23.399-34.506 28.592-11.743 3.753-23.141 5.265-35.414 5.264-1.47.001-2.942.01-4.412.02-5.458.017-10.657-.294-16.047-1.15a501.807 501.807 0 0 0-3.46-.387c-3.128-.449-6.096-1.233-9.118-2.132l-1.292-.383c-2.898-.895-5.63-2.015-8.376-3.299l-1.576-.717c-13.797-6.632-24.38-18.052-29.541-32.467-2.297-7.125-3.995-14.591-3.545-22.114.517-.516.517-.516 1.486-.58l1.293.001 1.48-.002 1.636.006h1.713c1.878 0 3.756.004 5.635.008l3.895.002c3.074.002 6.149.006 9.223.011 3.843.007 7.685.01 11.527.012 6.858.006 13.715.015 20.572.026.908 1.712 1.242 3.109 1.487 5.038.868 5.383 3.353 8.782 7.308 12.533 5.165 3.371 11.39 3.915 17.395 2.713 3.817-.991 7.545-2.07 10.024-5.297 1.633-2.869 2.076-5.551 1.552-8.786-1.303-3.552-3.98-5.528-7.243-7.235-6.986-3.192-14.961-4.772-22.375-6.686-12.4-3.207-24.215-6.436-35.567-12.435l-1.39-.729c-4.905-2.645-9.045-5.784-13.096-9.607l-1.217-1.097C10.383 87.86 7.446 82.09 5.27 75.594l-.464-1.371c-1.773-5.55-2.303-10.975-2.286-16.771.002-1.1-.01-2.2-.023-3.3-.033-6.716.911-13.069 3.679-19.256l.55-1.26c5.839-13.045 16.7-22.394 29.858-27.654l1.796-.673 1.813-.688C49.098 1.445 58.311.065 67.742.055Z"/><path fill="#020202" d="M239.627 4.276h64.151c1.744 3.484 1.744 3.484 2.354 5.372l.438 1.335.473 1.465a983.772 983.772 0 0 0 4.234 12.625l.482 1.406c.645 1.878 1.29 3.756 1.937 5.633 1.625 4.72 3.237 9.435 4.657 14.222.415 1.313.898 2.57 1.43 3.84.931 2.235 1.656 4.502 2.36 6.815.695 2.28 1.405 4.517 2.328 6.718 1.071 2.552 1.857 5.17 2.662 7.814.586 1.904 1.216 3.757 1.994 5.59 1.118 2.662 1.871 5.407 2.662 8.177a61.411 61.411 0 0 0 2.496 7.023c.829 2.13 1.475 4.318 2.124 6.508a57.62 57.62 0 0 0 1.934 5.443c1.357 3.331 2.461 6.746 3.585 10.161.683 2.075 1.372 4.148 2.061 6.221l.428 1.289c1.409 4.233 2.852 8.454 4.305 12.672l.758 2.203 1.567 4.553c1.418 4.118 2.832 8.236 4.244 12.355l.946 2.757c1.582 4.6 3.143 9.197 4.527 13.861.573 1.809 1.289 3.543 2.017 5.294.82 2.099 1.434 4.258 2.043 6.426-.517.517-.517.517-1.478.58l-1.281-.001-1.467.002-1.621-.006-1.698.001a4969.11 4969.11 0 0 0-9.445-.011 9284.23 9284.23 0 0 1-9.141-.011c-3.808-.006-7.616-.009-11.424-.012-6.796-.006-13.591-.014-20.387-.025-.337-.745-.672-1.491-1.006-2.237l-.566-1.258a22.01 22.01 0 0 1-1.229-3.763l-.32-1.325-.307-1.333c-.655-2.772-1.341-5.475-2.263-8.172a332.438 332.438 0 0 1-1.293-4.921c-.493-1.89-1.08-3.589-1.811-5.415h-55.356l-3.621 12.92a542.874 542.874 0 0 1-1.94 6.524l-.435 1.45-.43 1.413-.366 1.202c-.581 1.671-1.305 3.289-2.003 4.915h-55.873c0-2.032.59-3.819 1.164-5.75l.358-1.212c.708-2.346 1.533-4.529 2.601-6.735.902-2.182 1.5-4.46 2.124-6.735.687-2.461 1.56-4.79 2.53-7.153.93-2.355 1.693-4.764 2.475-7.17a347.666 347.666 0 0 1 4.204-12.08c1.669-4.513 3.212-9.062 4.721-13.631a440.72 440.72 0 0 1 5.221-14.981c1.495-4.055 2.863-8.149 4.2-12.258a122.738 122.738 0 0 1 3.039-8.248c.688-1.752 1.232-3.536 1.767-5.34a81.673 81.673 0 0 1 2.829-7.913c.697-1.816 1.26-3.663 1.827-5.523.823-2.702 1.736-5.307 2.829-7.914.697-1.816 1.26-3.663 1.827-5.523.823-2.702 1.736-5.307 2.829-7.913.697-1.816 1.26-3.664 1.827-5.524.823-2.701 1.736-5.307 2.829-7.913.698-1.816 1.26-3.663 1.827-5.523.815-2.673 1.713-5.267 2.795-7.843.934-2.4 1.709-4.855 2.491-7.309.919-2.83 2.024-5.349 3.25-8.104Zm30.523 53.747c-1.218 3.543-2.269 7.112-3.265 10.723l-.962 3.456-.482 1.732c-.673 2.408-1.359 4.812-2.048 7.215l-.382 1.331-.759 2.643a5462.13 5462.13 0 0 0-1.153 4.029l-.39 1.362-.768 2.694a741.526 741.526 0 0 1-2.076 7.15l-.443 1.512c-.283.962-.568 1.924-.857 2.884l-.381 1.304-.342 1.153c-.284.987-.284.987.34 1.975h28.971c-.695-3.821-1.447-7.296-2.619-10.95-1.546-4.94-2.978-9.905-4.365-14.89-1.521-5.465-3.09-10.91-4.808-16.316-.931-2.973-1.623-5.941-2.176-9.007h-1.035Z"/><path fill="#050505" d="M784.907 241.486h1.552l.868 1.781a3303.036 3303.036 0 0 0 18.06 36.546l.886 1.766c2.7 5.374 5.402 10.748 8.108 16.119 1.506 2.989 3.008 5.979 4.509 8.971.564 1.123 1.13 2.246 1.697 3.368.781 1.547 1.557 3.095 2.334 4.643l.699 1.379.636 1.275.553 1.098c.502 1.213.749 2.383.968 3.674 1.361-.68 1.503-1.314 2.14-2.685l.66-1.404.716-1.545c.517-1.097 1.035-2.194 1.555-3.291l.823-1.739a497.72 497.72 0 0 1 4.119-8.357l.864-1.724c.594-1.186 1.19-2.372 1.785-3.557l2.854-5.689c2.016-4.022 4.033-8.043 6.051-12.064 2.186-4.356 4.372-8.712 6.556-13.07l2.366-4.717c.881-1.752 1.76-3.506 2.639-5.259l.825-1.644a238.798 238.798 0 0 0 3.539-7.334l.577-1.258c.344-.757.683-1.515 1.015-2.277.384-.849.822-1.673 1.269-2.49l1.552-.516c1.623 6.272 3.035 12.578 4.386 18.914l.671 3.13c.602 2.808 1.202 5.616 1.802 8.424l1.508 7.051a32863.67 32863.67 0 0 1 3.556 16.631c1.22 5.712 2.442 11.423 3.665 17.134 1.054 4.917 2.105 9.834 3.156 14.75.626 2.932 1.253 5.863 1.881 8.794.59 2.752 1.178 5.504 1.765 8.257l.647 3.025c.296 1.378.59 2.756.883 4.135l.26 1.202c.521 2.465.936 4.906 1.17 7.416-.517.517-.517.517-2.381.575-.829 0-1.658-.003-2.487-.008l-1.32-.002c-1.397-.003-2.794-.01-4.191-.016a4035.576 4035.576 0 0 1-9.797-.032c-1.208-3.351-2.06-6.697-2.773-10.184l-.338-1.613c-.363-1.745-.723-3.491-1.083-5.237l-.759-3.654c-.528-2.544-1.054-5.089-1.579-7.634-.674-3.266-1.352-6.531-2.031-9.796-.521-2.511-1.042-5.022-1.561-7.533l-.75-3.614c-.348-1.678-.694-3.357-1.04-5.036l-.315-1.513-.283-1.383-.249-1.202c-.173-1.033-.173-1.033-.173-2.583h-1.035l-.436 1.38a36.549 36.549 0 0 1-1.901 4.448l-.796 1.594-.868 1.723-.918 1.835c-.828 1.653-1.658 3.305-2.488 4.958-.869 1.729-1.735 3.459-2.602 5.189-1.64 3.273-3.282 6.546-4.925 9.817-1.871 3.726-3.739 7.454-5.607 11.181-3.842 7.665-7.687 15.329-11.534 22.991-1.552-.517-1.552-.517-2.241-1.58l-.709-1.428-.819-1.634-.887-1.808-.944-1.892c-.678-1.359-1.353-2.72-2.025-4.082-1.062-2.151-2.131-4.3-3.202-6.448a5708.479 5708.479 0 0 1-5.64-11.357c-2.827-5.703-5.659-11.404-8.497-17.103a2548.96 2548.96 0 0 1-3.183-6.416c-.658-1.329-1.318-2.657-1.979-3.984-.454-.913-.904-1.828-1.354-2.742l-.816-1.634-.707-1.429c-.538-1.137-.538-1.137-1.659-1.579l-.075.935c-.295 3.317-.84 6.52-1.53 9.776l-.331 1.598c-.359 1.727-.722 3.453-1.085 5.179l-.756 3.616a6318.23 6318.23 0 0 1-1.585 7.552c-.68 3.229-1.354 6.46-2.027 9.69a3792.84 3792.84 0 0 1-1.562 7.455c-.25 1.191-.499 2.383-.747 3.575-.345 1.661-.696 3.32-1.047 4.98l-.309 1.496-.292 1.368-.249 1.187c-.304 1.024-.304 1.024-1.339 2.575a37.253 37.253 0 0 1-4.288.151l-1.283-.007c-1.355-.008-2.709-.028-4.064-.047l-2.753-.022a1085.99 1085.99 0 0 1-6.753-.075c-.092-2.744.237-5.233.827-7.917l.269-1.269c.298-1.397.602-2.793.905-4.19l.645-3.013c.583-2.728 1.171-5.454 1.76-8.18.618-2.864 1.232-5.729 1.847-8.593 1.166-5.437 2.337-10.873 3.508-16.309 1.323-6.14 2.642-12.28 3.961-18.421 8.094-37.692 8.094-37.692 11.11-51.488Z"/><path fill="#040404" d="m352.408 246.137 1.91.514c7.734 2.329 14.633 6.257 20.853 11.372l1.215.957c10.968 9.083 18.023 23.769 19.479 37.803.968 18.571-3.643 34.092-16.167 48.127-10.388 11.263-25.424 17.378-40.616 18.009-15.237.338-29.208-4.225-40.995-13.94l-1.017-.779c-2.862-2.269-5.027-5.141-7.261-8.006l-1.053-1.286c-10.026-12.804-12.271-29.456-10.69-45.225.4-2.661 1.074-5.2 1.914-7.753l.327-1.046c2.708-8.489 7.066-15.706 13.124-22.21l1.275-1.401c7.209-7.586 16.678-12.326 26.661-15.136l1.684-.501c9.209-2.303 20.213-2.037 29.357.501Zm-44.492 31.008c-7.652 9.406-9.833 20.72-8.794 32.558.406 2.85 1.158 5.536 2.069 8.268l.434 1.418c1.361 3.921 3.827 7.178 6.291 10.469l.853 1.183c5.059 6.438 14.491 10.688 22.428 11.737 10.881.846 21.347-1.1 29.931-8.275 8.271-7.66 13.033-17.044 13.631-28.335.204-10.596-2.035-20.182-8.9-28.507l-.93-1.219c-5.689-7.044-15.063-11.234-23.903-12.217-12.682-1.014-24.666 3.183-33.11 12.92Z"/><path fill="#050505" d="M1067.38 240.969c1.89.884 3.07 1.943 4.52 3.456 1.53 1.561 3.06 3.077 4.72 4.489 1.84 1.571 3.54 3.256 5.24 4.975 1.68 1.697 3.35 3.363 5.18 4.909 2.11 1.797 4.04 3.764 5.99 5.735 1.41 1.419 2.83 2.789 4.35 4.084 1.82 1.547 3.5 3.212 5.18 4.91 1.66 1.687 3.33 3.343 5.14 4.877 2.24 1.906 4.28 4.008 6.35 6.1a86.79 86.79 0 0 0 5.53 5.11c1.74 1.557 3.36 3.234 5 4.894 1.41 1.419 2.83 2.788 4.36 4.084 2.12 1.796 4.04 3.763 5.99 5.735a83.809 83.809 0 0 0 5.32 4.899c1.78 1.597 3.44 3.316 5.09 5.038 1.5 1.533 2.96 2.645 4.81 3.707v-1.104l-.03-26.563c0-4.282 0-8.563-.01-12.845 0-3.731-.01-7.462-.01-11.192v-5.93c-.01-1.858-.01-3.717-.01-5.575v-6.422c.06-1.17.06-1.17.58-1.686 1.45-.053 2.88-.073 4.33-.069l1.32-.002 2.76.003c1.41.003 2.83 0 4.24-.003l2.68.002 1.29-.003c2.98.012 2.98.012 3.56.588.05 1.516.06 3.02.06 4.536v1.459c0 1.627 0 3.254-.01 4.88v12.971c-.01 3.301-.01 6.602-.01 9.903 0 5.544 0 11.088-.01 16.633 0 5.711 0 11.423-.01 17.134v6.361c0 14.651-.01 29.302-.02 43.953-1.56 0-1.56 0-2.92-1.229-.53-.545-1.06-1.094-1.58-1.646a248.48 248.48 0 0 0-1.69-1.732l-.82-.844c-.9-.891-1.83-1.716-2.79-2.527-2.25-1.906-4.29-4.008-6.36-6.099a86.514 86.514 0 0 0-5.53-5.111c-1.74-1.557-3.36-3.234-5-4.894-1.41-1.419-2.83-2.788-4.36-4.083-2.11-1.797-4.04-3.764-5.99-5.736-1.4-1.419-2.83-2.788-4.35-4.084-1.82-1.546-3.5-3.212-5.18-4.909-1.66-1.687-3.32-3.343-5.14-4.877-2.24-1.907-4.28-4.008-6.35-6.1a86.499 86.499 0 0 0-5.53-5.11c-1.74-1.557-3.36-3.234-5-4.894a83.777 83.777 0 0 0-5.32-4.897c-1.8-1.612-3.47-3.348-5.14-5.086-1.34-1.371-2.51-2.348-4.25-3.145v1.129c.02 9.048.02 18.097.03 27.145 0 4.376.01 8.751.01 13.127.01 3.812.01 7.625.01 11.437 0 2.02 0 4.04.01 6.06v5.697c0 1.034 0 2.067.01 3.101V359.155c-.07 1.194-.07 1.194-.58 1.711-1.42.052-2.81.072-4.22.068l-1.29.002c-.89 0-1.79-.001-2.68-.003-1.38-.003-2.76 0-4.13.003l-2.61-.002-1.25.003c-2.91-.012-2.91-.012-3.48-.588a140.8 140.8 0 0 1-.07-4.594v-1.479c0-1.648.01-3.296.01-4.945V336.19c.01-3.344.01-6.689.01-10.033 0-5.618 0-11.235.01-16.852 0-5.787.01-11.573.01-17.36V285.5l.03-44.531Z"/><path fill="#020202" d="M414.489 240.969c1.607.766 2.691 1.536 3.937 2.816l1.055 1.071 1.087 1.119c2.402 2.461 4.832 4.824 7.441 7.065 1.425 1.252 2.746 2.593 4.07 3.949 1.677 1.699 3.352 3.364 5.173 4.91 2.116 1.796 4.041 3.764 5.99 5.735 1.41 1.419 2.831 2.788 4.357 4.084 1.822 1.547 3.495 3.212 5.174 4.91 1.667 1.686 3.329 3.343 5.141 4.877 2.246 1.906 4.284 4.008 6.354 6.099a87.327 87.327 0 0 0 5.53 5.111c1.741 1.557 3.361 3.234 5.002 4.894 1.41 1.418 2.831 2.788 4.357 4.083 2.115 1.796 4.038 3.762 5.987 5.732a86.06 86.06 0 0 0 5.421 5.002c1.642 1.456 3.16 3.033 4.69 4.605.911.973.911.973 2.009 1.457l-.001-1.112c-.012-8.919-.02-17.838-.026-26.757-.002-4.313-.006-8.626-.012-12.939-.005-3.758-.008-7.516-.01-11.274 0-1.991-.002-3.982-.006-5.973a2628.29 2628.29 0 0 1-.003-5.616c-.001-1.019-.003-2.038-.006-3.056l.002-1.821-.002-1.592c.064-1.178.064-1.178.581-1.694 1.411-.053 2.809-.073 4.22-.069l1.282-.002c.896 0 1.791.001 2.687.003 1.376.003 2.753 0 4.129-.003l2.605.002 1.255-.003c2.905.012 2.905.012 3.482.588.05 1.516.067 3.02.062 4.536l.001 1.459c.001 1.627-.002 3.254-.005 4.88v3.483c.001 3.163-.002 6.325-.006 9.488a46121.947 46121.947 0 0 1-.013 26.536c-.005 5.711-.009 11.423-.011 17.134l-.001 1.066-.001 5.295c-.006 14.651-.015 29.302-.026 43.953-1.475-.711-2.593-1.411-3.788-2.536l-.96-.899-1.008-.958-1.045-.983a291.463 291.463 0 0 1-7.073-6.948 58.42 58.42 0 0 0-3.134-2.857c-1.841-1.571-3.538-3.255-5.238-4.974-1.679-1.698-3.352-3.363-5.174-4.91-2.115-1.796-4.04-3.763-5.99-5.735-1.409-1.419-2.831-2.788-4.357-4.084-1.821-1.546-3.494-3.212-5.173-4.909-1.668-1.687-3.329-3.343-5.141-4.878-2.246-1.906-4.284-4.007-6.354-6.099a87.641 87.641 0 0 0-5.531-5.111c-1.741-1.557-3.36-3.233-5.002-4.893a84.216 84.216 0 0 0-5.331-4.91c-1.694-1.521-3.277-3.156-4.852-4.8-1.617-1.655-3.331-3.116-5.145-4.554l-1.408-1.118-1.071-.847.001 1.129c.011 9.048.02 18.097.025 27.145.003 4.376.007 8.751.013 13.127.005 3.812.008 7.625.009 11.437.001 2.02.002 4.04.006 6.06.004 1.899.005 3.798.004 5.697 0 1.034.003 2.067.006 3.101l-.002 1.847.001 1.615c-.063 1.194-.063 1.194-.581 1.711-1.411.052-2.808.072-4.219.068l-1.282.002-2.688-.003c-1.376-.003-2.752 0-4.128.003l-2.605-.002-1.256.003c-2.904-.012-2.904-.012-3.481-.588a125.7 125.7 0 0 1-.062-4.594l-.001-1.479c-.001-1.648.002-3.296.004-4.945v-3.528c0-3.204.003-6.409.007-9.613.003-3.344.003-6.689.004-10.033.001-5.618.005-11.235.009-16.852.005-5.787.009-11.573.011-17.36v-1.08l.002-5.365c.005-14.843.015-29.687.026-44.531Z"/><path fill="#040404" d="m546.685 246.57 1.072-.008a833.1 833.1 0 0 1 3.535-.013l2.471-.009c1.736-.006 3.472-.009 5.208-.011 2.197-.002 4.395-.015 6.593-.03 1.707-.009 3.415-.012 5.122-.013.809-.001 1.617-.005 2.425-.012 7.441-.059 14.965.615 22.028 3.119l1.152.399c13.936 5.024 25.307 15.563 31.606 28.947a82.552 82.552 0 0 1 3.359 9.575l.503 1.704c3.495 14.092.964 29.907-6.129 42.482-7.9 13.031-20.51 22.693-35.382 26.346-3.347.727-6.662 1.11-10.076 1.363l-1.753.132c-6.4.438-12.795.463-19.208.431-2.011-.01-4.021-.011-6.032-.01l-3.843-.01-1.819-.001-1.657-.01-1.461-.006c-1.091-.069-1.091-.069-1.609-.586a115.016 115.016 0 0 1-.065-4.356l-.003-1.4c-.002-1.562 0-3.123.001-4.684l-.002-3.343c-.003-3.035-.002-6.071 0-9.107.001-3.169 0-6.338-.001-9.507-.001-5.323 0-10.646.003-15.969.003-6.164.002-12.328-.001-18.492-.002-5.281-.003-10.563-.001-15.844 0-3.159.001-6.319-.001-9.478-.002-2.969-.001-5.938.002-8.907v-3.28c-.002-1.485 0-2.971.003-4.456l-.004-1.329c.013-3.724.311-3.607 3.964-3.627Zm16.799 19.722c-.051.96-.065 1.922-.066 2.884l-.004 1.897.003 2.101c-.001.732-.001 1.465-.003 2.197-.002 1.994-.001 3.989.001 5.983.001 2.083 0 4.166-.001 6.249-.001 3.498 0 6.996.003 10.494.002 4.051.002 8.101-.001 12.151-.003 3.471-.003 6.943-.002 10.414v6.228c-.002 1.951-.001 3.902.002 5.853.001.718.001 1.437-.001 2.155-.001.976.001 1.952.003 2.929l.001 1.659c-.073 1.202-.073 1.202.582 1.741 13.463.921 25.445-.817 36.053-9.69 6.913-6.399 11.266-15.727 11.666-25.141.234-10.358-1.975-20.21-9.209-28.024a105.29 105.29 0 0 0-2.813-2.778l-.968-.961c-2.451-2.278-5.358-3.772-8.344-5.24l-1.207-.6c-4.747-2.125-21.677-6.514-25.695-2.501Z"/><path fill="#050505" d="M952.526 240.969c1.592 1.452 2.517 2.748 3.398 4.707l.745 1.635.805 1.797a1402.9 1402.9 0 0 0 2.289 5.011c1.871 4.091 3.809 8.15 5.746 12.21 1.059 2.218 2.116 4.438 3.172 6.657l.633 1.328a3416.299 3416.299 0 0 1 6.581 13.924l2.524 5.365c1.541 3.277 3.085 6.554 4.629 9.83l2.59 5.499.518 1.098 3.088 6.558c3.593 7.63 7.188 15.257 10.796 22.881l1.68 3.578c1.54 3.257 3.08 6.512 4.66 9.748.34.696.34.696.69 1.407l1.2 2.433c1.22 2.508 1.22 2.508.65 4.231-2.98.102-5.95.177-8.923.227-1.012.02-2.023.049-3.034.085-1.455.05-2.909.073-4.365.091l-1.365.065c-3.053.002-3.053.002-4.333-1.268-.699-1.081-1.248-2.163-1.781-3.335l-.53-1.046a104.053 104.053 0 0 1-1.515-3.183l-.542-1.16c-.563-1.207-1.122-2.414-1.681-3.622-.567-1.221-1.134-2.441-1.703-3.661-.352-.755-.703-1.511-1.052-2.267-.705-1.692-.705-1.692-1.772-3.149-1.48-.049-2.947-.065-4.428-.058l-1.407-.001c-1.542.001-3.084.005-4.627.009l-3.199.002c-2.813.002-5.625.007-8.438.013-2.867.005-5.735.008-8.603.01-5.631.006-11.262.014-16.893.025l-.663 1.373-2.482 5.131-1.066 2.204-1.549 3.203-.466.965c-1.516 3.131-3.081 6.234-4.639 9.347h-20.693c-.653-1.956-.293-2.351.576-4.177l.778-1.656.877-1.822.909-1.924a1145.37 1145.37 0 0 1 1.995-4.194c1.107-2.317 2.206-4.637 3.304-6.958a6921.01 6921.01 0 0 1 4.128-8.706c2.385-5.02 4.758-10.044 7.124-15.073 2.829-6.01 5.664-12.018 8.504-18.023a11759.5 11759.5 0 0 0 9.591-20.325l1.023-2.172.51-1.085c1.235-2.621 2.472-5.242 3.709-7.862l2.142-4.538.523-1.106a1146.836 1146.836 0 0 0 7.498-16.199l.643-1.415.554-1.227c.45-.918.45-.918.967-1.435Zm-.517 45.478c-2.999 5.851-5.759 11.78-8.407 17.797l-1.087 2.458c-.683 1.542-1.363 3.086-2.042 4.63a320.988 320.988 0 0 1-2.165 4.784c-.885 1.758-.885 1.758-.785 3.406h30.006c-.475-2.373-1.209-4.327-2.196-6.507l-.513-1.148a938.278 938.278 0 0 0-1.656-3.682l-1.134-2.525c-.565-1.26-1.131-2.518-1.699-3.777a765.225 765.225 0 0 1-3.241-7.289l-1.363-3.076-.61-1.41-.564-1.261-.472-1.076c-.516-.986-.516-.986-2.072-1.324ZM654.365 246.588l1.583-.005 1.751.004 1.833-.003c1.663-.002 3.326-.002 4.989 0 1.737.001 3.474 0 5.211-.001 2.918-.001 5.835.001 8.752.003 3.378.003 6.755.002 10.133-.001 2.895-.002 5.79-.002 8.685-.001 1.731.001 3.462.001 5.193-.001 1.929-.001 3.858.001 5.787.004l1.751-.004 1.582.005h1.384c1.032.066 1.032.066 1.549.582.053 1.335.073 2.655.069 3.989l.002 1.211c0 .846-.001 1.693-.003 2.539-.003 1.3 0 2.599.003 3.899l-.002 2.461.003 1.186c-.012 2.744-.012 2.744-.589 3.32-1.29.065-2.567.096-3.858.106l-1.223.016c-1.341.016-2.682.029-4.023.042l-2.782.032c-2.445.029-4.89.054-7.335.079-2.931.031-5.863.065-8.794.098-4.457.051-8.915.097-13.372.144v24.289l8.922.095 5.58.064c2.956.034 5.911.068 8.867.098 2.382.025 4.763.052 7.145.081l2.732.029c1.271.012 2.542.028 3.813.044l1.153.009c2.599.038 2.599.038 3.175.614a96.46 96.46 0 0 1 .069 3.989l.001 1.211c.001.846 0 1.692-.002 2.538-.003 1.3-.001 2.6.003 3.9l-.002 2.461.003 1.186c-.012 2.743-.012 2.743-.589 3.32a89.72 89.72 0 0 1-3.811.106l-1.208.015c-1.324.017-2.648.029-3.972.042l-2.747.033c-2.414.028-4.829.054-7.244.079-2.894.03-5.789.064-8.683.098-4.402.051-8.804.097-13.205.143v29.975l9.035.094 5.651.064c2.993.034 5.986.068 8.979.099 2.412.024 4.824.051 7.236.08.922.011 1.844.02 2.767.029 1.287.012 2.574.028 3.861.044l1.167.009c2.632.038 2.632.038 3.208.614.053 1.372.073 2.73.069 4.102l.002 1.246-.003 2.612c-.003 1.337 0 2.674.003 4.011l-.002 2.532.003 1.22c-.012 2.822-.012 2.822-.589 3.399-.804.05-1.61.065-2.416.065l-1.582.005-1.751-.003-1.833.002c-1.663.002-3.326.002-4.989 0-1.737-.001-3.474 0-5.211.001-2.918.001-5.835-.001-8.753-.003-3.377-.003-6.754-.002-10.132.001-2.895.002-5.79.003-8.685.001-1.731-.001-3.462-.001-5.193.001-1.929.001-3.858-.001-5.787-.003l-1.751.003-1.583-.005h-1.383c-1.032-.065-1.032-.065-1.55-.582a115.016 115.016 0 0 1-.065-4.356l-.003-1.4c-.002-1.562 0-3.123.002-4.684l-.003-3.343c-.003-3.035-.002-6.071 0-9.107.001-3.169 0-6.338-.001-9.507-.001-5.323.001-10.646.003-15.969.003-6.164.002-12.328-.001-18.491-.002-5.282-.003-10.564-.001-15.845.001-3.159.001-6.319-.001-9.478-.001-2.969 0-5.938.003-8.907l-.001-3.28c-.002-1.485 0-2.971.003-4.456l-.004-1.329c.013-3.608.013-3.608 3.002-3.609ZM105.981 246.588l1.583-.005 1.751.004 1.833-.003c1.663-.002 3.326-.002 4.989 0a8510.836 8510.836 0 0 1 13.963.002c3.378.003 6.755.002 10.133-.001 2.895-.002 5.789-.002 8.684-.001 1.732.001 3.463.001 5.194-.001 1.929-.001 3.858.001 5.787.004l1.751-.004 1.582.005h1.384c1.032.066 1.032.066 1.549.582.052 1.335.073 2.655.069 3.989l.001 1.211c.001.846 0 1.693-.002 2.539-.003 1.3 0 2.599.003 3.899l-.002 2.461.003 1.186c-.012 2.744-.012 2.744-.589 3.32-1.29.065-2.567.096-3.858.106l-1.224.016c-1.34.016-2.681.029-4.022.042l-2.782.032c-2.445.029-4.89.054-7.335.079-2.932.031-5.863.065-8.794.098-4.457.051-8.915.097-13.373.144v24.289l8.923.095 5.58.064c2.956.034 5.911.068 8.867.098 2.382.025 4.763.052 7.145.081l2.732.029c1.271.012 2.542.028 3.813.044l1.153.009c2.599.038 2.599.038 3.175.614a96.46 96.46 0 0 1 .069 3.989l.001 1.211c0 .846 0 1.692-.003 2.538-.002 1.3 0 2.6.004 3.9l-.002 2.461.003 1.186c-.013 2.743-.013 2.743-.589 3.32a89.767 89.767 0 0 1-3.811.106l-1.208.015c-1.324.017-2.648.029-3.972.042l-2.747.033c-2.415.028-4.829.054-7.244.079-2.894.03-5.789.064-8.683.098-4.402.051-8.804.097-13.206.143v29.975l9.036.094 5.651.064c2.993.034 5.986.068 8.979.099 2.412.024 4.824.051 7.236.08.922.011 1.844.02 2.766.029 1.288.012 2.575.028 3.862.044l1.167.009c2.632.038 2.632.038 3.208.614.053 1.372.073 2.73.069 4.102l.001 1.246c.001.87 0 1.741-.002 2.612-.003 1.337 0 2.674.003 4.011l-.002 2.532.003 1.22c-.012 2.822-.012 2.822-.589 3.399-.804.05-1.61.065-2.416.065l-1.582.005-1.751-.003-1.833.002c-1.663.002-3.326.002-4.989 0-1.737-.001-3.474 0-5.211.001-2.918.001-5.835-.001-8.753-.003-3.377-.003-6.755-.002-10.132.001-2.895.002-5.79.003-8.685.001-1.731-.001-3.462-.001-5.193.001-1.929.001-3.858-.001-5.787-.003l-1.751.003-1.583-.005h-1.384c-1.031-.065-1.031-.065-1.549-.582a115.016 115.016 0 0 1-.065-4.356l-.003-1.4c-.002-1.562 0-3.123.001-4.684l-.002-3.343c-.003-3.035-.002-6.071 0-9.107.001-3.169 0-6.338-.001-9.507-.001-5.323 0-10.646.003-15.969.003-6.164.002-12.328-.001-18.491-.002-5.282-.003-10.564-.001-15.845 0-3.159.001-6.319-.001-9.478-.002-2.969-.001-5.938.002-8.907v-3.28c-.002-1.485 0-2.971.003-4.456l-.004-1.329c.012-3.608.012-3.608 3.002-3.609ZM67.28 250.764c3.862 2.973 7.322 6.414 9.384 10.877-.048 1.045-.048 1.045-.517 2.067-1.125.771-1.125.771-2.603 1.486l-1.63.799-1.717.816-1.67.815a389.555 389.555 0 0 1-4.797 2.285l-1.388.673-1.247.587-1.078.515c-.943.293-.943.293-2.495-.224l-.938-1.421c-1.606-2.384-3.238-3.862-5.917-4.942-4.406-.807-8.38-.713-12.287 1.712-2.258 2.274-3.672 4.565-3.783 7.816.05 2.751.743 4.863 2.231 7.171 2.567 2.457 5.48 3.808 8.797 4.954l1.319.478c1.379.5 2.76.991 4.144 1.48 13.312 4.719 25.43 10.409 31.96 23.72 3.818 8.269 3.812 18.119.73 26.603-4.348 10.381-11.843 17.21-22.191 21.467-11.147 4.27-23.6 2.735-34.279-1.956-4.417-2.188-7.74-5.065-11.173-8.529l-1.065-1.03c-3.77-3.907-6.583-9.602-7.213-14.991 1.432-1.43 2.986-1.5 4.91-1.831l1.165-.208c.813-.144 1.626-.286 2.44-.426 1.243-.214 2.484-.438 3.726-.663l2.37-.415 1.124-.203c3.383-.571 3.383-.571 4.959.129.736 1.166.736 1.166 1.423 2.648 2.55 4.923 6.213 7.323 11.4 9.024 4.55.85 9.904.728 14.079-1.336l1.089-.515c3.397-1.84 5.343-4.666 6.744-8.217 1.302-4.699.664-9.237-1.625-13.491-3.538-5.98-12.883-8.002-19.05-10.19-11.443-4.075-20.906-8.579-26.897-19.784-3.162-6.84-4.098-15.201-1.663-22.464 3.05-7.508 7.185-13.502 14.5-17.329l1.406-.737c12.066-5.871 26.28-4.746 37.324 2.78ZM267.564 251.821v20.672c-2.001 0-3.141-.888-4.786-1.905-9.895-5.865-21.564-7.333-32.726-4.799-9.925 2.761-18.489 8.532-23.604 17.558-1.196 2.344-2.163 4.754-3.035 7.234l-.564 1.581c-3.086 10.698-1.173 22.543 4.082 32.166 4.908 8.501 13.02 14.23 22.414 16.867.836.202 1.677.385 2.522.549l1.358.283c12.243 1.642 23.691-.973 33.821-8.035.518.517.518.517.576 2.473 0 .872-.003 1.744-.008 2.616l-.002 1.389a2962.145 2962.145 0 0 0-.023 7.388 4468.94 4468.94 0 0 1-.025 7.323c-1.305.666-2.61 1.329-3.917 1.99l-1.106.567c-3.242 1.635-6.453 2.753-9.98 3.644l-1.203.334c-15.222 3.688-31.503-.106-44.733-7.89-2.493-1.554-4.674-3.375-6.833-5.364l-1.057-.837c-11.147-8.912-16.825-23.266-18.843-36.971a58.394 58.394 0 0 1-.277-4.052l-.062-1.413c-.395-17.146 6.009-31.7 17.652-44.065l.861-.961c6.617-7.099 16.329-11.441 25.523-14.026l1.702-.501c14.124-3.503 29.747-.964 42.273 6.185ZM1025.41 246.582l1.29.003 1.32-.002 2.76.003c1.41.003 2.82 0 4.24-.003l2.67.002 1.29-.003c2.99.012 2.99.012 3.56.588.06 1.456.07 2.9.07 4.356v9.427c.01 3.036.01 6.071 0 9.107v9.507c.01 5.323 0 10.646 0 15.969v18.492c0 5.281.01 10.563 0 15.844v9.478c.01 2.969.01 5.938 0 8.907V357.322c-.01 2.968-.01 2.968-.58 3.544-1.45.052-2.89.072-4.34.068l-1.31.002-2.76-.003c-1.42-.003-2.83 0-4.24.003l-2.68-.002-1.29.003c-2.98-.012-2.98-.012-3.56-.588-.05-1.456-.07-2.899-.07-4.356v-44.01c.01-6.164 0-12.328 0-18.491V250.197c.01-3.515.11-3.601 3.63-3.615Z"/><path fill="#585858" d="m826.809 3.69 1.129.003 1.192-.002c1.328-.002 2.656 0 3.984.001l2.844-.003c2.585-.002 5.17-.001 7.755 0 2.705.002 5.41 0 8.115 0 4.55-.001 9.1 0 13.649.003 5.251.002 10.501.001 15.752-.001 4.509-.003 9.018-.003 13.527-.002h8.077c2.537-.002 5.074 0 7.611.002h2.783c7.767-.01 15.132.532 22.744 2.135.508.105 1.015.21 1.538.32 4.119.98 7.673 2.882 11.396 4.848.689.347 1.378.693 2.069 1.034-1.552.516-1.552.516-3.104 0v-1.034l-2.457-.743-1.382-.418a72.906 72.906 0 0 0-3.403-.906V7.893l-5.691-.516V6.343l-1.267-.095-1.676-.131-1.655-.127c-1.61-.164-1.61-.164-2.744-.427-1.874-.327-3.718-.333-5.614-.335l-1.258-.008c-1.394-.008-2.789-.012-4.183-.017l-3.047-.015c-2.72-.014-5.44-.025-8.16-.036-2.553-.01-5.105-.023-7.657-.035-7.465-.036-14.93-.067-22.395-.098l-50.538-.226v176.744h55.873l-.019-13.095-.007-9.23c-.003-3.991-.007-7.981-.013-11.972-.006-3.495-.009-6.989-.01-10.484l-.006-4.011c-.004-1.865-.004-3.73-.004-5.595l-.006-1.693.002-1.53-.001-1.339c.064-.999.064-.999.581-1.516 2.108-.114 4.218-.096 6.329-.096 1.051-.001 2.103-.01 3.154-.02 10.363-.016 10.363-.016 14.315 2.183v1.034l-.802-.336c-4.52-1.634-9.015-1.388-13.748-1.312l-2.547.022c-2.061.016-4.122.043-6.184.075l-.006.927c-.054 7.431-.11 14.862-.169 22.293-.029 3.594-.056 7.187-.082 10.781-.024 3.465-.052 6.93-.08 10.394a1756.65 1756.65 0 0 0-.029 3.976c-.013 1.849-.028 3.698-.045 5.547l-.009 1.678-.015 1.517-.01 1.327c-.072.992-.072.992-.589 1.509a32.28 32.28 0 0 1-2.2.065l-1.438.005-1.589-.003-1.665.002c-1.825.003-3.651.001-5.476-.001l-3.787.002c-2.65.001-5.299-.001-7.949-.003-3.404-.003-6.809-.001-10.214.002-2.608.002-5.215.001-7.823 0-1.256-.001-2.512 0-3.768.001-1.751.001-3.503-.001-5.255-.003l-1.59.003-1.437-.005h-1.257c-.943-.065-.943-.065-1.46-.582a52.683 52.683 0 0 1-.065-2.839l-.004-1.878.003-2.091-.002-2.2c-.002-2.025-.001-4.05 0-6.074.001-2.18 0-4.36-.002-6.54-.002-4.274-.002-8.549 0-12.823l.001-10.416-.001-1.495v-3.005c-.002-9.405 0-18.81.003-28.215.002-8.079.002-16.158-.001-24.237-.002-9.37-.003-18.74-.002-28.11l.001-2.994V47.65c0-3.47 0-6.94-.002-10.41-.001-4.226-.001-8.452.002-12.678.001-2.158.002-4.317 0-6.475-.001-1.973-.001-3.945.002-5.917.001-.717.001-1.434-.001-2.15-.001-.969.001-1.937.003-2.905V5.48c.119-2.215 1.214-1.781 3.166-1.79Z"/><path fill="#A6A6A6" d="m513.572 4.206 1.473.003 1.542-.003c1.691-.002 3.382 0 5.073.001l3.509-.001c2.454-.001 4.909 0 7.364.002 3.154.003 6.308.002 9.462-.001 2.416-.002 4.832-.002 7.249 0 1.163 0 2.326 0 3.49-.002 1.623-.001 3.245.001 4.868.004l1.473-.003c3.315.01 3.315.01 3.892.587.05.942.064 1.887.063 2.831l.004 1.875-.005 2.085.001 2.195c.001 2.02-.001 4.04-.003 6.06a14219.23 14219.23 0 0 1-.006 17.836c-.004 5.452-.005 10.905-.006 16.357-.001 8.844-.004 17.689-.009 26.534-.005 8.594-.009 17.188-.011 25.782v1.604l-.002 7.966c-.006 22.046-.015 44.091-.026 66.136l-1.035.517V4.793h-51.217l.113 12.712.08 9.189.103 11.786c.158 17.54.263 35.077.221 52.618h-1.552a52.546 52.546 0 0 1-1.552-3.101l.518-1.034.517 1.55h1.035l-.047-1.428c-.511-16.368-.552-32.733-.537-49.108.002-2.896 0-5.792-.002-8.688-.003-3.168-.002-6.335-.001-9.503.001-1.335 0-2.67-.001-4.006-.001-1.841.001-3.683.003-5.525l-.003-1.665.005-1.504V5.774c.152-2.28 2.113-1.562 3.957-1.568Z"/><path fill="#7B7B7B" d="m619.162 4.21 1.914-.004c.707 0 1.414.002 2.12.003l2.218-.003c2.014-.002 4.028-.001 6.041 0 2.106.002 4.212 0 6.318 0 3.54-.001 7.08 0 10.619.002 4.091.003 8.181.002 12.271 0 3.511-.003 7.021-.003 10.531-.002h6.291c1.974-.002 3.948-.001 5.922.002h2.171c.99-.002 1.98 0 2.97.002h1.677c1.593.067 3.099.288 4.664.583v.516l-78.119-.516v177.261l77.085-.517v-1.034a4615.3 4615.3 0 0 1 6.499-.516l1.852-.15c2.915-.228 5.797-.436 8.721-.367-1.435.785-2.664 1.214-4.28 1.455l-1.296.195-1.343.191-1.284.197c-6.363.932-12.733 1.14-19.156 1.13l-2.218.002c-1.982.003-3.965.002-5.947 0-2.082-.001-4.163 0-6.244.001-3.487.001-6.973 0-10.459-.003-4.033-.003-8.066-.002-12.099.001-3.471.002-6.942.003-10.412.001-2.07 0-4.14-.001-6.21.001-1.94.002-3.879.001-5.818-.002h-2.139c-.969.002-1.939 0-2.908-.003h-1.646c-1.215-.065-1.215-.065-1.732-.582a52.387 52.387 0 0 1-.065-2.831l-.004-1.873.003-2.084-.002-2.194c-.003-2.019-.001-4.038 0-6.057.001-2.173-.001-4.347-.002-6.521-.002-4.261-.002-8.523 0-12.785l.001-10.386-.001-1.49v-2.997c-.002-9.377 0-18.755.003-28.132.002-8.056.002-16.111-.001-24.167-.002-9.342-.004-18.685-.002-28.028l.001-2.985v-1.485l-.002-10.38c-.001-4.213-.001-8.427.002-12.64.001-2.152.002-4.304 0-6.456-.001-1.967-.001-3.934.002-5.9.001-.715 0-1.43-.001-2.145-.001-.965.001-1.93.003-2.895v-1.63c.125-2.315 1.476-1.782 3.491-1.783Z"/><path fill="#7C7C7C" d="M509.68 4.793h1.035c.069 7.666.136 15.332.202 22.998l.094 10.689c.158 17.54.263 35.077.221 52.618h-1.552a52.546 52.546 0 0 1-1.552-3.101l.518-1.034.517 1.55h1.035l-.047-1.427c-.517-16.379-.535-32.753-.508-49.138.006-3.627.009-7.255.011-10.882.006-7.424.015-14.849.026-22.273Z"/><path fill="#B4B4B4" d="M457.429 91.614h1.034l1.035 2.584h1.035l.517 2.584 1.552.517.517 3.618c-4.138-5.223-4.138-5.223-4.138-7.235h-1.035l.243 1.316c2.833 18.398 1.377 38.153 1.345 56.696-.006 3.375-.008 6.751-.011 10.126-.005 6.572-.014 13.145-.025 19.717l-1.035.517-.006-1.164c-.054-9.361-.11-18.721-.169-28.082-.029-4.526-.056-9.053-.082-13.58-.022-3.947-.046-7.894-.072-11.841-.014-2.089-.027-4.177-.037-6.266a3877.19 3877.19 0 0 0-.037-5.907c-.005-.719-.009-1.439-.012-2.158-.016-3.561-.088-7.072-.504-10.611-.14-1.225-.175-2.432-.166-3.664l.005-1.292.013-1.288.007-1.348c.006-1.08.016-2.16.026-3.239Z"/><path fill="#7D7D7D" d="m1.583 124.109 1.293.001 1.48-.002 1.636.006h1.713c1.878 0 3.756.004 5.635.008l3.895.002c3.074.002 6.149.006 9.223.011 3.843.007 7.685.01 11.527.012 6.858.006 13.715.015 20.572.026.908 1.712 1.242 3.109 1.487 5.038.432 2.848 1.28 4.852 2.652 7.365v1.55c-3.613-3.218-3.909-8.438-4.657-12.92H1.133l1.034 13.954C-.294 136.701.031 130.483 0 127.08c.021-2.868.021-2.868 1.583-2.971Z"/><path fill="#414141" d="M360.685 171.718c1.035.517 1.035.517 1.702 2.303.235.749.465 1.5.691 2.251l.36 1.136c.558 1.812.869 3.251.869 5.163h-57.425c-2.328-5.233-2.328-5.233-2.587-8.786h1.035v2.584h1.034l.518 5.168h56.39l-.517-3.617h-1.035l-1.035-6.202Z"/><path fill="#4B4B4B" d="M237.558 168.617c.589 1.767.429 2.276-.075 4.021l-.415 1.448-.448 1.508-.429 1.508c-1.08 3.708-1.08 3.708-2.255 5.469-1 .19-1 .19-2.245.186l-1.429.007-1.572-.017h-1.652a891.868 891.868 0 0 1-5.425-.025l-3.754-.007c-3.298-.005-6.596-.021-9.894-.038-3.364-.016-6.728-.023-10.091-.031-6.604-.016-13.207-.042-19.811-.075 0-1.558.269-2.516.776-3.973l.437-1.266.339-.963c.518 1.034.518 1.034-.517 5.168h54.838l.518-4.651c.466-1.476.466-1.476 1.002-2.681a59.611 59.611 0 0 0 2.102-5.588Z"/><path fill="#ACACAC" d="M672.644 49.237c12.933 0 12.933 0 15.52.517v.517h-14.486v86.305c7.535.079 7.535.079 14.692-.858 1.33-.174 2.157-.085 3.415.341l-3.621.517v1.033h-15.52V49.237Z"/><path fill="#939393" d="M1019.26 50.788c.51 1.577.51 2.556 0 4.134h-1.03l-.16 2.035c-.35 3.111-1.38 5.878-2.49 8.785-.64 2.223-.8 4.452-.97 6.75h-1.04l-.09 2.058c-.05.897-.09 1.794-.13 2.691-.02.447-.04.893-.07 1.354l-.06 1.317-.06 1.205c-.1 1.195-.1 1.195-.36 2.374-.35 1.867-.38 3.722-.43 5.614l-.03 1.206-.09 3.79c-.03.86-.05 1.72-.07 2.58-.06 2.1-.11 4.202-.16 6.303h1.04c.02.373.05.746.08 1.13.13 1.68.27 3.36.4 5.039.05.587.09 1.175.14 1.78.04.558.09 1.116.13 1.69.06.776.06.776.13 1.567.02 1.176.02 1.176.67 1.714.12 1.128.21 2.259.29 3.391.04.619.09 1.238.13 1.876l.09 1.451h1.04c.17 1.706.34 3.411.52 5.168h1.03c.14.661.28 1.322.42 2.003.59 2.649 1.36 5.229 2.17 7.816-1.34-.666-1.37-1.137-1.87-2.515-.16-.412-.31-.824-.47-1.249-.15-.442-.31-.884-.47-1.339-.17-.45-.33-.9-.5-1.363-1.12-3.151-2.16-6.289-2.9-9.554-.13-.574-.26-1.148-.4-1.738-1.85-8.641-2.38-17.22-2.35-26.04v-1.443c.03-7.067.24-13.971 1.72-20.909.14-.697.14-.697.29-1.408 1.41-6.606 3.11-13.097 5.91-19.264Z"/><path fill="#696969" d="M977.359 176.369c1.229 1.228 1.225 1.707 1.39 3.392l.136 1.261.026 1.032c-.517.517-.517.517-1.47.58l-1.27-.001-1.453.002-1.607-.006-1.682.001c-1.845-.001-3.69-.005-5.534-.009l-3.826-.002c-3.364-.002-6.727-.007-10.091-.013-3.43-.005-6.859-.007-10.289-.01-6.734-.006-13.469-.014-20.203-.025l-.518-1.034h56.908l-.517-5.168Z"/><path fill="#9C9C9C" d="M242.214 152.596h56.39c1.035 2.584 1.035 2.584.518 4.135l-1.035-2.584h-55.356l-1.035 3.101c-.517-1.034-.517-1.034.518-4.652Z"/><path fill="#6C6C6C" d="M774.56 66.291c7.899 14.572 3.382 43.689-1.034 58.915-.762-2.573-.448-5.045.511-7.521.653-2.223.759-4.301.851-6.606l.065-1.377c.067-1.442.128-2.885.189-4.328l.136-2.945c.11-2.399.215-4.798.317-7.197h1.035l-.227-2.035-.127-1.145c-.07-.96-.07-.96-.681-1.471a74.063 74.063 0 0 1-.146-3.264l-.057-2.06-.028-1.092c-.046-1.836-.1-3.671-.155-5.507l-.032-1.086c-.115-3.767-.33-7.523-.617-11.28Z"/><path fill="#858585" d="m884.243 47.618 1.933-.002 2.038.006 2.008-.006 1.943.002 1.78.002c1.634.065 3.172.278 4.778.584v.516l-17.073.517v32.558l9.41.097 2.924.043c4.92.04 9.306-.256 14.051-1.69v1.033c-.33.07-.66.138-1 .208l-1.296.277-1.291.272c-1.057.178-1.057.178-1.587.794-2.853.449-5.619.588-8.503.567l-1.201-.002c-1.249-.003-2.497-.01-3.746-.016l-2.561-.007c-2.078-.005-4.156-.015-6.234-.025-.012-4.573-.021-9.146-.027-13.72l-.012-6.37c-.006-2.047-.009-4.094-.01-6.141l-.006-2.349c-.004-1.093-.004-2.185-.004-3.278l-.004-1.888c.115-2.562 1.424-1.98 3.69-1.982Z"/><path fill="#7C7C7C" d="M886.392 120.976h1.07c1.051-.001 2.103-.01 3.154-.02 10.363-.016 10.363-.016 14.315 2.183v1.034l-5.174-1.551H881.65l-.517 59.432h-.517c-.012-7.875-.021-15.75-.027-23.624-.003-3.657-.006-7.313-.012-10.969-.006-3.525-.009-7.05-.01-10.575-.001-1.348-.003-2.697-.006-4.045-.004-1.881-.004-3.762-.004-5.643l-.006-1.708.002-1.544-.001-1.349c.166-2.632 3.868-1.612 5.84-1.621Z"/><path fill="#7F7F7F" d="M1137.74 179.987c-12.28 4.934-23.93 7.332-37.19 7.331-1.25.001-2.51.01-3.76.02-4.91.017-9.57-.283-14.41-1.15v-.517l.99.014c3.49.047 6.97.078 10.46.1 1.29.01 2.58.024 3.87.042 8.79.121 17.48-.123 26.07-2.223.17-.17.34-.341.51-.517.69-.168 1.38-.315 2.07-.452 3.02-.642 5.91-1.55 8.73-2.778 1.1-.387 1.1-.387 2.66.13Z"/><path fill="#A7A7A7" d="M144.953 37.35c1.035.517 1.035.517 1.534 1.801a301.674 301.674 0 0 1 1.57 5.435l.461 1.631c1.178 4.568 1.587 9.165 1.609 13.873-.518.517-.518.517-1.438.58l-1.224-.001-1.4.002-1.548-.006h-1.622c-1.777 0-3.555-.004-5.332-.008a8515.568 8515.568 0 0 1-13.41-.015c-3.305-.005-6.609-.008-9.914-.01-6.489-.006-12.979-.014-19.468-.025v-.517l54.321-.517c-.791-8.186-.791-8.186-2.587-16.02l-.444-1.488c-.269-.891-.543-1.78-.823-2.667-.285-1.014-.285-1.014-.285-2.047Z"/><path fill="#696969" d="m283.084 100.4 1.552.517v3.617h1.035c.652 2.037.517 3.347.517 5.685h-31.041c.582-5.232.582-5.232 1.552-7.235.518 1.034.518 1.034-.517 5.685l28.971.517-2.069-6.719V100.4Z"/><path fill="#8F8E8F" d="m149.609 109.702 1.035.517c4.352 14.026 3.273 30.399-3.405 43.462-2.036 3.833-2.036 3.833-3.32 5.117l.517-3.101h1.035c.962-2.196 1.516-4.392 2.069-6.718h1.035l.194-1.357c.323-1.744.323-1.744.84-3.23.62-1.933.826-3.732 1.035-5.749h1.035v-20.155h-1.035l-1.035-8.786Z"/><path fill="#787878" d="M48.727 184.121c2.232.158 4.463.321 6.693.485l1.931.136 1.834.136 1.7.123c1.293.154 1.293.154 1.81.67a60.84 60.84 0 0 0 3.051.059h1.977l2.153-.008 2.19-.002c1.924-.002 3.85-.007 5.774-.013 1.962-.005 3.925-.008 5.888-.01 3.853-.006 7.707-.015 11.56-.026-5.07 2.656-12.209 1.647-17.824 1.647-1.47.001-2.942.01-4.412.02-5.457.017-10.653-.271-16.047-1.15-.768-.101-1.537-.198-2.306-.29l-1.736-.227-1.788-.226c-1.413-.29-1.413-.29-2.448-1.324Z"/><path fill="#696969" d="M972.185 43.552h.518c2.454 10.769 1.33 21.975-3.104 32.042-.637-1.908-.313-2.789.194-4.716l.432-1.684c.408-1.352.408-1.352.926-1.869.458-2.949.618-5.854.681-8.834l.032-1.303c.034-1.358.065-2.717.095-4.075l.068-2.782c.055-2.26.107-4.519.158-6.779Z"/><path fill="#757575" d="M1067.89 75.077h1.04c-.05.345-.1.69-.14 1.045-1.37 10.209-2.33 20.336-.55 30.55.16 1.389.11 2.241-.35 3.547-.16-.565-.32-1.13-.48-1.712-.34-1.158-.69-2.312-1.07-3.456-.05-.735-.06-1.471-.06-2.208-.01-.443-.01-.886-.01-1.342V95.468c.01-1.59 0-3.18 0-4.77v-4.462c0-.44 0-.88.01-1.333v-1.179c.06-.895.06-.895.58-1.412.2-1.213.38-2.43.55-3.65.14-1 .14-1 .28-2.02.06-.517.13-1.033.2-1.565Z"/><path fill="#434343" d="m510.198 66.291 1.034.517v24.29h-1.552a52.546 52.546 0 0 1-1.552-3.101l.518-1.034.517 1.55h1.035V66.292Z"/><path fill="#838383" d="M1012.02 102.984h1.04c.02.373.05.746.08 1.13.13 1.68.27 3.36.4 5.039.05.587.09 1.175.14 1.78.04.558.09 1.116.13 1.69.04.517.08 1.034.13 1.567.02 1.176.02 1.176.67 1.714.12 1.128.21 2.259.29 3.391.04.619.09 1.238.13 1.876l.09 1.451h1.04c.17 1.706.34 3.411.52 5.168h1.03c.14.661.28 1.322.42 2.003.59 2.649 1.36 5.229 2.17 7.816-1.34-.666-1.37-1.137-1.87-2.515-.16-.412-.31-.824-.47-1.249-.15-.442-.31-.884-.47-1.339-.25-.675-.25-.675-.5-1.363-3.26-9.151-5.14-18.428-4.97-28.159Z"/><path fill="#B6B6B6" d="M1129.98 76.627c2.33 2.33 1.63 7.285 1.63 10.427.01.499.01.997.01 1.51v3.16c0 1.578.01 3.155.02 4.732.02 6.379-.33 12.605-1.15 18.931l-1.55.517c.45-3.748.45-3.748.77-5.6.82-4.938.93-9.755.89-14.75-.01-1.354-.01-2.707-.01-4.06-.01-4.98-.17-9.905-.61-14.867Z"/><path fill="#909090" d="m715.066 69.909 1.034.517v1.033h1.035l.208 1.226.277 1.584.273 1.581c.146 1.257.146 1.257.794 1.81.478 3.008.6 5.947.604 8.988l.006 1.358.003 2.82c.002 1.438.011 2.875.021 4.313l.003 2.75.011 1.298c-.015 3.661-.015 3.661-1.165 5.347l.016-1.648c.019-2.051.031-4.102.041-6.152.005-.882.012-1.763.021-2.645.064-6.42-.244-12.508-1.921-18.754a77.58 77.58 0 0 1-1.261-5.426Z"/><path fill="#555" d="M1042.03 19.263c.34.17.68.34 1.03.517-1.42 2.676-3.27 5.223-6.21 6.201-.52.86-1.03 1.721-1.55 2.584-3.25 4.123-3.25 4.123-5.69 5.168 2.65-5.727 7.97-10.142 12.42-14.47Z"/><path fill="#6D6D6D" d="M149.609 109.702c1.035.517 1.035.517 1.472 1.714 1.218 4.963 1.298 9.644 1.212 14.727l-.021 2.448a779.145 779.145 0 0 1-.076 5.918h-.517v-16.021h-1.035l-1.035-8.786Z"/><path fill="gray" d="M969.599 131.408c1.173 1.758 1.31 2.828 1.588 4.907l.273 2.006.136 1.044c.136 1.049.278 2.098.422 3.147.685 5.117.685 5.117.685 7.5h-1.035a2103.84 2103.84 0 0 1-.884-6.204c-.099-.702-.2-1.404-.301-2.107-.146-1.014-.289-2.029-.432-3.044l-.262-1.845c-.193-1.816-.223-3.58-.19-5.404Z"/><path fill="#7E7E7E" d="M202.896 108.669c.509 1.796.442 2.947.032 4.78l-.305 1.397-.245 1.058h-1.034l-.194 1.033c-.399 1.911-.877 3.794-1.358 5.685h-1.035l-.194 1.518-.323 1.583-1.035.517c1.148-3.929 2.413-7.813 3.718-11.693l.577-1.722 1.396-4.156Z"/><path fill="#787878" d="M68.904 40.452a376.3 376.3 0 0 1 4.915-.097l1.39-.04c3.102-.034 5.343.425 8.18 1.687-1.647.458-2.58.493-4.235.032-3.23-.777-6.16-.875-9.377 0-1.812.46-2.306.495-3.977-.032l3.104-.517v-1.033Z"/><path fill="#6D6D6D" d="m691.785 136.059-3.621.517v1.033h-15.52v-.516l2.027-.077c4.643-.194 9.163-.439 13.735-1.316 1.306-.157 2.143-.055 3.379.359ZM457.429 91.614h1.034l1.035 2.584h1.035l.517 2.584 1.552.517.517 3.618c-4.138-5.223-4.138-5.223-4.138-7.235h-1.035v7.752h-.517v-9.82Z"/><path fill="#828282" d="M263.942 76.627h.518c-.312 5.704-2.317 11.162-4.139 16.538-.65-1.948-.257-3.383.161-5.33l.206-1.02c.43-2.075.993-4.058 1.702-6.053h1.035l.517-4.135Z"/><path fill="#8F8F8F" d="M1182.74 61.64h.52c.98 3.273 1.78 6.565 2.43 9.916.19 1.002.19 1.002.39 2.025.3 2.102.34 4.03.29 6.147-1.22-1.98-1.46-4.141-1.82-6.395-.41-2.629-.96-5.028-1.81-7.558-.11-1.401-.04-2.725 0-4.135Z"/><path fill="#696969" d="M1174.98 143.811c.17.341.35.682.52 1.034-1.79 3.709-4.15 7.131-6.72 10.335-.52-1.033-.52-1.033-.39-2.034.44-1.224.93-1.808 1.94-2.617h1.03c.65-1.455 1.04-2.64 1.23-4.231.32-1.453.32-1.453 1.39-2.164l1-.323Z"/><path fill="#848484" d="M347.752 133.475c1.681 1.679 2.145 3.921 2.91 6.137l.509 1.427.481 1.379.44 1.259c.316 1.168.316 1.168.316 3.235l-1.552-.517c-.342-.977-.342-.977-.55-2.196a24.087 24.087 0 0 0-1.519-5.039c-.642-2.03-1.035-3.546-1.035-5.685Z"/><path fill="#909090" d="M1068.41 111.769c1.22 1.219 1.32 1.896 1.72 3.553.72 2.821 1.76 5.404 2.94 8.059.51 1.308.51 1.308.51 2.859-3.63-3.827-5.17-9.227-5.17-14.471Z"/><path fill="#7C7C7C" d="M770.422 130.374h1.034c-.476 3.327-1.605 6.034-3.104 9.012l-.559 1.112c-.743 1.443-1.389 2.675-2.545 3.83l.517-3.618h1.035l1.035-4.134h1.034l.225-.897 1.328-5.305Z"/><path fill="gray" d="M92.701 124.689c1.84.613 3.06 1.793 4.147 3.378 1.116 2.79.9 6.094.51 9.026-.793 1.53-.793 1.53-1.552 2.584l-1.035-.517.776-1.486c1.017-2.418 1.22-4.715.776-7.3-.695-1.523-1.574-2.807-2.587-4.134l-1.035-1.551Z"/><path fill="#6D6D6D" d="M26.999 175.336h2.07v1.033l1.487.194c1.616.323 1.616.323 2.651 1.357l1.843.484 1.778.549.518 1.55c-2.137-.322-3.83-1.033-5.756-2.002l-1.62-.804c-1.225-.7-2.055-1.307-2.971-2.361Z"/><path fill="#7E7E7E" d="M3.718 68.359c1.035 1.033 1.035 1.033 1.1 2.648l-.065 1.486h1.035c1.172 3.232 1.985 6.435 2.586 9.82-1.419-1.419-1.93-3.098-2.619-4.943l-.423-1.126c-.962-2.648-1.512-5.056-1.614-7.885Z"/><path fill="#797979" d="M5.27 149.496h1.035l.194 1.001.323 1.066 1.035.517.517 2.584 1.035.516v1.551h1.035l1.035 4.134c-2.97-1.483-4.895-7.382-6.209-10.336v-1.033Z"/><path fill="#818181" d="M229.798 31.666c.555 1.69.461 2.806.032 4.522l-.305 1.252-.245.944h-1.035l-.161 1.099c-.404 1.688-1.091 3.06-1.908 4.586-.517-1.034-.517-1.034-.188-2.31l.544-1.566.58-1.671a163.733 163.733 0 0 1 2.686-6.856Z"/><path fill="#7C7C7C" d="M339.474 108.669a28.654 28.654 0 0 1 1.815 4.267l.414 1.238.423 1.278.434 1.29.41 1.233.375 1.125c.268.938.268.938.268 1.972h-1.035l-.452-1.647c-.521-1.896-.521-1.896-1.164-3.36-.453-1.195-.453-1.195-.453-3.262h-1.035v-4.134Z"/><path fill="#949494" d="M1131.01 102.984h.52c-.5 8.73-.5 8.73-1.04 12.403l-1.55.517c.35-2.95.8-5.863 1.33-8.786.07-.4.14-.8.21-1.213.18-.974.35-1.947.53-2.921Z"/><path fill="#656565" d="M306.882 14.095c1.218 1.216 1.55 2.2 2.134 3.811l.553 1.498c.417 1.41.417 1.41.417 3.476h-1.552l-.208-.999-.277-1.294-.273-1.29c-.177-1.056-.177-1.056-.794-1.585a101.458 101.458 0 0 1 0-3.617Z"/><path fill="#757575" d="M6.305 34.767c.555 1.69.462 2.806.032 4.522-.1.413-.2.826-.305 1.251l-.244.945H4.753v3.618c-.341.17-.683.34-1.035.517.153-3.998.894-7.226 2.587-10.853Z"/><path fill="#7C7C7C" d="M1151.19 172.235c-2.82 2.523-6.59 4.951-10.35 5.685.17-.342.34-.683.52-1.034h1.03v-1.034l1.68-.646c1.72-.723 2.72-1.633 4.01-2.971 1.38-.526 1.77-.665 3.11 0Z"/><path fill="#A2A2A2" d="M510.198 77.66h.517v12.92l-2.069-1.033c-.388-1.356-.388-1.356-.518-2.584l1.035.517v1.034h1.035V77.66Z"/><path fill="#828282" d="M972.185 64.224c.805 2.06.217 3.62-.388 5.685l-.541 1.906c-.562 1.544-1.105 2.551-2.175 3.779.589-3.997 1.608-7.618 3.104-11.37Z"/><path fill="gray" d="M1184.3 117.971c.69 2.254.16 4.073-.42 6.299-.1.38-.19.761-.28 1.153a48.65 48.65 0 0 1-.86 2.884l-1.03.517 1.03-7.752h1.04l-.03-1.26c.03-1.324.03-1.324.55-1.841Z"/><path fill="#757575" d="M9.927 84.896c.606.492 1.209.988 1.81 1.486l1.019.836.792.779v1.033l1.552.517c.614 1.583.614 1.583 1.035 3.101-2.545-2-4.469-3.98-6.208-6.718v-1.034Z"/><path fill="#7D7D7D" d="M1122.73 128.307c.17.682.34 1.364.52 2.067l-6.73 5.168-1.03-.517 1.06-.813c.46-.361.92-.721 1.4-1.092.45-.354.91-.708 1.38-1.072 1.32-1.149 2.35-2.342 3.4-3.741Z"/><path fill="#848484" d="M325.506 68.359c1.11 1.663 1.758 3.334 2.425 5.2l.373.998c.306.852.568 1.719.823 2.587l-.517 1.034-.517-1.55h-1.035c-.262-.99-.52-1.981-.776-2.972l-.436-1.672c-.34-1.558-.34-1.558-.34-3.625Z"/><path fill="#757575" d="M967.012 122.105c.953 1.428 1.409 2.485 1.908 4.103l.426 1.338c.263 1.332.175 2.076-.265 3.345-1.751-2.814-1.9-5.518-2.069-8.786Z"/><path fill="#868686" d="M1126.87 66.291c1.78 1.531 2.37 2.568 2.72 4.878.07.479.15.958.23 1.451.15 1.35.18 2.651.16 4.007-1.17-1.986-1.61-4.115-2.14-6.33-.09-.385-.19-.77-.28-1.167l-.69-2.839Z"/><path fill="#818181" d="M749.21 22.364c2.867 1.762 5.282 3.935 7.761 6.201l-.518 1.034-.756-.66c-.326-.284-.653-.567-.99-.858l-.982-.854c-.871-.765-.871-.765-1.928-1.246v-1.033l-2.069-.517-.518-2.067Z"/><path fill="#7A7A7A" d="M232.902 22.88c.728 1.455.344 2.362.032 3.941l-.305 1.57-.245 1.208h-1.034l-.518 1.55c-.809-1.616-.083-2.744.453-4.425l.578-1.843c.521-1.484.521-1.484 1.039-2Z"/><path fill="#777" d="M304.295 173.785h1.035v2.584h1.034l.518 5.685c-.966-1.447-1.391-2.491-1.876-4.134a640.35 640.35 0 0 0-.408-1.357c-.303-1.227-.303-1.227-.303-2.778Z"/><path fill="#7B7B7B" d="M772.491 57.506c.719 1.358 1.262 2.647 1.649 4.134l.281 1.034c.158 1.17-.026 1.982-.378 3.1-1.467-2.869-1.748-5.065-1.552-8.268Z"/><path fill="#383838" d="m24.93 250.788 1.034.517-5.69 5.684-1.035-.516c.558-.659 1.119-1.316 1.681-1.971l.946-1.108c.955-1.014 1.925-1.809 3.064-2.606Z"/><path fill="#787878" d="M1073.07 183.604c3.2-.196 5.4.085 8.27 1.551-1.94.713-3.33.308-5.3-.226-.83-.223-.83-.223-1.69-.451l-1.28-.357v-.517Z"/><path fill="#7F7F7F" d="M42.52 108.669c2.265.268 4.494.546 6.725 1.033l.517 1.551c-2.614-.327-4.81-1.103-7.243-2.067v-.517Z"/><path fill="#888" d="M1102.56 47.687c1.08-.014 2.17-.024 3.26-.033l1.84-.018c1.62.05 1.62.05 3.17.567.17.512.34 1.024.52 1.55a67.213 67.213 0 0 0-8.79-1.55v-.516Z"/><path fill="#848484" d="M360.685 171.718c1.035.517 1.035.517 1.607 1.887l.56 1.698.572 1.694c.365 1.439.365 1.439-.152 2.473l-.517-1.55h-1.035l-1.035-6.202Z"/><path fill="gray" d="M319.815 51.821c1.046 1.045 1.384 1.684 1.908 3.036l.426 1.062c.291 1.23.132 1.95-.264 3.137-.342-.17-.683-.34-1.035-.517-.327-1.52-.327-1.52-.582-3.391l-.263-1.876-.19-1.45Z"/><path fill="#646464" d="m707.823 127.273.517 1.551-2.586 2.584v-1.034l-2.07.517c1.334-1.368 2.544-2.555 4.139-3.618Z"/><path fill="#898989" d="M467.776 20.296c1.364.682 1.658 1.453 2.392 2.778l.699 1.24c.53 1.15.53 1.15.53 2.7-2.295-1.817-2.856-4.006-3.621-6.718Z"/><path fill="#6A6A6A" d="M15.617 20.296c0 1.662-.137 2.252-1.034 3.618-1.358.904-1.358.904-2.587 1.55.72-2.291 1.865-3.552 3.621-5.168Z"/><path fill="gray" d="M54.935 112.803h4.657v1.034l3.104.516c-1.893.68-3.146.339-5.044-.226l-1.544-.45-1.173-.357v-.517ZM333.784 93.165c1.316.657 1.393 1.136 1.907 2.487l.427 1.076c.288 1.24.135 1.961-.265 3.155-.341-.17-.683-.34-1.035-.517-.327-1.407-.327-1.407-.582-3.133l-.262-1.73-.19-1.338Z"/><path fill="#898989" d="m283.084 100.4 1.552.517.517 6.718c-1.544-2.314-2.069-4.464-2.069-7.235Z"/><path fill="#666" d="M482.779 45.103c1.418 1.653 2.395 3.103 3.104 5.168-1.788-.596-2.172-.988-3.104-2.584-.097-1.421-.097-1.421 0-2.584Z"/><path fill="#7C7C7C" d="M1071 121.072c1.8 1.56 2.48 2.878 3.1 5.168-1.83-1.64-2.89-2.671-3.1-5.168Z"/><path fill="#898989" d="M78.216 119.005h4.139v1.033l2.069.517c-1.458.728-2.159.263-3.686-.226l-1.427-.45-1.095-.358v-.516Z"/><path fill="#696969" d="M1129.98 111.253h.51v4.134l-1.55.517c.45-4.07.45-4.07 1.04-4.651Z"/><path fill="#757575" d="m1122.22 58.023 2.06.516c.35 1.365.69 2.73 1.04 4.135-1.54-1.315-2.26-2.837-3.1-4.651Z"/><path fill="#797979" d="M1170.33 35.284c1.59 1.433 2.42 2.616 3.1 4.65h-1.55c-.51-1.534-1.02-3.07-1.55-4.65Z"/><path fill="#707070" d="M1029.09 33.733c.52 1.034.52 1.034.16 2.326-.75 1.445-1.24 1.775-2.74 2.325.64-1.787 1.38-3.176 2.58-4.65Z"/><path fill="#7D7D7D" d="M1027.54 151.046c1.04 0 1.04 0 1.84.581 1 1.3 1.09 2.466 1.27 4.07-1.6-1.433-2.43-2.616-3.11-4.651Z"/><path fill="#636363" d="M350.339 142.777c1.034.905 1.034.905 2.069 2.068v2.067l-1.552-.517-.517-3.618Z"/><path fill="#717171" d="M959.769 110.219c1.294 1.195 1.294 1.195 2.587 2.584v1.55l-1.552-.516c-.614-1.841-.614-1.841-1.035-3.618Z"/><path fill="#343434" d="m61.144 336.059 1.034 1.034-2.586 3.101-1.553-1.034 3.105-3.101Z"/><path fill="#757575" d="M1165.15 158.281c0 1.551 0 1.551-.67 2.267l-2.43 1.868v-2.068c1.26-.872 1.26-.872 2.59-1.55.17-.171.34-.341.51-.517Z"/></svg>