<svg xmlns="http://www.w3.org/2000/svg" width="842" height="94" fill="none"><path fill="#1D1D1B" d="M132.12 86.36c1.6 1.95 3.86 3.51 6.67 3.51 2.54 0 4.76-1.64 4.76-4.1 0-4.17-5.77-4.64-9.4-7.02-1.95-1.29-3.47-3.16-3.47-6 0-3.98 3.51-7.25 8.27-7.25 3.47 0 5.89 1.52 7.33 2.73l-2.3 2.85c-1.48-1.25-3.16-1.87-4.87-1.87-2.26 0-4.52 1.29-4.52 3.67 0 3.47 5.81 4.21 9.32 6.55 1.83 1.21 3.55 3.12 3.55 6.24 0 4.8-3.7 7.92-8.46 7.92-3.74 0-7.13-1.64-9.55-4.56l2.69-2.65-.02-.02Zm60.57-6.05h-8.97v9.16h12.09v3.7h-15.99v-27.3h15.6v3.71h-11.7v7.02h8.97v3.71Zm46.38-14.81c3.9 0 7.6 1.6 9.98 4.21l-2.61 2.57c-1.6-1.76-4.45-3.08-7.37-3.08-5.58 0-9.91 4.45-9.91 10.33s4.45 10.34 10.26 10.34c3.67 0 6.32-2.03 7.84-3.86l2.77 2.5c-2.34 3-6.4 5.07-10.61 5.07-8.15 0-14.15-5.97-14.15-14.04s5.93-14.04 13.8-14.04Zm53.68 0c7.72 0 13.65 6.08 13.65 14.04 0 7.96-5.93 14.04-13.65 14.04-7.72 0-13.65-6.08-13.65-14.04 0-7.96 5.93-14.04 13.65-14.04Zm0 24.37c5.57 0 9.75-4.41 9.75-10.34s-4.17-10.33-9.75-10.33S283 73.65 283 79.53s4.17 10.34 9.75 10.34Zm49.74-16.73v20.04h-3.9v-27.3h2.73l16.38 20.05V65.88h3.9v27.3h-2.73l-16.38-20.04Zm53.44 20.04v-27.3h8.19c4.33 0 7.14.94 9.36 2.58 3.35 2.5 5.46 6.55 5.46 11.07 0 4.52-2.07 8.58-5.42 11.08-2.22 1.64-5.07 2.57-9.4 2.57h-8.19Zm15.79-21.29c-1.72-1.48-3.98-2.3-7.8-2.3h-4.09v19.89h4.09c3.82 0 6.08-.82 7.8-2.3 2.07-1.83 3.31-4.6 3.31-7.64s-1.25-5.81-3.31-7.64v-.01Zm52.27 8.42h-8.97v9.16h12.09v3.7h-15.99v-27.3h15.6v3.71h-11.7v7.02h8.97v3.71Zm85.23 7.02-7.99-12.52v18.37h-3.9v-27.3h2.73l10.53 16.65 10.53-16.65h2.73v27.3h-3.9V74.81l-7.99 12.52h-2.74Zm64.05-1.17h-11.5l-2.85 7.02h-4.06l11.31-27.3h2.73l11.31 27.3h-4.06l-2.89-7.02h.01Zm-9.94-3.7h8.42l-4.21-10.14-4.21 10.14Zm47.9-16.57h3.9v27.3h-3.9v-27.3Zm42.12 7.25v20.04h-3.9v-27.3h2.73l16.38 20.05V65.88h3.9v27.3h-2.73l-16.38-20.04ZM0 .78v9.46h11.64v29.51h10.8V10.24h11.69V.78H0Zm97.01 12.53 4.34 11.02h-8.74l4.4-11.02ZM91.88.5 75.34 39.75h11.3l2.78-7.01h15.09l2.79 7.01h11.58L102.29.5H91.88Zm93.33 18.99c3.62 0 5.79-1.78 5.79-4.62v-.11c0-3.12-2.28-4.68-5.85-4.68h-7.13v9.41h7.19ZM167.23.78h18.43c5.96 0 10.08 1.56 12.7 4.18 2.28 2.28 3.45 5.23 3.45 9.08v.11c0 6.01-3.17 9.96-8.02 12.03l9.3 13.58h-12.41l-7.85-11.8h-4.79v11.8h-10.8V.78h-.01Zm102.46 12.53 4.34 11.02h-8.74l4.4-11.02ZM264.57.5l-16.54 39.25h11.3l2.78-7.01h15.09l2.78 7.01h11.58L274.98.5h-10.41Zm105.59 33.35 6.96-6.57c1.89 2.28 3.67 3.62 6.12 3.62 2.67 0 4.4-1.84 4.4-5.45V.78h10.75V25.5c0 4.9-1.23 8.35-3.84 10.97-2.56 2.56-6.24 3.95-10.69 3.95-6.79 0-10.91-2.84-13.7-6.57Zm96.39-20.54 4.34 11.02h-8.74l4.4-11.02ZM461.43.5l-16.54 39.25h11.3l2.78-7.01h15.09l2.78 7.01h11.58L471.85.5h-10.42Zm93.34 18.99c3.62 0 5.79-1.78 5.79-4.62v-.11c0-3.12-2.28-4.68-5.85-4.68h-7.13v9.41h7.19ZM536.79.78h18.43c5.96 0 10.08 1.56 12.7 4.18 2.28 2.28 3.45 5.23 3.45 9.08v.11c0 6.01-3.17 9.96-8.01 12.03l9.3 13.58h-12.42l-7.85-11.8h-4.79v11.8h-10.8V.78h-.01Zm114.59 0-9.3 15.09L632.79.78h-11.42v38.97h10.58V17.43l9.91 15.2h.22l9.97-15.26v22.38h10.75V.78h-11.42Zm92.5 19.6v-.11c0-5.68-4.01-10.52-9.97-10.52-5.96 0-9.91 4.79-9.91 10.41v.11c0 5.62 4.06 10.52 10.02 10.52s9.86-4.79 9.86-10.41Zm-30.9 0v-.11C712.98 9.08 722 0 734.03 0c12.03 0 20.94 8.96 20.94 20.16v.11c0 11.19-9.02 20.27-21.05 20.27-12.03 0-20.94-8.96-20.94-20.16ZM831.2.78v20.6L815.16.78h-10.08v38.97h10.69V18.37l16.71 21.38h9.41V.78H831.2Z"/></svg>