<svg width="842" height="94" viewBox="0 0 842 94" fill="none" xmlns="http://www.w3.org/2000/svg">
<path d="M132.12 86.36C133.72 88.31 135.98 89.87 138.79 89.87C141.33 89.87 143.55 88.23 143.55 85.77C143.55 81.6 137.78 81.13 134.15 78.75C132.2 77.46 130.68 75.59 130.68 72.75C130.68 68.77 134.19 65.5 138.95 65.5C142.42 65.5 144.84 67.02 146.28 68.23L143.98 71.08C142.5 69.83 140.82 69.21 139.11 69.21C136.85 69.21 134.59 70.5 134.59 72.88C134.59 76.35 140.4 77.09 143.91 79.43C145.74 80.64 147.46 82.55 147.46 85.67C147.46 90.47 143.76 93.59 139 93.59C135.26 93.59 131.87 91.95 129.45 89.03L132.14 86.38L132.12 86.36ZM192.69 80.31H183.72V89.47H195.81V93.17H179.82V65.87H195.42V69.58H183.72V76.6H192.69V80.31ZM239.07 65.5C242.97 65.5 246.67 67.1 249.05 69.71L246.44 72.28C244.84 70.52 241.99 69.2 239.07 69.2C233.49 69.2 229.16 73.65 229.16 79.53C229.16 85.41 233.61 89.87 239.42 89.87C243.09 89.87 245.74 87.84 247.26 86.01L250.03 88.51C247.69 91.51 243.63 93.58 239.42 93.58C231.27 93.58 225.27 87.61 225.27 79.54C225.27 71.47 231.2 65.5 239.07 65.5ZM292.75 65.5C300.47 65.5 306.4 71.58 306.4 79.54C306.4 87.5 300.47 93.58 292.75 93.58C285.03 93.58 279.1 87.5 279.1 79.54C279.1 71.58 285.03 65.5 292.75 65.5ZM292.75 89.87C298.32 89.87 302.5 85.46 302.5 79.53C302.5 73.6 298.33 69.2 292.75 69.2C287.17 69.2 283 73.65 283 79.53C283 85.41 287.17 89.87 292.75 89.87ZM342.49 73.14V93.18H338.59V65.88H341.32L357.7 85.93V65.88H361.6V93.18H358.87L342.49 73.14ZM395.93 93.18V65.88H404.12C408.45 65.88 411.26 66.82 413.48 68.46C416.83 70.96 418.94 75.01 418.94 79.53C418.94 84.05 416.87 88.11 413.52 90.61C411.3 92.25 408.45 93.18 404.12 93.18H395.93ZM411.72 71.89C410 70.41 407.74 69.59 403.92 69.59H399.83V89.48H403.92C407.74 89.48 410 88.66 411.72 87.18C413.79 85.35 415.03 82.58 415.03 79.54C415.03 76.5 413.78 73.73 411.72 71.9V71.89ZM463.99 80.31H455.02V89.47H467.11V93.17H451.12V65.87H466.72V69.58H455.02V76.6H463.99V80.31ZM549.22 87.33L541.23 74.81V93.18H537.33V65.88H540.06L550.59 82.53L561.12 65.88H563.85V93.18H559.95V74.81L551.96 87.33H549.22ZM613.27 86.16H601.77L598.92 93.18H594.86L606.17 65.88H608.9L620.21 93.18H616.15L613.26 86.16H613.27ZM603.33 82.46H611.75L607.54 72.32L603.33 82.46ZM651.23 65.89H655.13V93.19H651.23V65.89ZM693.35 73.14V93.18H689.45V65.88H692.18L708.56 85.93V65.88H712.46V93.18H709.73L693.35 73.14ZM0 0.78V10.24H11.64V39.75H22.44V10.24H34.13V0.78H0ZM97.01 13.31L101.35 24.33H92.61L97.01 13.31ZM91.88 0.5L75.34 39.75H86.64L89.42 32.74H104.51L107.3 39.75H118.88L102.29 0.5H91.88ZM185.21 19.49C188.83 19.49 191 17.71 191 14.87V14.76C191 11.64 188.72 10.08 185.15 10.08H178.02V19.49H185.21ZM167.23 0.78H185.66C191.62 0.78 195.74 2.34 198.36 4.96C200.64 7.24 201.81 10.19 201.81 14.04V14.15C201.81 20.16 198.64 24.11 193.79 26.18L203.09 39.76H190.68L182.83 27.96H178.04V39.76H167.24V0.78H167.23ZM269.69 13.31L274.03 24.33H265.29L269.69 13.31ZM264.57 0.5L248.03 39.75H259.33L262.11 32.74H277.2L279.98 39.75H291.56L274.98 0.5H264.57ZM370.16 33.85L377.12 27.28C379.01 29.56 380.79 30.9 383.24 30.9C385.91 30.9 387.64 29.06 387.64 25.45V0.78H398.39V25.5C398.39 30.4 397.16 33.85 394.55 36.47C391.99 39.03 388.31 40.42 383.86 40.42C377.07 40.42 372.95 37.58 370.16 33.85ZM466.55 13.31L470.89 24.33H462.15L466.55 13.31ZM461.43 0.5L444.89 39.75H456.19L458.97 32.74H474.06L476.84 39.75H488.42L471.85 0.5H461.43ZM554.77 19.49C558.39 19.49 560.56 17.71 560.56 14.87V14.76C560.56 11.64 558.28 10.08 554.71 10.08H547.58V19.49H554.77ZM536.79 0.78H555.22C561.18 0.78 565.3 2.34 567.92 4.96C570.2 7.24 571.37 10.19 571.37 14.04V14.15C571.37 20.16 568.2 24.11 563.36 26.18L572.66 39.76H560.24L552.39 27.96H547.6V39.76H536.8V0.78H536.79ZM651.38 0.78L642.08 15.87L632.79 0.78H621.37V39.75H631.95V17.43L641.86 32.63H642.08L652.05 17.37V39.75H662.8V0.78H651.38ZM743.88 20.38V20.27C743.88 14.59 739.87 9.75 733.91 9.75C727.95 9.75 724 14.54 724 20.16V20.27C724 25.89 728.06 30.79 734.02 30.79C739.98 30.79 743.88 26 743.88 20.38ZM712.98 20.38V20.27C712.98 9.08 722 0 734.03 0C746.06 0 754.97 8.96 754.97 20.16V20.27C754.97 31.46 745.95 40.54 733.92 40.54C721.89 40.54 712.98 31.58 712.98 20.38ZM831.2 0.78V21.38L815.16 0.78H805.08V39.75H815.77V18.37L832.48 39.75H841.89V0.78H831.2Z" fill="#1D1D1B"/>
</svg>
