<svg xmlns="http://www.w3.org/2000/svg" width="711" height="316" fill="none"><path fill="#1D1D1B" d="M45.451 306.785h3.708v.168h-1.332l2.664 6.96 2.628-6.96h-1.308v-.168h2.592v.168h-1.08l-3.228 8.556h-.3l-3.264-8.556h-1.08v-.168ZM54.651 315.161h1.332v-8.208h-1.332v-.168h3.864v.168h-1.332v8.208h1.332v.168h-3.864v-.168ZM59.16 315.161h1.332v-8.208H59.16v-.168h2.568l4.056 6.54h.024v-6.372h-1.332v-.168h2.844v.168h-1.332v8.544h-.24l-5.052-8.052h-.024v7.716h1.332v.168H59.16v-.168ZM69.74 315.161h1.332v-8.208h-.696c-.16 0-.34.016-.54.048-.2.024-.404.1-.612.228-.2.128-.396.332-.588.612-.184.272-.344.652-.48 1.14h-.132v-2.196h7.296v2.196h-.132c-.136-.488-.3-.868-.492-1.14-.184-.28-.38-.484-.588-.612-.2-.128-.4-.204-.6-.228-.2-.032-.38-.048-.54-.048h-.696v8.208h1.332v.168H69.74v-.168ZM78.757 308.165l-1.32 3.492h2.64l-1.32-3.492Zm-3.9 6.996h1.056l3.24-8.592h.288l3.264 8.592h1.068v.168h-3.696v-.168h1.332l-1.26-3.336h-2.784l-1.26 3.336h1.332v.168h-2.58v-.168ZM92.688 312.269h-.96v2.724h-.144a1.143 1.143 0 0 0-.216-.18.553.553 0 0 0-.264-.048.95.95 0 0 0-.444.12c-.144.072-.316.156-.516.252a3.73 3.73 0 0 1-.684.252c-.264.08-.584.12-.96.12-.568 0-1.072-.092-1.512-.276-.44-.192-.864-.492-1.272-.9-.4-.4-.732-.872-.996-1.416-.264-.544-.396-1.156-.396-1.836 0-.456.052-.864.156-1.224.104-.368.228-.688.372-.96.152-.272.304-.5.456-.684.16-.184.292-.328.396-.432.36-.36.772-.652 1.236-.876.464-.224.992-.336 1.584-.336.304 0 .552.024.744.072.2.048.372.104.516.168.144.056.272.108.384.156.12.048.252.072.396.072.16 0 .272-.02.336-.06a.913.913 0 0 0 .204-.192h.18v2.4h-.132a4.351 4.351 0 0 0-.192-.732 2.543 2.543 0 0 0-.432-.804 2.333 2.333 0 0 0-.78-.648c-.32-.176-.732-.264-1.236-.264-.6 0-1.084.128-1.452.384a2.59 2.59 0 0 0-.852.996c-.2.408-.336.872-.408 1.392a12.857 12.857 0 0 0-.048 2.652c.032.36.084.7.156 1.02.08.32.188.616.324.888s.312.504.528.696c.24.216.488.368.744.456.256.08.588.12.996.12.248 0 .496-.04.744-.12.248-.088.468-.216.66-.384.2-.168.36-.38.48-.636.128-.264.192-.572.192-.924v-1.008h-1.548v-.168h3.66v.168ZM93.31 315.161h1.333v-8.208H93.31v-.168h6.864v2.076h-.132a5.76 5.76 0 0 0-.336-.816 2.14 2.14 0 0 0-.432-.6 1.551 1.551 0 0 0-.6-.372 2.59 2.59 0 0 0-.84-.12h-1.992v3.708h.78c.264 0 .488-.024.672-.072.184-.048.34-.136.468-.264.136-.136.248-.316.336-.54.096-.232.188-.528.276-.888h.132v3.732h-.132a13.594 13.594 0 0 0-.18-.672 1.88 1.88 0 0 0-.252-.576 1.088 1.088 0 0 0-.432-.396c-.176-.104-.408-.156-.696-.156h-.972v4.332h2.268c.44 0 .804-.092 1.092-.276.296-.192.536-.416.72-.672.184-.264.32-.536.408-.816.088-.28.144-.512.168-.696h.132v2.628h-7.32v-.168Z"/><path fill="#000" d="M581.445 245.679c-2.63-.75-5.09-1.77-6.94-3.93-3.05-3.57-2.9-7.68-1.95-11.86 1.53-6.71 5.5-12.01 10.21-16.78 7.75-7.84 16.82-13.94 26.5-19.05 10.08-5.32 20.42-10.16 30.67-15.14 1.91-.93 3.36-2.1 4.42-4.03 5.51-10.04 11.16-20.01 16.75-30.01.26-.47.5-.95.53-1.58-.79 1.04-1.57 2.08-2.37 3.12-4.37 5.72-8.59 11.57-13.9 16.48-2.63 2.43-5.64 4.17-9.3 4.63-3.24.41-6.1-.42-8.54-2.54-4.8-4.17-6.4-9.47-4.71-15.51 1.1-3.93 2.81-7.69 4.2-11.39-.56.66-1.27 1.49-1.98 2.32-6.76 7.96-13.89 15.55-22.7 21.32-4.63 3.03-9.56 5.35-15.19 5.78-8.88.68-16.72-4.28-19.89-12.63-1.7-4.49-1.89-9.11-1.06-13.8.06-.34.1-.68-.07-1.19-.31.39-.64.77-.94 1.17-5.21 6.92-10.57 13.73-17.03 19.55-2.3 2.07-4.84 3.98-7.51 5.53-6.87 3.98-14.04.3-16.32-6.59-1.89-5.74-.86-11.34 1.37-16.75.95-2.31 2.22-4.48 3.36-6.76l-2.73 2.61c-3.26 3.12-6.71 5.99-11.21 7.09-1.63.4-3.41.61-5.06.41-4.55-.55-7.3-3.43-7.44-8.04-.1-3.47.35-6.96.54-10.23-2.56 2.55-5.56 5.22-8.19 8.21-5.88 6.68-10.09 14.52-14.72 22.05-1.5 2.44-2.88 4.95-4.4 7.38-.28.46-.95.94-1.45.95-4.42.07-8.84.04-13.26.04-.13 0-.27-.06-.57-.13 1.32-2.16 2.61-4.24 3.88-6.33 8.24-13.64 16.58-27.21 24.63-40.95 2.32-3.95 3.83-8.37 5.65-12.6.28-.66.29-1.48.3-2.22.02-1.15-.16-2.43-1.4-2.72-.9-.21-2.21-.09-2.9.44-2.21 1.73-4.44 3.54-6.25 5.66-8.24 9.64-16.39 19.35-24.46 29.12-7.23 8.75-14.7 17.25-24.05 23.84-4.43 3.12-9.17 5.55-14.57 6.62-10.67 2.11-21.1-4.88-23.14-15.64-1.96-10.32 1.37-19.14 7.94-26.92 6.37-7.55 14.49-12.85 23.12-17.43 6.01-3.19 12.15-6.08 18.91-7.25 2.5-.43 5.17-.76 7.63-.34 7.32 1.24 10.31 8.01 6.72 14.7-1.84 3.44-4.75 5.83-8.03 7.79-6.54 3.9-13.73 6.15-21.02 8.08-5.62 1.49-11.33 2.65-16.98 4.05-.73.18-1.55.74-1.95 1.37-3.22 5.06-6.14 10.3-7.09 16.32-.31 1.96-.38 4.05-.05 6 .76 4.48 3.98 7.02 8.64 7.38 5.14.4 9.86-.91 14.35-3.26 6.72-3.53 12.32-8.5 17.55-13.92 9.36-9.7 17-20.8 25.53-31.17 4.16-5.06 8.25-10.17 13.33-14.36 1.78-1.46 3.58-3.04 6.04-3.15 5.33-.25 8.72 2.62 9.62 7.93.88 5.17.09 10.13-1.97 14.87-1.74 3.99-3.75 7.86-5.48 12.06.28-.41.49-.89.84-1.23 2.69-2.64 5.43-5.24 8.11-7.89.52-.51.95-1.16 1.25-1.82 3.55-7.77 8.04-14.86 14.72-20.36 2.47-2.04 5.16-3.67 8.57-3.58 2.86.07 4.22 1.86 3.37 4.61-.91 2.97-3.11 5.01-5.32 7-5.5 4.93-11.81 8.72-18.09 12.51-1.84 1.11-3.15 2.41-3.35 4.63-.26 2.84-.85 5.68-.79 8.51.13 6.33 4.4 9.31 10.53 7.59 4.91-1.38 8.56-4.61 11.8-8.31 6.19-7.06 11.26-14.91 15.98-23 13.49-23.14 27.07-46.23 40.6-69.35.43-.73.81-1.17 1.75-.92 4.4 1.17 8.75.93 13.05-.52.13-.04.28 0 .57 0-2.66 4.47-5.29 8.86-7.9 13.26-16.79 28.37-33.63 56.72-50.3 85.16-2.91 4.96-5.2 10.3-7.59 15.54-.89 1.94-1.39 4.08-.82 6.31.69 2.69 2.71 3.98 5.44 3.32 3.55-.87 6.27-3.13 8.88-5.5 6.86-6.22 12.55-13.47 18.04-20.87 1.94-2.61 3.65-5.4 5.26-8.23 3.96-6.93 9.54-12.3 15.99-16.81 8.57-5.99 17.68-10.96 27.81-13.8 3.55-1 7.2-1.64 10.87-.83 6.28 1.38 9.13 6.66 7.03 12.72-1.18 3.43-3.53 5.94-6.37 8.03-5.47 4.02-11.75 6.36-18.19 8.18-7.33 2.07-14.79 3.69-22.18 5.58-.77.2-1.64.78-2.07 1.44-3.21 5.01-6.08 10.22-7.05 16.18-.33 2.05-.37 4.24-.01 6.28.77 4.4 4.07 6.86 8.8 7.2 6.57.47 12.21-1.95 17.53-5.41 7.51-4.87 13.61-11.27 19.52-17.91 9.96-11.19 17.79-23.84 25.13-36.81.82-1.44 1.4-3.41 2.66-4.09 1.22-.66 3.18.16 4.81.1 3.36-.13 6.7-.42 10.19-.65-1.37 2.25-2.74 4.52-4.12 6.78-7.8 12.85-15.65 25.67-23.38 38.56-2.42 4.04-4.68 8.21-5.77 12.87-.22.96-.28 2.01-.16 2.99.34 2.79 2.38 4.28 5.22 3.99 3.48-.36 6.21-2.23 8.78-4.37 5.58-4.64 9.98-10.34 14.22-16.17 8.82-12.14 16.14-25.22 23.73-38.14.99-1.69 2.03-3.35 2.95-5.09.48-.92.96-1.26 2.09-1.09 4.41.65 8.82.33 13.03-.5-13.22 22.9-26.46 45.84-39.7 68.78.12.1.24.21.35.31.51-.25 1.03-.5 1.53-.76 15.04-7.78 27.54-18.61 38.15-31.72 2.56-3.17 5.07-6.39 7.68-9.52.47-.57 1.35-.79 2.05-1.17v1.81c-.15.11-.32.2-.44.34-5.22 6.12-10.18 12.48-15.69 18.32-9.71 10.29-21.28 18.22-33.53 25.21-.9.51-1.71 1.38-2.25 2.28-5.4 9-10.46 18.21-16.17 27.01-7.28 11.23-15.94 21.36-26.57 29.66-6.48 5.06-13.26 9.65-21.07 12.44-2.76.99-5.68 1.52-8.53 2.26h-5.14l.05-.01Zm59.77-65.3c-.13-.11-.26-.23-.39-.34-1.87.93-3.74 1.88-5.62 2.8-13.12 6.48-26.17 13.09-38.15 21.58-6.68 4.73-13.02 9.85-17.91 16.5-3.31 4.5-5.65 9.37-5.28 15.18.26 4.13 2.79 6.85 6.9 7.52 4.64.75 9.01-.17 13.22-2.02 6.51-2.85 11.6-7.55 16.2-12.83 5.76-6.62 10.71-13.85 15.22-21.36 5.38-8.94 10.55-18.01 15.81-27.03Zm-224.63-47.99c.45 0 .66.04.84 0 9.72-2.69 19.05-6.28 27.48-11.93 3.61-2.42 7.04-5.03 9.68-8.54 1.56-2.08 2.69-4.35 2.64-7.05-.05-2.25-1.3-3.49-3.56-3.6-2.77-.13-5.24.81-7.6 2.08-5.96 3.2-10.91 7.68-15.64 12.43-5.05 5.07-9.51 10.62-13.83 16.63l-.01-.02Zm168.07-.28.32.32c.24-.04.5-.04.72-.12 5.52-1.97 11.15-3.7 16.54-5.99 6.88-2.93 13.23-6.83 18.52-12.23 2.43-2.48 4.39-5.28 4.53-8.93.1-2.51-1.25-3.84-3.74-3.89-4.04-.08-7.37 1.79-10.57 3.91-7.03 4.65-12.94 10.55-18.35 16.94-2.75 3.25-5.32 6.66-7.97 10v-.01ZM201.015 166.459c3.68-5.82 7.24-11.42 10.77-17.03 7.03-11.19 14.41-22.18 20.31-34.04 1.47-2.95 2.46-6.13 3.63-9.22.16-.41.2-.89.2-1.33 0-1.29-.12-2.58-1.39-3.29-1.25-.71-2.57-.36-3.51.52-2.79 2.6-5.67 5.14-8.12 8.05-8.62 10.24-17.02 20.67-25.62 30.93-6.65 7.93-13.79 15.36-22.6 20.98-4.49 2.86-9.25 5.03-14.67 5.48-9.8.83-16.79-5.02-19.61-11.9-3.38-8.24-2.13-16.28 1.87-23.96 3.61-6.94 9.14-12.21 15.44-16.69 8.81-6.27 18.2-11.46 28.69-14.39 3.61-1.01 7.3-1.65 11.02-.78 5.94 1.4 8.76 6.55 6.91 12.36-1.1 3.45-3.38 6.02-6.21 8.14-5.27 3.96-11.32 6.32-17.56 8.09-7.57 2.15-15.25 3.92-22.9 5.79-1.1.27-1.85.73-2.44 1.72-2.94 4.88-5.79 9.82-6.75 15.52-.37 2.19-.43 4.53-.12 6.73.6 4.24 4.01 6.85 8.63 7.21 5.94.47 11.19-1.44 16.16-4.42 7.25-4.35 13.34-10.08 18.81-16.42 5.29-6.13 10.23-12.56 15.34-18.84 5.02-6.16 9.94-12.41 15.15-18.41 2.12-2.43 4.73-4.54 7.42-6.34 4.03-2.7 8.2-1.74 11.09 2.18 3.1 4.22 3.48 8.94 2.01 13.78-1.06 3.48-2.5 6.84-3.74 10.17.12-.15.36-.39.56-.67 4.6-6.5 9.36-12.86 14.95-18.55 2.93-2.98 6-5.83 9.92-7.52 4.22-1.83 8.81-.79 11.73 2.76 3.88 4.71 4.4 10.13 2.84 15.79-.77 2.82-1.98 5.53-3.16 8.73 1.49-1.92 2.71-3.51 3.95-5.09 5.21-6.61 10.58-13.07 17.26-18.3 1.53-1.2 3.19-2.3 4.93-3.18 6.36-3.25 12.44-1.32 15.87 4.95 2.52 4.62 2.68 9.49 1.42 14.48-1.16 4.57-3.14 8.78-5.71 12.72-4.09 6.28-8.33 12.46-12.24 18.84-1.44 2.35-2.46 5.08-3.08 7.77-1 4.36 2.16 7.12 6.45 5.64 2.18-.75 4.28-2.02 6.12-3.44 5.75-4.43 10.27-10.05 14.7-15.74 4.36-5.6 8.78-11.16 12.83-16.98 3.66-5.28 6.9-10.86 10.24-16.35 8.6-14.13 17.14-28.29 25.74-42.41.26-.43 1.04-.98 1.4-.87 4.19 1.28 8.35.92 12.52-.03.29-.07.59-.07 1.21-.14-10.95 17.73-21.78 35.25-32.6 52.76.1.07.2.14.29.21.63-.8 1.23-1.63 1.9-2.4 4.37-5.06 8.66-10.2 13.16-15.14 2.25-2.47 5.13-4.27 8.44-5.05 5.58-1.31 10.23.33 13.84 4.79 3.68 4.55 4.8 9.85 4.52 15.55-.44 9.23-4.68 16.69-10.87 23.22-7.23 7.62-16.01 13.1-25.16 18.04-4.92 2.66-10.03 4.93-15.6 5.79-2.01.31-4.14.4-6.13.1-4.1-.61-5.51-3.64-5.34-7.64.05-1.09.33-2.17.31-3.36-.23.33-.48.65-.69.99-14.45 24.22-28.9 48.43-43.31 72.67-.65 1.09-1.16 1.57-2.56 1.21-4.33-1.12-8.66-.85-13.25.81 17.85-29.45 35.48-58.55 53.11-87.65l-.29-.2c-1.46 1.81-2.9 3.65-4.39 5.44-4.46 5.34-8.99 10.64-14.78 14.6-2.03 1.39-4.38 2.65-6.75 3.13-5.73 1.14-11.05-2.31-13.21-8.1-2.13-5.71-1.52-11.41 1.09-16.68 2.36-4.74 5.44-9.13 8.28-13.63 3.43-5.44 6.98-10.81 10.36-16.28.91-1.47 1.56-3.16 2.05-4.83 1.32-4.55-1.52-7.47-6.17-6.44-2.97.66-5.47 2.24-7.82 4.08-6.43 5.06-11.56 11.34-16.47 17.79-10.16 13.35-18.95 27.6-27.49 42.01-.62 1.04-1.2 1.19-2.37 1.14-3.82-.15-7.64-.06-11.46-.05-.6 0-1.19.12-2.1.21.4-.65.66-1.1.93-1.54 8.22-13.36 16.55-26.65 24.58-40.13 2.86-4.81 5.09-10.02 7.36-15.15.63-1.42.71-3.25.52-4.83-.37-3.05-2.59-4.33-5.58-3.47-2.84.81-5.07 2.64-7.19 4.57-6.48 5.89-11.81 12.78-16.99 19.78-9.26 12.52-17.29 25.8-24.68 39.48-.44.82-.83 1.24-1.91 1.22-4.27-.11-8.54-.05-12.8-.05h-1.45l.01.03Zm189.08-57.15c0-.55.03-1.11 0-1.66-.23-3.46-1.95-5.65-5.03-6.28-1.82-.37-3.7-.26-5.25.79-2.7 1.82-5.55 3.55-7.82 5.83-12.05 12.13-22.02 25.85-30.4 40.73-1.8 3.19-3.23 6.57-3.65 10.29-.38 3.44 1.23 6.28 4.01 6.58 1.43.15 2.93.08 4.34-.2 3.88-.8 7.21-2.82 10.2-5.3 12.16-10.06 21.9-22.13 29.36-36.01 2.46-4.58 4.11-9.47 4.24-14.76v-.01Zm-232.77 23.06c.56 0 .77.04.95 0 11.38-3.12 22.17-7.52 31.54-14.88 3.34-2.62 6.42-5.53 7.8-9.74.6-1.86 1.06-3.81-.45-5.41-1.45-1.55-3.41-1.21-5.25-.86-3.33.63-6.2 2.32-8.93 4.22-7.54 5.25-13.86 11.78-19.62 18.88-2.01 2.48-3.91 5.06-6.03 7.81l-.01-.02ZM190.045 27.24c-3.17-.63-6.01-1.2-8.84-1.77-9.3-1.86-18.59-3.83-27.91-5.56-8.65-1.61-17.37-2.88-26.2-2.97-4.05-.04-8.11.14-12 .21 1.31 3.93 2.86 7.6 3.75 11.43 2.71 11.75 1.65 23.35-2.19 34.71-4.19 12.39-11.47 22.85-20.49 32.17-6.43 6.649-13.63 12.229-22.35 15.609-6.36 2.46-12.92 3.75-19.78 2.91-8.5-1.04-15.44-7.35-17.32-15.83-1.7-7.68-.4-15.09 2.29-22.31 4.37-11.72 11.29-21.86 19.8-30.92 11.79-12.56 25.64-22.07 42-27.75 2.73-.95 5.52-1.75 8.39-2.66-4.63-6.04-10.55-9.87-17.86-11.42-10.67-2.27-20.91-.47-30.78 3.74-13.19 5.63-23.98 14.42-32.95 25.53-.88 1.1-1.7 2.26-2.68 3.26-.36.37-1.1.36-1.67.53 0-.59-.22-1.36.06-1.74 1.87-2.42 3.75-4.85 5.82-7.11 6.95-7.57 14.66-14.21 23.65-19.3 10.34-5.81 21.4-8.66 33.27-7.87 10.33.69 19.22 4.49 25.85 12.75.59.73 1.12.91 2.04.66 9.47-2.57 19.13-3.51 28.92-3.84 13-.44 25.63 1.84 38.25 4.43 7.72 1.59 15.44 3.16 23.18 4.69.63.13 1.4.06 1.99-.19 10.57-4.49 21.45-7.96 32.79-9.91 8.86-1.53 17.78-2.07 26.76-1.46 4.12.28 8.23.7 12.11 2.23 1.61.63 3.23 1.48 4.55 2.59 3.09 2.58 3.31 6.76.69 9.82-2.62 3.05-6.17 4.61-9.81 5.97-7.16 2.69-14.61 3.98-22.21 4.56-11.64.88-23.23.34-34.78-1.22-7.21-.98-14.4-2.19-21.61-3.22-.77-.11-1.7.13-2.4.51-9.42 5.11-17.31 12.08-24.17 20.24-9.8 11.66-17.35 24.77-24.47 38.15-5.76 10.82-11.56 21.61-17.21 32.49-7.91 15.21-19.92 26.36-34.36 35.18-10.76 6.58-22.18 11.53-34.61 13.92-11.82 2.27-23.67 2.9-35.41-.46-7.3-2.09-13.81-5.63-18.33-11.98-3.68-5.17-4.73-11-3.01-17.07 1.38-4.87 4.41-8.57 9.74-9.4 4.96-.77 9.22 1.42 9.26 7.65.02 2.68-.59 5.06-2.28 7.15-1.99 2.46-5.3 3.48-8.29 2.53-2.06-.65-3.11-2.27-3.28-5.07-.04-.6.04-1.23-.09-1.8-.09-.4-.28-1.14-.69-1.23-.48-.1-1.03.72-1.19.96-.6.91-.86 2.29-.71 5.77.26 5.99 3.36 10.51 7.95 14.1 5.99 4.69 12.89 7.15 20.4 7.85 21.26 1.96 39.11-5.65 54.65-19.63 8.78-7.91 15.98-17.17 22.45-26.97 7.28-11.03 14.23-22.28 21.36-33.42 8.89-13.9 18.74-27.05 30.54-38.65 8.52-8.37 17.84-15.66 28.6-21 .18-.09.34-.2.85-.52l-.03-.05ZM38.135 91.55c.07.77.12 2.23.34 3.66 1.68 11.399 11.29 18.179 22.66 16.219 6.8-1.17 12.84-3.93 18.32-7.99 9.53-7.06 16.85-16.11 23.11-26.05 8.68-13.79 13.68-28.67 12.75-45.19-.27-4.72-1.65-9.17-3.7-13.41-.36-.74-.81-1-1.67-.83-5.59 1.09-11.05 2.62-16.27 4.9-18.79 8.2-33.47 21.35-45.12 37.99-6.28 8.97-10.22 18.86-10.42 30.7Zm172.09-71.89c.05.18.1.35.14.53l1.44.24c13.63 2.48 27.18 5.44 41.08 6.11 6.91.33 13.78.32 20.48-1.7 2.94-.89 5.85-1.91 8.06-4.19 1.87-1.93 1.87-4.18-.18-5.91-1.13-.95-2.49-1.71-3.85-2.3-5.55-2.38-11.47-2.92-17.41-2.97-12.44-.1-24.64 1.66-36.5 5.44-4.47 1.42-8.84 3.16-13.26 4.75Z"/></svg>