<svg width="711" height="316" viewBox="0 0 711 316" fill="none" xmlns="http://www.w3.org/2000/svg">
<path d="M45.4512 306.785H49.1592V306.953H47.8272L50.4912 313.913L53.1193 306.953H51.8112V306.785H54.4032V306.953H53.3232L50.0952 315.509H49.7952L46.5312 306.953H45.4512V306.785Z" fill="#1D1D1B"/>
<path d="M54.6514 315.161H55.9834V306.953H54.6514V306.785H58.5154V306.953H57.1834V315.161H58.5154V315.329H54.6514V315.161Z" fill="#1D1D1B"/>
<path d="M59.1597 315.161H60.4917V306.953H59.1597V306.785H61.7277L65.7838 313.325H65.8077V306.953H64.4757V306.785H67.3197V306.953H65.9877V315.497H65.7477L60.6957 307.445H60.6717V315.161H62.0037V315.329H59.1597V315.161Z" fill="#1D1D1B"/>
<path d="M69.7399 315.161H71.0719V306.953H70.3759C70.2159 306.953 70.0359 306.969 69.8359 307.001C69.6359 307.025 69.4319 307.101 69.2239 307.229C69.0239 307.357 68.8279 307.561 68.6359 307.841C68.4519 308.113 68.2919 308.493 68.1559 308.981H68.0239V306.785H75.3199V308.981H75.1879C75.0519 308.493 74.8879 308.113 74.6959 307.841C74.5119 307.561 74.3159 307.357 74.1079 307.229C73.9079 307.101 73.7079 307.025 73.5079 307.001C73.3079 306.969 73.1279 306.953 72.9679 306.953H72.2719V315.161H73.6039V315.329H69.7399V315.161Z" fill="#1D1D1B"/>
<path d="M78.7567 308.165L77.4367 311.657H80.0767L78.7567 308.165ZM74.8567 315.161H75.9127L79.1527 306.569H79.4407L82.7047 315.161H83.7727V315.329H80.0767V315.161H81.4087L80.1487 311.825H77.3647L76.1047 315.161H77.4367V315.329H74.8567V315.161Z" fill="#1D1D1B"/>
<path d="M92.6879 312.269H91.7279V314.993H91.5839C91.4959 314.905 91.4239 314.845 91.3679 314.813C91.3119 314.781 91.2239 314.765 91.1039 314.765C90.9599 314.765 90.8119 314.805 90.6599 314.885C90.5159 314.957 90.3439 315.041 90.1439 315.137C89.9519 315.233 89.7239 315.317 89.4599 315.389C89.1959 315.469 88.8759 315.509 88.4999 315.509C87.9319 315.509 87.4279 315.417 86.9879 315.233C86.5479 315.041 86.1239 314.741 85.7159 314.333C85.3159 313.933 84.9839 313.461 84.7199 312.917C84.4559 312.373 84.3239 311.761 84.3239 311.081C84.3239 310.625 84.3759 310.217 84.4799 309.857C84.5839 309.489 84.7079 309.169 84.8519 308.897C85.0039 308.625 85.1559 308.397 85.3079 308.213C85.4679 308.029 85.5999 307.885 85.7039 307.781C86.0639 307.421 86.4759 307.129 86.9399 306.905C87.4039 306.681 87.9319 306.569 88.5239 306.569C88.8279 306.569 89.0759 306.593 89.2679 306.641C89.4679 306.689 89.6399 306.745 89.7839 306.809C89.9279 306.865 90.0559 306.917 90.1679 306.965C90.2879 307.013 90.4199 307.037 90.5639 307.037C90.7239 307.037 90.8359 307.017 90.8999 306.977C90.9719 306.929 91.0399 306.865 91.1039 306.785H91.2839V309.185H91.1519C91.1199 308.977 91.0559 308.733 90.9599 308.453C90.8719 308.173 90.7279 307.905 90.5279 307.649C90.3359 307.393 90.0759 307.177 89.7479 307.001C89.4279 306.825 89.0159 306.737 88.5119 306.737C87.9119 306.737 87.4279 306.865 87.0599 307.121C86.6999 307.369 86.4159 307.701 86.2079 308.117C86.0079 308.525 85.8719 308.989 85.7999 309.509C85.7359 310.029 85.7039 310.553 85.7039 311.081C85.7039 311.441 85.7199 311.801 85.7519 312.161C85.7839 312.521 85.8359 312.861 85.9079 313.181C85.9879 313.501 86.0959 313.797 86.2319 314.069C86.3679 314.341 86.5439 314.573 86.7599 314.765C86.9999 314.981 87.2479 315.133 87.5039 315.221C87.7599 315.301 88.0919 315.341 88.4999 315.341C88.7479 315.341 88.9959 315.301 89.2439 315.221C89.4919 315.133 89.7119 315.005 89.9039 314.837C90.1039 314.669 90.2639 314.457 90.3839 314.201C90.5119 313.937 90.5759 313.629 90.5759 313.277V312.269H89.0279V312.101H92.6879V312.269Z" fill="#1D1D1B"/>
<path d="M93.3107 315.161H94.6427V306.953H93.3107V306.785H100.175V308.861H100.043C99.9387 308.549 99.8267 308.277 99.7067 308.045C99.5867 307.805 99.4427 307.605 99.2747 307.445C99.1067 307.277 98.9067 307.153 98.6747 307.073C98.4427 306.993 98.1627 306.953 97.8347 306.953H95.8427V310.661H96.6227C96.8867 310.661 97.1107 310.637 97.2947 310.589C97.4787 310.541 97.6347 310.453 97.7627 310.325C97.8987 310.189 98.0107 310.009 98.0987 309.785C98.1947 309.553 98.2867 309.257 98.3747 308.897H98.5067V312.629H98.3747C98.3187 312.397 98.2587 312.173 98.1947 311.957C98.1387 311.741 98.0547 311.549 97.9427 311.381C97.8387 311.213 97.6947 311.081 97.5107 310.985C97.3347 310.881 97.1027 310.829 96.8147 310.829H95.8427V315.161H98.1107C98.5507 315.161 98.9147 315.069 99.2027 314.885C99.4987 314.693 99.7387 314.469 99.9227 314.213C100.107 313.949 100.243 313.677 100.331 313.397C100.419 313.117 100.475 312.885 100.499 312.701H100.631V315.329H93.3107V315.161Z" fill="#1D1D1B"/>
<path d="M581.445 245.679C578.815 244.929 576.355 243.909 574.505 241.749C571.455 238.179 571.605 234.069 572.555 229.889C574.085 223.179 578.055 217.879 582.765 213.109C590.515 205.269 599.585 199.169 609.265 194.059C619.345 188.739 629.685 183.899 639.935 178.919C641.845 177.989 643.295 176.819 644.355 174.889C649.865 164.849 655.515 154.879 661.105 144.879C661.365 144.409 661.605 143.929 661.635 143.299C660.845 144.339 660.065 145.379 659.265 146.419C654.895 152.139 650.675 157.989 645.365 162.899C642.735 165.329 639.725 167.069 636.065 167.529C632.825 167.939 629.965 167.109 627.525 164.989C622.725 160.819 621.125 155.519 622.815 149.479C623.915 145.549 625.625 141.789 627.015 138.089C626.455 138.749 625.745 139.579 625.035 140.409C618.275 148.369 611.145 155.959 602.335 161.729C597.705 164.759 592.775 167.079 587.145 167.509C578.265 168.189 570.425 163.229 567.255 154.879C565.555 150.389 565.365 145.769 566.195 141.079C566.255 140.739 566.295 140.399 566.125 139.889C565.815 140.279 565.485 140.659 565.185 141.059C559.975 147.979 554.615 154.789 548.155 160.609C545.855 162.679 543.315 164.589 540.645 166.139C533.775 170.119 526.605 166.439 524.325 159.549C522.435 153.809 523.465 148.209 525.695 142.799C526.645 140.489 527.915 138.319 529.055 136.039C528.125 136.929 527.225 137.789 526.325 138.649C523.065 141.769 519.615 144.639 515.115 145.739C513.485 146.139 511.705 146.349 510.055 146.149C505.505 145.599 502.755 142.719 502.615 138.109C502.515 134.639 502.965 131.149 503.155 127.879C500.595 130.429 497.595 133.099 494.965 136.089C489.085 142.769 484.875 150.609 480.245 158.139C478.745 160.579 477.365 163.089 475.845 165.519C475.565 165.979 474.895 166.459 474.395 166.469C469.975 166.539 465.555 166.509 461.135 166.509C461.005 166.509 460.865 166.449 460.565 166.379C461.885 164.219 463.175 162.139 464.445 160.049C472.685 146.409 481.025 132.839 489.075 119.099C491.395 115.149 492.905 110.729 494.725 106.499C495.005 105.839 495.015 105.019 495.025 104.279C495.045 103.129 494.865 101.849 493.625 101.559C492.725 101.349 491.415 101.469 490.725 101.999C488.515 103.729 486.285 105.539 484.475 107.659C476.235 117.299 468.085 127.009 460.015 136.779C452.785 145.529 445.315 154.029 435.965 160.619C431.535 163.739 426.795 166.169 421.395 167.239C410.725 169.349 400.295 162.359 398.255 151.599C396.295 141.279 399.625 132.459 406.195 124.679C412.565 117.129 420.685 111.829 429.315 107.249C435.325 104.059 441.465 101.169 448.225 99.9995C450.725 99.5695 453.395 99.2395 455.855 99.6595C463.175 100.899 466.165 107.669 462.575 114.359C460.735 117.799 457.825 120.189 454.545 122.149C448.005 126.049 440.815 128.299 433.525 130.229C427.905 131.719 422.195 132.879 416.545 134.279C415.815 134.459 414.995 135.019 414.595 135.649C411.375 140.709 408.455 145.949 407.505 151.969C407.195 153.929 407.125 156.019 407.455 157.969C408.215 162.449 411.435 164.989 416.095 165.349C421.235 165.749 425.955 164.439 430.445 162.089C437.165 158.559 442.765 153.589 447.995 148.169C457.355 138.469 464.995 127.369 473.525 116.999C477.685 111.939 481.775 106.829 486.855 102.639C488.635 101.179 490.435 99.5995 492.895 99.4895C498.225 99.2395 501.615 102.109 502.515 107.419C503.395 112.589 502.605 117.549 500.545 122.289C498.805 126.279 496.795 130.149 495.065 134.349C495.345 133.939 495.555 133.459 495.905 133.119C498.595 130.479 501.335 127.879 504.015 125.229C504.535 124.719 504.965 124.069 505.265 123.409C508.815 115.639 513.305 108.549 519.985 103.049C522.455 101.009 525.145 99.3795 528.555 99.4695C531.415 99.5395 532.775 101.329 531.925 104.079C531.015 107.049 528.815 109.089 526.605 111.079C521.105 116.009 514.795 119.799 508.515 123.589C506.675 124.699 505.365 125.999 505.165 128.219C504.905 131.059 504.315 133.899 504.375 136.729C504.505 143.059 508.775 146.039 514.905 144.319C519.815 142.939 523.465 139.709 526.705 136.009C532.895 128.949 537.965 121.099 542.685 113.009C556.175 89.8695 569.755 66.7795 583.285 43.6595C583.715 42.9295 584.095 42.4895 585.035 42.7395C589.435 43.9095 593.785 43.6695 598.085 42.2195C598.215 42.1795 598.365 42.2195 598.655 42.2195C595.995 46.6895 593.365 51.0795 590.755 55.4795C573.965 83.8495 557.125 112.199 540.455 140.639C537.545 145.599 535.255 150.939 532.865 156.179C531.975 158.119 531.475 160.259 532.045 162.489C532.735 165.179 534.755 166.469 537.485 165.809C541.035 164.939 543.755 162.679 546.365 160.309C553.225 154.089 558.915 146.839 564.405 139.439C566.345 136.829 568.055 134.039 569.665 131.209C573.625 124.279 579.205 118.909 585.655 114.399C594.225 108.409 603.335 103.439 613.465 100.599C617.015 99.5995 620.665 98.9595 624.335 99.7695C630.615 101.149 633.465 106.429 631.365 112.489C630.185 115.919 627.835 118.429 624.995 120.519C619.525 124.539 613.245 126.879 606.805 128.699C599.475 130.769 592.015 132.389 584.625 134.279C583.855 134.479 582.985 135.059 582.555 135.719C579.345 140.729 576.475 145.939 575.505 151.899C575.175 153.949 575.135 156.139 575.495 158.179C576.265 162.579 579.565 165.039 584.295 165.379C590.865 165.849 596.505 163.429 601.825 159.969C609.335 155.099 615.435 148.699 621.345 142.059C631.305 130.869 639.135 118.219 646.475 105.249C647.295 103.809 647.875 101.839 649.135 101.159C650.355 100.499 652.315 101.319 653.945 101.259C657.305 101.129 660.645 100.839 664.135 100.609C662.765 102.859 661.395 105.129 660.015 107.389C652.215 120.239 644.365 133.059 636.635 145.949C634.215 149.989 631.955 154.159 630.865 158.819C630.645 159.779 630.585 160.829 630.705 161.809C631.045 164.599 633.085 166.089 635.925 165.799C639.405 165.439 642.135 163.569 644.705 161.429C650.285 156.789 654.685 151.089 658.925 145.259C667.745 133.119 675.065 120.039 682.655 107.119C683.645 105.429 684.685 103.769 685.605 102.029C686.085 101.109 686.565 100.769 687.695 100.939C692.105 101.589 696.515 101.269 700.725 100.439C687.505 123.339 674.265 146.279 661.025 169.219C661.145 169.319 661.265 169.429 661.375 169.529C661.885 169.279 662.405 169.029 662.905 168.769C677.945 160.989 690.445 150.159 701.055 137.049C703.615 133.879 706.125 130.659 708.735 127.529C709.205 126.959 710.085 126.739 710.785 126.359V128.169C710.635 128.279 710.465 128.369 710.345 128.509C705.125 134.629 700.165 140.989 694.655 146.829C684.945 157.119 673.375 165.049 661.125 172.039C660.225 172.549 659.415 173.419 658.875 174.319C653.475 183.319 648.415 192.529 642.705 201.329C635.425 212.559 626.765 222.689 616.135 230.989C609.655 236.049 602.875 240.639 595.065 243.429C592.305 244.419 589.385 244.949 586.535 245.689H581.395L581.445 245.679ZM641.215 180.379C641.085 180.269 640.955 180.149 640.825 180.039C638.955 180.969 637.085 181.919 635.205 182.839C622.085 189.319 609.035 195.929 597.055 204.419C590.375 209.149 584.035 214.269 579.145 220.919C575.835 225.419 573.495 230.289 573.865 236.099C574.125 240.229 576.655 242.949 580.765 243.619C585.405 244.369 589.775 243.449 593.985 241.599C600.495 238.749 605.585 234.049 610.185 228.769C615.945 222.149 620.895 214.919 625.405 207.409C630.785 198.469 635.955 189.399 641.215 180.379ZM416.585 132.389C417.035 132.389 417.245 132.429 417.425 132.389C427.145 129.699 436.475 126.109 444.905 120.459C448.515 118.039 451.945 115.429 454.585 111.919C456.145 109.839 457.275 107.569 457.225 104.869C457.175 102.619 455.925 101.379 453.665 101.269C450.895 101.139 448.425 102.079 446.065 103.349C440.105 106.549 435.155 111.029 430.425 115.779C425.375 120.849 420.915 126.399 416.595 132.409L416.585 132.389ZM584.655 132.109C584.765 132.219 584.865 132.319 584.975 132.429C585.215 132.389 585.475 132.389 585.695 132.309C591.215 130.339 596.845 128.609 602.235 126.319C609.115 123.389 615.465 119.489 620.755 114.089C623.185 111.609 625.145 108.809 625.285 105.159C625.385 102.649 624.035 101.319 621.545 101.269C617.505 101.189 614.175 103.059 610.975 105.179C603.945 109.829 598.035 115.729 592.625 122.119C589.875 125.369 587.305 128.779 584.655 132.119V132.109Z" fill="black"/>
<path d="M201.015 166.459C204.695 160.639 208.255 155.039 211.785 149.429C218.815 138.239 226.195 127.249 232.095 115.389C233.565 112.439 234.555 109.259 235.725 106.169C235.885 105.759 235.925 105.279 235.925 104.839C235.925 103.549 235.805 102.259 234.535 101.549C233.285 100.839 231.965 101.189 231.025 102.069C228.235 104.669 225.355 107.209 222.905 110.119C214.285 120.359 205.885 130.789 197.285 141.049C190.635 148.979 183.495 156.409 174.685 162.029C170.195 164.889 165.435 167.059 160.015 167.509C150.215 168.339 143.225 162.489 140.405 155.609C137.025 147.369 138.275 139.329 142.275 131.649C145.885 124.709 151.415 119.439 157.715 114.959C166.525 108.689 175.915 103.499 186.405 100.569C190.015 99.5595 193.705 98.9195 197.425 99.7895C203.365 101.189 206.185 106.339 204.335 112.149C203.235 115.599 200.955 118.169 198.125 120.289C192.855 124.249 186.805 126.609 180.565 128.379C172.995 130.529 165.315 132.299 157.665 134.169C156.565 134.439 155.815 134.899 155.225 135.889C152.285 140.769 149.435 145.709 148.475 151.409C148.105 153.599 148.045 155.939 148.355 158.139C148.955 162.379 152.365 164.989 156.985 165.349C162.925 165.819 168.175 163.909 173.145 160.929C180.395 156.579 186.485 150.849 191.955 144.509C197.245 138.379 202.185 131.949 207.295 125.669C212.315 119.509 217.235 113.259 222.445 107.259C224.565 104.829 227.175 102.719 229.865 100.919C233.895 98.2195 238.065 99.1795 240.955 103.099C244.055 107.319 244.435 112.039 242.965 116.879C241.905 120.359 240.465 123.719 239.225 127.049C239.345 126.899 239.585 126.659 239.785 126.379C244.385 119.879 249.145 113.519 254.735 107.829C257.665 104.849 260.735 101.999 264.655 100.309C268.875 98.4795 273.465 99.5195 276.385 103.069C280.265 107.779 280.785 113.199 279.225 118.859C278.455 121.679 277.245 124.389 276.065 127.589C277.555 125.669 278.775 124.079 280.015 122.499C285.225 115.889 290.595 109.429 297.275 104.199C298.805 102.999 300.465 101.899 302.205 101.019C308.565 97.7695 314.645 99.6995 318.075 105.969C320.595 110.589 320.755 115.459 319.495 120.449C318.335 125.019 316.355 129.229 313.785 133.169C309.695 139.449 305.455 145.629 301.545 152.009C300.105 154.359 299.085 157.089 298.465 159.779C297.465 164.139 300.625 166.899 304.915 165.419C307.095 164.669 309.195 163.399 311.035 161.979C316.785 157.549 321.305 151.929 325.735 146.239C330.095 140.639 334.515 135.079 338.565 129.259C342.225 123.979 345.465 118.399 348.805 112.909C357.405 98.7795 365.945 84.6195 374.545 70.4995C374.805 70.0695 375.585 69.5195 375.945 69.6295C380.135 70.9095 384.295 70.5495 388.465 69.5995C388.755 69.5295 389.055 69.5295 389.675 69.4595C378.725 87.1895 367.895 104.709 357.075 122.219C357.175 122.289 357.275 122.359 357.365 122.429C357.995 121.629 358.595 120.799 359.265 120.029C363.635 114.969 367.925 109.829 372.425 104.889C374.675 102.419 377.555 100.619 380.865 99.8395C386.445 98.5295 391.095 100.169 394.705 104.629C398.385 109.179 399.505 114.479 399.225 120.179C398.785 129.409 394.545 136.869 388.355 143.399C381.125 151.019 372.345 156.499 363.195 161.439C358.275 164.099 353.165 166.369 347.595 167.229C345.585 167.539 343.455 167.629 341.465 167.329C337.365 166.719 335.955 163.689 336.125 159.689C336.175 158.599 336.455 157.519 336.435 156.329C336.205 156.659 335.955 156.979 335.745 157.319C321.295 181.539 306.845 205.749 292.435 229.989C291.785 231.079 291.275 231.559 289.875 231.199C285.545 230.079 281.215 230.349 276.625 232.009C294.475 202.559 312.105 173.459 329.735 144.359C329.635 144.289 329.545 144.229 329.445 144.159C327.985 145.969 326.545 147.809 325.055 149.599C320.595 154.939 316.065 160.239 310.275 164.199C308.245 165.589 305.895 166.849 303.525 167.329C297.795 168.469 292.475 165.019 290.315 159.229C288.185 153.519 288.795 147.819 291.405 142.549C293.765 137.809 296.845 133.419 299.685 128.919C303.115 123.479 306.665 118.109 310.045 112.639C310.955 111.169 311.605 109.479 312.095 107.809C313.415 103.259 310.575 100.339 305.925 101.369C302.955 102.029 300.455 103.609 298.105 105.449C291.675 110.509 286.545 116.789 281.635 123.239C271.475 136.589 262.685 150.839 254.145 165.249C253.525 166.289 252.945 166.439 251.775 166.389C247.955 166.239 244.135 166.329 240.315 166.339C239.715 166.339 239.125 166.459 238.215 166.549C238.615 165.899 238.875 165.449 239.145 165.009C247.365 151.649 255.695 138.359 263.725 124.879C266.585 120.069 268.815 114.859 271.085 109.729C271.715 108.309 271.795 106.479 271.605 104.899C271.235 101.849 269.015 100.569 266.025 101.429C263.185 102.239 260.955 104.069 258.835 105.999C252.355 111.889 247.025 118.779 241.845 125.779C232.585 138.299 224.555 151.579 217.165 165.259C216.725 166.079 216.335 166.499 215.255 166.479C210.985 166.369 206.715 166.429 202.455 166.429C202.055 166.429 201.665 166.429 201.005 166.429L201.015 166.459ZM390.095 109.309C390.095 108.759 390.125 108.199 390.095 107.649C389.865 104.189 388.145 101.999 385.065 101.369C383.245 100.999 381.365 101.109 379.815 102.159C377.115 103.979 374.265 105.709 371.995 107.989C359.945 120.119 349.975 133.839 341.595 148.719C339.795 151.909 338.365 155.289 337.945 159.009C337.565 162.449 339.175 165.289 341.955 165.589C343.385 165.739 344.885 165.669 346.295 165.389C350.175 164.589 353.505 162.569 356.495 160.089C368.655 150.029 378.395 137.959 385.855 124.079C388.315 119.499 389.965 114.609 390.095 109.319V109.309ZM157.325 132.369C157.885 132.369 158.095 132.409 158.275 132.369C169.655 129.249 180.445 124.849 189.815 117.489C193.155 114.869 196.235 111.959 197.615 107.749C198.215 105.889 198.675 103.939 197.165 102.339C195.715 100.789 193.755 101.129 191.915 101.479C188.585 102.109 185.715 103.799 182.985 105.699C175.445 110.949 169.125 117.479 163.365 124.579C161.355 127.059 159.455 129.639 157.335 132.389L157.325 132.369Z" fill="black"/>
<path d="M190.045 27.2395C186.875 26.6095 184.035 26.0395 181.205 25.4695C171.905 23.6095 162.615 21.6395 153.295 19.9095C144.645 18.2995 135.925 17.0295 127.095 16.9395C123.045 16.8995 118.985 17.0795 115.095 17.1495C116.405 21.0795 117.955 24.7495 118.845 28.5795C121.555 40.3295 120.495 51.9295 116.655 63.2895C112.465 75.6795 105.185 86.1395 96.1652 95.4595C89.7352 102.109 82.5352 107.689 73.8152 111.069C67.4552 113.529 60.8953 114.819 54.0353 113.979C45.5353 112.939 38.5953 106.629 36.7153 98.1495C35.0153 90.4695 36.3152 83.0595 39.0052 75.8395C43.3752 64.1195 50.2953 53.9795 58.8053 44.9195C70.5953 32.3595 84.4452 22.8495 100.805 17.1695C103.535 16.2195 106.325 15.4195 109.195 14.5095C104.565 8.46947 98.6452 4.63947 91.3352 3.08947C80.6652 0.819474 70.4253 2.61947 60.5553 6.82947C47.3653 12.4595 36.5753 21.2495 27.6053 32.3595C26.7253 33.4595 25.9053 34.6195 24.9253 35.6195C24.5653 35.9895 23.8253 35.9795 23.2553 36.1495C23.2553 35.5595 23.0353 34.7895 23.3153 34.4095C25.1853 31.9895 27.0653 29.5595 29.1353 27.2995C36.0852 19.7295 43.7953 13.0895 52.7853 7.99947C63.1253 2.18947 74.1852 -0.660526 86.0552 0.129474C96.3852 0.819474 105.275 4.61947 111.905 12.8795C112.495 13.6095 113.025 13.7895 113.945 13.5395C123.415 10.9695 133.075 10.0295 142.865 9.69947C155.865 9.25947 168.495 11.5395 181.115 14.1295C188.835 15.7195 196.555 17.2895 204.295 18.8195C204.925 18.9495 205.695 18.8795 206.285 18.6295C216.855 14.1395 227.735 10.6695 239.075 8.71947C247.935 7.18947 256.855 6.64947 265.835 7.25947C269.955 7.53947 274.065 7.95947 277.945 9.48947C279.555 10.1195 281.175 10.9695 282.495 12.0795C285.585 14.6595 285.805 18.8395 283.185 21.8995C280.565 24.9495 277.015 26.5095 273.375 27.8695C266.215 30.5595 258.765 31.8495 251.165 32.4295C239.525 33.3095 227.935 32.7695 216.385 31.2095C209.175 30.2295 201.985 29.0195 194.775 27.9895C194.005 27.8795 193.075 28.1195 192.375 28.4995C182.955 33.6095 175.065 40.5795 168.205 48.7395C158.405 60.3995 150.855 73.5095 143.735 86.8895C137.975 97.7095 132.175 108.499 126.525 119.379C118.615 134.589 106.605 145.739 92.1652 154.559C81.4052 161.139 69.9853 166.089 57.5553 168.479C45.7353 170.749 33.8853 171.379 22.1453 168.019C14.8453 165.929 8.33525 162.389 3.81525 156.039C0.135251 150.869 -0.914749 145.039 0.805251 138.969C2.18525 134.099 5.21525 130.399 10.5453 129.569C15.5053 128.799 19.7653 130.989 19.8053 137.219C19.8253 139.899 19.2153 142.279 17.5253 144.369C15.5353 146.829 12.2253 147.849 9.23525 146.899C7.17525 146.249 6.12525 144.629 5.95525 141.829C5.91525 141.229 5.99525 140.599 5.86525 140.029C5.77525 139.629 5.58525 138.889 5.17525 138.799C4.69525 138.699 4.14525 139.519 3.98525 139.759C3.38525 140.669 3.12525 142.049 3.27525 145.529C3.53525 151.519 6.63525 156.039 11.2253 159.629C17.2153 164.319 24.1152 166.779 31.6252 167.479C52.8853 169.439 70.7352 161.829 86.2752 147.849C95.0552 139.939 102.255 130.679 108.725 120.879C116.005 109.849 122.955 98.5995 130.085 87.4595C138.975 73.5595 148.825 60.4095 160.625 48.8095C169.145 40.4395 178.465 33.1495 189.225 27.8095C189.405 27.7195 189.565 27.6095 190.075 27.2895L190.045 27.2395ZM38.1353 91.5495C38.2053 92.3195 38.2553 93.7795 38.4753 95.2095C40.1553 106.609 49.7653 113.389 61.1353 111.429C67.9353 110.259 73.9752 107.499 79.4552 103.439C88.9852 96.3795 96.3052 87.3295 102.565 77.3895C111.245 63.5995 116.245 48.7195 115.315 32.1995C115.045 27.4795 113.665 23.0295 111.615 18.7895C111.255 18.0495 110.805 17.7895 109.945 17.9595C104.355 19.0495 98.8952 20.5795 93.6752 22.8595C74.8852 31.0595 60.2053 44.2095 48.5553 60.8495C42.2753 69.8195 38.3353 79.7095 38.1353 91.5495ZM210.225 19.6595C210.275 19.8395 210.325 20.0095 210.365 20.1895C210.845 20.2695 211.325 20.3495 211.805 20.4295C225.435 22.9095 238.985 25.8695 252.885 26.5395C259.795 26.8695 266.665 26.8595 273.365 24.8395C276.305 23.9495 279.215 22.9295 281.425 20.6495C283.295 18.7195 283.295 16.4695 281.245 14.7395C280.115 13.7895 278.755 13.0295 277.395 12.4395C271.845 10.0595 265.925 9.51947 259.985 9.46947C247.545 9.36947 235.345 11.1295 223.485 14.9095C219.015 16.3295 214.645 18.0695 210.225 19.6595Z" fill="black"/>
</svg>
