<svg xmlns="http://www.w3.org/2000/svg" width="870" height="277" fill="none"><path fill="#000" d="M22.998 35.555v128.814c0 1.226.982 2.289 2.292 2.289h30.855a2.286 2.286 0 0 0 2.291-2.289V35.555c0-1.226.983-2.289 2.292-2.289h18.497c1.228 0 2.291-.98 2.291-2.288V4.087a2.286 2.286 0 0 0-2.291-2.289H2.292C1.064 1.798 0 2.78 0 4.087v26.89c0 1.227.982 2.29 2.292 2.29h18.496c1.228 0 2.292.98 2.292 2.288M88.964 166.658h31.101a2.286 2.286 0 0 0 2.292-2.289V99.553c0-1.226.982-2.288 2.291-2.288h12.522c1.228 0 2.292.98 2.292 2.288v64.816c0 1.226.982 2.289 2.292 2.289h30.855a2.286 2.286 0 0 0 2.291-2.289V4.087a2.286 2.286 0 0 0-2.291-2.289h-30.855c-1.228 0-2.292.981-2.292 2.289V63.59a2.286 2.286 0 0 1-2.292 2.288h-12.522a2.286 2.286 0 0 1-2.291-2.288V4.087a2.287 2.287 0 0 0-2.292-2.289h-31.1c-1.228 0-2.292.981-2.292 2.289v160.282c0 1.226.982 2.289 2.291 2.289ZM185.458 166.658h61.629a2.286 2.286 0 0 0 2.291-2.289v-26.891a2.285 2.285 0 0 0-2.291-2.288H220.16a2.286 2.286 0 0 1-2.292-2.289V99.553c0-1.226.982-2.288 2.292-2.288h23.08c1.228 0 2.292-.981 2.292-2.289v-26.89a2.287 2.287 0 0 0-2.292-2.29h-23.08a2.286 2.286 0 0 1-2.292-2.288V35.391c0-1.226.982-2.288 2.292-2.288h26.927c1.227 0 2.291-.981 2.291-2.289V4.087a2.286 2.286 0 0 0-2.291-2.289h-61.629c-1.228 0-2.291.981-2.291 2.289v160.282c0 1.226.982 2.289 2.291 2.289ZM364.696 80.836v-1.063l18.742-75.196c.328-1.39-.736-2.779-2.209-2.779H348.9a2.282 2.282 0 0 0-2.209 1.717l-14.732 63.18h-.491V4.088a2.287 2.287 0 0 0-2.292-2.289h-30.855c-1.228 0-2.292.981-2.292 2.289v160.282c0 1.226.982 2.289 2.292 2.289h30.855a2.286 2.286 0 0 0 2.292-2.289V97.346h.491l15.223 67.595c.245 1.063 1.145 1.798 2.209 1.798h32.165c1.473 0 2.537-1.307 2.21-2.779l-18.988-83.042-.082-.082Z"/><path fill="#000" d="M513.734 129.468c0 5.722-2.292 9.4-7.121 9.4-4.828 0-7.366-3.678-7.366-9.4v-90.48c0-5.722 2.538-9.4 7.366-9.4 4.829 0 7.121 3.678 7.121 9.4v90.48Zm-82.253 0c0 5.722-2.292 9.4-7.121 9.4-4.828 0-7.366-3.678-7.366-9.4v-90.48c0-5.722 2.538-9.4 7.366-9.4 4.829 0 7.121 3.678 7.121 9.4v90.48ZM506.613 0c-21.606 0-36.666 10.462-41.167 27.218C460.945 10.462 445.885 0 424.278 0c-21.606 0-42.558 15.121-42.558 38.089v92.278c0 22.968 16.532 38.089 42.558 38.089 26.027 0 36.667-10.462 41.168-27.218 4.501 16.756 19.561 27.218 41.167 27.218 21.607 0 42.559-15.121 42.559-38.089V38.089C549.172 15.12 532.64 0 506.613 0ZM606.135 60.81c0 5.722-2.537 8.992-7.12 8.992h-5.074a2.286 2.286 0 0 1-2.292-2.289V34.41c0-1.226.982-2.288 2.292-2.288h5.074c4.583 0 7.12 3.433 7.12 8.99v19.699Zm-3.191-59.012h-44.196c-1.228 0-2.292.981-2.292 2.289v160.282c0 1.226.982 2.289 2.292 2.289h30.609a2.286 2.286 0 0 0 2.292-2.289v-61.792c0-1.226.982-2.288 2.292-2.288h9.003c25.944 0 38.63-13.568 38.63-36.7V38.335c0-22.968-12.604-36.454-38.63-36.454M710.077 135.19h-25.781a2.286 2.286 0 0 1-2.291-2.289V4.087a2.286 2.286 0 0 0-2.292-2.289h-30.2c-1.228 0-2.292.981-2.292 2.289v160.282c0 1.226.982 2.289 2.292 2.289h60.482a2.286 2.286 0 0 0 2.292-2.289v-26.891a2.286 2.286 0 0 0-2.292-2.288M781.527 1.798h-61.629c-1.227 0-2.291.981-2.291 2.289v160.282c0 1.226.982 2.289 2.291 2.289h61.629a2.286 2.286 0 0 0 2.291-2.289v-26.891a2.285 2.285 0 0 0-2.291-2.288H754.6a2.286 2.286 0 0 1-2.291-2.289V99.553c0-1.226.982-2.288 2.291-2.288h23.08c1.228 0 2.292-.981 2.292-2.289v-26.89a2.286 2.286 0 0 0-2.292-2.29H754.6a2.286 2.286 0 0 1-2.291-2.288V35.391c0-1.226.982-2.288 2.291-2.288h26.927c1.228 0 2.291-.981 2.291-2.289V4.087a2.286 2.286 0 0 0-2.291-2.289ZM854.122 79.201l-26.926-19.044c-3.683-2.779-5.32-5.476-5.32-11.28v-9.89c0-5.72 2.046-9.399 6.875-9.399 4.829 0 6.629 3.678 6.629 9.4v18.88c0 1.226.982 2.289 2.292 2.289h29.709c1.228 0 2.292-.98 2.292-2.289v-19.78C869.673 14.877 854.695 0 828.751 0c-25.945 0-42.314 14.957-42.314 38.089v17.654c0 14.467 4.829 22.477 15.878 29.834l26.927 19.289c3.683 2.779 5.32 5.313 5.32 11.279v13.323c0 5.722-2.046 9.4-6.63 9.4-4.583 0-6.875-3.678-6.875-9.4v-21.823a2.286 2.286 0 0 0-2.291-2.289h-29.955a2.286 2.286 0 0 0-2.292 2.289v22.722c0 23.213 14.978 38.089 40.922 38.089 25.945 0 42.559-14.958 42.559-38.089v-21.332c0-14.468-4.829-22.478-15.878-29.834ZM10.803 257.302c.164 3.188.9 5.721 2.21 7.765 2.456 3.678 6.711 5.558 12.85 5.558 6.138 0 5.238-.409 7.53-1.226 4.337-1.553 6.547-4.414 6.547-8.501s-.9-5.231-2.783-6.539c-1.882-1.307-4.829-2.37-8.839-3.351l-7.366-1.716c-4.829-1.144-8.184-2.37-10.23-3.678-3.438-2.371-5.157-5.803-5.157-10.462s1.72-9.155 5.075-12.424c3.355-3.188 8.184-4.822 14.404-4.822 6.22 0 10.558 1.389 14.568 4.25 4.01 2.861 5.975 7.356 5.975 13.568h-7.12c-.328-3.024-1.146-5.313-2.374-6.866-2.21-2.942-5.975-4.414-11.294-4.414-5.32 0-7.366.899-9.249 2.861-1.882 1.962-2.782 4.087-2.782 6.539s1.146 4.741 3.355 6.048c1.473.818 4.747 1.798 9.903 3.024l7.612 1.799c3.683.899 6.547 2.043 8.512 3.514 3.437 2.616 5.156 6.457 5.156 11.361 0 4.905-2.21 10.626-6.63 13.323-4.42 2.698-9.494 4.005-15.386 4.005-5.893 0-12.113-1.798-15.96-5.313-3.846-3.514-5.729-8.336-5.647-14.385h7.12v.082ZM80.616 219.377h40.677v6.866h-33.31v17h30.772v6.458H87.982v18.962h33.883v6.702H80.616v-55.988ZM193.561 223.464c3.846 3.759 6.056 8.01 6.465 12.75h-7.447c-.819-3.596-2.456-6.457-4.911-8.582-2.455-2.125-5.893-3.188-10.394-3.188-4.502 0-9.822 1.962-13.177 5.804-3.356 3.841-4.993 9.808-4.993 17.818 0 8.01 1.474 11.851 4.502 15.938 3.028 4.087 7.529 6.13 13.504 6.13s9.658-2.125 12.604-6.457c1.555-2.288 2.701-5.231 3.437-8.909h7.448c-.654 5.885-2.782 10.871-6.465 14.794-4.42 4.822-10.313 7.193-17.842 7.193-7.53 0-11.868-1.962-16.205-5.885-5.73-5.231-8.676-13.241-8.676-24.194 0-10.952 2.128-15.039 6.466-20.352 4.665-5.721 11.131-8.582 19.397-8.582 8.266 0 12.44 1.88 16.369 5.64l-.082.082ZM278.433 227.387c3.683 4.986 5.565 11.279 5.565 19.044 0 7.765-2.128 15.285-6.384 20.843-4.992 6.538-12.113 9.726-21.361 9.726-9.248 0-15.387-2.861-20.379-8.582-4.42-5.476-6.629-12.424-6.629-20.843 0-8.418 1.882-14.058 5.647-19.453 4.829-6.947 11.949-10.38 21.443-10.38 9.494 0 17.269 3.188 22.016 9.563l.082.082Zm-6.711 35.718c3.028-4.822 4.501-10.299 4.501-16.51 0-6.212-1.719-11.934-5.156-15.939-3.438-4.005-8.185-6.048-14.159-6.048-5.975 0-10.558 1.961-14.241 5.966-3.683 4.006-5.484 9.89-5.484 17.574 0 7.683 1.555 11.442 4.747 15.693 3.11 4.25 8.267 6.375 15.305 6.375 7.039 0 11.54-2.37 14.487-7.193v.082ZM314.935 219.377h8.921l27.991 45.281v-45.281h7.284v55.988h-8.512l-28.4-45.199v45.199h-7.284v-55.988ZM393.587 219.377h22.425c7.612 0 13.504 2.697 17.679 8.173 3.764 4.904 5.647 11.28 5.647 18.963 0 7.683-1.146 11.361-3.356 16.102-3.928 8.5-10.558 12.75-20.052 12.75h-22.343v-55.988Zm20.952 49.531c2.537 0 4.583-.245 6.22-.817 2.865-.981 5.238-2.861 7.121-5.722 1.473-2.288 2.537-5.149 3.192-8.663a31.05 31.05 0 0 0 .572-5.885c0-6.948-1.309-12.342-4.092-16.184-2.701-3.841-7.038-5.721-13.013-5.721h-13.177v42.992h13.259-.082ZM522 224.199l-3.356 4.577-3.355-4.577c-6.711-9.154-20.707-8.419-26.354 1.39-3.355 5.721-2.701 12.914 1.637 18.063L518.726 277l28.155-33.348c4.255-5.067 4.91-12.26 1.636-18.063-5.729-9.89-19.642-10.626-26.353-1.39H522ZM602.289 219.377h7.611v49.368h28.155v6.702h-35.766v-56.07ZM713.842 227.387c3.683 4.986 5.565 11.279 5.565 19.044 0 7.765-2.128 15.285-6.383 20.843-4.993 6.538-12.113 9.726-21.362 9.726-9.248 0-15.386-2.861-20.379-8.582-4.419-5.476-6.629-12.424-6.629-20.843 0-8.418 1.882-14.058 5.647-19.453 4.829-6.947 11.949-10.38 21.443-10.38 9.494 0 17.269 3.188 22.016 9.563l.082.082Zm-6.711 35.718c3.028-4.822 4.501-10.299 4.501-16.51 0-6.212-1.719-11.934-5.156-15.939-3.437-4.005-8.184-6.048-14.159-6.048-5.975 0-10.558 1.961-14.241 5.966-3.683 4.006-5.483 9.89-5.483 17.574 0 7.683 1.555 11.442 4.747 15.693 3.11 4.25 8.266 6.375 15.304 6.375 7.039 0 11.54-2.37 14.487-7.193v.082ZM754.764 219.377l16.123 47.733 15.96-47.733h8.511l-20.461 55.988h-8.02l-20.461-55.988h8.43-.082ZM825.068 219.377h40.676v6.866h-33.31v17h30.773v6.458h-30.773v18.962h33.883v6.702h-41.249v-55.988Z"/></svg>