<svg xmlns="http://www.w3.org/2000/svg" width="493" height="104" fill="none"><path fill="#343433" d="M121.135.537h25.577V3.72h-20.376v13.267h15.174v3.182h-15.174v14.328h21.066v3.183h-26.267V.537Z"/><path fill="#333" d="M18.116 30.633 5.493.528H0l15.95 37.288h2.483L34.436.528h-3.803L18.116 30.633ZM50.696.211 34.693 37.5h3.751l4.857-11.514h15.316l4.912 11.514h5.599L53.178.211h-2.482Zm-6.179 22.816 6.391-15.21 6.443 15.21H44.517ZM104.668 27.834 82.749.528h-4.912v36.97h3.696V6.867l24.771 30.792h2.061V.528h-3.697v27.306ZM126.297 20.07h15.106v-3.168h-15.106V3.696h20.283V.527h-25.46V37.5h26.147v-3.169h-20.97V20.07ZM171.902 16.743l-4.964-1.32c-4.596-1.215-6.867-2.643-6.867-6.234 0-3.749 3.33-6.02 7.976-6.02 4.754 0 8.608 2.271 10.722 6.074l2.586-2.483C179.033 2.853 174.226 0 168.047 0c-7.394 0-12.888 4.279-12.888 10.299 0 5.757 3.592 8.186 9.878 9.877l5.069 1.373c4.173 1.11 6.865 2.692 6.865 6.496 0 4.436-3.749 6.656-8.766 6.656-4.7 0-9.4-2.009-12.306-6.92L153.259 30c2.482 4.913 8.45 8.028 14.946 8.028 7.342 0 13.68-4.224 13.68-11.408 0-5.492-3.803-8.24-9.983-9.876ZM207.572 16.743l-4.964-1.32c-4.596-1.215-6.867-2.643-6.867-6.234 0-3.749 3.327-6.02 7.976-6.02 4.754 0 8.608 2.271 10.722 6.074l2.586-2.483C214.703 2.853 209.896 0 203.717 0c-7.394 0-12.888 4.279-12.888 10.299 0 5.757 3.592 8.186 9.878 9.877l5.069 1.373c4.173 1.11 6.865 2.692 6.865 6.496 0 4.436-3.749 6.656-8.766 6.656-4.7 0-9.4-2.009-12.307-6.92L188.929 30c2.482 4.913 8.45 8.028 14.946 8.028 7.341 0 13.68-4.224 13.68-11.408 0-5.492-3.803-8.24-9.983-9.876ZM239.324.211 223.32 37.5h3.751l4.859-11.514h15.316l4.912 11.514h5.598L241.806.211h-2.482Zm-6.178 22.816 6.39-15.21 6.443 15.21h-12.833ZM311.998 18.486v-.106c5.122-.317 9.349-3.538 9.349-8.504 0-6.812-5.969-9.348-13.311-9.348h-12.94V37.5h14.207c7.713 0 13.576-3.01 13.576-9.983 0-6.02-4.965-8.82-10.881-9.03ZM300.272 3.59h6.972c5.335 0 8.716 1.955 8.716 6.601 0 5.23-3.909 6.762-8.821 6.762h-6.867V3.59Zm8.028 30.844h-8.028V20.07h7.342c6.073 0 9.878 2.113 9.878 7.236 0 5.122-3.75 7.129-9.192 7.129ZM358.775 26.46c-1.32-3.91-3.221-6.02-7.868-6.601v-.16c4.964-.104 10.563-2.535 10.563-9.188 0-7.343-6.234-9.983-13.839-9.983h-14.26v36.97h5.176V21.18h7.183c4.858 0 6.337 1.479 7.762 5.492l2.219 5.968c.369 1.056 1.32 3.382 2.377 4.859h5.81a16.757 16.757 0 0 1-3.011-5.283l-2.112-5.756Zm-20.228-8.344V3.591h8.028c5.492 0 9.243 2.008 9.243 7.025 0 5.703-4.174 7.5-9.243 7.5h-8.028ZM398.586 22.71c0 8.083-3.855 11.725-10.458 11.725-6.549 0-10.616-4.118-10.616-11.725V.53h-5.176V23.29c0 9.032 5.176 14.736 15.368 14.736 8.24 0 14.579-5.07 14.579-14.736V.53h-3.697V22.71ZM441.463 27.834 419.545.528h-4.912v36.97h3.696V6.867L443.1 37.658h2.061V.528h-3.698v27.306ZM473.693 0c-10.563 0-18.432 8.345-18.432 19.013 0 10.668 7.869 19.014 18.432 19.014 10.564 0 18.381-8.346 18.381-19.014S484.257 0 473.693 0Zm0 35.07c-7.764 0-12.571-6.233-12.571-16.057 0-9.824 4.807-16.056 12.571-16.056 7.764 0 12.571 6.232 12.571 16.056 0 9.824-4.807 16.056-12.571 16.056Z"/><path fill="#BEC0C2" d="m60.05 86.905-5.056-1.369c-6.27-1.686-9.85-4.108-9.85-9.85 0-6.005 5.478-10.271 12.851-10.271 6.164 0 10.956 2.845 13.275 6.74l-2.581 2.478c-2.107-3.793-5.952-6.058-10.694-6.058-4.634 0-7.953 2.265-7.953 6.005 0 3.581 2.265 5.004 6.848 6.216l4.95 1.316c6.163 1.633 9.956 4.373 9.956 9.85 0 7.163-6.32 11.378-13.642 11.378-6.479 0-12.43-3.108-14.907-8.007l2.635-2.212c2.896 4.9 7.584 6.9 12.272 6.9 5.004 0 8.744-2.212 8.744-6.637 0-3.792-2.687-5.372-6.848-6.479ZM78.016 65.942h25.389v3.16H83.178V82.27h15.064v3.16H83.178v14.222h20.911v3.16H78.016v-36.87ZM128.305 65.414c6.268 0 11.431 2.635 14.696 8.534l-2.581 2.528c-2.369-4.583-5.847-7.638-11.799-7.638-7.585 0-13.168 5.69-13.168 15.592 0 10.165 6.268 15.433 13.168 15.433 5.742 0 9.323-2.686 11.852-7.692l2.582 1.792c-3.319 6.426-8.376 9.376-14.907 9.376-10.219 0-18.593-7.48-18.593-18.698 0-11.272 8.321-19.227 18.75-19.227ZM165.91 100.389c7.742 0 12.536-6.214 12.536-16.013 0-9.796-4.794-16.012-12.536-16.012-7.743 0-12.536 6.216-12.536 16.012 0 9.8 4.793 16.013 12.536 16.013Zm0-34.974c10.534 0 18.33 8.323 18.33 18.961 0 10.641-7.796 18.964-18.33 18.964-10.535 0-18.383-8.323-18.383-18.964 0-10.638 7.848-18.961 18.383-18.961ZM218.102 65.942h3.688v37.027h-2.054l-24.704-30.707v30.55h-3.687v-36.87h4.897l21.86 27.231V65.942ZM240.86 68.944h-5.689V99.81h5.952c9.692 0 15.065-5.634 15.065-15.537 0-9.429-5.373-15.328-15.328-15.328Zm-10.85 33.868v-36.87h11.272c12.8 0 20.594 7.058 20.594 18.33 0 11.641-7.953 18.54-20.226 18.54h-11.64ZM269.024 65.942h25.388v3.16h-20.227V82.27h15.066v3.16h-15.066v14.222h20.912v3.16h-26.073v-36.87ZM347.767 65.942h6.425v36.87h-5.161V71.208l-13.327 31.868h-1.79l-13.379-31.868v31.604h-3.687v-36.87h6.847l12.168 29.181 11.904-29.181ZM369.62 88.38h12.801l-6.428-15.17-6.373 15.17Zm14.064 2.95h-15.275l-4.846 11.482h-3.74l15.96-37.186h2.476l15.908 37.186h-5.583l-4.9-11.482ZM404.577 102.812h-5.161v-36.87h5.161v36.87ZM441.432 65.942h3.688v37.027h-2.055l-24.704-30.707v30.55h-3.686v-36.87h4.897l21.86 27.231V65.942Z"/><path fill="#343433" d="M121.135.537h25.577V3.72h-20.376v13.267h15.174v3.182h-15.174v14.328h21.066v3.183h-26.267V.537Z"/><path fill="#333" d="M18.116 30.633 5.493.528H0l15.95 37.288h2.483L34.436.528h-3.803L18.116 30.633ZM50.696.211 34.693 37.5h3.751l4.857-11.514h15.316l4.912 11.514h5.599L53.178.211h-2.482Zm-6.179 22.816 6.391-15.21 6.443 15.21H44.517ZM104.668 27.834 82.749.528h-4.912v36.97h3.696V6.867l24.771 30.792h2.061V.528h-3.697v27.306ZM126.297 20.07h15.106v-3.168h-15.106V3.696h20.283V.527h-25.46V37.5h26.147v-3.169h-20.97V20.07Z"/></svg>