<svg width="600" height="45" viewBox="0 0 600 45" fill="none" xmlns="http://www.w3.org/2000/svg">
<path d="M36.1 0.399994L21.1 33.5L6.2 0.399994H0L20 44.2H22.3L42.3 0.399994H36.1ZM49 0.399994H54.7V43.8H49V0.399994ZM106.7 0.399994V5.70001H121.6V43.8H127.3V5.70001H142.2V0.399994H106.7ZM181.4 22.1C181.5 31.1 174.3 38.5 165.3 38.6C156.3 38.7 148.9 31.5 148.8 22.5C148.8 22.3 148.8 22.2 148.8 22C148.7 13 155.9 5.6 164.9 5.5C173.9 5.4 181.3 12.6 181.4 21.6C181.4 21.8 181.4 22 181.4 22.1ZM165.1 0C152.9 0.2 143.2 10.3 143.4 22.5C143.6 34.7 153.7 44.4 165.9 44.2C177.9 44 187.6 34.2 187.6 22.1C187.8 10.1 178.1 0.2 166.1 0C165.8 0 165.5 0 165.1 0ZM218 12.8C218 16.5 215.7 20.4 209.4 20.4H200.9V5.79999H209.3C214.8 5.69999 218 8.29999 218 12.8ZM223.9 12.8C223.9 4.29999 217.2 0.5 210.7 0.5H195.1V43.9H200.8V25.7H208.7L221.5 43.9H228.3L215 25C220.4 23.3 224 18.3 223.9 12.8ZM235.7 0.399994H241.4V43.8H235.7V0.399994ZM331.7 31.2C331.5 35.5 327.9 38.8 323.6 38.6C323.4 38.6 323.3 38.6 323.1 38.6H314.5V24.1H323C328.5 24.1 331.7 26.7 331.7 31.2ZM321.9 18.8H314.5V5.70001H322.5C326.2 5.70001 330.1 7.4 330.1 12C330.1 16.7 326 18.8 321.9 18.8ZM331 21.1C334.2 19.3 336.2 15.8 336.1 12.1C336.1 6.30001 331.5 0.5 322.8 0.5H308.8V43.9H322.3C325.9 43.9 337.7 43 337.7 31.2C337.8 26.7 335.1 22.6 331 21.1ZM345.2 0.399994V43.8H370.5V38.5H351V24H369V18.7H350.9V5.60001H370.4V0.299988L345.2 0.399994ZM450 0.399994L430.6 19.7V0.399994H424.9V43.8H430.6V27.1L434 23.7L452.8 43.7H460.2L437.8 19.8L457.4 0.299988L450 0.399994ZM497.5 0.399994V18.7H472.9V0.399994H467.2V43.8H472.9V24H497.5V43.8H503.2V0.399994H497.5ZM268.4 10.8L276.3 28.3H260.4L268.4 10.8ZM267.3 0L247.3 43.8H253.5L258.2 33.4H278.7L283.3 43.5L283.5 43.8H289.7L269.7 0H267.3ZM530.6 10.8L538.5 28.3H522.6L530.6 10.8ZM529.5 0L509.5 43.8H515.7L520.4 33.4H540.9L545.5 43.5L545.6 43.8H551.8L531.8 0H529.5ZM592.5 0.399994L578.6 33.9L564.7 0.399994H557.2V43.8H562.6V9.20001L577 43.5L577.1 43.8H580.1L594.6 9.20001V43.8H600V0.399994H592.5ZM84.3 5.60001C89.9 5.30001 95.2 8.09999 98.3 12.8L102.5 9.10001C98.3 3.30001 91.5 -0.0999939 84.4 0.100006C72.2 -0.199994 62.1 9.50001 61.8 21.7C61.5 33.9 71.2 44 83.4 44.3C83.7 44.3 84 44.3 84.3 44.3C91.4 44.5 98.1 41.2 102.3 35.5L98.2 31.7C95.1 36.3 89.8 39 84.3 38.7C75.2 38.6 67.9 31.1 68 21.9C68.1 12.9 75.4 5.70001 84.3 5.60001ZM398.9 5.60001C404.5 5.30001 409.8 8.09999 412.9 12.8L417.1 9.10001C412.9 3.30001 406.1 -0.0999939 399 0.100006C386.8 -0.199994 376.7 9.50001 376.4 21.7C376.1 33.9 385.8 44 398 44.3C398.3 44.3 398.6 44.3 398.9 44.3C406 44.5 412.7 41.2 416.9 35.5L412.8 31.7C409.7 36.3 404.4 39 398.9 38.7C389.8 38.6 382.5 31.1 382.6 21.9C382.7 12.9 389.9 5.70001 398.9 5.60001Z" fill="#161615"/>
</svg>
