<svg xmlns="http://www.w3.org/2000/svg" width="600" height="45" fill="none"><path fill="#161615" d="m36.1.4-15 33.1L6.2.4H0l20 43.8h2.3L42.3.4h-6.2ZM49 .4h5.7v43.4H49V.4Zm57.7 0v5.3h14.9v38.1h5.7V5.7h14.9V.4h-35.5Zm74.7 21.7c.1 9-7.1 16.4-16.1 16.5-9 .1-16.4-7.1-16.5-16.1V22c-.1-9 7.1-16.4 16.1-16.5 9-.1 16.4 7.1 16.5 16.1v.5ZM165.1 0c-12.2.2-21.9 10.3-21.7 22.5.2 12.2 10.3 21.9 22.5 21.7 12-.2 21.7-10 21.7-22.1.2-12-9.5-21.9-21.5-22.1h-1ZM218 12.8c0 3.7-2.3 7.6-8.6 7.6h-8.5V5.8h8.4c5.5-.1 8.7 2.5 8.7 7Zm5.9 0c0-8.5-6.7-12.3-13.2-12.3h-15.6v43.4h5.7V25.7h7.9l12.8 18.2h6.8L215 25c5.4-1.7 9-6.7 8.9-12.2ZM235.7.4h5.7v43.4h-5.7V.4Zm96 30.8c-.2 4.3-3.8 7.6-8.1 7.4h-9.1V24.1h8.5c5.5 0 8.7 2.6 8.7 7.1Zm-9.8-12.4h-7.4V5.7h8c3.7 0 7.6 1.7 7.6 6.3 0 4.7-4.1 6.8-8.2 6.8Zm9.1 2.3c3.2-1.8 5.2-5.3 5.1-9 0-5.8-4.6-11.6-13.3-11.6h-14v43.4h13.5c3.6 0 15.4-.9 15.4-12.7.1-4.5-2.6-8.6-6.7-10.1ZM345.2.4v43.4h25.3v-5.3H351V24h18v-5.3h-18.1V5.6h19.5V.3l-25.2.1ZM450 .4l-19.4 19.3V.4h-5.7v43.4h5.7V27.1l3.4-3.4 18.8 20h7.4l-22.4-23.9L457.4.3l-7.4.1Zm47.5 0v18.3h-24.6V.4h-5.7v43.4h5.7V24h24.6v19.8h5.7V.4h-5.7ZM268.4 10.8l7.9 17.5h-15.9l8-17.5ZM267.3 0l-20 43.8h6.2l4.7-10.4h20.5l4.6 10.1.2.3h6.2L269.7 0h-2.4Zm263.3 10.8 7.9 17.5h-15.9l8-17.5ZM529.5 0l-20 43.8h6.2l4.7-10.4h20.5l4.6 10.1.1.3h6.2L531.8 0h-2.3Zm63 .4-13.9 33.5L564.7.4h-7.5v43.4h5.4V9.2L577 43.5l.1.3h3l14.5-34.6v34.6h5.4V.4h-7.5ZM84.3 5.6c5.6-.3 10.9 2.5 14 7.2l4.2-3.7c-4.2-5.8-11-9.2-18.1-9-12.2-.3-22.3 9.4-22.6 21.6-.3 12.2 9.4 22.3 21.6 22.6h.9c7.1.2 13.8-3.1 18-8.8l-4.1-3.8c-3.1 4.6-8.4 7.3-13.9 7-9.1-.1-16.4-7.6-16.3-16.8.1-9 7.4-16.2 16.3-16.3Zm314.6 0c5.6-.3 10.9 2.5 14 7.2l4.2-3.7c-4.2-5.8-11-9.2-18.1-9-12.2-.3-22.3 9.4-22.6 21.6-.3 12.2 9.4 22.3 21.6 22.6h.9c7.1.2 13.8-3.1 18-8.8l-4.1-3.8c-3.1 4.6-8.4 7.3-13.9 7-9.1-.1-16.4-7.6-16.3-16.8.1-9 7.3-16.2 16.3-16.3Z"/></svg>