<svg width="668" height="305" viewBox="0 0 668 305" fill="none" xmlns="http://www.w3.org/2000/svg">
<path d="M512.21 302.26V258.94L544.63 292.91V260.69H549.24V304.13L516.83 270.16V302.26H512.21ZM501.49 302.26H496.88V260.68H501.49V302.26ZM479.24 286.18L472.26 269.54L465.16 286.18H479.25H479.24ZM463.35 290.54L458.36 302.26H453.25L472.39 258.69L491.03 302.26H485.92L481.06 290.54H463.35ZM402.88 302.26L409.8 258.38L425.76 293.47L442.03 258.31L448.51 302.26H443.77L439.84 273.34L425.69 304.01L411.73 273.34L407.62 302.26H402.88ZM381.31 265.05H364.36V277.39H380.82V281.75H364.36V297.89H381.31V302.25H359.74V260.67H381.31V265.05ZM324.96 297.9H329.01C332.31 297.9 336.86 297.52 340.92 294.16C344.03 291.54 346.53 287.43 346.53 281.51C346.53 271.54 339.55 265.05 329.02 265.05H324.97V297.9H324.96ZM320.35 260.68H328.83C333.01 260.68 338.93 261.12 344.16 265.54C347.96 268.72 351.27 274.02 351.27 281.5C351.27 290.23 346.97 294.9 343.98 297.46C340.18 300.7 336.19 302.26 328.77 302.26H320.36V260.68H320.35ZM272.6 302.26V258.94L305.02 292.91V260.69H309.63V304.13L277.22 270.16V302.26H272.6ZM225.6 281.5C225.6 291.04 233.14 298.64 242.49 298.64C251.84 298.64 259.38 291.04 259.38 281.5C259.38 271.96 251.84 264.36 242.49 264.36C233.14 264.36 225.6 271.97 225.6 281.5ZM220.86 281.5C220.86 269.1 230.52 259.99 242.49 259.99C254.46 259.99 264.12 269.09 264.12 281.5C264.12 293.91 254.52 303 242.49 303C230.46 303 220.86 293.84 220.86 281.5ZM214.63 269.85C213.32 268.54 211.32 266.98 209.21 265.98C207.03 264.98 204.47 264.36 202.04 264.36C192.44 264.36 185.34 272.09 185.34 281.69C185.34 292.97 194.5 298.64 202.11 298.64C204.92 298.64 207.66 297.83 209.84 296.71C212.21 295.52 213.89 293.97 214.64 293.22V298.96C210.03 302.26 205.23 303.01 202.11 303.01C189.77 303.01 180.61 293.66 180.61 281.63C180.61 269.6 189.9 260 202.36 260C204.85 260 209.65 260.31 214.64 264.11V269.85H214.63ZM174.36 265.05H157.41V277.39H173.87V281.75H157.41V297.89H174.36V302.25H152.79V260.67H174.36V265.05ZM139.08 268.91C138.52 267.79 137.59 266.54 136.65 265.79C135.84 265.17 134.34 264.36 131.97 264.36C127.86 264.36 124.99 266.92 124.99 270.78C124.99 272.4 125.43 273.34 126.55 274.39C127.8 275.64 129.36 276.32 130.91 277.01L134.9 278.76C137.33 279.82 139.57 280.94 141.32 282.69C143.44 284.81 144.31 287.24 144.31 290.23C144.31 297.9 138.64 303.01 131.16 303.01C128.42 303.01 124.99 302.45 122.12 299.64C120.06 297.65 118.81 294.78 118.25 292.28L122.74 291.04C123.05 293.22 124.05 295.09 125.23 296.34C127.04 298.15 129.1 298.65 131.21 298.65C136.88 298.65 139.56 294.6 139.56 290.42C139.56 288.55 139 286.93 137.5 285.56C136.32 284.44 134.69 283.69 132.51 282.69L128.77 280.94C127.15 280.19 125.09 279.32 123.22 277.51C121.41 275.76 120.35 273.83 120.35 270.72C120.35 264.3 125.27 260 132.01 260C134.56 260 136.62 260.5 138.68 261.87C140.36 262.99 141.8 264.68 142.73 266.49L139.05 268.92L139.08 268.91ZM600.97 118.18L574.31 50.81L547.64 118.18H600.97ZM611.64 147.94H536.13L519.57 187.24H479.99L560.55 0.02H589.18L667.49 187.24H628.19L611.63 147.94H611.64ZM404.2 86.46H419.08C426.1 86.46 435.08 86.46 442.94 80.56C449.68 75.23 453.05 66.81 453.05 58.67C453.05 48.28 448 41.27 442.67 37.34C435.09 32.01 425.54 31.44 416.84 31.44H404.21V86.46H404.2ZM422.17 0.00999999C443.22 0.00999999 457.82 2.25 471.57 14.32C486.73 27.79 490.66 46.04 490.66 59.51C490.66 66.81 489.54 87.02 475.22 101.33C464.84 111.71 449.4 117.89 427.78 117.89H404.2V187.22H367.71V0H422.16L422.17 0.00999999ZM279.3 118.18L252.64 50.81L225.97 118.18H279.3ZM289.97 147.94H214.46L197.9 187.24H158.32L238.88 0.02H267.51L345.83 187.24H306.53L289.97 147.94ZM147.09 155.8V187.24H0L90.94 31.45H14.31V0.00999999H151.57L60.62 155.8H147.09Z" fill="black"/>
</svg>
