<svg xmlns="http://www.w3.org/2000/svg" width="668" height="305" fill="none"><path fill="#000" d="M512.21 302.26v-43.32l32.42 33.97v-32.22h4.61v43.44l-32.41-33.97v32.1h-4.62Zm-10.72 0h-4.61v-41.58h4.61v41.58Zm-22.25-16.08-6.98-16.64-7.1 16.64h14.09-.01Zm-15.89 4.36-4.99 11.72h-5.11l19.14-43.57 18.64 43.57h-5.11l-4.86-11.72h-17.71Zm-60.47 11.72 6.92-43.88 15.96 35.09 16.27-35.16 6.48 43.95h-4.74l-3.93-28.92-14.15 30.67-13.96-30.67-4.11 28.92h-4.74Zm-21.57-37.21h-16.95v12.34h16.46v4.36h-16.46v16.14h16.95v4.36h-21.57v-41.58h21.57v4.38Zm-56.35 32.85h4.05c3.3 0 7.85-.38 11.91-3.74 3.11-2.62 5.61-6.73 5.61-12.65 0-9.97-6.98-16.46-17.51-16.46h-4.05v32.85h-.01Zm-4.61-37.22h8.48c4.18 0 10.1.44 15.33 4.86 3.8 3.18 7.11 8.48 7.11 15.96 0 8.73-4.3 13.4-7.29 15.96-3.8 3.24-7.79 4.8-15.21 4.8h-8.41v-41.58h-.01Zm-47.75 41.58v-43.32l32.42 33.97v-32.22h4.61v43.44l-32.41-33.97v32.1h-4.62Zm-47-20.76c0 9.54 7.54 17.14 16.89 17.14 9.35 0 16.89-7.6 16.89-17.14 0-9.54-7.54-17.14-16.89-17.14-9.35 0-16.89 7.61-16.89 17.14Zm-4.74 0c0-12.4 9.66-21.51 21.63-21.51 11.97 0 21.63 9.1 21.63 21.51 0 12.41-9.6 21.5-21.63 21.5s-21.63-9.16-21.63-21.5Zm-6.23-11.65c-1.31-1.31-3.31-2.87-5.42-3.87-2.18-1-4.74-1.62-7.17-1.62-9.6 0-16.7 7.73-16.7 17.33 0 11.28 9.16 16.95 16.77 16.95 2.81 0 5.55-.81 7.73-1.93 2.37-1.19 4.05-2.74 4.8-3.49v5.74c-4.61 3.3-9.41 4.05-12.53 4.05-12.34 0-21.5-9.35-21.5-21.38S189.9 260 202.36 260c2.49 0 7.29.31 12.28 4.11v5.74h-.01Zm-40.27-4.8h-16.95v12.34h16.46v4.36h-16.46v16.14h16.95v4.36h-21.57v-41.58h21.57v4.38Zm-35.28 3.86c-.56-1.12-1.49-2.37-2.43-3.12-.81-.62-2.31-1.43-4.68-1.43-4.11 0-6.98 2.56-6.98 6.42 0 1.62.44 2.56 1.56 3.61 1.25 1.25 2.81 1.93 4.36 2.62l3.99 1.75c2.43 1.06 4.67 2.18 6.42 3.93 2.12 2.12 2.99 4.55 2.99 7.54 0 7.67-5.67 12.78-13.15 12.78-2.74 0-6.17-.56-9.04-3.37-2.06-1.99-3.31-4.86-3.87-7.36l4.49-1.24c.31 2.18 1.31 4.05 2.49 5.3 1.81 1.81 3.87 2.31 5.98 2.31 5.67 0 8.35-4.05 8.35-8.23 0-1.87-.56-3.49-2.06-4.86-1.18-1.12-2.81-1.87-4.99-2.87l-3.74-1.75c-1.62-.75-3.68-1.62-5.55-3.43-1.81-1.75-2.87-3.68-2.87-6.79 0-6.42 4.92-10.72 11.66-10.72 2.55 0 4.61.5 6.67 1.87 1.68 1.12 3.12 2.81 4.05 4.62l-3.68 2.43.03-.01Zm461.89-150.73-26.66-67.37-26.67 67.37h53.33Zm10.67 29.76h-75.51l-16.56 39.3h-39.58L560.55.02h28.63l78.31 187.22h-39.3l-16.56-39.3h.01ZM404.2 86.46h14.88c7.02 0 16 0 23.86-5.9 6.74-5.33 10.11-13.75 10.11-21.89 0-10.39-5.05-17.4-10.38-21.33-7.58-5.33-17.13-5.9-25.83-5.9h-12.63v55.02h-.01ZM422.17.01c21.05 0 35.65 2.24 49.4 14.31 15.16 13.47 19.09 31.72 19.09 45.19 0 7.3-1.12 27.51-15.44 41.82-10.38 10.38-25.82 16.56-47.44 16.56H404.2v69.33h-36.49V0h54.45l.01.01ZM279.3 118.18l-26.66-67.37-26.67 67.37h53.33Zm10.67 29.76h-75.51l-16.56 39.3h-39.58L238.88.02h28.63l78.32 187.22h-39.3l-16.56-39.3Zm-142.88 7.86v31.44H0L90.94 31.45H14.31V.01h137.26L60.62 155.8h86.47Z"/></svg>